<svg height="32" viewBox="0 0 32 32" width="32" xmlns="http://www.w3.org/2000/svg"><g fill="none" fill-rule="evenodd"><path d="M11.556 14.574c-.098-.375-.196-.847-.406-1.552-.167-.557-.342-.859-.47-1.233-.155-.455-.303-.72-.496-1.18a12 12 0 0 1-.457-1.44 1.43 1.43 0 0 1 .244-1.207c.253-.339.962-.49 1.357-.35.37.13.744.511.916.787.288.46.357.632.717 1.542.393.992.564 1.918.61 2.231l.086.452-.044-1.162a50 50 0 0 1-.038-2.939c.002-.126.064-.587.084-.715.078-.5.305-.8.673-.979a1.7 1.7 0 0 1 1.4-.017c.424.173.627.55.688 1.022.014.11.094.987.093 1.107-.013 1.025.006 1.641.015 2.174.004.231.003 1.625.017 1.47.06-.657.094-3.19.344-3.943.144-.433.405-.746.794-.929.43-.203 1.113-.07 1.404.243q.428.46.482 1.153c.032.405-.02.897-.02 1.245 0 .867-.021 1.324-.037 2.121-.001.038-.015.298.023.182a16.413 16.413 0 0 1 .625-1.604c.114-.234.21-.369.415-.688.2-.313.415-.448.668-.56.54-.236 1.109.111 1.3.59.087.215.01.713-.027 1.105-.061.647-.254 1.306-.352 1.648-.128.447-.274 1.235-.34 1.601-.072.394-.234 1.382-.36 1.82-.085.301-.37.978-.651 1.384 0 0-1.074 1.25-1.192 1.812s-.078.567-.101.965c-.024.4.12.923.12.923s-.801.104-1.233.034c-.391-.062-.875-.84-1-1.078-.172-.328-.54-.265-.682-.023-.225.383-.71 1.07-1.051 1.113-.668.084-2.054.03-3.14.02 0 0 .186-1.01-.226-1.358-.305-.26-.83-.784-1.144-1.06l-.832-.92c-.284-.36-.63-1.094-1.243-1.986-.348-.504-1.027-1.085-1.284-1.579-.223-.425-.331-.954-.19-1.325.225-.594.675-.897 1.362-.832.519.05.848.206 1.238.537.225.19.573.534.75.748.163.195.203.276.377.51.23.306.302.458.214.12" fill="#fff"/><g stroke="#000" stroke-linecap="round" stroke-width=".75"><path d="M11.556 14.574c-.098-.375-.196-.847-.406-1.552-.167-.557-.342-.859-.47-1.233-.155-.455-.303-.72-.496-1.18a12 12 0 0 1-.457-1.44 1.43 1.43 0 0 1 .244-1.207c.253-.339.962-.49 1.357-.35.37.13.744.511.916.787.288.46.357.632.717 1.542.393.992.564 1.918.61 2.231l.086.452-.044-1.162a50 50 0 0 1-.038-2.939c.002-.126.064-.587.084-.715.078-.5.305-.8.673-.979a1.7 1.7 0 0 1 1.4-.017c.424.173.627.55.688 1.022.014.11.094.987.093 1.107-.013 1.025.006 1.641.015 2.174.004.231.003 1.625.017 1.47.06-.657.094-3.19.344-3.943.144-.433.405-.746.794-.929.43-.203 1.113-.07 1.404.243q.428.46.482 1.153c.032.405-.02.897-.02 1.245 0 .867-.021 1.324-.037 2.121-.001.038-.015.298.023.182a16.413 16.413 0 0 1 .625-1.604c.114-.234.21-.369.415-.688.2-.313.415-.448.668-.56.54-.236 1.109.111 1.3.59.087.215.01.713-.027 1.105-.061.647-.254 1.306-.352 1.648-.128.447-.274 1.235-.34 1.601-.072.394-.234 1.382-.36 1.82-.085.301-.37.978-.651 1.384 0 0-1.074 1.25-1.192 1.812s-.078.567-.101.965c-.024.4.12.923.12.923s-.801.104-1.233.034c-.391-.062-.875-.84-1-1.078-.172-.328-.54-.265-.682-.023-.225.383-.71 1.07-1.051 1.113-.668.084-2.054.03-3.14.02 0 0 .186-1.01-.226-1.358-.305-.26-.83-.784-1.144-1.06l-.832-.92c-.284-.36-.63-1.094-1.243-1.986-.348-.504-1.027-1.085-1.284-1.579-.223-.425-.331-.954-.19-1.325.225-.594.675-.897 1.362-.832.519.05.848.206 1.238.537.225.19.573.534.75.748.163.195.203.276.377.51.23.306.302.458.214.12" stroke-linejoin="round"/><path d="M18.566 18.734v-3.459M16.551 18.746l-.016-3.473M14.555 15.305l.021 3.426"/></g></g></svg>