<?xml version="1.0" encoding="UTF-8"?>
<svg id="Layer_1" data-name="Layer 1" xmlns="http://www.w3.org/2000/svg" viewBox="0 0 434 146">
  <defs>
    <style>
      .cls-1 {
        fill: #ece9e1;
      }

      .cls-2 {
        fill: #1c222f;
      }
    </style>
  </defs>
  <rect class="cls-2" width="434" height="146"/>
  <path class="cls-1" d="M72.75,109.36c-1.05-34.45-1.91-35.3-36.36-36.36,34.45-1.05,35.3-1.91,36.36-36.36,1.05,34.45,1.91,35.3,36.36,36.36-34.45,1.06-35.3,1.9-36.36,36.36Z"/>
  <g>
    <path class="cls-1" d="M185.29,51.92l6.98,28.49,5.25-28.49h11.76l-2.13,8.77,5.88,19.72,5.25-28.49h11.76l-10.32,42.21h-13.49l-3.86-13.78-3.4,13.78h-13.49l-11.94-42.21h11.76Z"/>
    <path class="cls-1" d="M251.25,51.63c9.98,0,17.47,1.9,17.47,21.68,0,18.62-7.09,21.05-17.47,21.05s-17.47-1.85-17.47-21.05,7.78-21.68,17.47-21.68ZM251.25,84.32c4.96,0,6.29-2.08,6.29-11.01,0-9.8-1.04-11.65-6.29-11.65s-6.29,1.33-6.29,11.65c0,8.82.63,11.01,6.29,11.01Z"/>
    <path class="cls-1" d="M275.52,51.92h18.86c7.5,0,12.92,3.06,12.92,13.55s-3.29,11.53-6.23,12.69l7.27,15.97h-12.74l-5.42-14.93-3.46-.81v15.74h-11.19v-42.21ZM292.94,69.96c2.94,0,3.11-1.5,3.11-4.5,0-2.54-.58-4.04-3.11-4.04h-6.17v8.53h6.17Z"/>
    <path class="cls-1" d="M314.15,51.92h10.61v16.61h2.31l8.59-16.61h12.86l-11.59,21.22,11.59,20.99h-12.86l-8.59-16.15h-2.25v16.15h-10.67v-42.21Z"/>
    <path class="cls-1" d="M354.05,62.99c0-7.55,4.96-11.01,11.42-11.42,8.52-.53,13.61.35,17.88,1.9v8.71c-3.69-.4-10.03-.58-13.84-.58-3.11,0-4.27.12-4.27,2.54v.63c0,1.79.35,2.77,3.46,2.77h5.42c8.76,0,10.78,7.61,10.78,12.22v1.9c0,10.73-6,12.92-11.71,12.92-10.78,0-12.05,0-17.82-1.96v-8.71c2.31.23,9.57.63,14.93.63,2.48,0,3.4-.63,3.4-2.36v-.92c0-1.67-.52-2.54-3.06-2.54h-5.19c-10.96,0-11.42-9.51-11.42-12.22v-3.52Z"/>
  </g>
</svg>