<svg id="Layer_1" data-name="Layer 1" xmlns="http://www.w3.org/2000/svg" viewBox="0 0 19.96 20"><defs><style>.cls-1{fill:#1d1d1d}</style></defs><path class="cls-1" d="M10.64.26c0-.14.12-.26.26-.26h4.4c2.57 0 4.66 2.11 4.66 4.72s-2.09 4.72-4.66 4.72h-4.4c-.14 0-.26-.12-.26-.26zM0 15.29c0-2.57 2.09-4.66 4.66-4.66h.06c2.61 0 4.72 2.09 4.72 4.66s-2.11 4.66-4.72 4.66h-.06C2.09 19.95 0 17.86 0 15.29M19.56 19.56c.16.16.05.44-.18.44h-8.44c-.14 0-.26-.12-.26-.26v-8.43c0-.23.28-.35.44-.18zM9.38 9.13a.26.26 0 0 1-.25.31H2.1c-.12 0-.23-.09-.25-.21L.06.31A.26.26 0 0 1 .31 0h7.02c.12 0 .23.09.25.21l1.78 8.92z"/></svg>