<svg id="Layer_1" xmlns="http://www.w3.org/2000/svg" version="1.1" viewBox="0 0 103 20"><defs><style>.st0{fill:#1d1d1d}</style></defs><path d="M40.63 19.85c.05.09.14.15.24.15h5.33c.21 0 .35-.23.24-.41l-3.43-6.14a.283.283 0 0 1 .09-.37c1.68-1.2 2.78-3.13 2.78-5.67s-.74-4.29-2.2-5.55C42.23.61 40.11 0 37.46 0H26.93a.28.28 0 0 0-.28.28v19.44c0 .15.12.28.28.28h5.37c.15 0 .28-.12.28-.28V14.8c0-.15.12-.28.28-.28h4.72c.1 0 .2.06.24.15l2.8 5.19ZM32.59 5.33c0-.15.12-.28.28-.28h4.28c.99 0 1.69.23 2.14.62.44.38.69.96.69 1.78s-.25 1.4-.69 1.78c-.45.39-1.15.62-2.14.62h-4.28a.28.28 0 0 1-.28-.28V5.32Z" fill="#1d1d1d" fill-rule="evenodd"/><path class="st0" d="M49.58 0a.28.28 0 0 0-.28.28v19.44c0 .15.12.28.28.28h16.79c.15 0 .28-.12.28-.28v-4.38a.28.28 0 0 0-.28-.28H55.5a.28.28 0 0 1-.28-.28v-2.35c0-.15.12-.28.28-.28h10.45c.15 0 .28-.12.28-.28V8.08a.28.28 0 0 0-.28-.28H55.5a.28.28 0 0 1-.28-.28V5.2c0-.15.12-.28.28-.28h10.87c.15 0 .28-.12.28-.28V.28a.28.28 0 0 0-.28-.28zM70.76 0a.28.28 0 0 0-.28.28v19.44c0 .15.12.28.28.28h5.14c.15 0 .28-.12.28-.28v-8.04c0-.31.44-.39.54-.09l2.82 8.22c.04.11.14.19.26.19h4.1c.12 0 .22-.08.26-.19l2.82-8.22c.1-.3.54-.22.54.09v8.04c0 .15.12.28.28.28h5.14c.15 0 .28-.12.28-.28V.28a.28.28 0 0 0-.28-.28H86.2a.27.27 0 0 0-.26.19l-3.82 11.46c-.08.25-.44.25-.53 0L77.77.19a.28.28 0 0 0-.26-.19zM97.35 0a.28.28 0 0 0-.28.28v19.44c0 .15.12.28.28.28h5.37c.15 0 .28-.12.28-.28V.28a.28.28 0 0 0-.28-.28zM10.64.26c0-.14.12-.26.26-.26h4.4c2.57 0 4.66 2.11 4.66 4.72s-2.09 4.72-4.66 4.72h-4.4c-.14 0-.26-.12-.26-.26zM0 15.29c0-2.57 2.09-4.66 4.66-4.66h.06c2.61 0 4.72 2.09 4.72 4.66s-2.11 4.66-4.72 4.66h-.06C2.09 19.95 0 17.86 0 15.29M19.56 19.56c.16.16.05.44-.18.44h-8.44c-.14 0-.26-.12-.26-.26v-8.43c0-.23.28-.35.44-.18zM9.38 9.13a.26.26 0 0 1-.25.31H2.1c-.12 0-.23-.09-.25-.21L.06.31A.26.26 0 0 1 .31 0h7.02c.12 0 .23.09.25.21l1.78 8.92z"/></svg>