<?xml version="1.0" encoding="UTF-8"?>
<svg id="Layer_1" xmlns="http://www.w3.org/2000/svg" version="1.1" viewBox="0 0 434 146">
  <!-- Generator: Adobe Illustrator 29.7.1, SVG Export Plug-In . SVG Version: 2.1.1 Build 8)  -->
  <defs>
    <style>
      .st0 {
        fill: #fff;
      }

      .st1 {
        fill: #1d1d1d;
      }
    </style>
  </defs>
  <rect class="st0" width="434" height="146"/>
  <g>
    <g>
      <path class="st1" d="M74.3,50.1c0-.3.3-.6.6-.6h10.3c6,0,11,5,11,11.1s-4.9,11.1-11,11.1h-10.3c-.3,0-.6-.3-.6-.6v-21Z"/>
      <path class="st1" d="M49.3,85.4c0-6,4.9-11,11-11h.1c6.1,0,11.1,4.9,11.1,11s-5,11-11.1,11h-.1c-6,0-11-4.9-11-11"/>
      <path class="st1" d="M95.2,95.5c.4.4.1,1-.4,1h-19.8c-.3,0-.6-.3-.6-.6v-19.8c0-.5.7-.8,1-.4l19.8,19.8Z"/>
      <path class="st1" d="M71.3,71c0,.3-.2.7-.5.7,0,0,0,0-.1,0h-16.5c-.3,0-.5-.2-.6-.5l-4.2-21c0-.3.2-.7.5-.7,0,0,0,0,.1,0h16.5c.3,0,.5.2.6.5l4.2,21h0Z"/>
    </g>
    <g>
      <path class="st1" d="M196,96.1v-47.4h25.3c6,0,10.8,1.2,14.2,3.7,3.4,2.5,5.2,5.7,5.2,9.5s-1.1,6.1-3.2,8.5c-2.2,2.4-5.4,4.1-9.8,5.2,1.2,1.9,3.1,3.2,5.6,3.8s5.2.6,8.1-.1v16.8c-2.7.7-5.2,1.1-7.4,1.2s-4.3-.1-6.2-.7-3.6-1.5-5-2.8c-1.4-1.3-2.7-3.1-3.7-5.3-1-2.2-1.8-4.9-2.3-8.1h-.7v15.7h-19.9ZM215.9,70.7c.9,0,1.7-.2,2.4-.5.7-.3,1.3-.8,1.8-1.5.5-.7.8-1.6.8-2.7,0-2.8-1.7-4.4-5-4.7v9.3Z"/>
      <path class="st1" d="M250.1,96.1v-47.4h34.7v14.5h-14.8v2.8h11.6v12.7h-11.6v2.8h14.8v14.5h-34.7Z"/>
      <path class="st1" d="M336.1,96.1l1.3-24.3h-2.2l-3,24.3h-15.6l-3-24.3h-2.2l1.3,24.3h-19.3v-47.4h27.1l3,24.3h1.7l3-24.3h27v47.4h-19.3Z"/>
      <path class="st1" d="M364.8,96.1v-47.4h19.9v47.4h-19.9Z"/>
    </g>
  </g>
</svg>