<?xml version="1.0" encoding="UTF-8"?>
<svg id="Layer_1" xmlns="http://www.w3.org/2000/svg" version="1.1" viewBox="0 0 103 20">
  <!-- Generator: Adobe Illustrator 29.7.1, SVG Export Plug-In . SVG Version: 2.1.1 Build 8)  -->
  <defs>
    <style>
      .st0, .st1 {
        fill: #1d1d1d;
      }

      .st1 {
        fill-rule: evenodd;
      }
    </style>
  </defs>
  <path class="st1" d="M40.63,19.85c.05.09.14.15.24.15h5.33c.21,0,.35-.23.24-.41l-3.43-6.14c-.07-.13-.03-.29.09-.37,1.68-1.2,2.78-3.13,2.78-5.67s-.74-4.29-2.2-5.55C42.23.61,40.11,0,37.46,0h-10.53C26.78,0,26.65.12,26.65.28v19.44c0,.15.12.28.28.28h5.37c.15,0,.28-.12.28-.28v-4.92c0-.15.12-.28.28-.28h4.72c.1,0,.2.06.24.15l2.8,5.19h0ZM32.59,5.33c0-.15.12-.28.28-.28h4.28c.99,0,1.69.23,2.14.62.44.38.69.96.69,1.78s-.25,1.4-.69,1.78c-.45.39-1.15.62-2.14.62h-4.28c-.15,0-.28-.12-.28-.28v-4.25h0Z"/>
  <path class="st0" d="M49.58,0c-.15,0-.28.12-.28.28v19.44c0,.15.12.28.28.28h16.79c.15,0,.28-.12.28-.28v-4.38c0-.15-.12-.28-.28-.28h-10.87c-.15,0-.28-.12-.28-.28v-2.35c0-.15.12-.28.28-.28h10.45c.15,0,.28-.12.28-.28v-3.79c0-.15-.12-.28-.28-.28h-10.45c-.15,0-.28-.12-.28-.28v-2.32c0-.15.12-.28.28-.28h10.87c.15,0,.28-.12.28-.28V.28c0-.15-.12-.28-.28-.28h-16.79Z"/>
  <path class="st0" d="M70.76,0c-.15,0-.28.12-.28.28v19.44c0,.15.12.28.28.28h5.14c.15,0,.28-.12.28-.28v-8.04c0-.31.44-.39.54-.09l2.82,8.22c.04.11.14.19.26.19h4.1c.12,0,.22-.08.26-.19l2.82-8.22c.1-.3.54-.22.54.09v8.04c0,.15.12.28.28.28h5.14c.15,0,.28-.12.28-.28V.28c0-.15-.12-.28-.28-.28h-6.74c-.12,0-.23.08-.26.19l-3.82,11.46c-.08.25-.44.25-.53,0L77.77.19c-.04-.11-.14-.19-.26-.19h-6.75Z"/>
  <path class="st0" d="M97.35,0c-.15,0-.28.12-.28.28v19.44c0,.15.12.28.28.28h5.37c.15,0,.28-.12.28-.28V.28c0-.15-.12-.28-.28-.28h-5.37Z"/>
  <path class="st0" d="M10.64.26c0-.14.12-.26.26-.26h4.4c2.57,0,4.66,2.11,4.66,4.72s-2.09,4.72-4.66,4.72h-4.4c-.14,0-.26-.12-.26-.26,0,0,0-8.92,0-8.92Z"/>
  <path class="st0" d="M0,15.29c0-2.57,2.09-4.66,4.66-4.66h.06c2.61,0,4.72,2.09,4.72,4.66s-2.11,4.66-4.72,4.66h-.06c-2.57,0-4.66-2.09-4.66-4.66Z"/>
  <path class="st0" d="M19.56,19.56c.16.16.05.44-.18.44h-8.44c-.14,0-.26-.12-.26-.26v-8.43c0-.23.28-.35.44-.18,0,0,8.44,8.43,8.44,8.43Z"/>
  <path class="st0" d="M9.38,9.13c.03.16-.09.31-.25.31H2.1c-.12,0-.23-.09-.25-.21L.06.31c-.03-.16.09-.31.25-.31h7.02c.12,0,.23.09.25.21l1.78,8.92h.02Z"/>
</svg>