<svg width="434" height="146" viewBox="0 0 434 146" fill="none" xmlns="http://www.w3.org/2000/svg">
<rect width="434" height="146" fill="white"/>
<path d="M57.2513 99.594C43.7873 99.594 33.2273 89.166 33.0293 76.296C32.8313 63.096 43.9853 52.206 57.2513 52.206H57.9773C62.5313 52.074 62.3993 51.678 62.4653 49.104L63.1253 48.906L64.1153 52.404V52.47C64.7093 54.582 68.0093 62.238 71.3753 68.64L70.7813 68.97L65.5013 59.334C63.5213 55.77 60.8153 53.526 56.5253 53.724C47.4173 54.12 38.9693 63.294 39.1013 76.296C39.1673 78.54 39.4313 80.652 39.8933 82.566C40.3553 84.48 41.8733 84.876 43.4573 83.688C48.8693 79.794 58.9673 74.712 73.7513 74.712H88.0733V75.372L84.1133 75.9C81.6713 76.23 79.8233 78.342 79.8233 80.784V80.124C79.8233 92.928 68.8013 99.594 57.2513 99.594ZM57.2513 98.208C64.9073 98.208 73.7513 94.908 73.7513 79.794C73.7513 76.824 71.7053 76.032 67.9433 76.362C55.4693 77.616 47.4173 82.302 43.2593 85.668C42.0053 86.658 41.7413 87.912 42.5993 89.298C46.0313 94.908 51.4433 98.208 57.2513 98.208ZM140.806 97.746L151.3 98.34V99H79.8223V98.34L90.3163 97.746C94.4083 97.482 96.9163 95.502 97.5763 91.278C100.018 84.216 105.694 79.398 111.634 74.844L100.81 59.268C98.3683 55.704 94.4083 54.318 90.3163 54.054L79.8223 53.46V52.8H115.858V53.46L106.948 54.252C104.572 54.45 104.704 55.77 106.09 57.816L115.726 71.61C120.544 67.848 125.032 63.888 127.54 58.608C128.332 56.232 127.54 54.318 125.098 53.988L121.138 53.46V52.8H147.538V53.46L137.044 54.054C132.952 54.318 129.85 56.166 128.398 60.192C125.626 65.076 121.204 68.97 116.782 73.062L130.312 92.532C132.754 96.096 136.714 97.482 140.806 97.746ZM115.594 98.34L124.174 97.548C126.55 97.35 126.418 96.03 124.966 94.05L112.954 76.758C108.598 81.18 104.77 86.196 103.318 92.928C103.054 95.37 104.572 97.35 106.948 97.548L115.594 98.34ZM159.921 99.594C144.675 99.594 141.375 87.978 141.375 74.646V60.654C141.375 56.364 139.461 54.318 135.369 54.054L124.875 53.46V52.8H160.647V53.46L151.737 54.252C149.361 54.45 147.447 56.43 147.447 58.872V74.646C147.447 90.288 152.661 98.208 161.241 98.208C171.009 98.208 177.147 90.288 177.147 74.646V58.872C177.147 56.43 175.233 54.45 172.857 54.252L163.947 53.46V52.8H195.033V53.46L184.539 54.054C180.447 54.318 178.533 56.364 178.533 60.654V74.646C178.533 87.978 174.771 99.594 159.921 99.594ZM222.137 104.478C222.137 109.494 224.777 111.474 227.879 111.54V112.2C221.147 112.2 219.563 106.92 219.563 100.188C219.563 94.446 222.137 87.648 222.137 82.104C222.137 75.966 219.299 71.412 213.623 71.412C208.079 71.412 207.023 77.022 201.875 77.022C200.093 77.022 198.245 76.296 197.453 74.844V92.928C197.453 95.37 199.367 97.35 201.743 97.548L210.653 98.34V99H175.277V98.34L185.771 97.746C189.863 97.482 191.777 95.436 191.777 91.146V78.87C191.777 76.956 190.721 75.372 187.091 75.372V74.712C190.721 74.712 191.777 73.194 191.777 71.28V60.654C191.777 56.364 189.863 54.318 185.771 54.054L175.277 53.46V52.8H197.453V54.582C197.453 56.694 198.377 57.42 199.301 57.42C199.763 57.42 200.159 57.288 200.555 56.958C202.205 55.506 202.601 53.592 202.667 52.8H208.673C211.709 54.45 214.217 57.09 215.339 60.324H210.653C204.515 60.324 197.849 65.406 197.453 71.28C197.453 74.118 199.697 75.57 201.875 75.57C206.429 75.57 207.287 68.244 215.141 68.244C223.061 68.244 226.493 74.118 226.493 81.576C226.493 89.694 222.137 98.142 222.137 104.478ZM203.063 55.506C202.337 57.42 200.951 59.4 197.453 59.664V67.518C199.103 62.832 205.769 59.4 209.861 59.4C208.937 57.354 206.165 54.516 204.383 54.516C203.855 54.516 203.327 54.78 203.063 55.506ZM257.975 53.46L247.481 54.054C243.389 54.318 241.475 56.364 241.475 60.654V71.28C241.475 73.194 242.531 74.778 246.161 74.778V75.438C242.531 75.438 241.475 76.956 241.475 78.87V91.146C241.475 95.436 243.389 97.482 247.481 97.746L257.975 98.34V99H219.299V98.34L229.793 97.746C233.885 97.482 235.799 95.436 235.799 91.146V78.87C235.799 76.956 234.743 75.372 231.113 75.372V74.712C234.743 74.712 235.799 73.194 235.799 71.28V60.654C235.799 56.364 233.885 54.318 229.793 54.054L219.299 53.46V52.8H257.975V53.46Z" fill="black"/>
<path d="M374.497 46.5C369.256 46.5005 364.133 48.0552 359.775 50.9673C355.418 53.8795 352.022 58.0184 350.016 62.8607C348.011 67.703 347.487 73.0312 348.51 78.1715C349.532 83.3118 352.056 88.0334 355.763 91.7392C359.469 95.4451 364.191 97.9687 369.331 98.991C374.471 100.013 379.8 99.4883 384.642 97.4825C389.484 95.4767 393.622 92.0802 396.534 87.7223C399.446 83.3645 401 78.2411 401 73C400.992 65.9739 398.197 59.2379 393.228 54.2699C388.26 49.3019 381.524 46.5076 374.497 46.5ZM389.571 68.7573L377.811 73.7958L386.252 83.9277C386.425 84.1329 386.555 84.3701 386.635 84.6257C386.715 84.8814 386.744 85.1504 386.72 85.4172C386.695 85.684 386.618 85.9434 386.493 86.1803C386.368 86.4173 386.198 86.6272 385.991 86.7979C385.576 87.1441 385.04 87.3111 384.501 87.2622C383.962 87.2132 383.465 86.9524 383.119 86.537L374.497 76.1859L365.874 86.537C365.526 86.9512 365.029 87.2111 364.491 87.26C363.953 87.3089 363.417 87.1428 363.001 86.7979C362.795 86.6268 362.625 86.4168 362.5 86.1799C362.376 85.9431 362.299 85.684 362.275 85.4174C362.25 85.1509 362.278 84.8821 362.358 84.6265C362.437 84.3709 362.566 84.1335 362.737 83.9277L371.186 73.7958L359.426 68.7573C359.173 68.6567 358.942 68.5066 358.747 68.3157C358.552 68.1249 358.397 67.8971 358.291 67.6457C358.188 67.3938 358.135 67.124 358.137 66.8517C358.138 66.5795 358.193 66.3102 358.299 66.0593C358.459 65.68 358.73 65.3586 359.078 65.138C359.425 64.9174 359.832 64.8082 360.243 64.8251C360.516 64.8335 360.784 64.8975 361.031 65.0129L372.46 69.9106V58.221C372.459 57.953 372.511 57.6876 372.613 57.4399C372.715 57.1922 372.865 56.9671 373.054 56.7777C373.244 56.5882 373.469 56.4382 373.716 56.3361C373.964 56.2341 374.229 56.1821 374.497 56.1831C375.038 56.1831 375.557 56.3977 375.939 56.7798C376.322 57.1619 376.537 57.6802 376.538 58.221V69.9106L387.964 65.0129C388.211 64.8966 388.48 64.8318 388.753 64.8224C389.026 64.8129 389.298 64.8591 389.553 64.9581C389.807 65.0562 390.039 65.2034 390.237 65.3913C390.432 65.5816 390.588 65.8087 390.695 66.0595C390.802 66.3103 390.858 66.5798 390.86 66.8525C390.863 67.1251 390.81 67.3953 390.705 67.6468C390.6 67.8984 390.445 68.1261 390.25 68.3163C390.055 68.5071 389.825 68.657 389.571 68.7573Z" fill="black"/>
</svg>
