<svg width="366" height="366" viewBox="0 0 366 366" fill="none" xmlns="http://www.w3.org/2000/svg"><path d="M183.399 1.224c100.497 0 181.965 81.468 181.965 181.965 0 100.496-81.468 181.965-181.965 181.965-100.496 0-181.964-81.469-181.964-181.965S82.903 1.224 183.399 1.224" fill="#EAE7E0"/><path d="M183.399 1.224c100.497 0 181.965 81.468 181.965 181.965 0 100.496-81.468 181.965-181.965 181.965-100.496 0-181.964-81.469-181.964-181.965S82.903 1.224 183.399 1.224Z" stroke="#1C222F" stroke-width="1.049"/><g clip-path="url(#a)"><path d="M230.824 109.757h-94.85c-14.363 0-26.007 11.942-26.007 26.674v93.516c0 14.732 11.644 26.674 26.007 26.674h94.85c14.363 0 26.007-11.942 26.007-26.674v-93.516c0-14.732-11.644-26.674-26.007-26.674" fill="#00005B"/><path d="M168.958 197.616h-22.759l-4.631 14.78c-.06.271-.212.51-.428.677a1.12 1.12 0 0 1-.752.234h-11.514q-.985-.001-.688-1.113l19.704-57.959c.195-.605.392-1.199.59-1.972.258-1.349.39-2.72.393-4.094a.64.64 0 0 1 .117-.463.61.61 0 0 1 .573-.243h15.664q.688 0 .788.506l22.351 64.327q.287 1.011-.59 1.011h-12.809a.9.9 0 0 1-.623-.164.94.94 0 0 1-.363-.544zm-19.2-12.462h15.566a290 290 0 0 0-1.381-4.547q-.787-2.527-1.674-5.405l-1.773-5.76a195 195 0 0 1-1.625-5.558q-.74-2.68-1.341-4.899h-.101a82 82 0 0 1-2.069 8.082q-1.379 4.55-2.808 9.296a262 262 0 0 1-2.805 8.791zM224.619 191.873H205.21c.238 1.97.875 3.866 1.871 5.567a10.2 10.2 0 0 0 4.482 3.788 18.3 18.3 0 0 0 7.835 1.576 34.6 34.6 0 0 0 6.353-.717 23 23 0 0 0 5.462-1.47q.493-.4.493.506v9.599c.029.239-.011.482-.116.698-.105.217-.27.396-.475.515-1.949.885-4 1.511-6.103 1.864a42 42 0 0 1-8.669.758q-6.998 0-11.723-2.222a21 21 0 0 1-7.686-5.96 23.6 23.6 0 0 1-4.235-8.23 33.2 33.2 0 0 1-1.281-9.146 32.7 32.7 0 0 1 1.527-9.952 26.2 26.2 0 0 1 4.585-8.588 22.1 22.1 0 0 1 7.391-5.96c2.888-1.449 6.304-1.969 10.244-1.969a21.8 21.8 0 0 1 9.508 1.922 16.8 16.8 0 0 1 6.451 4.996 23.1 23.1 0 0 1 3.645 7.125 26 26 0 0 1 1.183 7.679q0 2.223-.149 4.042a81 81 0 0 1-.243 2.627.93.93 0 0 1-.295.577.9.9 0 0 1-.593.231q-.59 0-2.021.15c-.951.103-2.135.168-3.544.203s-2.912-.209-4.488-.209m-19.409-9.205h12.895q2.365 0 3.496-.05a3.4 3.4 0 0 0 1.433-.485v-.608a8.3 8.3 0 0 0-.395-2.322 8.24 8.24 0 0 0-3.042-4.263 7.9 7.9 0 0 0-4.939-1.498 8.4 8.4 0 0 0-4.751 1.136 8.7 8.7 0 0 0-3.376 3.614 15 15 0 0 0-1.321 4.476" fill="#99F"/></g><defs><clipPath id="a"><path fill="#fff" d="M109.967 109.757h146.864v146.864H109.967z"/></clipPath></defs></svg>