<svg width="366" height="366" viewBox="0 0 366 366" fill="none" xmlns="http://www.w3.org/2000/svg"><path d="M182.632 1.045c100.496 0 181.965 81.469 181.965 181.965s-81.469 181.965-181.965 181.965S.667 283.506.667 183.01 82.135 1.045 182.632 1.045" fill="#1C222F"/><path d="M182.632 1.045c100.496 0 181.965 81.469 181.965 181.965s-81.469 181.965-181.965 181.965S.667 283.506.667 183.01 82.135 1.045 182.632 1.045Z" stroke="#EAE7E0" stroke-width="1.049"/><g clip-path="url(#a)"><path d="M230.052 109.578h-94.849c-14.364 0-26.008 11.942-26.008 26.674v93.516c0 14.732 11.644 26.674 26.008 26.674h94.849c14.364 0 26.008-11.942 26.008-26.674v-93.516c0-14.732-11.644-26.674-26.008-26.674" fill="#00005B"/><path d="M168.2 197.437h-22.759l-4.631 14.781c-.06.27-.212.51-.428.676s-.482.25-.752.235h-11.514q-.984-.001-.688-1.114l19.704-57.959c.195-.605.393-1.199.59-1.972.258-1.348.39-2.719.393-4.094a.64.64 0 0 1 .117-.462.6.6 0 0 1 .573-.243h15.664q.688-.001.788.505l22.352 64.328q.286 1.011-.591 1.011h-12.809a.9.9 0 0 1-.623-.165.94.94 0 0 1-.363-.544zM149 184.975h15.566a290 290 0 0 0-1.381-4.546 1567 1567 0 0 1-1.673-5.405l-1.774-5.761a195 195 0 0 1-1.625-5.558q-.74-2.68-1.341-4.899h-.1a83 83 0 0 1-2.069 8.082q-1.378 4.55-2.809 9.297a263 263 0 0 1-2.805 8.79zM223.861 191.695h-19.409a14.4 14.4 0 0 0 1.872 5.566 10.2 10.2 0 0 0 4.481 3.789 18.3 18.3 0 0 0 7.835 1.575 34.6 34.6 0 0 0 6.353-.717 23 23 0 0 0 5.462-1.47q.493-.4.493.506v9.599c.03.239-.011.483-.116.699s-.27.395-.475.515c-1.949.884-4 1.511-6.103 1.863a42 42 0 0 1-8.669.758q-6.998 0-11.723-2.222a21 21 0 0 1-7.685-5.96 23.6 23.6 0 0 1-4.236-8.229 33.3 33.3 0 0 1-1.281-9.147 32.6 32.6 0 0 1 1.528-9.951 26.2 26.2 0 0 1 4.585-8.588 22.1 22.1 0 0 1 7.39-5.961c2.889-1.449 6.304-1.969 10.245-1.969a21.8 21.8 0 0 1 9.508 1.922 16.8 16.8 0 0 1 6.45 4.997 23.1 23.1 0 0 1 3.645 7.124 26 26 0 0 1 1.184 7.68q0 2.221-.149 4.041a82 82 0 0 1-.244 2.627.93.93 0 0 1-.295.577.9.9 0 0 1-.593.232q-.59 0-2.021.15-1.428.151-3.544.202c-1.41.036-2.912-.208-4.488-.208m-19.409-9.206h12.896q2.364 0 3.496-.049a3.4 3.4 0 0 0 1.432-.485v-.609a8.3 8.3 0 0 0-.395-2.322 8.24 8.24 0 0 0-3.042-4.262 7.9 7.9 0 0 0-4.939-1.498 8.4 8.4 0 0 0-4.751 1.136 8.7 8.7 0 0 0-3.376 3.613 15 15 0 0 0-1.321 4.476" fill="#99F"/></g><defs><clipPath id="a"><path fill="#fff" d="M109.2 109.578h146.864v146.864H109.2z"/></clipPath></defs></svg>