<svg width="285" height="286" viewBox="0 0 285 286" fill="none" xmlns="http://www.w3.org/2000/svg"><rect x=".409" y="1.266" width="283.848" height="283.848" rx="141.924" fill="#fff"/><rect x=".409" y="1.266" width="283.848" height="283.848" rx="141.924" stroke="#ECE9E1" stroke-width=".818"/><g clip-path="url(#a)"><path d="M142.331 220.705c42.811 0 77.515-34.705 77.515-77.515s-34.704-77.515-77.515-77.515-77.515 34.704-77.515 77.515 34.705 77.515 77.515 77.515" fill="#0D002A"/><path d="M148.452 182.805 117.62 82.228c-1.323-4.211-5.629-6.84-10.808-7.954a28.7 28.7 0 0 0-6.012-.62c-7.583 0-15.003 2.803-16.815 8.574l-4.936 16.19-14.21 46.597c.365 15.753 5.427 30.348 13.846 42.431l4.803-17.667h34.793l5.603 20.612c.991 3.462 4.287 4.781 8.41 4.781 7.09 0 16.49-4.452 16.49-10.552 0-.496-.165-1.154-.332-1.815m-59.687-32.81 12.035-44.19 12.039 44.19zM203.638 162.359c7.583 0 15.993-.658 15.993-15.332 0-18.632-16.487-31.329-35.448-31.329-21.106 0-37.925 15.665-37.925 34.132v12.036c0 20.938 17.313 34.954 41.716 34.954 4.151 0 7.972-.427 11.409-1.158a77.5 77.5 0 0 0 14.693-23.071c-1.345-1.107-2.968-1.822-4.832-1.822-5.442 0-10.387 6.1-20.609 6.1-10.058 0-16.82-5.439-16.82-13.519v-.991zm-31.823-18.3c0-6.596 5.936-9.893 11.871-9.893 6.103 0 12.039 3.297 12.039 9.893 0 3.132-1.155 3.955-3.465 3.955h-20.445z" fill="#EDA2FF"/></g><defs><clipPath id="a"><path fill="#fff" d="M64.816 65.675h155.03v155.03H64.816z"/></clipPath></defs></svg>