<svg width="286" height="286" viewBox="0 0 286 286" fill="none" xmlns="http://www.w3.org/2000/svg"><path d="M142.866.773c78.383 0 141.924 63.542 141.924 141.924s-63.541 141.924-141.924 141.924C64.484 284.621.942 221.079.942 142.697S64.484.773 142.866.773" fill="#EAE7E0"/><path d="M142.866.773c78.383 0 141.924 63.542 141.924 141.924s-63.541 141.924-141.924 141.924C64.484 284.621.942 221.079.942 142.697S64.484.773 142.866.773Z" stroke="#1C222F" stroke-width=".818"/><g clip-path="url(#a)"><path d="M179.812 85.42H105.83c-11.203 0-20.285 9.315-20.285 20.806v72.942c0 11.49 9.082 20.805 20.285 20.805h73.982c11.204 0 20.286-9.315 20.286-20.805v-72.942c0-11.49-9.082-20.806-20.286-20.806" fill="#00005B"/><path d="M131.545 153.946h-17.753l-3.612 11.53a.92.92 0 0 1-.334.527.88.88 0 0 1-.587.183h-8.981q-.768-.001-.537-.869l15.37-45.21c.152-.472.306-.935.46-1.538.202-1.052.304-2.122.307-3.194a.5.5 0 0 1 .091-.361.48.48 0 0 1 .447-.189h12.219q.536 0 .614.394l17.436 50.179q.223.788-.461.788h-9.992a.7.7 0 0 1-.485-.128.73.73 0 0 1-.284-.424zm-14.977-9.721h12.143q-.463-1.575-1.078-3.546-.615-1.972-1.305-4.216l-1.384-4.494q-.69-2.244-1.267-4.335a740 740 0 0 1-1.046-3.822h-.079a64 64 0 0 1-1.614 6.305q-1.075 3.549-2.19 7.251a204 204 0 0 1-2.189 6.857zM174.992 149.467h-15.14a11.3 11.3 0 0 0 1.46 4.342 7.96 7.96 0 0 0 3.496 2.955 14.3 14.3 0 0 0 6.111 1.229 27 27 0 0 0 4.956-.559c1.46-.205 2.891-.59 4.26-1.147q.385-.312.385.395v7.487a.97.97 0 0 1-.09.545.94.94 0 0 1-.371.402c-1.52.69-3.12 1.179-4.761 1.454a33 33 0 0 1-6.762.591q-5.459 0-9.144-1.733a16.35 16.35 0 0 1-5.995-4.65 18.4 18.4 0 0 1-3.304-6.419c-.663-2.317-1-4.72-.999-7.134a25.4 25.4 0 0 1 1.191-7.763 20.5 20.5 0 0 1 3.577-6.699 17.2 17.2 0 0 1 5.765-4.65c2.253-1.13 4.917-1.536 7.991-1.536a17 17 0 0 1 7.416 1.5 13.1 13.1 0 0 1 5.032 3.897 18 18 0 0 1 2.843 5.557 20.3 20.3 0 0 1 .924 5.991q0 1.733-.117 3.152a64 64 0 0 1-.19 2.05.72.72 0 0 1-.23.45.7.7 0 0 1-.463.18q-.46 0-1.576.117c-.742.081-1.665.131-2.765.159-1.099.027-2.271-.163-3.5-.163m-15.14-7.181h10.059q1.845 0 2.727-.039a2.65 2.65 0 0 0 1.118-.378v-.474a6.4 6.4 0 0 0-.309-1.812 6.43 6.43 0 0 0-2.372-3.325 6.17 6.17 0 0 0-3.853-1.168 6.54 6.54 0 0 0-3.706.886 6.77 6.77 0 0 0-2.633 2.819 11.6 11.6 0 0 0-1.031 3.491" fill="#99F"/></g><defs><clipPath id="a"><path fill="#fff" d="M85.59 85.42h114.553v114.553H85.59z"/></clipPath></defs></svg>