<svg width="286" height="286" viewBox="0 0 286 286" fill="none" xmlns="http://www.w3.org/2000/svg"><path d="M142.759.773c78.382 0 141.924 63.542 141.924 141.924s-63.542 141.924-141.924 141.924S.835 221.079.835 142.697 64.376.773 142.759.773" fill="#fff"/><path d="M142.759.773c78.382 0 141.924 63.542 141.924 141.924s-63.542 141.924-141.924 141.924S.835 221.079.835 142.697 64.376.773 142.759.773Z" stroke="#ECE9E1" stroke-width=".818"/><g clip-path="url(#a)"><path d="M179.705 85.42h-73.982c-11.203 0-20.285 9.315-20.285 20.806v72.942c0 11.49 9.082 20.805 20.285 20.805h73.982c11.203 0 20.285-9.315 20.285-20.805v-72.942c0-11.49-9.082-20.806-20.285-20.806" fill="#00005B"/><path d="M131.435 153.946h-17.752l-3.612 11.53a.93.93 0 0 1-.334.527.88.88 0 0 1-.587.183h-8.982q-.767-.001-.536-.869l15.37-45.21c.152-.472.306-.935.46-1.538.201-1.052.304-2.122.306-3.194a.5.5 0 0 1 .092-.361.47.47 0 0 1 .447-.189h12.218q.537 0 .615.394l17.435 50.179q.224.788-.46.788h-9.992a.7.7 0 0 1-.486-.128.73.73 0 0 1-.283-.424zm-14.976-9.721h12.142q-.462-1.575-1.077-3.546-.615-1.972-1.306-4.216l-1.383-4.494a153 153 0 0 1-1.268-4.335q-.576-2.091-1.046-3.822h-.078a64 64 0 0 1-1.614 6.305q-1.075 3.549-2.191 7.251a204 204 0 0 1-2.188 6.857zM174.883 149.467h-15.14a11.2 11.2 0 0 0 1.46 4.342 7.95 7.95 0 0 0 3.496 2.955 14.3 14.3 0 0 0 6.111 1.229 27 27 0 0 0 4.955-.559 18 18 0 0 0 4.261-1.147q.384-.312.384.395v7.487a.97.97 0 0 1-.46.947c-1.52.69-3.12 1.179-4.761 1.454a33 33 0 0 1-6.762.591q-5.458 0-9.145-1.733a16.4 16.4 0 0 1-5.995-4.65 18.4 18.4 0 0 1-3.303-6.419c-.664-2.317-1-4.72-1-7.134a25.5 25.5 0 0 1 1.192-7.763 20.5 20.5 0 0 1 3.576-6.699 17.2 17.2 0 0 1 5.765-4.65c2.253-1.13 4.918-1.536 7.991-1.536 2.55-.064 5.082.448 7.417 1.5a13.1 13.1 0 0 1 5.032 3.897 18.1 18.1 0 0 1 2.843 5.557c.606 1.937.917 3.957.923 5.991q0 1.733-.116 3.152a64 64 0 0 1-.19 2.05.73.73 0 0 1-.23.45.7.7 0 0 1-.463.18q-.46 0-1.576.117c-.742.081-1.665.131-2.765.159s-2.271-.163-3.5-.163m-15.14-7.181h10.059q1.844 0 2.727-.039c.395-.04.776-.169 1.117-.378v-.474a6.5 6.5 0 0 0-.308-1.812 6.43 6.43 0 0 0-2.373-3.325 6.16 6.16 0 0 0-3.852-1.168 6.54 6.54 0 0 0-3.707.886 6.8 6.8 0 0 0-2.633 2.819 11.7 11.7 0 0 0-1.03 3.491" fill="#99F"/></g><defs><clipPath id="a"><path fill="#fff" d="M85.48 85.42h114.554v114.553H85.48z"/></clipPath></defs></svg>