<svg width="1016" height="264" viewBox="0 0 1016 264" fill="none" xmlns="http://www.w3.org/2000/svg"><rect width="1016" height="264" rx="132" fill="#202020"/><path d="M264.45 129.423q3.444.725 4.985 3.263 1.631 2.447 1.631 7.16v8.519q0 7.976-3.625 11.6-3.535 3.535-11.419 3.535h-42.959q-1.088 0-1.541-.453-.453-.544-.453-1.631v-59.363q0-1.088.453-1.541t1.541-.453h42.052q7.16 0 10.514 3.081 3.443 3.082 3.443 9.335v6.435q0 4.079-1.087 6.344t-3.535 3.353zm-36.614-16.948v12.688h20.301q2.628 0 3.534-.906.997-.997.997-3.625v-3.716q0-2.538-.997-3.444-.906-.997-3.443-.997zm26.464 28.821q0-2.63-.997-3.535-.906-.997-3.535-.997h-21.932v14.229h21.932q2.629 0 3.535-.906.997-.997.997-3.625zm43.875 22.657q-8.339 0-12.326-3.897-3.897-3.987-3.897-12.326v-31.992q0-8.338 3.897-12.235 3.987-3.897 12.326-3.897h29.183q8.338 0 12.235 3.897 3.987 3.897 3.987 12.235v31.992q0 8.339-3.987 12.326-3.897 3.897-12.235 3.897zm23.654-14.319q2.72 0 3.807-1.088 1.178-1.178 1.178-3.897v-25.83q0-2.718-1.178-3.806-1.088-1.178-3.807-1.178h-18.126q-2.718 0-3.897 1.178-1.088 1.088-1.088 3.806v25.83q0 2.72 1.088 3.897 1.179 1.088 3.897 1.088zm51.133 14.319q-8.337 0-12.325-3.897-3.897-3.987-3.897-12.326v-31.992q0-8.338 3.897-12.235 3.988-3.897 12.325-3.897h29.183q8.338 0 12.235 3.897 3.988 3.897 3.988 12.235v31.992q0 8.339-3.988 12.326-3.897 3.897-12.235 3.897zm23.655-14.319q2.718 0 3.806-1.088 1.178-1.178 1.178-3.897v-25.83q0-2.718-1.178-3.806-1.088-1.178-3.806-1.178h-18.126q-2.72 0-3.897 1.178-1.088 1.088-1.088 3.806v25.83q0 2.72 1.088 3.897 1.178 1.088 3.897 1.088zm84.053-49.575q1.088 0 1.541.453.543.453.543 1.541v10.875q0 2.085-2.084 2.085h-18.761v46.403q0 2.084-2.084 2.084h-12.688q-1.088 0-1.541-.453-.453-.544-.453-1.631v-46.403h-18.851q-1.088 0-1.541-.453-.453-.544-.453-1.632v-10.875q0-1.088.453-1.541t1.541-.453zm22.17 63.894q-7.884 0-11.51-3.534-3.534-3.625-3.534-11.601v-3.625q0-1.088.453-1.541t1.541-.453h13.05q1.088 0 1.541.453.544.453.544 1.541v1.722q0 2.628.906 3.625.997.906 3.625.906h14.682q2.63 0 3.535-.906.997-.997.997-3.625v-4.713q0-2.628-.997-3.535-.906-.996-3.535-.997h-20.845q-7.884 0-11.51-3.534-3.534-3.626-3.534-11.51v-7.976q0-7.885 3.534-11.419 3.626-3.625 11.51-3.625h26.646q7.885 0 11.419 3.625 3.625 3.534 3.625 11.419v3.626q0 1.087-.453 1.54t-1.54.453h-13.051q-1.088 0-1.541-.453t-.453-1.54v-1.722q0-2.63-.997-3.535-.906-.997-3.535-.997h-13.866q-2.629 0-3.625.997-.906.906-.907 3.535v4.803q0 2.629.907 3.625.996.906 3.625.906h20.845q7.884 0 11.419 3.626 3.626 3.535 3.626 11.419v7.885q0 7.976-3.626 11.601-3.535 3.534-11.419 3.534zm103.332-63.894q1.087 0 1.54.453.544.453.544 1.541v10.875q0 2.085-2.084 2.085h-18.761v46.403q0 2.084-2.084 2.084h-12.689q-1.087 0-1.54-.453-.453-.544-.454-1.631v-46.403h-18.851q-1.087 0-1.54-.453-.453-.544-.453-1.632v-10.875q0-1.088.453-1.541t1.54-.453zm66.286 60.36q.634.815.634 1.45 0 .725-.544 1.178-.453.453-1.359.453h-14.864q-1.087 0-1.812-.272-.635-.363-1.269-1.269l-19.032-23.835h-1.904v23.292q0 2.084-2.084 2.084h-12.688q-1.088 0-1.541-.453-.453-.544-.453-1.631v-59.363q0-1.088.453-1.541t1.541-.453h39.605q7.885 0 11.42 3.625 3.625 3.535 3.625 11.419v8.792q0 7.884-3.535 11.51-3.534 3.625-11.238 3.625h-2.9zm-40.15-47.038v13.142h18.58q2.628 0 3.534-.906.997-.997.997-3.626v-4.078q0-2.628-.997-3.535-.906-.996-3.534-.997zm108.932 47.491q.09.362.09.997 0 1.63-1.812 1.631h-11.692q-1.993 0-2.356-1.631l-2.447-9.517h-25.83l-2.447 9.517q-.272.906-.906 1.268-.544.363-1.541.363h-11.691q-1.812 0-1.813-1.631 0-.635.091-.997l15.226-59.182q.543-1.63 2.447-1.631h27.008q1.902 0 2.447 1.631zm-27.008-46.222h-8.338l-4.26 17.039-1.812 6.888h20.573l-1.813-6.888zm78.515-14.591q7.885 0 11.42 3.625 3.625 3.535 3.625 11.419v9.97q0 7.884-3.625 11.51-3.535 3.534-11.42 3.534H767.28v21.299q0 2.084-2.084 2.084h-12.689q-1.087 0-1.54-.453-.453-.544-.453-1.631v-59.363q0-1.088.453-1.541t1.54-.453zm-1.722 17.854q0-2.628-.997-3.535-.906-.996-3.534-.997H767.28v13.414h19.214q2.628 0 3.534-.907.997-.996.997-3.625z" fill="#EAE7E0"/></svg>