<svg width="1385" height="366" viewBox="0 0 1385 366" fill="none" xmlns="http://www.w3.org/2000/svg"><path d="M183.274.793H1201.71c100.49 0 181.96 81.469 181.96 181.965s-81.47 181.966-181.96 181.966H183.274C82.778 364.724 1.31 283.255 1.31 182.758 1.31 82.262 82.778.794 183.274.793" fill="#1C222F"/><path d="M183.274.793H1201.71c100.49 0 181.96 81.469 181.96 181.965s-81.47 181.966-181.96 181.966H183.274C82.778 364.724 1.31 283.255 1.31 182.758 1.31 82.262 82.778.794 183.274.793Z" stroke="#EAE7E0" stroke-width="1.049"/><g clip-path="url(#a)"><path d="M244.311 129.883c-.337-9.734 7.246-18.711 17.496-18.711h105.049c10.25 0 17.834 8.977 17.497 18.711-.327 9.352.094 21.462 3.144 31.34 3.06 9.906 8.215 16.17 16.661 16.974v9.123c-8.446.804-13.601 7.068-16.661 16.974-3.05 9.878-3.471 21.988-3.144 31.34.337 9.734-7.247 18.71-17.497 18.71H261.807c-10.25 0-17.833-8.976-17.496-18.71.326-9.352-.099-21.462-3.144-31.34-3.06-9.906-8.229-16.17-16.676-16.974v-9.123c8.447-.804 13.616-7.068 16.676-16.974 3.045-9.878 3.47-21.988 3.144-31.34" fill="url(#b)"/><path fill-rule="evenodd" clip-rule="evenodd" d="M344.823 199.289c0 13.405-10.001 21.532-26.599 21.532h-31.301v-76.148h31.14c13.84 0 22.921 7.492 22.921 18.995 0 8.075-6.106 15.307-13.892 16.57v.425c10.597 1.161 17.731 8.495 17.731 18.626m-45.79 11.875v-25.065h16.001c11.461 0 17.409 4.221 17.409 12.453 0 8.233-5.783 12.612-16.703 12.612zm0-56.834h16.11c8.759 0 13.731 3.906 13.731 10.977 0 7.545-5.783 11.766-16.271 11.766h-13.57z" fill="#fff"/></g><path d="M449.233 123.378c.584-.107 1.063-.273 1.54-.272 19.685.076 39.371.047 59.054.322 6.708.092 12.871 2.459 18.382 6.382 12.579 8.951 13.741 34.522-3.527 43.694-.879.467-1.753.938-2.946 1.576 3.281 1.506 6.51 2.516 9.216 4.313 10.386 6.9 14.616 22.338 9.967 35.898-4.058 11.83-13.691 16.715-24.894 19.314a52 52 0 0 1-11.312 1.323c-18.401.133-36.803.06-55.482.06.002-37.494.002-74.993.002-112.61m19.681 96.106c13.686 0 26.977.312 40.243-.112 8.34-.267 14.366-9.206 13.864-17.901-.494-8.57-5.772-15.859-13.929-16.24-13.152-.614-26.34-.44-39.514-.578-.196-.001-.396.289-.665.497zm.046-49.502c12.232 0 24.029.445 35.774-.148 8.648-.437 13.53-7.353 13.207-16.806-.287-8.37-5.229-13.404-14.127-13.639-11.156-.292-22.324-.157-33.488-.183-.454-.001-.909.244-1.366.374zm610-15.47h16.4v8.794c1.83-1.409 4.06-2.973 6.11-4.736 12.57-10.79 42.39-9.466 52.6 12.263 8.78 18.701 8.4 37.508-3.46 54.919-6.56 9.643-16.73 13.089-28.25 12.469-10-.54-18.81-3.685-25.75-12.95v41.006h-17.65zm16.67 41.179c.73 4.095 1.14 8.288 2.28 12.269 2.55 8.882 10.32 15.45 18.37 16.017 10.76.76 18.49-3.217 22.38-12.759 4.94-12.126 4.77-24.355-2.46-35.688-8.52-13.369-28.95-12.251-36.17 1.753-2.97 5.766-4.43 11.833-4.4 18.408m-28.3 28.632c0 3.351.12 6.755-.09 10.141-.04.836-1.09 2.248-1.77 2.306-5.12.426-10.32 1.172-15.37.645-4.46-.465-6.91-4.24-8.29-8.606-10.57 8.608-22.69 10.47-35.59 8.872-10.79-1.336-19.724-10.193-20.493-20.027-1.061-13.553 4.146-22.379 16.313-25.591 8.54-2.253 17.43-3.158 26.16-4.679 2.11-.369 4.26-.67 6.32-1.235 3.98-1.084 6.84-3.283 7.13-7.805.3-4.673-1.51-8.315-5.9-10.084-7.5-3.016-15.13-2.941-22.51.512-3.37 1.576-5.37 4.746-7.13 10.131h-17.3c.014-6.594 2.309-12.136 6.689-16.802 5.781-6.163 13.321-8.583 21.451-9.432 8.5-.89 16.95-.85 25.21 1.935 11.11 3.745 16.42 11.072 16.41 22.803-.02 12.452-.01 24.904-.01 37.358 0 8.838 0 8.838 8.77 9.558m-26.73-28.1c-5.45.944-10.44 1.668-15.36 2.698-5.18 1.083-10.45 2.021-15.39 3.828-4.84 1.774-6.48 6.296-6.32 11.153.15 4.644 3.32 7.245 7.41 8.674 7.01 2.45 14.04 2.148 20.73-.98 4.78-2.24 8.43-5.903 8.86-11.499.35-4.662.07-9.372.07-13.874m-445.043-44.064c27.124-.319 43.031 19.564 41.353 46.637-.582 9.41-3.111 18.204-9.305 25.641-6.675 8.013-15.263 12.233-25.559 13.377-8.597.959-16.952.396-24.918-3.22-11.864-5.386-18.632-14.785-21.478-27.308-1.952-8.583-1.867-17.131.321-25.622 4.828-18.729 19.251-29.432 39.586-29.505m-23.612 43.203c.712 3.974 1.084 8.047 2.202 11.903 2.845 9.819 10.594 16.302 19.454 16.731 10.952.531 18.615-4.076 22.685-14.277 3.974-9.959 3.98-20.151-.377-29.99-6.455-14.576-24.041-18.303-35.365-7.469-6.458 6.177-8.125 14.386-8.599 23.102m117.721-43.202c24.465-.038 41.111 16.448 41.42 40.969.132 10.354-1.555 20.228-7.633 28.901-8.701 12.418-21.268 16.762-35.736 16.104-5.331-.244-10.858-1.428-15.826-3.378-11.665-4.579-18.621-13.595-21.712-25.662-2.713-10.597-2.411-21.127 1.04-31.484 5.294-15.887 19.813-25.422 38.447-25.45m23.449 41c-.394-2.175-.784-6.377-1.956-10.349-2.98-10.102-10.857-16.236-20.781-16.667-9.347-.407-17.753 5.104-21.378 14.755-4.27 11.368-3.955 22.691 2.478 33.282 6.702 11.034 21.894 13.452 31.858 5.22 7.602-6.282 9.462-14.955 9.779-26.241m151.263-15.997c-5.582 0-11.02.045-16.453-.058-.669-.013-1.711-.684-1.927-1.284-3.055-8.487-10.244-9.496-17.678-9.538-3.082-.019-6.362.732-9.216 1.929-6.1 2.559-6.778 9.461-1.061 12.766 3.966 2.294 8.622 3.526 13.096 4.785 6.329 1.783 12.863 2.856 19.152 4.756 16.079 4.86 22.363 20.982 13.36 34.271-4.318 6.374-10.776 9.824-18.182 11.611-10.944 2.641-21.841 2.835-32.537-1.028-11.444-4.134-17.489-12.433-18.381-24.993h17.462c4.965 12.96 18.995 18.008 32.139 11.385 3.04-1.533 5.07-3.713 5.273-7.297.217-3.829-1.263-7.123-4.699-8.405-6.128-2.285-12.528-3.852-18.819-5.697-5.211-1.528-10.587-2.632-15.615-4.622-9.7-3.841-13.915-10.45-13.856-20.526.052-8.788 5.19-16.318 14.298-19.62 12.537-4.546 25.331-5.112 37.923-.179 8.513 3.335 13.587 9.912 15.697 18.767.191.817.024 1.723.024 2.977m-94.808-22.878h16.163v13.216h-15.838c-.112 1.583-.256 2.69-.258 3.797-.016 13.34-.022 26.679.006 40.017.003 1.775.141 3.555.316 5.323.347 3.528 2.306 5.623 5.857 5.816 3.254.178 6.527.038 9.973.038v13.215c-7.382 1.827-14.884 1.73-22.147.113-8.457-1.884-11.893-7.703-11.967-18.717-.103-14.99-.031-29.983-.034-44.974v-4.407h-13.423v-13.367h13.242v-24.478h18.112c-.002 8.007-.002 15.955-.002 24.408m151.157 81.931c-6.955 0-13.538.217-20.1-.062-6.359-.269-11.257-4.487-12.647-10.782a53.4 53.4 0 0 1-1.251-10.928c-.141-14.103-.059-28.21-.059-42.316v-4.46h-13.379v-13.19h13.18v-24.577h18.147v24.178h16.085v13.286h-15.435c-.184 1.198-.424 2.025-.424 2.855-.013 14.36-.06 28.719.034 43.078.049 7.594 2.037 9.422 9.564 9.368 2.011-.013 4.025-.001 6.285-.001zm30.185-81.659v13.906c6.969-11.832 16.613-17.997 30.857-15.895v17.155c-6.767-1.017-13.293-1.199-19.073 2.955-7.581 5.45-10.229 13.414-10.417 22.193-.292 13.571-.077 27.155-.077 41.03h-17.773v-81.345z" fill="#B057FF"/><defs><linearGradient id="b" x1="251.161" y1="114.681" x2="408.018" y2="239.255" gradientUnits="userSpaceOnUse"><stop stop-color="#9013FE"/><stop offset="1" stop-color="#6610F2"/></linearGradient><clipPath id="a"><path fill="#fff" d="M224.491 111.172h179.667v143.172H224.491z"/></clipPath></defs></svg>