<svg width="879" height="286" viewBox="0 0 879 286" fill="none" xmlns="http://www.w3.org/2000/svg"><path d="M142.794 1.29h593.035c78.383 0 141.925 63.542 141.925 141.924S814.212 285.138 735.83 285.138H142.794C64.412 285.138.87 221.597.87 143.214.87 64.832 64.412 1.291 142.794 1.291" fill="#fff"/><path d="M142.794 1.29h593.035c78.383 0 141.925 63.542 141.925 141.924S814.212 285.138 735.83 285.138H142.794C64.412 285.138.87 221.597.87 143.214.87 64.832 64.412 1.291 142.794 1.291Z" stroke="#ECE9E1" stroke-width=".818"/><g clip-path="url(#a)"><path d="M190.4 101.974c-.263-7.592 5.651-14.593 13.646-14.593h81.933c7.995 0 13.909 7.001 13.647 14.593-.255 7.294.074 16.739 2.452 24.444 2.387 7.726 6.407 12.612 12.995 13.239v7.116c-6.588.626-10.608 5.512-12.995 13.238-2.378 7.705-2.707 17.15-2.452 24.444.262 7.592-5.652 14.593-13.647 14.593h-81.933c-7.995 0-13.909-7.001-13.646-14.593.254-7.294-.077-16.739-2.453-24.444-2.386-7.726-6.418-12.612-13.006-13.238v-7.116c6.588-.627 10.62-5.513 13.006-13.239 2.376-7.705 2.707-17.15 2.453-24.444" fill="url(#b)"/><path fill-rule="evenodd" clip-rule="evenodd" d="M268.809 156.109c0 10.456-7.801 16.796-20.748 16.796h-24.416v-59.399h24.29c10.796 0 17.88 5.844 17.88 14.817 0 6.299-4.763 11.94-10.837 12.926v.331c8.267.906 13.831 6.627 13.831 14.529m-35.718 9.263V145.82h12.482c8.94 0 13.579 3.293 13.579 9.714s-4.511 9.838-13.029 9.838zm0-44.333h12.567c6.832 0 10.711 3.047 10.711 8.562 0 5.886-4.511 9.179-12.693 9.179h-10.585z" fill="#fff"/></g><path d="M350.126 113.695c.29-.054.528-.136.765-.135 9.785.037 19.571.023 29.354.159 3.335.047 6.399 1.223 9.138 3.173 6.253 4.449 6.83 17.16-1.754 21.719-.436.232-.871.467-1.464.783 1.631.749 3.236 1.251 4.581 2.144 5.163 3.43 7.266 11.104 4.954 17.844-2.016 5.881-6.805 8.309-12.374 9.601a26 26 0 0 1-5.623.658c-9.146.066-18.294.029-27.578.029zm9.783 47.772c6.803 0 13.409.155 20.004-.056 4.145-.133 7.14-4.576 6.891-8.898-.246-4.26-2.869-7.883-6.924-8.073-6.538-.305-13.093-.218-19.641-.287-.098 0-.197.144-.331.247zm.022-24.607c6.081 0 11.945.222 17.783-.073 4.299-.218 6.725-3.655 6.564-8.354-.142-4.16-2.599-6.663-7.021-6.779-5.546-.146-11.097-.079-16.647-.091-.225-.001-.451.121-.679.185zm303.214-7.689h8.156v4.371c.908-.7 2.014-1.478 3.035-2.354 6.249-5.364 21.073-4.706 26.146 6.096 4.365 9.295 4.176 18.644-1.718 27.298-3.264 4.794-8.318 6.507-14.043 6.198-4.974-.268-9.353-1.832-12.799-6.437v20.383h-8.777zm8.285 20.469c.368 2.035.57 4.12 1.138 6.098 1.268 4.415 5.129 7.68 9.129 7.962 5.349.378 9.191-1.599 11.125-6.342 2.458-6.028 2.371-12.107-1.221-17.74-4.237-6.645-14.39-6.09-17.98.872-1.478 2.865-2.201 5.882-2.191 9.15m-14.064 14.232c0 1.666.059 3.358-.043 5.041-.024.415-.545 1.117-.883 1.146-2.544.212-5.129.583-7.641.321-2.214-.232-3.434-2.108-4.116-4.278-5.256 4.279-11.284 5.204-17.695 4.41-5.362-.664-9.803-5.067-10.185-9.955-.527-6.737 2.061-11.124 8.11-12.721 4.243-1.119 8.662-1.569 13.001-2.326 1.052-.183 2.117-.332 3.145-.613 1.974-.539 3.399-1.632 3.543-3.88.15-2.323-.751-4.133-2.935-5.012-3.726-1.5-7.52-1.463-11.189.254-1.674.783-2.668 2.359-3.545 5.036h-8.598c.007-3.278 1.148-6.033 3.325-8.352 2.876-3.064 6.624-4.266 10.662-4.689 4.225-.442 8.427-.422 12.532.962 5.521 1.862 8.164 5.504 8.156 11.335-.007 6.19-.002 12.38-.003 18.57-.002 4.393-.002 4.393 4.359 4.751m-13.287-13.968c-2.71.47-5.189.829-7.635 1.341-2.574.538-5.196 1.005-7.65 1.903-2.406.882-3.223 3.13-3.143 5.544.075 2.308 1.652 3.601 3.684 4.312 3.485 1.217 6.978 1.067 10.303-.488 2.38-1.113 4.192-2.934 4.406-5.716.175-2.317.035-4.658.035-6.896m-221.22-21.903c13.483-.158 21.39 9.725 20.556 23.182-.289 4.678-1.546 9.049-4.625 12.746-3.318 3.983-7.587 6.08-12.705 6.649-4.273.476-8.426.197-12.386-1.601-5.897-2.677-9.261-7.349-10.676-13.574-.971-4.266-.928-8.515.16-12.736 2.399-9.31 9.569-14.63 19.676-14.666m-11.736 21.475c.354 1.976.538 4 1.094 5.917 1.415 4.881 5.267 8.103 9.671 8.316 5.443.264 9.252-2.026 11.275-7.097 1.976-4.95 1.979-10.016-.187-14.907-3.209-7.245-11.95-9.098-17.579-3.712-3.21 3.07-4.039 7.151-4.274 11.483m58.516-21.474c12.16-.019 20.435 8.175 20.589 20.364.065 5.147-.773 10.055-3.795 14.366-4.324 6.173-10.571 8.332-17.763 8.005a25 25 0 0 1-7.867-1.679c-5.798-2.276-9.255-6.758-10.792-12.756-1.349-5.267-1.198-10.502.517-15.65 2.631-7.897 9.849-12.637 19.111-12.65m11.656 20.38c-.196-1.081-.39-3.17-.973-5.145-1.481-5.021-5.396-8.07-10.329-8.284-4.646-.203-8.825 2.537-10.627 7.334-2.122 5.651-1.966 11.279 1.232 16.544 3.331 5.485 10.883 6.686 15.836 2.594 3.779-3.122 4.703-7.433 4.861-13.043m75.189-7.952c-2.775 0-5.478.023-8.179-.029-.332-.006-.85-.34-.958-.638-1.518-4.219-5.092-4.72-8.787-4.741-1.532-.01-3.162.363-4.581.959-3.032 1.272-3.369 4.702-.527 6.345 1.971 1.14 4.286 1.753 6.509 2.379 3.146.886 6.394 1.42 9.52 2.364 7.993 2.416 11.116 10.429 6.641 17.035-2.146 3.168-5.356 4.883-9.037 5.772-5.441 1.313-10.857 1.409-16.174-.511-5.688-2.055-8.693-6.18-9.137-12.424h8.68c2.468 6.442 9.442 8.951 15.976 5.659 1.511-.762 2.52-1.845 2.621-3.626.108-1.904-.628-3.541-2.336-4.178-3.046-1.137-6.227-1.916-9.354-2.832-2.591-.76-5.263-1.309-7.762-2.298-4.822-1.909-6.917-5.194-6.887-10.203.025-4.368 2.579-8.111 7.107-9.753 6.231-2.259 12.591-2.54 18.85-.088 4.232 1.657 6.754 4.927 7.803 9.328.094.406.012.857.012 1.48m-47.127-11.372h8.034v6.569h-7.873c-.055.787-.127 1.337-.128 1.888-.007 6.631-.011 13.261.003 19.891.002.882.07 1.767.157 2.646.173 1.753 1.146 2.795 2.912 2.891 1.617.089 3.244.019 4.957.019v6.569c-3.669.908-7.399.86-11.009.056-4.204-.937-5.911-3.829-5.948-9.304-.051-7.451-.015-14.904-.017-22.355v-2.191h-6.672v-6.645h6.582v-12.167h9.003zm75.136 40.726c-3.457 0-6.729.107-9.991-.031-3.161-.134-5.596-2.231-6.286-5.36a26.5 26.5 0 0 1-.623-5.431c-.069-7.011-.028-14.023-.028-21.035v-2.217h-6.651v-6.556h6.552v-12.217h9.02v12.019h7.995v6.604h-7.672c-.091.595-.211 1.006-.211 1.419-.006 7.138-.029 14.275.017 21.413.025 3.774 1.013 4.683 4.754 4.656 1-.006 2.001 0 3.124 0zm15.004-40.591v6.912c3.464-5.881 8.258-8.945 15.338-7.901v8.528c-3.363-.506-6.607-.596-9.48 1.468-3.769 2.71-5.085 6.668-5.178 11.032-.145 6.746-.038 13.498-.038 20.395h-8.835v-40.434z" fill="#8F13FE"/><defs><linearGradient id="b" x1="195.742" y1="90.118" x2="318.084" y2="187.279" gradientUnits="userSpaceOnUse"><stop stop-color="#9013FE"/><stop offset="1" stop-color="#6610F2"/></linearGradient><clipPath id="a"><path fill="#fff" d="M174.941 87.38h140.132v111.668H174.941z"/></clipPath></defs></svg>