<svg width="1385" height="365" viewBox="0 0 1385 365" fill="none" xmlns="http://www.w3.org/2000/svg"><path d="M183.237.52H1201.67c100.5 0 181.97 81.469 181.97 181.965s-81.47 181.966-181.97 181.966H183.237c-100.496 0-181.965-81.469-181.965-181.966C1.272 81.989 82.741.521 183.237.521" fill="#EAE7E0"/><path d="M183.237.52H1201.67c100.5 0 181.97 81.469 181.97 181.965s-81.47 181.966-181.97 181.966H183.237c-100.496 0-181.965-81.469-181.965-181.966C1.272 81.989 82.741.521 183.237.521Z" stroke="#1C222F" stroke-width="1.049"/><g clip-path="url(#a)"><path d="M244.278 129.61c-.336-9.734 7.247-18.711 17.497-18.711h105.049c10.25 0 17.833 8.977 17.496 18.711-.326 9.352.095 21.462 3.145 31.34 3.06 9.906 8.215 16.17 16.661 16.974v9.123c-8.446.804-13.601 7.068-16.661 16.974-3.05 9.878-3.471 21.988-3.145 31.34.337 9.734-7.246 18.711-17.496 18.711H261.775c-10.25 0-17.833-8.977-17.497-18.711.327-9.352-.098-21.462-3.144-31.34-3.06-9.906-8.229-16.17-16.675-16.974v-9.123c8.446-.804 13.615-7.068 16.675-16.974 3.046-9.878 3.471-21.988 3.144-31.34" fill="url(#b)"/><path fill-rule="evenodd" clip-rule="evenodd" d="M344.797 199.014c0 13.405-10.001 21.532-26.599 21.532h-31.302v-76.148h31.14c13.84 0 22.922 7.492 22.922 18.995 0 8.074-6.106 15.307-13.893 16.57v.424c10.598 1.162 17.732 8.496 17.732 18.627m-45.791 11.875v-25.066h16.002c11.461 0 17.409 4.222 17.409 12.454s-5.783 12.612-16.704 12.612zm0-56.834h16.111c8.759 0 13.731 3.906 13.731 10.977 0 7.544-5.783 11.766-16.272 11.766h-13.57z" fill="#fff"/></g><path d="M449.213 123.107c.584-.107 1.063-.273 1.54-.272 19.685.077 39.371.047 59.053.322 6.708.093 12.872 2.46 18.383 6.382 12.579 8.951 13.741 34.522-3.528 43.695-.878.466-1.753.938-2.946 1.575 3.282 1.507 6.51 2.516 9.216 4.314 10.387 6.9 14.617 22.338 9.967 35.897-4.057 11.831-13.691 16.716-24.894 19.315a52 52 0 0 1-11.311 1.323c-18.401.133-36.804.059-55.482.059.002-37.494.002-74.992.002-112.61m19.68 96.107c13.686 0 26.977.312 40.244-.113 8.339-.266 14.366-9.206 13.864-17.9-.494-8.571-5.772-15.859-13.93-16.24-13.152-.615-26.34-.441-39.513-.578-.197-.001-.397.288-.665.497zm.046-49.503c12.233 0 24.03.446 35.774-.147 8.649-.438 13.531-7.353 13.207-16.806-.286-8.37-5.229-13.404-14.126-13.639-11.156-.293-22.325-.157-33.489-.183-.454-.002-.909.243-1.366.373zm610.001-15.47h16.4v8.795c1.83-1.409 4.06-2.974 6.11-4.737 12.57-10.79 42.39-9.466 52.6 12.264 8.78 18.701 8.4 37.508-3.46 54.918-6.56 9.644-16.73 13.09-28.25 12.47-10-.54-18.81-3.686-25.75-12.95v41.006h-17.65zm16.66 41.179c.74 4.095 1.15 8.289 2.29 12.269 2.55 8.882 10.32 15.451 18.37 16.018 10.76.759 18.49-3.217 22.38-12.759 4.94-12.126 4.77-24.356-2.46-35.689-8.52-13.368-28.95-12.251-36.17 1.754-2.97 5.765-4.43 11.833-4.41 18.407m-28.29 28.632c0 3.352.12 6.755-.09 10.141-.05.836-1.09 2.248-1.77 2.306-5.12.427-10.32 1.173-15.37.646-4.46-.466-6.91-4.241-8.29-8.607-10.57 8.609-22.7 10.47-35.59 8.872-10.79-1.336-19.725-10.192-20.493-20.026-1.061-13.554 4.146-22.379 16.313-25.592 8.54-2.252 17.43-3.157 26.16-4.679 2.11-.368 4.26-.669 6.32-1.235 3.98-1.084 6.84-3.283 7.13-7.804.3-4.674-1.51-8.316-5.9-10.084-7.5-3.017-15.13-2.942-22.51.512-3.37 1.575-5.37 4.745-7.13 10.13h-17.301c.014-6.594 2.309-12.135 6.689-16.801 5.782-6.164 13.322-8.583 21.452-9.433 8.5-.889 16.95-.849 25.21 1.935 11.11 3.745 16.42 11.073 16.41 22.804-.02 12.452-.01 24.904-.01 37.358 0 8.838 0 8.838 8.77 9.557m-26.73-28.099c-5.45.944-10.44 1.668-15.36 2.697-5.18 1.083-10.45 2.021-15.39 3.829-4.84 1.773-6.48 6.296-6.32 11.153.15 4.643 3.32 7.245 7.41 8.674 7.01 2.449 14.04 2.147 20.72-.98 4.79-2.241 8.44-5.904 8.87-11.5.35-4.661.07-9.371.07-13.873m-445.044-44.065c27.125-.318 43.031 19.564 41.353 46.637-.582 9.41-3.11 18.205-9.304 25.642-6.675 8.013-15.263 12.232-25.559 13.377-8.598.958-16.952.395-24.919-3.221-11.864-5.385-18.631-14.784-21.478-27.308-1.952-8.583-1.866-17.13.322-25.621 4.828-18.73 19.25-29.433 39.585-29.506m-23.612 43.204c.712 3.974 1.084 8.047 2.202 11.903 2.846 9.818 10.595 16.301 19.455 16.731 10.952.53 18.614-4.077 22.684-14.278 3.974-9.959 3.98-20.151-.376-29.989-6.455-14.577-24.042-18.304-35.366-7.469-6.457 6.177-8.124 14.385-8.599 23.102m117.721-43.203c24.465-.038 41.111 16.448 41.421 40.97.131 10.354-1.556 20.227-7.634 28.901-8.7 12.417-21.267 16.762-35.736 16.103-5.331-.243-10.857-1.427-15.825-3.377-11.665-4.58-18.621-13.595-21.712-25.663-2.713-10.596-2.411-21.126 1.04-31.483 5.293-15.888 19.813-25.423 38.446-25.451m23.45 41.001c-.395-2.175-.784-6.377-1.957-10.35-2.98-10.102-10.857-16.235-20.781-16.666-9.346-.408-17.753 5.103-21.378 14.755-4.269 11.367-3.955 22.69 2.478 33.282 6.702 11.034 21.895 13.452 31.858 5.219 7.603-6.281 9.462-14.955 9.78-26.24m151.263-15.998c-5.583 0-11.02.046-16.453-.058-.669-.012-1.711-.683-1.927-1.284-3.055-8.486-10.244-9.495-17.678-9.538-3.083-.018-6.362.732-9.216 1.929-6.1 2.559-6.778 9.461-1.061 12.767 3.965 2.293 8.622 3.525 13.095 4.785 6.33 1.782 12.864 2.856 19.152 4.756 16.079 4.86 22.364 20.981 13.361 34.271-4.319 6.373-10.777 9.823-18.182 11.611-10.945 2.641-21.841 2.835-32.537-1.028-11.444-4.135-17.49-12.433-18.382-24.993h17.463c4.965 12.96 18.995 18.007 32.138 11.384 3.041-1.533 5.071-3.712 5.274-7.296.216-3.83-1.263-7.123-4.7-8.405-6.128-2.286-12.528-3.853-18.819-5.697-5.21-1.529-10.586-2.632-15.615-4.622-9.7-3.842-13.914-10.451-13.855-20.526.052-8.789 5.189-16.318 14.298-19.621 12.536-4.546 25.33-5.111 37.922-.178 8.514 3.335 13.588 9.912 15.698 18.767.19.817.024 1.723.024 2.976m-94.808-22.878h16.162v13.216h-15.838c-.112 1.583-.256 2.691-.258 3.797-.015 13.34-.021 26.68.007 40.017.003 1.775.14 3.556.315 5.324.348 3.527 2.306 5.622 5.858 5.815 3.254.179 6.526.038 9.973.038v13.215c-7.382 1.828-14.885 1.731-22.148.113-8.457-1.883-11.893-7.702-11.967-18.717-.102-14.99-.03-29.982-.033-44.974v-4.407h-13.424v-13.367h13.242v-24.477h18.112zm151.156 81.932c-6.954 0-13.538.216-20.099-.062-6.36-.27-11.258-4.488-12.647-10.782a53.4 53.4 0 0 1-1.252-10.928c-.14-14.104-.058-28.211-.058-42.316v-4.461h-13.38v-13.19h13.181V129.63h18.146v24.179h16.086v13.286h-15.435c-.184 1.197-.425 2.025-.425 2.855-.013 14.359-.059 28.719.034 43.077.05 7.594 2.038 9.422 9.565 9.368 2.011-.013 4.024-.001 6.285-.001zm30.185-81.659v13.906c6.969-11.832 16.614-17.998 30.857-15.896v17.155c-6.766-1.017-13.292-1.198-19.072 2.955-7.582 5.45-10.229 13.414-10.418 22.193-.291 13.572-.076 27.156-.076 41.031h-17.774v-81.345z" fill="#8F13FE"/><defs><linearGradient id="b" x1="251.128" y1="114.409" x2="407.986" y2="238.982" gradientUnits="userSpaceOnUse"><stop stop-color="#9013FE"/><stop offset="1" stop-color="#6610F2"/></linearGradient><clipPath id="a"><path fill="#fff" d="M224.455 110.899h179.667v143.172H224.455z"/></clipPath></defs></svg>