<svg width="879" height="286" viewBox="0 0 879 286" fill="none" xmlns="http://www.w3.org/2000/svg"><path d="M142.899 1.29h593.036c78.382 0 141.924 63.542 141.924 141.924s-63.541 141.924-141.923 141.924H142.899C64.517 285.138.976 221.597.976 143.214.976 64.832 64.517 1.291 142.899 1.291" fill="#EAE7E0"/><path d="M142.899 1.29h593.036c78.382 0 141.924 63.542 141.924 141.924s-63.541 141.924-141.923 141.924H142.899C64.517 285.138.976 221.597.976 143.214.976 64.832 64.517 1.291 142.899 1.291Z" stroke="#1C222F" stroke-width=".818"/><g clip-path="url(#a)"><path d="M190.505 101.974c-.263-7.592 5.652-14.593 13.647-14.593h81.933c7.994 0 13.909 7.001 13.646 14.593-.254 7.294.074 16.739 2.452 24.444 2.387 7.726 6.408 12.612 12.995 13.239v7.116c-6.587.626-10.608 5.512-12.995 13.238-2.378 7.705-2.706 17.15-2.452 24.444.263 7.592-5.652 14.593-13.646 14.593h-81.933c-7.995 0-13.91-7.001-13.647-14.593.255-7.294-.076-16.739-2.452-24.444-2.387-7.726-6.418-12.612-13.006-13.238v-7.116c6.588-.627 10.619-5.513 13.006-13.239 2.376-7.705 2.707-17.15 2.452-24.444" fill="url(#b)"/><path fill-rule="evenodd" clip-rule="evenodd" d="M268.917 156.109c0 10.456-7.801 16.796-20.749 16.796h-24.416v-59.399h24.29c10.796 0 17.88 5.844 17.88 14.817 0 6.299-4.763 11.94-10.837 12.926v.331c8.267.906 13.832 6.627 13.832 14.529m-35.719 9.263V145.82h12.482c8.94 0 13.58 3.293 13.58 9.714s-4.511 9.838-13.03 9.838zm0-44.333h12.567c6.832 0 10.711 3.047 10.711 8.562 0 5.886-4.511 9.179-12.693 9.179h-10.585z" fill="#fff"/></g><path d="M350.233 113.695c.291-.054.529-.136.766-.135 9.785.037 19.57.023 29.354.159 3.334.047 6.398 1.223 9.137 3.173 6.253 4.449 6.831 17.16-1.753 21.719-.437.232-.872.467-1.465.783 1.632.749 3.236 1.251 4.582 2.144 5.162 3.43 7.265 11.104 4.954 17.844-2.017 5.881-6.806 8.309-12.374 9.601a26 26 0 0 1-5.623.658c-9.147.066-18.294.029-27.579.029zm9.783 47.772c6.803 0 13.41.155 20.004-.056 4.145-.133 7.141-4.576 6.891-8.898-.245-4.26-2.869-7.883-6.924-8.073-6.537-.305-13.092-.218-19.641-.287-.097 0-.197.144-.33.247zm.023-24.607c6.08 0 11.944.222 17.782-.073 4.299-.218 6.726-3.655 6.565-8.354-.142-4.16-2.599-6.663-7.022-6.779-5.545-.146-11.097-.079-16.646-.091-.226-.001-.452.121-.679.185zm303.213-7.689h8.156v4.371c.909-.7 2.015-1.478 3.035-2.354 6.249-5.364 21.073-4.706 26.146 6.096 4.366 9.295 4.176 18.644-1.717 27.298-3.264 4.794-8.318 6.507-14.043 6.198-4.974-.268-9.354-1.832-12.8-6.437v20.383h-8.776zm8.286 20.469c.367 2.035.569 4.12 1.138 6.098 1.268 4.415 5.129 7.68 9.128 7.962 5.35.378 9.192-1.599 11.125-6.342 2.458-6.028 2.371-12.107-1.221-17.74-4.236-6.645-14.389-6.09-17.979.872-1.478 2.865-2.202 5.882-2.191 9.15m-14.064 14.232c0 1.666.058 3.358-.043 5.041-.025.415-.546 1.117-.884 1.146-2.543.212-5.129.583-7.64.321-2.214-.232-3.434-2.108-4.117-4.278-5.256 4.279-11.283 5.204-17.695 4.41-5.361-.664-9.803-5.067-10.184-9.955-.528-6.737 2.06-11.124 8.11-12.721 4.242-1.119 8.662-1.569 13-2.326 1.052-.183 2.117-.332 3.145-.613 1.975-.539 3.399-1.632 3.544-3.88.149-2.323-.752-4.133-2.935-5.012-3.727-1.5-7.521-1.463-11.19.254-1.674.783-2.668 2.359-3.545 5.036h-8.597c.007-3.278 1.147-6.033 3.325-8.352 2.876-3.064 6.624-4.266 10.661-4.689 4.226-.442 8.427-.422 12.532.962 5.521 1.862 8.165 5.504 8.157 11.335-.008 6.19-.003 12.38-.004 18.57-.001 4.393-.002 4.393 4.36 4.751m-13.288-13.968c-2.71.47-5.189.829-7.635 1.341-2.573.538-5.196 1.005-7.65 1.903-2.405.882-3.223 3.13-3.143 5.544.076 2.308 1.652 3.601 3.684 4.312 3.485 1.217 6.979 1.067 10.303-.488 2.381-1.113 4.193-2.934 4.406-5.716.176-2.317.035-4.658.035-6.896m-221.219-21.903c13.483-.158 21.39 9.725 20.556 23.182-.29 4.678-1.547 9.049-4.626 12.746-3.317 3.983-7.586 6.08-12.704 6.649-4.274.476-8.427.197-12.387-1.601-5.897-2.677-9.261-7.349-10.676-13.574-.97-4.266-.928-8.515.16-12.736 2.4-9.31 9.569-14.63 19.677-14.666m-11.737 21.475c.354 1.976.539 4 1.095 5.917 1.414 4.881 5.266 8.103 9.67 8.316 5.444.264 9.253-2.026 11.276-7.097 1.975-4.95 1.978-10.016-.187-14.907-3.209-7.245-11.951-9.098-17.58-3.712-3.21 3.07-4.038 7.151-4.274 11.483m58.516-21.474c12.161-.019 20.435 8.175 20.589 20.364.065 5.147-.773 10.055-3.794 14.366-4.325 6.173-10.572 8.332-17.764 8.005a25 25 0 0 1-7.866-1.679c-5.799-2.276-9.256-6.758-10.793-12.756-1.348-5.267-1.198-10.502.517-15.65 2.631-7.897 9.849-12.637 19.111-12.65m11.656 20.38c-.196-1.081-.389-3.17-.972-5.145-1.482-5.021-5.397-8.07-10.33-8.284-4.646-.203-8.824 2.537-10.626 7.334-2.123 5.651-1.966 11.279 1.231 16.544 3.332 5.485 10.883 6.686 15.836 2.594 3.779-3.122 4.703-7.433 4.861-13.043m75.189-7.952c-2.775 0-5.478.023-8.178-.029-.333-.006-.851-.34-.958-.638-1.519-4.219-5.092-4.72-8.787-4.741-1.532-.01-3.163.363-4.581.959-3.033 1.272-3.37 4.702-.528 6.345 1.971 1.14 4.286 1.753 6.51 2.379 3.146.886 6.394 1.42 9.52 2.364 7.992 2.416 11.116 10.429 6.641 17.035-2.147 3.168-5.357 4.883-9.038 5.772-5.44 1.313-10.857 1.409-16.173-.511-5.689-2.055-8.694-6.18-9.137-12.424h8.68c2.468 6.442 9.442 8.951 15.975 5.659 1.511-.762 2.52-1.845 2.621-3.626.108-1.904-.627-3.541-2.336-4.178-3.046-1.137-6.227-1.916-9.354-2.832-2.59-.76-5.262-1.309-7.762-2.298-4.822-1.909-6.917-5.194-6.887-10.203.026-4.368 2.579-8.111 7.107-9.753 6.232-2.259 12.591-2.54 18.85-.088 4.232 1.657 6.754 4.927 7.803 9.328.095.406.012.857.012 1.48m-47.127-11.372h8.034v6.569h-7.872c-.056.787-.127 1.337-.128 1.888-.008 6.631-.011 13.261.003 19.891.001.882.07 1.767.157 2.646.172 1.753 1.146 2.795 2.911 2.891 1.618.089 3.244.019 4.957.019v6.569c-3.669.908-7.398.86-11.008.056-4.204-.937-5.912-3.829-5.949-9.304-.051-7.451-.015-14.904-.017-22.355v-2.191h-6.672v-6.645h6.582v-12.167h9.003zm75.136 40.726c-3.456 0-6.729.107-9.99-.031-3.162-.134-5.596-2.231-6.287-5.36a26.5 26.5 0 0 1-.622-5.431c-.07-7.011-.029-14.023-.029-21.035v-2.217h-6.651v-6.556h6.552v-12.217h9.02v12.019h7.996v6.604h-7.673c-.091.595-.211 1.006-.211 1.419-.006 7.138-.029 14.275.017 21.413.025 3.774 1.013 4.683 4.755 4.656.999-.006 2 0 3.124 0zm15.005-40.591v6.912c3.464-5.881 8.258-8.945 15.338-7.901v8.528c-3.363-.506-6.607-.596-9.481 1.468-3.768 2.71-5.084 6.668-5.178 11.032-.145 6.746-.038 13.498-.038 20.395h-8.835v-40.434z" fill="#8F13FE"/><defs><linearGradient id="b" x1="195.848" y1="90.118" x2="318.189" y2="187.279" gradientUnits="userSpaceOnUse"><stop stop-color="#9013FE"/><stop offset="1" stop-color="#6610F2"/></linearGradient><clipPath id="a"><path fill="#fff" d="M175.047 87.38h140.132v111.668H175.047z"/></clipPath></defs></svg>