<svg width="1216" height="262" viewBox="0 0 1216 262" fill="none" xmlns="http://www.w3.org/2000/svg"><rect width="1216" height="262" rx="131" fill="#202020"/><path d="M237.339 162.953q-8.338 0-12.326-3.897-3.897-3.987-3.897-12.326v-31.992q0-8.338 3.897-12.235 3.988-3.897 12.326-3.897h27.823q8.338 0 12.235 3.897 3.988 3.897 3.988 12.235v4.26q0 1.087-.544 1.54-.453.453-1.54.453H266.34q-1.087 0-1.631-.453-.453-.453-.453-1.54v-2.085q0-2.719-1.178-3.806-1.088-1.179-3.807-1.179h-16.404q-2.718 0-3.897 1.179-1.087 1.087-1.087 3.806v27.642q0 2.72 1.087 3.897 1.179 1.088 3.897 1.088h17.22q2.719 0 3.806-1.088 1.179-1.178 1.179-3.897v-4.531h-13.504q-1.088 0-1.541-.453-.453-.454-.453-1.541v-7.976q0-1.087.453-1.54t1.541-.453h28.186q1.087 0 1.54.453.544.453.544 1.54v16.676q0 8.339-3.987 12.326-3.898 3.897-12.236 3.897zm73.194 0q-8.337 0-12.325-3.897-3.897-3.987-3.897-12.326v-31.992q0-8.338 3.897-12.235 3.988-3.897 12.325-3.897h29.183q8.338 0 12.235 3.897 3.988 3.897 3.988 12.235v31.992q0 8.339-3.988 12.326-3.897 3.897-12.235 3.897zm23.655-14.319q2.718 0 3.806-1.088 1.178-1.178 1.178-3.897v-25.83q0-2.718-1.178-3.806-1.088-1.178-3.806-1.178h-18.126q-2.72 0-3.897 1.178-1.088 1.088-1.088 3.806v25.83q0 2.72 1.088 3.897 1.178 1.088 3.897 1.088zm51.133 14.319q-8.338 0-12.326-3.897-3.897-3.987-3.897-12.326v-31.992q0-8.338 3.897-12.235 3.988-3.897 12.326-3.897h29.183q8.338 0 12.235 3.897 3.988 3.897 3.988 12.235v31.992q0 8.339-3.988 12.326-3.897 3.897-12.235 3.897zm23.654-14.319q2.72 0 3.807-1.088 1.178-1.178 1.178-3.897v-25.83q0-2.718-1.178-3.806-1.088-1.178-3.807-1.178h-18.126q-2.718 0-3.897 1.178-1.087 1.088-1.087 3.806v25.83q0 2.72 1.087 3.897 1.179 1.088 3.897 1.088zm51.134 14.319q-8.339 0-12.326-3.897-3.897-3.987-3.897-12.326v-31.992q0-8.338 3.897-12.235 3.987-3.897 12.326-3.897h27.823q8.338 0 12.235 3.897 3.988 3.897 3.988 12.235v4.26q0 1.087-.544 1.54-.453.453-1.541.453h-12.96q-1.088 0-1.631-.453-.453-.453-.453-1.54v-2.085q0-2.719-1.178-3.806-1.088-1.179-3.807-1.179h-16.404q-2.72 0-3.897 1.179-1.088 1.087-1.088 3.806v27.642q0 2.72 1.088 3.897 1.178 1.088 3.897 1.088h17.22q2.718 0 3.806-1.088 1.178-1.178 1.178-3.897v-4.531h-13.504q-1.087 0-1.54-.453-.453-.454-.453-1.541v-7.976q0-1.087.453-1.54t1.54-.453h28.186q1.088 0 1.541.453.544.453.544 1.54v16.676q0 8.339-3.988 12.326-3.897 3.897-12.235 3.897zm59.418-.453q-1.087 0-1.54-.453-.454-.544-.454-1.631v-59.363q0-1.088.454-1.541.453-.453 1.54-.453h12.689q1.087 0 1.54.453.544.453.544 1.541v46.493h30.814q1.088 0 1.541.453t.453 1.541v10.876q0 1.087-.453 1.631-.453.453-1.541.453zm104.731-13.866q1.087 0 1.54.543.453.453.453 1.541v9.698q0 1.087-.453 1.631-.453.453-1.54.453h-46.494q-1.087 0-1.54-.453-.454-.544-.454-1.631v-59.363q0-1.088.454-1.541.453-.453 1.54-.453h45.587q1.088 0 1.541.453t.453 1.541v9.788q0 1.087-.453 1.54t-1.541.454h-30.814v11.147h28.095q1.088 0 1.541.453t.453 1.541v9.063q0 1.088-.453 1.631-.453.453-1.541.454h-28.095v11.51zm51.186 14.319q-8.338 0-12.326-3.897-3.897-3.987-3.897-12.326v-31.992q0-8.338 3.897-12.235 3.988-3.897 12.326-3.897h26.917q8.338 0 12.235 3.897 3.988 3.897 3.988 12.235v6.253q0 2.085-2.085 2.085h-12.96q-2.084 0-2.084-2.085v-3.172q0-2.718-1.179-3.806-1.087-1.178-3.806-1.178h-15.498q-2.718 0-3.897 1.178-1.087 1.088-1.087 3.806v25.83q0 2.72 1.087 3.897 1.179 1.088 3.897 1.088h15.498q2.719 0 3.806-1.088 1.179-1.178 1.179-3.897v-3.172q0-1.088.453-1.541.543-.453 1.631-.453h12.96q1.088 0 1.541.453.544.453.544 1.541v6.253q0 8.339-3.988 12.326-3.897 3.897-12.235 3.897zm57.825-.453q-1.087 0-1.54-.453-.453-.544-.453-1.631v-59.363q0-1.088.453-1.541t1.54-.453h12.689q1.087 0 1.54.453.544.453.544 1.541v46.493h30.814q1.088 0 1.541.453t.453 1.541v10.876q0 1.087-.453 1.631-.453.453-1.541.453zm70.243.453q-8.338 0-12.326-3.897-3.897-3.987-3.897-12.326v-31.992q0-8.338 3.897-12.235 3.988-3.897 12.326-3.897h29.183q8.338 0 12.235 3.897 3.988 3.897 3.988 12.235v31.992q0 8.339-3.988 12.326-3.897 3.897-12.235 3.897zm23.655-14.319q2.718 0 3.806-1.088 1.178-1.178 1.178-3.897v-25.83q0-2.718-1.178-3.806-1.088-1.178-3.806-1.178h-18.126q-2.72 0-3.898 1.178-1.087 1.088-1.087 3.806v25.83q0 2.72 1.087 3.897 1.179 1.088 3.898 1.088zm51.314 14.319q-8.248 0-12.235-3.988t-3.988-12.235v-45.677q0-1.088.453-1.541.545-.453 1.632-.453h12.688q1.087 0 1.541.453t.453 1.541v41.962q0 2.718 1.087 3.897 1.179 1.087 3.897 1.087h14.954q2.72 0 3.807-1.087 1.178-1.179 1.178-3.897v-41.962q0-1.088.453-1.541.544-.453 1.632-.453h12.688q1.087 0 1.54.453t.454 1.541v45.677q0 8.339-3.988 12.326-3.897 3.897-12.145 3.897zm58.087-.453q-1.088 0-1.541-.453-.453-.544-.453-1.631v-59.363q0-1.088.453-1.541t1.541-.453h41.237q8.338 0 12.235 3.897 3.987 3.897 3.987 12.235v31.086q0 8.338-3.987 12.326-3.897 3.897-12.235 3.897zm35.708-14.32q2.72 0 3.807-1.087 1.178-1.179 1.178-3.897v-24.924q0-2.718-1.178-3.806-1.088-1.178-3.807-1.178h-20.935v34.892z" fill="#EAE7E0"/></svg>