<svg width="652" height="262" viewBox="0 0 652 262" fill="none" xmlns="http://www.w3.org/2000/svg"><rect width="652" height="262" rx="131" fill="#EAE7E0"/><path d="M207.339 162.953q-8.338 0-12.326-3.897-3.897-3.987-3.897-12.326v-31.992q0-8.338 3.897-12.235 3.988-3.897 12.326-3.897h26.917q8.338 0 12.235 3.897 3.988 3.897 3.988 12.235v6.253q0 2.085-2.085 2.085h-12.96q-2.084 0-2.084-2.085v-3.172q0-2.718-1.179-3.806-1.087-1.178-3.806-1.178h-15.498q-2.718 0-3.897 1.178-1.087 1.088-1.087 3.806v25.83q0 2.72 1.087 3.897 1.179 1.088 3.897 1.088h15.498q2.719 0 3.806-1.088 1.179-1.178 1.179-3.897v-3.172q0-1.088.453-1.541.543-.453 1.631-.453h12.96q1.088 0 1.541.453.544.453.544 1.541v6.253q0 8.339-3.988 12.326-3.897 3.897-12.235 3.897zm70.716 0q-8.338 0-12.326-3.897-3.897-3.987-3.897-12.326v-31.992q0-8.338 3.897-12.235 3.988-3.897 12.326-3.897h29.183q8.338 0 12.235 3.897 3.988 3.897 3.988 12.235v31.992q0 8.339-3.988 12.326-3.897 3.897-12.235 3.897zm23.655-14.319q2.718 0 3.806-1.088 1.179-1.178 1.178-3.897v-25.83q0-2.718-1.178-3.806-1.088-1.178-3.806-1.178h-18.126q-2.72 0-3.898 1.178-1.087 1.088-1.087 3.806v25.83q0 2.72 1.087 3.897 1.179 1.088 3.898 1.088zm92.279 10.785q.634.815.634 1.45 0 .725-.543 1.178-.454.453-1.36.453h-14.863q-1.088 0-1.813-.272-.635-.363-1.269-1.269l-19.032-23.835h-1.903v23.292q0 2.084-2.085 2.084h-12.688q-1.088 0-1.541-.453-.453-.544-.453-1.631v-59.363q0-1.088.453-1.541t1.541-.453h39.605q7.885 0 11.42 3.625 3.625 3.535 3.625 11.419v8.792q0 7.884-3.535 11.51-3.534 3.625-11.238 3.625h-2.9zm-40.149-47.038v13.142h18.579q2.628 0 3.534-.906.997-.997.997-3.626v-4.078q0-2.628-.997-3.535-.906-.996-3.534-.997zm65.156 50.572q-7.884 0-11.51-3.534-3.534-3.625-3.534-11.601v-3.625q0-1.088.453-1.541t1.541-.453h13.05q1.088 0 1.541.453.544.453.544 1.541v1.722q0 2.628.906 3.625.997.906 3.625.906h14.683q2.628 0 3.534-.906.997-.997.997-3.625v-4.713q0-2.628-.997-3.535-.906-.996-3.534-.997H419.45q-7.886 0-11.51-3.534-3.535-3.626-3.535-11.51v-7.976q0-7.885 3.535-11.419 3.624-3.625 11.51-3.625h26.645q7.885 0 11.419 3.625 3.625 3.534 3.625 11.419v3.626q0 1.087-.453 1.54t-1.54.453h-13.051q-1.088 0-1.541-.453t-.453-1.54v-1.722q0-2.63-.997-3.535-.906-.997-3.534-.997h-13.867q-2.629 0-3.625.997-.906.906-.906 3.535v4.803q0 2.629.906 3.625.996.906 3.625.906h20.845q7.885 0 11.419 3.626 3.626 3.535 3.626 11.419v7.885q0 7.976-3.626 11.601-3.534 3.534-11.419 3.534z" fill="#202020"/></svg>