<svg width="366" height="366" viewBox="0 0 366 366" fill="none" xmlns="http://www.w3.org/2000/svg"><path d="M182.642 1.356c100.496 0 181.964 81.468 181.964 181.965 0 100.496-81.468 181.964-181.964 181.964C82.145 365.285.677 283.817.677 183.321.677 82.824 82.145 1.356 182.642 1.356" fill="#EAE7E0"/><path d="M182.642 1.356c100.496 0 181.964 81.468 181.964 181.965 0 100.496-81.468 181.964-181.964 181.964C82.145 365.285.677 283.817.677 183.321.677 82.824 82.145 1.356 182.642 1.356Z" stroke="#1C222F" stroke-width="1.049"/><g clip-path="url(#a)"><path d="m131.016 240.595-11.489-128.861h126.242l-11.501 128.84-51.697 14.332z" fill="#264DE4"/><path d="m224.397 232.374 9.828-110.1h-51.602v121.681z" fill="#2965F1"/><path d="m145.841 170.068 1.416 15.804h35.366v-15.804zm-1.41-16.184h38.192V138.08h-39.629zm38.192 57.229-.069.018-17.601-4.752-1.125-12.605h-15.865l2.214 24.815 32.374 8.987.072-.02z" fill="#EBEBEB"/><path d="M182.564 170.068v15.804h19.462l-1.835 20.497-17.627 4.757v16.442l32.4-8.979.238-2.67 3.713-41.608.386-4.243 2.853-31.988h-39.59v15.804h22.27l-1.438 16.184z" fill="#fff"/></g><defs><clipPath id="a"><path fill="#fff" d="M111.055 111.734h143.172v143.172H111.055z"/></clipPath></defs></svg>