<svg width="286" height="286" viewBox="0 0 286 286" fill="none" xmlns="http://www.w3.org/2000/svg"><path d="M142.851 1.277c78.382 0 141.923 63.541 141.923 141.924 0 78.382-63.541 141.923-141.923 141.924C64.468 285.125.927 221.583.927 143.201S64.468 1.277 142.85 1.277" fill="#EAE7E0"/><path d="M142.851 1.277c78.382 0 141.923 63.541 141.923 141.924 0 78.382-63.541 141.923-141.923 141.924C64.468 285.125.927 221.583.927 143.201S64.468 1.277 142.85 1.277Z" stroke="#1C222F" stroke-width=".818"/><g clip-path="url(#a)"><path d="m102.569 187.874-8.962-100.51h98.468l-8.971 100.494-40.323 11.179z" fill="#264DE4"/><path d="m175.447 181.454 7.667-85.879h-40.251v94.912z" fill="#2965F1"/><path d="m114.158 132.854 1.104 12.328h27.587v-12.328zm-1.1-12.623h29.791v-12.328h-30.911zm29.791 44.639-.054.014-13.73-3.707-.877-9.832h-12.375l1.727 19.356 25.252 7.01.057-.016z" fill="#EBEBEB"/><path d="M142.812 132.854v12.328h15.18l-1.431 15.987-13.749 3.711v12.825l25.272-7.004.186-2.083 2.896-32.454.301-3.31 2.226-24.951h-30.881v12.328h17.371l-1.122 12.623z" fill="#fff"/></g><defs><clipPath id="a"><path fill="#fff" d="M87.014 87.364h111.673v111.673H87.014z"/></clipPath></defs></svg>