<svg id="Layer_1" data-name="Layer 1" xmlns="http://www.w3.org/2000/svg" viewBox="0 0 285 285"><defs><style>.cls-2{fill:#fff}</style></defs><path class="cls-2" d="M142.5.58c78.38 0 141.92 63.54 141.92 141.92S220.88 284.42 142.5 284.42.58 220.88.58 142.5 64.12.58 142.5.58"/><path d="M142.5.58c78.38 0 141.92 63.54 141.92 141.92S220.88 284.42 142.5 284.42.58 220.88.58 142.5 64.12.58 142.5.58Z" fill="none" stroke="#ece9e1" stroke-width=".82"/><path d="M219.69 143.56c0 20-7.61 38.22-20.08 51.93-.05.05-.09.09-.13.14a77.3 77.3 0 0 1-16 13.34c-.04.03-.08.05-.12.08-11.85 7.42-25.86 11.7-40.86 11.7s-28.93-4.26-40.76-11.64c-.04-.02-.07-.05-.11-.07a77 77 0 0 1-16.14-13.46c-.05-.05-.1-.11-.14-.16-12.45-13.7-20.03-31.89-20.03-51.86 0-15.04 4.31-29.08 11.75-40.94l.11-.17c13.66-21.67 37.81-36.07 65.32-36.07s51.63 14.37 65.3 36.02c.04.06.07.11.1.17 7.47 11.87 11.79 25.93 11.79 40.99" fill="#081230"/><path d="m211.33 64.22-3.43 38.35-8.29 92.92s-.09.09-.13.14a77.3 77.3 0 0 1-16 13.34l-41.08 11.39-40.77-11.32a77 77 0 0 1-16.14-13.46c-.05-.05-.1-.11-.14-.16l-8.28-92.8-3.42-38.4z" fill="#264de4"/><path d="M188.08 195.78 198.8 75.71h-56.28v132.7z" fill="#2965f1"/><path d="m102.38 127.82 1.54 17.24h38.57v-17.24zm-1.54-17.64h41.65V92.94H99.27zm41.65 62.41-.08.02-19.2-5.18-1.23-13.75h-17.3l2.41 27.06 35.31 9.8.08-.02v-17.93Z" fill="#ebebeb"/><path class="cls-2" d="M142.45 127.82v17.24h21.22l-2 22.35-19.22 5.19v17.93l35.33-9.79.26-2.91 4.05-45.38.42-4.63 3.11-34.89h-43.18v17.24h24.29l-1.57 17.65h-22.72Z"/></svg>