<svg width="366" height="366" viewBox="0 0 366 366" fill="none" xmlns="http://www.w3.org/2000/svg"><path d="M183.476.75C283.972.75 365.44 82.218 365.44 182.715c0 100.496-81.468 181.964-181.964 181.964-100.497 0-181.965-81.468-181.965-181.964C1.51 82.218 82.979.75 183.476.75" fill="#1C222F"/><path d="M183.476.75C283.972.75 365.44 82.218 365.44 182.715c0 100.496-81.468 181.964-181.964 181.964-100.497 0-181.965-81.468-181.965-181.964C1.51 82.218 82.979.75 183.476.75Z" stroke="#EAE7E0" stroke-width="1.049"/><g clip-path="url(#a)"><path d="m131.845 239.986-11.489-128.86h126.242l-11.501 128.84-51.697 14.332z" fill="#264DE4"/><path d="m225.255 231.763 9.829-110.1h-51.603v121.681z" fill="#2965F1"/><path d="m146.694 169.457 1.416 15.804h35.367v-15.804zm-1.41-16.184h38.193v-15.804h-39.629zm38.193 57.229-.069.018-17.602-4.752-1.125-12.605h-15.865l2.215 24.815 32.373 8.987.073-.02z" fill="#EBEBEB"/><path d="M183.428 169.457v15.804h19.461l-1.835 20.497-17.626 4.757v16.442l32.399-8.979.238-2.67 3.713-41.607.386-4.244 2.853-31.988h-39.589v15.804h22.269l-1.438 16.184z" fill="#fff"/></g><defs><clipPath id="a"><path fill="#fff" d="M111.89 111.128h143.172V254.3H111.89z"/></clipPath></defs></svg>