<svg width="639" height="264" viewBox="0 0 639 264" fill="none" xmlns="http://www.w3.org/2000/svg"><rect width="639" height="264" rx="132" fill="#EAE7E0"/><path d="M207.339 163.953q-8.338 0-12.326-3.897-3.897-3.987-3.897-12.326v-31.992q0-8.338 3.897-12.235 3.988-3.897 12.326-3.897h26.917q8.338 0 12.235 3.897 3.988 3.897 3.988 12.235v6.253q0 2.085-2.085 2.085h-12.96q-2.084 0-2.084-2.085v-3.172q0-2.718-1.179-3.806-1.087-1.178-3.806-1.178h-15.498q-2.718 0-3.897 1.178-1.087 1.088-1.087 3.806v25.83q0 2.72 1.087 3.897 1.179 1.088 3.897 1.088h15.498q2.719 0 3.806-1.088 1.179-1.178 1.179-3.897v-3.172q0-1.088.453-1.541.543-.453 1.631-.453h12.96q1.088 0 1.541.453.544.453.544 1.541v6.253q0 8.339-3.988 12.326-3.897 3.897-12.235 3.897zm68.632 0q-7.886 0-11.51-3.534-3.535-3.625-3.535-11.601v-3.625q0-1.088.453-1.541t1.541-.453h13.051q1.087 0 1.54.453.544.453.544 1.541v1.722q0 2.628.906 3.625.997.906 3.626.906h14.682q2.628 0 3.534-.906.997-.997.997-3.625v-4.713q0-2.628-.997-3.535-.906-.996-3.534-.997h-20.845q-7.885 0-11.51-3.534-3.535-3.626-3.535-11.51v-7.976q0-7.885 3.535-11.419 3.625-3.625 11.51-3.625h26.645q7.885 0 11.419 3.625 3.626 3.534 3.626 11.419v3.626q0 1.087-.453 1.54-.454.453-1.541.453h-13.051q-1.088 0-1.541-.453t-.453-1.54v-1.722q0-2.63-.997-3.535-.906-.997-3.534-.997h-13.867q-2.628 0-3.625.997-.906.906-.906 3.535v4.803q0 2.629.906 3.625.997.906 3.625.906h20.845q7.885 0 11.42 3.626 3.625 3.535 3.625 11.419v7.885q0 7.976-3.625 11.601-3.535 3.534-11.42 3.534zm68.326 0q-7.884 0-11.51-3.534-3.534-3.625-3.534-11.601v-3.625q0-1.088.453-1.541t1.541-.453h13.05q1.088 0 1.541.453.544.453.544 1.541v1.722q0 2.628.906 3.625.997.906 3.625.906h14.682q2.63 0 3.535-.906.997-.997.997-3.625v-4.713q0-2.628-.997-3.535-.906-.996-3.535-.997H344.75q-7.884 0-11.51-3.534-3.534-3.626-3.534-11.51v-7.976q0-7.885 3.534-11.419 3.626-3.625 11.51-3.625h26.646q7.885 0 11.419 3.625 3.625 3.534 3.625 11.419v3.626q0 1.087-.453 1.54t-1.54.453h-13.051q-1.088 0-1.541-.453t-.453-1.54v-1.722q0-2.63-.997-3.535-.906-.997-3.535-.997h-13.866q-2.629 0-3.625.997-.906.906-.907 3.535v4.803q0 2.629.907 3.625.996.906 3.625.906h20.845q7.885 0 11.419 3.626 3.626 3.535 3.626 11.419v7.885q0 7.976-3.626 11.601-3.535 3.534-11.419 3.534zm65.608 0q-7.884 0-11.51-3.534-3.534-3.625-3.535-11.601v-3.716q0-1.088.454-1.541.453-.453 1.54-.453h12.689q1.087 0 1.54.453.544.453.544 1.541v1.813q0 2.628.906 3.625.997.906 3.626.906h12.144q2.628 0 3.535-.906.997-.997.997-3.625v-5.891q0-2.629-.997-3.535-.907-.996-3.535-.997h-16.042q-1.087 0-1.54-.453t-.453-1.541v-6.616q0-1.088.272-1.722.362-.635 1.268-1.268l17.311-11.601v-.816h-29.364q-1.088 0-1.632-.453-.453-.453-.453-1.541v-8.428q0-1.088.453-1.541.544-.453 1.632-.453h46.765q1.087 0 1.54.453.544.453.544 1.541v8.519q0 1.088-.362 1.722-.363.635-1.269 1.269l-17.311 11.6v.725h6.526q6.525 0 9.788 3.626t3.263 11.419v7.885q0 7.976-3.626 11.601-3.534 3.534-11.419 3.534z" fill="#202020"/></svg>