<svg width="286" height="286" viewBox="0 0 286 286" fill="none" xmlns="http://www.w3.org/2000/svg"><path d="M142.747 1.277c78.382 0 141.924 63.541 141.924 141.924 0 78.382-63.542 141.923-141.924 141.924C64.365 285.125.823 221.583.823 143.201S64.365 1.277 142.747 1.277" fill="#1C222F"/><path d="M142.747 1.277c78.382 0 141.924 63.541 141.924 141.924 0 78.382-63.542 141.923-141.924 141.924C64.365 285.125.823 221.583.823 143.201S64.365 1.277 142.747 1.277Z" stroke="#EAE7E0" stroke-width=".818"/><g clip-path="url(#a)"><path d="m102.463 187.874-8.961-100.51h98.468l-8.971 100.494-40.323 11.179z" fill="#264DE4"/><path d="m175.346 181.454 7.666-85.879h-40.25v94.912z" fill="#2965F1"/><path d="m114.05 132.854 1.105 12.328h27.586v-12.328zm-1.099-12.623h29.79v-12.328H111.83zm29.79 44.639-.054.014-13.729-3.707-.877-9.832h-12.375l1.727 19.356 25.252 7.01.056-.016z" fill="#EBEBEB"/><path d="M142.707 132.854v12.328h15.18l-1.431 15.987-13.749 3.711v12.825l25.272-7.004.185-2.083 2.897-32.454.301-3.31 2.225-24.951h-30.88v12.328h17.371l-1.122 12.623z" fill="#fff"/></g><defs><clipPath id="a"><path fill="#fff" d="M86.91 87.364h111.673v111.673H86.91z"/></clipPath></defs></svg>