<svg width="286" height="286" viewBox="0 0 286 286" fill="none" xmlns="http://www.w3.org/2000/svg"><path d="M142.743 1.277c78.382 0 141.924 63.541 141.924 141.924 0 78.382-63.542 141.923-141.924 141.924C64.361 285.125.819 221.583.819 143.201S64.361 1.277 142.743 1.277" fill="#fff"/><path d="M142.743 1.277c78.382 0 141.924 63.541 141.924 141.924 0 78.382-63.542 141.923-141.924 141.924C64.361 285.125.819 221.583.819 143.201S64.361 1.277 142.743 1.277Z" stroke="#ECE9E1" stroke-width=".818"/><g clip-path="url(#a)"><path d="M102.461 187.874 93.5 87.364h98.468l-8.971 100.494-40.323 11.179z" fill="#264DE4"/><path d="m175.342 181.454 7.666-85.879h-40.25v94.912z" fill="#2965F1"/><path d="m114.048 132.854 1.105 12.328h27.586v-12.328zm-1.099-12.623h29.79v-12.328h-30.911zm29.79 44.639-.054.014-13.729-3.707-.877-9.832h-12.375l1.727 19.356 25.252 7.01.056-.016z" fill="#EBEBEB"/><path d="M142.707 132.854v12.328h15.18l-1.431 15.987-13.749 3.711v12.825l25.272-7.004.185-2.083 2.897-32.454.301-3.31 2.225-24.951h-30.88v12.328h17.371l-1.122 12.623z" fill="#fff"/></g><defs><clipPath id="a"><path fill="#fff" d="M86.906 87.364H198.58v111.673H86.906z"/></clipPath></defs></svg>