<svg width="600" height="601" viewBox="0 0 600 601" fill="none" xmlns="http://www.w3.org/2000/svg">
<g clip-path="url(#clip0_1091_2)">
<path d="M255.061 24.7711C276.154 -7.8241 323.845 -7.82408 344.939 24.7711L351.012 34.1564C364.778 55.4287 391.573 64.1349 415.214 55.0168L425.644 50.9938C461.868 37.0222 500.451 65.0542 498.357 103.823L497.754 114.986C496.387 140.287 512.947 163.08 537.432 169.599L548.235 172.475C585.753 182.463 600.491 227.82 576.009 257.954L568.96 266.63C552.983 286.296 552.983 314.47 568.96 334.135L576.009 342.812C600.491 372.946 585.753 418.302 548.235 428.291L537.432 431.167C512.947 437.686 496.387 460.479 497.754 485.78L498.357 496.943C500.451 535.711 461.868 563.743 425.644 549.772L415.214 545.749C391.573 536.631 364.778 545.337 351.012 566.609L344.939 575.994C323.845 608.59 276.154 608.59 255.061 575.994L248.987 566.609C235.221 545.337 208.426 536.631 184.786 545.749L174.356 549.772C138.132 563.743 99.5491 535.711 101.643 496.943L102.246 485.78C103.613 460.479 87.0523 437.686 62.5673 431.167L51.7645 428.291C14.2463 418.302 -0.490894 372.946 23.9907 342.812L31.0399 334.135C47.017 314.47 47.017 286.296 31.0398 266.63L23.9907 257.953C-0.490906 227.82 14.2464 182.463 51.7645 172.475L62.5673 169.599C87.0523 163.08 103.613 140.287 102.246 114.986L101.643 103.823C99.5491 65.0541 138.132 37.0222 174.356 50.9938L184.786 55.0168C208.426 64.1349 235.221 55.4286 248.987 34.1564L255.061 24.7711Z" fill="white"/>
<path d="M205.524 135.532L200.533 138.667L190.375 122.496L195.586 119.222C197.155 118.237 198.701 117.717 200.223 117.664C201.743 117.605 203.178 117.991 204.53 118.823C205.879 119.65 207.079 120.9 208.131 122.574C209.189 124.258 209.8 125.897 209.964 127.49C210.124 129.078 209.836 130.558 209.098 131.932C208.358 133.3 207.166 134.5 205.524 135.532ZM201.4 135.7L204.306 133.874C205.643 133.034 206.589 132.08 207.144 131.012C207.699 129.944 207.893 128.798 207.726 127.574C207.559 126.35 207.063 125.08 206.236 123.764C205.416 122.459 204.497 121.469 203.478 120.795C202.457 120.115 201.364 119.789 200.199 119.816C199.03 119.837 197.815 120.245 196.551 121.039L193.424 123.003L201.4 135.7Z" fill="#1C222F"/>
<path d="M255.375 115.845L250.711 97.3267L256.968 95.7506C258.415 95.3863 259.665 95.3343 260.718 95.5948C261.769 95.8492 262.625 96.3483 263.287 97.0919C263.949 97.8356 264.417 98.7529 264.692 99.844C264.967 100.935 264.987 101.959 264.754 102.915C264.52 103.871 264.003 104.707 263.202 105.421C262.4 106.13 261.281 106.665 259.847 107.026L254.783 108.302L254.273 106.276L259.264 105.019C260.253 104.77 261.012 104.425 261.542 103.984C262.078 103.541 262.415 103.02 262.552 102.421C262.695 101.815 262.672 101.141 262.485 100.4C262.299 99.6583 261.997 99.0452 261.58 98.5604C261.163 98.0757 260.612 97.7593 259.927 97.6112C259.241 97.4571 258.398 97.5061 257.397 97.7582L253.454 98.7511L257.618 115.28L255.375 115.845ZM261.997 105.331L268.649 112.502L266.045 113.158L259.465 105.968L261.997 105.331Z" fill="#1C222F"/>
<path d="M315.378 111.139L312.96 110.975L321.242 92.3943L323.624 92.5551L329.334 112.081L326.915 111.918L322.304 95.494L322.155 95.484L315.378 111.139ZM316.774 103.756L326.524 104.415L326.386 106.461L316.636 105.803L316.774 103.756Z" fill="#1C222F"/>
<path d="M389.375 117.533C389.418 116.874 389.377 116.251 389.251 115.664C389.132 115.074 388.926 114.529 388.631 114.029C388.342 113.531 387.963 113.088 387.496 112.7C387.029 112.311 386.475 111.989 385.835 111.732C384.785 111.31 383.721 111.198 382.644 111.396C381.567 111.593 380.563 112.118 379.631 112.97C378.7 113.822 377.927 115.015 377.311 116.55C376.695 118.085 376.432 119.483 376.522 120.745C376.612 122.007 376.986 123.085 377.646 123.979C378.305 124.873 379.183 125.54 380.279 125.98C381.294 126.387 382.275 126.53 383.222 126.407C384.177 126.281 385.03 125.907 385.782 125.284C386.543 124.658 387.14 123.803 387.576 122.718L388.178 123.121L382.847 120.982L383.611 119.078L390.361 121.786L389.597 123.69C389.011 125.15 388.191 126.294 387.135 127.123C386.084 127.954 384.895 128.448 383.566 128.605C382.245 128.758 380.881 128.552 379.473 127.988C377.904 127.358 376.673 126.435 375.781 125.22C374.895 124.007 374.393 122.587 374.276 120.959C374.164 119.333 374.484 117.586 375.234 115.717C375.796 114.315 376.49 113.129 377.314 112.161C378.146 111.188 379.067 110.446 380.076 109.933C381.086 109.421 382.148 109.144 383.263 109.102C384.378 109.061 385.504 109.268 386.641 109.724C387.575 110.099 388.39 110.59 389.084 111.197C389.786 111.8 390.352 112.486 390.78 113.254C391.217 114.019 391.507 114.841 391.649 115.722C391.793 116.597 391.774 117.497 391.59 118.422L389.375 117.533Z" fill="#1C222F"/>
<path d="M473.733 202.708L471.996 203.8L467.552 196.725L469.289 195.634L473.733 202.708Z" fill="#1C222F"/>
<path d="M495.404 261.175L493.415 261.676L491.374 253.574L493.363 253.073L495.404 261.175Z" fill="#1C222F"/>
<path d="M497.961 323.475L495.914 323.337L496.477 315.001L498.523 315.139L497.961 323.475Z" fill="#1C222F"/>
<path d="M481.143 383.517L479.239 382.753L482.35 374.999L484.254 375.763L481.143 383.517Z" fill="#1C222F"/>
<path d="M394.484 465.232L399.474 462.097L409.633 478.268L404.422 481.542C402.853 482.527 401.307 483.047 399.785 483.1C398.265 483.159 396.829 482.773 395.477 481.941C394.129 481.114 392.928 479.864 391.877 478.19C390.819 476.506 390.208 474.867 390.044 473.274C389.883 471.687 390.172 470.206 390.909 468.832C391.65 467.464 392.842 466.264 394.484 465.232ZM398.607 465.065L395.702 466.89C394.365 467.73 393.419 468.684 392.864 469.752C392.309 470.82 392.115 471.966 392.281 473.19C392.448 474.414 392.945 475.684 393.772 477C394.592 478.305 395.511 479.295 396.529 479.97C397.551 480.649 398.644 480.976 399.809 480.948C400.977 480.927 402.193 480.519 403.457 479.725L406.583 477.761L398.607 465.065Z" fill="#1C222F"/>
<path d="M344.621 484.921L349.285 503.439L343.028 505.015C341.581 505.379 340.331 505.431 339.279 505.171C338.227 504.916 337.371 504.417 336.709 503.674C336.047 502.93 335.579 502.013 335.304 500.922C335.029 499.83 335.009 498.807 335.242 497.851C335.476 496.894 335.993 496.059 336.794 495.344C337.596 494.636 338.715 494.101 340.149 493.739L345.213 492.464L345.723 494.489L340.732 495.747C339.743 495.996 338.984 496.341 338.454 496.782C337.918 497.225 337.581 497.745 337.444 498.344C337.302 498.951 337.324 499.624 337.511 500.366C337.697 501.107 337.999 501.72 338.416 502.205C338.833 502.69 339.384 503.006 340.069 503.154C340.755 503.308 341.599 503.26 342.599 503.007L346.542 502.014L342.378 485.485L344.621 484.921ZM337.999 495.435L331.347 488.264L333.951 487.608L340.531 494.797L337.999 495.435Z" fill="#1C222F"/>
<path d="M284.629 489.626L287.048 489.789L278.766 508.37L276.384 508.21L270.674 488.684L273.093 488.847L277.704 505.271L277.853 505.281L284.629 489.626ZM283.234 497.008L273.484 496.35L273.622 494.303L283.372 494.962L283.234 497.008Z" fill="#1C222F"/>
<path d="M210.637 483.23C210.593 483.889 210.635 484.512 210.761 485.098C210.879 485.688 211.086 486.234 211.381 486.734C211.67 487.231 212.048 487.675 212.515 488.063C212.982 488.451 213.536 488.774 214.177 489.031C215.227 489.452 216.29 489.564 217.367 489.367C218.445 489.169 219.449 488.645 220.38 487.793C221.312 486.941 222.085 485.747 222.701 484.213C223.317 482.678 223.58 481.28 223.49 480.018C223.4 478.756 223.025 477.678 222.366 476.784C221.707 475.89 220.829 475.223 219.733 474.783C218.717 474.375 217.736 474.233 216.79 474.355C215.835 474.481 214.981 474.856 214.229 475.478C213.469 476.104 212.871 476.96 212.436 478.044L211.834 477.642L217.165 479.781L216.401 481.685L209.651 478.976L210.415 477.072C211 475.613 211.821 474.468 212.877 473.64C213.927 472.808 215.117 472.315 216.446 472.158C217.766 472.005 219.131 472.21 220.538 472.775C222.108 473.405 223.338 474.327 224.231 475.543C225.117 476.756 225.619 478.176 225.736 479.804C225.847 481.429 225.528 483.177 224.778 485.046C224.215 486.448 223.522 487.633 222.698 488.602C221.866 489.574 220.945 490.317 219.936 490.829C218.926 491.342 217.864 491.619 216.749 491.66C215.633 491.702 214.508 491.495 213.371 491.039C212.436 490.664 211.622 490.173 210.928 489.566C210.225 488.963 209.66 488.277 209.231 487.509C208.795 486.744 208.505 485.921 208.363 485.04C208.218 484.165 208.238 483.265 208.421 482.341L210.637 483.23Z" fill="#1C222F"/>
<path d="M126.271 398.055L128.008 396.964L132.452 404.039L130.715 405.13L126.271 398.055Z" fill="#1C222F"/>
<path d="M104.604 339.591L106.593 339.09L108.634 347.191L106.645 347.692L104.604 339.591Z" fill="#1C222F"/>
<path d="M102.055 277.289L104.102 277.427L103.539 285.763L101.492 285.625L102.055 277.289Z" fill="#1C222F"/>
<path d="M118.873 217.248L120.777 218.012L117.666 225.766L115.762 225.002L118.873 217.248Z" fill="#1C222F"/>
<path d="M392.321 290.982C392.087 290.027 391.717 289.19 391.213 288.47C390.709 287.731 390.079 287.11 389.322 286.606C388.584 286.083 387.719 285.696 386.729 285.444C385.756 285.174 384.685 285.039 383.514 285.039C380.993 285.039 378.841 285.642 377.058 286.849C375.293 288.055 373.942 289.793 373.006 292.062C372.087 294.332 371.628 297.069 371.628 300.275C371.628 303.516 372.069 306.29 372.952 308.595C373.834 310.9 375.149 312.665 376.896 313.89C378.643 315.114 380.813 315.727 383.406 315.727C385.693 315.727 387.593 315.394 389.106 314.727C390.637 314.061 391.78 313.115 392.537 311.891C393.293 310.666 393.671 309.225 393.671 307.569L396.265 307.839H383.622V297.141H408.151V304.813C408.151 309.856 407.079 314.169 404.936 317.753C402.811 321.319 399.876 324.056 396.13 325.965C392.402 327.856 388.125 328.802 383.298 328.802C377.913 328.802 373.186 327.658 369.116 325.371C365.045 323.084 361.867 319.824 359.58 315.592C357.31 311.36 356.176 306.326 356.176 300.491C356.176 295.916 356.869 291.864 358.256 288.334C359.661 284.805 361.606 281.824 364.091 279.393C366.576 276.943 369.449 275.098 372.708 273.855C375.968 272.594 379.462 271.964 383.19 271.964C386.468 271.964 389.511 272.432 392.321 273.369C395.148 274.287 397.643 275.602 399.804 277.313C401.983 279.006 403.739 281.014 405.071 283.337C406.404 285.66 407.215 288.208 407.503 290.982H392.321Z" fill="#1C222F"/>
<path d="M312.818 328.046H296.609L314.871 272.721H335.402L353.663 328.046H337.455L325.352 287.957H324.92L312.818 328.046ZM309.792 306.218H340.264V317.456H309.792V306.218Z" fill="#1C222F"/>
<path d="M247.633 328.046V272.721H271.513C275.619 272.721 279.212 273.468 282.292 274.963C285.372 276.458 287.767 278.61 289.478 281.419C291.189 284.229 292.044 287.596 292.044 291.523C292.044 295.485 291.162 298.825 289.397 301.545C287.65 304.264 285.191 306.317 282.022 307.704C278.87 309.091 275.187 309.784 270.973 309.784H256.71V298.114H267.947C269.712 298.114 271.216 297.898 272.459 297.466C273.719 297.015 274.683 296.304 275.349 295.332C276.034 294.359 276.376 293.089 276.376 291.523C276.376 289.938 276.034 288.65 275.349 287.66C274.683 286.651 273.719 285.913 272.459 285.444C271.216 284.958 269.712 284.715 267.947 284.715H262.653V328.046H247.633ZM280.05 302.652L293.881 328.046H277.564L264.057 302.652H280.05Z" fill="#1C222F"/>
<path d="M213.131 328.046H191.844V272.721H212.915C218.606 272.721 223.522 273.828 227.665 276.043C231.825 278.241 235.03 281.41 237.282 285.552C239.551 289.677 240.685 294.62 240.685 300.383C240.685 306.146 239.56 311.099 237.309 315.241C235.057 319.365 231.87 322.535 227.746 324.75C223.621 326.947 218.75 328.046 213.131 328.046ZM206.864 315.295H212.591C215.328 315.295 217.66 314.854 219.587 313.971C221.532 313.089 223.009 311.567 224.018 309.406C225.044 307.245 225.557 304.237 225.557 300.383C225.557 296.529 225.035 293.522 223.991 291.36C222.964 289.199 221.451 287.678 219.452 286.795C217.471 285.913 215.04 285.471 212.158 285.471H206.864V315.295Z" fill="#1C222F"/>
</g>
<defs>
<clipPath id="clip0_1091_2">
<rect y="0.382812" width="600" height="600" rx="300" fill="white"/>
</clipPath>
</defs>
</svg>
