<svg width="554" height="535" viewBox="0 0 554 535" fill="none" xmlns="http://www.w3.org/2000/svg"><path d="M234.605 17.779c23.492-21.86 60.776-21.86 84.269 0l10.739 9.992c13.434 12.5 32.114 18.338 50.621 15.82l14.794-2.013c32.365-4.403 62.528 16.676 68.176 47.642l2.581 14.155c3.23 17.708 14.775 32.992 31.286 41.418l13.199 6.735c28.874 14.736 40.395 48.841 26.04 77.086l-6.561 12.912c-8.209 16.151-8.209 35.043 0 51.195l6.561 12.911c14.355 28.245 2.834 62.351-26.04 77.086l-13.199 6.736c-16.511 8.426-28.056 23.709-31.286 41.417l-2.581 14.155c-5.648 30.967-35.811 52.045-68.176 47.642l-14.794-2.013c-18.507-2.517-37.187 3.32-50.621 15.821l-10.739 9.992c-23.493 21.859-60.777 21.859-84.269 0l-10.739-9.992c-13.434-12.501-32.114-18.338-50.622-15.821l-14.794 2.013c-32.364 4.403-62.528-16.675-68.175-47.642l-2.582-14.155c-3.23-17.708-14.774-32.991-31.285-41.417l-13.2-6.736c-28.873-14.735-40.395-48.841-26.04-77.086l6.562-12.911c8.209-16.152 8.209-35.044 0-51.195l-6.562-12.912c-14.355-28.245-2.833-62.35 26.04-77.086l13.2-6.735c16.511-8.426 28.056-23.71 31.285-41.418l2.582-14.155c5.647-30.966 35.811-52.045 68.175-47.642l14.794 2.013c18.508 2.518 37.188-3.32 50.622-15.82z" fill="#fff"/><path d="m187.668 111.705-4.704 2.956-9.577-15.246 4.913-3.086q2.219-1.394 4.371-1.47 2.149-.082 4.061 1.094 1.907 1.17 3.395 3.536 1.495 2.382 1.728 4.635.227 2.244-.816 4.187-1.048 1.936-3.371 3.394m-3.887.158 2.74-1.72q1.89-1.188 2.675-2.699t.549-3.241-1.405-3.592q-1.16-1.846-2.6-2.8-1.445-.96-3.092-.923-1.651.031-3.439 1.154l-2.947 1.852zM234.667 93.145l-4.397-17.458 5.899-1.486q2.046-.516 3.534-.147 1.488.36 2.423 1.411.936 1.051 1.324 2.595.389 1.543.059 2.895t-1.463 2.363q-1.135 1.002-3.164 1.513l-4.773 1.202-.481-1.91 4.705-1.184q1.398-.352 2.148-.976.758-.627.952-1.473.201-.858-.063-1.906-.263-1.05-.854-1.734-.59-.686-1.558-.895-.97-.218-2.385.138l-3.717.936 3.925 15.584zm6.242-9.912 6.272 6.76-2.455.619-6.204-6.778zM291.236 88.708l-2.281-.154 7.809-17.518 2.245.152 5.383 18.408-2.28-.154-4.347-15.483-.141-.01zm1.315-6.96 9.192.62-.13 1.93-9.192-.62zM361.001 94.736a6.4 6.4 0 0 0-.117-1.762 4.9 4.9 0 0 0-.584-1.541 4.7 4.7 0 0 0-1.07-1.254 5.8 5.8 0 0 0-1.566-.912 5.34 5.34 0 0 0-3.008-.317q-1.524.28-2.841 1.484-1.317 1.206-2.188 3.376-.87 2.17-.743 3.954t1.059 3.049q.933 1.265 2.483 1.887 1.436.576 2.774.403a4.68 4.68 0 0 0 2.414-1.059q1.076-.885 1.691-2.42l.568.38-5.026-2.016.72-1.795 6.364 2.553-.72 1.795q-.829 2.064-2.322 3.236a6.55 6.55 0 0 1-3.364 1.397q-1.868.217-3.859-.582-2.218-.89-3.481-2.609-1.252-1.715-1.419-4.017-.158-2.299.903-4.942.796-1.983 1.961-3.353 1.177-1.374 2.605-2.1a7.15 7.15 0 0 1 3.004-.783q1.578-.06 3.184.586a8 8 0 0 1 2.304 1.389 7.1 7.1 0 0 1 1.599 1.939 6.9 6.9 0 0 1 .819 2.327 7.1 7.1 0 0 1-.055 2.545zM440.526 175.038l-1.638 1.028-4.19-6.67 1.638-1.028zM460.959 230.158l-1.875.473-1.924-7.639 1.875-.472zM463.372 288.893l-1.93-.13.531-7.859 1.929.13zM447.516 345.499l-1.795-.721 2.933-7.31 1.795.72zM365.816 422.537l4.705-2.955 9.577 15.245-4.913 3.087q-2.218 1.393-4.372 1.469-2.148.083-4.061-1.093-1.907-1.169-3.394-3.536-1.497-2.382-1.728-4.635-.228-2.245.816-4.188 1.048-1.935 3.37-3.394m3.887-.158-2.739 1.721q-1.892 1.188-2.676 2.698t-.549 3.242q.237 1.731 1.405 3.591 1.16 1.847 2.6 2.8 1.445.962 3.092.923 1.653-.03 3.439-1.153l2.948-1.852zM318.802 441.099l4.397 17.459-5.899 1.485q-2.046.516-3.535.147-1.486-.36-2.422-1.411t-1.325-2.595q-.388-1.542-.058-2.895t1.463-2.363q1.135-1.002 3.163-1.513l4.774-1.202.481 1.909-4.705 1.186q-1.399.351-2.148.976-.758.626-.953 1.472-.201.858.064 1.906.264 1.049.853 1.734.59.686 1.558.895.971.218 2.386-.138l3.717-.936-3.925-15.584zm-6.243 9.913-6.271-6.761 2.455-.618 6.203 6.777zM262.249 445.535l2.28.154-7.808 17.518-2.246-.152-5.383-18.408 2.281.154 4.347 15.484.14.009zm-1.316 6.96-9.192-.62.13-1.93 9.192.621zM192.487 439.505a6.4 6.4 0 0 0 .117 1.762q.167.834.585 1.541.408.705 1.069 1.254.66.549 1.566.912 1.485.596 3.009.317 1.523-.28 2.84-1.484 1.317-1.205 2.188-3.375.87-2.17.744-3.955-.127-1.785-1.06-3.049t-2.482-1.886q-1.437-.577-2.775-.403a4.67 4.67 0 0 0-2.414 1.058q-1.075.885-1.691 2.419l-.567-.379 5.025 2.017-.72 1.794-6.364-2.553.721-1.795q.828-2.064 2.321-3.236a6.56 6.56 0 0 1 3.365-1.397q1.868-.217 3.858.582 2.219.89 3.481 2.609 1.254 1.716 1.419 4.017.157 2.3-.903 4.942-.795 1.983-1.961 3.353-1.178 1.374-2.604 2.1a7.16 7.16 0 0 1-3.005.783q-1.577.059-3.184-.586a8 8 0 0 1-2.304-1.388 7.1 7.1 0 0 1-1.599-1.94 6.9 6.9 0 0 1-.819-2.327 7.1 7.1 0 0 1 .055-2.545zM112.951 359.205l1.637-1.029 4.19 6.67-1.637 1.029zM92.525 304.086l1.876-.472 1.924 7.638-1.876.473zM90.12 245.35l1.93.13-.53 7.859-1.93-.131zM105.976 188.745l1.795.72-2.933 7.31-1.795-.72zM369.063 257.722q-.35-1.432-1.108-2.512a6.9 6.9 0 0 0-1.891-1.864q-1.108-.784-2.593-1.162-1.459-.405-3.215-.405-3.782 0-6.456 1.81-2.648 1.81-4.052 5.214-1.378 3.403-1.378 8.212 0 4.863 1.324 8.32 1.323 3.458 3.944 5.295t6.51 1.837q3.43 0 5.7-.999 2.297-1 3.431-2.837 1.135-1.837 1.135-4.322l2.593.27h-12.643v-10.698h24.529v7.672q0 7.564-3.214 12.94-3.188 5.349-8.807 8.212-5.592 2.837-12.832 2.837-8.077 0-14.182-3.431t-9.536-9.779q-3.404-6.348-3.404-15.101 0-6.861 2.08-12.156 2.108-5.295 5.835-8.942a24.7 24.7 0 0 1 8.618-5.538q4.889-1.891 10.481-1.891 4.917 0 9.131 1.405 4.241 1.377 7.483 3.944 3.268 2.54 5.268 6.024 1.998 3.485 2.431 7.645zM289.56 294.786h-16.208l18.261-55.325h20.531l18.261 55.325h-16.208l-12.102-40.089h-.433zm-3.026-21.828h30.472v11.238h-30.472zM224.375 294.786v-55.325h23.881q6.16 0 10.778 2.242 4.62 2.243 7.186 6.456 2.566 4.215 2.566 10.104 0 5.943-2.647 10.022-2.62 4.08-7.375 6.159-4.728 2.08-11.049 2.08h-14.263v-11.67h11.238q2.647 0 4.511-.648 1.891-.675 2.891-2.134 1.026-1.459 1.026-3.809 0-2.378-1.026-3.863-1-1.513-2.891-2.215-1.864-.73-4.511-.73h-5.295v43.331zm32.417-25.393 13.831 25.393h-16.316L240.8 269.393zM189.873 294.786h-21.287v-55.325h21.071q8.537 0 14.75 3.323 6.24 3.295 9.617 9.509 3.404 6.186 3.404 14.83t-3.377 14.858q-3.377 6.186-9.563 9.509-6.186 3.296-14.615 3.296m-6.267-12.751h5.727q4.105 0 6.996-1.323 2.918-1.324 4.431-4.566 1.54-3.242 1.54-9.023t-1.567-9.022q-1.54-3.242-4.539-4.566-2.971-1.323-7.293-1.323h-5.295z" fill="#1C222F"/></svg>