<svg width="1023" height="264" viewBox="0 0 1023 264" fill="none" xmlns="http://www.w3.org/2000/svg"><rect width="1023" height="264" rx="132" fill="#EAE7E0"/><path d="M260.056 149.634q1.088 0 1.541.543.453.453.453 1.541v9.698q0 1.087-.453 1.631-.453.453-1.541.453h-46.493q-1.088 0-1.541-.453-.453-.544-.453-1.631v-59.363q0-1.088.453-1.541t1.541-.453h45.587q1.088 0 1.541.453t.453 1.541v9.788q0 1.087-.453 1.54t-1.541.454h-30.814v11.147h28.095q1.088 0 1.541.453t.453 1.541v9.063q0 1.088-.453 1.631-.453.453-1.541.454h-28.095v11.51zm8.053 13.866q-1.179 0-1.813-.453-.634-.544-.634-1.269t.544-1.541l18.216-29.183-17.219-27.823q-.544-.816-.544-1.541t.544-1.178q.635-.453 1.722-.453h13.322q1.088 0 1.632.362.634.273 1.268 1.269l6.073 10.241 4.259 7.07h.725l4.26-7.07 6.072-10.241q.544-.906 1.178-1.269.635-.362 1.722-.362h13.232q1.087 0 1.722.453t.635 1.178-.544 1.541l-17.31 27.823 18.216 29.183q.544.816.544 1.541 0 .816-.634 1.269-.635.453-1.722.453h-13.232q-1.088 0-1.722-.363-.635-.361-1.179-1.359l-11.238-18.67h-.725l-11.238 18.67q-.543.997-1.178 1.359-.635.363-1.722.363zm107.301-63.441q7.885 0 11.42 3.625 3.625 3.535 3.625 11.419v9.97q0 7.884-3.625 11.51-3.535 3.534-11.42 3.534h-25.467v21.299q0 2.084-2.084 2.084H335.17q-1.087 0-1.54-.453-.453-.544-.454-1.631v-59.363q0-1.088.454-1.541.453-.453 1.54-.453zm-1.722 17.854q0-2.628-.997-3.535-.906-.996-3.534-.997h-19.214v13.414h19.214q2.628 0 3.534-.907.997-.996.997-3.625zm84.377 42.506q.634.815.634 1.45 0 .725-.543 1.178-.454.453-1.36.453h-14.863q-1.088 0-1.813-.272-.635-.363-1.269-1.269l-19.032-23.835h-1.903v23.292q0 2.084-2.085 2.084h-12.688q-1.088 0-1.541-.453-.453-.544-.453-1.631v-59.363q0-1.088.453-1.541t1.541-.453h39.605q7.885 0 11.42 3.625 3.625 3.535 3.625 11.419v8.792q0 7.884-3.535 11.51-3.534 3.625-11.238 3.625h-2.9zm-40.149-47.038v13.142h18.579q2.628 0 3.535-.906.996-.997.996-3.626v-4.078q0-2.628-.996-3.535-.907-.996-3.535-.997zm100.844 36.253q1.087 0 1.54.543.453.453.453 1.541v9.698q0 1.087-.453 1.631-.453.453-1.54.453h-46.494q-1.087 0-1.54-.453-.454-.544-.454-1.631v-59.363q0-1.088.454-1.541.453-.453 1.54-.453h45.587q1.088 0 1.541.453t.453 1.541v9.788q0 1.087-.453 1.54t-1.541.454h-30.814v11.147h28.095q1.088 0 1.541.453t.453 1.541v9.063q0 1.088-.453 1.631-.453.453-1.541.454h-28.095v11.51zm26.178 14.319q-7.884 0-11.51-3.534-3.534-3.625-3.534-11.601v-3.625q0-1.088.453-1.541t1.54-.453h13.051q1.088 0 1.541.453.543.453.544 1.541v1.722q0 2.628.906 3.625.997.906 3.625.906h14.682q2.629 0 3.535-.906.997-.997.997-3.625v-4.713q0-2.628-.997-3.535-.907-.996-3.535-.997h-20.845q-7.884 0-11.51-3.534-3.534-3.626-3.534-11.51v-7.976q0-7.885 3.534-11.419 3.626-3.625 11.51-3.625h26.646q7.884 0 11.419 3.625 3.625 3.534 3.625 11.419v3.626q0 1.087-.453 1.54t-1.541.453h-13.05q-1.088 0-1.541-.453t-.453-1.54v-1.722q0-2.63-.997-3.535-.907-.997-3.535-.997h-13.866q-2.629 0-3.625.997-.907.906-.907 3.535v4.803q0 2.629.907 3.625.996.906 3.625.906h20.845q7.884 0 11.419 3.626 3.625 3.535 3.625 11.419v7.885q0 7.976-3.625 11.601-3.535 3.534-11.419 3.534zm68.327 0q-7.885 0-11.51-3.534-3.535-3.625-3.535-11.601v-3.625q0-1.088.453-1.541.454-.453 1.541-.453h13.051q1.087 0 1.541.453.543.453.543 1.541v1.722q0 2.628.907 3.625.997.906 3.625.906h14.682q2.628 0 3.535-.906.996-.997.996-3.625v-4.713q0-2.628-.996-3.535-.907-.996-3.535-.997h-20.845q-7.885 0-11.51-3.534-3.534-3.626-3.535-11.51v-7.976q0-7.885 3.535-11.419 3.625-3.625 11.51-3.625h26.645q7.885 0 11.42 3.625 3.625 3.534 3.625 11.419v3.626q0 1.087-.453 1.54t-1.541.453h-13.051q-1.087 0-1.54-.453t-.454-1.54v-1.722q0-2.63-.996-3.535-.907-.997-3.535-.997h-13.866q-2.629 0-3.626.997-.906.906-.906 3.535v4.803q0 2.629.906 3.625.997.906 3.626.906h20.844q7.885 0 11.42 3.626 3.625 3.535 3.625 11.419v7.885q0 7.976-3.625 11.601-3.535 3.534-11.42 3.534zm53.463-.453q-1.087 0-1.541-.453-.453-.544-.453-1.631v-11.782q0-1.088.453-1.541.454-.453 1.541-.453h12.779q1.088 0 1.541.453.543.453.544 1.541v11.782q0 2.084-2.085 2.084zm39.287.453q-8.338 0-12.326-3.897-3.897-3.987-3.897-12.326v-9.606q0-1.089.453-1.541.453-.544 1.541-.544h12.87q1.087 0 1.54.544.453.452.453 1.541v6.525q0 2.72 1.088 3.897 1.177 1.088 3.897 1.088h9.607q2.718 0 3.806-1.088 1.179-1.178 1.179-3.897v-30.361h-27.19q-1.087 0-1.54-.453t-.453-1.541v-10.241q0-1.088.453-1.541t1.54-.453h41.962q1.088 0 1.541.453t.453 1.541v45.677q0 8.339-3.988 12.326-3.897 3.897-12.144 3.897zm64.525 0q-7.884 0-11.51-3.534-3.534-3.625-3.534-11.601v-3.625q0-1.088.453-1.541t1.54-.453h13.051q1.088 0 1.541.453.543.453.544 1.541v1.722q0 2.628.906 3.625.997.906 3.625.906h14.682q2.628 0 3.535-.906.996-.997.997-3.625v-4.713q0-2.628-.997-3.535-.907-.996-3.535-.997h-20.845q-7.884 0-11.51-3.534-3.534-3.626-3.534-11.51v-7.976q0-7.885 3.534-11.419 3.626-3.625 11.51-3.625h26.646q7.884 0 11.419 3.625 3.625 3.534 3.625 11.419v3.626q0 1.087-.453 1.54t-1.541.453h-13.05q-1.088 0-1.541-.453t-.453-1.54v-1.722q0-2.63-.997-3.535-.906-.997-3.535-.997h-13.866q-2.628 0-3.625.997-.907.906-.907 3.535v4.803q0 2.629.907 3.625.997.906 3.625.906h20.845q7.885 0 11.419 3.626 3.625 3.535 3.625 11.419v7.885q0 7.976-3.625 11.601-3.534 3.534-11.419 3.534z" fill="#202020"/></svg>