<svg width="840" height="285" viewBox="0 0 840 285" fill="none" xmlns="http://www.w3.org/2000/svg"><path d="M142.943.63h554.321c78.384 0 141.926 63.542 141.926 141.926s-63.542 141.927-141.926 141.927H142.943c-78.384 0-141.926-63.543-141.926-141.927S64.559.629 142.943.629" fill="#EAE7E0"/><path d="M142.943.63h554.321c78.384 0 141.926 63.542 141.926 141.926s-63.542 141.927-141.926 141.927H142.943c-78.384 0-141.926-63.543-141.926-141.927S64.559.629 142.943.629Z" stroke="#1C222F" stroke-width=".818"/><g clip-path="url(#a)" fill="#1C222F"><g clip-path="url(#b)"><path d="M227.824 87.448c-9.138.448-17.505 2.974-25.155 7.578-4.282 2.58-9.37 6.826-12.756 10.589-10.195 11.395-14.835 24.509-14.118 39.953.429 9.299 2.92 17.576 7.596 25.352 5.518 9.155 14.799 17.594 24.133 21.93 7.346 3.422 14.656 4.963 23.435 4.963 11.556 0 21.249-2.831 30.189-8.815 5.501-3.673 10.231-8.188 14.351-13.653 7.722-10.284 11.252-22.126 10.625-35.689-.359-7.65-1.953-14.136-5.088-20.64-3.996-8.295-9.837-15.336-17.505-21.052-8.313-6.234-18.364-9.925-28.362-10.445-4.049-.197-4.712-.215-7.345-.071m-13.223 34.184c2.957.735 5.537 2.275 7.794 4.64 3.333 3.494 5.178 7.955 5.859 14.047.107.967.197 2.222.197 2.831v1.075h-30.87l.107 2.006c.323 5.931 3.351 9.944 8.672 11.467 1.845.537 5.787.573 7.579.089 3.457-.931 6.414-3.637 6.915-6.324l.108-.609h6.808l-.143.573c-1.022 4.73-4.014 8.546-8.439 10.786-3.099 1.558-7.955 2.239-12.183 1.72-4.3-.538-7.632-2.079-10.463-4.838-2.921-2.866-4.551-6.127-5.59-11.197-.52-2.616-.574-8.332-.09-10.589 1.201-5.536 4.157-10.23 8.17-12.954 2.186-1.487 5.196-2.687 7.65-3.063 1.792-.269 6.235-.09 7.919.34m30.673 6.916c2.795 4.085 5.142 7.435 5.232 7.435.072 0 2.49-3.314 5.375-7.364s5.321-7.399 5.429-7.435c.107-.036 2.042-.054 4.282-.036l4.085.054-7.113 9.496c-3.906 5.213-7.221 9.675-7.364 9.89-.251.376.125.931 7.865 11.735a3874 3874 0 0 1 8.278 11.556c.107.179-.824.233-4.408.233l-4.533-.018-5.894-8.761c-3.225-4.838-5.93-8.779-6.002-8.779s-2.795 3.941-6.038 8.779l-5.894 8.761-4.247.018c-2.347 0-4.264-.036-4.264-.072 0-.054 3.584-5.106 7.973-11.251 4.39-6.146 7.937-11.252 7.901-11.359-.053-.126-3.35-4.659-7.345-10.105-3.996-5.447-7.275-9.962-7.275-10.051s1.953-.162 4.444-.162h4.425z"/><path d="M207.672 127.199c-2.616.34-4.551 1.308-6.468 3.225-1.129 1.093-1.505 1.648-2.186 3.046-.77 1.594-1.379 3.709-1.379 4.73v.466h23.472v-.591c0-1.058-.681-3.315-1.434-4.767-1.738-3.35-4.891-5.572-8.672-6.091-1.505-.215-1.863-.215-3.333-.018"/></g><path d="M428.182 191.483v-75.144h4.076v11.82q.723-.787 1.331-1.666a20.2 20.2 0 0 1 18.423-11.433c9.293-.277 16.845 3.163 21.283 11.433a36.74 36.74 0 0 1 .887 33.687c-4.135 9.267-14.347 13.874-25.281 12.182a20.45 20.45 0 0 1-16.317-10.767v29.885zm4.076-48.563.913 8.824c1.611 10.043 7.549 15.978 16.871 17.093a19.175 19.175 0 0 0 21.062-12.182 32.69 32.69 0 0 0-.718-26.862 18.776 18.776 0 0 0-19.786-10.934 18.29 18.29 0 0 0-16.343 13.513 94 94 0 0 0-1.999 10.545zm128.794 10.213a21.976 21.976 0 0 1-21.479 19.425c-17.093.86-25.114-10.49-26.389-23.589a37.8 37.8 0 0 1 3.329-20.813 23.22 23.22 0 0 1 24.169-12.959 22.205 22.205 0 0 1 19.702 16.901 114 114 0 0 1 1.914 12.489h-44.891c-.832 11.875 5.55 21.423 14.595 23.725 11.266 2.772 20.895-2.11 24.39-12.821.777-2.749 2.192-3.137 4.689-2.358zm-43.678-12.348h40.153c-.251-12.652-8.129-21.848-18.814-21.952-12.065-.196-20.814 8.631-21.339 21.952m51.977 12.625h3.936a15.78 15.78 0 0 0 9.267 13.598 24.232 24.232 0 0 0 21.035-.555 9.46 9.46 0 0 0 5.55-9.296 8.575 8.575 0 0 0-5.772-8.576c-4.33-1.611-8.934-2.498-13.346-3.913a98 98 0 0 1-13.431-4.911c-7.109-3.469-7.549-16.982.499-21.26a28.34 28.34 0 0 1 27.084-.417 14.27 14.27 0 0 1 7.216 14.543h-3.375c0-.163-.307-.307-.307-.473-.417-10.76-9.463-14.126-19.173-13.18-2.935.326-5.716 1.213-8.325 2.524a8.31 8.31 0 0 0-4.826 8.325 8.31 8.31 0 0 0 5.55 7.826c4.239 1.555 8.739 2.553 13.125 3.772l10.597 2.772a12.52 12.52 0 0 1 8.602 11.295 13.35 13.35 0 0 1-7.187 13.875c-9.267 5.243-24.53 3.857-31.329-2.772a18.5 18.5 0 0 1-5.38-13.18zm93.845-20.784h-3.691c0-.499-.196-.978-.252-1.36a12.066 12.066 0 0 0-9.824-11.598 24.23 24.23 0 0 0-15.567.75 9.455 9.455 0 0 0-6.854 9.019 8.7 8.7 0 0 0 6.658 8.768l16.871 4.331a47 47 0 0 1 5.381 1.637c5.38 1.956 9.032 6.952 9.195 12.661a13.86 13.86 0 0 1-8.478 13.174 30.894 30.894 0 0 1-24.974.251 17.32 17.32 0 0 1-10.435-16.816h3.607a20.23 20.23 0 0 0 30.801 12.877 9.91 9.91 0 0 0 5.328-9.267 8.576 8.576 0 0 0-5.856-8.521c-4.331-1.611-8.935-2.468-13.347-3.913a98 98 0 0 1-13.512-4.855c-6.939-3.414-7.493-16.816.417-21.091a27.96 27.96 0 0 1 13.723-3.778 27.96 27.96 0 0 1 13.805 3.472 14.51 14.51 0 0 1 6.965 14.236zm-241.721 38.575a6.36 6.36 0 0 1-7.881-2.997l-14.348-19.841-2.08-2.772-16.65 22.643a6.1 6.1 0 0 1-7.493 2.941l21.449-28.776-19.955-26.002a6.636 6.636 0 0 1 7.907 2.772l14.869 20.086 14.957-20.008a5.965 5.965 0 0 1 7.438-2.775l-7.744 10.275-10.49 13.653a2.775 2.775 0 0 0-.684 3.2c.16.356.393.675.684.935l19.979 26.666zm91.073-55.081v3.913a20.12 20.12 0 0 0-19.98 12.564 20.1 20.1 0 0 0-1.443 8.22v30.524h-3.968v-54.976h3.912v11.266c4.8-8.217 12.209-11.266 21.505-11.488zm-190.885 25.92 1.748-8.631c4.799-17.067 24.364-24.169 37.824-13.598 7.882 6.189 9.848 14.958 9.463 24.838h-44.402c-.717 17.647 12.016 28.303 28.304 22.864 5.367-1.956 9.407-6.417 10.738-11.96.86-2.772 2.282-3.248 4.884-2.446a22.53 22.53 0 0 1-10.767 16.457 26.09 26.09 0 0 1-30.387-3.883 27.35 27.35 0 0 1-6.825-16.043c0-.979-.326-1.892-.554-2.772a361 361 0 0 1-.033-4.826zm4.689-1.193h40.153c-.251-12.792-8.325-21.867-19.092-21.952-11.987-.163-20.562 8.713-21.091 21.896z"/></g><defs><clipPath id="a"><path fill="#fff" d="M175.088 86.72H665.12v111.673H175.088z"/></clipPath><clipPath id="b"><path fill="#fff" d="M175.088 86.72h111.673v111.673H175.088z"/></clipPath></defs></svg>