<svg width="1077" height="366" viewBox="0 0 1077 366" fill="none" xmlns="http://www.w3.org/2000/svg"><path d="M182.962 1.34h710.711c100.496 0 181.967 81.469 181.967 181.965s-81.471 181.966-181.967 181.966H182.962C82.466 365.271.997 283.802.997 183.305.997 82.809 82.466 1.341 182.962 1.341" fill="#EAE7E0"/><path d="M182.962 1.34h710.711c100.496 0 181.967 81.469 181.967 181.965s-81.471 181.966-181.967 181.966H182.962C82.466 365.271.997 283.802.997 183.305.997 82.809 82.466 1.341 182.962 1.341Z" stroke="#1C222F" stroke-width="1.049"/><g clip-path="url(#a)" fill="#1C222F"><g clip-path="url(#b)"><path d="M291.807 112.644c-11.715.574-22.442 3.813-32.25 9.716-5.49 3.308-12.013 8.751-16.355 13.575-13.07 14.609-19.019 31.423-18.1 51.223.551 11.922 3.744 22.534 9.739 32.503 7.075 11.738 18.973 22.556 30.941 28.115 9.417 4.387 18.789 6.363 30.045 6.363 14.815 0 27.242-3.629 38.704-11.301 7.052-4.709 13.116-10.498 18.399-17.504 9.9-13.184 14.425-28.368 13.621-45.756-.459-9.808-2.503-18.123-6.523-26.461-5.123-10.635-12.611-19.663-22.442-26.99-10.658-7.994-23.544-12.725-36.361-13.392-5.192-.252-6.042-.275-9.418-.091m-16.952 43.826c3.79.942 7.098 2.918 9.992 5.95 4.272 4.479 6.638 10.198 7.511 18.008.138 1.24.253 2.848.253 3.629v1.379h-39.578l.138 2.572c.414 7.603 4.296 12.749 11.118 14.701 2.366.689 7.419.735 9.716.115 4.433-1.195 8.223-4.663 8.866-8.109l.138-.781h8.729l-.184.735c-1.309 6.065-5.145 10.957-10.819 13.828-3.974 1.999-10.198 2.872-15.619 2.206-5.513-.69-9.786-2.665-13.415-6.202-3.744-3.676-5.834-7.856-7.166-14.357-.667-3.353-.736-10.681-.115-13.575 1.539-7.098 5.329-13.116 10.474-16.607 2.802-1.907 6.661-3.446 9.808-3.928 2.297-.345 7.994-.115 10.153.436m39.325 8.867c3.583 5.237 6.592 9.532 6.707 9.532.092 0 3.193-4.249 6.891-9.44 3.698-5.192 6.822-9.487 6.96-9.533s2.618-.069 5.49-.046l5.237.069-9.119 12.174c-5.008 6.684-9.257 12.404-9.441 12.68-.322.482.161 1.194 10.084 15.045a4956 4956 0 0 1 10.612 14.816c.138.229-1.057.298-5.651.298l-5.811-.023-7.557-11.232c-4.135-6.202-7.603-11.255-7.695-11.255s-3.583 5.053-7.741 11.255l-7.557 11.232-5.444.023c-3.009 0-5.467-.046-5.467-.092 0-.069 4.594-6.546 10.222-14.425s10.175-14.425 10.129-14.563c-.068-.161-4.295-5.972-9.417-12.955-5.123-6.983-9.326-12.771-9.326-12.886s2.504-.207 5.697-.207h5.673z"/><path d="M265.963 163.62c-3.354.437-5.835 1.677-8.292 4.135-1.447 1.401-1.93 2.113-2.803 3.905-.987 2.044-1.768 4.755-1.768 6.064v.597h30.09v-.758c0-1.355-.873-4.249-1.837-6.11-2.228-4.295-6.271-7.144-11.118-7.81-1.929-.275-2.389-.275-4.272-.023"/></g><path d="M548.674 245.862v-96.345h5.226v15.155a20 20 0 0 0 1.706-2.136 25.9 25.9 0 0 1 23.621-14.658c11.915-.355 21.597 4.055 27.287 14.658a47.11 47.11 0 0 1 1.138 43.191c-5.302 11.881-18.396 17.789-32.414 15.619a26.215 26.215 0 0 1-20.92-13.805v38.317zm5.226-62.264 1.171 11.313c2.065 12.877 9.678 20.486 21.631 21.916a24.59 24.59 0 0 0 27.003-15.62 41.9 41.9 0 0 0-.92-34.441 24.08 24.08 0 0 0-25.368-14.018 23.46 23.46 0 0 0-20.954 17.325 120 120 0 0 0-2.563 13.521zm165.13 13.094a28.17 28.17 0 0 1-27.538 24.905c-21.915 1.103-32.2-13.45-33.835-30.244a48.46 48.46 0 0 1 4.269-26.685 29.76 29.76 0 0 1 30.987-16.614 28.464 28.464 0 0 1 25.26 21.668 146 146 0 0 1 2.455 16.012h-57.557c-1.066 15.227 7.116 27.468 18.713 30.419 14.445 3.554 26.79-2.704 31.272-16.438.995-3.525 2.81-4.022 6.012-3.023zm-56-15.832h51.481c-.322-16.222-10.422-28.011-24.123-28.145-15.468-.251-26.685 11.066-27.358 28.145m66.64 16.187h5.047a20.233 20.233 0 0 0 11.881 17.434 31.07 31.07 0 0 0 26.97-.711 12.12 12.12 0 0 0 7.116-11.919 11 11 0 0 0-7.4-10.995c-5.552-2.065-11.455-3.203-17.112-5.017a125.5 125.5 0 0 1-17.22-6.296c-9.114-4.449-9.679-21.773.639-27.259a36.33 36.33 0 0 1 34.725-.535 18.29 18.29 0 0 1 9.252 18.646h-4.327c0-.209-.393-.393-.393-.606-.535-13.796-12.132-18.111-24.582-16.898-3.763.418-7.329 1.555-10.674 3.236a10.66 10.66 0 0 0-6.187 10.673 10.666 10.666 0 0 0 7.115 10.034c5.435 1.994 11.205 3.273 16.828 4.837l13.587 3.553a16.056 16.056 0 0 1 11.029 14.482 17.11 17.11 0 0 1-9.214 17.789c-11.882 6.723-31.452 4.946-40.169-3.553a23.72 23.72 0 0 1-6.898-16.899zM849.992 170.4h-4.733c0-.64-.251-1.255-.322-1.744a15.465 15.465 0 0 0-12.596-14.871 31.07 31.07 0 0 0-19.959.962 12.12 12.12 0 0 0-8.788 11.564 11.16 11.16 0 0 0 8.537 11.242l21.631 5.552a60 60 0 0 1 6.899 2.098c6.898 2.509 11.58 8.914 11.789 16.234a17.77 17.77 0 0 1-10.87 16.89 39.58 39.58 0 0 1-32.02.322 22.195 22.195 0 0 1-13.378-21.56h4.624a25.936 25.936 0 0 0 39.491 16.51 12.7 12.7 0 0 0 6.831-11.882 10.995 10.995 0 0 0-7.508-10.924c-5.553-2.065-11.456-3.165-17.112-5.017a126 126 0 0 1-17.325-6.225c-8.897-4.377-9.608-21.56.535-27.041a35.83 35.83 0 0 1 35.294-.393 18.61 18.61 0 0 1 8.93 18.253zm-309.918 49.458a8.154 8.154 0 0 1-10.105-3.843l-18.395-25.439-2.667-3.554-21.347 29.031a7.82 7.82 0 0 1-9.607 3.771l27.501-36.895-25.586-33.337a8.506 8.506 0 0 1 10.138 3.554l19.064 25.753 19.177-25.653a7.653 7.653 0 0 1 9.536-3.558l-9.929 13.174-13.449 17.504a3.56 3.56 0 0 0-.877 4.103c.205.457.503.865.877 1.199l25.615 34.19zm116.768-70.621v5.017a25.795 25.795 0 0 0-27.467 26.648v39.135h-5.088V149.55h5.017v14.445c6.154-10.536 15.652-14.445 27.572-14.729zm-244.74 33.232 2.241-11.066c6.154-21.882 31.238-30.988 48.496-17.434 10.105 7.935 12.626 19.177 12.133 31.845h-56.929c-.92 22.626 15.406 36.289 36.289 29.315 6.881-2.508 12.061-8.228 13.767-15.335 1.104-3.553 2.926-4.164 6.263-3.135a28.9 28.9 0 0 1-13.805 21.1 33.45 33.45 0 0 1-38.96-4.979 35.06 35.06 0 0 1-8.751-20.57c0-1.254-.418-2.424-.71-3.553a467 467 0 0 1-.042-6.188zm6.012-1.53h51.482c-.322-16.401-10.674-28.036-24.479-28.145-15.368-.209-26.363 11.171-27.041 28.074z"/></g><defs><clipPath id="a"><path fill="#fff" d="M224.18 111.72h628.277v143.172H224.18z"/></clipPath><clipPath id="b"><path fill="#fff" d="M224.18 111.72h143.172v143.172H224.18z"/></clipPath></defs></svg>