<svg width="840" height="285" viewBox="0 0 840 285" fill="none" xmlns="http://www.w3.org/2000/svg"><path d="M142.836.63h554.32c78.384 0 141.927 63.542 141.927 141.926S775.54 284.483 697.156 284.483h-554.32C64.452 284.483.909 220.94.909 142.556S64.452.629 142.836.629" fill="#fff"/><path d="M142.836.63h554.32c78.384 0 141.927 63.542 141.927 141.926S775.54 284.483 697.156 284.483h-554.32C64.452 284.483.909 220.94.909 142.556S64.452.629 142.836.629Z" stroke="#ECE9E1" stroke-width=".818"/><g clip-path="url(#a)" fill="#1C222F"><g clip-path="url(#b)"><path d="M227.714 87.448c-9.137.448-17.504 2.974-25.154 7.578-4.282 2.58-9.371 6.826-12.757 10.589-10.194 11.395-14.835 24.509-14.118 39.953.43 9.299 2.921 17.576 7.597 25.352 5.518 9.155 14.799 17.594 24.133 21.93 7.346 3.422 14.656 4.963 23.435 4.963 11.556 0 21.249-2.831 30.189-8.815 5.5-3.673 10.23-8.188 14.351-13.653 7.722-10.284 11.251-22.126 10.624-35.689-.358-7.65-1.952-14.136-5.088-20.64-3.995-8.295-9.836-15.336-17.504-21.052-8.313-6.234-18.365-9.925-28.362-10.445-4.049-.197-4.712-.215-7.346-.071m-13.222 34.184c2.956.735 5.536 2.275 7.794 4.64 3.332 3.494 5.178 7.955 5.858 14.047.108.967.197 2.222.197 2.831v1.075h-30.87l.108 2.006c.322 5.931 3.35 9.944 8.672 11.467 1.845.537 5.787.573 7.578.089 3.458-.931 6.414-3.637 6.916-6.324l.107-.609h6.809l-.144.573c-1.021 4.73-4.013 8.546-8.438 10.786-3.1 1.558-7.955 2.239-12.183 1.72-4.3-.538-7.633-2.079-10.464-4.838-2.92-2.866-4.55-6.127-5.59-11.197-.519-2.616-.573-8.332-.089-10.589 1.2-5.536 4.156-10.23 8.17-12.954 2.186-1.487 5.195-2.687 7.65-3.063 1.792-.269 6.235-.09 7.919.34m30.673 6.916c2.795 4.085 5.142 7.435 5.232 7.435.071 0 2.49-3.314 5.374-7.364 2.885-4.049 5.322-7.399 5.429-7.435s2.043-.054 4.282-.036l4.085.054-7.113 9.496c-3.905 5.213-7.22 9.675-7.363 9.89-.251.376.125.931 7.865 11.735a3569 3569 0 0 1 8.277 11.556c.108.179-.824.233-4.407.233l-4.533-.018-5.894-8.761c-3.225-4.838-5.931-8.779-6.002-8.779-.072 0-2.795 3.941-6.038 8.779l-5.895 8.761-4.246.018c-2.347 0-4.264-.036-4.264-.072 0-.054 3.583-5.106 7.973-11.251 4.389-6.146 7.937-11.252 7.901-11.359-.054-.126-3.35-4.659-7.346-10.105s-7.274-9.962-7.274-10.051 1.953-.162 4.443-.162h4.426z"/><path d="M207.565 127.199c-2.616.34-4.551 1.308-6.468 3.225-1.129 1.093-1.505 1.648-2.186 3.046-.771 1.594-1.38 3.709-1.38 4.73v.466h23.472v-.591c0-1.058-.681-3.315-1.433-4.767-1.738-3.35-4.892-5.572-8.672-6.091-1.505-.215-1.864-.215-3.333-.018"/></g><path d="M428.077 191.483v-75.144h4.076v11.82q.723-.787 1.33-1.666a20.2 20.2 0 0 1 18.424-11.433c9.293-.277 16.845 3.163 21.283 11.433a36.74 36.74 0 0 1 .886 33.687c-4.134 9.267-14.347 13.874-25.28 12.182a20.44 20.44 0 0 1-16.317-10.767v29.885zm4.076-48.563.913 8.824c1.611 10.043 7.548 15.978 16.871 17.093a19.176 19.176 0 0 0 21.061-12.182 32.69 32.69 0 0 0-.717-26.862 18.78 18.78 0 0 0-19.786-10.934 18.29 18.29 0 0 0-16.343 13.513 93 93 0 0 0-1.999 10.545zm128.794 10.213a21.98 21.98 0 0 1-21.479 19.425c-17.093.86-25.114-10.49-26.389-23.589a37.8 37.8 0 0 1 3.329-20.813 23.216 23.216 0 0 1 24.169-12.959 22.21 22.21 0 0 1 19.701 16.901 114 114 0 0 1 1.914 12.489h-44.891c-.831 11.875 5.55 21.423 14.595 23.725 11.266 2.772 20.895-2.11 24.391-12.821.776-2.749 2.191-3.137 4.689-2.358zm-43.678-12.348h40.153c-.251-12.652-8.129-21.848-18.815-21.952-12.065-.196-20.813 8.631-21.338 21.952m51.976 12.625h3.936a15.78 15.78 0 0 0 9.267 13.598 24.228 24.228 0 0 0 21.035-.555 9.454 9.454 0 0 0 5.55-9.296 8.574 8.574 0 0 0-5.771-8.576c-4.331-1.611-8.935-2.498-13.347-3.913a98 98 0 0 1-13.431-4.911c-7.108-3.469-7.548-16.982.499-21.26a28.34 28.34 0 0 1 27.084-.417 14.265 14.265 0 0 1 7.216 14.543h-3.375c0-.163-.306-.307-.306-.473-.418-10.76-9.463-14.126-19.174-13.18-2.934.326-5.716 1.213-8.324 2.524a8.3 8.3 0 0 0-3.74 3.393 8.3 8.3 0 0 0-1.086 4.932 8.31 8.31 0 0 0 5.55 7.826c4.239 1.555 8.738 2.553 13.124 3.772l10.598 2.772a12.52 12.52 0 0 1 8.602 11.295 13.35 13.35 0 0 1-7.187 13.875c-9.267 5.243-24.531 3.857-31.33-2.772a18.5 18.5 0 0 1-5.38-13.18zm93.845-20.784h-3.691c0-.499-.196-.978-.251-1.36a12.066 12.066 0 0 0-9.825-11.598 24.23 24.23 0 0 0-15.567.75 9.46 9.46 0 0 0-6.854 9.019 8.71 8.71 0 0 0 6.659 8.768l16.871 4.331c1.824.437 3.621.984 5.38 1.637 5.38 1.956 9.033 6.952 9.196 12.661a13.86 13.86 0 0 1-8.478 13.174 30.895 30.895 0 0 1-24.975.251 17.311 17.311 0 0 1-10.434-16.816h3.606a20.229 20.229 0 0 0 30.801 12.877 9.917 9.917 0 0 0 5.329-9.267 8.58 8.58 0 0 0-5.857-8.521c-4.33-1.611-8.934-2.468-13.346-3.913a98 98 0 0 1-13.513-4.855c-6.939-3.414-7.493-16.816.418-21.091a27.95 27.95 0 0 1 13.723-3.778 27.95 27.95 0 0 1 13.804 3.472 14.504 14.504 0 0 1 6.965 14.236zm-241.721 38.575a6.36 6.36 0 0 1-7.881-2.997l-14.347-19.841-2.081-2.772-16.649 22.643a6.1 6.1 0 0 1-7.493 2.941l21.449-28.776-19.956-26.002a6.635 6.635 0 0 1 7.907 2.772l14.87 20.086 14.957-20.008a5.968 5.968 0 0 1 7.438-2.775l-7.745 10.275-10.49 13.653a2.761 2.761 0 0 0-.683 3.2c.159.356.392.675.683.935l19.979 26.666zm91.074-55.081v3.913a20.12 20.12 0 0 0-21.424 20.784v30.524h-3.968v-54.976h3.913v11.266c4.8-8.217 12.208-11.266 21.505-11.488zm-190.886 25.92 1.748-8.631c4.8-17.067 24.365-24.169 37.825-13.598 7.881 6.189 9.848 14.958 9.463 24.838h-44.402c-.718 17.647 12.016 28.303 28.303 22.864 5.368-1.956 9.408-6.417 10.738-11.96.861-2.772 2.283-3.248 4.885-2.446a22.53 22.53 0 0 1-10.767 16.457 26.088 26.088 0 0 1-30.387-3.883 27.34 27.34 0 0 1-6.825-16.043c0-.979-.326-1.892-.555-2.772a379 379 0 0 1-.032-4.826zm4.689-1.193h40.153c-.251-12.792-8.324-21.867-19.091-21.952-11.987-.163-20.563 8.713-21.091 21.896z"/></g><defs><clipPath id="a"><path fill="#fff" d="M174.98 86.72h490.032v111.673H174.98z"/></clipPath><clipPath id="b"><path fill="#fff" d="M174.98 86.72h111.673v111.673H174.98z"/></clipPath></defs></svg>