<svg width="1077" height="366" viewBox="0 0 1077 366" fill="none" xmlns="http://www.w3.org/2000/svg"><path d="M182.999.799H893.71c100.496 0 181.96 81.468 181.96 181.964 0 100.497-81.464 181.966-181.96 181.966H182.999c-100.496 0-181.965-81.469-181.965-181.966C1.034 82.267 82.503.799 183 .799" fill="#1C222F"/><path d="M182.999.799H893.71c100.496 0 181.96 81.468 181.96 181.964 0 100.497-81.464 181.966-181.96 181.966H182.999c-100.496 0-181.965-81.469-181.965-181.966C1.034 82.267 82.503.799 183 .799Z" stroke="#EAE7E0" stroke-width="1.049"/><g clip-path="url(#a)" fill="#fff"><g clip-path="url(#b)"><path d="M291.853 112.109c-11.715.574-22.442 3.813-32.25 9.716-5.49 3.308-12.014 8.752-16.355 13.575-13.07 14.609-19.019 31.423-18.1 51.224.551 11.921 3.744 22.533 9.739 32.502 7.075 11.738 18.973 22.557 30.941 28.115 9.417 4.388 18.789 6.363 30.044 6.363 14.816 0 27.243-3.629 38.705-11.301 7.052-4.709 13.116-10.497 18.399-17.503 9.9-13.185 14.425-28.368 13.621-45.757-.459-9.808-2.504-18.123-6.523-26.461-5.123-10.635-12.611-19.662-22.442-26.99-10.658-7.993-23.544-12.725-36.362-13.391-5.191-.253-6.041-.276-9.417-.092m-16.952 43.827c3.79.941 7.098 2.917 9.992 5.949 4.272 4.479 6.638 10.199 7.511 18.008.138 1.241.253 2.849.253 3.63v1.378h-39.578l.138 2.572c.414 7.604 4.296 12.749 11.118 14.701 2.366.689 7.419.735 9.716.115 4.433-1.194 8.223-4.663 8.866-8.108l.138-.781h8.729l-.184.735c-1.309 6.064-5.145 10.956-10.819 13.828-3.974 1.998-10.199 2.871-15.619 2.205-5.513-.689-9.786-2.665-13.415-6.202-3.744-3.675-5.834-7.856-7.167-14.356-.666-3.354-.735-10.681-.114-13.576 1.539-7.097 5.329-13.115 10.474-16.607 2.802-1.906 6.661-3.445 9.808-3.928 2.297-.344 7.994-.115 10.153.437m39.324 8.866c3.584 5.237 6.593 9.533 6.708 9.533.092 0 3.193-4.25 6.891-9.441s6.822-9.487 6.96-9.533 2.618-.069 5.489-.046l5.238.069-9.119 12.174c-5.008 6.685-9.257 12.404-9.441 12.68-.322.482.161 1.194 10.084 15.045a4956 4956 0 0 1 10.612 14.816c.138.23-1.057.299-5.651.299l-5.811-.023-7.557-11.233c-4.135-6.202-7.603-11.255-7.695-11.255s-3.584 5.053-7.741 11.255l-7.557 11.233-5.444.023c-3.009 0-5.467-.046-5.467-.092 0-.069 4.594-6.547 10.222-14.425s10.175-14.426 10.129-14.563c-.069-.161-4.295-5.973-9.417-12.956-5.123-6.982-9.326-12.771-9.326-12.886s2.504-.206 5.696-.206h5.674z"/><path d="M265.995 163.081c-3.354.436-5.834 1.677-8.292 4.134-1.447 1.402-1.93 2.114-2.802 3.905-.988 2.045-1.769 4.755-1.769 6.064v.598h30.091v-.758c0-1.356-.873-4.25-1.838-6.11-2.228-4.296-6.271-7.144-11.118-7.81-1.929-.276-2.388-.276-4.272-.023"/></g><path d="M548.709 245.32v-96.345h5.226v15.155a20 20 0 0 0 1.706-2.136 25.9 25.9 0 0 1 23.621-14.658c11.915-.355 21.598 4.055 27.288 14.658a47.12 47.12 0 0 1 1.137 43.191c-5.301 11.881-18.395 17.789-32.413 15.619a26.215 26.215 0 0 1-20.921-13.805v38.317zm5.226-62.264 1.171 11.313c2.065 12.877 9.678 20.486 21.631 21.916a24.59 24.59 0 0 0 27.003-15.62 41.9 41.9 0 0 0-.92-34.441 24.08 24.08 0 0 0-25.368-14.018 23.46 23.46 0 0 0-20.954 17.325 120 120 0 0 0-2.563 13.521zm165.131 13.094a28.18 28.18 0 0 1-27.539 24.905c-21.915 1.103-32.2-13.45-33.834-30.244a48.45 48.45 0 0 1 4.268-26.685 29.76 29.76 0 0 1 30.988-16.614 28.46 28.46 0 0 1 16.125 6.759 28.47 28.47 0 0 1 9.135 14.909 146 146 0 0 1 2.454 16.012h-57.556c-1.067 15.227 7.115 27.468 18.712 30.419 14.445 3.554 26.791-2.704 31.272-16.438.995-3.525 2.81-4.022 6.012-3.023zm-56.001-15.832h51.481c-.322-16.222-10.422-28.011-24.123-28.145-15.468-.251-26.685 11.066-27.358 28.145m66.641 16.188h5.046a20.233 20.233 0 0 0 11.881 17.433 31.07 31.07 0 0 0 26.97-.711 12.12 12.12 0 0 0 7.116-11.919 11 11 0 0 0-7.4-10.995c-5.552-2.065-11.455-3.203-17.112-5.017a125.5 125.5 0 0 1-17.22-6.296c-9.114-4.449-9.679-21.773.639-27.259a36.33 36.33 0 0 1 34.726-.535 18.29 18.29 0 0 1 9.252 18.646h-4.327c0-.209-.393-.393-.393-.606-.536-13.796-12.133-18.111-24.583-16.898-3.763.418-7.329 1.555-10.674 3.236a10.66 10.66 0 0 0-6.187 10.673 10.66 10.66 0 0 0 7.116 10.034c5.435 1.994 11.204 3.273 16.827 4.837l13.587 3.553a16.06 16.06 0 0 1 11.029 14.482 17.11 17.11 0 0 1-9.214 17.789c-11.882 6.723-31.452 4.946-40.169-3.553a23.72 23.72 0 0 1-6.898-16.899zm120.321-26.648h-4.733c0-.64-.25-1.255-.321-1.744a15.47 15.47 0 0 0-12.597-14.871 31.07 31.07 0 0 0-19.959.962 12.12 12.12 0 0 0-8.788 11.564 11.17 11.17 0 0 0 2.266 7.142 11.17 11.17 0 0 0 6.271 4.1l21.631 5.552a60 60 0 0 1 6.899 2.098c6.898 2.509 11.58 8.914 11.789 16.234a17.77 17.77 0 0 1-10.87 16.89 39.58 39.58 0 0 1-32.02.322 22.195 22.195 0 0 1-13.378-21.56h4.624a25.94 25.94 0 0 0 39.491 16.51 12.7 12.7 0 0 0 6.831-11.882 10.995 10.995 0 0 0-7.508-10.924c-5.552-2.065-11.456-3.165-17.112-5.017a126 126 0 0 1-17.325-6.225c-8.897-4.377-9.607-21.56.535-27.041a35.83 35.83 0 0 1 35.294-.393 18.6 18.6 0 0 1 8.93 18.253zm-309.918 49.458a8.15 8.15 0 0 1-10.104-3.843l-18.396-25.439-2.667-3.554-21.347 29.031a7.82 7.82 0 0 1-9.607 3.771l27.501-36.895-25.586-33.337a8.506 8.506 0 0 1 10.138 3.554l19.064 25.753 19.177-25.653a7.648 7.648 0 0 1 9.536-3.558l-9.929 13.174-13.449 17.504a3.56 3.56 0 0 0-.877 4.103c.205.457.503.865.877 1.199l25.615 34.19zm116.768-70.621v5.017a25.8 25.8 0 0 0-10.591 1.529 25.786 25.786 0 0 0-15.026 14.579 25.8 25.8 0 0 0-1.85 10.54v39.135h-5.088v-70.487h5.017v14.445c6.154-10.536 15.652-14.445 27.572-14.729zm-244.74 33.232 2.241-11.066c6.154-21.882 31.239-30.988 48.497-17.434 10.104 7.935 12.625 19.177 12.132 31.845h-56.929c-.92 22.626 15.406 36.289 36.289 29.315 6.881-2.508 12.061-8.228 13.767-15.335 1.104-3.553 2.926-4.164 6.263-3.135a28.9 28.9 0 0 1-13.805 21.1 33.45 33.45 0 0 1-38.96-4.979 35.06 35.06 0 0 1-8.751-20.57c0-1.254-.418-2.424-.71-3.553a467 467 0 0 1-.042-6.188zm6.012-1.53h51.482c-.322-16.401-10.674-28.036-24.479-28.145-15.368-.209-26.363 11.171-27.04 28.074z"/></g><defs><clipPath id="a"><path fill="#fff" d="M224.216 111.178h628.277V254.35H224.216z"/></clipPath><clipPath id="b"><path fill="#fff" d="M224.216 111.178h143.172V254.35H224.216z"/></clipPath></defs></svg>