<svg width="920" height="366" viewBox="0 0 920 366" fill="none" xmlns="http://www.w3.org/2000/svg"><path d="M182.665.692h554.133c100.496 0 181.965 81.469 181.965 181.965s-81.469 181.966-181.965 181.966H182.665C82.169 364.623.7 283.154.7 182.657.7 82.161 82.17.693 182.665.692" fill="#EAE7E0"/><path d="M182.665.692h554.133c100.496 0 181.965 81.469 181.965 181.965s-81.469 181.966-181.965 181.966H182.665C82.169 364.623.7 283.154.7 182.657.7 82.161 82.17.693 182.665.692Z" stroke="#1C222F" stroke-width="1.049"/><g clip-path="url(#a)"><g clip-path="url(#b)"><path d="M272.08 180.062c0-11.748 9.526-21.268 21.271-21.268h3.076c.084.003.176-.003.263-.003 13.178 0 23.864 10.688 23.864 23.864s-10.686 23.861-23.864 23.861l-.265-.003-3.074.003c-11.745 0-21.271-9.526-21.271-21.271z" fill="#00B6FF"/><path d="M223.882 230.382c0-13.178 10.685-23.866 23.864-23.866l24.347.002v23.618c0 13.316-10.915 24.105-24.23 24.105-13.175 0-23.981-10.683-23.981-23.859" fill="#24CB71"/><path d="M272.08 111.074v47.722h24.347c.084-.003.176.003.263.003 13.178 0 23.864-10.688 23.864-23.864 0-13.178-10.686-23.864-23.864-23.864l-.265.003z" fill="#FF7237"/><path d="M223.882 134.93c0 13.178 10.685 23.863 23.864 23.863h24.347v-47.722h-24.35c-13.176 0-23.861 10.683-23.861 23.859" fill="#FF3737"/><path d="M223.882 182.657c0 13.178 10.685 23.864 23.864 23.864h24.347v-47.723h-24.35c-13.176 0-23.861 10.683-23.861 23.859" fill="#874FFF"/></g><path d="M663.719 226.037q-6.815 0-12.237-2.545-5.283-2.549-8.481-6.836-3.063-4.421-3.06-10.186 0-7.504 5.005-12.196 5.006-4.692 14.322-6.432l16.27-3.215q4.865-.939 6.675-2.949 1.806-2.01 1.807-5.897l1.666 15.679-23.358 4.827q-4.726.934-7.369 3.349-2.503 2.416-2.503 6.699 0 4.423 3.477 7.106 3.614 2.676 9.731 2.679 5.007 0 9.179-2.144 4.307-2.142 6.674-5.897 2.503-3.888 2.503-8.846v-23.452q0-4.827-3.617-7.506-3.477-2.815-9.594-2.815-7.785 0-11.957 3.753t-4.867 10.587l-12.237-1.606q.696-7.105 4.451-12.195 3.755-5.228 10.01-8.045 6.257-2.811 14.879-2.811 12.234 0 18.77 6.029t6.536 15.548v47.304h-12.096v-8.708q-1.81 4.42-7.369 7.638-5.427 3.083-13.21 3.083m-122.364-2.01v-66.874h12.096v7.506q1.39-3.888 6.119-6.702 4.73-2.814 10.981-2.814 6.126 0 11.265 2.545 5.147 2.547 6.675 7.641 1.806-4.695 6.676-7.372 5.003-2.814 11.119-2.814 10.57 0 16.133 5.897 5.562 5.895 5.562 17.154v45.833h-12.377V179.8q0-6.699-3.057-10.048-2.925-3.487-8.622-3.487-6.258 0-9.734 4.288-3.339 4.16-3.339 12.196v41.278h-12.371V179.8q0-6.699-3.063-10.048-2.916-3.487-8.619-3.487-6.258 0-9.734 4.288-3.338 4.16-3.338 12.196v41.278zm-47.32 24.122q-12.931 0-20.997-5.763-8.065-5.763-10.291-16.08l12.098-2.548q1.531 6.567 6.537 10.186 5.004 3.753 12.653 3.753 9.174 0 13.765-4.558 4.725-4.419 4.726-13.266v-10.589q-2.083 4.956-7.786 8.044-5.562 3.081-12.513 3.081-9.179 0-16.129-4.02-6.952-4.16-10.846-11.525-3.893-7.373-3.893-17.022 0-9.783 3.891-17.154 3.895-7.373 10.707-11.391 6.954-4.154 16.27-4.154 6.954 0 12.653 3.08 5.836 2.949 7.924 7.372v-8.442h12.099v62.717q0 8.84-3.615 15.145-3.613 6.432-10.567 9.782-6.815 3.35-16.686 3.352m-.279-38.33q8.898 0 14.181-6.032 5.422-6.029 5.425-15.948 0-10.048-5.425-16.08t-14.181-6.032q-8.898 0-14.322 6.032-5.284 6.031-5.284 16.08 0 9.916 5.422 15.951 5.425 6.026 14.184 6.029m-57.372 14.208v-66.874h12.377v66.874zm-.138-75.451v-19.032h12.653v19.032zm-70.937 75.451v-94.483h13.069v94.483zm2.643-39.938v-11.391h53.252v11.393zm0-43.019v-11.526h58.398v11.526z" fill="#1C222F"/></g><defs><clipPath id="a"><path fill="#fff" d="M223.882 111.071H695.58v143.172H223.882z"/></clipPath><clipPath id="b"><path fill="#fff" d="M223.882 111.071h96.685v143.172h-96.685z"/></clipPath></defs></svg>