<svg width="920" height="366" viewBox="0 0 920 366" fill="none" xmlns="http://www.w3.org/2000/svg"><path d="M183.402.793h553.319c100.496 0 181.965 81.469 181.966 181.965 0 100.497-81.469 181.966-181.965 181.966H183.403c-100.496 0-181.965-81.469-181.965-181.966C1.438 82.262 82.906.794 183.402.793" fill="#1C222F"/><path d="M183.402.793h553.319c100.496 0 181.965 81.469 181.966 181.965 0 100.497-81.469 181.966-181.965 181.966H183.403c-100.496 0-181.965-81.469-181.965-181.966C1.438 82.262 82.906.794 183.402.793Z" stroke="#EAE7E0" stroke-width="1.049"/><g clip-path="url(#a)"><g clip-path="url(#b)"><path d="M272.827 180.163c0-11.748 9.526-21.268 21.271-21.268h3.076c.084.003.177-.003.263-.003 13.178 0 23.864 10.689 23.864 23.864s-10.686 23.861-23.864 23.861l-.265-.003-3.074.003c-11.745 0-21.271-9.526-21.271-21.271z" fill="#00B6FF"/><path d="M224.619 230.488c0-13.178 10.686-23.866 23.864-23.866l24.347.002v23.618c0 13.316-10.914 24.105-24.23 24.105-13.175 0-23.981-10.683-23.981-23.859" fill="#24CB71"/><path d="M272.827 111.175v47.722h24.347c.084-.002.177.003.263.003 13.178 0 23.864-10.688 23.864-23.864 0-13.178-10.686-23.864-23.864-23.864l-.265.003z" fill="#FF7237"/><path d="M224.619 135.033c0 13.178 10.686 23.864 23.864 23.864h24.347v-47.722h-24.35c-13.175 0-23.861 10.683-23.861 23.858" fill="#FF3737"/><path d="M224.619 182.755c0 13.178 10.686 23.864 23.864 23.864h24.347v-47.722h-24.35c-13.175 0-23.861 10.683-23.861 23.858" fill="#874FFF"/></g><path d="M662.99 226.28q-6.782 0-12.177-2.545-5.258-2.548-8.439-6.836-3.048-4.42-3.045-10.186 0-7.504 4.98-12.196t14.252-6.432l16.19-3.215q4.84-.939 6.642-2.949 1.798-2.01 1.798-5.897l1.658 15.679-23.243 4.827q-4.703.934-7.333 3.349-2.49 2.416-2.49 6.699 0 4.423 3.459 7.106 3.597 2.676 9.683 2.679 4.983 0 9.134-2.144 4.286-2.142 6.642-5.897 2.49-3.888 2.49-8.846v-23.452q0-4.827-3.599-7.506-3.46-2.814-9.546-2.814-7.749 0-11.899 3.753-4.152 3.753-4.843 10.586l-12.177-1.606q.693-7.106 4.429-12.195 3.736-5.228 9.96-8.045 6.227-2.811 14.807-2.811 12.174 0 18.677 6.029 6.504 6.03 6.504 15.548v47.305h-12.036v-8.709q-1.8 4.42-7.333 7.638-5.4 3.083-13.145 3.083m-121.763-2.01v-66.874h12.036v7.506q1.385-3.888 6.09-6.702t10.927-2.814q6.095 0 11.21 2.545 5.12 2.549 6.641 7.641 1.799-4.695 6.644-7.372 4.978-2.814 11.065-2.814 10.518 0 16.052 5.897 5.535 5.895 5.535 17.154v45.833h-12.316v-44.227q0-6.699-3.042-10.048-2.91-3.487-8.58-3.487-6.226 0-9.686 4.288-3.322 4.16-3.322 12.196v41.278h-12.31v-44.227q0-6.699-3.048-10.048-2.902-3.487-8.577-3.487-6.227 0-9.686 4.288-3.322 4.16-3.322 12.196v41.278zm-47.088 24.122q-12.868 0-20.893-5.763-8.025-5.762-10.24-16.08l12.039-2.548q1.522 6.568 6.504 10.186 4.98 3.753 12.59 3.753 9.129 0 13.698-4.557 4.703-4.42 4.703-13.267v-10.589q-2.073 4.956-7.748 8.044-5.535 3.081-12.451 3.081-9.134 0-16.05-4.02-6.918-4.159-10.793-11.525-3.873-7.373-3.873-17.022 0-9.783 3.871-17.154 3.876-7.371 10.655-11.391 6.918-4.154 16.19-4.154 6.919 0 12.591 3.08 5.806 2.949 7.885 7.372v-8.442h12.039v62.718q0 8.84-3.597 15.144-3.596 6.432-10.515 9.782-6.781 3.35-16.605 3.352m-.277-38.33q8.854 0 14.112-6.031 5.395-6.03 5.398-15.949 0-10.049-5.398-16.08-5.398-6.032-14.112-6.032-8.854 0-14.252 6.032-5.257 6.031-5.257 16.08 0 9.916 5.395 15.951 5.399 6.027 14.114 6.029m-57.09 14.208v-66.874h12.317v66.874zm-.137-75.451v-19.032h12.591v19.032zm-70.589 75.451v-94.483h13.005v94.483zm2.63-39.938v-11.391h52.991v11.393zm0-43.019v-11.526h58.111v11.526z" fill="#fff"/></g><defs><clipPath id="a"><path fill="#fff" d="M224.619 111.172h470.885v143.172H224.619z"/></clipPath><clipPath id="b"><path fill="#fff" d="M224.619 111.172h96.685v143.172h-96.685z"/></clipPath></defs></svg>