<svg width="718" height="286" viewBox="0 0 718 286" fill="none" xmlns="http://www.w3.org/2000/svg"><path d="M142.336 1.389h432.579c78.384 0 141.927 63.542 141.927 141.926s-63.543 141.927-141.927 141.927H142.336C63.952 285.242.409 221.699.409 143.315S63.952 1.389 142.336 1.389" fill="#fff"/><path d="M142.336 1.389h432.579c78.384 0 141.927 63.542 141.927 141.926s-63.543 141.927-141.927 141.927H142.336C63.952 285.242.409 221.699.409 143.315S63.952 1.389 142.336 1.389Z" stroke="#ECE9E1" stroke-width=".818"/><g clip-path="url(#a)"><g clip-path="url(#b)"><path d="M212.098 141.285c0-9.163 7.43-16.589 16.592-16.589h2.4c.065.002.137-.003.204-.003 10.28 0 18.615 8.338 18.615 18.615 0 10.278-8.335 18.613-18.615 18.613l-.207-.002-2.397.002c-9.162 0-16.592-7.431-16.592-16.592z" fill="#00B6FF"/><path d="M174.48 180.54c0-10.279 8.336-18.617 18.615-18.617l18.992.003v18.423c0 10.386-8.514 18.802-18.9 18.802-10.278 0-18.707-8.333-18.707-18.611" fill="#24CB71"/><path d="M212.098 87.481v37.225h18.992c.065-.002.137.003.204.003 10.28 0 18.615-8.338 18.615-18.615 0-10.28-8.335-18.615-18.615-18.615l-.207.002z" fill="#FF7237"/><path d="M174.48 106.089c0 10.28 8.336 18.615 18.615 18.615h18.992V87.479h-18.994c-10.277 0-18.613 8.333-18.613 18.61" fill="#FF3737"/><path d="M174.48 143.304c0 10.279 8.336 18.615 18.615 18.615h18.992v-37.226h-18.994c-10.277 0-18.613 8.333-18.613 18.611" fill="#874FFF"/></g><path d="M506.931 179.482q-5.076 0-9.114-1.905-3.935-1.907-6.317-5.117-2.281-3.309-2.279-7.624 0-5.616 3.728-9.128t10.667-4.815l12.119-2.407q3.622-.702 4.971-2.207 1.346-1.504 1.346-4.414l1.241 11.736-17.398 3.613q-3.52.698-5.489 2.507-1.863 1.809-1.864 5.014 0 3.31 2.59 5.319 2.691 2.003 7.248 2.005 3.729 0 6.837-1.605 3.207-1.602 4.971-4.414 1.863-2.91 1.864-6.621v-17.554q0-3.612-2.694-5.618-2.59-2.106-7.146-2.107-5.8 0-8.906 2.81t-3.625 7.924l-9.114-1.203q.517-5.318 3.315-9.128 2.796-3.912 7.455-6.021 4.661-2.104 11.083-2.104 9.113 0 13.98 4.512 4.869 4.513 4.868 11.638v35.408h-9.009v-6.519q-1.347 3.31-5.489 5.717-4.041 2.308-9.839 2.308m-91.139-1.504v-50.056h9.009v5.618q1.036-2.91 4.558-5.016t8.179-2.106q4.562 0 8.39 1.905 3.833 1.906 4.971 5.719 1.346-3.514 4.973-5.518 3.726-2.106 8.282-2.106 7.873 0 12.016 4.414 4.143 4.412 4.143 12.839v34.307h-9.219v-33.104q0-5.014-2.277-7.522-2.178-2.61-6.422-2.609-4.66 0-7.25 3.209-2.487 3.114-2.487 9.129v30.897h-9.214v-33.104q0-5.014-2.281-7.522-2.172-2.61-6.42-2.609-4.66 0-7.25 3.209-2.487 3.114-2.487 9.129v30.897zm-35.246 18.055q-9.632 0-15.638-4.313-6.007-4.314-7.666-12.037l9.012-1.907q1.14 4.916 4.868 7.624 3.728 2.81 9.424 2.81 6.833 0 10.253-3.412 3.52-3.308 3.52-9.929v-7.927q-1.552 3.71-5.799 6.022-4.143 2.305-9.32 2.305-6.837 0-12.013-3.008-5.18-3.113-8.079-8.627-2.9-5.518-2.899-12.741 0-7.322 2.897-12.84 2.902-5.517 7.976-8.526 5.178-3.11 12.118-3.109 5.18 0 9.424 2.305 4.347 2.208 5.902 5.518v-6.319h9.012v46.944q0 6.618-2.692 11.336-2.693 4.815-7.871 7.322-5.076 2.508-12.429 2.509m-.207-28.69q6.627 0 10.562-4.515 4.038-4.512 4.041-11.937 0-7.522-4.041-12.036-4.04-4.515-10.562-4.515-6.628 0-10.668 4.515-3.935 4.514-3.935 12.036 0 7.422 4.038 11.939 4.04 4.511 10.565 4.513m-42.732 10.635v-50.056h9.219v50.056zm-.103-56.476v-14.245h9.424v14.245zm-52.836 56.476v-70.721h9.735v70.721zm1.969-29.894v-8.527H326.3v8.529zm0-32.2v-8.627h43.496v8.627z" fill="#1C222F"/></g><defs><clipPath id="a"><path fill="#fff" d="M174.48 87.479h368.29v111.673H174.48z"/></clipPath><clipPath id="b"><path fill="#fff" d="M174.48 87.479h75.413v111.673H174.48z"/></clipPath></defs></svg>