<svg width="714" height="266" viewBox="0 0 714 266" fill="none" xmlns="http://www.w3.org/2000/svg"><rect width="714" height="266" rx="133" fill="#202020"/><path d="M241.791 101.059q1.087 0 1.54.453t.453 1.541v9.969q0 1.088-.453 1.631-.453.454-1.54.454h-29.455v12.416h26.283q1.087 0 1.54.544.453.453.453 1.54v9.245q0 1.087-.453 1.631-.453.453-1.54.453h-26.283v21.48q0 2.084-2.085 2.084h-12.688q-1.088 0-1.541-.453-.453-.544-.453-1.631v-59.363q0-1.088.453-1.541t1.541-.453zm38.667 13.322v36.706h11.51q1.087 0 1.541.544.453.453.453 1.54v9.245q0 1.087-.453 1.631-.454.453-1.541.453h-39.696q-1.088 0-1.541-.453-.453-.544-.453-1.631v-9.245q0-1.087.453-1.54.453-.544 1.541-.544h11.419v-36.706h-11.419q-1.088 0-1.541-.453t-.453-1.54v-9.335q0-1.088.453-1.541t1.541-.453h39.696q1.087 0 1.541.453t.453 1.541v9.335q0 1.087-.453 1.54-.454.453-1.541.453zm38.416 50.572q-8.339 0-12.326-3.897-3.897-3.987-3.897-12.326v-31.992q0-8.338 3.897-12.235 3.987-3.897 12.326-3.897h27.823q8.338 0 12.235 3.897 3.988 3.897 3.988 12.235v4.26q0 1.087-.544 1.54-.453.453-1.541.453h-12.96q-1.087 0-1.631-.453-.453-.453-.453-1.54v-2.085q0-2.719-1.178-3.806-1.088-1.179-3.807-1.179h-16.404q-2.719 0-3.897 1.179-1.088 1.087-1.088 3.806v27.642q0 2.72 1.088 3.897 1.178 1.088 3.897 1.088h17.22q2.718 0 3.806-1.088 1.179-1.178 1.179-3.897v-4.531h-13.504q-1.088 0-1.541-.453-.453-.454-.453-1.541v-7.976q0-1.087.453-1.54t1.541-.453h28.186q1.087 0 1.54.453.544.453.544 1.54v16.676q0 8.339-3.988 12.326-3.897 3.897-12.235 3.897zm58.965-.453q-1.087 0-1.54-.453-.454-.544-.454-1.631v-59.363q0-1.088.454-1.541.453-.453 1.54-.453h18.217q.997 0 1.45.362.544.363 1.088 1.45l14.682 24.924h.725l14.682-24.924q.634-1.087 1.087-1.45.544-.362 1.541-.362h18.126q1.088 0 1.541.453.543.453.544 1.541v59.363q0 2.084-2.085 2.084h-12.326q-2.084 0-2.084-2.084v-39.153h-.725l-13.051 21.48q-.635 1.087-1.178 1.45-.454.362-1.45.362h-9.879q-.996 0-1.541-.362-.543-.363-1.178-1.45l-12.96-21.48h-.816v39.153q0 1.087-.453 1.631-.453.453-1.54.453zm144.779-2.628q.091.362.091.997 0 1.63-1.813 1.631h-11.691q-1.994 0-2.356-1.631l-2.448-9.517h-25.829l-2.447 9.517q-.272.906-.906 1.268-.545.363-1.541.363h-11.691q-1.813 0-1.813-1.631 0-.635.091-.997l15.225-59.182q.545-1.63 2.447-1.631h27.008q1.904 0 2.447 1.631zM495.61 115.65h-8.338l-4.259 17.039-1.813 6.888h20.573l-1.812-6.888z" fill="#EAE7E0"/></svg>