<svg width="718" height="286" viewBox="0 0 718 286" fill="none" xmlns="http://www.w3.org/2000/svg"><path d="M142.443 1.389h432.579c78.384 0 141.927 63.542 141.927 141.926s-63.543 141.927-141.927 141.927H142.443C64.059 285.242.517 221.699.517 143.315S64.059 1.389 142.443 1.389" fill="#EAE7E0"/><path d="M142.443 1.389h432.579c78.384 0 141.927 63.542 141.927 141.926s-63.543 141.927-141.927 141.927H142.443C64.059 285.242.517 221.699.517 143.315S64.059 1.389 142.443 1.389Z" stroke="#1C222F" stroke-width=".818"/><g clip-path="url(#a)"><g clip-path="url(#b)"><path d="M212.205 141.285c0-9.163 7.431-16.589 16.592-16.589h2.4c.065.002.137-.003.205-.003 10.279 0 18.615 8.338 18.615 18.615 0 10.278-8.336 18.613-18.615 18.613l-.207-.002-2.398.002c-9.161 0-16.592-7.431-16.592-16.592z" fill="#00B6FF"/><path d="M174.588 180.54c0-10.279 8.335-18.617 18.615-18.617l18.992.003v18.423c0 10.386-8.514 18.802-18.901 18.802-10.277 0-18.706-8.333-18.706-18.611" fill="#24CB71"/><path d="M212.205 87.481v37.225h18.992c.065-.002.137.003.205.003 10.279 0 18.615-8.338 18.615-18.615 0-10.28-8.336-18.615-18.615-18.615l-.207.002z" fill="#FF7237"/><path d="M174.588 106.089c0 10.28 8.335 18.615 18.615 18.615h18.992V87.479h-18.994c-10.278 0-18.613 8.333-18.613 18.61" fill="#FF3737"/><path d="M174.588 143.304c0 10.279 8.335 18.615 18.615 18.615h18.992v-37.226h-18.994c-10.278 0-18.613 8.333-18.613 18.611" fill="#874FFF"/></g><path stroke="#000" stroke-width=".445" d="M285.119 107.954h257.536v70.722H285.119z"/><path d="M507.04 179.482q-5.076 0-9.114-1.905-3.935-1.907-6.317-5.117-2.28-3.309-2.279-7.624 0-5.616 3.728-9.128 3.727-3.513 10.668-4.815l12.118-2.407q3.622-.702 4.971-2.207 1.346-1.504 1.346-4.414l1.241 11.736-17.397 3.613q-3.52.698-5.489 2.507-1.864 1.809-1.864 5.014 0 3.31 2.589 5.319 2.692 2.003 7.248 2.005 3.73 0 6.837-1.605 3.208-1.602 4.971-4.414 1.864-2.91 1.864-6.621v-17.554q0-3.612-2.694-5.618-2.59-2.106-7.145-2.107-5.799 0-8.907 2.81-3.106 2.809-3.625 7.924l-9.114-1.203q.519-5.318 3.315-9.128 2.797-3.912 7.456-6.021 4.66-2.104 11.082-2.104 9.112 0 13.98 4.512 4.869 4.513 4.869 11.638v35.408h-9.009v-6.519q-1.349 3.31-5.489 5.717-4.043 2.308-9.84 2.308m-91.139-1.504v-50.056h9.009v5.618q1.036-2.91 4.558-5.016t8.179-2.106q4.561 0 8.391 1.905 3.832 1.906 4.971 5.719 1.346-3.514 4.973-5.518 3.726-2.106 8.281-2.106 7.873 0 12.016 4.414 4.143 4.412 4.143 12.839v34.307h-9.219v-33.104q0-5.014-2.277-7.522-2.178-2.61-6.422-2.609-4.66 0-7.25 3.209-2.486 3.114-2.486 9.129v30.897h-9.215v-33.104q0-5.014-2.281-7.522-2.172-2.61-6.42-2.609-4.66 0-7.25 3.209-2.486 3.114-2.486 9.129v30.897zm-35.245 18.055q-9.632 0-15.639-4.313-6.007-4.314-7.665-12.037l9.011-1.907q1.14 4.916 4.868 7.624 3.728 2.81 9.425 2.81 6.832 0 10.252-3.412 3.52-3.308 3.52-9.929v-7.927q-1.551 3.71-5.799 6.022-4.143 2.305-9.319 2.305-6.837 0-12.014-3.008-5.178-3.113-8.078-8.627-2.9-5.518-2.9-12.741 0-7.322 2.898-12.84 2.902-5.517 7.975-8.526 5.179-3.11 12.119-3.109 5.178 0 9.424 2.305 4.346 2.208 5.902 5.518v-6.319h9.011v46.944q0 6.618-2.692 11.336-2.692 4.815-7.871 7.322-5.076 2.508-12.428 2.509m-.208-28.69q6.627 0 10.563-4.515 4.038-4.512 4.04-11.937 0-7.522-4.04-12.036-4.041-4.515-10.563-4.515-6.627 0-10.667 4.515-3.936 4.514-3.936 12.036 0 7.422 4.038 11.939 4.042 4.511 10.565 4.513m-42.732 10.635v-50.056h9.219v50.056zm-.102-56.476v-14.245h9.424v14.245zm-52.837 56.476v-70.721h9.735v70.721zm1.969-29.894v-8.527h39.664v8.529zm0-32.2v-8.627h43.496v8.627z" fill="#1C222F"/></g><defs><clipPath id="a"><path fill="#fff" d="M174.588 87.479h368.29v111.673h-368.29z"/></clipPath><clipPath id="b"><path fill="#fff" d="M174.588 87.479h75.413v111.673h-75.413z"/></clipPath></defs></svg>