<svg width="366" height="366" viewBox="0 0 366 366" fill="none" xmlns="http://www.w3.org/2000/svg"><path d="M182.632 1.34c100.496 0 181.965 81.47 181.965 181.965 0 100.497-81.469 181.965-181.965 181.965S.667 283.802.667 183.305C.667 82.809 82.135 1.341 182.632 1.341" fill="#1C222F"/><path d="M182.632 1.34c100.496 0 181.965 81.47 181.965 181.965 0 100.497-81.469 181.965-181.965 181.965S.667 283.802.667 183.305C.667 82.809 82.135 1.341 182.632 1.341Z" stroke="#EAE7E0" stroke-width="1.049"/><path d="m153.617 141.344-47.025 83.923h-42.84l36.715-65.527c5.698-10.164 19.901-18.396 31.731-18.396zm105.056 20.979c0-11.585 9.59-20.979 21.42-20.979 11.829 0 21.419 9.394 21.419 20.979 0 11.592-9.59 20.986-21.419 20.986s-21.42-9.394-21.42-20.986m-97.027-20.979h42.84l-47.026 83.923h-42.839zm50.603 0h42.84l-36.722 65.534c-5.691 10.157-19.894 18.389-31.724 18.389h-21.42z" fill="#FFEB0E"/></svg>