<svg width="286" height="286" viewBox="0 0 286 286" fill="none" xmlns="http://www.w3.org/2000/svg"><path d="M142.759 1.276c78.382 0 141.924 63.542 141.924 141.924s-63.542 141.924-141.924 141.924S.835 221.582.835 143.2 64.376 1.276 142.759 1.276" fill="#fff"/><path d="M142.759 1.276c78.382 0 141.924 63.542 141.924 141.924s-63.542 141.924-141.924 141.924S.835 221.582.835 143.2 64.376 1.276 142.759 1.276Z" stroke="#ECE9E1" stroke-width=".818"/><path d="m120.13 110.472-36.678 65.456H50.039l28.636-51.108c4.444-7.927 15.522-14.348 24.748-14.348zm81.938 16.363c0-9.036 7.48-16.363 16.706-16.363 9.227 0 16.707 7.327 16.707 16.363 0 9.041-7.48 16.368-16.707 16.368s-16.706-7.327-16.706-16.368m-75.676-16.363h33.413l-36.678 65.456H89.714zm39.468 0h33.412l-28.641 51.113c-4.438 7.922-15.516 14.343-24.743 14.343h-16.706z" fill="#1C222F"/></svg>