<svg width="285" height="285" viewBox="0 0 285 285" fill="none" xmlns="http://www.w3.org/2000/svg"><rect x=".577" y=".409" width="283.848" height="283.848" rx="141.924" fill="#fff"/><rect x=".577" y=".409" width="283.848" height="283.848" rx="141.924" stroke="#ECE9E1" stroke-width=".818"/><path d="m119.872 109.605-36.678 65.456H49.781l28.636-51.108c4.444-7.927 15.522-14.348 24.748-14.348zm81.938 16.363c0-9.036 7.48-16.363 16.706-16.363 9.227 0 16.707 7.327 16.707 16.363 0 9.041-7.48 16.368-16.707 16.368s-16.706-7.327-16.706-16.368m-75.676-16.363h33.413l-36.678 65.456H89.456zm39.468 0h33.413l-28.642 51.113c-4.438 7.922-15.516 14.343-24.743 14.343h-16.706z" fill="#1C222F"/></svg>