<svg width="366" height="366" viewBox="0 0 366 366" fill="none" xmlns="http://www.w3.org/2000/svg"><path d="M183.399.835c100.497 0 181.965 81.469 181.965 181.965s-81.468 181.965-181.965 181.965C82.903 364.765 1.435 283.296 1.435 182.8S82.903.835 183.399.835" fill="#EAE7E0"/><path d="M183.399.835c100.497 0 181.965 81.469 181.965 181.965s-81.468 181.965-181.965 181.965C82.903 364.765 1.435 283.296 1.435 182.8S82.903.835 183.399.835Z" stroke="#1C222F" stroke-width="1.049"/><path d="m154.385 140.839-47.026 83.922h-42.84l36.715-65.526c5.698-10.164 19.901-18.396 31.731-18.396zm105.055 20.979c0-11.585 9.59-20.979 21.42-20.979s21.42 9.394 21.42 20.979c0 11.592-9.59 20.986-21.42 20.986s-21.42-9.394-21.42-20.986m-97.026-20.979h42.84l-47.026 83.922h-42.84zm50.603 0h42.839l-36.721 65.533c-5.691 10.157-19.894 18.389-31.724 18.389h-21.42z" fill="#1C222F"/></svg>