<svg width="286" height="286" viewBox="0 0 286 286" fill="none" xmlns="http://www.w3.org/2000/svg"><path d="M142.866 1.276c78.383 0 141.924 63.542 141.924 141.924s-63.541 141.924-141.924 141.924C64.484 285.124.942 221.582.942 143.2S64.484 1.276 142.866 1.276" fill="#EAE7E0"/><path d="M142.866 1.276c78.383 0 141.924 63.542 141.924 141.924s-63.541 141.924-141.924 141.924C64.484 285.124.942 221.582.942 143.2S64.484 1.276 142.866 1.276Z" stroke="#1C222F" stroke-width=".818"/><path d="m120.235 110.472-36.678 65.456H50.145L78.78 124.82c4.444-7.927 15.522-14.348 24.749-14.348zm81.938 16.363c0-9.036 7.48-16.363 16.707-16.363s16.706 7.327 16.706 16.363c0 9.041-7.479 16.368-16.706 16.368s-16.707-7.327-16.707-16.368m-75.676-16.363h33.413l-36.677 65.456H89.82zm39.468 0h33.413l-28.641 51.113c-4.439 7.922-15.517 14.343-24.743 14.343h-16.707z" fill="#1C222F"/></svg>