<svg width="542" height="264" viewBox="0 0 542 264" fill="none" xmlns="http://www.w3.org/2000/svg"><rect width="542" height="264" rx="132" fill="#EAE7E0"/><path d="M202.839 163.953q-8.338 0-12.326-3.897-3.897-3.987-3.897-12.326v-31.992q0-8.338 3.897-12.235 3.988-3.897 12.326-3.897h27.823q8.338 0 12.235 3.897 3.988 3.897 3.988 12.235v4.26q0 1.087-.544 1.54-.453.453-1.54.453H231.84q-1.087 0-1.631-.453-.453-.453-.453-1.54v-2.085q0-2.719-1.178-3.806-1.088-1.179-3.807-1.179h-16.404q-2.718 0-3.897 1.179-1.087 1.087-1.087 3.806v27.642q0 2.72 1.087 3.897 1.179 1.088 3.897 1.088h17.22q2.719 0 3.806-1.088 1.179-1.178 1.179-3.897v-4.531h-13.504q-1.088 0-1.541-.453-.453-.454-.453-1.541v-7.976q0-1.087.453-1.54t1.541-.453h28.186q1.087 0 1.54.453.544.453.544 1.54v16.676q0 8.339-3.987 12.326-3.898 3.897-12.236 3.897zm82.572-50.572v36.706h11.51q1.087 0 1.54.544.454.453.454 1.54v9.245q0 1.087-.454 1.631-.453.453-1.54.453h-39.696q-1.088 0-1.541-.453-.453-.544-.453-1.631v-9.245q0-1.087.453-1.54.453-.544 1.541-.544h11.419v-36.706h-11.419q-1.088 0-1.541-.453t-.453-1.54v-9.335q0-1.088.453-1.541t1.541-.453h39.696q1.087 0 1.54.453t.454 1.541v9.335q0 1.087-.454 1.54-.453.453-1.54.453zm73.991-13.322q1.087 0 1.54.453.544.453.544 1.541v10.875q0 2.085-2.084 2.085h-18.761v46.403q0 2.084-2.084 2.084h-12.688q-1.088 0-1.541-.453-.453-.544-.453-1.631v-46.403h-18.851q-1.088 0-1.541-.453-.453-.544-.453-1.632v-10.875q0-1.088.453-1.541t1.541-.453z" fill="#202020"/></svg>