<svg width="1033" height="366" viewBox="0 0 1033 366" fill="none" xmlns="http://www.w3.org/2000/svg"><path d="M182.817 1.394h666.895c100.496 0 181.968 81.468 181.968 181.964 0 100.497-81.472 181.966-181.968 181.966H182.817C82.321 365.324.853 283.855.853 183.358.853 82.862 82.32 1.394 182.817 1.394" fill="#1C222F"/><path d="M182.817 1.394h666.895c100.496 0 181.968 81.468 181.968 181.964 0 100.497-81.472 181.966-181.968 181.966H182.817C82.321 365.324.853 283.855.853 183.358.853 82.862 82.32 1.394 182.817 1.394Z" stroke="#EAE7E0" stroke-width="1.049"/><g clip-path="url(#a)" fill="#fff"><path d="M297.37 111.772c-40.565 0-73.336 32.771-73.336 73.336 0 32.453 20.999 59.974 50.11 69.677 3.659.637 5.091-1.59 5.091-3.499 0-1.75-.159-7.477-.159-13.681-18.453 3.341-23.226-4.454-24.658-8.59-.795-2.069-4.454-8.591-7.476-10.341-2.546-1.431-6.204-4.772-.159-4.931 5.727-.159 9.863 5.249 11.294 7.477 6.682 11.135 17.181 7.954 21.317 6.045.636-4.773 2.545-7.954 4.613-9.863-16.385-1.909-33.406-8.113-33.406-36.271 0-7.954 2.863-14.635 7.476-19.726-.795-1.909-3.34-9.385.796-19.407 0 0 6.204-1.909 20.203 7.476 5.886-1.59 12.09-2.545 18.294-2.545s12.408.796 18.294 2.545c13.999-9.544 20.204-7.476 20.204-7.476 3.977 10.022 1.431 17.658.795 19.407 4.613 5.091 7.477 11.613 7.477 19.726 0 28.158-17.181 34.362-33.566 36.271 2.704 2.227 4.931 6.681 4.931 13.521 0 9.863-.159 17.658-.159 20.204 0 1.909 1.432 4.295 5.091 3.499 28.952-9.703 49.951-37.224 49.951-69.677.477-40.406-32.452-73.177-73.018-73.177M576.557 218.52h-.159zm0 0c-.795 0-2.863.477-5.09.477-7 0-9.386-3.181-9.386-7.317v-27.839h14.158c.796 0 1.432-.637 1.432-1.75v-15.113c0-.795-.636-1.432-1.432-1.432h-14.158v-18.612c0-.636-.477-1.114-1.273-1.114h-19.089c-.796 0-1.273.478-1.273 1.114v19.249s-9.704 2.386-10.34 2.545-1.114.795-1.114 1.432v12.09c0 .954.637 1.75 1.432 1.75h9.863v29.111c0 21.635 15.113 23.862 25.453 23.862 4.772 0 10.34-1.431 11.295-1.909.477-.159.795-.795.795-1.431V220.27c.159-.955-.477-1.591-1.273-1.75m210.304-19.408c0-16.067-6.522-18.135-13.363-17.499-5.249.319-9.544 3.023-9.544 3.023v31.18s4.295 3.022 10.817 3.181c9.227.318 12.09-3.022 12.09-19.885m21.635-1.431c0 30.384-9.863 39.133-27.044 39.133-14.476 0-22.43-7.317-22.43-7.317s-.318 4.136-.795 4.613c-.318.477-.637.636-1.273.636h-13.203c-.955 0-1.75-.636-1.75-1.432l.159-98.629c0-.796.636-1.432 1.431-1.432h18.931c.795 0 1.432.636 1.432 1.432l-.159 33.248s7.317-4.773 17.976-4.773h.159c10.817 0 26.566 3.977 26.566 34.521m-77.472-32.135h-18.612c-.955 0-1.432.637-1.432 1.75v48.202s-4.931 3.499-11.613 3.499-8.59-3.022-8.59-9.704v-42.156c0-.795-.636-1.432-1.432-1.432h-18.93c-.796 0-1.432.637-1.432 1.432v45.338c0 19.567 10.976 24.339 25.93 24.339 12.408 0 22.43-6.84 22.43-6.84s.477 3.5.637 3.977c.159.477.795.795 1.431.795h11.931c.955 0 1.432-.636 1.432-1.432l.159-66.336c-.159-.636-.954-1.432-1.909-1.432m-210.304 0h-18.93c-.796 0-1.432.796-1.432 1.75v65.064c0 1.75 1.113 2.386 2.704 2.386h17.022c1.75 0 2.227-.795 2.227-2.386v-65.382c0-.795-.795-1.432-1.591-1.432m-9.226-30.066c-6.841 0-12.25 5.409-12.25 12.249s5.409 12.25 12.25 12.25c6.681 0 12.09-5.409 12.09-12.25 0-6.84-5.409-12.249-12.09-12.249m146.353-2.227h-18.771c-.796 0-1.432.636-1.432 1.432v36.27h-29.43v-36.111c0-.795-.636-1.432-1.431-1.432h-18.931c-.795 0-1.432.637-1.432 1.432v98.63c0 .795.796 1.431 1.432 1.431h18.931c.795 0 1.431-.636 1.431-1.431v-42.316h29.43l-.159 42.156c0 .796.636 1.432 1.432 1.432h18.93c.796 0 1.432-.636 1.432-1.432v-98.629c0-.636-.636-1.432-1.432-1.432M490.336 177v50.906c0 .318-.159.954-.477 1.113 0 0-11.136 7.954-29.43 7.954-22.112 0-48.201-6.999-48.201-52.496 0-45.656 22.907-55.042 45.178-54.883 19.408 0 27.203 4.295 28.317 5.091.318.477.477.795.477 1.272l-3.659 15.749c0 .796-.795 1.75-1.75 1.432-3.182-.954-7.954-2.863-19.249-2.863-13.044 0-27.043 3.659-27.043 33.088s13.362 32.771 22.907 32.771c8.113 0 11.136-.955 11.136-.955v-20.362h-13.045c-.954 0-1.75-.636-1.75-1.432V177c0-.795.637-1.432 1.75-1.432h33.248c.955-.159 1.591.637 1.591 1.432"/></g><defs><clipPath id="a"><path fill="#fff" d="M224.034 111.772h584.46v143.172h-584.46z"/></clipPath></defs></svg>