<svg width="781" height="263" viewBox="0 0 781 263" fill="none" xmlns="http://www.w3.org/2000/svg"><rect width="781" height="263" rx="131.5" fill="#EAE7E0"/><path d="M214.339 163.453q-8.338 0-12.326-3.897-3.897-3.987-3.897-12.326v-31.992q0-8.338 3.897-12.235 3.988-3.897 12.326-3.897h27.823q8.338 0 12.235 3.897 3.988 3.897 3.988 12.235v4.26q0 1.087-.544 1.54-.453.453-1.54.453H243.34q-1.087 0-1.631-.453-.453-.453-.453-1.54v-2.085q0-2.719-1.178-3.806-1.088-1.179-3.807-1.179h-16.404q-2.718 0-3.897 1.179-1.087 1.087-1.087 3.806v27.642q0 2.72 1.087 3.897 1.179 1.088 3.897 1.088h17.22q2.719 0 3.806-1.088 1.179-1.178 1.179-3.897v-4.531h-13.504q-1.088 0-1.541-.453-.453-.454-.453-1.541v-7.976q0-1.087.453-1.54t1.541-.453h28.186q1.087 0 1.54.453.544.453.544 1.54v16.676q0 8.339-3.987 12.326-3.898 3.897-12.236 3.897zm82.572-50.572v36.706h11.51q1.087 0 1.54.544.454.453.454 1.54v9.245q0 1.087-.454 1.631-.453.453-1.54.453h-39.696q-1.088 0-1.541-.453-.453-.544-.453-1.631v-9.245q0-1.087.453-1.54.453-.544 1.541-.544h11.419v-36.706h-11.419q-1.088 0-1.541-.453t-.453-1.54v-9.335q0-1.088.453-1.541t1.541-.453h39.696q1.087 0 1.54.453t.454 1.541v9.335q0 1.087-.454 1.54-.453.453-1.54.453zm73.991-13.322q1.087 0 1.54.453.544.453.544 1.541v10.875q0 2.085-2.084 2.085h-18.761v46.403q0 2.084-2.084 2.084h-12.688q-1.088 0-1.541-.453-.453-.544-.453-1.631v-46.403h-18.851q-1.088 0-1.541-.453-.453-.544-.453-1.632v-10.875q0-1.088.453-1.541t1.541-.453zm65.923 0q1.088 0 1.541.453t.453 1.541v59.363q0 1.087-.453 1.631-.453.453-1.541.453h-12.688q-2.084 0-2.084-2.084v-22.205h-25.014v22.205q0 2.084-2.085 2.084h-12.688q-1.088 0-1.541-.453-.453-.544-.453-1.631v-59.363q0-1.088.453-1.541t1.541-.453h12.688q1.088 0 1.541.453.543.453.544 1.541v22.204h25.014v-22.204q0-1.088.453-1.541.543-.453 1.631-.453zm32.061 63.894q-8.247 0-12.235-3.988t-3.987-12.235v-45.677q0-1.088.453-1.541.543-.453 1.631-.453h12.688q1.088 0 1.541.453t.453 1.541v41.962q0 2.718 1.088 3.897 1.178 1.087 3.897 1.087h14.954q2.719 0 3.806-1.087 1.179-1.179 1.179-3.897v-41.962q0-1.088.453-1.541.543-.453 1.631-.453h12.688q1.088 0 1.541.453t.453 1.541v45.677q0 8.339-3.988 12.326-3.897 3.897-12.144 3.897zm109.475-34.53q3.444.725 4.984 3.263 1.632 2.447 1.632 7.16v8.519q0 7.976-3.626 11.6Q577.817 163 569.932 163h-42.959q-1.087 0-1.54-.453-.453-.544-.454-1.631v-59.363q0-1.088.454-1.541.453-.453 1.54-.453h42.053q7.16 0 10.513 3.081 3.444 3.082 3.444 9.335v6.435q0 4.079-1.088 6.344t-3.534 3.353zm-36.615-16.948v12.688h20.301q2.629 0 3.535-.906.996-.997.997-3.625v-3.716q0-2.538-.997-3.444-.906-.997-3.444-.997zm26.464 28.821q0-2.63-.997-3.535-.906-.997-3.534-.997h-21.933v14.229h21.933q2.628 0 3.534-.906.997-.997.997-3.625z" fill="#202020"/></svg>