<svg width="761" height="286" viewBox="0 0 761 286" fill="none" xmlns="http://www.w3.org/2000/svg"><path d="M142.317.958h476.1c78.373 0 141.907 63.534 141.907 141.908S696.79 284.774 618.417 284.774h-476.1C63.944 284.774.409 221.239.409 142.866.41 64.492 63.944.958 142.317.958" fill="#fff"/><path d="M142.317.958h476.1c78.373 0 141.907 63.534 141.907 141.908S696.79 284.774 618.417 284.774h-476.1C63.944 284.774.409 221.239.409 142.866.41 64.492 63.944.958 142.317.958Z" stroke="#ECE9E1" stroke-width=".818"/><g clip-path="url(#a)" fill="#282828"><path d="M231.682 87.048c-31.641 0-57.202 25.561-57.202 57.201 0 25.313 16.379 46.779 39.086 54.348 2.854.496 3.971-1.241 3.971-2.73 0-1.365-.124-5.832-.124-10.671-14.394 2.606-18.116-3.474-19.233-6.7-.62-1.613-3.474-6.701-5.832-8.066-1.985-1.116-4.839-3.722-.124-3.846 4.467-.124 7.693 4.095 8.81 5.832 5.211 8.685 13.401 6.204 16.627 4.715.496-3.723 1.985-6.204 3.598-7.693-12.78-1.489-26.057-6.328-26.057-28.291 0-6.204 2.233-11.415 5.832-15.386-.621-1.489-2.606-7.321.62-15.138 0 0 4.839-1.489 15.759 5.832 4.591-1.241 9.43-1.985 14.269-1.985s9.678.62 14.269 1.985c10.919-7.445 15.759-5.832 15.759-5.832 3.102 7.817 1.116 13.773.62 15.138 3.598 3.971 5.832 9.058 5.832 15.386 0 21.963-13.401 26.802-26.181 28.291 2.109 1.737 3.846 5.211 3.846 10.547 0 7.693-.124 13.773-.124 15.758 0 1.489 1.117 3.35 3.971 2.73 22.582-7.569 38.961-29.035 38.961-54.348.372-31.516-25.312-57.077-56.953-57.077M432.535 166.219h-.105zm0 0c-.527 0-1.898.316-3.374.316-4.639 0-6.22-2.108-6.22-4.85v-18.45h9.383c.527 0 .949-.422.949-1.16v-10.016a.945.945 0 0 0-.949-.949h-9.383v-12.335c0-.422-.316-.738-.844-.738h-12.651c-.527 0-.844.316-.844.738v12.757s-6.431 1.582-6.853 1.687a1.01 1.01 0 0 0-.738.949v8.013c0 .632.422 1.159.949 1.159h6.537v19.294c0 14.339 10.016 15.815 16.869 15.815 3.163 0 6.853-.949 7.485-1.265.317-.106.528-.527.528-.949v-8.856c.105-.633-.317-1.055-.844-1.16m139.38-12.863c0-10.648-4.323-12.019-8.857-11.597-3.479.211-6.325 2.003-6.325 2.003v20.665s2.846 2.003 7.169 2.108c6.115.211 8.013-2.003 8.013-13.179m14.338-.949c0 20.138-6.536 25.936-17.923 25.936-9.594 0-14.866-4.849-14.866-4.849s-.211 2.741-.527 3.057c-.211.316-.422.422-.843.422h-8.751c-.633 0-1.16-.422-1.16-.949l.106-65.367c0-.527.421-.949.948-.949h12.547c.527 0 .949.422.949.949l-.106 22.035s4.85-3.163 11.914-3.163h.105c7.17 0 17.607 2.636 17.607 22.878m-51.345-21.297h-12.335c-.633 0-.949.422-.949 1.16v31.946s-3.268 2.319-7.696 2.319-5.694-2.003-5.694-6.431v-27.939a.944.944 0 0 0-.948-.949h-12.547a.945.945 0 0 0-.949.949v30.048c0 12.968 7.275 16.13 17.186 16.13 8.223 0 14.865-4.533 14.865-4.533s.317 2.319.422 2.636c.106.316.527.527.949.527h7.907c.633 0 .949-.422.949-.949l.106-43.965c-.106-.421-.633-.949-1.266-.949m-139.379 0h-12.546c-.528 0-.949.528-.949 1.16v43.121c0 1.16.738 1.582 1.792 1.582h11.281c1.16 0 1.476-.527 1.476-1.582v-43.332c0-.527-.527-.949-1.054-.949m-6.115-19.926c-4.534 0-8.118 3.585-8.118 8.118s3.584 8.118 8.118 8.118c4.428 0 8.013-3.584 8.013-8.118 0-4.533-3.585-8.118-8.013-8.118m96.996-1.476h-12.441a.944.944 0 0 0-.948.949v24.038h-19.505v-23.933a.945.945 0 0 0-.949-.949h-12.546a.945.945 0 0 0-.949.949v65.367c0 .528.527.949.949.949h12.546a.945.945 0 0 0 .949-.949v-28.044h19.505l-.106 27.939c0 .527.422.949.949.949h12.546a.945.945 0 0 0 .949-.949v-65.367c0-.422-.422-.949-.949-.949m-111.018 28.993v33.738c0 .211-.106.633-.317.738 0 0-7.38 5.272-19.504 5.272-14.655 0-31.946-4.639-31.946-34.792 0-30.259 15.182-36.479 29.942-36.374 12.863 0 18.029 2.847 18.767 3.374.211.316.316.527.316.843l-2.425 10.438c0 .527-.527 1.16-1.159.949-2.109-.633-5.272-1.898-12.757-1.898-8.646 0-17.924 2.425-17.924 21.93s8.857 21.718 15.182 21.718c5.377 0 7.381-.632 7.381-.632V150.51h-8.646c-.632 0-1.16-.422-1.16-.949v-10.86c0-.527.422-.948 1.16-.948h22.035c.633-.106 1.055.421 1.055.948"/></g><defs><clipPath id="a"><path fill="#fff" d="M174.48 87.048h411.773v111.635H174.48z"/></clipPath></defs></svg>