<svg width="1033" height="366" viewBox="0 0 1033 366" fill="none" xmlns="http://www.w3.org/2000/svg"><path d="M182.78.636h666.895c100.496 0 181.965 81.468 181.965 181.965 0 100.496-81.469 181.965-181.965 181.965H182.78C82.284 364.566.815 283.097.815 182.601S82.284.636 182.78.636" fill="#EAE7E0"/><path d="M182.78.636h666.895c100.496 0 181.965 81.468 181.965 181.965 0 100.496-81.469 181.965-181.965 181.965H182.78C82.284 364.566.815 283.097.815 182.601S82.284.636 182.78.636Z" stroke="#1C222F" stroke-width="1.049"/><g clip-path="url(#a)" fill="#282828"><path d="M297.344 111.012c-40.566 0-73.336 32.771-73.336 73.336 0 32.452 20.998 59.973 50.11 69.677 3.659.637 5.091-1.591 5.091-3.5 0-1.749-.159-7.476-.159-13.68-18.454 3.34-23.226-4.455-24.658-8.591-.795-2.068-4.454-8.59-7.477-10.34-2.545-1.432-6.204-4.772-.159-4.931 5.727-.16 9.863 5.249 11.295 7.476 6.681 11.136 17.181 7.954 21.317 6.045.636-4.772 2.545-7.954 4.613-9.863-16.385-1.909-33.407-8.113-33.407-36.27 0-7.954 2.864-14.635 7.477-19.726-.795-1.909-3.341-9.386.795-19.408 0 0 6.204-1.909 20.204 7.477 5.886-1.591 12.09-2.545 18.294-2.545s12.408.795 18.294 2.545c13.999-9.545 20.203-7.477 20.203-7.477 3.977 10.022 1.432 17.658.796 19.408 4.613 5.091 7.476 11.613 7.476 19.726 0 28.157-17.18 34.361-33.566 36.27 2.705 2.228 4.932 6.682 4.932 13.522 0 9.863-.159 17.658-.159 20.203 0 1.909 1.432 4.296 5.09 3.5 28.953-9.704 49.952-37.225 49.952-69.677.477-40.406-32.453-73.177-73.018-73.177M576.525 217.755h-.159zm0 0c-.795 0-2.863.477-5.09.477-7 0-9.386-3.181-9.386-7.318v-27.839h14.158c.795 0 1.432-.636 1.432-1.749v-15.113c0-.795-.637-1.432-1.432-1.432h-14.158v-18.612c0-.636-.477-1.114-1.273-1.114h-19.089c-.796 0-1.273.478-1.273 1.114v19.249s-9.704 2.386-10.34 2.545c-.637.159-1.114.795-1.114 1.432v12.09c0 .954.636 1.75 1.432 1.75h9.863v29.111c0 21.635 15.112 23.862 25.453 23.862 4.772 0 10.34-1.432 11.294-1.909.478-.159.796-.795.796-1.431v-13.363c.159-.955-.478-1.591-1.273-1.75m210.304-19.408c0-16.067-6.522-18.135-13.363-17.499-5.249.318-9.545 3.023-9.545 3.023v31.18s4.296 3.022 10.818 3.181c9.227.318 12.09-3.022 12.09-19.885m21.635-1.432c0 30.385-9.863 39.134-27.044 39.134-14.476 0-22.43-7.318-22.43-7.318s-.318 4.137-.795 4.614c-.319.477-.637.636-1.273.636h-13.204c-.954 0-1.75-.636-1.75-1.432l.16-98.629c0-.796.636-1.432 1.431-1.432h18.931c.795 0 1.431.636 1.431 1.432l-.159 33.247s7.318-4.772 17.976-4.772h.16c10.817 0 26.566 3.977 26.566 34.52m-77.472-32.134H712.38c-.955 0-1.432.637-1.432 1.75v48.201s-4.932 3.5-11.613 3.5-8.59-3.022-8.59-9.704v-42.156c0-.795-.637-1.432-1.432-1.432h-18.931c-.795 0-1.431.637-1.431 1.432v45.338c0 19.567 10.976 24.339 25.93 24.339 12.408 0 22.43-6.84 22.43-6.84s.477 3.499.636 3.977.796.795 1.432.795h11.931c.955 0 1.432-.636 1.432-1.432l.159-66.336c-.159-.636-.955-1.432-1.909-1.432m-210.304 0h-18.931c-.795 0-1.431.796-1.431 1.75v65.064c0 1.75 1.113 2.386 2.704 2.386h17.022c1.75 0 2.227-.795 2.227-2.386v-65.382c0-.795-.796-1.432-1.591-1.432m-9.227-30.066c-6.84 0-12.249 5.409-12.249 12.249s5.409 12.249 12.249 12.249c6.682 0 12.09-5.408 12.09-12.249 0-6.84-5.408-12.249-12.09-12.249m146.354-2.227h-18.771c-.796 0-1.432.636-1.432 1.432v36.27h-29.43v-36.111c0-.796-.636-1.432-1.432-1.432h-18.93c-.796 0-1.432.636-1.432 1.432v98.629c0 .796.795 1.432 1.432 1.432h18.93c.796 0 1.432-.636 1.432-1.432v-42.315h29.43l-.159 42.156c0 .796.636 1.432 1.431 1.432h18.931c.795 0 1.432-.636 1.432-1.432V133.92c0-.637-.637-1.432-1.432-1.432m-167.511 43.747v50.906c0 .318-.159.954-.478 1.113 0 0-11.135 7.954-29.429 7.954-22.113 0-48.202-6.999-48.202-52.496 0-45.656 22.908-55.042 45.179-54.883 19.408 0 27.203 4.295 28.316 5.091.318.477.478.795.478 1.272l-3.659 15.749c0 .796-.796 1.75-1.75 1.432-3.182-.954-7.954-2.863-19.249-2.863-13.044 0-27.043 3.658-27.043 33.088s13.362 32.771 22.907 32.771c8.113 0 11.136-.955 11.136-.955v-20.362h-13.045c-.954 0-1.75-.636-1.75-1.432v-16.385c0-.795.637-1.432 1.75-1.432h33.248c.954-.159 1.591.637 1.591 1.432"/></g><defs><clipPath id="a"><path fill="#fff" d="M223.998 111.015h584.46v143.172h-584.46z"/></clipPath></defs></svg>