<svg width="1041" height="283" viewBox="0 0 1041 283" fill="none" xmlns="http://www.w3.org/2000/svg">
<path d="M141.319 0.40918H899.667C977.49 0.40918 1040.58 63.4968 1040.58 141.319C1040.58 219.142 977.49 282.229 899.667 282.229H141.319C63.4968 282.229 0.40918 219.142 0.40918 141.319C0.409204 63.4968 63.4968 0.409189 141.319 0.40918Z" fill="white"/>
<path d="M141.319 0.40918H899.667C977.49 0.40918 1040.58 63.4968 1040.58 141.319C1040.58 219.142 977.49 282.229 899.667 282.229H141.319C63.4968 282.229 0.40918 219.142 0.40918 141.319C0.409204 63.4968 63.4968 0.409189 141.319 0.40918Z" stroke="#ECE9E1" stroke-width="0.818193"/>
<path d="M591.266 125.04L600.945 150.449H582.19L591.266 125.04ZM587.635 116.57L566.461 172.228H574.326L579.772 157.104H603.366L608.812 172.228H616.678L595.503 116.57H587.638H587.635ZM701.971 172.228H709.23V116.57H701.971V172.228ZM627.537 139.557C629.959 135.927 634.796 132.903 639.637 132.903C649.316 132.903 654.157 139.557 654.157 149.238V172.832H646.898V150.447C646.898 142.581 642.666 139.56 637.22 139.56C631.17 139.56 626.935 145.61 626.935 151.053V172.228H619.676V133.509H626.935L627.539 139.56L627.537 139.557ZM660.21 160.734C660.21 152.264 668.075 147.425 677.149 147.425C682.595 147.425 686.226 148.636 687.434 149.847V148.636C687.434 142.586 682.595 139.56 677.756 139.56C673.523 139.56 669.89 141.375 668.679 145.006L662.044 141.977C663.255 138.346 668.094 132.9 677.798 132.9C686.875 132.9 694.738 138.346 694.738 149.236V172.226H688.083V166.754H687.479C685.664 169.778 681.429 173.408 674.774 173.408C666.909 173.408 660.254 168.569 660.254 160.704M687.479 155.864C687.479 155.864 684.455 153.442 678.403 153.442C671.144 153.442 668.117 157.675 668.117 160.701C668.117 164.934 672.35 166.751 675.983 166.751C681.429 166.751 687.479 161.912 687.479 155.864Z" fill="#757575"/>
<path fill-rule="evenodd" clip-rule="evenodd" d="M719.49 189.163L727.96 169.176L712.836 134.088H720.095L731.589 160.706L743.082 134.088H750.341L726.752 189.163H719.493H719.49ZM825.963 146.819C824.145 141.975 819.912 138.953 815.68 138.953C809.63 138.953 804.186 144.399 804.186 152.262C804.186 160.125 809.632 165.571 815.68 165.571C819.912 165.571 824.15 162.547 825.965 158.312L832.015 161.943C828.991 168.597 822.939 172.83 815.68 172.83C805.395 172.83 796.925 163.753 796.925 152.262C796.925 140.162 805.395 131.692 815.68 131.692C822.939 131.692 828.989 135.924 832.015 142.579L825.965 146.812L825.963 146.819Z" fill="#757575"/>
<path d="M851.987 173.436C861.665 173.436 866.507 167.99 866.507 161.336C866.507 146.816 845.332 152.259 845.332 143.794C845.332 140.77 847.754 138.955 851.987 138.955C856.219 138.955 860.456 140.77 862.272 143.794L866.504 139.562C864.082 136.538 857.428 132.303 851.38 132.303C842.303 132.303 837.467 137.749 837.467 144.403C837.467 158.316 859.245 153.48 859.245 160.738C859.245 164.369 856.824 166.789 851.987 166.789C847.15 166.789 844.728 163.765 842.308 160.738L836.862 164.971C840.493 168.602 845.939 173.441 851.987 173.441V173.436ZM783.02 172.225H790.278V133.509H783.02V172.225Z" fill="#757575"/>
<path fill-rule="evenodd" clip-rule="evenodd" d="M786.041 114.754C789.065 114.754 790.881 117.176 790.881 119.594C790.881 122.618 788.459 124.433 786.041 124.433C783.624 124.433 781.202 122.011 781.202 119.594C781.202 117.176 783.624 114.754 786.041 114.754ZM775.759 166.18L776.97 171.626H769.711C763.056 171.626 760.032 166.787 760.032 159.525V140.77H752.773V133.512H760.032V122.018H767.291V133.512H775.761V140.77H767.291V160.758C767.291 166.203 771.524 166.203 775.761 166.203L775.759 166.18Z" fill="#757575"/>
<path d="M329.892 138.953V148.03H351.067C350.463 152.869 348.645 156.5 346.228 158.917C343.204 161.941 338.362 165.571 329.892 165.571C317.188 165.571 306.903 155.286 306.903 141.977C306.903 129.273 317.188 118.383 329.892 118.383C337.151 118.383 341.993 121.407 345.647 124.433L351.697 118.383C346.251 113.544 339.597 109.307 329.918 109.307C312.377 109.307 297.25 123.827 297.25 141.371C297.25 158.915 312.351 173.432 329.895 173.432C339.573 173.432 346.834 170.408 352.28 164.356C358.33 158.305 360.146 150.442 360.146 143.785C360.146 141.97 360.146 139.553 359.541 138.34H329.914L329.892 138.953ZM383.735 131.718C372.241 131.718 363.165 140.188 363.165 152.288C363.165 164.389 372.241 172.856 383.735 172.856C395.229 172.856 404.305 163.78 404.305 152.288C404.305 140.188 395.229 131.718 383.735 131.718ZM383.735 164.991C377.685 164.991 372.241 159.545 372.241 152.286C372.241 145.027 377.687 139.581 383.735 139.581C389.783 139.581 395.229 144.42 395.229 152.286C395.229 160.151 389.783 164.991 383.735 164.991ZM482.951 135.951C480.529 133.529 476.901 131.111 471.457 131.111C461.172 131.111 452.098 140.188 452.098 151.682C452.098 163.175 461.174 172.249 471.457 172.249C476.296 172.249 480.534 169.827 482.344 167.41H482.949V170.434C482.949 178.3 478.716 182.535 472.061 182.535C466.616 182.535 462.985 178.302 461.776 175.276L453.911 178.3C456.333 183.745 462.381 190.4 472.059 190.4C482.946 190.4 492.046 184.35 492.046 168.621V131.116H483.576V135.955L482.951 135.951ZM472.666 164.991C466.616 164.991 461.779 159.545 461.779 152.286C461.779 145.027 466.618 139.581 472.666 139.581C478.714 139.581 483.553 145.027 483.553 152.286C483.553 159.545 478.714 164.991 472.666 164.991ZM428.501 131.718C417.008 131.718 407.931 140.188 407.931 152.288C407.931 164.389 417.008 172.856 428.501 172.856C439.995 172.856 449.072 163.78 449.072 152.288C449.676 140.188 439.995 131.718 428.501 131.718ZM428.501 164.991C422.451 164.991 417.008 159.545 417.008 152.286C417.008 145.027 422.454 139.581 428.501 139.581C434.549 139.581 439.995 144.42 439.995 152.286C439.995 160.151 434.549 164.991 428.501 164.991ZM498.68 109.916H507.756V172.833H498.68V109.916ZM532.559 164.967C527.72 164.967 524.693 162.545 522.274 158.917L550.103 147.423L548.892 145.001C547.076 140.162 541.633 131.692 531.35 131.692C520.463 131.692 511.991 140.162 511.991 152.262C511.991 163.756 521.067 172.83 532.561 172.83C542.24 172.83 547.685 166.78 550.103 163.754L542.844 158.915C540.422 162.545 537.398 164.967 532.559 164.967ZM531.954 139.558C535.585 139.558 538.609 141.373 539.82 144.397L521.065 152.262C521.065 143.186 527.115 139.558 531.952 139.558H531.954Z" fill="#757575"/>
<path d="M243.004 99.5815V181.812C243.004 191.013 249.358 196.139 256.086 196.139C262.316 196.139 269.168 191.779 269.168 181.812V100.205C269.168 91.7697 262.939 86.4995 256.086 86.4995C249.233 86.4995 243.004 92.3117 243.004 99.5815Z" fill="#F9AB00"/>
<path d="M208.742 141.319V181.811C208.742 191.012 215.096 196.139 221.824 196.139C228.054 196.139 234.906 191.779 234.906 181.811V141.942C234.906 133.507 228.677 128.237 221.824 128.237C214.972 128.237 208.742 134.049 208.742 141.319Z" fill="#E37400"/>
<path d="M187.563 196.139C194.788 196.139 200.645 190.282 200.645 183.057C200.645 175.832 194.788 169.975 187.563 169.975C180.338 169.975 174.48 175.832 174.48 183.057C174.48 190.282 180.338 196.139 187.563 196.139Z" fill="#E37400"/>
</svg>
