<svg width="839" height="366" viewBox="0 0 839 366" fill="none" xmlns="http://www.w3.org/2000/svg"><path d="M183.327.578h472.342c100.496 0 181.965 81.469 181.965 181.965s-81.469 181.966-181.965 181.966H183.327c-100.496 0-181.965-81.47-181.965-181.966S82.831.578 183.327.578" fill="#EAE7E0"/><path d="M183.327.578h472.342c100.496 0 181.965 81.469 181.965 181.965s-81.469 181.966-181.965 181.966H183.327c-100.496 0-181.965-81.47-181.965-181.966S82.831.578 183.327.578Z" stroke="#1C222F" stroke-width="1.049"/><g clip-path="url(#a)"><g clip-path="url(#b)" fill="#00BC61"><path d="M423.06 152.238a2.614 2.614 0 0 1-2.615 2.53H393.5c-1.766 0-3.241-1.432-3.241-3.174 0-7.86-2.72-11.688-8.285-11.688s-9.153 3.417-9.258 9.388c-.119 6.657 3.646 12.709 14.365 23.103 14.112 13.239 19.767 24.964 19.495 40.465-.444 25.065-17.486 41.267-43.419 41.267-13.244 0-23.361-3.541-30.09-10.528-6.83-7.096-9.96-17.51-9.306-30.949a2.613 2.613 0 0 1 2.62-2.529h27.87a2.62 2.62 0 0 1 2.014.992 2.3 2.3 0 0 1 .506 1.833c-.31 4.849.535 8.471 2.444 10.476 1.221 1.298 2.925 1.956 5.049 1.956 5.149 0 8.166-3.636 8.28-9.974.096-5.479-1.637-10.28-11.077-19.992-12.193-11.912-23.127-24.22-22.788-43.572.201-11.224 4.658-21.49 12.556-28.906 8.352-7.837 19.772-11.979 33.03-11.979 13.282.095 23.347 3.885 29.918 11.263 6.224 6.991 9.216 17.09 8.887 30.018zM506.566 249.411l.176-133.308a2.516 2.516 0 0 0-1.551-2.355 2.5 2.5 0 0 0-.973-.188h-41.701c-1.403 0-2.019 1.207-2.42 2.004l-60.38 133.031v.024l-.024.033c-.668 1.637.601 3.388 2.372 3.388h29.149c1.575 0 2.62-.477 3.131-1.469l5.789-13.912c.711-1.856.845-2.028 2.868-2.028h27.852c1.938 0 1.976.038 1.947 1.933l-.625 12.933a2.503 2.503 0 0 0 2.52 2.543h29.45a2.498 2.498 0 0 0 1.924-.868 2.19 2.19 0 0 0 .496-1.761m-51.59-44.508a8 8 0 0 1-.658-.023.697.697 0 0 1-.633-.575.7.7 0 0 1 .012-.304c.057-.19.139-.453.258-.773l20.884-51.675q.282-.766.649-1.494c.339-.697.749-.745.878-.229.11.429-2.396 53.059-2.396 53.059-.195 1.971-.286 2.053-2.228 2.215l-16.747-.191h-.038l.014-.01zM565.994 113.562h-22.139c-1.169 0-2.482.62-2.787 2.014l-30.811 133.77a2.02 2.02 0 0 0 .42 1.732 2.73 2.73 0 0 0 2.086.965h27.67c1.489 0 2.506-.731 2.783-1.995l3.359-15.162c.239-1.184-.171-2.1-1.231-2.654a234 234 0 0 1-1.489-.773l-4.796-2.496-4.773-2.491-1.846-.959a.88.88 0 0 1-.492-.812.95.95 0 0 1 .954-.925l15.162.066c4.534.024 9.073-.296 13.535-1.116 31.402-5.799 52.258-30.949 52.859-65.172.515-29.207-15.787-44.007-48.44-44.007zm-7.535 79.603h-.592c-1.332 0-1.565-.143-1.604-.191-.024-.033 8.743-38.527 8.748-38.58.224-1.112.215-1.751-.472-2.128-.878-.487-13.678-7.235-13.678-7.235a.9.9 0 0 1-.482-.821.937.937 0 0 1 .94-.916h20.24c6.3.191 9.812 5.827 9.645 15.453-.291 16.66-8.213 33.836-22.745 34.423z"/><path d="M338.187 178.148v.062l-5.13 22.268c-.277 1.26-1.537 2.181-2.988 2.181h-6.199a1.04 1.04 0 0 0-.993.745c-5.717 19.395-13.458 32.724-23.68 40.727-8.696 6.815-19.414 9.994-33.736 9.994-12.867 0-21.543-4.138-28.902-12.308-9.726-10.795-13.745-28.472-11.311-49.767 4.391-39.978 25.127-80.319 65.053-80.319 12.146-.105 21.681 3.641 28.315 11.119 7.015 7.913 10.575 19.825 10.594 35.421a2.62 2.62 0 0 1-2.62 2.558h-29.254a2.007 2.007 0 0 1-1.943-1.957c-.238-10.785-3.436-16.035-9.793-16.035-11.215 0-17.83 15.224-21.337 23.662-4.902 11.788-7.397 24.592-6.906 37.344.234 5.937 1.188 14.284 6.825 17.744 4.996 3.064 12.126 1.03 16.445-2.363 4.315-3.398 7.789-9.272 9.249-14.632.205-.744.22-1.322.024-1.58-.205-.267-.773-.329-1.207-.329h-7.512a2.73 2.73 0 0 1-2.09-.964 2 2 0 0 1-.416-1.727l5.136-22.307c.252-1.14 1.288-2.004 2.562-2.157v-.057h49.299c.115 0 .234 0 .344.024 1.279.167 2.181 1.355 2.157 2.653z"/></g></g><defs><clipPath id="a"><path fill="#fff" d="M224.545 110.957h389.908v143.172H224.545z"/></clipPath><clipPath id="b"><path fill="#fff" d="M224.545 110.957h389.908v143.172H224.545z"/></clipPath></defs></svg>