<svg width="654" height="286" viewBox="0 0 654 286" fill="none" xmlns="http://www.w3.org/2000/svg"><path d="M142.724 1.127h368.403c78.382 0 141.925 63.541 141.925 141.924 0 78.382-63.543 141.924-141.925 141.924H142.724C64.341 284.975.8 221.433.8 143.051S64.34 1.127 142.724 1.127" fill="#fff"/><path d="M142.724 1.127h368.403c78.382 0 141.925 63.541 141.925 141.924 0 78.382-63.543 141.924-141.925 141.924H142.724C64.341 284.975.8 221.433.8 143.051S64.34 1.127 142.724 1.127Z" stroke="#ECE9E1" stroke-width=".818"/><g clip-path="url(#a)"><g clip-path="url(#b)" fill="#00BC61"><path d="M329.702 119.416a2.038 2.038 0 0 1-2.039 1.973h-21.017c-1.378 0-2.528-1.116-2.528-2.475 0-6.131-2.122-9.116-6.462-9.116s-7.14 2.665-7.222 7.322c-.093 5.192 2.844 9.912 11.205 18.02 11.007 10.326 15.418 19.472 15.206 31.562-.346 19.551-13.639 32.188-33.867 32.188-10.329 0-18.221-2.762-23.47-8.211-5.326-5.536-7.768-13.658-7.258-24.14a2.036 2.036 0 0 1 2.043-1.973h21.739c.303.005.601.077.873.21.271.134.51.327.698.564a1.79 1.79 0 0 1 .395 1.429c-.242 3.782.417 6.608 1.906 8.171.953 1.013 2.282 1.526 3.938 1.526 4.017 0 6.369-2.836 6.458-7.78.075-4.273-1.276-8.018-8.639-15.593-9.511-9.291-18.039-18.891-17.775-33.986.156-8.755 3.633-16.762 9.794-22.546 6.514-6.113 15.422-9.344 25.763-9.344 10.359.075 18.21 3.03 23.336 8.785 4.854 5.454 7.188 13.33 6.931 23.414zM394.857 195.211l.138-103.979a1.96 1.96 0 0 0-1.21-1.837c-.241-.099-.499-.149-.76-.147h-32.526c-1.095 0-1.575.942-1.888 1.563l-47.096 103.763v.019l-.018.026c-.522 1.277.469 2.643 1.85 2.643h22.736c1.229 0 2.044-.372 2.442-1.147l4.516-10.85c.554-1.448.658-1.582 2.237-1.582h21.724c1.511 0 1.541.029 1.519 1.507l-.488 10.088a1.96 1.96 0 0 0 .566 1.405 1.96 1.96 0 0 0 1.399.579h22.972a1.95 1.95 0 0 0 1.5-.678 1.7 1.7 0 0 0 .387-1.373m-40.24-34.716a6 6 0 0 1-.513-.018.546.546 0 0 1-.484-.685 9 9 0 0 1 .201-.603l16.289-40.307q.22-.596.506-1.165c.265-.543.585-.58.685-.178.086.335-1.868 41.386-1.868 41.386-.153 1.537-.224 1.6-1.739 1.727l-13.062-.149h-.03l.012-.008zM441.196 89.25h-17.269c-.912 0-1.935.485-2.174 1.572l-24.032 104.34a1.58 1.58 0 0 0 .328 1.351 2.14 2.14 0 0 0 1.627.752h21.582c1.162 0 1.955-.57 2.17-1.556l2.621-11.826c.186-.924-.134-1.638-.96-2.07q-.582-.3-1.162-.603l-3.741-1.947-3.722-1.943-1.441-.748a.7.7 0 0 1-.383-.633.74.74 0 0 1 .744-.722l11.826.052c3.537.018 7.077-.231 10.557-.871 24.494-4.523 40.761-24.14 41.23-50.834.402-22.781-12.314-34.324-37.783-34.324zm-5.878 62.091h-.462c-1.038 0-1.221-.112-1.25-.149-.019-.026 6.819-30.051 6.823-30.092.175-.867.167-1.366-.369-1.66-.685-.38-10.668-5.643-10.668-5.643a.708.708 0 0 1-.376-.641.73.73 0 0 1 .733-.714h15.787c4.914.149 7.653 4.545 7.523 12.053-.227 12.995-6.406 26.392-17.741 26.85z"/><path d="M263.504 139.631v.048l-4.002 17.369c-.216.983-1.199 1.701-2.33 1.701h-4.836a.8.8 0 0 0-.483.162.82.82 0 0 0-.291.419c-4.459 15.128-10.497 25.524-18.471 31.767-6.782 5.316-15.143 7.795-26.314 7.795-10.035 0-16.803-3.228-22.543-9.6-7.586-8.421-10.72-22.209-8.822-38.818 3.425-31.183 19.599-62.649 50.741-62.649 9.473-.082 16.911 2.84 22.085 8.674 5.472 6.171 8.249 15.463 8.264 27.628a2.046 2.046 0 0 1-2.044 1.995H231.64a1.567 1.567 0 0 1-1.516-1.526c-.186-8.413-2.68-12.508-7.638-12.508-8.748 0-13.907 11.875-16.643 18.456-3.823 9.194-5.77 19.182-5.386 29.128.182 4.631.927 11.141 5.323 13.84 3.897 2.39 9.458.804 12.827-1.842 3.365-2.651 6.075-7.233 7.214-11.413.16-.581.172-1.032.019-1.233-.16-.208-.603-.256-.942-.256h-5.859a2.12 2.12 0 0 1-1.63-.752 1.57 1.57 0 0 1-.324-1.348l4.005-17.399c.197-.889 1.005-1.563 1.999-1.682v-.045h38.453c.089 0 .182 0 .268.019.997.13 1.701 1.057 1.682 2.07z"/></g></g><defs><clipPath id="a"><path fill="#fff" d="M174.871 87.217H478.98v111.667H174.871z"/></clipPath><clipPath id="b"><path fill="#fff" d="M174.871 87.217H478.98v111.667H174.871z"/></clipPath></defs></svg>