<svg width="839" height="366" viewBox="0 0 839 366" fill="none" xmlns="http://www.w3.org/2000/svg"><path d="M183.363 1.396h472.342c100.496 0 181.965 81.469 181.965 181.965s-81.468 181.966-181.965 181.966H183.363C82.867 365.326 1.398 283.857 1.398 183.361S82.867 1.396 183.363 1.396" fill="#1C222F"/><path d="M183.363 1.396h472.342c100.496 0 181.965 81.469 181.965 181.965s-81.468 181.966-181.965 181.966H183.363C82.867 365.326 1.398 283.857 1.398 183.361S82.867 1.396 183.363 1.396Z" stroke="#EAE7E0" stroke-width="1.049"/><g clip-path="url(#a)"><g clip-path="url(#b)" fill="#00E559"><path d="M423.095 153.056a2.614 2.614 0 0 1-2.615 2.53h-26.945c-1.766 0-3.241-1.432-3.241-3.174 0-7.86-2.72-11.688-8.284-11.688-5.565 0-9.154 3.417-9.259 9.388-.119 6.657 3.646 12.709 14.365 23.103 14.112 13.238 19.767 24.964 19.495 40.465-.444 25.065-17.486 41.267-43.419 41.267-13.244 0-23.361-3.541-30.09-10.528-6.829-7.096-9.96-17.51-9.306-30.949a2.617 2.617 0 0 1 2.62-2.529h27.871a2.627 2.627 0 0 1 2.014.992 2.29 2.29 0 0 1 .505 1.833c-.31 4.849.535 8.471 2.444 10.475 1.222 1.298 2.925 1.957 5.049 1.957 5.15 0 8.166-3.637 8.28-9.974.096-5.479-1.637-10.28-11.077-19.992-12.193-11.912-23.127-24.22-22.788-43.572.201-11.225 4.658-21.49 12.556-28.906 8.352-7.837 19.773-11.979 33.03-11.979 13.282.095 23.347 3.885 29.918 11.263 6.224 6.991 9.216 17.09 8.887 30.018zM506.62 250.234l.176-133.308a2.504 2.504 0 0 0-2.524-2.544H462.57c-1.403 0-2.018 1.208-2.419 2.005L399.77 249.418v.023l-.024.034c-.668 1.637.602 3.388 2.372 3.388h29.15c1.575 0 2.62-.477 3.131-1.47l5.789-13.911c.711-1.857.844-2.028 2.868-2.028h27.852c1.937 0 1.975.038 1.947 1.932l-.625 12.934a2.5 2.5 0 0 0 .725 1.801 2.5 2.5 0 0 0 1.794.742H504.2a2.49 2.49 0 0 0 1.923-.868c.205-.241.356-.522.442-.826.085-.304.104-.623.055-.935m-51.59-44.508q-.33.001-.659-.024a.7.7 0 0 1-.515-.294.7.7 0 0 1-.105-.584c.057-.191.138-.453.258-.773l20.884-51.675q.281-.766.649-1.494c.339-.697.749-.745.878-.229.11.429-2.396 53.059-2.396 53.059-.196 1.971-.286 2.052-2.229 2.215l-16.746-.191h-.038l.014-.01zM566.02 114.384h-22.139c-1.17 0-2.482.621-2.788 2.014l-30.81 133.771a2.02 2.02 0 0 0 .42 1.732 2.73 2.73 0 0 0 2.085.964h27.671c1.489 0 2.505-.73 2.782-1.995l3.36-15.162c.238-1.183-.172-2.099-1.231-2.653q-.747-.384-1.489-.773l-4.797-2.496-4.772-2.491-1.847-.96a.891.891 0 0 1-.492-.811.953.953 0 0 1 .955-.926l15.162.067c4.534.024 9.072-.296 13.534-1.117 31.403-5.798 52.258-30.949 52.859-65.172.516-29.207-15.787-44.006-48.439-44.006zm-7.536 79.604h-.592c-1.331 0-1.565-.143-1.603-.191-.024-.033 8.743-38.527 8.748-38.58.224-1.112.214-1.751-.473-2.128-.878-.487-13.678-7.235-13.678-7.235a.905.905 0 0 1-.482-.821.937.937 0 0 1 .941-.916h20.239c6.3.19 9.812 5.827 9.645 15.453-.291 16.66-8.213 33.836-22.745 34.423z"/><path d="M338.213 178.971v.062l-5.131 22.268c-.276 1.26-1.536 2.181-2.987 2.181h-6.2a1.04 1.04 0 0 0-.992.745c-5.718 19.395-13.458 32.724-23.681 40.727-8.695 6.815-19.414 9.994-33.736 9.994-12.866 0-21.543-4.138-28.902-12.308-9.726-10.796-13.744-28.473-11.31-49.767 4.39-39.978 25.126-80.32 65.052-80.32 12.146-.105 21.681 3.642 28.315 11.12 7.015 7.913 10.576 19.825 10.595 35.421a2.624 2.624 0 0 1-2.62 2.558h-29.255a2.004 2.004 0 0 1-1.942-1.957c-.239-10.785-3.437-16.035-9.793-16.035-11.216 0-17.83 15.224-21.338 23.662-4.901 11.787-7.397 24.592-6.906 37.344.234 5.936 1.189 14.283 6.825 17.743 4.997 3.064 12.127 1.031 16.446-2.362 4.314-3.398 7.788-9.273 9.249-14.632.205-.745.219-1.322.023-1.58-.205-.267-.773-.329-1.207-.329h-7.512a2.73 2.73 0 0 1-2.09-.964 2.01 2.01 0 0 1-.415-1.728l5.135-22.306c.253-1.141 1.288-2.004 2.563-2.157v-.057h49.299c.114 0 .233 0 .343.024 1.279.167 2.181 1.355 2.157 2.653z"/></g></g><defs><clipPath id="a"><path fill="#fff" d="M224.58 111.775h389.908v143.172H224.58z"/></clipPath><clipPath id="b"><path fill="#fff" d="M224.58 111.775h389.908v143.172H224.58z"/></clipPath></defs></svg>