<svg width="654" height="286" viewBox="0 0 654 286" fill="none" xmlns="http://www.w3.org/2000/svg"><path d="M142.731 1.127h368.404c78.382 0 141.925 63.541 141.925 141.924 0 78.382-63.543 141.924-141.925 141.924H142.731C64.349 284.975.808 221.433.808 143.051S64.349 1.127 142.73 1.127" fill="#1C222F"/><path d="M142.731 1.127h368.404c78.382 0 141.925 63.541 141.925 141.924 0 78.382-63.543 141.924-141.925 141.924H142.731C64.349 284.975.808 221.433.808 143.051S64.349 1.127 142.73 1.127Z" stroke="#EAE7E0" stroke-width=".818"/><g clip-path="url(#a)"><g clip-path="url(#b)" fill="#00E559"><path d="M329.712 119.416a2.039 2.039 0 0 1-2.04 1.973h-21.017c-1.377 0-2.527-1.116-2.527-2.475 0-6.131-2.122-9.116-6.462-9.116-4.341 0-7.14 2.665-7.222 7.322-.093 5.192 2.844 9.912 11.205 18.02 11.007 10.326 15.418 19.472 15.206 31.562-.346 19.551-13.639 32.188-33.867 32.188-10.33 0-18.221-2.762-23.47-8.211-5.327-5.536-7.768-13.658-7.259-24.14a2.04 2.04 0 0 1 2.044-1.973h21.739c.303.005.601.077.873.21.271.134.51.327.698.564a1.792 1.792 0 0 1 .395 1.429c-.242 3.782.416 6.608 1.905 8.171.953 1.013 2.282 1.526 3.939 1.526 4.016 0 6.369-2.836 6.458-7.78.075-4.273-1.277-8.018-8.64-15.593-9.51-9.291-18.038-18.891-17.774-33.986.156-8.755 3.633-16.762 9.794-22.546 6.514-6.113 15.422-9.344 25.763-9.344 10.359.075 18.21 3.03 23.335 8.785 4.855 5.454 7.188 13.33 6.932 23.414zM394.867 195.211l.137-103.979a1.96 1.96 0 0 0-.567-1.406 1.95 1.95 0 0 0-1.402-.578h-32.526c-1.095 0-1.575.942-1.888 1.563l-47.096 103.763v.019l-.019.026c-.521 1.277.469 2.643 1.85 2.643h22.737c1.228 0 2.044-.372 2.442-1.147l4.515-10.85c.555-1.448.659-1.582 2.237-1.582h21.725c1.511 0 1.541.029 1.518 1.507l-.487 10.088a1.96 1.96 0 0 0 .565 1.405 1.97 1.97 0 0 0 1.4.579h22.971a1.95 1.95 0 0 0 1.5-.678 1.7 1.7 0 0 0 .388-1.373m-40.24-34.716a6 6 0 0 1-.514-.018.546.546 0 0 1-.484-.685c.045-.149.108-.354.201-.603l16.29-40.307q.22-.596.506-1.165c.264-.543.584-.58.685-.178.086.335-1.869 41.386-1.869 41.386-.152 1.537-.223 1.6-1.738 1.727l-13.062-.149h-.03l.011-.008zM441.202 89.25h-17.269c-.912 0-1.936.485-2.174 1.572l-24.032 104.34a1.58 1.58 0 0 0 .328 1.351 2.13 2.13 0 0 0 1.626.752h21.583c1.162 0 1.954-.57 2.17-1.556l2.621-11.826c.186-.924-.134-1.638-.96-2.07q-.582-.3-1.162-.603l-3.741-1.947-3.722-1.943-1.441-.748a.7.7 0 0 1-.383-.633.74.74 0 0 1 .744-.722l11.826.052c3.537.018 7.077-.231 10.557-.871 24.494-4.523 40.761-24.14 41.23-50.834.402-22.781-12.314-34.324-37.783-34.324zm-5.878 62.091h-.462c-1.038 0-1.221-.112-1.251-.149-.018-.026 6.82-30.051 6.824-30.092.175-.867.167-1.366-.369-1.66-.685-.38-10.668-5.643-10.668-5.643a.699.699 0 0 1-.376-.641.73.73 0 0 1 .733-.714h15.787c4.913.149 7.653 4.545 7.523 12.053-.227 12.995-6.406 26.392-17.741 26.85z"/><path d="M263.511 139.631v.048l-4.001 17.369c-.216.983-1.199 1.701-2.331 1.701h-4.835a.82.82 0 0 0-.774.581c-4.46 15.128-10.497 25.524-18.471 31.767-6.782 5.316-15.143 7.795-26.314 7.795-10.035 0-16.803-3.228-22.543-9.6-7.586-8.421-10.72-22.209-8.822-38.818 3.425-31.183 19.599-62.649 50.74-62.649 9.474-.082 16.911 2.84 22.086 8.674 5.472 6.171 8.249 15.463 8.263 27.628a2.048 2.048 0 0 1-2.043 1.995h-22.819a1.565 1.565 0 0 1-1.515-1.526c-.186-8.413-2.68-12.508-7.638-12.508-8.748 0-13.907 11.875-16.643 18.456-3.823 9.194-5.77 19.182-5.387 29.128.183 4.631.927 11.141 5.324 13.84 3.897 2.39 9.458.804 12.827-1.842 3.365-2.651 6.075-7.233 7.214-11.413.16-.581.171-1.032.019-1.233-.16-.208-.603-.256-.942-.256h-5.859a2.12 2.12 0 0 1-1.631-.752 1.557 1.557 0 0 1-.323-1.348l4.005-17.399c.197-.889 1.005-1.563 1.999-1.682v-.045h38.453c.089 0 .182 0 .268.019.997.13 1.701 1.057 1.682 2.07z"/></g></g><defs><clipPath id="a"><path fill="#fff" d="M174.879 87.217h304.109v111.667H174.879z"/></clipPath><clipPath id="b"><path fill="#fff" d="M174.879 87.217h304.109v111.667H174.879z"/></clipPath></defs></svg>