<svg width="654" height="286" viewBox="0 0 654 286" fill="none" xmlns="http://www.w3.org/2000/svg"><path d="M142.333 1.127h368.403c78.383 0 141.925 63.541 141.925 141.924 0 78.382-63.542 141.924-141.925 141.924H142.333C63.951 284.975.409 221.433.409 143.051S63.951 1.127 142.333 1.127" fill="#fff"/><path d="M142.333 1.127h368.403c78.383 0 141.925 63.541 141.925 141.924 0 78.382-63.542 141.924-141.925 141.924H142.333C63.951 284.975.409 221.433.409 143.051S63.951 1.127 142.333 1.127Z" stroke="#ECE9E1" stroke-width=".818"/><g clip-path="url(#a)"><g clip-path="url(#b)" fill="#00BC61"><path d="M329.312 119.416a2.043 2.043 0 0 1-2.04 1.973h-21.017c-1.377 0-2.528-1.117-2.528-2.475 0-6.131-2.121-9.116-6.462-9.116s-7.139 2.665-7.221 7.322c-.093 5.192 2.844 9.912 11.204 18.02 11.008 10.326 15.419 19.472 15.206 31.562-.346 19.551-13.639 32.188-33.866 32.188-10.33 0-18.222-2.762-23.47-8.211-5.327-5.536-7.769-13.658-7.259-24.14a2.038 2.038 0 0 1 2.044-1.973h21.739a2.058 2.058 0 0 1 1.571.774 1.79 1.79 0 0 1 .394 1.429c-.242 3.782.417 6.608 1.906 8.171.953 1.013 2.282 1.526 3.938 1.526 4.017 0 6.369-2.836 6.459-7.78.074-4.273-1.277-8.018-8.64-15.593-9.511-9.291-18.039-18.891-17.775-33.986.157-8.755 3.634-16.762 9.794-22.546 6.514-6.113 15.422-9.344 25.763-9.344 10.36.075 18.21 3.03 23.336 8.785 4.854 5.454 7.188 13.33 6.931 23.414zM394.466 195.211l.138-103.979a1.953 1.953 0 0 0-1.969-1.984h-32.527c-1.094 0-1.574.942-1.887 1.563l-47.096 103.763v.019l-.019.026c-.521 1.277.469 2.643 1.85 2.643h22.737c1.228 0 2.043-.372 2.442-1.147l4.515-10.85c.555-1.448.659-1.582 2.237-1.582h21.724c1.512 0 1.541.029 1.519 1.507l-.488 10.088a1.96 1.96 0 0 0 .566 1.405 1.96 1.96 0 0 0 1.4.579h22.971a1.95 1.95 0 0 0 1.5-.678 1.7 1.7 0 0 0 .387-1.373m-40.239-34.716a6 6 0 0 1-.514-.018.56.56 0 0 1-.402-.23.55.55 0 0 1-.082-.455c.045-.149.108-.354.201-.603l16.289-40.307q.22-.596.507-1.165c.264-.543.584-.58.685-.178.085.335-1.869 41.386-1.869 41.386-.153 1.537-.223 1.6-1.738 1.727l-13.062-.149h-.03l.011-.008zM440.805 89.25h-17.268c-.912 0-1.936.485-2.174 1.572l-24.032 104.34a1.58 1.58 0 0 0 .327 1.351 2.14 2.14 0 0 0 1.627.752h21.583c1.161 0 1.954-.57 2.17-1.556l2.62-11.826c.187-.924-.134-1.638-.96-2.07q-.582-.3-1.161-.603l-3.741-1.947-3.723-1.943-1.44-.748a.69.69 0 0 1-.384-.633.74.74 0 0 1 .745-.722l11.826.052c3.536.018 7.076-.231 10.557-.871 24.493-4.523 40.76-24.14 41.229-50.834.402-22.781-12.313-34.324-37.782-34.324zm-5.878 62.091h-.461c-1.039 0-1.221-.112-1.251-.149-.019-.026 6.819-30.051 6.823-30.092.175-.867.168-1.366-.368-1.66-.685-.38-10.669-5.643-10.669-5.643a.7.7 0 0 1-.376-.641.73.73 0 0 1 .734-.714h15.786c4.914.149 7.654 4.545 7.523 12.053-.227 12.995-6.406 26.392-17.741 26.85z"/><path d="M263.113 139.631v.048l-4.002 17.369c-.216.983-1.198 1.701-2.33 1.701h-4.835a.82.82 0 0 0-.484.162.82.82 0 0 0-.291.419c-4.459 15.128-10.497 25.524-18.47 31.767-6.783 5.316-15.143 7.795-26.314 7.795-10.036 0-16.803-3.228-22.543-9.6-7.587-8.421-10.721-22.209-8.822-38.818 3.424-31.183 19.598-62.649 50.74-62.649 9.474-.082 16.911 2.84 22.085 8.674 5.472 6.171 8.249 15.463 8.264 27.628a2.05 2.05 0 0 1-2.044 1.995h-22.818a1.56 1.56 0 0 1-1.515-1.526c-.186-8.413-2.68-12.508-7.639-12.508-8.747 0-13.907 11.875-16.643 18.456-3.823 9.194-5.769 19.182-5.386 29.128.182 4.631.927 11.141 5.323 13.84 3.898 2.39 9.459.804 12.828-1.842 3.365-2.651 6.075-7.233 7.214-11.413.16-.581.171-1.032.018-1.233-.16-.208-.603-.256-.941-.256h-5.86a2.13 2.13 0 0 1-1.63-.752 1.57 1.57 0 0 1-.324-1.348l4.006-17.399c.197-.889 1.005-1.563 1.998-1.682v-.045h38.453c.09 0 .183 0 .268.019.998.13 1.701 1.057 1.683 2.07z"/></g></g><defs><clipPath id="a"><path fill="#fff" d="M174.48 87.217h304.109v111.667H174.48z"/></clipPath><clipPath id="b"><path fill="#fff" d="M174.48 87.217h304.109v111.667H174.48z"/></clipPath></defs></svg>