<svg id="Layer_1" data-name="Layer 1" xmlns="http://www.w3.org/2000/svg" viewBox="0 0 285 285"><defs><style>.cls-1{fill:#fff}</style></defs><path class="cls-1" d="M142.33.54c78.38 0 141.92 63.54 141.92 141.92s-63.54 141.92-141.92 141.92S.41 220.84.41 142.46 63.95.54 142.33.54"/><path d="M142.33.54c78.38 0 141.92 63.54 141.92 141.92s-63.54 141.92-141.92 141.92S.41 220.84.41 142.46 63.95.54 142.33.54Z" fill="none" stroke="#ece9e1" stroke-width=".82"/><path d="M219.52 143.52c0 20.07-7.66 38.34-20.21 52.07a77.2 77.2 0 0 1-16.12 13.42c-11.85 7.42-25.86 11.7-40.86 11.7s-28.93-4.26-40.76-11.64a77 77 0 0 1-16.25-13.53c-12.53-13.72-20.17-31.97-20.17-52.02 0-15.11 4.35-29.21 11.86-41.11 13.66-21.67 37.81-36.07 65.32-36.07s51.63 14.37 65.3 36.02c7.53 11.91 11.89 26.03 11.89 41.16" fill="#38100b"/><path d="m211 64.58-3.37 37.78-8.32 93.23a77.2 77.2 0 0 1-16.12 13.42l-40.95 11.35-40.67-11.29a77 77 0 0 1-16.25-13.53l-8.31-93.13-3.37-37.83z" fill="#e44d26"/><path d="m187.81 195.84 10.7-119.8h-56.15v132.4l45.46-12.6Z" fill="#f16529"/><path d="M142.27 93.24H99.2l4.64 52h38.48v-17.19h-22.75L118 110.44h24.33v-17.2zm.06 79.41-.07.02-19.15-5.17-1.22-13.71h-17.27l2.41 27 35.23 9.74.08-.02v-17.85Z" fill="#ebebeb"/><path class="cls-1" d="M142.29 145.24h21.18l-1.95 22.3-19.18 5.18v17.89l35.26-9.77 4.72-52.8h-39.97l-.06 17.21Zm42.67-47.38.41-4.62h-43.08v17.19h41.54l.34-3.86.8-8.71Z"/></svg>