<svg width="724" height="262" viewBox="0 0 724 262" fill="none" xmlns="http://www.w3.org/2000/svg"><rect width="724" height="262" rx="131" fill="#202020"/><path d="M252.622 99.059q1.088 0 1.541.453t.453 1.541v59.363q0 1.087-.453 1.631-.453.453-1.541.453h-12.688q-2.084 0-2.084-2.084v-22.205h-25.014v22.205q0 2.084-2.085 2.084h-12.688q-1.088 0-1.541-.453-.453-.544-.453-1.631v-59.363q0-1.088.453-1.541t1.541-.453h12.688q1.088 0 1.541.453.543.453.544 1.541v22.204h25.014v-22.204q0-1.088.453-1.541.543-.453 1.631-.453zm65.685 0q1.088 0 1.541.453.544.453.544 1.541v10.875q0 2.085-2.085 2.085h-18.76v46.403q0 2.084-2.085 2.084h-12.688q-1.087 0-1.541-.453-.453-.544-.453-1.631v-46.403h-18.851q-1.087 0-1.54-.453-.454-.544-.454-1.632v-10.875q0-1.088.454-1.541.453-.453 1.54-.453zm10.911 63.441q-1.087 0-1.54-.453-.453-.544-.453-1.631v-59.363q0-1.088.453-1.541t1.54-.453h18.217q.997 0 1.45.362.544.363 1.088 1.45l14.682 24.924h.725l14.682-24.924q.634-1.087 1.087-1.45.545-.362 1.541-.362h18.126q1.088 0 1.541.453.543.453.544 1.541v59.363q0 2.084-2.085 2.084h-12.325q-2.085 0-2.085-2.084v-39.153h-.725l-13.051 21.48q-.634 1.087-1.178 1.45-.453.362-1.45.362h-9.879q-.997 0-1.54-.362-.544-.363-1.179-1.45l-12.96-21.48h-.815v39.153q0 1.087-.454 1.631-.453.453-1.54.453zm89.314 0q-1.088 0-1.541-.453-.453-.544-.453-1.631v-59.363q0-1.088.453-1.541t1.541-.453h12.688q1.087 0 1.541.453.543.453.543 1.541v46.493h30.815q1.087 0 1.54.453t.453 1.541v10.876q0 1.087-.453 1.631-.453.453-1.54.453zm70.834.453q-7.884 0-11.51-3.534-3.534-3.625-3.534-11.601v-2.085q0-1.087.453-1.54.453-.544 1.54-.544h12.689q2.084 0 2.084 2.084v.182q0 2.628.906 3.625.997.906 3.626.906h13.232q2.628 0 3.534-.906.997-.997.997-3.625v-8.61q0-2.629-.997-3.535-.906-.996-3.534-.997H495.62q-2.175 0-2.9.725-.726.635-1.088 2.085-.272 1.269-1.903 1.269h-12.145q-1.087 0-1.54-.454-.454-.453-.454-1.54v-33.805q0-1.088.454-1.541.453-.453 1.54-.453h47.219q1.087 0 1.54.453.544.453.544 1.541v8.428q0 1.088-.544 1.541-.453.453-1.54.453h-33.534v12.145h.816q1.812-2.63 7.251-2.629h15.407q7.885 0 11.419 3.626 3.625 3.534 3.625 11.51v11.691q0 7.976-3.625 11.601-3.534 3.534-11.419 3.534z" fill="#EAE7E0"/></svg>