<svg width="286" height="286" viewBox="0 0 286 286" fill="none" xmlns="http://www.w3.org/2000/svg"><path d="M142.747.78c78.382 0 141.924 63.542 141.924 141.924s-63.542 141.924-141.924 141.924S.823 221.086.823 142.704 64.365.78 142.747.78" fill="#1C222F"/><path d="M142.747.78c78.382 0 141.924 63.542 141.924 141.924s-63.542 141.924-141.924 141.924S.823 221.086.823 142.704 64.365.78 142.747.78Z" stroke="#EAE7E0" stroke-width=".818"/><g clip-path="url(#a)"><path d="m102.464 187.384-8.962-100.51h98.468l-8.969 100.496-40.328 11.174z" fill="#E44D26"/><path d="m175.347 180.971 7.667-85.879h-40.252v94.914z" fill="#F16529"/><path d="M142.701 107.422H111.83l3.326 37.279h27.587v-12.327h-16.311l-1.128-12.622h17.439v-12.33zm.042 56.926-.052.014-13.729-3.706-.873-9.831h-12.382l1.728 19.355 25.252 6.98.056-.018z" fill="#EBEBEB"/><path d="M142.714 144.701h15.181l-1.396 15.983-13.75 3.71v12.825l25.273-7.004 3.386-37.848h-28.652zm30.585-33.971.293-3.308h-30.885v12.326h29.775l.245-2.771z" fill="#fff"/></g><defs><clipPath id="a"><path fill="#fff" d="M86.91 86.868h111.673V198.54H86.91z"/></clipPath></defs></svg>