<svg width="366" height="366" viewBox="0 0 366 366" fill="none" xmlns="http://www.w3.org/2000/svg"><path d="M183.476 1.454c100.496 0 181.964 81.469 181.964 181.965s-81.468 181.965-181.964 181.965c-100.497 0-181.965-81.469-181.965-181.965S82.979 1.454 183.476 1.454" fill="#1C222F"/><path d="M183.476 1.454c100.496 0 181.964 81.469 181.964 181.965s-81.468 181.965-181.964 181.965c-100.497 0-181.965-81.469-181.965-181.965S82.979 1.454 183.476 1.454Z" stroke="#EAE7E0" stroke-width="1.049"/><g clip-path="url(#a)"><path d="m131.846 240.695-11.49-128.86h126.242L235.1 240.677l-51.703 14.326z" fill="#E44D26"/><path d="m225.256 232.474 9.83-110.099h-51.605v121.683z" fill="#F16529"/><path d="M183.421 138.181h-39.578l4.264 47.792h35.368v-15.802h-20.912l-1.446-16.183h22.358v-15.807zm.054 72.982-.068.018-17.601-4.752-1.118-12.604h-15.874l2.214 24.814 32.375 8.948.072-.022z" fill="#EBEBEB"/><path d="M183.422 185.973h19.462l-1.789 20.492-17.628 4.756v16.442l32.401-8.979 4.34-48.522h-36.732zm39.211-43.551.376-4.241h-39.596v15.802h38.173l.314-3.552z" fill="#fff"/></g><defs><clipPath id="a"><path fill="#fff" d="M111.89 111.833h143.172v143.172H111.89z"/></clipPath></defs></svg>