<svg width="286" height="286" viewBox="0 0 286 286" fill="none" xmlns="http://www.w3.org/2000/svg"><path d="M142.851.78c78.382 0 141.923 63.542 141.923 141.924s-63.541 141.924-141.923 141.924S.927 221.086.927 142.704 64.468.78 142.85.78" fill="#EAE7E0"/><path d="M142.851.78c78.382 0 141.923 63.542 141.923 141.924s-63.541 141.924-141.923 141.924S.927 221.086.927 142.704 64.468.78 142.85.78Z" stroke="#1C222F" stroke-width=".818"/><g clip-path="url(#a)"><path d="m102.569 187.384-8.962-100.51h98.468l-8.969 100.496-40.328 11.174z" fill="#E44D26"/><path d="m175.448 180.971 7.667-85.879h-40.252v94.914z" fill="#F16529"/><path d="M142.809 107.422h-30.871l3.325 37.279h27.588v-12.327h-16.312l-1.127-12.622h17.439v-12.33zm.042 56.926-.053.014-13.729-3.706-.872-9.831h-12.382l1.727 19.355 25.253 6.98.056-.018z" fill="#EBEBEB"/><path d="M142.819 144.701H158l-1.396 15.983-13.75 3.71v12.825l25.274-7.004 3.385-37.848h-28.652zm30.586-33.971.293-3.308h-30.886v12.326h29.776l.244-2.771z" fill="#fff"/></g><defs><clipPath id="a"><path fill="#fff" d="M87.014 86.868h111.673V198.54H87.014z"/></clipPath></defs></svg>