<svg width="366" height="366" viewBox="0 0 366 366" fill="none" xmlns="http://www.w3.org/2000/svg"><path d="M182.642 1.49c100.496 0 181.964 81.468 181.964 181.965 0 100.496-81.468 181.964-181.964 181.964C82.145 365.419.677 283.951.677 183.455.677 82.958 82.145 1.49 182.642 1.49" fill="#EAE7E0"/><path d="M182.642 1.49c100.496 0 181.964 81.468 181.964 181.965 0 100.496-81.468 181.964-181.964 181.964C82.145 365.419.677 283.951.677 183.455.677 82.958 82.145 1.49 182.642 1.49Z" stroke="#1C222F" stroke-width="1.049"/><g clip-path="url(#a)"><path d="m131.011 240.733-11.49-128.859h126.242l-11.498 128.841-51.703 14.326z" fill="#E44D26"/><path d="m224.398 232.512 9.83-110.099h-51.605v121.683z" fill="#F16529"/><path d="M182.572 138.214h-39.578l4.264 47.793h35.368v-15.803h-20.912l-1.445-16.183h22.357v-15.807zm.054 72.982-.067.018-17.601-4.752-1.119-12.603h-15.874l2.215 24.813 32.374 8.948.072-.022z" fill="#EBEBEB"/><path d="M182.564 186.007h19.462l-1.79 20.491-17.628 4.756v16.442l32.402-8.979 4.34-48.522h-36.733zm39.211-43.552.376-4.241h-39.596v15.802h38.173l.313-3.552z" fill="#fff"/></g><defs><clipPath id="a"><path fill="#fff" d="M111.055 111.869h143.172v143.172H111.055z"/></clipPath></defs></svg>