<svg width="286" height="286" viewBox="0 0 286 286" fill="none" xmlns="http://www.w3.org/2000/svg"><path d="M142.841 1.284c78.382 0 141.924 63.542 141.924 141.924s-63.542 141.924-141.924 141.924S.917 221.59.917 143.208 64.458 1.284 142.841 1.284" fill="#fff"/><path d="M142.841 1.284c78.382 0 141.924 63.542 141.924 141.924s-63.542 141.924-141.924 141.924S.917 221.59.917 143.208 64.458 1.284 142.841 1.284Z" stroke="#ECE9E1" stroke-width=".818"/><g clip-path="url(#a)"><g clip-path="url(#b)"><path d="M179.825 87.372h-73.972c-11.202 0-20.283 9.08-20.283 20.282v71.108c0 11.202 9.081 20.283 20.283 20.283h73.972c11.202 0 20.283-9.081 20.283-20.283v-71.108c0-11.201-9.081-20.282-20.283-20.282" fill="#300"/><path d="M141.074 154.397h-17.75l-3.61 11.218a.894.894 0 0 1-.922.692h-8.99q-.77 0-.537-.847l15.367-44.265q.224-.692.461-1.567a16.6 16.6 0 0 0 .307-3.113.47.47 0 0 1 .09-.353.47.47 0 0 1 .448-.185h12.216q.536 0 .616.383l17.441 49.176q.231.767-.462.768h-9.988a.71.71 0 0 1-.768-.537zm-14.982-9.688h12.138a175 175 0 0 0-1.075-3.457 742 742 0 0 1-1.305-4.112l-1.384-4.378q-.692-2.19-1.268-4.228t-1.046-3.718h-.076a62 62 0 0 1-1.615 6.145q-1.074 3.46-2.19 7.07a205 205 0 0 1-2.179 6.678M166.57 124.124a5.578 5.578 0 0 1-4.226-1.691 6.08 6.08 0 0 1-1.612-4.38 5.63 5.63 0 0 1 1.729-4.255 5.9 5.9 0 0 1 1.962-1.251 5.9 5.9 0 0 1 2.293-.402q2.765 0 4.34 1.653a5.94 5.94 0 0 1 1.567 4.255 5.994 5.994 0 0 1-1.652 4.38 5.9 5.9 0 0 1-4.401 1.691m-5.301 41.412v-36.727q0-.692.614-.692h9.448c.408 0 .614.224.614.692v36.727q0 .767-.614.768h-9.37q-.692.002-.692-.768" fill="#FF9A00"/></g></g><defs><clipPath id="a"><path fill="#fff" d="M85.57 85.932h114.537v114.553H85.57z"/></clipPath><clipPath id="b"><path fill="#fff" d="M85.57 87.372h114.537v111.673H85.57z"/></clipPath></defs></svg>