<svg width="1115" height="264" viewBox="0 0 1115 264" fill="none" xmlns="http://www.w3.org/2000/svg"><rect width="1115" height="264" rx="132" fill="#EAE7E0"/><path d="M242.486 113.381v36.706h11.51q1.088 0 1.541.544.453.453.453 1.54v9.245q0 1.087-.453 1.631-.453.453-1.541.453H214.3q-1.087 0-1.54-.453-.454-.544-.454-1.631v-9.245q0-1.087.454-1.54.453-.544 1.54-.544h11.42v-36.706H214.3q-1.087 0-1.54-.453t-.454-1.54v-9.335q0-1.088.454-1.541.453-.453 1.54-.453h39.696q1.088 0 1.541.453t.453 1.541v9.335q0 1.087-.453 1.54t-1.541.453zm26.411 50.119q-1.089 0-1.541-.453-.453-.544-.453-1.631v-59.363q0-1.088.453-1.541.452-.453 1.541-.453h12.688q1.087 0 1.54.453.544.453.544 1.541v46.493h30.815q1.087 0 1.54.453t.453 1.541v10.876q0 1.087-.453 1.631-.453.453-1.54.453zm58.237 0q-1.088 0-1.541-.453-.453-.544-.453-1.631v-59.363q0-1.088.453-1.541t1.541-.453h12.688q1.087 0 1.54.453.544.453.544 1.541v46.493h30.815q1.087 0 1.54.453t.453 1.541v10.876q0 1.087-.453 1.631-.453.453-1.54.453zm70.423.453q-8.247 0-12.235-3.988t-3.987-12.235v-45.677q0-1.088.453-1.541.543-.453 1.631-.453h12.688q1.088 0 1.541.453t.453 1.541v41.962q0 2.718 1.088 3.897 1.177 1.087 3.897 1.087h14.954q2.718 0 3.806-1.087 1.179-1.179 1.179-3.897v-41.962q0-1.088.453-1.541.543-.453 1.631-.453h12.688q1.088 0 1.541.453t.453 1.541v45.677q0 8.339-3.988 12.326-3.897 3.897-12.144 3.897zm69.779 0q-7.886 0-11.51-3.534-3.535-3.625-3.535-11.601v-3.625q0-1.088.453-1.541t1.541-.453h13.051q1.087 0 1.54.453.544.453.544 1.541v1.722q0 2.628.906 3.625.997.906 3.626.906h14.682q2.628 0 3.534-.906.997-.997.997-3.625v-4.713q0-2.628-.997-3.535-.906-.996-3.534-.997h-20.845q-7.885 0-11.51-3.534-3.535-3.626-3.535-11.51v-7.976q0-7.885 3.535-11.419 3.625-3.625 11.51-3.625h26.645q7.885 0 11.419 3.625 3.626 3.534 3.626 11.419v3.626q0 1.087-.453 1.54-.454.453-1.541.453h-13.051q-1.088 0-1.541-.453t-.453-1.54v-1.722q0-2.63-.997-3.535-.906-.997-3.534-.997h-13.867q-2.628 0-3.625.997-.906.906-.906 3.535v4.803q0 2.629.906 3.625.997.906 3.625.906h20.845q7.885 0 11.42 3.626 3.625 3.535 3.625 11.419v7.885q0 7.976-3.625 11.601-3.535 3.534-11.42 3.534zm103.331-63.894q1.087 0 1.541.453.543.453.543 1.541v10.875q0 2.085-2.084 2.085h-18.761v46.403q0 2.084-2.084 2.084h-12.688q-1.088 0-1.541-.453-.453-.544-.453-1.631v-46.403h-18.851q-1.088 0-1.541-.453-.453-.544-.453-1.632v-10.875q0-1.088.453-1.541t1.541-.453zm66.286 60.36q.634.815.634 1.45 0 .725-.543 1.178-.454.453-1.36.453h-14.863q-1.088 0-1.813-.272-.635-.363-1.269-1.269l-19.032-23.835h-1.903v23.292q0 2.084-2.085 2.084h-12.688q-1.088 0-1.541-.453-.453-.544-.453-1.631v-59.363q0-1.088.453-1.541t1.541-.453h39.605q7.885 0 11.42 3.625 3.625 3.535 3.625 11.419v8.792q0 7.884-3.535 11.51-3.534 3.625-11.238 3.625h-2.9zm-40.149-47.038v13.142h18.579q2.628 0 3.534-.906.997-.997.997-3.626v-4.078q0-2.628-.997-3.535-.906-.996-3.534-.997zm108.931 47.491q.09.362.09.997 0 1.63-1.812 1.631h-11.691q-1.995 0-2.357-1.631l-2.447-9.517h-25.829l-2.447 9.517q-.273.906-.907 1.268-.543.363-1.54.363h-11.692q-1.812 0-1.812-1.631 0-.635.09-.997l15.226-59.182q.544-1.63 2.447-1.631h27.008q1.903 0 2.447 1.631zm-27.008-46.222h-8.338l-4.26 17.039-1.812 6.888h20.573l-1.813-6.888zm82.228-14.591q1.087 0 1.541.453.543.453.543 1.541v10.875q0 2.085-2.084 2.085h-18.761v46.403q0 2.084-2.084 2.084h-12.688q-1.088 0-1.541-.453-.453-.544-.453-1.631v-46.403h-18.851q-1.088 0-1.541-.453-.453-.544-.453-1.632v-10.875q0-1.088.453-1.541t1.541-.453zm24.255 63.894q-8.338 0-12.326-3.897-3.897-3.987-3.897-12.326v-31.992q0-8.338 3.897-12.235 3.988-3.897 12.326-3.897h29.183q8.337 0 12.235 3.897 3.987 3.897 3.987 12.235v31.992q0 8.339-3.987 12.326-3.898 3.897-12.235 3.897zm23.654-14.319q2.72 0 3.807-1.088 1.178-1.178 1.178-3.897v-25.83q0-2.718-1.178-3.806-1.088-1.178-3.807-1.178h-18.126q-2.718 0-3.897 1.178-1.087 1.088-1.087 3.806v25.83q0 2.72 1.087 3.897 1.179 1.088 3.897 1.088zm92.279 10.785q.635.815.635 1.45 0 .725-.544 1.178-.453.453-1.359.453h-14.864q-1.087 0-1.812-.272-.635-.363-1.269-1.269l-19.033-23.835h-1.903v23.292q0 2.084-2.084 2.084h-12.688q-1.089 0-1.541-.453-.453-.544-.453-1.631v-59.363q0-1.088.453-1.541.452-.453 1.541-.453h39.605q7.884 0 11.419 3.625 3.626 3.535 3.626 11.419v8.792q0 7.884-3.535 11.51-3.534 3.625-11.238 3.625h-2.9zm-40.149-47.038v13.142h18.579q2.63 0 3.535-.906.997-.997.997-3.626v-4.078q0-2.628-.997-3.535-.906-.996-3.535-.997z" fill="#202020"/></svg>