<svg width="285" height="285" viewBox="0 0 285 285" fill="none" xmlns="http://www.w3.org/2000/svg"><rect x=".577" y=".617" width="283.848" height="283.848" rx="141.924" fill="#fff"/><rect x=".577" y=".617" width="283.848" height="283.848" rx="141.924" stroke="#ECE9E1" stroke-width=".818"/><g clip-path="url(#a)"><path d="M142.499 220.055c42.811 0 77.515-34.704 77.515-77.515s-34.704-77.515-77.515-77.515S64.984 99.73 64.984 142.54s34.705 77.515 77.515 77.515" fill="#001E36"/><path d="M113.928 74.382h-35.38c-5.98 0-9.911 3.765-9.911 8.029v83.66c3.93 12.403 10.963 23.476 20.098 32.28 3.765-1.274 6.589-3.654 6.589-7.198v-36.93h16.943c23.586 0 42.079-10.963 42.079-39.699v-.83c0-28.736-17.773-39.312-40.363-39.312zm13.676 42.246c0 11.627-5.814 17.109-15.393 17.109H95.269v-36.1h16.942c9.579 0 15.393 5.481 15.393 17.108zM175.996 142.097c0-2.547 2.934-5.481 9.744-5.481 9.247 0 14.562 5.149 19.158 5.149 6.146 0 9.578-9.08 9.578-12.458 0-7.198-14.174-12.291-29.068-12.291-24.306 0-32.168 13.675-32.168 26.355 0 28.736 40.03 20.707 40.03 32.501 0 2.38-1.55 5.647-10.575 5.647-13.676 0-17.607-7.696-23.088-7.696s-8.693 7.53-8.693 11.627c0 8.361 14.562 15.725 32.501 15.725 4.042 0 7.807-.388 11.129-1.108 9.468-8.582 16.832-19.434 21.15-31.781-5.426-22.59-39.643-17.33-39.643-26.133z" fill="#2BBBFA"/></g><defs><clipPath id="a"><path fill="#fff" d="M64.984 65.025h155.03v155.03H64.984z"/></clipPath></defs></svg>