<svg width="286" height="286" viewBox="0 0 286 286" fill="none" xmlns="http://www.w3.org/2000/svg"><path d="M142.95 1.284c78.383 0 141.924 63.542 141.924 141.924S221.332 285.132 142.95 285.132 1.026 221.59 1.026 143.208 64.568 1.284 142.95 1.284" fill="#EAE7E0"/><path d="M142.95 1.284c78.383 0 141.924 63.542 141.924 141.924S221.332 285.132 142.95 285.132 1.026 221.59 1.026 143.208 64.568 1.284 142.95 1.284Z" stroke="#1C222F" stroke-width=".818"/><g clip-path="url(#a)"><g clip-path="url(#b)"><path d="M179.936 87.372h-73.972c-11.201 0-20.282 9.08-20.282 20.282v71.108c0 11.202 9.08 20.283 20.282 20.283h73.972c11.202 0 20.283-9.081 20.283-20.283v-71.108c0-11.201-9.081-20.282-20.283-20.282" fill="#300"/><path d="M141.185 154.397h-17.749l-3.61 11.218a.9.9 0 0 1-.923.692h-8.989q-.77 0-.538-.847l15.367-44.265q.225-.692.462-1.567a17 17 0 0 0 .307-3.113.47.47 0 0 1 .227-.477.48.48 0 0 1 .31-.061h12.216q.537 0 .616.383l17.441 49.176q.23.767-.461.768h-9.988a.71.71 0 0 1-.768-.537zm-14.981-9.688h12.137a175 175 0 0 0-1.075-3.457q-.615-1.92-1.305-4.112l-1.384-4.378q-.692-2.19-1.268-4.228a1824 1824 0 0 1-1.045-3.718h-.077a62 62 0 0 1-1.614 6.145q-1.076 3.46-2.19 7.07a208 208 0 0 1-2.179 6.678M166.681 124.124a5.57 5.57 0 0 1-4.225-1.691 6.077 6.077 0 0 1-1.613-4.38 5.65 5.65 0 0 1 1.729-4.255 5.934 5.934 0 0 1 4.255-1.653q2.765 0 4.34 1.653a5.94 5.94 0 0 1 1.568 4.255 6 6 0 0 1-1.653 4.38 5.9 5.9 0 0 1-4.401 1.691m-5.3 41.412v-36.727q-.001-.692.613-.692h9.448c.408 0 .614.224.614.692v36.727q0 .767-.614.768h-9.369q-.692.002-.692-.768" fill="#FF9A00"/></g></g><defs><clipPath id="a"><path fill="#fff" d="M85.682 85.932h114.537v114.553H85.682z"/></clipPath><clipPath id="b"><path fill="#fff" d="M85.682 87.372h114.537v111.673H85.682z"/></clipPath></defs></svg>