<svg width="365" height="366" viewBox="0 0 365 366" fill="none" xmlns="http://www.w3.org/2000/svg"><path d="M182.499.9c100.496 0 181.965 81.468 181.965 181.965 0 100.496-81.469 181.965-181.965 181.965S.534 283.361.534 182.865 82.003.9 182.5.9" fill="#EAE7E0"/><path d="M182.499.9c100.496 0 181.965 81.468 181.965 181.965 0 100.496-81.469 181.965-181.965 181.965S.534 283.361.534 182.865 82.003.9 182.5.9Z" stroke="#1C222F" stroke-width="1.049"/><g clip-path="url(#a)"><g clip-path="url(#b)"><path d="M229.917 111.279H135.08c-14.361 0-26.004 11.642-26.004 26.004v91.164c0 14.362 11.643 26.004 26.004 26.004h94.837c14.361 0 26.003-11.642 26.003-26.004v-91.164c0-14.362-11.642-26.004-26.003-26.004" fill="#300"/><path d="M180.233 197.202h-22.755l-4.628 14.38a1.14 1.14 0 0 1-.43.659 1.14 1.14 0 0 1-.753.228h-11.524q-.987 0-.689-1.085l19.7-56.747q.288-.887.592-2.009c.256-1.315.387-2.651.393-3.991a.6.6 0 0 1 .115-.452.6.6 0 0 1 .402-.237.6.6 0 0 1 .172 0h15.661q.688 0 .79.491l22.358 63.043q.296.983-.591.984h-12.804a.91.91 0 0 1-.985-.689zm-19.207-12.42h15.561a235 235 0 0 0-1.378-4.433 868 868 0 0 1-1.674-5.271l-1.774-5.612a183 183 0 0 1-1.625-5.421q-.738-2.612-1.341-4.766h-.098a79 79 0 0 1-2.07 7.878 6771 6771 0 0 0-2.807 9.064 265 265 0 0 1-2.794 8.561M212.941 158.391a7.16 7.16 0 0 1-5.418-2.168 7.78 7.78 0 0 1-2.067-5.616 7.227 7.227 0 0 1 2.216-5.454 7.62 7.62 0 0 1 5.455-2.119q3.546 0 5.564 2.119a7.61 7.61 0 0 1 2.01 5.454 7.7 7.7 0 0 1-2.119 5.616 7.56 7.56 0 0 1-5.641 2.168m-6.796 53.089v-47.083q-.001-.888.787-.888h12.112c.523 0 .787.287.787.888v47.083c0 .654-.262.985-.787.985h-12.012q-.887.002-.887-.985" fill="#FF9A00"/></g></g><defs><clipPath id="a"><path fill="#fff" d="M109.076 109.433H255.92v146.864H109.076z"/></clipPath><clipPath id="b"><path fill="#fff" d="M109.076 111.279H255.92v143.172H109.076z"/></clipPath></defs></svg>