<svg width="366" height="366" viewBox="0 0 366 366" fill="none" xmlns="http://www.w3.org/2000/svg"><path d="M183.343.568c100.496 0 181.965 81.468 181.965 181.965 0 100.496-81.469 181.965-181.965 181.965S1.378 283.029 1.378 182.533 82.847.568 183.343.568" fill="#1C222F"/><path d="M183.343.568c100.496 0 181.965 81.468 181.965 181.965 0 100.496-81.469 181.965-181.965 181.965S1.378 283.029 1.378 182.533 82.847.568 183.343.568Z" stroke="#EAE7E0" stroke-width="1.049"/><g clip-path="url(#a)"><g clip-path="url(#b)"><path d="M230.761 110.947h-94.836c-14.362 0-26.004 11.642-26.004 26.004v91.164c0 14.362 11.642 26.004 26.004 26.004h94.836c14.362 0 26.004-11.642 26.004-26.004v-91.164c0-14.362-11.642-26.004-26.004-26.004" fill="#300"/><path d="M181.086 196.87h-22.755l-4.628 14.38a1.146 1.146 0 0 1-1.182.887h-11.524q-.988 0-.689-1.085l19.7-56.747a44 44 0 0 0 .591-2.01c.256-1.314.388-2.651.394-3.99a.6.6 0 0 1 .114-.452.6.6 0 0 1 .402-.237.6.6 0 0 1 .173 0h15.661q.687 0 .789.491l22.359 63.043q.297.983-.592.984h-12.804a.912.912 0 0 1-.985-.689zm-19.206-12.42h15.56a227 227 0 0 0-1.378-4.433q-.789-2.46-1.674-5.271l-1.774-5.613a185 185 0 0 1-1.625-5.42q-.738-2.612-1.34-4.766h-.098a80 80 0 0 1-2.07 7.878q-1.379 4.435-2.808 9.064a265 265 0 0 1-2.793 8.561M213.784 158.059a7.2 7.2 0 0 1-2.94-.506 7.2 7.2 0 0 1-2.477-1.662 7.8 7.8 0 0 1-2.067-5.616 7.23 7.23 0 0 1 2.216-5.454 7.62 7.62 0 0 1 5.455-2.119q3.546 0 5.564 2.119a7.6 7.6 0 0 1 2.009 5.454 7.67 7.67 0 0 1-2.118 5.616 7.56 7.56 0 0 1-5.642 2.168m-6.795 53.089v-47.084q0-.887.786-.887h12.113c.522 0 .786.287.786.887v47.084q0 .982-.786.984h-12.012q-.888.003-.887-.984" fill="#FF9A00"/></g></g><defs><clipPath id="a"><path fill="#fff" d="M109.921 109.101h146.844v146.864H109.921z"/></clipPath><clipPath id="b"><path fill="#fff" d="M109.921 110.947h146.844v143.172H109.921z"/></clipPath></defs></svg>