<svg width="1216" height="366" viewBox="0 0 1216 366" fill="none" xmlns="http://www.w3.org/2000/svg"><path d="M183.212 1.4h849.458c100.49 0 181.96 81.47 181.96 181.965 0 100.497-81.47 181.966-181.96 181.966H183.213c-100.497 0-181.966-81.469-181.966-181.966C1.247 82.869 82.716 1.401 183.212 1.401" fill="#EAE7E0"/><path d="M183.212 1.4h849.458c100.49 0 181.96 81.47 181.96 181.965 0 100.497-81.47 181.966-181.96 181.966H183.213c-100.497 0-181.966-81.469-181.966-181.966C1.247 82.869 82.716 1.401 183.212 1.401Z" stroke="#1C222F" stroke-width="1.049"/><g clip-path="url(#a)"><g clip-path="url(#b)"><path d="M367.606 111.78H224.434v143.172h143.172z" fill="#F7DF1E"/><path d="M320.617 223.634c2.883 4.708 6.635 8.17 13.271 8.17 5.575 0 9.136-2.787 9.136-6.636 0-4.614-3.659-6.248-9.795-8.932l-3.363-1.443c-9.709-4.136-16.158-9.317-16.158-20.271 0-10.09 7.688-17.772 19.703-17.772 8.554 0 14.704 2.978 19.135 10.772l-10.476 6.727c-2.307-4.136-4.796-5.765-8.659-5.765-3.941 0-6.438 2.5-6.438 5.765 0 4.036 2.5 5.67 8.272 8.17l3.363 1.441c11.432 4.902 17.886 9.899 17.886 21.135 0 12.113-9.516 18.749-22.294 18.749-12.495 0-20.567-5.954-24.517-13.758zM273.09 224.8c2.114 3.749 4.036 6.919 8.659 6.919 4.42 0 7.208-1.729 7.208-8.453v-45.747h13.454v45.928c0 13.931-8.168 20.272-20.09 20.272-10.772 0-17.01-5.575-20.182-12.289z" fill="#000"/></g></g><path fill-rule="evenodd" clip-rule="evenodd" d="M692.951 230.647v-8.108q11.104 7.032 22.496 7.032 12.113 0 18.386-4.987 6.272-4.988 6.272-13.958 0-7.893-4.218-12.594-4.066-4.531-17.286-12.234l-.992-.575q-15.718-9.114-19.899-15.249-4.182-6.136-4.182-14.173 0-10.908 8.508-18.514 8.508-7.607 22.712-7.607 9.228 0 18.458 3.086v7.463q-9.085-4.09-19.396-4.09-10.526 0-16.691 5.31t-6.165 13.491q0 7.893 4.218 12.558 4.217 4.665 18.206 12.702 14.492 8.18 19.287 14.531t4.795 14.604q0 11.84-8.256 19.303t-23.325 7.463q-5.335 0-12.293-1.65t-10.635-3.804m96.823 5.454q11.438 0 19.691-5.019V224.2q-8.252 5.879-19.401 5.879-12.162 0-19.582-8.676-7.42-8.674-7.421-22.944 0-14.769 8.109-24.054 8.107-9.285 21.138-9.285 9.483 0 17.447 4.875v-7.456q-7.964-3.442-16.433-3.442-16.361 0-26.786 11.149-10.425 11.15-10.424 28.644 0 16.633 9.266 26.923 9.266 10.288 24.396 10.288m63.241-68.64q-3.296-2.379-7.738-2.379-8.67 0-14.546 9.012t-5.875 25.596v34.681h-6.449v-73.832h6.449v16.367h.287q2.506-8.436 7.953-13.122 5.445-4.687 12.611-4.687 4.085 0 7.308 1.298zm10.333-26.431q1.679 1.629 3.871 1.628 2.337 0 4.016-1.702 1.681-1.702 1.681-4.069 0-2.517-1.717-3.996-1.716-1.48-3.98-1.48-2.12 0-3.835 1.517-1.716 1.517-1.717 3.959 0 2.515 1.681 4.143m.05 93.341v-73.543h6.922v73.543zm29.092-13.091h.287q7.886 14.847 24.377 14.846 14.77 0 23.767-11.368t8.998-29.8q0-16.567-7.851-26.214-7.85-9.647-21.831-9.647-8.819 0-16.168 4.411-7.35 4.412-11.292 12.516h-.287V160.89h-6.596v107.224h6.596zm.325-27.333v9.239q0 11.03 7.024 18.944 7.023 7.915 18.464 7.915 11.367 0 18.464-9.634 7.095-9.633 7.096-25.318 0-13.752-6.517-21.846-6.516-8.093-17.378-8.093-12.96 0-20.057 8.595-7.096 8.594-7.096 20.198m89.008 42.154q4.491 0 9.627-2.435v-6.159c-3.139 1.767-6.059 2.65-8.774 2.65q-5.704 0-8.092-3.402-2.388-3.401-2.388-10.993v-48.413h19.254v-6.016h-19.254v-21.27c-1.048.382-2.136.74-3.282 1.074q-1.71.573-3.276 1.146v19.05h-13.123v6.016h13.123v49.273q0 19.479 16.185 19.479" fill="#1C222F"/><path d="M680.073 229.555h-16.524v-11.75h-.294q-7.783 13.513-22.839 13.513-11.089 0-17.404-6.022-6.243-6.022-6.242-15.936 0-21.297 24.528-24.822l22.325-3.158q0-16.083-15.275-16.083-13.44 0-24.235 9.254v-14.908q11.898-7.05 27.466-7.05 28.494 0 28.494 28.053zm-16.45-36.939-15.789 2.203q-7.344.955-11.09 3.599-3.67 2.57-3.671 9.106 0 4.773 3.378 7.858 3.452 3.01 9.179 3.011 7.785 0 12.852-5.435 5.14-5.508 5.141-13.806zM613.258 154.353l-29.081 75.2h-18.433l-27.685-75.2h18.506l16.67 52.581q1.91 5.802 2.35 10.134h.22q.661-5.434 2.057-9.84l17.478-52.875zM527.608 229.555h-16.524v-11.75h-.293q-7.785 13.513-22.839 13.513-11.09 0-17.405-6.022-6.243-6.022-6.242-15.936 0-21.297 24.528-24.822l22.325-3.158q0-16.083-15.275-16.083-13.44 0-24.235 9.254v-14.908q11.898-7.05 27.466-7.05 28.494 0 28.494 28.053zm-16.45-36.939-15.789 2.203q-7.344.955-11.089 3.599-3.672 2.57-3.672 9.106 0 4.773 3.378 7.858 3.452 3.01 9.18 3.011 7.784 0 12.851-5.435 5.14-5.508 5.141-13.806zM448.523 191.808q0 18.726-9.253 29.155-9.254 10.354-24.675 10.354-7.197 0-11.824-1.689v-16.45q4.187 2.864 10.796 2.864 17.478 0 17.478-27.025v-64.771h17.478z" fill="#1C222F"/><defs><clipPath id="a"><path fill="#fff" d="M224.43 111.78h143.172v143.172H224.43z"/></clipPath><clipPath id="b"><rect x="224.43" y="111.78" width="143.172" height="143.172" rx="29.828" fill="#fff"/></clipPath></defs></svg>