<svg width="876" height="286" viewBox="0 0 876 286" fill="none" xmlns="http://www.w3.org/2000/svg"><path d="M142.586.792h590.416c78.384 0 141.927 63.543 141.927 141.927s-63.543 141.927-141.927 141.927H142.586C64.202 284.646.659 221.103.659 142.719S64.202.792 142.586.792" fill="#1C222F"/><path d="M142.586.792h590.416c78.384 0 141.927 63.543 141.927 141.927s-63.543 141.927-141.927 141.927H142.586C64.202 284.646.659 221.103.659 142.719S64.202.792 142.586.792Z" stroke="#EAE7E0" stroke-width=".818"/><g clip-path="url(#a)"><g clip-path="url(#b)"><path d="M286.403 86.883H174.73v111.673h111.673z" fill="#F7DF1E"/><path d="M249.76 174.126c2.249 3.673 5.176 6.372 10.352 6.372 4.348 0 7.126-2.173 7.126-5.176 0-3.598-2.854-4.873-7.64-6.966l-2.624-1.126c-7.572-3.226-12.603-7.268-12.603-15.812 0-7.87 5.997-13.862 15.369-13.862 6.672 0 11.468 2.323 14.925 8.403l-8.172 5.247c-1.799-3.227-3.74-4.498-6.753-4.498-3.074 0-5.022 1.95-5.022 4.498 0 3.148 1.95 4.422 6.452 6.372l2.624 1.124c8.916 3.824 13.95 7.722 13.95 16.485 0 9.449-7.422 14.625-17.389 14.625-9.746 0-16.043-4.645-19.123-10.732zm-37.071.909c1.648 2.925 3.148 5.398 6.753 5.398 3.448 0 5.623-1.349 5.623-6.595v-35.682h10.494v35.824c0 10.866-6.371 15.812-15.67 15.812-8.402 0-13.268-4.348-15.743-9.585z" fill="#000"/></g></g><path d="M653.168 127.219q8.928.001 13.942 6.162t5.014 16.741q0 11.772-5.746 19.032t-15.18 7.26q-10.531 0-15.568-9.482h-.184v29.911h-4.212v-68.478h4.212v9.665h.184q2.519-5.176 7.212-7.993t10.326-2.818m-124.85-18.787q5.895 0 11.788 1.971v4.767q-5.802-2.613-12.386-2.613-6.723 0-10.66 3.391t-3.937 8.616q0 5.042 2.693 8.021t11.627 8.112q9.256 5.224 12.318 9.28t3.062 9.326q0 7.562-5.272 12.329-5.273 4.766-14.897 4.766-3.407 0-7.85-1.054-4.444-1.054-6.792-2.429v-5.179q7.09 4.492 14.367 4.492 7.736 0 11.741-3.185 4.007-3.186 4.007-8.914 0-5.042-2.694-8.043-2.598-2.894-11.04-7.814l-.633-.367q-10.038-5.82-12.709-9.739t-2.671-9.052q0-6.966 5.433-11.823 5.434-4.859 14.505-4.859m43.795 18.787q5.41 0 10.495 2.199v4.761q-5.085-3.113-11.142-3.113-8.322 0-13.5 5.93t-5.179 15.362q0 9.113 4.739 14.653 4.74 5.54 12.506 5.541 7.12 0 12.391-3.754v4.395q-5.271 3.205-12.575 3.205-9.663 0-15.581-6.57-5.918-6.572-5.918-17.195 0-11.174 6.658-18.293 6.657-7.12 17.106-7.121m114.239 1.428h12.295v3.842h-12.295v30.92q0 4.848 1.524 7.02 1.526 2.173 5.168 2.173 2.599 0 5.603-1.692v3.933q-3.28 1.554-6.148 1.555-10.335 0-10.336-12.44v-31.469h-8.381v-3.842h8.381v-12.166a80 80 0 0 1 2.092-.732 34 34 0 0 0 2.097-.686zm-303.968-1.448q17.792 0 17.792 17.518v30.54h-10.318v-7.337h-.183q-4.861 8.437-14.262 8.437-6.924 0-10.867-3.76-3.899-3.76-3.899-9.951 0-13.297 15.317-15.499l13.94-1.972q0-10.042-9.538-10.042-8.391 0-15.133 5.777v-9.309q7.43-4.402 17.151-4.402m95.188 0q17.793 0 17.792 17.518v30.54h-10.317v-7.337h-.184q-4.86 8.437-14.26 8.437-6.925 0-10.869-3.76-3.897-3.76-3.897-9.951 0-13.297 15.315-15.499l13.941-1.972q0-10.042-9.538-10.042-8.392 0-15.133 5.777v-9.309q7.428-4.402 17.15-4.402m-126.791 24.483q0 11.694-5.777 18.204-5.778 6.466-15.407 6.466-4.494 0-7.382-1.054v-10.272q2.613 1.788 6.74 1.788 10.914 0 10.913-16.874v-40.443h10.913zm254.787-24.463q2.61 0 4.668.83v4.512q-2.105-1.52-4.941-1.519-5.538 0-9.29 5.756-3.753 5.756-3.753 16.346v22.149h-4.118V128.14h4.118v10.454h.184q1.6-5.388 5.079-8.381t8.053-2.994m15.72 48.074h-4.421v-46.968h4.421zm-192.633-14.166q1.193 3.622 1.468 6.328h.137q.413-3.393 1.284-6.145l10.914-33.016h11.188l-18.158 46.957h-11.51l-17.288-46.957h11.556zm224.341-30.039q-8.277 0-12.809 5.489-4.533 5.489-4.532 12.899v5.901q0 7.044 4.486 12.098t11.792 5.055q7.259 0 11.792-6.152 4.531-6.153 4.531-16.17 0-8.782-4.162-13.951t-11.098-5.169m-272.951 22.478q-4.586.597-6.924 2.247-2.293 1.605-2.293 5.687 0 2.98 2.11 4.906 2.154 1.88 5.731 1.881 4.86 0 8.025-3.394 3.21-3.438 3.21-8.621v-4.081zm95.188 0q-4.584.597-6.923 2.247-2.293 1.605-2.293 5.687 0 2.98 2.109 4.906 2.156 1.88 5.732 1.881 4.862 0 8.025-3.394 3.21-3.438 3.21-8.621v-4.081zm144.075-44.028q1.446 0 2.542.945t1.096 2.552q0 1.512-1.073 2.599-1.072 1.086-2.565 1.086-1.4.001-2.473-1.039t-1.073-2.646q0-1.56 1.096-2.528 1.097-.969 2.45-.969" fill="#fff"/><defs><clipPath id="a"><path fill="#fff" d="M174.73 86.883h111.673v111.673H174.73z"/></clipPath><clipPath id="b"><rect x="174.73" y="86.883" width="111.673" height="111.673" rx="23.264" fill="#fff"/></clipPath></defs></svg>