<svg width="876" height="286" viewBox="0 0 876 286" fill="none" xmlns="http://www.w3.org/2000/svg"><path d="M142.586.792h590.416c78.384 0 141.927 63.543 141.927 141.927s-63.543 141.927-141.927 141.927H142.586C64.202 284.646.659 221.103.659 142.719S64.202.792 142.586.792" fill="#fff"/><path d="M142.586.792h590.416c78.384 0 141.927 63.543 141.927 141.927s-63.543 141.927-141.927 141.927H142.586C64.202 284.646.659 221.103.659 142.719S64.202.792 142.586.792Z" stroke="#ECE9E1" stroke-width=".818"/><g clip-path="url(#a)"><g clip-path="url(#b)"><path d="M286.403 86.883H174.73v111.673h111.673z" fill="#F7DF1E"/><path d="M249.762 174.126c2.249 3.673 5.176 6.372 10.352 6.372 4.348 0 7.126-2.173 7.126-5.176 0-3.598-2.854-4.873-7.64-6.966l-2.624-1.126c-7.572-3.226-12.603-7.268-12.603-15.812 0-7.87 5.997-13.862 15.369-13.862 6.672 0 11.468 2.323 14.925 8.403l-8.172 5.247c-1.799-3.227-3.74-4.498-6.753-4.498-3.074 0-5.022 1.95-5.022 4.498 0 3.148 1.95 4.422 6.452 6.372l2.623 1.124c8.917 3.824 13.951 7.722 13.951 16.485 0 9.449-7.422 14.625-17.389 14.625-9.746 0-16.043-4.645-19.123-10.732zm-37.071.909c1.648 2.925 3.148 5.398 6.753 5.398 3.448 0 5.623-1.349 5.623-6.595v-35.682h10.494v35.824c0 10.866-6.371 15.812-15.67 15.812-8.402 0-13.268-4.348-15.743-9.585z" fill="#000"/></g></g><path d="M653.164 127.219q8.93 0 13.942 6.162 5.015 6.16 5.015 16.741 0 11.772-5.747 19.032t-15.179 7.26q-10.531 0-15.568-9.482h-.184v29.911h-4.212v-68.478h4.212v9.665h.184q2.518-5.175 7.211-7.993 4.693-2.817 10.326-2.818m-124.849-18.787q5.895 0 11.789 1.971v4.767q-5.804-2.613-12.387-2.613-6.723 0-10.66 3.391t-3.938 8.616q0 5.042 2.694 8.021t11.627 8.112q9.257 5.224 12.318 9.28t3.062 9.326q0 7.562-5.272 12.329-5.273 4.766-14.897 4.766-3.407 0-7.851-1.054-4.443-1.054-6.792-2.429v-5.179q7.09 4.492 14.367 4.492 7.736 0 11.742-3.185t4.006-8.914q0-5.042-2.693-8.043-2.598-2.894-11.04-7.814l-.634-.367q-10.038-5.82-12.709-9.739t-2.67-9.052q0-6.966 5.433-11.823 5.434-4.859 14.505-4.859m43.794 18.787q5.41 0 10.495 2.199v4.761q-5.085-3.113-11.142-3.113-8.322 0-13.5 5.93t-5.178 15.362q0 9.113 4.739 14.653 4.74 5.541 12.506 5.541 7.12 0 12.391-3.754v4.395q-5.271 3.205-12.575 3.205-9.663 0-15.581-6.57-5.918-6.572-5.918-17.195 0-11.174 6.657-18.293 6.658-7.12 17.106-7.121m114.239 1.428h12.297v3.842h-12.297v30.92q0 4.848 1.525 7.02 1.526 2.173 5.168 2.173c1.734 0 3.599-.564 5.604-1.692v3.933q-3.28 1.554-6.149 1.555-10.336 0-10.336-12.44v-31.469h-8.382v-3.842h8.382v-12.166a80 80 0 0 1 2.092-.732 34 34 0 0 0 2.096-.686zm-303.968-1.448q17.792 0 17.793 17.518v30.54h-10.319v-7.337h-.183q-4.861 8.437-14.261 8.437-6.924 0-10.868-3.76-3.898-3.76-3.897-9.951 0-13.297 15.315-15.499l13.94-1.972q0-10.042-9.538-10.042-8.391 0-15.132 5.777v-9.309q7.429-4.402 17.15-4.402m95.189 0q17.793 0 17.792 17.518v30.54h-10.317v-7.337h-.184q-4.86 8.437-14.261 8.437-6.924 0-10.868-3.76-3.898-3.76-3.898-9.951 0-13.297 15.316-15.499l13.941-1.972q0-10.042-9.538-10.042-8.392 0-15.133 5.777v-9.309q7.428-4.402 17.15-4.402m-126.791 24.483q0 11.693-5.777 18.204-5.778 6.466-15.407 6.466-4.494 0-7.383-1.054v-10.272q2.614 1.788 6.741 1.788 10.913 0 10.913-16.874v-40.443h10.913zm254.787-24.463q2.61 0 4.668.83v4.512q-2.105-1.52-4.942-1.519-5.536 0-9.289 5.756t-3.753 16.346v22.149h-4.118V128.14h4.118v10.454h.184q1.6-5.388 5.079-8.381 3.477-2.994 8.053-2.994m15.719 48.074h-4.42v-46.968h4.42zm-192.632-14.166q1.192 3.622 1.467 6.328h.138q.412-3.393 1.284-6.145l10.913-33.016h11.19l-18.16 46.957h-11.509l-17.288-46.957h11.555zm224.34-30.039q-8.277 0-12.809 5.489t-4.532 12.899v5.901q0 7.044 4.486 12.098t11.792 5.055q7.26 0 11.792-6.152t4.532-16.17q0-8.783-4.162-13.951-4.163-5.169-11.099-5.169m-272.95 22.478q-4.586.597-6.925 2.247-2.293 1.605-2.293 5.687 0 2.98 2.11 4.906 2.154 1.88 5.732 1.881 4.86 0 8.024-3.394 3.21-3.438 3.21-8.621v-4.081zm95.188 0q-4.586.597-6.924 2.247-2.293 1.605-2.292 5.687 0 2.98 2.109 4.906 2.155 1.88 5.731 1.881 4.861 0 8.026-3.394 3.21-3.438 3.21-8.621v-4.081zm144.074-44.028q1.446 0 2.543.945 1.095.945 1.095 2.552 0 1.512-1.073 2.599-1.073 1.086-2.565 1.086-1.4 0-2.472-1.039-1.073-1.04-1.073-2.646 0-1.56 1.095-2.528 1.097-.969 2.45-.969" fill="#1C222F"/><defs><clipPath id="a"><path fill="#fff" d="M174.73 86.883h111.673v111.673H174.73z"/></clipPath><clipPath id="b"><rect x="174.73" y="86.883" width="111.673" height="111.673" rx="23.264" fill="#fff"/></clipPath></defs></svg>