<svg width="1216" height="366" viewBox="0 0 1216 366" fill="none" xmlns="http://www.w3.org/2000/svg"><path d="M183.249.803h849.461c100.49 0 181.96 81.469 181.96 181.965s-81.47 181.966-181.96 181.966H183.25c-100.496 0-181.966-81.469-181.966-181.966C1.284 82.272 82.753.804 183.25.803" fill="#1C222F"/><path d="M183.249.803h849.461c100.49 0 181.96 81.469 181.96 181.965s-81.47 181.966-181.96 181.966H183.25c-100.496 0-181.966-81.469-181.966-181.966C1.284 82.272 82.753.804 183.25.803Z" stroke="#EAE7E0" stroke-width="1.049"/><g clip-path="url(#a)"><g clip-path="url(#b)"><path d="M367.638 111.183H224.466v143.172h143.172z" fill="#F7DF1E"/><path d="M320.639 223.037c2.884 4.708 6.636 8.169 13.272 8.169 5.574 0 9.136-2.786 9.136-6.636 0-4.613-3.659-6.247-9.795-8.931l-3.364-1.443c-9.708-4.136-16.158-9.317-16.158-20.271 0-10.09 7.688-17.772 19.704-17.772 8.554 0 14.703 2.977 19.135 10.772l-10.477 6.727c-2.307-4.136-4.795-5.765-8.658-5.765-3.941 0-6.439 2.499-6.439 5.765 0 4.036 2.5 5.67 8.273 8.17l3.363 1.441c11.431 4.902 17.885 9.899 17.885 21.135 0 12.113-9.515 18.749-22.294 18.749-12.494 0-20.567-5.955-24.516-13.759zm-47.526 1.165c2.113 3.75 4.036 6.92 8.658 6.92 4.42 0 7.209-1.729 7.209-8.454v-45.747h13.453v45.929c0 13.931-8.167 20.272-20.089 20.272-10.772 0-17.01-5.575-20.183-12.289z" fill="#000"/></g></g><path fill-rule="evenodd" clip-rule="evenodd" d="M692.983 230.043v-8.109q11.104 7.032 22.496 7.033 12.113 0 18.386-4.988 6.273-4.987 6.272-13.957 0-7.894-4.217-12.594-4.068-4.533-17.286-12.235l-.992-.574q-15.718-9.114-19.9-15.25t-4.182-14.172q0-10.908 8.508-18.515 8.508-7.606 22.712-7.606 9.229 0 18.458 3.085v7.463q-9.086-4.09-19.395-4.09-10.527 0-16.692 5.31-6.164 5.312-6.164 13.491 0 7.894 4.218 12.559 4.217 4.664 18.205 12.701 14.493 8.181 19.287 14.532t4.795 14.603q0 11.84-8.256 19.304t-23.324 7.463q-5.335 0-12.294-1.651-6.957-1.65-10.635-3.803m96.824 5.454q11.438 0 19.69-5.019v-6.883q-8.251 5.88-19.401 5.879-12.162 0-19.582-8.675t-7.42-22.944q0-14.77 8.108-24.055 8.107-9.285 21.138-9.285 9.484 0 17.447 4.876v-7.457q-7.963-3.441-16.433-3.441-16.362 0-26.785 11.149-10.425 11.149-10.425 28.643 0 16.635 9.266 26.923 9.267 10.289 24.397 10.289m63.241-68.64q-3.296-2.38-7.739-2.38-8.67 0-14.545 9.013-5.876 9.012-5.876 25.596v34.681h-6.449v-73.832h6.449v16.367h.287q2.507-8.436 7.953-13.123t12.611-4.686q4.084 0 7.309 1.298zm10.332-26.431q1.68 1.628 3.871 1.628 2.337 0 4.017-1.702t1.68-4.07q0-2.516-1.716-3.996-1.717-1.48-3.981-1.48-2.119 0-3.835 1.517t-1.716 3.959q0 2.516 1.68 4.144m.05 93.341v-73.544h6.922v73.544zm29.092-13.092h.287q7.887 14.847 24.377 14.847 14.77 0 23.767-11.368 8.999-11.368 8.999-29.8 0-16.569-7.851-26.215-7.85-9.646-21.832-9.646-8.819 0-16.168 4.411t-11.292 12.515h-.287v-15.133h-6.596v107.223h6.596zm.326-27.333v9.239q0 11.031 7.023 18.945t18.464 7.914q11.368 0 18.464-9.633t7.096-25.319q0-13.752-6.517-21.845-6.517-8.094-17.377-8.094-12.961 0-20.058 8.595-7.095 8.595-7.095 20.198m89.007 42.155q4.491 0 9.627-2.435v-6.159c-3.139 1.766-6.059 2.65-8.774 2.65q-5.704 0-8.092-3.402t-2.388-10.993v-48.414h19.254v-6.015h-19.254v-21.271c-1.048.382-2.136.74-3.281 1.074q-1.712.573-3.276 1.146v19.051h-13.124v6.015h13.124v49.273q0 19.48 16.184 19.48" fill="#fff"/><path d="M680.1 228.96h-16.524v-11.75h-.293q-7.785 13.513-22.839 13.513-11.09 0-17.405-6.022-6.242-6.023-6.242-15.936 0-21.297 24.528-24.822l22.325-3.158q0-16.082-15.275-16.082-13.44 0-24.234 9.253v-14.908q11.896-7.05 27.465-7.05 28.494 0 28.494 28.053zm-16.45-36.939-15.789 2.204q-7.344.954-11.089 3.598-3.672 2.57-3.672 9.106 0 4.773 3.378 7.858 3.452 3.01 9.18 3.011 7.784 0 12.851-5.434 5.14-5.508 5.141-13.807zM613.281 153.758l-29.081 75.2h-18.433l-27.686-75.2h18.506l16.671 52.581q1.909 5.802 2.35 10.135h.22q.66-5.434 2.056-9.841l17.478-52.875zM527.649 228.96h-16.524v-11.75h-.293q-7.785 13.513-22.839 13.513-11.09 0-17.405-6.022-6.242-6.023-6.242-15.936 0-21.297 24.528-24.822l22.325-3.158q0-16.082-15.275-16.082-13.44 0-24.235 9.253v-14.908q11.898-7.05 27.466-7.05 28.494 0 28.494 28.053zm-16.45-36.939-15.789 2.204q-7.344.954-11.089 3.598-3.672 2.57-3.672 9.106 0 4.773 3.378 7.858 3.451 3.01 9.18 3.011 7.784 0 12.851-5.434 5.14-5.508 5.141-13.807zM448.554 191.211q0 18.726-9.253 29.154-9.253 10.355-24.675 10.355-7.197 0-11.823-1.689v-16.45q4.186 2.864 10.795 2.864 17.478 0 17.478-27.025v-64.772h17.478z" fill="#fff"/><defs><clipPath id="a"><path fill="#fff" d="M224.466 111.183h143.172v143.172H224.466z"/></clipPath><clipPath id="b"><rect x="224.466" y="111.183" width="143.172" height="143.172" rx="29.828" fill="#fff"/></clipPath></defs></svg>