<svg width="578" height="264" viewBox="0 0 578 264" fill="none" xmlns="http://www.w3.org/2000/svg"><rect width="578" height="264" rx="132" fill="#202020"/><path d="M201.573 163.953q-8.338 0-12.326-3.897-3.897-3.987-3.897-12.326v-9.606q0-1.089.453-1.541.454-.544 1.541-.544h12.87q1.087 0 1.54.544.453.452.453 1.541v6.525q0 2.72 1.088 3.897 1.178 1.088 3.897 1.088h9.607q2.719 0 3.806-1.088 1.179-1.178 1.179-3.897v-30.361h-27.189q-1.089 0-1.541-.453-.453-.453-.453-1.541v-10.241q0-1.088.453-1.541.452-.453 1.541-.453h41.961q1.088 0 1.541.453t.453 1.541v45.677q0 8.339-3.988 12.326-3.897 3.897-12.144 3.897zm60.719-.453q-.997 0-1.541-.453t-.816-1.45l-14.229-59.635q-.18-.543-.181-.816 0-1.087 1.813-1.087h13.413q1.088 0 1.631.362.545.363.725 1.45l3.263 15.951 4.985 25.377h.815l9.698-41.328q.181-.996.725-1.359.543-.453 1.631-.453h12.507q1.087 0 1.632.453.543.363.725 1.359l9.697 41.328h.816l4.984-25.377 3.354-15.86q.181-1.087.634-1.45.544-.453 1.631-.453h13.504q1.632 0 1.632 1.178 0 .544-.091.816l-14.229 59.544q-.271.996-.816 1.45-.543.453-1.54.453h-16.767q-1.088 0-1.631-.453-.544-.453-.725-1.45l-8.701-36.524h-.725l-8.7 36.524q-.182.996-.725 1.45-.545.453-1.632.453zm131.742-63.441q1.088 0 1.541.453.544.453.544 1.541v10.875q0 2.085-2.085 2.085h-18.76v46.403q0 2.084-2.085 2.084h-12.688q-1.088 0-1.541-.453-.453-.544-.453-1.631v-46.403h-18.851q-1.088 0-1.541-.453-.453-.544-.453-1.632v-10.875q0-1.088.453-1.541t1.541-.453z" fill="#EAE7E0"/></svg>