<svg width="965" height="366" viewBox="0 0 965 366" fill="none" xmlns="http://www.w3.org/2000/svg"><path d="M182.602.798h599.102c100.497 0 181.965 81.47 181.965 181.966s-81.468 181.965-181.965 181.965H182.602C82.105 364.729.636 283.261.636 182.764S82.105.798 182.602.798" fill="#1C222F"/><path d="M182.602.798h599.102c100.497 0 181.965 81.47 181.965 181.966s-81.468 181.965-181.965 181.965H182.602C82.105 364.729.636 283.261.636 182.764S82.105.798 182.602.798Z" stroke="#EAE7E0" stroke-width="1.049"/><g clip-path="url(#a)"><path d="m276.841 140.306-49.592-28.822a2.293 2.293 0 0 0-3.137.858c-.199.352-.3.751-.294 1.155v80.199c0 .823.457 1.555 1.143 1.967l18.529 10.888a2.29 2.29 0 0 0 2.281.004 2.283 2.283 0 0 0 1.15-1.971v-52.337a.913.913 0 0 1 1.372-.778l28.594 16.378a9.15 9.15 0 0 0 9.149-.046l27.907-16.332a.92.92 0 0 1 .909-.004.91.91 0 0 1 .464.782v25.619a4.58 4.58 0 0 1-2.196 3.889l-28.73 17.659a2.29 2.29 0 0 0-1.098 1.968v25.802c0 .824.411 1.556 1.052 1.967l37.651 23.79a9.15 9.15 0 0 0 4.791 1.408 9.14 9.14 0 0 0 4.817-1.316l47.853-28.365a9.15 9.15 0 0 0 4.484-7.915v-49.455a2.3 2.3 0 0 0-1.161-2.004 2.28 2.28 0 0 0-2.316.037l-15.143 9.15a9.15 9.15 0 0 0-4.438 7.777V207.1a2.28 2.28 0 0 1-1.144 1.967l-28.318 16.699a9.15 9.15 0 0 1-9.333-.046l-15.235-9.15a2.283 2.283 0 0 1-.84-2.997c.175-.34.433-.631.749-.846l27.541-18.162a9.15 9.15 0 0 0 4.117-7.64v-73.428a2.29 2.29 0 0 0-2.291-2.274c-.4.001-.793.106-1.14.307l-48.952 28.776a9.14 9.14 0 0 1-9.195 0" fill="#007FFF"/><path d="M383.943 115.741v15.646a9.15 9.15 0 0 1-4.3 7.778l-15.098 9.378a2.286 2.286 0 0 1-3.477-1.967v-16.378a9.15 9.15 0 0 1 4.575-7.915l14.869-8.509c.347-.2.74-.306 1.14-.307a2.3 2.3 0 0 1 1.979 1.135c.202.346.31.739.312 1.139" fill="#007FFF"/><path d="M428.685 227.555v-90.377h22.346l37.541 52.141-16.486-.1 37.64-52.041h22.049v90.377h-24.532v-24.928c0-7.399.149-14.202.497-20.36a178 178 0 0 1 2.086-19.019l2.582 7.995-28.007 36.151h-8.541l-27.908-36.498 2.88-7.648c.993 6.207 1.688 12.415 2.036 18.622.348 6.158.497 13.11.497 20.757v24.928h-24.68m173.207.795c-8.79 0-16.586-1.738-23.34-5.165a39.1 39.1 0 0 1-15.791-14.351 39.33 39.33 0 0 1-5.512-20.806v-50.85h25.822v50.105c0 3.774.795 7.101 2.434 9.931 1.638 2.831 3.873 5.016 6.703 6.605a19.9 19.9 0 0 0 9.684 2.284c3.774 0 7.15-.745 10.08-2.284 2.98-1.589 5.314-3.774 6.952-6.605 1.738-2.83 2.583-6.157 2.583-9.931v-50.105h25.077v50.85a38.64 38.64 0 0 1-21.353 35.157c-6.605 3.427-14.401 5.165-23.339 5.165m71.557-.795v-21.452h20.807V158.63h-20.807v-21.452h67.038v21.452H719.78v47.473h20.657v21.452h-67.038z" fill="#fff"/></g><defs><clipPath id="a"><path fill="#fff" d="M223.817 111.177h516.669V254.35H223.817z"/></clipPath></defs></svg>