<svg width="753" height="285" viewBox="0 0 753 285" fill="none" xmlns="http://www.w3.org/2000/svg"><path d="M142.943.456H610.41C688.795.456 752.339 64 752.339 142.385c0 78.384-63.544 141.927-141.929 141.927H142.942c-78.384 0-141.927-63.543-141.927-141.927C1.015 64 64.558.456 142.943.456" fill="#EAE7E0"/><path d="M142.943.456H610.41C688.795.456 752.339 64 752.339 142.385c0 78.384-63.544 141.927-141.929 141.927H142.942c-78.384 0-141.927-63.543-141.927-141.927C1.015 64 64.558.456 142.943.456Z" stroke="#1C222F" stroke-width=".818"/><g clip-path="url(#a)"><path d="m216.439 109.267-38.677-22.481a1.783 1.783 0 0 0-2.676 1.57v62.556a1.8 1.8 0 0 0 .892 1.534l14.45 8.493a1.782 1.782 0 0 0 2.676-1.534v-40.824a.72.72 0 0 1 .362-.61.71.71 0 0 1 .709.003l22.299 12.776a7.14 7.14 0 0 0 7.136-.036l21.765-12.74a.708.708 0 0 1 .97.254.7.7 0 0 1 .1.353v19.984a3.57 3.57 0 0 1-1.713 3.033l-22.406 13.774a1.78 1.78 0 0 0-.857 1.535v20.126c0 .642.322 1.213.821 1.535l29.364 18.556a7.14 7.14 0 0 0 7.493.071l37.321-22.125a7.13 7.13 0 0 0 3.496-6.173v-38.576a1.78 1.78 0 0 0-1.812-1.794 1.8 1.8 0 0 0-.899.26l-11.81 7.137a7.138 7.138 0 0 0-3.461 6.066v19.377a1.782 1.782 0 0 1-.892 1.535l-22.086 13.025a7.14 7.14 0 0 1-7.278-.036l-11.882-7.137a1.8 1.8 0 0 1-.852-1.479 1.79 1.79 0 0 1 .781-1.518l21.479-14.167a7.13 7.13 0 0 0 3.211-5.96V88.356a1.79 1.79 0 0 0-.896-1.537 1.79 1.79 0 0 0-1.78.002l-38.177 22.446a7.14 7.14 0 0 1-7.171 0" fill="#007FFF"/><path d="M299.984 90.107v12.206a7.13 7.13 0 0 1-3.354 6.067l-11.775 7.316a1.79 1.79 0 0 1-1.807.029 1.78 1.78 0 0 1-.905-1.563v-12.777a7.134 7.134 0 0 1 3.568-6.174l11.597-6.638a1.787 1.787 0 0 1 2.433.646c.158.27.242.576.243.888" fill="#007FFF"/><path d="M334.881 177.348v-70.547h17.443l29.304 40.7-12.869-.078 29.382-40.622h17.21v70.547h-19.149v-19.459c0-5.775.117-11.086.388-15.892a139 139 0 0 1 1.628-14.846l2.016 6.241-21.862 28.218h-6.667l-21.784-28.49 2.248-5.969a142 142 0 0 1 1.589 14.536c.271 4.806.388 10.233.388 16.202v19.459h-19.265m135.202.62c-6.861 0-12.947-1.357-18.218-4.031a30.5 30.5 0 0 1-12.327-11.203 30.7 30.7 0 0 1-4.302-16.241v-39.692h20.156v39.111c0 2.946.62 5.543 1.899 7.752 1.28 2.21 3.024 3.915 5.233 5.155a15.5 15.5 0 0 0 7.559 1.784c2.946 0 5.582-.582 7.869-1.784 2.325-1.24 4.147-2.945 5.426-5.155 1.357-2.209 2.016-4.806 2.016-7.752v-39.111h19.575v39.692a30.16 30.16 0 0 1-16.668 27.444c-5.155 2.674-11.241 4.031-18.218 4.031m55.856-.62v-16.745h16.241v-37.057h-16.241v-16.745h52.329v16.745h-16.164v37.057h16.125v16.745H525.9z" fill="#1C222F"/></g><defs><clipPath id="a"><path fill="#fff" d="M175.086 86.546h403.182v111.676H175.086z"/></clipPath></defs></svg>