<svg width="965" height="366" viewBox="0 0 965 366" fill="none" xmlns="http://www.w3.org/2000/svg"><path d="M182.563 1.46h599.101C882.16 1.46 963.63 82.93 963.63 183.425s-81.469 181.966-181.966 181.966H182.563C82.067 365.391.599 283.922.599 183.425.599 82.929 82.067 1.461 182.563 1.46" fill="#EAE7E0"/><path d="M182.563 1.46h599.101C882.16 1.46 963.63 82.93 963.63 183.425s-81.469 181.966-181.966 181.966H182.563C82.067 365.391.599 283.922.599 183.425.599 82.929 82.067 1.461 182.563 1.46Z" stroke="#1C222F" stroke-width="1.049"/><g clip-path="url(#a)"><path d="m276.805 140.968-49.592-28.822a2.28 2.28 0 0 0-2.302.008 2.29 2.29 0 0 0-1.13 2.005v80.199c0 .823.458 1.555 1.144 1.967l18.529 10.888a2.29 2.29 0 0 0 2.281.004 2.293 2.293 0 0 0 1.15-1.971v-52.337a.916.916 0 0 1 1.372-.778l28.594 16.378a9.15 9.15 0 0 0 9.15-.045l27.907-16.333a.915.915 0 0 1 1.372.778v25.619a4.58 4.58 0 0 1-2.196 3.889l-28.73 17.659a2.29 2.29 0 0 0-1.098 1.968v25.802c0 .824.411 1.556 1.052 1.967l37.652 23.79a9.152 9.152 0 0 0 9.607.092l47.854-28.365a9.16 9.16 0 0 0 4.483-7.915V167.96a2.3 2.3 0 0 0-1.161-2.004 2.29 2.29 0 0 0-2.316.037l-15.143 9.15a9.15 9.15 0 0 0-4.438 7.777v24.842a2.29 2.29 0 0 1-1.143 1.967l-28.319 16.699a9.15 9.15 0 0 1-9.333-.046l-15.234-9.15a2.283 2.283 0 0 1-.84-2.997c.174-.34.432-.631.748-.846l27.541-18.162a9.152 9.152 0 0 0 4.118-7.64v-73.428a2.29 2.29 0 0 0-1.15-1.971 2.3 2.3 0 0 0-2.282.004l-48.951 28.776a9.15 9.15 0 0 1-9.196 0" fill="#007FFF"/><path d="M383.902 116.401v15.646a9.15 9.15 0 0 1-4.3 7.778l-15.098 9.378a2.3 2.3 0 0 1-1.153.333 2.28 2.28 0 0 1-2.016-1.14 2.3 2.3 0 0 1-.308-1.16v-16.378a9.15 9.15 0 0 1 4.575-7.915l14.869-8.509a2.284 2.284 0 0 1 3.119.828c.202.346.31.739.312 1.139" fill="#007FFF"/><path d="M428.645 228.217V137.84h22.346l37.541 52.14-16.486-.099 37.64-52.041h22.049v90.377h-24.532v-24.928c0-7.399.149-14.202.497-20.36a178 178 0 0 1 2.086-19.019l2.582 7.995-28.007 36.151h-8.541l-27.908-36.499 2.88-7.647c.993 6.207 1.688 12.415 2.036 18.622.348 6.157.497 13.11.497 20.757v24.928h-24.68m173.207.795c-8.79 0-16.586-1.738-23.34-5.165a39.1 39.1 0 0 1-15.791-14.351 39.33 39.33 0 0 1-5.512-20.807V137.84h25.822v50.105c0 3.774.795 7.101 2.433 9.931 1.639 2.831 3.874 5.016 6.704 6.605a19.9 19.9 0 0 0 9.684 2.284c3.774 0 7.15-.745 10.08-2.284 2.98-1.589 5.314-3.774 6.952-6.605 1.738-2.83 2.583-6.157 2.583-9.931V137.84h25.077v50.849a38.63 38.63 0 0 1-21.353 35.158c-6.605 3.427-14.401 5.165-23.339 5.165m71.557-.795v-21.452h20.806v-47.473h-20.806V137.84h67.038v21.452H719.74v47.473h20.657v21.452h-67.038z" fill="#1C222F"/></g><defs><clipPath id="a"><path fill="#fff" d="M223.781 111.84h516.667v143.172H223.781z"/></clipPath></defs></svg>