<svg width="1070" height="264" viewBox="0 0 1070 264" fill="none" xmlns="http://www.w3.org/2000/svg"><rect width="1070" height="264" rx="132" fill="#EAE7E0"/><path d="M214.61 163.5q-1.088 0-1.541-.453-.453-.544-.453-1.631v-59.363q0-1.088.453-1.541t1.541-.453h18.217q.996 0 1.45.362.543.363 1.087 1.45l14.682 24.924h.725l14.682-24.924q.635-1.087 1.088-1.45.543-.362 1.541-.362h18.126q1.087 0 1.54.453.544.453.544 1.541v59.363q0 2.084-2.084 2.084h-12.326q-2.084 0-2.084-2.084v-39.153h-.726l-13.05 21.48q-.635 1.087-1.178 1.45-.454.362-1.451.362h-9.878q-.997 0-1.541-.362-.543-.363-1.178-1.45l-12.96-21.48h-.816v39.153q0 1.087-.453 1.631-.453.453-1.541.453zm144.779-2.628q.09.362.09.997 0 1.63-1.812 1.631h-11.691q-1.994 0-2.357-1.631l-2.447-9.517h-25.829l-2.448 9.517q-.272.906-.906 1.268-.543.363-1.541.363h-11.691q-1.812 0-1.812-1.631 0-.635.09-.997l15.226-59.182q.544-1.63 2.447-1.631h27.008q1.903 0 2.447 1.631zm-27.008-46.222h-8.338l-4.26 17.039-1.812 6.888h20.573l-1.813-6.888zm82.228-14.591q1.087 0 1.54.453.544.453.544 1.541v10.875q0 2.085-2.084 2.085h-18.761v46.403q0 2.084-2.084 2.084h-12.688q-1.088 0-1.541-.453-.453-.544-.453-1.631v-46.403h-18.851q-1.088 0-1.541-.453-.453-.544-.453-1.632v-10.875q0-1.088.453-1.541t1.541-.453zm57.857 49.575q1.088 0 1.541.543.453.453.453 1.541v9.698q0 1.087-.453 1.631-.453.453-1.541.453h-46.493q-1.088 0-1.541-.453-.453-.544-.453-1.631v-59.363q0-1.088.453-1.541t1.541-.453h45.587q1.088 0 1.541.453t.453 1.541v9.788q0 1.087-.453 1.54t-1.541.454h-30.814v11.147h28.095q1.088 0 1.541.453t.453 1.541v9.063q0 1.088-.453 1.631-.453.453-1.541.454h-28.095v11.51zm70.295 10.785q.634.815.634 1.45 0 .725-.544 1.178-.453.453-1.359.453h-14.864q-1.087 0-1.812-.272-.635-.363-1.269-1.269l-19.032-23.835h-1.904v23.292q0 2.084-2.084 2.084h-12.688q-1.088 0-1.541-.453-.453-.544-.453-1.631v-59.363q0-1.088.453-1.541t1.541-.453h39.605q7.885 0 11.419 3.625 3.626 3.535 3.626 11.419v8.792q0 7.884-3.535 11.51-3.534 3.625-11.238 3.625h-2.9zm-40.15-47.038v13.142h18.58q2.628 0 3.534-.906.997-.997.997-3.626v-4.078q0-2.628-.997-3.535-.906-.996-3.534-.997zm78.389 0v36.706h11.51q1.088 0 1.541.544.453.453.453 1.54v9.245q0 1.087-.453 1.631-.453.453-1.541.453h-39.696q-1.087 0-1.541-.453-.453-.544-.453-1.631v-9.245q0-1.087.453-1.54.454-.544 1.541-.544h11.42v-36.706h-11.42q-1.087 0-1.541-.453t-.453-1.54v-9.335q0-1.088.453-1.541.454-.453 1.541-.453h39.696q1.088 0 1.541.453t.453 1.541v9.335q0 1.087-.453 1.54t-1.541.453zm81.876 47.491q.09.362.091.997 0 1.63-1.813 1.631h-11.691q-1.994 0-2.357-1.631l-2.447-9.517H618.83l-2.447 9.517q-.272.906-.907 1.268-.543.363-1.54.363h-11.692q-1.812 0-1.812-1.631 0-.635.09-.997l15.226-59.182q.545-1.63 2.447-1.631h27.008q1.904 0 2.447 1.631zm-27.008-46.222h-8.338l-4.259 17.039-1.813 6.888h20.573l-1.812-6.888zm38.276 48.85q-1.088 0-1.541-.453-.453-.544-.453-1.631v-59.363q0-1.088.453-1.541t1.541-.453h12.688q1.088 0 1.541.453.543.453.544 1.541v46.493h30.814q1.088 0 1.541.453t.453 1.541v10.876q0 1.087-.453 1.631-.453.453-1.541.453zm90.603.453q-8.247 0-12.235-3.988t-3.988-12.235v-45.677q0-1.088.454-1.541.543-.453 1.631-.453h12.688q1.088 0 1.541.453t.453 1.541v41.962q0 2.718 1.088 3.897 1.178 1.087 3.897 1.087h14.954q2.718 0 3.806-1.087 1.178-1.179 1.178-3.897v-41.962q0-1.088.453-1.541.545-.453 1.632-.453h12.688q1.088 0 1.541.453t.453 1.541v45.677q0 8.339-3.988 12.326-3.897 3.897-12.144 3.897zm81.24-50.572v36.706h11.51q1.088 0 1.541.544.453.453.453 1.54v9.245q0 1.087-.453 1.631-.453.453-1.541.453h-39.696q-1.087 0-1.54-.453-.454-.544-.454-1.631v-9.245q0-1.087.454-1.54.453-.544 1.54-.544h11.42v-36.706h-11.42q-1.087 0-1.54-.453t-.454-1.54v-9.335q0-1.088.454-1.541.453-.453 1.54-.453h39.696q1.088 0 1.541.453t.453 1.541v9.335q0 1.087-.453 1.54t-1.541.453z" fill="#202020"/></svg>