<svg width="753" height="285" viewBox="0 0 753 285" fill="none" xmlns="http://www.w3.org/2000/svg"><path d="M142.338.456h467.467C688.19.456 751.733 64 751.733 142.385c0 78.384-63.544 141.927-141.928 141.927H142.337C63.952 284.312.409 220.769.409 142.385.41 64 63.953.456 142.338.456" fill="#fff"/><path d="M142.338.456h467.467C688.19.456 751.733 64 751.733 142.385c0 78.384-63.544 141.927-141.928 141.927H142.337C63.952 284.312.409 220.769.409 142.385.41 64 63.953.456 142.338.456Z" stroke="#ECE9E1" stroke-width=".818"/><g clip-path="url(#a)"><path d="m215.833 109.267-38.676-22.481a1.784 1.784 0 0 0-2.676 1.57v62.556c0 .642.356 1.213.892 1.534l14.45 8.493a1.78 1.78 0 0 0 1.779.003 1.79 1.79 0 0 0 .897-1.537v-40.824a.71.71 0 0 1 .716-.702c.125 0 .247.033.354.095l22.3 12.776a7.14 7.14 0 0 0 7.136-.036l21.764-12.74a.71.71 0 0 1 .709-.003q.164.095.262.257a.7.7 0 0 1 .1.353v19.984a3.57 3.57 0 0 1-1.713 3.033l-22.407 13.774a1.78 1.78 0 0 0-.856 1.535v20.126c0 .642.321 1.213.821 1.535l29.364 18.556a7.13 7.13 0 0 0 7.492.071l37.321-22.125a7.13 7.13 0 0 0 3.497-6.173v-38.576a1.78 1.78 0 0 0-1.813-1.794 1.8 1.8 0 0 0-.899.26l-11.81 7.137a7.13 7.13 0 0 0-3.461 6.066v19.377a1.79 1.79 0 0 1-.892 1.535l-22.085 13.025a7.14 7.14 0 0 1-7.279-.036l-11.881-7.137a1.8 1.8 0 0 1-.615-.631 1.79 1.79 0 0 1-.04-1.707c.136-.265.337-.492.584-.659l21.479-14.167a7.15 7.15 0 0 0 2.357-2.575c.56-1.04.853-2.203.854-3.385V88.356a1.79 1.79 0 0 0-.897-1.537 1.79 1.79 0 0 0-1.779.002l-38.177 22.446a7.14 7.14 0 0 1-7.172 0" fill="#007FFF"/><path d="M299.377 90.107v12.206a7.14 7.14 0 0 1-3.354 6.067l-11.776 7.316a1.785 1.785 0 0 1-2.712-1.534v-12.777a7.14 7.14 0 0 1 3.569-6.174l11.597-6.638a1.783 1.783 0 0 1 2.676 1.534" fill="#007FFF"/><path d="M334.273 177.348v-70.547h17.443l29.304 40.7-12.869-.078 29.382-40.622h17.21v70.547h-19.148v-19.459c0-5.775.116-11.086.388-15.892a139 139 0 0 1 1.628-14.846l2.015 6.241-21.862 28.218h-6.667l-21.784-28.49 2.248-5.969c.776 4.845 1.318 9.69 1.59 14.536.271 4.806.387 10.233.387 16.202v19.459h-19.265m135.203.62c-6.861 0-12.947-1.357-18.219-4.031a30.5 30.5 0 0 1-12.326-11.203 30.7 30.7 0 0 1-4.303-16.241v-39.692h20.157v39.111c0 2.946.62 5.543 1.899 7.752 1.279 2.21 3.023 3.915 5.233 5.155a15.5 15.5 0 0 0 7.559 1.784c2.945 0 5.581-.582 7.868-1.784 2.326-1.24 4.148-2.945 5.427-5.155 1.357-2.209 2.016-4.806 2.016-7.752v-39.111h19.574v39.692a30.16 30.16 0 0 1-4.377 16.125 30.17 30.17 0 0 1-12.29 11.319c-5.156 2.674-11.241 4.031-18.218 4.031m55.856-.62v-16.745h16.241v-37.057h-16.241v-16.745h52.328v16.745h-16.163v37.057h16.125v16.745h-52.329z" fill="#1C222F"/></g><defs><clipPath id="a"><path fill="#fff" d="M174.48 86.546h403.182v111.676H174.48z"/></clipPath></defs></svg>