<svg width="900" height="286" viewBox="0 0 900 286" fill="none" xmlns="http://www.w3.org/2000/svg"><path d="M142.542.589h614.41c78.498 0 142.133 63.635 142.133 142.132S835.45 284.855 756.952 284.855h-614.41C64.044 284.855.409 221.219.409 142.721S64.044.589 142.542.589" fill="#1C222F"/><path d="M142.542.589h614.41c78.498 0 142.133 63.635 142.133 142.132S835.45 284.855 756.952 284.855h-614.41C64.044 284.855.409 221.219.409 142.721S64.044.589 142.542.589Z" stroke="#EAE7E0" stroke-width=".818"/><g clip-path="url(#a)"><path d="M210.443 99.174c-4.719-5.57-8.779-11.26-9.608-12.417a.19.19 0 0 0-.153-.078.187.187 0 0 0-.152.078c-.825 1.17-4.885 6.86-9.595 12.43-40.432 51.483 6.372 86.228 6.372 86.228l.379.266c.358 5.373 1.239 13.084 1.239 13.084h3.519s.872-7.693 1.234-13.084l.384-.301s46.804-34.71 6.381-86.206m-9.756 85.478s-2.098-1.788-2.665-2.686v-.096l2.538-56.067a.14.14 0 0 1 .046-.08.14.14 0 0 1 .174 0q.037.032.046.08l2.547 56.075v.096c-.567.872-2.665 2.687-2.665 2.687" fill="#00ED64"/></g><path d="M279.095 156.313v12.008q-.02.715.081 1.423c.156 1.422 1.029 2.289 2.312 2.688a29 29 0 0 0 3.643.711c.711.081.948.393 1.029 1.157.081 2.688-.156 3.006-2.764 2.844-6.082-.318-12.17-.393-18.252 0h-.578c-1.896.081-2.052-.081-2.052-1.977 0-.318.081-.711.081-1.029 0-.578.393-.867.948-.867 1.272-.157 2.451-.475 3.642-.712 1.66-.393 2.602-1.422 2.764-3.081.231-1.816.231-3.712.231-5.533l.081-21.172a3.24 3.24 0 0 0-1.734-3.007 22.5 22.5 0 0 0-4.51-1.896c-.474-.156-.948-.232-1.341-.474-1.157-.555-1.185-1.579-.081-2.215a4 4 0 0 1 1.341-.474 71.7 71.7 0 0 0 14.06-3.556c.949-.318 1.186-.231 1.272.712.081.578 0 1.272-.081 1.815-.156 1.029-.156 2.053-.156 3.006 0 .394.081.793.474 1.03.394.237.792 0 1.157-.232 1.659-1.272 3.318-2.451 5.134-3.469 2.601-1.422 5.376-2.688 8.383-3.081 3.642-.474 6.793.474 9.562 2.844a18 18 0 0 1 3.001 3.475c.792 1.156.867 1.185 1.896.393 3.006-2.214 6.163-4.186 9.562-5.608 3.556-1.503 7.192-1.734 10.823-.474 3.712 1.341 6.244 3.949 7.747 7.505 1.272 2.844 1.816 5.781 1.816 8.845v21.173c0 1.422.578 2.312 1.977 3.006 1.503.578 3.162.867 4.741 1.185 1.029.232 1.029.232 1.029 1.272-.156 2.602-.393 2.764-2.926 2.602a170 170 0 0 0-19.038 0c-1.272.081-1.272.081-1.341-1.185v-.393c-.081-2.14-.081-2.14 1.977-2.602l2.052-.555a3.18 3.18 0 0 0 2.452-3.082l.231-5.926-.156-15.483a12.3 12.3 0 0 0-.867-4.03c-1.978-4.822-6.319-6.556-10.511-6.082-3.162.318-5.926 1.578-8.533 3.399-.555.394-.948.868-.867 1.66.711 5.059.231 10.118.318 15.171v10.985c0 1.977.792 2.925 2.688 3.399l3.642.792c.555.081.867.318.867.949v.578c-.081 2.214-.231 2.312-2.451 2.289-6.319-.318-12.644-.231-18.882 0-2.139.081-2.313-.156-2.214-2.312.081-1.272.231-1.342 1.422-1.579l2.602-.474c2.312-.474 3.162-1.341 3.318-3.792l.231-5.296-.156-15.883c-.156-1.977-.578-3.873-1.659-5.689-1.578-2.925-4.047-4.423-7.429-4.584-3.4-.232-6.4 1.029-9.25 2.601-1.978 1.157-2.845 2.527-2.689 4.822v11.534zm148.854.48v11.141q.018 1.189.156 2.371a2.43 2.43 0 0 0 1.896 2.214c1.363.397 2.768.636 4.186.711.792.081.948.393 1.029 1.029v.555c-.081 2.764-.393 3.082-3.082 2.926-6.012-.393-12.008-.318-18.014 0l-2.313.081c-.474 0-.578-.232-.711-.555a8 8 0 0 1 0-3.319c.081-.474.393-.578.867-.711 1.156-.156 2.139-.393 3.238-.578 1.977-.474 2.688-1.272 2.763-3.319l.231-6.637v-19.438c0-1.422-.555-2.29-1.815-2.926-1.422-.792-2.925-1.341-4.509-1.896-.474-.156-.949-.318-1.342-.555-1.029-.711-1.156-1.734-.156-2.527.449-.368 1-.59 1.579-.635 5.058-.793 9.955-1.897 14.696-3.793.555-.231.792-.081 1.029.393a2.62 2.62 0 0 1 .231 1.578l-.231 3.712c0 .474-.231 1.156.156 1.341.474.318.792-.393 1.185-.578a35.2 35.2 0 0 1 7.666-4.897c2.452-1.156 4.972-1.896 7.823-1.734 5.295.318 9.088 3.006 11.533 7.666 1.272 2.452 1.816 5.134 2.053 7.904l.231 5.781.081 17.461c.081 1.341.555 2.214 1.896 2.688 1.391.464 2.818.808 4.267 1.029 1.272.156 1.341.393 1.422 1.579v.393c-.156 2.688-.318 2.763-3.006 2.602a165 165 0 0 0-17.697 0c-.792.081-1.578 0-2.312.081-.475 0-.793-.081-.868-.556-.156-1.029-.318-2.052-.081-3.162.081-.474.318-.711.868-.792l3.642-.578c1.272-.318 1.977-1.157 2.139-2.313l.156-2.214-.081-16.513c0-1.896-.081-3.792-.474-5.689-.948-4.047-4.03-6.938-8.21-7.342-3.642-.394-6.937.555-9.955 2.526-1.503.948-2.139 2.29-2.139 3.949v11.933c0-.231 0-.231.081-.231z" fill="#fff"/><path d="M659.348 134.418c-.867-5.77-3.006-10.904-6.718-15.408a30.46 30.46 0 0 0-12.169-9.007c-4.972-2.053-10.274-2.689-15.645-2.845-2.214-.081-32.393.393-34.607 0-.555-.081-.948.081-1.272.555-.393.578-.792 1.185-1.029 1.816-.948 2.139-.948 1.977 1.341 2.289 1.896.318 3.712.474 5.533 1.029 1.659.555 2.844 1.503 3.237 3.319.156.867.318 28.677.318 41.639l-.318 9.251c-.081.711-.156 1.422-.393 2.052-.318.948-.867 1.735-1.815 2.139a9.4 9.4 0 0 1-3.319.868c-2.139.231-2.451.318-3.162 2.688l-.231.867c-.156 1.029-.081 1.185.948 1.185l23.623.232 9.25-.156 6.4-.792c7.267-1.342 13.748-4.348 19.275-9.164a32.1 32.1 0 0 0 7.585-9.956c2.215-4.423 3.163-9.251 3.4-14.142.393-2.764.231-5.608-.232-8.453zm-11.458 11.217c-.318 5.059-1.342 9.956-3.949 14.379-3.319 5.77-8.059 9.799-14.615 11.216-2.845.578-5.689.867-8.672.474-2.14-.231-4.186-.474-6.163-1.185-3.556-1.272-4.822-3.469-4.897-6.938l-.081-47.641c0-2.844 1.272-3.469 3.318-3.555 3.082-.232 6.244-.156 9.326.156a35 35 0 0 1 9.562 2.312 23 23 0 0 1 6.244 3.874c4.267 3.643 7.111 8.21 8.672 13.587 1.272 4.348 1.503 8.771 1.272 13.194zm77.124 7.747c0-.474 0-.867-.081-1.341-.711-4.348-3.007-7.667-6.556-10.193-2.29-1.66-4.897-2.764-7.586-3.556-.474-.156-.867-.318-1.341-.393.081-.393.318-.474.555-.555 1.578-.792 3.082-1.659 4.423-2.845 2.451-2.052 4.047-4.584 4.897-7.666.474-1.659.474-3.319.318-5.059a13.59 13.59 0 0 0-5.77-10.274c-3.642-2.688-7.903-3.793-12.326-3.874-8.533-.156-17.142 0-25.67 0-2.451 0-4.896.157-7.429-.231-.474-.081-1.156-.231-1.503.318-.578 1.029-1.272 2.053-1.503 3.238-.081.555.081.867.711.948l5.452.792c2.139.318 3.642 1.503 3.793 3.4.155 1.31.232 2.629.231 3.949l-.156 14.772-.081 29.231c0 1.735-.231 3.4-.555 5.134a2.89 2.89 0 0 1-2.053 2.371c-1.578.474-3.081.948-4.74.948a1.964 1.964 0 0 0-2.053 1.341 10.3 10.3 0 0 0-.711 2.215c-.156.948.081 1.272 1.029 1.156.711-.081 26.785.555 31.682.081 2.926-.318 5.782-.711 8.69-1.578 4.972-1.579 9.562-3.874 13.193-7.748 3.006-3.162 4.741-6.955 4.897-11.378.231-1.029.231-2.052.231-3.162zm-38.32-32.377.232-6.319c0-1.185.474-1.735 1.659-1.978 1.896-.393 3.793-.231 5.689-.156 1.896.156 3.712.394 5.608.949 3.469 1.029 6.163 3.006 7.747 6.319a11.3 11.3 0 0 1 1.104 4.822c.081 2.214-.081 4.347-.948 6.475-1.341 2.926-3.469 4.822-6.556 5.377s-11.852.318-13.193.318c-1.185 0-1.272-.156-1.272-1.341v-7.441a51 51 0 0 1-.081-6.956zm25.67 42.506c-1.341 3.556-3.793 6.013-7.267 7.343-1.897.711-3.793 1.156-5.782 1.029-2.451-.081-4.897 0-7.342-.474-3.319-.711-4.822-3.874-5.059-6.163-.393-4.03-.156-8.141-.231-11.141v-10.43c0-1.272.156-1.66 1.503-1.66l7.429.081 5.059.579c3.555.792 6.793 2.139 9.325 4.897 2.053 2.214 3.163 4.897 3.4 7.822.231 2.764.081 5.452-.948 8.06z" fill="#C2BFBF"/><path d="m511.62 139.716 2.052.318c2.214.081 4.822-.711 5.608-3.793a7.97 7.97 0 0 0 0-4.51c-.474 0-.711.394-.948.555-1.185.949-2.527 1.504-3.949 1.66-2.844.318-5.689.156-8.452-.867l-3.874-1.342a22.8 22.8 0 0 0-8.383-1.098c-4.03.318-7.822 1.659-11.378 3.555-3.792 2.053-6.475 5.134-7.747 9.326-.711 2.452-.792 4.972-.474 7.505.792 5.77 3.793 9.799 9.164 11.933.318.081.555.231.867.318.711.393.792.792.156 1.341l-1.977 1.342-4.741 2.925c-1.185.711-1.341 1.272-.948 2.527a8.27 8.27 0 0 0 2.526 3.792 13.2 13.2 0 0 0 3.637 2.215c.867.393.867.578.081 1.272l-4.51 3.237c-1.503 1.157-3.006 2.313-4.266 3.793a7.803 7.803 0 0 0-1.897 7.111 13.36 13.36 0 0 0 4.105 7.112 16.8 16.8 0 0 0 7.267 3.949c4.423 1.272 9.008 1.341 13.511.474 6.476-1.185 12.141-4.047 16.593-8.927 3.082-3.238 4.897-7.03 5.059-11.563a11.105 11.105 0 0 0-8.534-11.535l-4.266-.792-13.037-1.156c-1.423-.081-2.845-.318-4.03-1.029-1.503-.948-1.896-2.764-.948-3.949.711-.867 1.578-1.422 2.688-1.503l2.527-.231a22.9 22.9 0 0 0 13.349-6.083 14 14 0 0 0 4.03-6.718c.948-3.399.948-6.938.156-10.407-.232-.867-.156-.948.948-.792zm-19.368 39.355c.474.081.948 0 1.422 0 3.319.156 6.718.393 9.956 1.272 1.057.313 2.087.709 3.081 1.185 3.163 1.735 4.348 4.741 3.949 7.979-.474 3.556-2.451 6.082-5.533 7.747-2.052 1.157-4.348 1.66-6.718 1.897-.867.081-1.659 0-2.526 0-2.764.081-5.452-.231-8.06-1.342a12.46 12.46 0 0 1-4.659-3.162c-2.764-2.764-4.047-7.823.08-11.933 2.527-2.313 5.377-3.949 9.008-3.643m9.007-24.653c-1.659 4.186-5.295 5.453-8.926 4.898-3.319-.475-5.77-2.29-7.343-5.296-2.052-4.03-2.601-8.21-1.422-12.564.867-3.238 2.845-5.689 6.319-6.244 4.423-.792 8.672.792 10.904 5.215 1.156 2.139 1.659 4.741 1.659 8.453-.081 1.503-.393 3.555-1.185 5.533zm-99.544-5.376c-.711-4.267-2.289-8.141-5.215-11.379-4.347-4.822-9.874-6.938-16.118-6.955-5.452-.081-10.58 1.503-15.171 4.348a20.58 20.58 0 0 0-9.244 12.089c-1.341 4.585-1.272 9.251-.231 13.905 2.763 12.488 12.407 17.854 23.935 17.067 3.399-.231 6.637-1.341 9.712-2.844 4.585-2.139 7.904-5.533 10.193-10.037 1.815-3.712 2.602-7.667 2.526-12.17l-.393-4.03zm-11.216 17.541a9.6 9.6 0 0 1-8.14 6.637c-3.469.474-6.718-.393-9.638-2.451a16.4 16.4 0 0 1-4.977-5.926c-3.238-6.638-3.793-13.587-2.139-20.698a11.85 11.85 0 0 1 3.318-5.771c2.925-2.688 6.319-3.318 10.118-2.526 3.642.792 6.4 2.764 8.672 5.77s3.318 6.475 3.948 10.118c.318 1.815.318 3.712.393 4.897 0 3.793-.318 6.938-1.503 9.956zm183.849-16.905c-.578-4.585-2.29-8.771-5.533-12.246-4.267-4.66-9.799-6.637-15.957-6.718-5.295-.081-10.192 1.422-14.696 4.03-5.059 3.006-8.533 7.267-9.875 13.037a27.58 27.58 0 0 0 1.897 18.802c2.601 5.533 7.03 9.089 12.881 10.667 6.475 1.735 12.644.948 18.645-1.977 5.214-2.527 8.926-6.476 11.059-11.853 1.272-3.162 1.735-6.556 1.816-10.511.081-.711-.081-1.977-.231-3.237zm-10.904 15.882c-1.272 4.266-3.949 7.03-8.452 7.666-3.319.474-6.476-.318-9.326-2.214-2.451-1.66-4.185-3.874-5.452-6.476-1.422-2.763-2.214-5.689-2.526-8.689-.474-3.712-.474-7.343.393-11.061.165-.733.404-1.447.711-2.133 2.214-5.533 7.111-8.06 12.881-6.794 3.874.868 6.793 3.007 9.008 6.245 2.139 3.162 3.162 6.637 3.642 10.407.231 1.503.318 3.081.231 4.422 0 3.082-.231 5.927-1.156 8.69z" fill="#fff"/><defs><clipPath id="a"><path fill="#fff" d="M174.48 86.679h52.411v112.086H174.48z"/></clipPath></defs></svg>