<svg width="1080" height="367" viewBox="0 0 1080 367" fill="none" xmlns="http://www.w3.org/2000/svg"><path d="M182.93 1.34h713.945c100.642 0 182.225 81.588 182.225 182.23 0 100.643-81.583 182.229-182.225 182.23H182.93C82.287 365.799.7 284.213.7 183.57S82.287 1.34 182.93 1.34" fill="#EAE7E0"/><path d="M182.93 1.34h713.945c100.642 0 182.225 81.588 182.225 182.23 0 100.643-81.583 182.229-182.225 182.23H182.93C82.287 365.799.7 284.213.7 183.57S82.287 1.34 182.93 1.34Z" stroke="#1C222F" stroke-width="1.049"/><g clip-path="url(#a)"><g clip-path="url(#b)"><path d="M269.988 127.739c-6.05-7.14-11.256-14.437-12.318-15.919a.24.24 0 0 0-.196-.1.25.25 0 0 0-.11.026.24.24 0 0 0-.085.074c-1.057 1.499-6.263 8.796-12.301 15.936-51.837 66.004 8.169 110.55 8.169 110.55l.486.341c.459 6.889 1.588 16.774 1.588 16.774h4.512s1.118-9.863 1.582-16.774l.493-.386s60.005-44.501 8.18-110.522M257.48 237.328s-2.69-2.293-3.416-3.445v-.123l3.254-71.881a.173.173 0 0 1 .341 0l3.265 71.893v.123c-.727 1.118-3.416 3.444-3.416 3.444" fill="#00AB48"/></g><path d="M355.25 200.814v13.483a9.5 9.5 0 0 0 .091 1.597c.176 1.597 1.156 2.57 2.597 3.018 1.344.354 2.71.621 4.089.799.799.091 1.065.441 1.156 1.298.091 3.019-.176 3.376-3.103 3.194-6.829-.357-13.664-.442-20.493 0h-.649c-2.129.091-2.305-.091-2.305-2.22 0-.357.091-.799.091-1.156 0-.649.442-.973 1.065-.973 1.428-.176 2.752-.533 4.089-.799 1.863-.441 2.921-1.597 3.103-3.46.26-2.038.26-4.167.26-6.212l.091-23.772a3.635 3.635 0 0 0-1.948-3.376 25.2 25.2 0 0 0-5.063-2.129c-.532-.176-1.064-.26-1.506-.533-1.298-.623-1.331-1.772-.091-2.486.442-.26.974-.441 1.506-.532a80.7 80.7 0 0 0 15.787-3.992c1.065-.357 1.331-.26 1.428.798.091.649 0 1.428-.091 2.038-.175 1.156-.175 2.305-.175 3.376 0 .441.091.889.532 1.155.442.267.89 0 1.299-.259 1.863-1.428 3.726-2.753 5.764-3.895 2.921-1.597 6.037-3.019 9.412-3.46 4.09-.532 7.627.532 10.737 3.194a20.1 20.1 0 0 1 3.369 3.901c.889 1.298.973 1.331 2.129.442 3.375-2.487 6.92-4.7 10.736-6.297 3.993-1.688 8.076-1.948 12.152-.533 4.168 1.506 7.011 4.434 8.698 8.426 1.429 3.194 2.039 6.492 2.039 9.933v23.772c0 1.597.649 2.596 2.22 3.375 1.687.649 3.55.974 5.323 1.331 1.155.26 1.155.26 1.155 1.428-.175 2.921-.441 3.103-3.285 2.921a191 191 0 0 0-21.375 0c-1.428.091-1.428.091-1.506-1.33v-.442c-.091-2.402-.091-2.402 2.22-2.921l2.304-.623a3.57 3.57 0 0 0 2.752-3.46l.26-6.654-.175-17.384a13.8 13.8 0 0 0-.974-4.525c-2.22-5.414-7.095-7.361-11.801-6.829-3.551.357-6.654 1.772-9.581 3.817-.623.441-1.065.974-.974 1.863.799 5.68.26 11.36.357 17.034v12.334c0 2.22.889 3.284 3.019 3.817l4.089.889c.623.091.974.357.974 1.065v.649c-.091 2.486-.26 2.597-2.753 2.571-7.095-.357-14.196-.26-21.2 0-2.402.09-2.597-.176-2.486-2.597.091-1.428.259-1.506 1.597-1.772l2.921-.533c2.596-.532 3.55-1.506 3.726-4.258l.259-5.946-.175-17.833c-.175-2.22-.649-4.349-1.863-6.387-1.772-3.285-4.544-4.966-8.341-5.148-3.817-.26-7.186 1.155-10.386 2.921-2.22 1.298-3.194 2.837-3.019 5.414v12.951zm167.131.539v12.509q.022 1.335.176 2.661a2.73 2.73 0 0 0 2.129 2.487c1.53.446 3.107.714 4.7.798.889.091 1.064.442 1.155 1.156v.623c-.091 3.103-.441 3.46-3.46 3.285-6.751-.442-13.482-.358-20.227 0l-2.596.09c-.533 0-.649-.259-.799-.623a9 9 0 0 1 0-3.726c.091-.532.442-.649.974-.798 1.298-.176 2.402-.442 3.635-.65 2.22-.532 3.019-1.428 3.103-3.726l.26-7.452v-21.825c0-1.597-.624-2.57-2.039-3.284-1.596-.89-3.284-1.506-5.063-2.13-.532-.175-1.064-.357-1.506-.623-1.155-.798-1.298-1.947-.175-2.837a3.2 3.2 0 0 1 1.772-.714c5.68-.889 11.178-2.129 16.501-4.258.623-.26.889-.091 1.155.441a2.95 2.95 0 0 1 .26 1.772l-.26 4.168c0 .532-.259 1.298.176 1.506.532.357.889-.441 1.33-.649a39.5 39.5 0 0 1 8.608-5.498c2.752-1.299 5.582-2.13 8.782-1.948 5.946.357 10.205 3.376 12.951 8.608 1.428 2.752 2.038 5.764 2.304 8.874l.26 6.491.091 19.605c.09 1.506.623 2.486 2.129 3.019 1.561.52 3.163.906 4.79 1.155 1.428.175 1.506.441 1.597 1.772v.442c-.175 3.018-.357 3.103-3.375 2.921a186 186 0 0 0-19.87 0c-.89.091-1.772 0-2.597.091-.532 0-.889-.091-.973-.623-.176-1.156-.357-2.305-.091-3.551.091-.533.357-.799.973-.89l4.09-.649c1.428-.357 2.22-1.298 2.402-2.596l.175-2.487-.091-18.54c0-2.129-.091-4.258-.532-6.387-1.065-4.544-4.525-7.79-9.218-8.245-4.089-.441-7.789.624-11.178 2.837-1.688 1.065-2.402 2.571-2.402 4.434v13.399c0-.26 0-.26.091-.26z" fill="#1C222F"/><path d="M782.194 176.248c-.974-6.478-3.376-12.243-7.543-17.3a34.2 34.2 0 0 0-13.664-10.113c-5.583-2.305-11.535-3.019-17.566-3.194-2.486-.091-36.37.441-38.856 0-.624-.091-1.065.091-1.429.623-.441.649-.889 1.331-1.155 2.038-1.065 2.402-1.065 2.22 1.506 2.571 2.129.357 4.167.532 6.212 1.155 1.863.624 3.194 1.688 3.635 3.727.175.973.357 32.198.357 46.752l-.357 10.386c-.091.799-.175 1.597-.441 2.305-.357 1.064-.974 1.947-2.038 2.402a10.5 10.5 0 0 1-3.726.973c-2.402.26-2.753.357-3.551 3.019l-.26.974c-.175 1.155-.091 1.331 1.065 1.331l26.523.259 10.386-.175 7.186-.889c8.16-1.506 15.436-4.882 21.642-10.29a36 36 0 0 0 8.517-11.178c2.486-4.966 3.55-10.386 3.816-15.878.442-3.103.26-6.297-.259-9.491zm-12.866 12.594c-.357 5.68-1.506 11.179-4.434 16.145-3.726 6.478-9.048 11.003-16.409 12.593-3.194.649-6.388.974-9.737.533-2.402-.26-4.7-.533-6.92-1.331-3.992-1.428-5.414-3.895-5.498-7.79l-.091-53.491c0-3.193 1.428-3.894 3.726-3.992 3.46-.26 7.01-.175 10.47.175a39.4 39.4 0 0 1 10.737 2.597 25.8 25.8 0 0 1 7.011 4.349c4.79 4.09 7.984 9.218 9.736 15.256 1.429 4.881 1.688 9.847 1.429 14.813zm86.594 8.699c0-.532 0-.974-.091-1.506-.799-4.882-3.376-8.608-7.361-11.445-2.571-1.863-5.498-3.103-8.517-3.992-.532-.175-.974-.357-1.506-.442.091-.441.357-.532.623-.623 1.772-.889 3.46-1.863 4.966-3.194 2.752-2.304 4.544-5.147 5.498-8.607.533-1.864.533-3.727.357-5.681a15.25 15.25 0 0 0-6.478-11.535c-4.09-3.019-8.874-4.259-13.839-4.349-9.582-.176-19.247 0-28.822 0-2.752 0-5.498.175-8.341-.26-.532-.091-1.298-.26-1.688.357-.649 1.155-1.428 2.304-1.687 3.635-.091.623.09.974.798 1.065l6.121.889c2.402.357 4.09 1.688 4.259 3.817q.26 2.21.259 4.434l-.175 16.586-.091 32.821c0 1.948-.26 3.817-.623 5.765a3.25 3.25 0 0 1-2.304 2.661c-1.773.533-3.46 1.065-5.323 1.065a2.21 2.21 0 0 0-2.305 1.506 11.5 11.5 0 0 0-.798 2.486c-.175 1.065.091 1.428 1.155 1.299.799-.091 30.074.623 35.572.09 3.285-.357 6.492-.798 9.757-1.772 5.582-1.772 10.736-4.349 14.813-8.698 3.375-3.551 5.323-7.81 5.498-12.776.26-1.155.26-2.304.26-3.551zm-43.024-36.353.259-7.095c0-1.331.532-1.948 1.863-2.22 2.129-.442 4.258-.26 6.388-.176 2.129.176 4.167.442 6.296 1.065 3.895 1.156 6.92 3.376 8.698 7.095a12.7 12.7 0 0 1 1.24 5.414c.091 2.487-.091 4.882-1.064 7.271-1.506 3.285-3.895 5.414-7.361 6.037-3.467.623-13.308.357-14.814.357-1.33 0-1.428-.175-1.428-1.506v-8.355a57 57 0 0 1-.09-7.809zm28.821 47.726c-1.506 3.992-4.258 6.751-8.16 8.244-2.129.799-4.258 1.299-6.491 1.156-2.752-.091-5.498 0-8.244-.533-3.726-.798-5.414-4.349-5.68-6.92-.441-4.524-.175-9.14-.259-12.509v-11.711c0-1.428.175-1.863 1.687-1.863l8.342.091 5.679.649c3.993.89 7.628 2.402 10.471 5.499 2.304 2.486 3.551 5.498 3.817 8.783.259 3.103.091 6.121-1.065 9.049z" fill="#1C222F" fill-opacity=".68"/><path d="m616.33 182.183 2.305.357c2.486.091 5.413-.798 6.296-4.258a8.96 8.96 0 0 0 0-5.064c-.532 0-.798.442-1.064.624-1.331 1.064-2.837 1.687-4.434 1.863-3.194.357-6.387.175-9.49-.974l-4.349-1.506a25.6 25.6 0 0 0-9.413-1.234c-4.524.357-8.782 1.864-12.775 3.993-4.258 2.304-7.27 5.764-8.698 10.471-.798 2.752-.889 5.582-.532 8.426.889 6.478 4.258 11.003 10.289 13.398.357.091.623.26.973.357.799.442.89.89.176 1.506l-2.221 1.506-5.322 3.285c-1.331.799-1.506 1.428-1.065 2.837a9.3 9.3 0 0 0 2.837 4.258 14.8 14.8 0 0 0 4.083 2.487c.973.441.973.649.091 1.428l-5.064 3.635c-1.687 1.298-3.375 2.597-4.79 4.259a8.77 8.77 0 0 0-2.129 7.984 15 15 0 0 0 4.609 7.985 18.8 18.8 0 0 0 8.159 4.434c4.966 1.428 10.114 1.506 15.17.532 7.27-1.331 13.632-4.544 18.63-10.023 3.46-3.635 5.498-7.894 5.68-12.983a12.466 12.466 0 0 0-9.581-12.951l-4.791-.889-14.637-1.299c-1.597-.09-3.194-.357-4.525-1.155-1.688-1.065-2.129-3.103-1.064-4.434.798-.974 1.772-1.597 3.018-1.688l2.837-.259a25.7 25.7 0 0 0 14.988-6.829 15.7 15.7 0 0 0 4.524-7.544c1.065-3.817 1.065-7.789.176-11.684-.26-.974-.176-1.065 1.064-.89zm-21.746 44.188c.533.091 1.065 0 1.597 0 3.726.176 7.543.442 11.178 1.428 1.187.351 2.344.796 3.46 1.331 3.551 1.948 4.882 5.323 4.434 8.959-.533 3.992-2.753 6.829-6.212 8.698-2.305 1.299-4.882 1.863-7.543 2.129-.974.091-1.863 0-2.837 0-3.103.091-6.121-.259-9.049-1.506-2.038-.798-3.726-1.947-5.232-3.55-3.103-3.103-4.544-8.784.091-13.399 2.837-2.597 6.037-4.434 10.113-4.09m10.114-27.68c-1.863 4.7-5.946 6.122-10.023 5.499-3.726-.533-6.478-2.571-8.244-5.947-2.304-4.524-2.921-9.218-1.596-14.106.973-3.635 3.193-6.388 7.095-7.011 4.965-.889 9.736.89 12.242 5.856 1.298 2.402 1.863 5.323 1.863 9.49-.091 1.688-.441 3.993-1.331 6.213zm-111.767-6.037c-.798-4.791-2.571-9.14-5.855-12.775-4.882-5.414-11.087-7.79-18.098-7.81-6.121-.091-11.879 1.688-17.033 4.882a23.1 23.1 0 0 0-10.379 13.574c-1.506 5.148-1.429 10.386-.26 15.612 3.103 14.022 13.93 20.046 26.874 19.163 3.817-.26 7.452-1.506 10.905-3.194 5.148-2.402 8.874-6.212 11.444-11.269 2.039-4.168 2.921-8.608 2.837-13.665l-.441-4.524zm-12.593 19.695a10.77 10.77 0 0 1-9.14 7.453c-3.895.532-7.543-.442-10.821-2.753a18.44 18.44 0 0 1-5.589-6.653c-3.635-7.453-4.258-15.256-2.402-23.24a13.3 13.3 0 0 1 3.726-6.479c3.285-3.018 7.095-3.726 11.36-2.837 4.09.89 7.186 3.103 9.737 6.479s3.726 7.27 4.434 11.36c.357 2.039.357 4.168.441 5.499 0 4.258-.357 7.789-1.688 11.178zm206.423-18.981c-.649-5.148-2.571-9.848-6.213-13.749-4.79-5.232-11.002-7.452-17.915-7.543-5.946-.091-11.445 1.597-16.501 4.524-5.68 3.376-9.581 8.16-11.087 14.639a30.96 30.96 0 0 0 2.129 21.11c2.921 6.213 7.893 10.205 14.462 11.977 7.271 1.948 14.197 1.065 20.935-2.22 5.855-2.837 10.022-7.27 12.418-13.307 1.428-3.551 1.947-7.362 2.038-11.802.091-.799-.091-2.22-.26-3.635zM674.518 211.2c-1.428 4.791-4.433 7.894-9.49 8.608-3.726.533-7.27-.357-10.471-2.486-2.752-1.863-4.699-4.349-6.121-7.271-1.597-3.102-2.486-6.387-2.837-9.756-.532-4.168-.532-8.245.442-12.419.185-.823.453-1.625.798-2.395 2.486-6.213 7.985-9.049 14.463-7.628 4.349.974 7.627 3.376 10.113 7.011 2.402 3.551 3.551 7.453 4.09 11.685.259 1.688.357 3.46.259 4.966 0 3.46-.259 6.654-1.298 9.757z" fill="#1C222F"/></g><defs><clipPath id="a"><path fill="#fff" d="M223.882 111.72h632.04v143.701h-632.04z"/></clipPath><clipPath id="b"><path fill="#fff" d="M223.882 111.72h67.194v143.701h-67.194z"/></clipPath></defs></svg>