<svg width="954" height="264" viewBox="0 0 954 264" fill="none" xmlns="http://www.w3.org/2000/svg"><rect width="954" height="264" rx="132" fill="#EAE7E0"/><path d="M209.61 163.5q-1.088 0-1.541-.453-.453-.544-.453-1.631v-59.363q0-1.088.453-1.541t1.541-.453h18.217q.996 0 1.45.362.543.363 1.087 1.45l14.682 24.924h.725l14.682-24.924q.635-1.087 1.088-1.45.543-.362 1.541-.362h18.126q1.087 0 1.54.453.544.453.544 1.541v59.363q0 2.084-2.084 2.084h-12.326q-2.084 0-2.084-2.084v-39.153h-.726l-13.05 21.48q-.635 1.087-1.178 1.45-.454.362-1.451.362h-9.878q-.997 0-1.541-.362-.543-.363-1.178-1.45l-12.96-21.48h-.816v39.153q0 1.087-.453 1.631-.453.453-1.541.453zm103.089.453q-8.338 0-12.326-3.897-3.897-3.987-3.897-12.326v-31.992q0-8.338 3.897-12.235 3.988-3.897 12.326-3.897h29.183q8.337 0 12.235 3.897 3.988 3.897 3.988 12.235v31.992q0 8.339-3.988 12.326-3.898 3.897-12.235 3.897zm23.654-14.319q2.72 0 3.807-1.088 1.178-1.178 1.178-3.897v-25.83q0-2.718-1.178-3.806-1.088-1.178-3.807-1.178h-18.126q-2.718 0-3.897 1.178-1.087 1.088-1.087 3.806v25.83q0 2.72 1.087 3.897 1.179 1.088 3.897 1.088zm36.905 13.866q-1.088 0-1.541-.453-.453-.544-.453-1.631v-59.363q0-1.088.453-1.541t1.541-.453h16.313q1.088 0 1.631.453.635.363 1.179 1.269l21.751 37.43h.815v-37.158q0-1.088.454-1.541.543-.453 1.631-.453h12.144q1.088 0 1.541.453.544.453.544 1.541v59.363q0 2.084-2.085 2.084h-16.313q-1.088 0-1.722-.363-.634-.453-1.088-1.45l-21.751-37.43h-.815v37.159q0 1.087-.454 1.631-.453.453-1.54.453zm87.335.453q-8.339 0-12.326-3.897-3.897-3.987-3.897-12.326v-31.992q0-8.338 3.897-12.235 3.987-3.897 12.326-3.897h27.823q8.338 0 12.235 3.897 3.988 3.897 3.988 12.235v4.26q0 1.087-.544 1.54-.453.453-1.541.453h-12.96q-1.088 0-1.631-.453-.453-.453-.453-1.54v-2.085q0-2.719-1.179-3.806-1.087-1.179-3.806-1.179h-16.404q-2.72 0-3.897 1.179-1.088 1.087-1.088 3.806v27.642q0 2.72 1.088 3.897 1.178 1.088 3.897 1.088h17.22q2.718 0 3.806-1.088 1.178-1.178 1.178-3.897v-4.531h-13.504q-1.087 0-1.54-.453-.453-.454-.453-1.541v-7.976q0-1.087.453-1.54t1.54-.453h28.186q1.088 0 1.541.453.544.453.544 1.54v16.676q0 8.339-3.988 12.326-3.897 3.897-12.235 3.897zm73.194 0q-8.338 0-12.326-3.897-3.897-3.987-3.897-12.326v-31.992q0-8.338 3.897-12.235 3.988-3.897 12.326-3.897h29.183q8.338 0 12.235 3.897 3.988 3.897 3.988 12.235v31.992q0 8.339-3.988 12.326-3.897 3.897-12.235 3.897zm23.655-14.319q2.718 0 3.806-1.088 1.178-1.178 1.178-3.897v-25.83q0-2.718-1.178-3.806-1.088-1.178-3.806-1.178h-18.127q-2.718 0-3.897 1.178-1.087 1.088-1.087 3.806v25.83q0 2.72 1.087 3.897 1.179 1.088 3.897 1.088zm59.395 13.866q-1.088 0-1.541-.453-.453-.544-.453-1.631v-59.363q0-1.088.453-1.541t1.541-.453h41.237q8.337 0 12.235 3.897 3.987 3.897 3.987 12.235v31.086q0 8.338-3.987 12.326-3.898 3.897-12.235 3.897zm35.708-14.32q2.72 0 3.807-1.087 1.178-1.179 1.178-3.897v-24.924q0-2.718-1.178-3.806-1.087-1.178-3.807-1.178H631.61v34.892zm88.697-19.757q3.444.725 4.984 3.263 1.632 2.447 1.632 7.16v8.519q0 7.976-3.626 11.6-3.534 3.535-11.419 3.535h-42.959q-1.087 0-1.54-.453-.453-.544-.453-1.631v-59.363q0-1.088.453-1.541t1.54-.453h42.053q7.16 0 10.513 3.081 3.444 3.082 3.444 9.335v6.435q0 4.079-1.088 6.344-1.087 2.266-3.534 3.353zm-36.615-16.948v12.688h20.301q2.629 0 3.535-.906.996-.997.997-3.625v-3.716q0-2.538-.997-3.444-.906-.997-3.444-.997zm26.464 28.821q0-2.63-.997-3.535-.906-.997-3.534-.997h-21.933v14.229h21.933q2.628 0 3.534-.906.997-.997.997-3.625z" fill="#202020"/></svg>