<svg width="1081" height="366" viewBox="0 0 1081 366" fill="none" xmlns="http://www.w3.org/2000/svg"><path d="M183.667.81h713.967c100.642 0 182.226 81.588 182.226 182.23 0 100.643-81.584 182.23-182.226 182.23H183.667c-100.642 0-182.23-81.587-182.23-182.23S83.026.81 183.668.81" fill="#1C222F"/><path d="M183.667.81h713.967c100.642 0 182.226 81.588 182.226 182.23 0 100.643-81.584 182.23-182.226 182.23H183.667c-100.642 0-182.23-81.587-182.23-182.23S83.026.81 183.668.81Z" stroke="#EAE7E0" stroke-width="1.049"/><g clip-path="url(#a)"><g clip-path="url(#b)"><path d="M270.725 127.209c-6.05-7.14-11.255-14.437-12.318-15.918a.235.235 0 0 0-.306-.074.23.23 0 0 0-.085.074c-1.057 1.498-6.262 8.795-12.301 15.935-51.837 66.005 8.169 110.55 8.169 110.55l.486.341c.459 6.889 1.588 16.774 1.588 16.774h4.512s1.119-9.863 1.583-16.774l.492-.385s60.005-44.501 8.18-110.523m-12.508 109.589s-2.689-2.293-3.416-3.444v-.123l3.254-71.882a.18.18 0 0 1 .059-.102.18.18 0 0 1 .223 0 .18.18 0 0 1 .059.102l3.265 71.893v.123c-.726 1.118-3.416 3.444-3.416 3.444" fill="#00ED64"/></g><path d="M355.988 200.282v13.483a9.4 9.4 0 0 0 .091 1.597c.175 1.597 1.155 2.571 2.596 3.019q2.02.531 4.09.798c.798.091 1.065.441 1.155 1.298.091 3.019-.175 3.376-3.102 3.194-6.829-.357-13.665-.441-20.494 0h-.649c-2.129.091-2.304-.091-2.304-2.22 0-.357.091-.798.091-1.155 0-.65.441-.974 1.064-.974 1.428-.175 2.753-.532 4.09-.799 1.863-.441 2.921-1.596 3.103-3.46.259-2.038.259-4.167.259-6.212l.091-23.772a3.63 3.63 0 0 0-1.947-3.375 25.2 25.2 0 0 0-5.064-2.129c-.532-.176-1.064-.26-1.506-.533-1.298-.623-1.33-1.772-.09-2.486a4.5 4.5 0 0 1 1.506-.532 80.7 80.7 0 0 0 15.787-3.992c1.064-.358 1.33-.26 1.428.798.091.649 0 1.428-.091 2.038-.175 1.156-.175 2.305-.175 3.376 0 .441.09.889.532 1.155.441.266.889 0 1.298-.259 1.863-1.428 3.726-2.753 5.764-3.895 2.922-1.597 6.037-3.019 9.413-3.46 4.09-.532 7.627.532 10.737 3.194a20.1 20.1 0 0 1 3.369 3.901c.889 1.298.973 1.331 2.129.441 3.375-2.486 6.92-4.699 10.737-6.296 3.992-1.688 8.075-1.948 12.151-.533 4.168 1.506 7.011 4.434 8.699 8.426 1.428 3.194 2.038 6.492 2.038 9.932v23.772c0 1.597.649 2.597 2.22 3.376 1.688.649 3.551.973 5.323 1.33 1.156.26 1.156.26 1.156 1.428-.176 2.922-.442 3.103-3.285 2.922a191 191 0 0 0-21.376 0c-1.428.091-1.428.091-1.506-1.331v-.442c-.091-2.401-.091-2.401 2.22-2.921l2.304-.623a3.574 3.574 0 0 0 2.753-3.46l.259-6.654-.175-17.384a13.8 13.8 0 0 0-.974-4.524c-2.22-5.414-7.095-7.362-11.801-6.829-3.551.357-6.654 1.772-9.581 3.817-.623.441-1.065.973-.974 1.863.799 5.68.26 11.36.357 17.033v12.334c0 2.22.889 3.285 3.019 3.817l4.089.889c.623.091.974.357.974 1.065v.649c-.091 2.486-.26 2.597-2.752 2.571-7.096-.357-14.197-.26-21.201 0-2.402.091-2.597-.175-2.486-2.597.09-1.428.259-1.506 1.596-1.772l2.922-.532c2.596-.533 3.55-1.506 3.726-4.259l.259-5.946-.175-17.832c-.175-2.22-.649-4.349-1.863-6.387-1.772-3.285-4.544-4.966-8.341-5.148-3.817-.26-7.186 1.155-10.387 2.921-2.22 1.298-3.193 2.837-3.018 5.414v12.95zm167.133.539v12.509q.022 1.335.176 2.662a2.724 2.724 0 0 0 2.129 2.486c1.53.446 3.107.714 4.699.798.89.091 1.065.442 1.156 1.156v.623c-.091 3.103-.442 3.46-3.46 3.285-6.751-.442-13.483-.357-20.227 0l-2.597.091c-.532 0-.649-.26-.798-.624a9 9 0 0 1 0-3.726c.091-.532.441-.649.974-.798 1.298-.175 2.401-.441 3.635-.649 2.22-.533 3.018-1.428 3.103-3.726l.259-7.453v-21.824c0-1.597-.623-2.57-2.038-3.285-1.597-.889-3.285-1.506-5.063-2.129-.533-.175-1.065-.357-1.506-.623-1.156-.798-1.298-1.947-.175-2.837a3.2 3.2 0 0 1 1.772-.714c5.68-.889 11.178-2.129 16.501-4.258.623-.26.889-.091 1.155.441a2.95 2.95 0 0 1 .26 1.772l-.26 4.168c0 .532-.259 1.298.175 1.506.533.357.89-.441 1.331-.649a39.5 39.5 0 0 1 8.608-5.498c2.752-1.299 5.582-2.13 8.783-1.948 5.946.357 10.204 3.376 12.95 8.608 1.428 2.752 2.038 5.764 2.304 8.874l.26 6.491.091 19.604c.091 1.506.623 2.487 2.129 3.019 1.561.52 3.164.907 4.791 1.155 1.428.176 1.506.442 1.596 1.773v.441c-.175 3.018-.357 3.103-3.375 2.921a186 186 0 0 0-19.87 0c-.889.091-1.772 0-2.597.091-.532 0-.889-.091-.973-.623-.176-1.156-.357-2.305-.091-3.551.091-.532.357-.798.973-.889l4.09-.65c1.428-.357 2.22-1.298 2.402-2.596l.175-2.486-.091-18.54c0-2.129-.091-4.258-.532-6.388-1.065-4.544-4.525-7.789-9.218-8.244-4.089-.441-7.789.623-11.178 2.837-1.688 1.065-2.402 2.571-2.402 4.434v13.398c0-.26 0-.26.091-.26z" fill="#fff"/><path d="M782.952 175.715c-.974-6.479-3.376-12.243-7.543-17.3a34.2 34.2 0 0 0-13.665-10.114c-5.582-2.304-11.535-3.018-17.565-3.194-2.486-.091-36.371.442-38.858 0-.623-.091-1.064.091-1.428.624-.441.649-.889 1.33-1.155 2.038-1.065 2.402-1.065 2.22 1.506 2.57 2.129.357 4.167.533 6.212 1.156 1.863.623 3.194 1.688 3.635 3.726.175.974.357 32.198.357 46.752l-.357 10.386c-.091.798-.175 1.597-.441 2.304-.357 1.065-.974 1.948-2.038 2.402a10.5 10.5 0 0 1-3.726.974c-2.402.26-2.753.357-3.551 3.019l-.26.973c-.175 1.156-.091 1.331 1.065 1.331l26.523.26 10.387-.176 7.186-.889c8.159-1.506 15.436-4.882 21.642-10.289a36 36 0 0 0 8.516-11.178c2.487-4.966 3.551-10.387 3.817-15.878.442-3.103.26-6.297-.259-9.491zm-12.866 12.593c-.357 5.68-1.506 11.178-4.434 16.144-3.726 6.479-9.049 11.003-16.41 12.594-3.194.649-6.388.974-9.737.532-2.402-.26-4.7-.532-6.92-1.331-3.992-1.428-5.414-3.895-5.498-7.789l-.091-53.49c0-3.194 1.428-3.895 3.726-3.992 3.46-.26 7.011-.176 10.471.175a39.3 39.3 0 0 1 10.736 2.596 25.8 25.8 0 0 1 7.011 4.35c4.791 4.089 7.985 9.218 9.737 15.255 1.428 4.881 1.688 9.847 1.428 14.813zm86.595 8.699c0-.533 0-.974-.091-1.506-.799-4.882-3.376-8.608-7.361-11.445-2.571-1.863-5.499-3.103-8.517-3.992-.532-.175-.974-.357-1.506-.442.091-.441.357-.532.623-.623 1.772-.889 3.46-1.863 4.966-3.194 2.752-2.304 4.544-5.147 5.498-8.607.532-1.863.532-3.726.357-5.68a15.25 15.25 0 0 0-6.478-11.536c-4.09-3.018-8.874-4.258-13.84-4.349-9.581-.175-19.247 0-28.821 0-2.753 0-5.499.175-8.342-.26-.532-.09-1.298-.259-1.688.358-.649 1.155-1.428 2.304-1.687 3.635-.091.623.09.973.798 1.064l6.121.89c2.402.357 4.09 1.687 4.259 3.817a38 38 0 0 1 .259 4.433l-.175 16.586-.091 32.821c0 1.947-.259 3.817-.623 5.764a3.24 3.24 0 0 1-2.304 2.662c-1.772.532-3.46 1.064-5.323 1.064a2.21 2.21 0 0 0-2.305 1.506 11.5 11.5 0 0 0-.798 2.487c-.175 1.064.091 1.428 1.155 1.298.799-.091 30.075.623 35.573.091 3.285-.357 6.491-.799 9.757-1.772 5.582-1.772 10.736-4.35 14.813-8.699 3.375-3.551 5.323-7.809 5.498-12.775.26-1.156.26-2.305.26-3.551zm-43.025-36.353.26-7.095c0-1.331.532-1.947 1.863-2.22 2.129-.441 4.258-.26 6.387-.175 2.129.175 4.168.441 6.297 1.064 3.895 1.156 6.919 3.376 8.698 7.096a12.7 12.7 0 0 1 1.24 5.414c.091 2.486-.091 4.881-1.065 7.27-1.506 3.285-3.894 5.414-7.361 6.037s-13.307.357-14.813.357c-1.331 0-1.428-.175-1.428-1.506v-8.354a57 57 0 0 1-.091-7.81zm28.822 47.726c-1.506 3.992-4.259 6.751-8.16 8.244-2.129.798-4.258 1.298-6.491 1.155-2.753-.091-5.499 0-8.244-.532-3.727-.798-5.414-4.349-5.68-6.92-.442-4.524-.176-9.14-.26-12.509v-11.711c0-1.428.175-1.863 1.688-1.863l8.341.091 5.68.649c3.992.89 7.627 2.402 10.471 5.499 2.304 2.486 3.55 5.498 3.816 8.783.26 3.103.091 6.121-1.064 9.049z" fill="#C2BFBF"/><path d="m617.065 181.655 2.305.357c2.486.09 5.413-.799 6.296-4.259a8.96 8.96 0 0 0 0-5.063c-.532 0-.798.441-1.064.623-1.331 1.065-2.837 1.688-4.434 1.863-3.194.357-6.388.175-9.49-.974l-4.35-1.506a25.7 25.7 0 0 0-9.412-1.233c-4.525.357-8.783 1.863-12.775 3.992-4.258 2.305-7.27 5.765-8.699 10.471-.798 2.752-.889 5.583-.532 8.426.889 6.478 4.258 11.003 10.289 13.398.357.091.623.26.974.357.798.442.889.89.175 1.506l-2.22 1.506-5.323 3.285c-1.331.798-1.506 1.428-1.065 2.837a9.3 9.3 0 0 0 2.837 4.258 14.8 14.8 0 0 0 4.083 2.486c.974.442.974.65.091 1.428l-5.063 3.636c-1.688 1.298-3.376 2.596-4.791 4.258a8.77 8.77 0 0 0-2.129 7.985 15 15 0 0 0 4.609 7.984 18.83 18.83 0 0 0 8.16 4.434c4.965 1.428 10.113 1.506 15.17.532 7.27-1.331 13.632-4.544 18.63-10.023 3.46-3.635 5.498-7.893 5.68-12.983a12.46 12.46 0 0 0-9.581-12.95l-4.791-.889-14.638-1.299c-1.597-.091-3.194-.357-4.524-1.155-1.688-1.065-2.13-3.103-1.065-4.434.798-.974 1.772-1.597 3.018-1.688l2.837-.259a25.7 25.7 0 0 0 14.989-6.829 15.7 15.7 0 0 0 4.524-7.543c1.065-3.817 1.065-7.79.176-11.685-.26-.974-.176-1.065 1.064-.889zm-21.746 44.187c.532.091 1.065 0 1.597 0 3.726.175 7.543.441 11.178 1.428 1.187.351 2.344.796 3.46 1.331 3.551 1.947 4.881 5.323 4.434 8.958-.533 3.992-2.753 6.829-6.213 8.699-2.304 1.298-4.881 1.863-7.543 2.129-.973.091-1.863 0-2.836 0-3.103.091-6.122-.26-9.049-1.506-2.039-.799-3.726-1.948-5.232-3.551-3.103-3.103-4.544-8.783.09-13.398 2.837-2.597 6.037-4.434 10.114-4.09m10.114-27.68c-1.863 4.7-5.947 6.122-10.023 5.499-3.726-.533-6.478-2.571-8.244-5.947-2.305-4.524-2.921-9.217-1.597-14.106.974-3.635 3.194-6.387 7.095-7.01 4.966-.89 9.737.889 12.243 5.855 1.298 2.402 1.863 5.323 1.863 9.49-.091 1.688-.442 3.993-1.331 6.213zm-111.769-6.037c-.798-4.79-2.57-9.14-5.855-12.775-4.882-5.414-11.087-7.79-18.098-7.809-6.121-.091-11.879 1.688-17.033 4.881a23.1 23.1 0 0 0-10.38 13.574c-1.506 5.148-1.428 10.386-.26 15.612 3.103 14.022 13.931 20.046 26.875 19.163 3.816-.26 7.452-1.506 10.905-3.194 5.148-2.402 8.874-6.212 11.444-11.269 2.039-4.168 2.921-8.608 2.837-13.665l-.441-4.524zm-12.593 19.695a10.783 10.783 0 0 1-9.14 7.453c-3.895.532-7.543-.442-10.821-2.753a18.4 18.4 0 0 1-5.589-6.654c-3.635-7.452-4.258-15.255-2.402-23.239a13.3 13.3 0 0 1 3.726-6.479c3.285-3.018 7.095-3.726 11.36-2.836 4.09.889 7.186 3.103 9.737 6.478 2.551 3.376 3.726 7.271 4.434 11.36.357 2.039.357 4.168.441 5.499 0 4.258-.357 7.789-1.688 11.178zm206.425-18.981c-.649-5.147-2.57-9.847-6.212-13.749-4.79-5.232-11.003-7.452-17.916-7.543-5.946-.091-11.444 1.597-16.501 4.525-5.68 3.375-9.581 8.16-11.087 14.638a30.96 30.96 0 0 0 2.129 21.11c2.921 6.213 7.893 10.205 14.463 11.977 7.27 1.948 14.196 1.065 20.934-2.22 5.856-2.837 10.023-7.27 12.418-13.307 1.428-3.551 1.948-7.362 2.039-11.802.091-.798-.091-2.22-.26-3.635zm-12.242 17.832c-1.428 4.791-4.434 7.894-9.491 8.608-3.726.532-7.27-.357-10.47-2.486-2.753-1.863-4.7-4.349-6.122-7.271-1.596-3.103-2.486-6.387-2.836-9.756-.533-4.168-.533-8.244.441-12.418.186-.824.453-1.626.799-2.396 2.486-6.212 7.984-9.049 14.462-7.627 4.35.973 7.628 3.375 10.114 7.01 2.402 3.551 3.551 7.453 4.089 11.685.26 1.688.357 3.46.26 4.966 0 3.46-.26 6.654-1.298 9.757z" fill="#fff"/></g><defs><clipPath id="a"><path fill="#fff" d="M224.619 111.19h632.062v143.701H224.619z"/></clipPath><clipPath id="b"><path fill="#fff" d="M224.619 111.19h67.194v143.701h-67.194z"/></clipPath></defs></svg>