<svg width="981" height="362" viewBox="0 0 981 362" fill="none" xmlns="http://www.w3.org/2000/svg"><path d="M180.795 1.391h618.973c99.359 0 179.906 80.547 179.906 179.906s-80.546 179.905-179.905 179.906H180.795C81.435 361.203.889 280.657.889 181.297.889 81.938 81.436 1.391 180.795 1.391" fill="#1C222F"/><path d="M180.795 1.391h618.973c99.359 0 179.906 80.547 179.906 179.906s-80.546 179.905-179.905 179.906H180.795C81.435 361.203.889 280.657.889 181.297.889 81.938 81.436 1.391 180.795 1.391Z" stroke="#EAE7E0" stroke-width="1.049"/><g clip-path="url(#a)"><g clip-path="url(#b)"><path d="M228.519 202.111h12.577v-49.652l19.472 43.3c2.297 5.22 5.444 7.095 11.611 7.095 6.166 0 9.19-1.854 11.491-7.095l19.473-43.3v49.67h12.58v-49.588c0-4.838-1.939-7.177-5.928-8.385-9.554-2.983-15.965-.403-18.866 6.047l-19.108 42.734-18.508-42.752c-2.782-6.451-9.312-9.031-18.866-6.048-3.993 1.21-5.928 3.55-5.928 8.385zm97.659-40.428h12.574v27.367c-.118 1.488.477 4.977 7.367 5.084 3.516.056 27.132 0 27.352 0v-32.587h12.602c.056 0-.013 44.432-.011 44.622.069 10.958-13.598 13.339-19.895 13.523h-39.715v-8.463l39.786-.002c8.094-.858 7.14-4.879 7.14-6.234v-3.3h-26.733c-12.438-.112-20.357-5.542-20.456-11.787-.01-.56.268-27.954-.008-28.225z" fill="#00618A"/><path d="M395.77 202.106h36.162c4.231 0 8.346-.886 11.614-2.42 5.443-2.498 8.104-5.886 8.104-10.321v-9.19c0-3.63-3.024-7.015-8.949-9.273-3.145-1.212-7.015-1.855-10.764-1.855h-15.24c-5.078 0-7.498-1.532-8.102-4.918-.121-.402-.121-.745-.121-1.129v-5.723c0-.323 0-.647.121-1.05.604-2.58 1.935-3.307 6.41-3.728.363 0 .846-.082 1.211-.082h35.92v-8.384H416.82c-5.08 0-7.74.323-10.16 1.048-7.505 2.339-10.771 6.068-10.771 12.518v7.338c0 5.645 6.413 10.482 17.173 11.61 1.212.08 2.42.16 3.628.16h13.062c.485 0 .97 0 1.331.082 3.99.323 5.686 1.048 6.894 2.498.746.746.97 1.455.97 2.238v7.337c0 .887-.604 2.017-1.814 2.983-1.089.969-2.903 1.612-5.323 1.775-.484 0-.846.08-1.329.08H395.77v8.406m134.343-14.594c0 8.628 6.409 13.466 19.35 14.433q1.811.14 3.628.161h32.777v-8.386h-33.019c-7.377 0-10.16-1.855-10.16-6.29v-43.38h-12.578v43.459zm-70.44.437v-29.893c0-7.595 5.332-12.201 15.876-13.656a24 24 0 0 1 3.395-.242h23.875q1.766.002 3.516.242c10.544 1.455 15.875 6.059 15.875 13.656v29.893c0 6.161-2.265 9.459-7.485 11.608l12.39 11.185h-14.604l-10.024-9.048-10.091.639h-13.452c-2.303 0-4.726-.324-7.394-1.051-8.016-2.182-11.877-6.384-11.877-13.333m13.577-.746c0 .404.121.807.243 1.294.745 3.475 3.998 5.413 8.948 5.413h11.428l-10.496-9.475h14.604l9.135 8.264c1.687-.899 2.796-2.275 3.169-4.04.121-.403.121-.807.121-1.212v-28.662c0-.323 0-.746-.121-1.132-.746-3.23-4.001-5.089-8.847-5.089h-18.971c-5.592 0-9.209 2.423-9.209 6.221v28.44z" fill="#E48E00"/><path fill-rule="evenodd" clip-rule="evenodd" d="M591.771 193.483c0 5.537 4.375 9.27 9.269 9.27s9.269-3.733 9.269-9.27-4.375-9.269-9.269-9.269-9.269 3.732-9.269 9.269m16.461 0c0 4.202-3.212 7.342-7.196 7.342-4.027 0-7.196-3.14-7.196-7.342s3.166-7.341 7.196-7.341c3.981 0 7.196 3.139 7.196 7.341m-4.698 5.291h2.075l-3.038-4.646c1.631-.173 2.865-.965 2.865-2.893 0-2.152-1.361-3.039-3.978-3.039h-4.13v10.58h1.78v-4.573h1.656l2.769 4.573zm-4.426-6.059v-3.039h2.051c1.063 0 2.349.198 2.349 1.436 0 1.482-1.161 1.607-2.498 1.607h-1.902z" fill="#E48E00"/><path d="M740.832 219.386c-7.731-.209-13.639.509-18.687 2.638-1.435.605-3.723.62-3.958 2.419.789.826.914 2.06 1.538 3.076 1.206 1.952 3.244 4.568 5.058 5.936 1.983 1.497 4.027 3.1 6.157 4.399 3.785 2.308 8.009 3.626 11.652 5.936 2.147 1.361 4.28 3.076 6.375 4.616 1.035.761 1.734 1.942 3.076 2.418v-.22c-.708-.901-.889-2.138-1.538-3.076l-2.857-2.858c-2.797-3.728-6.342-6.967-10.114-9.675-3.007-2.159-9.739-5.075-10.993-8.576l-.22-.22c2.133-.242 4.629-1.012 6.599-1.538 3.306-.885 6.26-.658 9.676-1.538l4.617-1.319v-.88c-1.726-1.771-2.956-4.115-4.837-5.716-4.922-4.195-10.297-8.38-15.828-11.875-3.068-1.939-6.86-3.195-10.113-4.838-1.094-.552-3.016-.839-3.738-1.76-1.707-2.177-2.638-4.94-3.956-7.457-2.759-5.313-5.469-11.118-7.915-16.709-1.669-3.812-2.759-7.572-4.836-10.993-9.983-16.412-20.73-26.319-37.374-36.054-3.542-2.069-7.805-2.889-12.313-3.958l-7.256-.44c-1.476-.615-3.012-2.423-4.399-3.299-5.514-3.486-19.658-11.061-23.743-1.119-2.578 6.288 3.854 12.423 6.156 15.611 1.614 2.237 3.684 4.741 4.836 7.256.758 1.651.891 3.309 1.539 5.057 1.598 4.288 2.989 8.992 5.056 12.972 1.044 2.013 2.196 4.134 3.518 5.935.811 1.106 2.2 1.592 2.418 3.3-1.357 1.901-1.436 4.847-2.2 7.256-3.436 10.834-2.14 24.3 2.858 32.32 1.534 2.46 5.145 7.74 10.113 5.715 4.344-1.771 3.356-7.252 4.618-12.091.28-1.1.108-1.902.66-2.638v.22l3.958 7.914c2.927 4.716 8.128 9.647 12.531 12.975 2.284 1.724 4.101 4.707 7.036 5.715v-.22h-.22c-.573-.895-1.468-1.262-2.2-1.976-1.721-1.687-3.635-3.784-5.058-5.715-4.008-5.44-7.546-11.391-10.771-17.589-1.54-2.959-2.88-6.223-4.176-9.234-.5-1.161-.494-2.916-1.538-3.518-1.422 2.208-3.518 3.99-4.618 6.596-1.76 4.165-1.987 9.243-2.638 14.511-.386.138-.214.043-.44.22-3.061-.738-4.138-3.891-5.275-6.596-2.879-6.841-3.412-17.851-.88-25.722.652-2.036 3.616-8.452 2.418-10.333-.573-1.878-2.461-2.983-3.518-4.4-1.305-1.771-2.614-4.109-3.518-6.156-2.356-5.331-3.456-11.316-5.936-16.709-1.185-2.576-3.187-5.182-4.835-7.457-1.824-2.535-3.865-4.407-5.276-7.456-.503-1.091-1.186-2.834-.44-3.958a1.73 1.73 0 0 1 1.32-1.32c1.275-.983 4.828.326 6.155.88 3.524 1.465 6.469 2.86 9.456 4.838 1.435.932 2.884 2.788 4.616 3.299h1.976c3.094.712 6.562.224 9.451 1.1 5.112 1.553 9.69 3.971 13.851 6.596 12.673 8.001 23.033 19.391 30.121 32.996 1.14 2.187 1.633 4.277 2.637 6.596 2.027 4.661 4.579 9.494 6.596 14.069 2.013 4.568 3.971 9.172 6.816 12.971 1.495 1.995 7.27 3.069 9.893 4.176 1.84.778 4.853 1.589 6.596 2.638 3.327 2.008 6.552 4.4 9.675 6.6 1.56 1.099 6.357 3.51 6.596 5.495z" fill="#00618A"/><path fill-rule="evenodd" clip-rule="evenodd" d="M642.56 135.621c-1.611-.029-2.749.175-3.954.44v.22h.22c.768 1.579 2.123 2.594 3.073 3.954l2.198 4.611.22-.22c1.359-.959 1.983-2.492 1.974-4.833-.546-.573-.626-1.292-1.099-1.978-.628-.912-1.862-1.43-2.635-2.197z" fill="#00618A"/></g></g><defs><clipPath id="a"><path fill="#fff" d="M224.07 111.77h532.421v139.054H224.07z"/></clipPath><clipPath id="b"><path fill="#fff" d="M224.07 111.77h532.421v139.054H224.07z"/></clipPath></defs></svg>