<svg width="749" height="262" viewBox="0 0 749 262" fill="none" xmlns="http://www.w3.org/2000/svg"><rect width="749" height="262" rx="131" fill="#EAE7E0"/><path d="M198.11 162.5q-1.088 0-1.541-.453-.453-.544-.453-1.631v-59.363q0-1.088.453-1.541t1.541-.453h18.217q.996 0 1.45.362.543.363 1.087 1.45l14.682 24.924h.725l14.682-24.924q.635-1.087 1.088-1.45.543-.362 1.541-.362h18.126q1.087 0 1.54.453.544.453.544 1.541v59.363q0 2.084-2.084 2.084h-12.326q-2.084 0-2.084-2.084v-39.153h-.726l-13.05 21.48q-.635 1.087-1.178 1.45-.454.362-1.451.362h-9.878q-.997 0-1.541-.362-.543-.363-1.178-1.45l-12.96-21.48h-.816v39.153q0 1.087-.453 1.631-.453.453-1.541.453zm104.176 0q-2.084 0-2.084-2.084v-18.761l-22.386-39.333q-.453-.907-.453-1.451 0-.815.725-1.268.634-.544 1.813-.544h12.326q1.087 0 1.631.362.635.363 1.178 1.36l13.051 24.198h.725l5.8-10.604 7.613-13.685q.544-.906 1.088-1.269.635-.362 1.722-.362h12.325q2.357 0 2.357 1.903 0 .634-.363 1.36l-22.385 39.333v18.761q0 1.087-.454 1.631-.453.453-1.54.453zm75.687.453q-7.884 0-11.51-3.534-3.534-3.625-3.534-11.601v-3.625q0-1.088.453-1.541t1.541-.453h13.05q1.088 0 1.541.453.544.453.544 1.541v1.722q0 2.628.906 3.625.997.906 3.625.906h14.682q2.63 0 3.535-.906.997-.997.997-3.625v-4.713q0-2.628-.997-3.535-.906-.996-3.535-.997h-20.845q-7.884 0-11.51-3.534-3.534-3.626-3.534-11.51v-7.976q0-7.885 3.534-11.419 3.626-3.625 11.51-3.625h26.646q7.885 0 11.419 3.625 3.625 3.534 3.625 11.419v3.626q0 1.087-.453 1.54-.452.453-1.541.453h-13.05q-1.088 0-1.541-.453t-.453-1.54v-1.722q0-2.63-.997-3.535-.906-.997-3.535-.997H384.68q-2.629 0-3.625.997-.906.906-.907 3.535v4.803q0 2.629.907 3.625.996.906 3.625.906h20.845q7.885 0 11.419 3.626 3.625 3.535 3.625 11.419v7.885q0 7.976-3.625 11.601-3.534 3.534-11.419 3.534zm99.594-64.347q8.338 0 12.235 3.897 3.988 3.897 3.988 12.235v31.992q0 8.339-3.988 12.326-3.897 3.897-12.235 3.897h-5.709l6.344 12.145q.362.725.362 1.359 0 1.45-2.084 1.45h-10.785q-1.087 0-1.722-.453t-1.178-1.541l-6.707-12.96h-7.704q-8.337 0-12.325-3.897-3.897-3.987-3.897-12.326v-31.992q0-8.338 3.897-12.235 3.988-3.897 12.325-3.897zm-.543 19.213q0-2.718-1.179-3.806-1.087-1.178-3.806-1.178h-18.126q-2.72 0-3.897 1.178-1.088 1.088-1.088 3.806v25.83q0 2.72 1.088 3.897 1.178 1.088 3.897 1.088h18.126q2.719 0 3.806-1.088 1.179-1.178 1.179-3.897zm32.372 44.681q-1.087 0-1.54-.453-.454-.544-.454-1.631v-59.363q0-1.088.454-1.541.453-.453 1.54-.453h12.689q1.087 0 1.54.453.544.453.544 1.541v46.493h30.814q1.088 0 1.541.453t.453 1.541v10.876q0 1.087-.453 1.631-.453.453-1.541.453z" fill="#202020"/></svg>