<svg width="981" height="362" viewBox="0 0 981 362" fill="none" xmlns="http://www.w3.org/2000/svg"><path d="M180.759.814h618.972c99.36 0 179.907 80.547 179.907 179.907 0 99.359-80.547 179.905-179.906 179.905H180.759C81.399 360.626.853 280.08.853 180.721.853 81.361 81.4.814 180.759.814" fill="#EAE7E0"/><path d="M180.759.814h618.972c99.36 0 179.907 80.547 179.907 179.907 0 99.359-80.547 179.905-179.906 179.905H180.759C81.399 360.626.853 280.08.853 180.721.853 81.361 81.4.814 180.759.814Z" stroke="#1C222F" stroke-width="1.049"/><g clip-path="url(#a)"><g clip-path="url(#b)"><path d="M228.475 201.534h12.578v-49.652l19.471 43.301c2.297 5.219 5.444 7.095 11.611 7.095 6.166 0 9.19-1.855 11.491-7.095l19.473-43.301v49.671h12.58v-49.589c0-4.837-1.939-7.177-5.928-8.385-9.554-2.983-15.965-.403-18.866 6.048l-19.108 42.733-18.508-42.752c-2.782-6.45-9.312-9.03-18.866-6.048-3.993 1.21-5.928 3.55-5.928 8.386zm97.659-40.427h12.574v27.366c-.118 1.488.477 4.978 7.367 5.084 3.516.056 27.132 0 27.352 0V160.97h12.602c.056 0-.013 44.432-.011 44.622.069 10.958-13.598 13.339-19.895 13.523h-39.715v-8.463l39.786-.002c8.094-.858 7.14-4.879 7.14-6.234v-3.3h-26.733c-12.438-.111-20.357-5.542-20.456-11.787-.009-.559.268-27.954-.008-28.224z" fill="#00618A"/><path d="M395.74 201.529h36.162c4.232 0 8.346-.886 11.614-2.42 5.444-2.498 8.104-5.885 8.104-10.32v-9.191c0-3.629-3.024-7.015-8.948-9.272-3.145-1.212-7.015-1.855-10.764-1.855h-15.24c-5.078 0-7.498-1.533-8.102-4.918-.121-.403-.121-.746-.121-1.13V156.7c0-.323 0-.647.121-1.05.604-2.58 1.935-3.307 6.409-3.728.364 0 .847-.082 1.212-.082h35.92v-8.383h-35.316c-5.08 0-7.74.322-10.16 1.047-7.505 2.34-10.771 6.068-10.771 12.518v7.338c0 5.645 6.412 10.483 17.173 11.61 1.211.081 2.419.161 3.628.161h13.062c.485 0 .969 0 1.331.082 3.99.322 5.686 1.047 6.894 2.498.746.746.969 1.454.969 2.237v7.337c0 .888-.604 2.018-1.813 2.983-1.089.97-2.903 1.613-5.323 1.775-.484 0-.846.08-1.329.08H395.74v8.406m134.343-14.593c0 8.627 6.41 13.465 19.351 14.433a56 56 0 0 0 3.628.16h32.776v-8.385h-33.019c-7.376 0-10.16-1.855-10.16-6.29v-43.381h-12.577v43.459zm-70.439.436v-29.893c0-7.595 5.332-12.201 15.876-13.655a24 24 0 0 1 3.394-.243h23.875c1.176.001 2.351.082 3.516.243 10.544 1.454 15.876 6.059 15.876 13.655v29.893c0 6.161-2.265 9.459-7.485 11.608l12.39 11.186h-14.605l-10.023-9.049-10.092.639h-13.452c-2.302 0-4.726-.324-7.393-1.051-8.016-2.181-11.877-6.383-11.877-13.333m13.577-.746c0 .405.121.807.242 1.294.746 3.475 3.999 5.414 8.949 5.414h11.427l-10.495-9.476h14.604l9.135 8.264c1.687-.899 2.796-2.274 3.169-4.04.121-.402.121-.807.121-1.211v-28.663c0-.322 0-.746-.121-1.131-.746-3.231-4.001-5.09-8.848-5.09h-18.97c-5.593 0-9.209 2.424-9.209 6.221v28.441z" fill="#E48E00"/><path fill-rule="evenodd" clip-rule="evenodd" d="M591.727 192.907c0 5.537 4.375 9.269 9.269 9.269s9.269-3.732 9.269-9.269-4.375-9.27-9.269-9.27-9.269 3.733-9.269 9.27m16.462 0c0 4.202-3.213 7.341-7.197 7.341-4.027 0-7.196-3.139-7.196-7.341 0-4.203 3.166-7.342 7.196-7.342 3.981 0 7.197 3.139 7.197 7.342m-4.699 5.291h2.075l-3.038-4.646c1.631-.174 2.865-.966 2.865-2.894 0-2.151-1.361-3.039-3.978-3.039h-4.13v10.58h1.781v-4.573h1.655l2.769 4.573zm-4.425-6.059V189.1h2.05c1.063 0 2.349.197 2.349 1.435 0 1.482-1.161 1.607-2.498 1.607h-1.901z" fill="#E48E00"/><path d="M740.811 218.809c-7.73-.209-13.638.509-18.686 2.638-1.436.606-3.723.621-3.958 2.42.788.825.913 2.06 1.538 3.076 1.206 1.951 3.244 4.567 5.057 5.935 1.984 1.497 4.027 3.1 6.158 4.4 3.784 2.308 8.009 3.626 11.651 5.935 2.148 1.361 4.281 3.076 6.376 4.616 1.035.761 1.734 1.943 3.076 2.418v-.22c-.708-.9-.889-2.138-1.538-3.076l-2.858-2.858c-2.796-3.728-6.342-6.966-10.113-9.675-3.007-2.159-9.739-5.074-10.994-8.575l-.22-.22c2.133-.243 4.629-1.013 6.6-1.538 3.305-.886 6.26-.658 9.675-1.538l4.618-1.32v-.88c-1.727-1.771-2.957-4.114-4.838-5.716-4.921-4.194-10.296-8.379-15.827-11.875-3.069-1.939-6.86-3.195-10.114-4.837-1.094-.552-3.016-.839-3.737-1.76-1.708-2.178-2.638-4.94-3.956-7.457-2.759-5.313-5.47-11.118-7.916-16.709-1.668-3.813-2.759-7.573-4.835-10.994-9.983-16.412-20.731-26.319-37.374-36.054-3.542-2.069-7.806-2.889-12.314-3.957l-7.255-.44c-1.477-.615-3.013-2.424-4.4-3.3-5.514-3.486-19.658-11.06-23.742-1.118-2.579 6.288 3.853 12.423 6.155 15.611 1.615 2.237 3.684 4.74 4.836 7.255.759 1.652.891 3.309 1.54 5.058 1.598 4.287 2.988 8.991 5.056 12.971 1.044 2.013 2.196 4.135 3.518 5.936.81 1.105 2.199 1.592 2.417 3.299-1.357 1.902-1.435 4.847-2.199 7.256-3.436 10.835-2.141 24.3 2.857 32.32 1.535 2.461 5.146 7.74 10.114 5.716 4.343-1.771 3.355-7.252 4.618-12.092.279-1.1.108-1.901.659-2.638v.22l3.958 7.914c2.927 4.716 8.128 9.647 12.532 12.975 2.283 1.724 4.101 4.707 7.035 5.716v-.22h-.22c-.572-.895-1.467-1.262-2.2-1.976-1.72-1.688-3.635-3.785-5.057-5.716-4.008-5.44-7.547-11.391-10.772-17.589-1.54-2.959-2.88-6.223-4.176-9.234-.499-1.161-.494-2.915-1.538-3.517-1.422 2.207-3.517 3.989-4.617 6.595-1.76 4.165-1.988 9.243-2.638 14.511-.386.138-.215.043-.44.22-3.061-.738-4.139-3.89-5.276-6.595-2.878-6.842-3.411-17.852-.88-25.723.653-2.035 3.617-8.452 2.418-10.333-.572-1.877-2.461-2.983-3.518-4.4-1.305-1.771-2.613-4.108-3.517-6.155-2.357-5.332-3.457-11.316-5.936-16.709-1.186-2.577-3.188-5.183-4.836-7.457-1.823-2.536-3.864-4.407-5.276-7.457-.503-1.091-1.185-2.834-.44-3.958a1.74 1.74 0 0 1 1.32-1.32c1.275-.982 4.829.327 6.156.88 3.523 1.465 6.469 2.86 9.455 4.838 1.436.932 2.884 2.789 4.616 3.3h1.976c3.095.712 6.562.223 9.452 1.099 5.111 1.553 9.69 3.971 13.851 6.596 12.673 8.001 23.032 19.392 30.12 32.997 1.141 2.186 1.633 4.276 2.638 6.595 2.026 4.661 4.578 9.495 6.596 14.07 2.013 4.567 3.97 9.172 6.815 12.971 1.495 1.995 7.271 3.068 9.894 4.176 1.84.777 4.852 1.588 6.595 2.638 3.328 2.007 6.553 4.399 9.675 6.599 1.561 1.1 6.357 3.51 6.596 5.496z" fill="#00618A"/><path fill-rule="evenodd" clip-rule="evenodd" d="M642.536 135.042c-1.611-.029-2.749.175-3.954.44v.22h.22c.767 1.579 2.123 2.594 3.073 3.953l2.197 4.612.22-.22c1.36-.959 1.984-2.492 1.974-4.833-.545-.574-.625-1.292-1.098-1.978-.628-.912-1.863-1.43-2.636-2.197z" fill="#00618A"/></g></g><defs><clipPath id="a"><path fill="#fff" d="M224.035 111.193h532.421v139.054H224.035z"/></clipPath><clipPath id="b"><path fill="#fff" d="M224.035 111.193h532.421v139.054H224.035z"/></clipPath></defs></svg>