<svg width="765" height="283" viewBox="0 0 765 283" fill="none" xmlns="http://www.w3.org/2000/svg"><path d="M141.066 1.005h482.77c77.495 0 140.318 62.822 140.318 140.317s-62.823 140.319-140.318 140.319H141.067C63.572 281.641.749 218.818.749 141.322S63.571 1.005 141.066 1.005" fill="#EAE7E0"/><path d="M141.066 1.005h482.77c77.495 0 140.318 62.822 140.318 140.317s-62.823 140.319-140.318 140.319H141.067C63.572 281.641.749 218.818.749 141.322S63.571 1.005 141.066 1.005Z" stroke="#1C222F" stroke-width=".818"/><g clip-path="url(#a)"><g clip-path="url(#b)"><path d="M178.277 157.56h9.81v-38.726l15.188 33.772c1.791 4.072 4.245 5.534 9.055 5.534s7.168-1.446 8.963-5.534l15.188-33.772v38.741h9.812v-38.677c0-3.773-1.513-5.598-4.624-6.54-7.452-2.326-12.452-.314-14.715 4.717l-14.903 33.33-14.435-33.345c-2.17-5.031-7.263-7.043-14.715-4.716-3.114.943-4.624 2.768-4.624 6.54zm76.17-31.531h9.807v21.344c-.092 1.161.372 3.883 5.746 3.965 2.742.044 21.162 0 21.333 0v-25.416h9.829c.044 0-.01 34.655-.008 34.803.053 8.547-10.606 10.404-15.518 10.548H254.66v-6.601l31.032-.002c6.313-.669 5.569-3.805 5.569-4.862v-2.574H270.41c-9.701-.087-15.878-4.322-15.955-9.193-.007-.436.21-21.803-.005-22.014z" fill="#00618A"/><path d="M308.717 157.556h28.205c3.3 0 6.509-.691 9.058-1.887 4.246-1.949 6.32-4.591 6.32-8.05v-7.168c0-2.831-2.358-5.471-6.979-7.232-2.453-.945-5.471-1.447-8.395-1.447h-11.887c-3.96 0-5.848-1.195-6.319-3.836-.094-.314-.094-.581-.094-.881v-4.464c0-.251 0-.504.094-.818.471-2.013 1.51-2.58 4.999-2.908.284 0 .66-.064.945-.064h28.016v-6.539h-27.545c-3.962 0-6.037.252-7.924.817-5.854 1.825-8.401 4.733-8.401 9.764v5.723c0 4.403 5.002 8.176 13.394 9.055.945.063 1.887.126 2.83.126h10.188c.378 0 .756-.001 1.038.063 3.112.252 4.435.818 5.377 1.949.581.581.756 1.134.756 1.745v5.723c0 .692-.471 1.573-1.415 2.326-.849.756-2.264 1.258-4.151 1.384-.378 0-.66.063-1.037.063h-27.073v6.556m104.781-11.382c0 6.729 4.999 10.502 15.093 11.257q1.412.109 2.829.125h25.564v-6.54h-25.753c-5.754 0-7.924-1.447-7.924-4.906v-33.835h-9.81v33.896zm-54.939.34v-23.315c0-5.923 4.158-9.516 12.382-10.65a19 19 0 0 1 2.648-.189h18.621q1.377 0 2.742.189c8.224 1.134 12.382 4.725 12.382 10.65v23.315c0 4.806-1.766 7.378-5.837 9.054l9.663 8.724h-11.391l-7.818-7.058-7.87.499h-10.492c-1.796 0-3.686-.253-5.767-.82-6.252-1.701-9.263-4.978-9.263-10.399m10.589-.581c0 .315.095.629.189 1.009.582 2.71 3.119 4.222 6.979 4.222h8.913l-8.186-7.391h11.391l7.125 6.446c1.315-.701 2.181-1.774 2.471-3.151.095-.314.095-.629.095-.945v-22.355c0-.252 0-.582-.095-.883-.581-2.52-3.12-3.969-6.9-3.969h-14.796c-4.362 0-7.183 1.89-7.183 4.852v22.182z" fill="#E48E00"/><path fill-rule="evenodd" clip-rule="evenodd" d="M461.607 150.833c0 4.322 3.416 7.235 7.236 7.235s7.235-2.913 7.235-7.235-3.416-7.235-7.235-7.235-7.236 2.913-7.236 7.235m12.85 0c0 3.28-2.508 5.731-5.617 5.731-3.144 0-5.617-2.451-5.617-5.731s2.471-5.73 5.617-5.73c3.106 0 5.617 2.45 5.617 5.73m-3.667 4.13h1.619l-2.372-3.626c1.273-.136 2.237-.754 2.237-2.259 0-1.679-1.062-2.372-3.106-2.372h-3.223v8.258h1.39v-3.569h1.292l2.161 3.569zm-3.455-4.729v-2.372h1.601c.829 0 1.833.154 1.833 1.12 0 1.157-.906 1.255-1.95 1.255h-1.484z" fill="#E48E00"/><path d="M577.882 171.034c-6.03-.162-10.638.397-14.576 2.058-1.12.473-2.904.484-3.087 1.887.615.645.713 1.607 1.2 2.4.94 1.522 2.53 3.562 3.945 4.629 1.547 1.168 3.14 2.418 4.802 3.432 2.952 1.8 6.247 2.828 9.088 4.63 1.675 1.061 3.339 2.399 4.973 3.6.807.593 1.353 1.515 2.399 1.886v-.172c-.552-.702-.693-1.667-1.199-2.399l-2.229-2.229c-2.181-2.908-4.947-5.434-7.889-7.547-2.345-1.683-7.596-3.958-8.574-6.688l-.172-.172c1.664-.189 3.611-.789 5.148-1.2 2.578-.69 4.882-.513 7.546-1.199l3.602-1.03v-.686c-1.347-1.381-2.306-3.209-3.773-4.458-3.839-3.272-8.031-6.536-12.345-9.263-2.394-1.512-5.351-2.492-7.889-3.773-.853-.43-2.353-.654-2.915-1.373-1.332-1.698-2.058-3.853-3.086-5.816-2.152-4.144-4.266-8.672-6.174-13.033-1.301-2.973-2.152-5.906-3.772-8.574-7.786-12.802-16.169-20.529-29.151-28.122-2.763-1.614-6.088-2.254-9.604-3.087l-5.659-.343c-1.152-.48-2.35-1.89-3.432-2.574-4.301-2.72-15.333-8.627-18.519-.873-2.011 4.905 3.005 9.69 4.801 12.177 1.259 1.745 2.873 3.698 3.772 5.659.592 1.288.695 2.581 1.201 3.945 1.246 3.344 2.331 7.013 3.944 10.117.814 1.571 1.713 3.226 2.743 4.63.633.863 1.716 1.242 1.886 2.574-1.058 1.483-1.119 3.781-1.715 5.659-2.68 8.451-1.67 18.954 2.229 25.21 1.196 1.919 4.013 6.037 7.888 4.458 3.388-1.382 2.617-5.657 3.602-9.431.218-.858.084-1.484.515-2.058v.172l3.087 6.172c2.282 3.679 6.339 7.525 9.774 10.121 1.781 1.345 3.199 3.671 5.488 4.458v-.172h-.172c-.446-.698-1.144-.984-1.716-1.541-1.342-1.316-2.835-2.952-3.945-4.458-3.126-4.243-5.886-8.885-8.401-13.72-1.202-2.307-2.247-4.853-3.258-7.202-.389-.905-.385-2.274-1.199-2.743-1.11 1.721-2.744 3.111-3.602 5.144-1.373 3.249-1.55 7.209-2.057 11.319-.301.107-.168.033-.344.171-2.387-.576-3.228-3.034-4.115-5.144-2.245-5.337-2.661-13.925-.686-20.064.509-1.587 2.821-6.592 1.886-8.06-.446-1.464-1.919-2.326-2.744-3.431-1.018-1.382-2.038-3.205-2.744-4.802-1.838-4.158-2.696-8.826-4.629-13.032-.925-2.01-2.487-4.043-3.772-5.817-1.422-1.977-3.015-3.437-4.115-5.816-.393-.85-.925-2.21-.344-3.087a1.35 1.35 0 0 1 1.03-1.03c.995-.766 3.766.255 4.801.687 2.748 1.143 5.046 2.23 7.375 3.773 1.12.727 2.25 2.175 3.601 2.574h1.541c2.414.555 5.118.174 7.372.858 3.987 1.211 7.558 3.097 10.804 5.144 9.885 6.241 17.965 15.126 23.493 25.737.89 1.706 1.274 3.336 2.058 5.145 1.581 3.635 3.571 7.406 5.144 10.974 1.571 3.562 3.098 7.154 5.317 10.117 1.166 1.556 5.67 2.394 7.716 3.257 1.435.607 3.785 1.239 5.145 2.058 2.595 1.566 5.111 3.432 7.547 5.147 1.217.858 4.958 2.738 5.144 4.287z" fill="#00618A"/><path fill-rule="evenodd" clip-rule="evenodd" d="M501.205 105.702c-1.257-.023-2.144.137-3.084.343v.171h.171c.599 1.232 1.656 2.024 2.397 3.084l1.714 3.596.171-.171c1.061-.748 1.547-1.944 1.54-3.769-.426-.448-.488-1.008-.857-1.543-.489-.712-1.452-1.115-2.055-1.714z" fill="#00618A"/></g></g><defs><clipPath id="a"><path fill="#fff" d="M174.82 87.095h415.263V195.55H174.82z"/></clipPath><clipPath id="b"><path fill="#fff" d="M174.82 87.095h415.263V195.55H174.82z"/></clipPath></defs></svg>