<svg width="765" height="283" viewBox="0 0 765 283" fill="none" xmlns="http://www.w3.org/2000/svg"><path d="M140.727 1.005h482.769c77.495 0 140.318 62.822 140.318 140.317s-62.822 140.319-140.318 140.319H140.728C63.232 281.641.409 218.818.409 141.322S63.232 1.005 140.727 1.005" fill="#fff"/><path d="M140.727 1.005h482.769c77.495 0 140.318 62.822 140.318 140.317s-62.822 140.319-140.318 140.319H140.728C63.232 281.641.409 218.818.409 141.322S63.232 1.005 140.727 1.005Z" stroke="#ECE9E1" stroke-width=".818"/><g clip-path="url(#a)"><g clip-path="url(#b)"><path d="M177.938 157.56h9.81v-38.726l15.187 33.772c1.791 4.072 4.245 5.534 9.055 5.534s7.168-1.446 8.963-5.534l15.188-33.772v38.741h9.812v-38.677c0-3.773-1.512-5.598-4.624-6.54-7.452-2.326-12.452-.314-14.714 4.717l-14.904 33.33-14.435-33.345c-2.17-5.031-7.263-7.043-14.715-4.716-3.114.943-4.623 2.768-4.623 6.54zm76.169-31.531h9.807v21.344c-.091 1.161.372 3.883 5.746 3.965 2.743.044 21.162 0 21.333 0v-25.416h9.829c.044 0-.01 34.655-.008 34.803.054 8.547-10.606 10.404-15.517 10.548h-30.976v-6.601l31.031-.002c6.313-.669 5.569-3.805 5.569-4.862v-2.574H270.07c-9.701-.087-15.877-4.322-15.954-9.193-.008-.436.209-21.803-.006-22.014z" fill="#00618A"/><path d="M308.375 157.556h28.205c3.3 0 6.509-.691 9.058-1.887 4.246-1.949 6.321-4.591 6.321-8.05v-7.168c0-2.831-2.359-5.471-6.98-7.232-2.452-.945-5.471-1.447-8.395-1.447h-11.886c-3.961 0-5.848-1.195-6.319-3.836-.095-.314-.095-.581-.095-.881v-4.464c0-.251 0-.504.095-.818.471-2.013 1.509-2.58 4.998-2.908.284 0 .66-.064.945-.064h28.016v-6.539h-27.544c-3.963 0-6.037.252-7.925.817-5.854 1.825-8.401 4.733-8.401 9.764v5.723c0 4.403 5.002 8.176 13.394 9.055.945.063 1.888.126 2.83.126h10.188c.378 0 .756 0 1.038.063 3.112.252 4.435.818 5.377 1.949.582.581.756 1.134.756 1.745v5.723c0 .692-.471 1.573-1.415 2.326-.849.756-2.263 1.258-4.151 1.384-.378 0-.66.063-1.036.063h-27.074v6.556m104.781-11.382c0 6.729 4.999 10.502 15.093 11.257q1.412.109 2.829.125h25.564v-6.54h-25.753c-5.753 0-7.924-1.447-7.924-4.906v-33.835h-9.81v33.896zm-54.939.34v-23.315c0-5.923 4.158-9.516 12.382-10.65a19 19 0 0 1 2.648-.189h18.621c.917 0 1.834.063 2.742.189 8.224 1.134 12.383 4.725 12.383 10.65v23.315c0 4.806-1.767 7.378-5.838 9.054l9.663 8.724h-11.391l-7.818-7.058-7.87.499h-10.492c-1.796 0-3.686-.253-5.767-.82-6.252-1.701-9.263-4.978-9.263-10.399m10.589-.581c0 .315.095.629.189 1.009.582 2.71 3.119 4.222 6.979 4.222h8.913l-8.186-7.391h11.391l7.125 6.446c1.316-.701 2.181-1.774 2.472-3.151.094-.314.094-.629.094-.945v-22.355c0-.252 0-.582-.094-.883-.582-2.52-3.121-3.969-6.901-3.969h-14.796c-4.362 0-7.183 1.89-7.183 4.852v22.182z" fill="#E48E00"/><path fill-rule="evenodd" clip-rule="evenodd" d="M461.266 150.833c0 4.322 3.415 7.235 7.235 7.235s7.235-2.913 7.235-7.235-3.415-7.235-7.235-7.235-7.235 2.913-7.235 7.235m12.849 0c0 3.28-2.507 5.731-5.617 5.731-3.143 0-5.617-2.451-5.617-5.731s2.471-5.73 5.617-5.73c3.107 0 5.617 2.45 5.617 5.73m-3.667 4.13h1.619l-2.372-3.626c1.274-.136 2.237-.754 2.237-2.259 0-1.679-1.062-2.372-3.105-2.372h-3.224v8.258h1.39v-3.569h1.292l2.161 3.569zm-3.455-4.729v-2.372h1.601c.829 0 1.833.154 1.833 1.12 0 1.157-.906 1.255-1.95 1.255h-1.484z" fill="#E48E00"/><path d="M577.54 171.034c-6.03-.162-10.638.397-14.576 2.058-1.119.473-2.904.484-3.087 1.887.615.645.713 1.607 1.2 2.4.941 1.522 2.53 3.562 3.945 4.629 1.547 1.168 3.141 2.418 4.803 3.432 2.951 1.8 6.246 2.828 9.088 4.63 1.675 1.061 3.338 2.399 4.972 3.6.807.593 1.353 1.515 2.4 1.886v-.172c-.553-.702-.694-1.667-1.2-2.399l-2.229-2.229c-2.181-2.908-4.947-5.434-7.888-7.547-2.346-1.683-7.596-3.958-8.575-6.688l-.172-.172c1.664-.189 3.611-.789 5.148-1.2 2.578-.69 4.883-.513 7.546-1.199l3.602-1.03v-.686c-1.346-1.381-2.306-3.209-3.773-4.458-3.839-3.272-8.031-6.536-12.345-9.263-2.394-1.512-5.351-2.492-7.889-3.773-.853-.43-2.352-.654-2.915-1.373-1.332-1.698-2.058-3.853-3.086-5.816-2.152-4.144-4.266-8.672-6.174-13.033-1.301-2.973-2.152-5.906-3.771-8.574-7.787-12.802-16.17-20.529-29.152-28.122-2.763-1.614-6.088-2.254-9.604-3.087l-5.659-.343c-1.152-.48-2.35-1.89-3.432-2.574-4.301-2.72-15.333-8.627-18.519-.873-2.011 4.905 3.006 9.69 4.801 12.177 1.26 1.745 2.874 3.698 3.772 5.659.592 1.288.695 2.581 1.201 3.945 1.247 3.344 2.331 7.013 3.944 10.117.814 1.571 1.713 3.226 2.744 4.63.632.863 1.715 1.242 1.886 2.574-1.059 1.483-1.12 3.781-1.716 5.659-2.68 8.451-1.669 18.954 2.229 25.21 1.197 1.919 4.013 6.037 7.888 4.458 3.388-1.382 2.618-5.657 3.602-9.431.218-.858.084-1.484.515-2.058v.172l3.087 6.172c2.283 3.679 6.34 7.525 9.774 10.121 1.781 1.345 3.199 3.671 5.488 4.458v-.172h-.172c-.446-.698-1.144-.984-1.716-1.541-1.342-1.316-2.835-2.952-3.945-4.458-3.126-4.243-5.886-8.885-8.401-13.72-1.201-2.307-2.247-4.853-3.257-7.202-.39-.905-.386-2.274-1.2-2.743-1.109 1.721-2.744 3.111-3.602 5.144-1.372 3.249-1.55 7.209-2.057 11.319-.301.107-.167.033-.343.171-2.388-.576-3.228-3.034-4.115-5.144-2.246-5.337-2.661-13.925-.687-20.064.509-1.587 2.821-6.592 1.886-8.06-.446-1.464-1.919-2.326-2.744-3.431-1.018-1.382-2.038-3.205-2.743-4.802-1.838-4.158-2.696-8.826-4.63-13.032-.925-2.01-2.487-4.043-3.772-5.817-1.422-1.977-3.014-3.437-4.115-5.816-.393-.85-.925-2.21-.343-3.087a1.35 1.35 0 0 1 1.029-1.03c.995-.766 3.766.255 4.802.687 2.748 1.143 5.045 2.23 7.375 3.773 1.119.727 2.249 2.175 3.6 2.574h1.541c2.414.555 5.119.174 7.372.858 3.987 1.211 7.559 3.097 10.804 5.144 9.885 6.241 17.965 15.126 23.494 25.737.89 1.706 1.273 3.336 2.057 5.145 1.581 3.635 3.571 7.406 5.145 10.974 1.57 3.562 3.097 7.154 5.316 10.117 1.166 1.556 5.671 2.394 7.717 3.257 1.435.607 3.784 1.239 5.144 2.058 2.596 1.566 5.111 3.432 7.547 5.147 1.217.858 4.958 2.738 5.144 4.287z" fill="#00618A"/><path fill-rule="evenodd" clip-rule="evenodd" d="M500.865 105.702c-1.257-.023-2.144.137-3.084.343v.171h.172c.598 1.232 1.655 2.024 2.396 3.084l1.714 3.596.172-.171c1.06-.748 1.546-1.944 1.539-3.769-.425-.448-.488-1.008-.857-1.543-.489-.712-1.452-1.115-2.055-1.714z" fill="#00618A"/></g></g><defs><clipPath id="a"><path fill="#fff" d="M174.48 87.095h415.263V195.55H174.48z"/></clipPath><clipPath id="b"><path fill="#fff" d="M174.48 87.095h415.263V195.55H174.48z"/></clipPath></defs></svg>