<svg width="849" height="286" viewBox="0 0 849 286" fill="none" xmlns="http://www.w3.org/2000/svg"><path d="M142.443.813h563.851c78.384 0 141.927 63.543 141.927 141.927s-63.543 141.927-141.927 141.927H142.443C64.059 284.667.517 221.124.517 142.74S64.059.813 142.443.813" fill="#EAE7E0"/><path d="M142.443.813h563.851c78.384 0 141.927 63.543 141.927 141.927s-63.543 141.927-141.927 141.927H142.443C64.059 284.667.517 221.124.517 142.74S64.059.813 142.443.813Z" stroke="#1C222F" stroke-width=".818"/><g clip-path="url(#a)"><path d="M230.37 198.282c30.718 0 55.619-24.901 55.619-55.618s-24.901-55.619-55.619-55.619c-30.717 0-55.618 24.902-55.618 55.619s24.901 55.618 55.618 55.618" fill="#000"/><path d="m267.151 184.392-49.664-63.974h-9.358v44.477h7.486v-34.97l45.66 58.993a56 56 0 0 0 5.876-4.526" fill="url(#b)"/><path fill-rule="evenodd" clip-rule="evenodd" d="M245.832 120.418h7.415v44.493h-7.415z" fill="url(#c)"/></g><path d="M555.813 107.183h61.483v11.35h-24.388v59.704h-12.197v-59.704h-24.902zm-101.121 0v11.35h-49.283v18.26h39.634v11.347h-39.63v18.75h49.279v11.35h-61.477v-59.707h-.006v-11.347zm30.704.032h-15.962l57.164 71.054h16.007l-28.586-35.504 28.541-35.495-15.962.025-20.569 25.547zm16.375 50.754-7.99-9.938-24.392 30.293h16.007z" fill="#000"/><path fill-rule="evenodd" clip-rule="evenodd" d="m393.647 178.241-57.244-71.084h-15.247v71.055h12.195v-55.866l44.972 55.895z" fill="#000"/><path d="M620.034 177.801a3.2 3.2 0 0 1-1.238-.233 3.2 3.2 0 0 1-1.05-.695 2.98 2.98 0 0 1-.94-2.256q-.013-1.293.94-2.224a3.19 3.19 0 0 1 2.292-.927q1.29 0 2.246.93a3.03 3.03 0 0 1 .976 2.221 3.1 3.1 0 0 1-.456 1.605 3.3 3.3 0 0 1-1.181 1.149 3.06 3.06 0 0 1-1.589.43m20.819-29.934h5.404v20.823q-.012 2.865-1.232 4.926a8.2 8.2 0 0 1-3.402 3.168q-2.177 1.104-5.067 1.107-2.638-.004-4.744-.937a7.64 7.64 0 0 1-3.337-2.767q-1.236-1.833-1.233-4.57h5.414q.013 1.2.536 2.07a3.54 3.54 0 0 0 1.438 1.326q.93.465 2.131.465c.866 0 1.614-.18 2.214-.546q.906-.538 1.39-1.614.475-1.059.488-2.628zm27.641 8.143a3.93 3.93 0 0 0-1.717-2.947q-1.524-1.062-3.944-1.059a7.7 7.7 0 0 0-2.914.504 4.4 4.4 0 0 0-1.868 1.377 3.34 3.34 0 0 0-.661 1.977q0 .93.436 1.605a3.6 3.6 0 0 0 1.181 1.149 8 8 0 0 0 1.653.789q.918.321 1.836.539l2.818.69c1.122.254 2.22.609 3.279 1.059 1.02.422 1.975.987 2.834 1.679a7.5 7.5 0 0 1 1.987 2.442q.732 1.428.735 3.357 0 2.596-1.348 4.576-1.349 1.965-3.899 3.078-2.54 1.104-6.159 1.107c-2.33 0-4.365-.359-6.072-1.075q-2.576-1.062-4.028-3.119-1.443-2.054-1.559-5h5.356c.044.937.381 1.837.963 2.574q.86 1.02 2.224 1.53 1.376.504 3.074.504 1.774 0 3.126-.529 1.341-.523 2.099-1.477.77-.936.777-2.214a2.9 2.9 0 0 0-.687-1.919q-.681-.758-1.884-1.271a19 19 0 0 0-2.824-.918l-3.424-.866q-3.71-.94-5.861-2.857-2.15-1.916-2.15-5.099 0-2.616 1.451-4.583 1.438-1.968 3.931-3.056 2.503-1.094 5.655-1.091 3.193-.003 5.61 1.091 2.416 1.089 3.793 3.024 1.38 1.925 1.422 4.429z" fill="#000"/><defs><linearGradient id="b" x1="242.118" y1="159.042" x2="264.057" y2="186.234" gradientUnits="userSpaceOnUse"><stop stop-color="#fff"/><stop offset="1" stop-color="#fff" stop-opacity="0"/></linearGradient><linearGradient id="c" x1="249.54" y1="120.419" x2="249.415" y2="153.094" gradientUnits="userSpaceOnUse"><stop stop-color="#fff"/><stop offset="1" stop-color="#fff" stop-opacity="0"/></linearGradient><clipPath id="a"><path fill="#fff" d="M174.588 86.904h111.673v111.673H174.588z"/></clipPath></defs></svg>