<svg width="849" height="286" viewBox="0 0 849 286" fill="none" xmlns="http://www.w3.org/2000/svg"><path d="M142.336.813h563.851c78.383 0 141.926 63.543 141.926 141.927S784.57 284.667 706.187 284.667H142.336C63.952 284.667.409 221.124.409 142.74S63.952.813 142.336.813" fill="#fff"/><path d="M142.336.813h563.851c78.383 0 141.926 63.543 141.926 141.927S784.57 284.667 706.187 284.667H142.336C63.952 284.667.409 221.124.409 142.74S63.952.813 142.336.813Z" stroke="#ECE9E1" stroke-width=".818"/><g clip-path="url(#a)"><path d="M230.263 198.282c30.717 0 55.618-24.901 55.618-55.618s-24.901-55.619-55.618-55.619-55.618 24.902-55.618 55.619 24.901 55.618 55.618 55.618" fill="#000"/><path d="m267.042 184.392-49.665-63.974h-9.357v44.477h7.486v-34.97l45.66 58.993a56 56 0 0 0 5.876-4.526" fill="url(#b)"/><path fill-rule="evenodd" clip-rule="evenodd" d="M245.723 120.418h7.415v44.493h-7.415z" fill="url(#c)"/></g><path d="M555.709 107.183h61.484v11.35h-24.388v59.704h-12.198v-59.704h-24.901zm-101.12 0v11.35h-49.283v18.26h39.634v11.347h-39.631v18.75h49.28v11.35h-61.477v-59.707h-.007v-11.347zm30.703.032h-15.961l57.164 71.054h16.006l-28.585-35.504 28.54-35.495-15.961.025-20.569 25.547zm16.375 50.754-7.99-9.938-24.391 30.293h16.006z" fill="#000"/><path fill-rule="evenodd" clip-rule="evenodd" d="m393.541 178.241-57.244-71.084h-15.246v71.055h12.194v-55.866l44.973 55.895z" fill="#000"/><path d="M619.929 177.801a3.2 3.2 0 0 1-1.238-.233 3.2 3.2 0 0 1-1.05-.695 2.98 2.98 0 0 1-.941-2.256q-.013-1.293.941-2.224a3.18 3.18 0 0 1 2.291-.927q1.29 0 2.246.93a3.02 3.02 0 0 1 .976 2.221 3.07 3.07 0 0 1-.456 1.605 3.3 3.3 0 0 1-1.181 1.149 3.06 3.06 0 0 1-1.588.43m20.818-29.934h5.405v20.823q-.014 2.865-1.233 4.926a8.2 8.2 0 0 1-3.402 3.168q-2.175 1.104-5.067 1.107-2.639-.004-4.743-.937a7.64 7.64 0 0 1-3.338-2.767q-1.236-1.833-1.232-4.57h5.414q.012 1.2.536 2.07a3.54 3.54 0 0 0 1.437 1.326q.931.465 2.131.465c.867 0 1.615-.18 2.215-.546q.904-.538 1.389-1.614.476-1.059.488-2.628zm27.642 8.143a3.93 3.93 0 0 0-1.717-2.947q-1.525-1.062-3.945-1.059a7.7 7.7 0 0 0-2.914.504 4.4 4.4 0 0 0-1.867 1.377 3.33 3.33 0 0 0-.661 1.977q0 .93.436 1.605.43.686 1.181 1.149c.519.325 1.073.59 1.653.789q.918.321 1.835.539l2.818.69c1.123.254 2.221.609 3.28 1.059 1.02.422 1.974.987 2.834 1.679a7.5 7.5 0 0 1 1.986 2.442q.732 1.428.735 3.357 0 2.596-1.348 4.576-1.347 1.965-3.899 3.078-2.538 1.104-6.158 1.107c-2.33 0-4.365-.359-6.072-1.075q-2.577-1.062-4.028-3.119-1.444-2.054-1.56-5h5.357c.044.937.38 1.837.962 2.574q.86 1.02 2.224 1.53 1.377.504 3.075.504 1.774 0 3.126-.529 1.341-.523 2.098-1.477.771-.936.777-2.214a2.89 2.89 0 0 0-.687-1.919q-.68-.758-1.883-1.271a19 19 0 0 0-2.825-.918l-3.424-.866q-3.71-.94-5.86-2.857-2.15-1.916-2.15-5.099 0-2.616 1.45-4.583 1.438-1.968 3.932-3.056 2.503-1.094 5.654-1.091 3.193-.003 5.61 1.091 2.417 1.089 3.794 3.024 1.38 1.925 1.421 4.429z" fill="#000"/><defs><linearGradient id="b" x1="242.009" y1="159.042" x2="263.947" y2="186.234" gradientUnits="userSpaceOnUse"><stop stop-color="#fff"/><stop offset="1" stop-color="#fff" stop-opacity="0"/></linearGradient><linearGradient id="c" x1="249.43" y1="120.419" x2="249.306" y2="153.094" gradientUnits="userSpaceOnUse"><stop stop-color="#fff"/><stop offset="1" stop-color="#fff" stop-opacity="0"/></linearGradient><clipPath id="a"><path fill="#fff" d="M174.48 86.904h111.673v111.673H174.48z"/></clipPath></defs></svg>