<svg width="849" height="286" viewBox="0 0 849 286" fill="none" xmlns="http://www.w3.org/2000/svg"><path d="M142.336.813h563.853c78.384 0 141.927 63.543 141.927 141.927s-63.543 141.927-141.927 141.927H142.336C63.952 284.667.409 221.124.409 142.74S63.952.813 142.336.813" fill="#1C222F"/><path d="M142.336.813h563.853c78.384 0 141.927 63.543 141.927 141.927s-63.543 141.927-141.927 141.927H142.336C63.952 284.667.409 221.124.409 142.74S63.952.813 142.336.813Z" stroke="#EAE7E0" stroke-width=".818"/><g clip-path="url(#a)"><path d="M230.263 198.282c30.717 0 55.618-24.901 55.618-55.618s-24.901-55.619-55.618-55.619-55.618 24.902-55.618 55.619 24.901 55.618 55.618 55.618" fill="#000"/><path d="m267.044 184.392-49.665-63.974h-9.358v44.477h7.487v-34.97l45.66 58.993a56 56 0 0 0 5.876-4.526" fill="url(#b)"/><path fill-rule="evenodd" clip-rule="evenodd" d="M245.725 120.418h7.415v44.493h-7.415z" fill="url(#c)"/></g><path d="M555.704 107.183h61.484v11.35H592.8v59.704h-12.197v-59.704h-24.902zm-101.119 0v11.35h-49.283v18.259h39.633v11.348h-39.63v18.75h49.28v11.35h-61.477v-59.707h-.006v-11.347zm30.703.032h-15.962l57.164 71.054h16.006l-28.585-35.505 28.541-35.495-15.962.026-20.569 25.547zm16.375 50.754-7.99-9.939-24.391 30.294h16.006z" fill="#fff"/><path fill-rule="evenodd" clip-rule="evenodd" d="m393.539 178.24-57.244-71.083h-15.246v71.055h12.194v-55.866l44.973 55.894z" fill="#fff"/><path d="M619.931 177.801a3.176 3.176 0 0 1-2.288-.928 2.98 2.98 0 0 1-.941-2.256q-.013-1.293.941-2.224a3.17 3.17 0 0 1 2.291-.928q1.29 0 2.246.931a3 3 0 0 1 .976 2.221 3.1 3.1 0 0 1-.456 1.605c-.29.476-.696.871-1.181 1.148a3.06 3.06 0 0 1-1.588.431m20.818-29.934h5.404v20.822q-.012 2.866-1.232 4.927a8.2 8.2 0 0 1-3.402 3.167q-2.175 1.104-5.067 1.107-2.639-.003-4.743-.937a7.63 7.63 0 0 1-3.338-2.766q-1.236-1.833-1.232-4.57h5.414q.012 1.2.536 2.07a3.53 3.53 0 0 0 1.437 1.325q.931.465 2.131.466c.867 0 1.615-.18 2.215-.546q.904-.54 1.389-1.614.476-1.06.488-2.629zm27.641 8.142a3.913 3.913 0 0 0-1.717-2.946q-1.524-1.062-3.944-1.059a7.7 7.7 0 0 0-2.914.504 4.4 4.4 0 0 0-1.868 1.377 3.33 3.33 0 0 0-.661 1.976q0 .932.437 1.605.43.687 1.181 1.149c.519.325 1.073.59 1.652.79q.918.32 1.836.539l2.818.69c1.123.254 2.22.608 3.28 1.059 1.02.421 1.974.986 2.833 1.678a7.55 7.55 0 0 1 1.987 2.443q.732 1.428.735 3.357 0 2.596-1.348 4.576-1.348 1.964-3.899 3.078-2.539 1.104-6.159 1.107c-2.33 0-4.364-.359-6.072-1.075q-2.577-1.062-4.027-3.12-1.444-2.054-1.56-5h5.356c.045.938.381 1.838.963 2.574q.86 1.021 2.224 1.531 1.377.504 3.075.504 1.775 0 3.125-.53 1.342-.522 2.099-1.476.771-.937.777-2.214a2.9 2.9 0 0 0-.687-1.92q-.68-.756-1.884-1.27a19 19 0 0 0-2.824-.918l-3.424-.867q-3.71-.94-5.86-2.856t-2.15-5.1q0-2.615 1.45-4.583 1.438-1.967 3.931-3.055 2.503-1.094 5.655-1.091 3.194-.004 5.61 1.091 2.416 1.088 3.793 3.023 1.38 1.926 1.422 4.429z" fill="#fff"/><defs><linearGradient id="b" x1="242.011" y1="159.042" x2="263.949" y2="186.234" gradientUnits="userSpaceOnUse"><stop stop-color="#fff"/><stop offset="1" stop-color="#fff" stop-opacity="0"/></linearGradient><linearGradient id="c" x1="249.432" y1="120.419" x2="249.308" y2="153.094" gradientUnits="userSpaceOnUse"><stop stop-color="#fff"/><stop offset="1" stop-color="#fff" stop-opacity="0"/></linearGradient><clipPath id="a"><path fill="#fff" d="M174.48 86.904h111.673v111.673H174.48z"/></clipPath></defs></svg>