<svg width="1092" height="366" viewBox="0 0 1092 366" fill="none" xmlns="http://www.w3.org/2000/svg"><path d="M183.402 1.394h725.607c100.501 0 181.961 81.468 181.961 181.964 0 100.497-81.46 181.966-181.961 181.966H183.402c-100.496 0-181.964-81.469-181.964-181.966C1.438 82.862 82.906 1.394 183.402 1.394" fill="#1C222F"/><path d="M183.402 1.394h725.607c100.501 0 181.961 81.468 181.961 181.964 0 100.497-81.46 181.966-181.961 181.966H183.402c-100.496 0-181.964-81.469-181.964-181.966C1.438 82.862 82.906 1.394 183.402 1.394Z" stroke="#EAE7E0" stroke-width="1.049"/><g clip-path="url(#a)"><path d="M296.126 254.566c39.381 0 71.306-31.925 71.306-71.306s-31.925-71.307-71.306-71.307-71.307 31.925-71.307 71.307c0 39.381 31.925 71.306 71.307 71.306" fill="#000"/><path d="M343.273 236.755 279.6 154.736h-11.997v57.022h9.597v-44.834l58.539 75.633a71.5 71.5 0 0 0 7.534-5.802" fill="url(#b)"/><path fill-rule="evenodd" clip-rule="evenodd" d="M315.938 154.736h9.506v57.041h-9.506z" fill="url(#c)"/></g><path d="M715.185 137.503h79.296v14.638h-31.453v76.998h-15.731v-76.998h-32.116zm-130.417 0v14.638h-63.561v23.549h51.116v14.634h-51.112v24.181h63.557v14.639H505.48v-77.003h-.008v-14.634zm39.599.041h-20.586l73.726 91.637h20.643l-36.867-45.789 36.809-45.777-20.585.033-26.529 32.947zM645.486 203l-10.305-12.817-31.458 39.068h20.644z" fill="#fff"/><path fill-rule="evenodd" clip-rule="evenodd" d="m506.02 229.136-73.825-91.67h-19.663v91.633h15.727v-72.045l57.999 72.082z" fill="#fff"/><path d="M798.006 228.579a4.1 4.1 0 0 1-2.951-1.196 3.86 3.86 0 0 1-1.213-2.91q-.017-1.668 1.213-2.868a4.11 4.11 0 0 1 2.955-1.196q1.664 0 2.897 1.2a3.9 3.9 0 0 1 1.258 2.864 3.97 3.97 0 0 1-.588 2.07 4.26 4.26 0 0 1-1.523 1.481 3.95 3.95 0 0 1-2.048.555m26.847-38.601h6.97v26.851q-.017 3.696-1.59 6.353a10.55 10.55 0 0 1-4.387 4.085q-2.806 1.424-6.535 1.428-3.402-.005-6.116-1.209a9.84 9.84 0 0 1-4.305-3.567q-1.593-2.363-1.589-5.894h6.982q.016 1.548.691 2.67a4.56 4.56 0 0 0 1.854 1.709q1.2.6 2.748.6c1.118 0 2.082-.232 2.856-.703q1.167-.696 1.792-2.082.612-1.366.629-3.39zm35.646 10.5a5 5 0 0 0-.672-2.153 5 5 0 0 0-1.542-1.646q-1.966-1.37-5.086-1.366a9.9 9.9 0 0 0-3.758.65 5.67 5.67 0 0 0-2.409 1.775 4.3 4.3 0 0 0-.852 2.549q0 1.2.562 2.07.555.885 1.523 1.481c.67.42 1.385.762 2.132 1.018q1.183.414 2.367.696l3.634.89a25 25 0 0 1 4.23 1.365 15 15 0 0 1 3.654 2.165 9.7 9.7 0 0 1 2.562 3.149q.944 1.842.948 4.329 0 3.348-1.739 5.902-1.739 2.532-5.028 3.969-3.274 1.424-7.942 1.428c-3.005 0-5.629-.464-7.831-1.387q-3.322-1.37-5.194-4.023-1.862-2.648-2.011-6.448h6.907a5.8 5.8 0 0 0 1.242 3.32q1.11 1.316 2.868 1.974 1.775.65 3.965.649 2.288 0 4.031-.682 1.73-.675 2.707-1.904.993-1.209 1.001-2.856a3.72 3.72 0 0 0-.885-2.475q-.878-.976-2.43-1.639a25 25 0 0 0-3.642-1.183l-4.416-1.118q-4.784-1.212-7.557-3.683t-2.773-6.576q0-3.374 1.871-5.91 1.854-2.537 5.07-3.94 3.228-1.411 7.292-1.407 4.118-.005 7.234 1.407 3.117 1.403 4.892 3.899 1.78 2.483 1.834 5.711z" fill="#fff"/><defs><linearGradient id="b" x1="311.179" y1="204.255" x2="339.305" y2="239.117" gradientUnits="userSpaceOnUse"><stop stop-color="#fff"/><stop offset="1" stop-color="#fff" stop-opacity="0"/></linearGradient><linearGradient id="c" x1="320.691" y1="154.738" x2="320.531" y2="196.627" gradientUnits="userSpaceOnUse"><stop stop-color="#fff"/><stop offset="1" stop-color="#fff" stop-opacity="0"/></linearGradient><clipPath id="a"><path fill="#fff" d="M224.619 111.772h143.172v143.172H224.619z"/></clipPath></defs></svg>