<svg width="791" height="263" viewBox="0 0 791 263" fill="none" xmlns="http://www.w3.org/2000/svg"><rect width="791" height="263" rx="131.5" fill="#EAE7E0"/><path d="M200.61 163q-1.088 0-1.541-.453-.453-.544-.453-1.631v-59.363q0-1.088.453-1.541t1.541-.453h16.313q1.087 0 1.632.453.634.363 1.178 1.269l21.751 37.43h.816v-37.158q0-1.088.453-1.541.543-.453 1.631-.453h12.145q1.087 0 1.54.453.544.453.544 1.541v59.363q0 2.084-2.084 2.084h-16.314q-1.088 0-1.722-.363-.634-.453-1.087-1.45l-21.752-37.43h-.815v37.159q0 1.087-.453 1.631-.453.453-1.541.453zm120.052-13.866q1.088 0 1.541.543.453.453.453 1.541v9.698q0 1.087-.453 1.631-.453.453-1.541.453h-46.493q-1.088 0-1.541-.453-.453-.544-.453-1.631v-59.363q0-1.088.453-1.541t1.541-.453h45.587q1.088 0 1.541.453t.453 1.541v9.788q0 1.087-.453 1.54t-1.541.454h-30.814v11.147h28.095q1.088 0 1.541.453t.453 1.541v9.063q0 1.088-.453 1.631-.453.453-1.541.454h-28.095v11.51zM328.715 163q-1.179 0-1.813-.453-.634-.544-.634-1.269t.544-1.541l18.216-29.183-17.219-27.823q-.544-.816-.544-1.541t.544-1.178q.635-.453 1.722-.453h13.322q1.088 0 1.632.362.634.273 1.268 1.269l6.073 10.241 4.259 7.07h.725l4.26-7.07 6.072-10.241q.544-.906 1.178-1.269.635-.362 1.722-.362h13.232q1.088 0 1.722.453.635.453.635 1.178t-.544 1.541l-17.31 27.823 18.216 29.183q.544.816.544 1.541 0 .816-.634 1.269-.635.453-1.722.453h-13.232q-1.088 0-1.722-.363-.635-.361-1.179-1.359l-11.238-18.67h-.725l-11.238 18.67q-.543.997-1.178 1.359-.635.363-1.722.363zm114.642-63.441q1.088 0 1.541.453.543.453.544 1.541v10.875q0 2.085-2.085 2.085h-18.76v46.403q0 2.084-2.085 2.084h-12.688q-1.088 0-1.541-.453-.453-.544-.453-1.631v-46.403h-18.851q-1.088 0-1.541-.453-.453-.544-.453-1.632v-10.875q0-1.088.453-1.541t1.541-.453zm43.142 63.894q-8.337 0-12.325-3.897-3.898-3.987-3.898-12.326v-9.606q0-1.089.454-1.541.453-.544 1.54-.544h12.87q1.087 0 1.541.544.453.452.453 1.541v6.525q0 2.72 1.087 3.897 1.179 1.088 3.897 1.088h9.607q2.72 0 3.807-1.088 1.178-1.178 1.178-3.897v-30.361h-27.189q-1.088 0-1.541-.453t-.453-1.541v-10.241q0-1.088.453-1.541t1.541-.453h41.962q1.087 0 1.54.453t.453 1.541v45.677q0 8.339-3.987 12.326-3.898 3.897-12.145 3.897zm64.525 0q-7.884 0-11.51-3.534-3.534-3.625-3.534-11.601v-3.625q0-1.088.453-1.541t1.541-.453h13.05q1.089 0 1.541.453.544.453.544 1.541v1.722q0 2.628.906 3.625.997.906 3.625.906h14.683q2.628 0 3.534-.906.997-.997.997-3.625v-4.713q0-2.628-.997-3.535-.906-.996-3.534-.997h-20.845q-7.886 0-11.51-3.534-3.535-3.626-3.535-11.51v-7.976q0-7.885 3.535-11.419 3.624-3.625 11.51-3.625h26.645q7.885 0 11.419 3.625 3.626 3.534 3.626 11.419v3.626q0 1.087-.454 1.54-.453.453-1.54.453h-13.051q-1.088 0-1.541-.453t-.453-1.54v-1.722q0-2.63-.997-3.535-.906-.997-3.534-.997h-13.867q-2.628 0-3.625.997-.906.906-.906 3.535v4.803q0 2.629.906 3.625.997.906 3.625.906h20.845q7.885 0 11.419 3.626 3.626 3.535 3.626 11.419v7.885q0 7.976-3.626 11.601-3.534 3.534-11.419 3.534z" fill="#202020"/></svg>