<svg width="1091" height="366" viewBox="0 0 1091 366" fill="none" xmlns="http://www.w3.org/2000/svg"><path d="M182.665.975h725.602c100.493 0 181.963 81.468 181.963 181.964 0 100.497-81.47 181.966-181.963 181.966H182.665C82.169 364.905.7 283.436.7 182.939.7 82.443 82.17.975 182.665.975" fill="#EAE7E0"/><path d="M182.665.975h725.602c100.493 0 181.963 81.468 181.963 181.964 0 100.497-81.47 181.966-181.963 181.966H182.665C82.169 364.905.7 283.436.7 182.939.7 82.443 82.17.975 182.665.975Z" stroke="#1C222F" stroke-width="1.049"/><g clip-path="url(#a)"><path d="M295.388 254.147c39.382 0 71.307-31.925 71.307-71.306s-31.925-71.307-71.307-71.307c-39.381 0-71.306 31.925-71.306 71.307 0 39.381 31.925 71.306 71.306 71.306" fill="#000"/><path d="m342.536 236.336-63.673-82.019h-11.998v57.022h9.598v-44.834l58.539 75.633a72 72 0 0 0 7.534-5.802" fill="url(#b)"/><path fill-rule="evenodd" clip-rule="evenodd" d="M315.19 154.317h9.507v57.041h-9.507z" fill="url(#c)"/></g><path d="M714.422 137.082h79.296v14.638h-31.454v76.999h-15.731V151.72h-32.115zm-130.416 0v14.638h-63.561v23.549h51.116v14.634h-51.112v24.182h63.557v14.638h-79.288V151.72h-.008v-14.634zm39.598.041h-20.585l73.725 91.637h20.643l-36.866-45.789 36.808-45.777-20.585.033-26.529 32.947zm21.119 65.457-10.305-12.818-31.457 39.069h20.643z" fill="#000"/><path fill-rule="evenodd" clip-rule="evenodd" d="m505.282 228.718-73.825-91.67h-19.662v91.633h15.727v-72.045l57.998 72.082z" fill="#000"/><path d="M797.263 228.153a4.1 4.1 0 0 1-2.95-1.196 3.85 3.85 0 0 1-1.213-2.909q-.017-1.668 1.213-2.868a4.08 4.08 0 0 1 2.955-1.196q1.663 0 2.897 1.2a3.88 3.88 0 0 1 1.258 2.864 3.97 3.97 0 0 1-.588 2.069 4.26 4.26 0 0 1-1.523 1.482 3.95 3.95 0 0 1-2.049.554m26.848-38.601h6.969v26.852q-.017 3.695-1.589 6.353a10.56 10.56 0 0 1-4.387 4.084q-2.806 1.424-6.535 1.428-3.402-.004-6.117-1.208a9.85 9.85 0 0 1-4.304-3.568q-1.593-2.363-1.589-5.893h6.982q.016 1.548.691 2.669a4.55 4.55 0 0 0 1.854 1.709q1.2.601 2.748.601c1.117 0 2.082-.232 2.856-.704q1.167-.695 1.792-2.082.612-1.365.629-3.389zm35.646 10.5a5.06 5.06 0 0 0-2.215-3.799q-1.965-1.37-5.086-1.366a9.9 9.9 0 0 0-3.758.65 5.67 5.67 0 0 0-2.408 1.775 4.3 4.3 0 0 0-.853 2.55q0 1.2.563 2.069a4.6 4.6 0 0 0 1.523 1.482c.669.419 1.384.761 2.131 1.018q1.183.414 2.368.695l3.633.89c1.448.328 2.864.785 4.23 1.366a14.9 14.9 0 0 1 3.654 2.164 9.7 9.7 0 0 1 2.562 3.15q.943 1.84.948 4.329 0 3.348-1.738 5.901-1.738 2.534-5.029 3.969-3.274 1.424-7.942 1.428c-3.004 0-5.628-.464-7.83-1.386q-3.324-1.371-5.194-4.023-1.863-2.649-2.011-6.448h6.907a5.8 5.8 0 0 0 1.242 3.319q1.109 1.316 2.868 1.974 1.775.65 3.964.65 2.29 0 4.031-.683 1.73-.675 2.707-1.904.993-1.208 1.002-2.855a3.73 3.73 0 0 0-.886-2.475q-.878-.977-2.429-1.639a25 25 0 0 0-3.642-1.184l-4.416-1.117q-4.785-1.213-7.557-3.684t-2.773-6.576q0-3.372 1.87-5.91 1.854-2.536 5.07-3.94 3.228-1.411 7.292-1.407 4.119-.004 7.235 1.407 3.116 1.404 4.892 3.899 1.779 2.483 1.833 5.711z" fill="#000"/><defs><linearGradient id="b" x1="310.442" y1="203.837" x2="338.568" y2="238.698" gradientUnits="userSpaceOnUse"><stop stop-color="#fff"/><stop offset="1" stop-color="#fff" stop-opacity="0"/></linearGradient><linearGradient id="c" x1="319.944" y1="154.319" x2="319.784" y2="196.208" gradientUnits="userSpaceOnUse"><stop stop-color="#fff"/><stop offset="1" stop-color="#fff" stop-opacity="0"/></linearGradient><clipPath id="a"><path fill="#fff" d="M223.882 111.354h143.172v143.172H223.882z"/></clipPath></defs></svg>