<svg width="792" height="286" viewBox="0 0 792 286" fill="none" xmlns="http://www.w3.org/2000/svg"><path d="M142.333.788h506.773c78.383 0 141.924 63.542 141.924 141.924s-63.541 141.924-141.924 141.924H142.333C63.951 284.636.409 221.094.409 142.712S63.951.788 142.333.788" fill="#1C222F"/><path d="M142.333.788h506.773c78.383 0 141.924 63.542 141.924 141.924s-63.541 141.924-141.924 141.924H142.333C63.951 284.636.409 221.094.409 142.712S63.951.788 142.333.788Z" stroke="#EAE7E0" stroke-width=".818"/><g clip-path="url(#a)"><g clip-path="url(#b)"><path fill-rule="evenodd" clip-rule="evenodd" d="M240.194 146.227a3.35 3.35 0 0 0-1.677-2.914l-27.761-15.972a3.24 3.24 0 0 0-1.526-.44h-.287a3.3 3.3 0 0 0-1.533.44l-27.76 15.972a3.38 3.38 0 0 0-1.679 2.917l.061 43.022c0 .596.308 1.153.832 1.448a1.59 1.59 0 0 0 1.665 0l16.503-9.451a3.39 3.39 0 0 0 1.678-2.91V158.24c0-1.199.636-2.307 1.675-2.903l7.026-4.047a3.34 3.34 0 0 1 1.678-.451c.574 0 1.16.149 1.667.451l7.023 4.045a3.35 3.35 0 0 1 1.678 2.903v20.098c0 1.192.644 2.294 1.681 2.91l16.493 9.444a1.64 1.64 0 0 0 1.678 0c.508-.295.831-.852.831-1.448zm130.997 22.399c0 .3-.159.577-.419.725l-9.535 5.496a.84.84 0 0 1-.837 0l-9.537-5.496a.83.83 0 0 1-.419-.725v-11.008c0-.3.157-.577.413-.728l9.53-5.505a.85.85 0 0 1 .845 0l9.536 5.505c.263.151.42.428.42.728zm2.576-81.535a1.68 1.68 0 0 0-1.667.017 1.68 1.68 0 0 0-.828 1.449v42.602a1.17 1.17 0 0 1-1.759 1.016l-6.954-4.005a3.35 3.35 0 0 0-3.35 0l-27.77 16.027a3.35 3.35 0 0 0-1.678 2.897v32.063c0 1.199.64 2.3 1.678 2.903l27.77 16.038a3.36 3.36 0 0 0 3.354 0l27.77-16.044a3.36 3.36 0 0 0 1.678-2.904V99.242a3.36 3.36 0 0 0-1.724-2.93zm92.475 70.237a3.35 3.35 0 0 0 1.667-2.898v-7.771a3.36 3.36 0 0 0-1.67-2.9l-27.593-16.019a3.35 3.35 0 0 0-3.362 0l-27.764 16.025a3.35 3.35 0 0 0-1.677 2.904v32.05c0 1.206.648 2.32 1.69 2.917l27.587 15.723a3.35 3.35 0 0 0 3.29.02l16.687-9.274c.525-.295.859-.852.859-1.455s-.321-1.167-.846-1.462l-27.934-16.032a1.66 1.66 0 0 1-.845-1.448v-10.054c0-.601.315-1.154.839-1.453l8.691-5.014a1.66 1.66 0 0 1 1.671 0l8.697 5.014c.518.295.839.852.839 1.449v7.904c0 .597.322 1.154.839 1.455.518.295 1.16.295 1.678-.006z" fill="#fff"/><path fill-rule="evenodd" clip-rule="evenodd" d="M436.572 155.83a.64.64 0 0 1 .643 0l5.333 3.077c.2.116.322.328.322.558v6.16a.64.64 0 0 1-.322.557l-5.333 3.077a.64.64 0 0 1-.643 0l-5.33-3.077a.64.64 0 0 1-.328-.557v-6.16c0-.23.118-.442.322-.558z" fill="#689F63"/><mask id="c" style="mask-type:luminance" maskUnits="userSpaceOnUse" x="254" y="127" width="62" height="71"><path d="m283.323 127.903-27.615 15.939a3.33 3.33 0 0 0-1.669 2.888v31.9c0 1.191.635 2.292 1.669 2.888l27.617 15.952a3.35 3.35 0 0 0 3.336 0l27.612-15.952a3.34 3.34 0 0 0 1.665-2.888v-31.9c0-1.19-.636-2.292-1.671-2.888l-27.609-15.939a3.35 3.35 0 0 0-3.342 0" fill="#fff"/></mask><g mask="url(#c)"><path d="m343.836 141.135-77.808-38.139-39.895 81.386 77.806 38.141z" fill="url(#d)"/></g><mask id="e" style="mask-type:luminance" maskUnits="userSpaceOnUse" x="254" y="127" width="62" height="71"><path d="M254.723 180.652c.264.343.594.64.983.863l23.688 13.683 3.946 2.268a3.35 3.35 0 0 0 1.924.436q.331-.028.655-.12l29.125-53.329a3.3 3.3 0 0 0-.776-.616l-18.082-10.442-9.558-5.499a3.5 3.5 0 0 0-.865-.348z" fill="#fff"/></mask><g mask="url(#e)"><path d="m221.062 152.411 54.941 74.36 72.66-53.683-54.944-74.357z" fill="url(#f)"/></g><mask id="g" style="mask-type:luminance" maskUnits="userSpaceOnUse" x="255" y="127" width="61" height="71"><path d="M284.645 127.477c-.463.045-.916.19-1.333.427l-27.537 15.893 29.693 54.083a3.3 3.3 0 0 0 1.186-.409l27.615-15.952a3.35 3.35 0 0 0 1.613-2.278l-30.27-51.71a3.5 3.5 0 0 0-.95-.054" fill="#fff"/></mask><g mask="url(#g)"><path d="M255.775 127.464v70.417h60.096v-70.417z" fill="url(#h)"/></g><path d="M541.891 198.546a8.6 8.6 0 0 1-4.293-1.147l-13.662-8.087c-2.041-1.141-1.045-1.545-.372-1.778 2.721-.952 3.273-1.167 6.177-2.816.305-.174.705-.113 1.017.071l10.496 6.228c.379.205.917.205 1.269 0l40.925-23.619c.379-.216.625-.656.625-1.107v-47.218c0-.471-.246-.891-.633-1.127l-40.909-23.598a1.26 1.26 0 0 0-1.26 0l-40.901 23.598a1.3 1.3 0 0 0-.648 1.117v47.218c0 .451.246.881.635 1.096l11.207 6.473c6.085 3.042 9.804-.542 9.804-4.148v-46.604c0-.665.522-1.177 1.188-1.177h5.183c.646 0 1.179.512 1.179 1.177v46.625c0 8.112-4.426 12.772-12.119 12.772-2.367 0-4.231 0-9.435-2.561l-10.736-6.186a8.65 8.65 0 0 1-4.292-7.467v-47.218c0-3.073 1.639-5.941 4.292-7.457l40.966-23.63c2.592-1.464 6.034-1.464 8.605 0l40.915 23.641a8.63 8.63 0 0 1 4.292 7.456v47.218a8.66 8.66 0 0 1-4.292 7.457l-40.915 23.63a8.6 8.6 0 0 1-4.312 1.147" fill="#689F63"/><path d="M554.516 166.002c-17.906 0-21.661-8.219-21.661-15.111 0-.656.529-1.178 1.186-1.178h5.285c.584 0 1.076.425 1.168 1.002.799 5.385 3.176 8.101 14.003 8.101 8.625 0 12.293-1.948 12.293-6.521 0-2.632-1.045-4.589-14.444-5.9-11.206-1.106-18.131-3.574-18.131-12.536 0-8.255 6.966-13.171 18.633-13.171 13.102 0 19.596 4.548 20.416 14.318a1.194 1.194 0 0 1-1.189 1.291h-5.316a1.17 1.17 0 0 1-1.147-.922c-1.281-5.664-4.374-7.476-12.784-7.476-9.414 0-10.51 3.277-10.51 5.735 0 2.98 1.29 3.851 13.992 5.531 12.58 1.669 18.552 4.025 18.552 12.864 0 8.91-7.437 14.021-20.406 14.021m49.846-50.073h1.373c1.127 0 1.342-.789 1.342-1.25 0-1.208-.83-1.208-1.291-1.208h-1.414zm-1.67-3.871h3.043c1.045 0 3.093 0 3.093 2.335 0 1.628-1.045 1.966-1.669 2.171 1.219.082 1.301.881 1.464 2.007.082.707.216 1.926.461 2.336h-1.874c-.051-.41-.338-2.663-.338-2.786-.123-.502-.297-.748-.922-.748h-1.547v3.544h-1.711zm-3.657 4.404c0 3.666 2.961 6.636 6.597 6.636 3.668 0 6.628-3.031 6.628-6.636 0-3.677-3.001-6.596-6.638-6.596-3.585 0-6.597 2.878-6.597 6.585m14.505.031c0 4.343-3.554 7.886-7.887 7.886-4.303 0-7.888-3.502-7.888-7.886 0-4.465 3.667-7.886 7.888-7.886 4.251 0 7.877 3.431 7.877 7.886" fill="#689F63"/></g></g><defs><linearGradient id="d" x1="304.909" y1="122.005" x2="265.016" y2="203.386" gradientUnits="userSpaceOnUse"><stop offset=".3" stop-color="#3E863D"/><stop offset=".5" stop-color="#55934F"/><stop offset=".8" stop-color="#5AAD45"/></linearGradient><linearGradient id="f" x1="248.862" y1="190.017" x2="321.525" y2="136.328" gradientUnits="userSpaceOnUse"><stop offset=".57" stop-color="#3E863D"/><stop offset=".72" stop-color="#619857"/><stop offset="1" stop-color="#76AC64"/></linearGradient><linearGradient id="h" x1="255.796" y1="162.674" x2="315.882" y2="162.674" gradientUnits="userSpaceOnUse"><stop offset=".16" stop-color="#6BBF47"/><stop offset=".38" stop-color="#79B461"/><stop offset=".47" stop-color="#75AC64"/><stop offset=".7" stop-color="#659E5A"/><stop offset=".9" stop-color="#3E863D"/></linearGradient><clipPath id="a"><path fill="#fff" d="M174.48 86.878h442.479v111.667H174.48z"/></clipPath><clipPath id="b"><path fill="#fff" d="M174.48 86.878h442.479v111.667H174.48z"/></clipPath></defs></svg>