<svg width="1016" height="366" viewBox="0 0 1016 366" fill="none" xmlns="http://www.w3.org/2000/svg"><path d="M183.402.803h649.749c100.497 0 181.969 81.469 181.969 181.965s-81.472 181.966-181.969 181.966H183.402c-100.496 0-181.964-81.469-181.964-181.966C1.438 82.272 82.906.804 183.402.803" fill="#1C222F"/><path d="M183.402.803h649.749c100.497 0 181.969 81.469 181.969 181.965s-81.472 181.966-181.969 181.966H183.402c-100.496 0-181.964-81.469-181.964-181.966C1.438 82.272 82.906.804 183.402.803Z" stroke="#EAE7E0" stroke-width="1.049"/><g clip-path="url(#a)"><g clip-path="url(#b)"><path fill-rule="evenodd" clip-rule="evenodd" d="M308.872 187.275a4.3 4.3 0 0 0-2.15-3.736l-35.593-20.479a4.2 4.2 0 0 0-1.956-.563h-.368a4.25 4.25 0 0 0-1.967.563l-35.591 20.479a4.33 4.33 0 0 0-2.153 3.74l.078 55.159a2.12 2.12 0 0 0 1.067 1.858 2.04 2.04 0 0 0 2.135 0l21.159-12.118c1.336-.795 2.151-2.2 2.151-3.731v-25.769c0-1.538.816-2.958 2.147-3.723l9.009-5.188a4.28 4.28 0 0 1 4.289-.001l9.004 5.187a4.29 4.29 0 0 1 2.151 3.722v25.768c0 1.529.826 2.941 2.156 3.731l21.146 12.109a2.1 2.1 0 0 0 2.151 0 2.16 2.16 0 0 0 1.066-1.857zm167.956 28.719c0 .384-.205.739-.538.929l-12.225 7.047a1.08 1.08 0 0 1-1.074 0l-12.226-7.047a1.06 1.06 0 0 1-.538-.929V201.88c0-.385.201-.74.529-.933l12.219-7.059a1.09 1.09 0 0 1 1.084 0l12.227 7.059c.336.193.537.548.537.933zm3.302-104.539a2.16 2.16 0 0 0-2.138.022 2.16 2.16 0 0 0-1.06 1.858v54.621a1.503 1.503 0 0 1-2.256 1.303l-8.916-5.136a4.29 4.29 0 0 0-4.295 0l-35.605 20.549a4.29 4.29 0 0 0-2.152 3.714v41.11c0 1.537.821 2.949 2.152 3.722l35.605 20.563a4.32 4.32 0 0 0 4.3 0l35.604-20.571a4.31 4.31 0 0 0 2.152-3.723V127.034c0-1.56-.849-2.994-2.21-3.757zm118.565 90.053a4.3 4.3 0 0 0 2.137-3.716v-9.963a4.3 4.3 0 0 0-2.14-3.718l-35.378-20.538a4.3 4.3 0 0 0-4.311 0l-35.597 20.546a4.29 4.29 0 0 0-2.151 3.723v41.092c0 1.546.832 2.975 2.168 3.74l35.37 20.159a4.29 4.29 0 0 0 4.218.026l21.395-11.891a2.15 2.15 0 0 0 1.101-1.866 2.15 2.15 0 0 0-1.084-1.874l-35.815-20.554a2.13 2.13 0 0 1-1.084-1.857v-12.891c0-.77.403-1.479 1.076-1.862l11.142-6.429a2.13 2.13 0 0 1 2.143 0l11.151 6.429a2.14 2.14 0 0 1 1.076 1.857v10.134c0 .765.412 1.479 1.076 1.866a2.16 2.16 0 0 0 2.151-.009z" fill="#fff"/><path fill-rule="evenodd" clip-rule="evenodd" d="M560.645 199.585a.81.81 0 0 1 .823 0l6.833 3.942c.256.148.412.42.412.714v7.892a.82.82 0 0 1-.412.715l-6.833 3.942a.82.82 0 0 1-.823 0l-6.829-3.942a.82.82 0 0 1-.42-.715v-7.892c0-.294.151-.566.411-.714z" fill="#689F63"/><mask id="c" style="mask-type:luminance" maskUnits="userSpaceOnUse" x="326" y="163" width="80" height="91"><path d="m364.166 163.778-35.403 20.434a4.27 4.27 0 0 0-2.14 3.703v40.897c0 1.527.813 2.938 2.14 3.703l35.405 20.45a4.29 4.29 0 0 0 4.278 0l35.4-20.45a4.28 4.28 0 0 0 2.134-3.703v-40.897a4.27 4.27 0 0 0-2.143-3.703l-35.395-20.434a4.3 4.3 0 0 0-4.285 0" fill="#fff"/></mask><g mask="url(#c)"><path d="m441.748 180.738-99.76-48.899-51.151 104.348 99.758 48.902z" fill="url(#d)"/></g><mask id="e" style="mask-type:luminance" maskUnits="userSpaceOnUse" x="327" y="163" width="78" height="91"><path d="M327.492 231.41c.339.439.762.82 1.261 1.106l30.369 17.542 5.059 2.907a4.3 4.3 0 0 0 2.466.559q.425-.035.84-.154l37.339-68.369a4.2 4.2 0 0 0-.995-.79l-23.181-13.387-12.254-7.05a4.4 4.4 0 0 0-1.109-.445z" fill="#fff"/></mask><g mask="url(#e)"><path d="m284.362 195.204 70.441 95.338 93.16-68.828-70.445-95.336z" fill="url(#f)"/></g><mask id="g" style="mask-type:luminance" maskUnits="userSpaceOnUse" x="328" y="163" width="78" height="91"><path d="M365.872 163.23a4.3 4.3 0 0 0-1.71.548l-35.303 20.375 38.068 69.336a4.2 4.2 0 0 0 1.521-.524l35.403-20.45a4.3 4.3 0 0 0 2.067-2.921L367.111 163.3a4.4 4.4 0 0 0-.865-.086q-.177 0-.353.017" fill="#fff"/></mask><g mask="url(#g)"><path d="M328.859 163.214v90.277h77.045v-90.277z" fill="url(#h)"/></g><path d="M695.676 254.355c-1.917 0-3.822-.503-5.502-1.471l-17.515-10.369c-2.616-1.463-1.339-1.98-.477-2.279 3.488-1.221 4.196-1.497 7.919-3.611.391-.223.904-.144 1.304.092l13.455 7.984c.486.263 1.176.263 1.626 0l52.463-30.283c.486-.275.801-.84.801-1.418v-60.54c0-.604-.315-1.142-.811-1.444l-52.442-30.257a1.61 1.61 0 0 0-1.616 0l-52.431 30.257a1.67 1.67 0 0 0-.831 1.431v60.54c0 .578.315 1.129.814 1.405l14.366 8.3c7.801 3.9 12.568-.696 12.568-5.319v-59.752c0-.853.67-1.51 1.523-1.51h6.645c.827 0 1.51.657 1.51 1.51v59.778c0 10.401-5.673 16.376-15.535 16.376-3.034 0-5.424 0-12.095-3.283l-13.762-7.932c-3.401-1.969-5.503-5.646-5.503-9.573v-60.54c0-3.94 2.102-7.617 5.503-9.56l52.515-30.296c3.323-1.878 7.735-1.878 11.031 0l52.45 30.309c3.388 1.957 5.502 5.621 5.502 9.56V213c0 3.927-2.114 7.591-5.502 9.56l-52.45 30.297a11.03 11.03 0 0 1-5.528 1.47" fill="#689F63"/><path d="M711.881 212.637c-22.955 0-27.768-10.537-27.768-19.375a1.51 1.51 0 0 1 1.52-1.511h6.776c.748 0 1.379.545 1.497 1.285 1.024 6.905 4.071 10.387 17.952 10.387 11.057 0 15.758-2.497 15.758-8.361 0-3.375-1.339-5.883-18.516-7.564-14.367-1.418-23.244-4.583-23.244-16.074 0-10.585 8.93-16.888 23.887-16.888 16.796 0 25.122 5.831 26.173 18.359.039.433-.118.853-.407 1.169a1.56 1.56 0 0 1-1.117.485h-6.815a1.506 1.506 0 0 1-1.471-1.181c-1.642-7.263-5.607-9.587-16.389-9.587-12.068 0-13.474 4.202-13.474 7.354 0 3.822 1.655 4.938 17.939 7.092 16.126 2.14 23.782 5.161 23.782 16.494 0 11.425-9.534 17.978-26.159 17.978m63.901-64.204h1.76c1.444 0 1.72-1.011 1.72-1.602 0-1.55-1.064-1.55-1.654-1.55h-1.813zm-2.14-4.964h3.9c1.339 0 3.966 0 3.966 2.994 0 2.088-1.34 2.522-2.141 2.784 1.563.105 1.668 1.13 1.878 2.574.105.906.276 2.469.591 2.994h-2.403c-.066-.525-.433-3.414-.433-3.572-.158-.643-.381-.958-1.182-.958h-1.983v4.543h-2.193zm-4.689 5.647c0 4.701 3.796 8.51 8.458 8.51 4.701 0 8.496-3.888 8.496-8.51 0-4.715-3.848-8.457-8.51-8.457-4.596 0-8.457 3.69-8.457 8.444m18.595.039c0 5.568-4.556 10.112-10.111 10.112-5.516 0-10.112-4.491-10.112-10.112 0-5.726 4.701-10.112 10.112-10.112 5.45 0 10.098 4.4 10.098 10.112" fill="#689F63"/></g></g><defs><linearGradient id="d" x1="391.838" y1="156.212" x2="340.691" y2="260.553" gradientUnits="userSpaceOnUse"><stop offset=".3" stop-color="#3E863D"/><stop offset=".5" stop-color="#55934F"/><stop offset=".8" stop-color="#5AAD45"/></linearGradient><linearGradient id="f" x1="320.005" y1="243.419" x2="413.168" y2="174.583" gradientUnits="userSpaceOnUse"><stop offset=".57" stop-color="#3E863D"/><stop offset=".72" stop-color="#619857"/><stop offset="1" stop-color="#76AC64"/></linearGradient><linearGradient id="h" x1="328.885" y1="208.355" x2="405.918" y2="208.355" gradientUnits="userSpaceOnUse"><stop offset=".16" stop-color="#6BBF47"/><stop offset=".38" stop-color="#79B461"/><stop offset=".47" stop-color="#75AC64"/><stop offset=".7" stop-color="#659E5A"/><stop offset=".9" stop-color="#3E863D"/></linearGradient><clipPath id="a"><path fill="#fff" d="M224.619 111.183h567.315v143.172H224.619z"/></clipPath><clipPath id="b"><path fill="#fff" d="M224.619 111.183h567.315v143.172H224.619z"/></clipPath></defs></svg>