<svg width="826" height="263" viewBox="0 0 826 263" fill="none" xmlns="http://www.w3.org/2000/svg"><rect width="826" height="263" rx="131.5" fill="#202020"/><path d="M202.61 163q-1.088 0-1.541-.453-.453-.544-.453-1.631v-59.363q0-1.088.453-1.541t1.541-.453h16.313q1.087 0 1.632.453.634.363 1.178 1.269l21.751 37.43h.816v-37.158q0-1.088.453-1.541.543-.453 1.631-.453h12.145q1.087 0 1.54.453.544.453.544 1.541v59.363q0 2.084-2.084 2.084h-16.314q-1.088 0-1.722-.363-.634-.453-1.087-1.45l-21.752-37.43h-.815v37.159q0 1.087-.453 1.631-.453.453-1.541.453zm87.335.453q-8.338 0-12.326-3.897-3.897-3.987-3.897-12.326v-31.992q0-8.338 3.897-12.235 3.988-3.897 12.326-3.897h29.183q8.338 0 12.235 3.897 3.988 3.897 3.988 12.235v31.992q0 8.339-3.988 12.326-3.897 3.897-12.235 3.897zm23.654-14.319q2.72 0 3.807-1.088 1.178-1.178 1.178-3.897v-25.83q0-2.718-1.178-3.806-1.088-1.178-3.807-1.178h-18.126q-2.718 0-3.897 1.178-1.087 1.088-1.087 3.806v25.83q0 2.72 1.087 3.897 1.179 1.088 3.897 1.088zM350.957 163q-1.088 0-1.541-.453-.453-.544-.453-1.631v-59.363q0-1.088.453-1.541t1.541-.453h41.236q8.338 0 12.235 3.897 3.988 3.897 3.988 12.235v31.086q0 8.338-3.988 12.326Q400.531 163 392.193 163zm35.708-14.32q2.719 0 3.806-1.087 1.179-1.179 1.179-3.897v-24.924q0-2.718-1.179-3.806-1.087-1.178-3.806-1.178h-20.936v34.892zm83.802.454q1.088 0 1.541.543.453.453.453 1.541v9.698q0 1.087-.453 1.631-.453.453-1.541.453h-46.493q-1.087 0-1.541-.453-.453-.544-.453-1.631v-59.363q0-1.088.453-1.541.454-.453 1.541-.453h45.587q1.088 0 1.541.453t.453 1.541v9.788q0 1.087-.453 1.54t-1.541.454h-30.814v11.147h28.095q1.088 0 1.541.453t.453 1.541v9.063q0 1.088-.453 1.631-.453.453-1.541.454h-28.095v11.51zm48.921 14.319q-8.338 0-12.326-3.897-3.897-3.987-3.897-12.326v-9.606q0-1.089.453-1.541.453-.544 1.541-.544h12.869q1.088 0 1.541.544.453.452.453 1.541v6.525q0 2.72 1.088 3.897 1.177 1.088 3.897 1.088h9.607q2.718 0 3.806-1.088 1.178-1.178 1.178-3.897v-30.361h-27.189q-1.087 0-1.54-.453t-.453-1.541v-10.241q0-1.088.453-1.541t1.54-.453h41.962q1.088 0 1.541.453t.453 1.541v45.677q0 8.339-3.988 12.326-3.897 3.897-12.144 3.897zm64.525 0q-7.884 0-11.51-3.534-3.534-3.625-3.535-11.601v-3.625q0-1.088.454-1.541.453-.453 1.54-.453h13.051q1.088 0 1.541.453.543.453.544 1.541v1.722q0 2.628.906 3.625.996.906 3.625.906h14.682q2.629 0 3.535-.906.996-.997.997-3.625v-4.713q0-2.628-.997-3.535-.907-.996-3.535-.997h-20.845q-7.884 0-11.51-3.534-3.534-3.626-3.534-11.51v-7.976q0-7.885 3.534-11.419 3.626-3.625 11.51-3.625h26.645q7.886 0 11.42 3.625 3.625 3.534 3.625 11.419v3.626q0 1.087-.453 1.54t-1.541.453h-13.051q-1.087 0-1.54-.453t-.453-1.54v-1.722q0-2.63-.997-3.535-.907-.997-3.535-.997H590.62q-2.628 0-3.626.997-.906.906-.906 3.535v4.803q0 2.629.906 3.625.998.906 3.626.906h20.845q7.885 0 11.419 3.626 3.625 3.535 3.625 11.419v7.885q0 7.976-3.625 11.601-3.534 3.534-11.419 3.534z" fill="#EAE7E0"/></svg>