<svg width="792" height="286" viewBox="0 0 792 286" fill="none" xmlns="http://www.w3.org/2000/svg"><path d="M142.44.788h506.774c78.382 0 141.924 63.542 141.924 141.924s-63.542 141.924-141.924 141.924H142.44C64.058 284.636.517 221.094.517 142.712S64.058.788 142.44.788" fill="#EAE7E0"/><path d="M142.44.788h506.774c78.382 0 141.924 63.542 141.924 141.924s-63.542 141.924-141.924 141.924H142.44C64.058 284.636.517 221.094.517 142.712S64.058.788 142.44.788Z" stroke="#1C222F" stroke-width=".818"/><g clip-path="url(#a)"><g clip-path="url(#b)"><path fill-rule="evenodd" clip-rule="evenodd" d="M240.301 146.227a3.36 3.36 0 0 0-1.676-2.914l-27.761-15.972a3.24 3.24 0 0 0-1.526-.44h-.287a3.3 3.3 0 0 0-1.534.44l-27.76 15.972a3.38 3.38 0 0 0-1.679 2.917l.061 43.022c0 .596.308 1.153.832 1.448a1.59 1.59 0 0 0 1.665 0l16.504-9.451a3.39 3.39 0 0 0 1.678-2.91V158.24c0-1.199.635-2.307 1.674-2.903l7.026-4.047a3.34 3.34 0 0 1 1.678-.451c.574 0 1.16.149 1.668.451l7.022 4.045a3.34 3.34 0 0 1 1.678 2.903v20.098c0 1.192.645 2.294 1.681 2.91l16.493 9.444a1.64 1.64 0 0 0 1.678 0c.509-.295.831-.852.831-1.448zm130.998 22.399c0 .3-.16.577-.42.725l-9.535 5.496a.84.84 0 0 1-.837 0l-9.536-5.496a.83.83 0 0 1-.42-.725v-11.008c0-.3.158-.577.413-.728l9.53-5.505a.85.85 0 0 1 .845 0l9.537 5.505a.84.84 0 0 1 .419.728zm2.575-81.535a1.68 1.68 0 0 0-1.667.017 1.68 1.68 0 0 0-.827 1.449v42.602a1.172 1.172 0 0 1-1.759 1.016l-6.954-4.005a3.35 3.35 0 0 0-3.351 0l-27.77 16.027a3.35 3.35 0 0 0-1.678 2.897v32.063c0 1.199.64 2.3 1.678 2.903l27.77 16.038a3.36 3.36 0 0 0 3.354 0l27.77-16.044a3.36 3.36 0 0 0 1.678-2.904V99.242a3.36 3.36 0 0 0-1.724-2.93zm92.476 70.237a3.35 3.35 0 0 0 1.666-2.898v-7.771a3.36 3.36 0 0 0-1.669-2.9l-27.593-16.019a3.35 3.35 0 0 0-3.363 0l-27.763 16.025a3.35 3.35 0 0 0-1.678 2.904v32.05c0 1.206.649 2.32 1.691 2.917l27.587 15.723a3.35 3.35 0 0 0 3.29.02l16.687-9.274c.524-.295.858-.852.858-1.455s-.321-1.167-.845-1.462l-27.934-16.032a1.67 1.67 0 0 1-.846-1.448v-10.054c0-.601.315-1.154.839-1.453l8.691-5.014a1.66 1.66 0 0 1 1.672 0l8.697 5.014c.518.295.839.852.839 1.449v7.904c0 .597.321 1.154.839 1.455.518.295 1.16.295 1.678-.006z" fill="#1C222F"/><path fill-rule="evenodd" clip-rule="evenodd" d="M436.68 155.83a.64.64 0 0 1 .642 0l5.334 3.077a.65.65 0 0 1 .321.558v6.16a.64.64 0 0 1-.321.557l-5.334 3.077a.64.64 0 0 1-.642 0l-5.331-3.077a.64.64 0 0 1-.328-.557v-6.16c0-.23.119-.442.322-.558z" fill="#689F63"/><mask id="c" style="mask-type:luminance" maskUnits="userSpaceOnUse" x="254" y="127" width="63" height="71"><path d="m283.43 127.903-27.615 15.939a3.33 3.33 0 0 0-1.669 2.888v31.9c0 1.191.635 2.292 1.669 2.888l27.617 15.952a3.35 3.35 0 0 0 3.336 0l27.613-15.952a3.34 3.34 0 0 0 1.665-2.888v-31.9c0-1.19-.636-2.292-1.672-2.888l-27.608-15.939a3.36 3.36 0 0 0-3.343 0" fill="#fff"/></mask><g mask="url(#c)"><path d="m343.946 141.135-77.808-38.139-39.896 81.386 77.806 38.141z" fill="url(#d)"/></g><mask id="e" style="mask-type:luminance" maskUnits="userSpaceOnUse" x="254" y="127" width="62" height="71"><path d="M254.832 180.652c.264.343.595.64.983.863l23.689 13.683 3.946 2.268c.59.341 1.262.485 1.923.436q.331-.028.655-.12l29.125-53.329a3.3 3.3 0 0 0-.776-.616l-18.081-10.442-9.558-5.499a3.5 3.5 0 0 0-.866-.348z" fill="#fff"/></mask><g mask="url(#e)"><path d="m221.168 152.411 54.941 74.36 72.659-53.683-54.943-74.357z" fill="url(#f)"/></g><mask id="g" style="mask-type:luminance" maskUnits="userSpaceOnUse" x="255" y="127" width="61" height="71"><path d="M284.753 127.477c-.464.045-.916.19-1.334.427l-27.536 15.893 29.692 54.083c.413-.059.82-.197 1.187-.409l27.615-15.952a3.34 3.34 0 0 0 1.612-2.278l-30.269-51.71a3.5 3.5 0 0 0-.951-.054" fill="#fff"/></mask><g mask="url(#g)"><path d="M255.883 127.464v70.417h60.095v-70.417z" fill="url(#h)"/></g><path d="M541.998 198.546a8.6 8.6 0 0 1-4.292-1.147l-13.663-8.087c-2.04-1.141-1.045-1.545-.372-1.778 2.721-.952 3.273-1.167 6.178-2.816.305-.174.704-.113 1.017.071l10.496 6.228c.379.205.917.205 1.268 0l40.925-23.619c.379-.216.625-.656.625-1.107v-47.218c0-.471-.246-.891-.633-1.127l-40.909-23.598a1.26 1.26 0 0 0-1.26 0l-40.9 23.598a1.3 1.3 0 0 0-.649 1.117v47.218c0 .451.246.881.635 1.096l11.207 6.473c6.085 3.042 9.804-.542 9.804-4.148v-46.604c0-.665.523-1.177 1.188-1.177h5.184c.645 0 1.178.512 1.178 1.177v46.625c0 8.112-4.425 12.772-12.119 12.772-2.366 0-4.231 0-9.435-2.561l-10.735-6.186a8.65 8.65 0 0 1-4.293-7.467v-47.218c0-3.073 1.639-5.941 4.293-7.457l40.966-23.63c2.591-1.464 6.033-1.464 8.605 0l40.915 23.641a8.63 8.63 0 0 1 4.292 7.456v47.218a8.66 8.66 0 0 1-4.292 7.457l-40.915 23.63a8.6 8.6 0 0 1-4.313 1.147" fill="#689F63"/><path d="M554.623 166.002c-17.906 0-21.66-8.219-21.66-15.111 0-.656.528-1.178 1.185-1.178h5.286c.584 0 1.075.425 1.168 1.002.799 5.385 3.175 8.101 14.003 8.101 8.625 0 12.292-1.948 12.292-6.521 0-2.632-1.045-4.589-14.443-5.9-11.207-1.106-18.132-3.574-18.132-12.536 0-8.255 6.966-13.171 18.633-13.171 13.102 0 19.597 4.548 20.416 14.318a1.193 1.193 0 0 1-1.188 1.291h-5.317a1.174 1.174 0 0 1-1.147-.922c-1.28-5.664-4.374-7.476-12.784-7.476-9.414 0-10.51 3.277-10.51 5.735 0 2.98 1.291 3.851 13.993 5.531 12.579 1.669 18.551 4.025 18.551 12.864 0 8.91-7.437 14.021-20.405 14.021m49.845-50.073h1.373c1.127 0 1.342-.789 1.342-1.25 0-1.208-.83-1.208-1.291-1.208h-1.413zm-1.669-3.871h3.042c1.045 0 3.094 0 3.094 2.335 0 1.628-1.045 1.966-1.67 2.171 1.219.082 1.301.881 1.465 2.007.082.707.215 1.926.461 2.336h-1.875c-.051-.41-.338-2.663-.338-2.786-.123-.502-.297-.748-.922-.748h-1.547v3.544h-1.71zm-3.657 4.404c0 3.666 2.96 6.636 6.597 6.636 3.667 0 6.627-3.031 6.627-6.636 0-3.677-3.001-6.596-6.638-6.596-3.585 0-6.596 2.878-6.596 6.585m14.505.031c0 4.343-3.555 7.886-7.888 7.886-4.302 0-7.888-3.502-7.888-7.886 0-4.465 3.668-7.886 7.888-7.886 4.251 0 7.877 3.431 7.877 7.886" fill="#689F63"/></g></g><defs><linearGradient id="d" x1="305.018" y1="122.005" x2="265.126" y2="203.386" gradientUnits="userSpaceOnUse"><stop offset=".3" stop-color="#3E863D"/><stop offset=".5" stop-color="#55934F"/><stop offset=".8" stop-color="#5AAD45"/></linearGradient><linearGradient id="f" x1="248.967" y1="190.017" x2="321.63" y2="136.328" gradientUnits="userSpaceOnUse"><stop offset=".57" stop-color="#3E863D"/><stop offset=".72" stop-color="#619857"/><stop offset="1" stop-color="#76AC64"/></linearGradient><linearGradient id="h" x1="255.903" y1="162.674" x2="315.989" y2="162.674" gradientUnits="userSpaceOnUse"><stop offset=".16" stop-color="#6BBF47"/><stop offset=".38" stop-color="#79B461"/><stop offset=".47" stop-color="#75AC64"/><stop offset=".7" stop-color="#659E5A"/><stop offset=".9" stop-color="#3E863D"/></linearGradient><clipPath id="a"><path fill="#fff" d="M174.588 86.878h442.479v111.667H174.588z"/></clipPath><clipPath id="b"><path fill="#fff" d="M174.588 86.878h442.479v111.667H174.588z"/></clipPath></defs></svg>