<svg width="1015" height="366" viewBox="0 0 1015 366" fill="none" xmlns="http://www.w3.org/2000/svg"><path d="M182.665 1.178h649.749c100.496 0 181.966 81.468 181.966 181.965 0 100.496-81.47 181.966-181.966 181.966H182.665C82.169 365.109.7 283.639.7 183.143S82.17 1.178 182.665 1.178" fill="#EAE7E0"/><path d="M182.665 1.178h649.749c100.496 0 181.966 81.468 181.966 181.965 0 100.496-81.47 181.966-181.966 181.966H182.665C82.169 365.109.7 283.639.7 183.143S82.17 1.178 182.665 1.178Z" stroke="#1C222F" stroke-width="1.049"/><g clip-path="url(#a)"><g clip-path="url(#b)"><path fill-rule="evenodd" clip-rule="evenodd" d="M308.134 187.649a4.3 4.3 0 0 0-2.149-3.735l-35.593-20.479a4.15 4.15 0 0 0-1.957-.563h-.368a4.2 4.2 0 0 0-1.966.563l-35.592 20.479a4.33 4.33 0 0 0-2.153 3.739l.079 55.16c0 .765.395 1.479 1.067 1.857a2.03 2.03 0 0 0 2.134 0l21.16-12.118c1.336-.795 2.151-2.2 2.151-3.731v-25.769c0-1.537.815-2.957 2.147-3.722l9.009-5.188a4.27 4.27 0 0 1 2.151-.579c.736 0 1.487.19 2.138.578l9.004 5.186a4.29 4.29 0 0 1 2.151 3.723v25.767c0 1.53.826 2.941 2.156 3.731l21.146 12.109a2.1 2.1 0 0 0 2.151 0 2.16 2.16 0 0 0 1.065-1.857zm167.956 28.719c0 .384-.204.74-.538.93l-12.225 7.047a1.08 1.08 0 0 1-1.073 0l-12.227-7.047a1.07 1.07 0 0 1-.538-.93v-14.114c0-.385.202-.739.53-.933l12.218-7.058a1.08 1.08 0 0 1 1.084 0l12.227 7.058c.336.194.538.548.538.933zm3.303-104.539a2.16 2.16 0 0 0-2.138.023 2.15 2.15 0 0 0-1.061 1.857v54.622a1.502 1.502 0 0 1-2.255 1.302l-8.916-5.135a4.29 4.29 0 0 0-4.296 0l-35.605 20.549a4.29 4.29 0 0 0-2.151 3.714v41.109c0 1.538.821 2.95 2.151 3.723l35.605 20.563a4.32 4.32 0 0 0 4.3 0l35.605-20.572a4.31 4.31 0 0 0 2.151-3.722V127.408a4.31 4.31 0 0 0-2.21-3.756zm118.565 90.054a4.3 4.3 0 0 0 2.137-3.716v-9.963a4.3 4.3 0 0 0-2.14-3.719l-35.378-20.537a4.29 4.29 0 0 0-4.311 0l-35.597 20.546a4.29 4.29 0 0 0-2.151 3.722v41.093c0 1.546.832 2.975 2.168 3.739l35.37 20.16a4.29 4.29 0 0 0 4.218.025l21.395-11.891a2.15 2.15 0 0 0 1.101-1.865 2.15 2.15 0 0 0-1.084-1.874l-35.815-20.555a2.13 2.13 0 0 1-1.084-1.857V202.3c0-.769.403-1.479 1.075-1.862l11.143-6.428a2.12 2.12 0 0 1 2.143 0l11.151 6.428a2.14 2.14 0 0 1 1.076 1.857v10.135c0 .764.412 1.479 1.075 1.865a2.16 2.16 0 0 0 2.152-.008z" fill="#1C222F"/><path fill-rule="evenodd" clip-rule="evenodd" d="M559.907 199.955a.82.82 0 0 1 .824 0l6.833 3.942c.255.148.412.42.412.714v7.892a.83.83 0 0 1-.412.714l-6.833 3.942a.82.82 0 0 1-.824 0l-6.829-3.942a.82.82 0 0 1-.42-.714v-7.892c0-.294.152-.566.412-.714z" fill="#689F63"/><mask id="c" style="mask-type:luminance" maskUnits="userSpaceOnUse" x="325" y="163" width="81" height="91"><path d="m363.419 164.155-35.404 20.434a4.27 4.27 0 0 0-2.139 3.703v40.897c0 1.527.813 2.938 2.139 3.703l35.406 20.45a4.29 4.29 0 0 0 4.278 0l35.399-20.45a4.28 4.28 0 0 0 2.135-3.703v-40.897a4.27 4.27 0 0 0-2.143-3.703l-35.395-20.434a4.3 4.3 0 0 0-4.286 0" fill="#fff"/></mask><g mask="url(#c)"><path d="m441.011 181.113-99.76-48.899L290.1 236.562l99.757 48.901z" fill="url(#d)"/></g><mask id="e" style="mask-type:luminance" maskUnits="userSpaceOnUse" x="326" y="163" width="79" height="91"><path d="M326.755 231.784c.339.44.762.821 1.26 1.106l30.37 17.542 5.059 2.908a4.3 4.3 0 0 0 2.465.559q.426-.036.841-.154l37.339-68.37a4.3 4.3 0 0 0-.995-.79l-23.181-13.386-12.254-7.05a4.5 4.5 0 0 0-1.109-.446z" fill="#fff"/></mask><g mask="url(#e)"><path d="m283.615 195.578 70.441 95.339 93.16-68.829-70.446-95.336z" fill="url(#f)"/></g><mask id="g" style="mask-type:luminance" maskUnits="userSpaceOnUse" x="328" y="163" width="78" height="91"><path d="M365.125 163.607a4.3 4.3 0 0 0-1.71.548l-35.303 20.375 38.067 69.336a4.2 4.2 0 0 0 1.521-.524l35.404-20.451a4.29 4.29 0 0 0 2.067-2.921l-38.807-66.293a4.4 4.4 0 0 0-.865-.086q-.177 0-.353.017" fill="#fff"/></mask><g mask="url(#g)"><path d="M328.112 163.591v90.277h77.045v-90.277z" fill="url(#h)"/></g><path d="M694.936 254.729a11.04 11.04 0 0 1-5.502-1.471l-17.514-10.369c-2.615-1.463-1.339-1.98-.476-2.278 3.487-1.222 4.195-1.497 7.918-3.612.391-.223.904-.144 1.304.092l13.455 7.985c.486.262 1.175.262 1.625 0l52.461-30.283c.486-.276.801-.841.801-1.418v-60.54c0-.604-.315-1.143-.811-1.445l-52.44-30.256a1.61 1.61 0 0 0-1.615 0l-52.43 30.256a1.67 1.67 0 0 0-.831 1.432v60.539c0 .578.315 1.13.814 1.406l14.366 8.299c7.8 3.9 12.567-.696 12.567-5.318v-59.752c0-.854.67-1.51 1.524-1.51h6.644c.827 0 1.51.656 1.51 1.51v59.778c0 10.401-5.673 16.376-15.534 16.376-3.034 0-5.424 0-12.095-3.283l-13.762-7.932c-3.401-1.97-5.502-5.647-5.502-9.574v-60.539c0-3.94 2.101-7.617 5.502-9.56l52.514-30.296c3.322-1.878 7.734-1.878 11.03 0l52.448 30.309c3.388 1.956 5.502 5.62 5.502 9.56v60.54a11.1 11.1 0 0 1-5.502 9.56l-52.448 30.296a11 11 0 0 1-5.528 1.471" fill="#689F63"/><path d="M711.147 213.016c-22.954 0-27.767-10.537-27.767-19.375 0-.841.677-1.51 1.519-1.51h6.776c.749 0 1.379.545 1.497 1.284 1.024 6.905 4.071 10.388 17.951 10.388 11.057 0 15.758-2.498 15.758-8.362 0-3.375-1.339-5.883-18.515-7.564-14.367-1.418-23.244-4.583-23.244-16.074 0-10.584 8.93-16.888 23.887-16.888 16.795 0 25.121 5.831 26.171 18.359.04.433-.118.854-.407 1.169a1.56 1.56 0 0 1-1.116.486h-6.815a1.505 1.505 0 0 1-1.471-1.182c-1.641-7.262-5.607-9.587-16.388-9.587-12.068 0-13.473 4.203-13.473 7.354 0 3.822 1.654 4.938 17.937 7.092 16.126 2.14 23.782 5.161 23.782 16.494 0 11.425-9.534 17.978-26.158 17.978m63.898-64.204h1.76c1.444 0 1.72-1.011 1.72-1.602 0-1.549-1.063-1.549-1.654-1.549h-1.813zm-2.14-4.964h3.9c1.339 0 3.966 0 3.966 2.995 0 2.088-1.34 2.521-2.141 2.784 1.563.105 1.668 1.129 1.878 2.573.105.907.276 2.469.591 2.995h-2.403c-.066-.526-.433-3.415-.433-3.572-.158-.644-.381-.959-1.182-.959h-1.983v4.544h-2.193zm-4.688 5.647c0 4.702 3.795 8.51 8.457 8.51 4.701 0 8.496-3.887 8.496-8.51 0-4.714-3.848-8.457-8.509-8.457-4.597 0-8.457 3.69-8.457 8.444m18.594.039c0 5.569-4.557 10.112-10.111 10.112-5.516 0-10.112-4.491-10.112-10.112 0-5.725 4.702-10.111 10.112-10.111 5.449 0 10.098 4.399 10.098 10.111" fill="#689F63"/></g></g><defs><linearGradient id="d" x1="391.101" y1="156.586" x2="339.953" y2="260.927" gradientUnits="userSpaceOnUse"><stop offset=".3" stop-color="#3E863D"/><stop offset=".5" stop-color="#55934F"/><stop offset=".8" stop-color="#5AAD45"/></linearGradient><linearGradient id="f" x1="319.258" y1="243.794" x2="412.421" y2="174.958" gradientUnits="userSpaceOnUse"><stop offset=".57" stop-color="#3E863D"/><stop offset=".72" stop-color="#619857"/><stop offset="1" stop-color="#76AC64"/></linearGradient><linearGradient id="h" x1="328.138" y1="208.732" x2="405.171" y2="208.732" gradientUnits="userSpaceOnUse"><stop offset=".16" stop-color="#6BBF47"/><stop offset=".38" stop-color="#79B461"/><stop offset=".47" stop-color="#75AC64"/><stop offset=".7" stop-color="#659E5A"/><stop offset=".9" stop-color="#3E863D"/></linearGradient><clipPath id="a"><path fill="#fff" d="M223.882 111.557h567.315v143.172H223.882z"/></clipPath><clipPath id="b"><path fill="#fff" d="M223.882 111.557h567.315v143.172H223.882z"/></clipPath></defs></svg>