<svg width="593" height="264" viewBox="0 0 593 264" fill="none" xmlns="http://www.w3.org/2000/svg"><rect width="593" height="264" rx="132" fill="#EAE7E0"/><path d="M190.11 163.5q-1.088 0-1.541-.453-.453-.544-.453-1.631v-59.363q0-1.088.453-1.541t1.541-.453h16.313q1.087 0 1.632.453.634.363 1.178 1.269l21.751 37.43h.816v-37.158q0-1.088.453-1.541.543-.453 1.631-.453h12.145q1.087 0 1.54.453.544.453.544 1.541v59.363q0 2.084-2.084 2.084h-16.314q-1.088 0-1.722-.363-.634-.453-1.087-1.45l-21.752-37.43h-.815v37.159q0 1.087-.453 1.631-.453.453-1.541.453zm113.799-63.441q7.885 0 11.419 3.625 3.625 3.535 3.625 11.419v9.97q0 7.884-3.625 11.51-3.534 3.534-11.419 3.534h-25.467v21.299q0 2.084-2.085 2.084h-12.688q-1.088 0-1.541-.453-.453-.544-.453-1.631v-59.363q0-1.088.453-1.541t1.541-.453zm-1.722 17.854q0-2.628-.997-3.535-.906-.996-3.535-.997h-19.213v13.414h19.213q2.63 0 3.535-.907.997-.996.997-3.625zm29.002 45.587q-1.089 0-1.541-.453-.453-.544-.453-1.631v-59.363q0-1.088.453-1.541.452-.453 1.541-.453h18.216q.997 0 1.45.362.544.363 1.088 1.45l14.682 24.924h.725l14.682-24.924q.635-1.087 1.088-1.45.543-.362 1.54-.362h18.126q1.088 0 1.541.453.544.453.544 1.541v59.363q0 2.084-2.085 2.084h-12.325q-2.085 0-2.085-2.084v-39.153h-.725l-13.051 21.48q-.634 1.087-1.178 1.45-.453.362-1.45.362h-9.879q-.997 0-1.54-.362-.545-.363-1.178-1.45l-12.961-21.48h-.815v39.153q0 1.087-.453 1.631-.454.453-1.541.453z" fill="#202020"/></svg>