<svg width="286" height="286" viewBox="0 0 286 286" fill="none" xmlns="http://www.w3.org/2000/svg"><path d="M142.86.788c78.383 0 141.924 63.541 141.924 141.923S221.243 284.635 142.86 284.635C64.478 284.635.937 221.094.937 142.711.937 64.329 64.478.788 142.86.788" fill="#fff"/><path d="M142.86.788c78.383 0 141.924 63.541 141.924 141.923S221.243 284.635 142.86 284.635C64.478 284.635.937 221.094.937 142.711.937 64.329 64.478.788 142.86.788Z" stroke="#ECE9E1" stroke-width=".818"/><g clip-path="url(#a)"><g clip-path="url(#b)"><path d="M179.836 86.875h-73.973c-11.2 0-20.281 9.08-20.281 20.281v71.111c0 11.201 9.08 20.281 20.281 20.281h73.973c11.201 0 20.282-9.08 20.282-20.281v-71.111c0-11.2-9.081-20.281-20.282-20.281" fill="#001E36"/><path d="M111.375 165.182v-49.099q-.001-.535.461-.537c.817 0 1.567 0 2.686-.038s2.343-.052 3.65-.076l4.149-.079q2.19-.038 4.34-.038 5.84 0 9.847 1.46a17.1 17.1 0 0 1 6.415 3.918 15 15 0 0 1 3.496 5.419 18 18 0 0 1 1.072 6.19q0 6.15-2.843 10.143a16.07 16.07 0 0 1-7.683 5.801c-3.227 1.204-6.815 1.612-10.758 1.612-1.119 0-1.921-.012-2.382-.038a39 39 0 0 0-2.074-.038v15.328a.62.62 0 0 1-.116.454.62.62 0 0 1-.576.238h-9.147c-.367-.007-.537-.211-.537-.62m10.376-40.415v16.013q.998.078 1.844.076h2.536a18 18 0 0 0 5.494-.877 8.3 8.3 0 0 0 3.919-2.529q1.497-1.766 1.497-4.924a7.78 7.78 0 0 0-1.119-4.225 7.16 7.16 0 0 0-3.339-2.729 14.3 14.3 0 0 0-5.595-.96q-1.847 0-3.266.038-1.419.039-1.96.117zM177.177 137.878a17.9 17.9 0 0 0-4.573-1.614 24.2 24.2 0 0 0-5.34-.616 10 10 0 0 0-2.88.347 2.6 2.6 0 0 0-1.499.96c-.251.39-.384.844-.383 1.307.013.45.176.882.461 1.229.448.525.997.956 1.614 1.267a32 32 0 0 0 3.379 1.567 33.6 33.6 0 0 1 7.339 3.495 11.2 11.2 0 0 1 3.764 3.957 10.55 10.55 0 0 1 1.119 4.924 11.06 11.06 0 0 1-1.844 6.34 12.14 12.14 0 0 1-5.34 4.264q-3.506 1.54-8.652 1.54a31.4 31.4 0 0 1-6.491-.616 20.7 20.7 0 0 1-4.879-1.537 1 1 0 0 1-.539-.922v-8.297a.44.44 0 0 1 .192-.423.37.37 0 0 1 .423.038 20.5 20.5 0 0 0 5.922 2.343c1.836.461 3.719.706 5.611.73q2.685 0 3.957-.692a2.17 2.17 0 0 0 1.267-1.996q0-1-1.153-1.922-1.152-.923-4.691-2.216a28.2 28.2 0 0 1-6.799-3.458 11.7 11.7 0 0 1-3.612-4.028 10.6 10.6 0 0 1-1.119-4.879 11 11 0 0 1 1.615-5.779 11.73 11.73 0 0 1 4.996-4.38q3.38-1.69 8.451-1.69a37.4 37.4 0 0 1 5.917.421c1.418.182 2.803.559 4.118 1.119a.7.7 0 0 1 .461.423q.078.282.076.575v7.762a.52.52 0 0 1-.224.461.74.74 0 0 1-.664-.004" fill="#31A8FF"/></g></g><defs><clipPath id="a"><path fill="#fff" d="M85.582 85.435h114.553v114.553H85.582z"/></clipPath><clipPath id="b"><path fill="#fff" d="M85.582 86.875h114.536v111.673H85.582z"/></clipPath></defs></svg>