<svg width="285" height="285" viewBox="0 0 285 285" fill="none" xmlns="http://www.w3.org/2000/svg"><rect x=".577" y=".441" width="283.848" height="283.848" rx="141.924" fill="#fff"/><rect x=".577" y=".441" width="283.848" height="283.848" rx="141.924" stroke="#ECE9E1" stroke-width=".818"/><g clip-path="url(#a)"><path d="M142.499 219.88c42.811 0 77.515-34.705 77.515-77.515S185.31 64.85 142.499 64.85s-77.515 34.705-77.515 77.515S99.69 219.88 142.5 219.88" fill="#300"/><path d="M170.957 187.324 139.01 83.122c-1.882-5.98-9.579-8.86-17.441-8.86s-15.558 2.88-17.441 8.86l-29.51 96.727a78.1 78.1 0 0 0 16.111 20.209c3.488-.332 6.201-1.771 7.087-4.872l5.814-21.372h36.044l5.814 21.372c1.052 3.599 4.429 4.928 8.693 4.928 7.364 0 17.108-4.596 17.108-10.908 0-.498-.166-1.218-.332-1.882m-61.846-33.996 12.458-45.789 12.458 45.789h-24.971zM192.828 78.637q-2.656 0-4.983.83c-5.315 1.772-9.025 6.312-9.025 11.35 0 6.479 6.146 12.292 14.008 12.292 5.316 0 9.856-2.768 12.181-6.588 1.052-1.717 1.661-3.71 1.661-5.703 0-6.478-6.145-12.126-13.842-12.126zm0 40.197c-7.696 0-13.177 3.266-13.177 8.028v65.113c0 4.097 5.481 8.194 13.177 8.194h1.44c4.485-3.986 8.471-8.526 11.904-13.454v-59.798c0-4.761-5.98-8.028-13.344-8.028z" fill="#FF9A00"/></g><defs><clipPath id="a"><path fill="#fff" d="M64.984 64.85h155.03v155.03H64.984z"/></clipPath></defs></svg>