<svg width="286" height="286" viewBox="0 0 286 286" fill="none" xmlns="http://www.w3.org/2000/svg"><path d="M142.968.788c78.382 0 141.924 63.541 141.924 141.923S221.35 284.635 142.968 284.635 1.044 221.094 1.044 142.711C1.044 64.329 64.585.788 142.968.788" fill="#EAE7E0"/><path d="M142.968.788c78.382 0 141.924 63.541 141.924 141.923S221.35 284.635 142.968 284.635 1.044 221.094 1.044 142.711C1.044 64.329 64.585.788 142.968.788Z" stroke="#1C222F" stroke-width=".818"/><g clip-path="url(#a)"><g clip-path="url(#b)"><path d="M179.946 86.875h-73.973c-11.201 0-20.282 9.08-20.282 20.281v71.111c0 11.201 9.08 20.281 20.282 20.281h73.973c11.201 0 20.281-9.08 20.281-20.281v-71.111c0-11.2-9.08-20.281-20.281-20.281" fill="#001E36"/><path d="M111.482 165.182v-49.099q0-.535.461-.537c.817 0 1.567 0 2.686-.038s2.343-.052 3.65-.076l4.15-.079q2.189-.038 4.339-.038 5.84 0 9.848 1.46a17.1 17.1 0 0 1 6.414 3.918 15 15 0 0 1 3.496 5.419 18 18 0 0 1 1.072 6.19q0 6.15-2.842 10.143a16.08 16.08 0 0 1-7.684 5.801c-3.227 1.204-6.815 1.612-10.758 1.612-1.119 0-1.92-.012-2.381-.038a39 39 0 0 0-2.075-.038v15.328a.6.6 0 0 1-.294.613.6.6 0 0 1-.398.079h-9.146c-.367-.007-.538-.211-.538-.62m10.376-40.415v16.013q.998.078 1.844.076h2.536a18 18 0 0 0 5.494-.877 8.3 8.3 0 0 0 3.919-2.529q1.497-1.766 1.497-4.924a7.77 7.77 0 0 0-1.119-4.225 7.16 7.16 0 0 0-3.339-2.729 14.3 14.3 0 0 0-5.595-.96q-1.846 0-3.265.038-1.42.039-1.961.117zM177.288 137.878a18 18 0 0 0-4.572-1.614 24.2 24.2 0 0 0-5.34-.616 10 10 0 0 0-2.881.347 2.6 2.6 0 0 0-1.499.96c-.25.39-.383.844-.383 1.307.014.45.176.882.461 1.229a5.2 5.2 0 0 0 1.614 1.267 32 32 0 0 0 3.379 1.567 33.6 33.6 0 0 1 7.339 3.495 11.2 11.2 0 0 1 3.764 3.957 10.55 10.55 0 0 1 1.119 4.924 11.05 11.05 0 0 1-1.844 6.34 12.14 12.14 0 0 1-5.34 4.264q-3.504 1.54-8.652 1.54a31.4 31.4 0 0 1-6.491-.616 20.7 20.7 0 0 1-4.878-1.537 1 1 0 0 1-.54-.922v-8.297a.44.44 0 0 1 .193-.423.374.374 0 0 1 .423.038 20.5 20.5 0 0 0 5.922 2.343 24.3 24.3 0 0 0 5.61.73q2.687 0 3.957-.692a2.17 2.17 0 0 0 1.267-1.996q0-1-1.153-1.922-1.152-.923-4.691-2.216a28.3 28.3 0 0 1-6.799-3.458 11.74 11.74 0 0 1-3.612-4.028 10.6 10.6 0 0 1-1.119-4.879 11 11 0 0 1 1.616-5.779 11.7 11.7 0 0 1 4.995-4.38q3.38-1.69 8.451-1.69a37.4 37.4 0 0 1 5.917.421c1.418.182 2.804.559 4.118 1.119a.7.7 0 0 1 .462.423q.078.282.076.575v7.762a.52.52 0 0 1-.224.461.74.74 0 0 1-.665-.004" fill="#31A8FF"/></g></g><defs><clipPath id="a"><path fill="#fff" d="M85.691 85.435h114.553v114.553H85.691z"/></clipPath><clipPath id="b"><path fill="#fff" d="M85.691 86.875h114.536v111.673H85.691z"/></clipPath></defs></svg>