<svg width="365" height="366" viewBox="0 0 365 366" fill="none" xmlns="http://www.w3.org/2000/svg"><path d="M182.499.763c100.496 0 181.965 81.469 181.965 181.965s-81.469 181.965-181.965 181.965S.534 283.224.534 182.728 82.003.763 182.5.763" fill="#EAE7E0"/><path d="M182.499.763c100.496 0 181.965 81.469 181.965 181.965s-81.469 181.965-181.965 181.965S.534 283.224.534 182.728 82.003.763 182.5.763Z" stroke="#1C222F" stroke-width="1.049"/><g clip-path="url(#a)"><g clip-path="url(#b)"><path d="M229.906 111.142h-94.838c-14.36 0-26.002 11.642-26.002 26.002v91.168c0 14.361 11.642 26.002 26.002 26.002h94.838c14.361 0 26.002-11.641 26.002-26.002v-91.168c0-14.36-11.641-26.002-26.002-26.002" fill="#001E36"/><path d="M142.139 211.547v-62.944q-.002-.686.591-.688c1.047 0 2.008 0 3.443-.049 1.434-.049 3.004-.066 4.679-.098l5.32-.1q2.805-.05 5.563-.049 7.485 0 12.624 1.871a21.9 21.9 0 0 1 8.223 5.024 19.2 19.2 0 0 1 4.482 6.946 23 23 0 0 1 1.374 7.936q0 7.885-3.644 13.003a20.6 20.6 0 0 1-9.85 7.437c-4.137 1.543-8.736 2.066-13.791 2.066-1.435 0-2.462-.015-3.053-.049q-.887-.05-2.66-.049v19.651a.77.77 0 0 1-.148.582.78.78 0 0 1-.739.304h-11.726c-.47-.008-.688-.269-.688-.794m13.301-51.811v20.528q1.28.1 2.364.098h3.251a23.1 23.1 0 0 0 7.044-1.125 10.6 10.6 0 0 0 5.024-3.242q1.919-2.263 1.919-6.312a9.96 9.96 0 0 0-1.435-5.417 9.2 9.2 0 0 0-4.28-3.498 18.3 18.3 0 0 0-7.173-1.23q-2.368 0-4.186.048-1.82.05-2.514.15zM226.524 176.532a23 23 0 0 0-5.862-2.069 31 31 0 0 0-6.845-.789 12.8 12.8 0 0 0-3.693.445 3.32 3.32 0 0 0-1.922 1.231 3.1 3.1 0 0 0-.491 1.676c.018.575.225 1.129.591 1.575a6.7 6.7 0 0 0 2.069 1.624 41 41 0 0 0 4.332 2.008 43 43 0 0 1 9.408 4.482 14.35 14.35 0 0 1 4.826 5.072 13.54 13.54 0 0 1 1.435 6.312 14.18 14.18 0 0 1-2.365 8.129 15.55 15.55 0 0 1-6.845 5.465q-4.494 1.974-11.092 1.974a40.3 40.3 0 0 1-8.321-.789 26.5 26.5 0 0 1-6.255-1.971 1.27 1.27 0 0 1-.691-1.182v-10.636a.57.57 0 0 1 .247-.542.48.48 0 0 1 .542.049 26.3 26.3 0 0 0 7.592 3.004c2.353.59 4.767.904 7.193.935q3.443 0 5.072-.886a2.78 2.78 0 0 0 1.624-2.56q0-1.282-1.477-2.464t-6.014-2.841a36.2 36.2 0 0 1-8.717-4.433 15 15 0 0 1-4.63-5.164 13.6 13.6 0 0 1-1.435-6.255 14.1 14.1 0 0 1 2.072-7.408 15.03 15.03 0 0 1 6.403-5.615q4.333-2.166 10.834-2.166a48 48 0 0 1 7.586.539c1.818.234 3.594.717 5.28 1.435a.9.9 0 0 1 .591.542 2.7 2.7 0 0 1 .097.738v9.95a.66.66 0 0 1-.287.591.96.96 0 0 1-.852-.006" fill="#31A8FF"/></g></g><defs><clipPath id="a"><path fill="#fff" d="M109.066 109.296H255.93V256.16H109.066z"/></clipPath><clipPath id="b"><path fill="#fff" d="M109.066 111.142h146.842v143.172H109.066z"/></clipPath></defs></svg>