<svg width="1041" height="263" viewBox="0 0 1041 263" fill="none" xmlns="http://www.w3.org/2000/svg"><rect width="1041" height="263" rx="131.5" fill="#EAE7E0"/><path d="M253.803 99.559q7.885 0 11.419 3.625 3.625 3.535 3.625 11.419v9.97q0 7.884-3.625 11.51-3.534 3.534-11.419 3.534h-25.467v21.299q0 2.084-2.085 2.084h-12.688q-1.088 0-1.541-.453-.453-.544-.453-1.631v-59.363q0-1.088.453-1.541t1.541-.453zm-1.722 17.854q0-2.628-.997-3.535-.906-.996-3.535-.997h-19.213v13.414h19.213q2.63 0 3.535-.907.997-.996.997-3.625zm84.014-17.854q1.088 0 1.541.453t.453 1.541v59.363q0 1.087-.453 1.631-.453.453-1.541.453h-12.688q-2.085 0-2.085-2.084v-22.205h-25.014v22.205q0 2.084-2.084 2.084h-12.688q-1.088 0-1.541-.453-.453-.544-.453-1.631v-59.363q0-1.088.453-1.541t1.541-.453h12.688q1.088 0 1.541.453.543.453.543 1.541v22.204h25.014v-22.204q0-1.088.453-1.541.544-.453 1.632-.453zm31.88 63.894q-8.338 0-12.326-3.897-3.897-3.987-3.897-12.326v-31.992q0-8.338 3.897-12.235 3.988-3.897 12.326-3.897h29.183q8.338 0 12.235 3.897 3.988 3.897 3.988 12.235v31.992q0 8.339-3.988 12.326-3.897 3.897-12.235 3.897zm23.654-14.319q2.72 0 3.807-1.088 1.178-1.178 1.178-3.897v-25.83q0-2.718-1.178-3.806-1.088-1.178-3.807-1.178h-18.126q-2.718 0-3.897 1.178-1.087 1.088-1.087 3.806v25.83q0 2.72 1.087 3.897 1.179 1.088 3.897 1.088zm84.054-49.575q1.087 0 1.54.453.544.453.544 1.541v10.875q0 2.085-2.084 2.085h-18.761v46.403q0 2.084-2.084 2.084h-12.689q-1.087 0-1.54-.453-.453-.544-.453-1.631v-46.403h-18.852q-1.087 0-1.54-.453-.453-.544-.453-1.632v-10.875q0-1.088.453-1.541t1.54-.453zm24.254 63.894q-8.337 0-12.325-3.897-3.897-3.987-3.897-12.326v-31.992q0-8.338 3.897-12.235 3.988-3.897 12.325-3.897h29.183q8.338 0 12.235 3.897 3.988 3.897 3.988 12.235v31.992q0 8.339-3.988 12.326-3.897 3.897-12.235 3.897zm23.655-14.319q2.719 0 3.806-1.088 1.179-1.178 1.179-3.897v-25.83q0-2.718-1.179-3.806-1.087-1.178-3.806-1.178h-18.126q-2.72 0-3.897 1.178-1.088 1.088-1.088 3.806v25.83q0 2.72 1.088 3.897 1.178 1.088 3.897 1.088zm49.049 14.319q-7.886 0-11.51-3.534-3.535-3.625-3.535-11.601v-3.625q0-1.088.453-1.541t1.541-.453h13.051q1.087 0 1.54.453.544.453.544 1.541v1.722q0 2.628.906 3.625.997.906 3.626.906h14.682q2.628 0 3.534-.906.997-.997.997-3.625v-4.713q0-2.628-.997-3.535-.906-.996-3.534-.997h-20.845q-7.885 0-11.51-3.534-3.535-3.626-3.535-11.51v-7.976q0-7.885 3.535-11.419 3.625-3.625 11.51-3.625h26.645q7.885 0 11.419 3.625 3.626 3.534 3.626 11.419v3.626q0 1.087-.453 1.54-.454.453-1.541.453h-13.051q-1.088 0-1.541-.453t-.453-1.54v-1.722q0-2.63-.997-3.535-.906-.997-3.534-.997h-13.867q-2.628 0-3.625.997-.906.906-.906 3.535v4.803q0 2.629.906 3.625.997.906 3.625.906h20.845q7.885 0 11.42 3.626 3.625 3.535 3.625 11.419v7.885q0 7.976-3.625 11.601-3.535 3.534-11.42 3.534zm111.194-63.894q1.088 0 1.541.453t.453 1.541v59.363q0 1.087-.453 1.631-.453.453-1.541.453h-12.688q-2.084 0-2.084-2.084v-22.205h-25.014v22.205q0 2.084-2.085 2.084h-12.688q-1.088 0-1.541-.453-.453-.544-.453-1.631v-59.363q0-1.088.453-1.541t1.541-.453h12.688q1.088 0 1.541.453.543.453.544 1.541v22.204h25.014v-22.204q0-1.088.453-1.541.543-.453 1.631-.453zm31.88 63.894q-8.337 0-12.325-3.897-3.898-3.987-3.898-12.326v-31.992q0-8.338 3.898-12.235 3.988-3.897 12.325-3.897h29.183q8.338 0 12.235 3.897 3.988 3.897 3.988 12.235v31.992q0 8.339-3.988 12.326-3.897 3.897-12.235 3.897zm23.655-14.319q2.718 0 3.806-1.088 1.178-1.178 1.178-3.897v-25.83q0-2.718-1.178-3.806-1.088-1.178-3.806-1.178h-18.126q-2.72 0-3.897 1.178-1.088 1.088-1.088 3.806v25.83q0 2.72 1.088 3.897 1.177 1.088 3.897 1.088zm77.597-49.575q7.885 0 11.419 3.625 3.626 3.535 3.626 11.419v9.97q0 7.884-3.626 11.51-3.534 3.534-11.419 3.534H791.5v21.299q0 2.084-2.085 2.084h-12.688q-1.088 0-1.541-.453-.453-.544-.453-1.631v-59.363q0-1.088.453-1.541t1.541-.453zm-1.722 17.854q0-2.628-.997-3.535-.906-.996-3.535-.997H791.5v13.414h19.213q2.63 0 3.535-.907.997-.996.997-3.625z" fill="#202020"/></svg>