<svg width="286" height="286" viewBox="0 0 286 286" fill="none" xmlns="http://www.w3.org/2000/svg"><path d="M142.86.788c78.383 0 141.924 63.541 141.924 141.923S221.243 284.635 142.86 284.635C64.478 284.635.937 221.094.937 142.711.937 64.329 64.478.788 142.86.788" fill="#1C222F"/><path d="M142.86.788c78.383 0 141.924 63.541 141.924 141.923S221.243 284.635 142.86 284.635C64.478 284.635.937 221.094.937 142.711.937 64.329 64.478.788 142.86.788Z" stroke="#EAE7E0" stroke-width=".818"/><g clip-path="url(#a)"><g clip-path="url(#b)"><path d="M179.838 86.875h-73.973c-11.2 0-20.281 9.08-20.281 20.281v71.11c0 11.201 9.08 20.282 20.281 20.282h73.973c11.201 0 20.282-9.081 20.282-20.282v-71.11c0-11.201-9.081-20.282-20.282-20.282" fill="#001E36"/><path d="M111.375 165.181v-49.098c0-.356.152-.538.461-.538.817 0 1.567 0 2.686-.038s2.343-.051 3.65-.076l4.149-.078q2.19-.038 4.34-.038 5.84 0 9.847 1.459a17.1 17.1 0 0 1 6.415 3.919 15 15 0 0 1 3.496 5.418 18 18 0 0 1 1.072 6.191q0 6.15-2.843 10.143a16.08 16.08 0 0 1-7.683 5.801c-3.227 1.204-6.815 1.611-10.758 1.611-1.119 0-1.921-.011-2.382-.038a39 39 0 0 0-2.074-.038v15.328a.62.62 0 0 1-.116.454.6.6 0 0 1-.576.238h-9.147c-.367-.007-.537-.21-.537-.62m10.376-40.415v16.014q.998.078 1.844.076h2.536a18 18 0 0 0 5.494-.878 8.3 8.3 0 0 0 3.919-2.529q1.497-1.766 1.497-4.923a7.8 7.8 0 0 0-1.119-4.226 7.16 7.16 0 0 0-3.339-2.728 14.2 14.2 0 0 0-5.595-.96q-1.847 0-3.266.038t-1.96.116zM177.179 137.877a17.9 17.9 0 0 0-4.573-1.614 24.2 24.2 0 0 0-5.34-.615 10 10 0 0 0-2.88.347 2.58 2.58 0 0 0-1.499.96c-.251.39-.384.844-.383 1.307.013.449.176.881.461 1.229.448.525.997.955 1.613 1.266a32 32 0 0 0 3.38 1.567 33.6 33.6 0 0 1 7.339 3.496 11.2 11.2 0 0 1 3.764 3.957 10.55 10.55 0 0 1 1.119 4.924 11.06 11.06 0 0 1-1.844 6.34 12.14 12.14 0 0 1-5.34 4.263q-3.505 1.54-8.653 1.54a31.5 31.5 0 0 1-6.49-.615 20.7 20.7 0 0 1-4.879-1.538 1 1 0 0 1-.539-.922v-8.296a.45.45 0 0 1 .192-.423.37.37 0 0 1 .423.038 20.5 20.5 0 0 0 5.922 2.343 24.4 24.4 0 0 0 5.611.73q2.685 0 3.957-.692a2.17 2.17 0 0 0 1.267-1.996q0-1-1.153-1.923-1.152-.922-4.691-2.216a28.2 28.2 0 0 1-6.799-3.457 11.7 11.7 0 0 1-3.612-4.029 10.6 10.6 0 0 1-1.119-4.879 11 11 0 0 1 1.615-5.778 11.7 11.7 0 0 1 4.996-4.38q3.38-1.69 8.451-1.69c1.98-.017 3.959.124 5.917.421 1.418.182 2.803.559 4.118 1.119a.7.7 0 0 1 .461.423q.079.282.076.575v7.761a.52.52 0 0 1-.224.462.75.75 0 0 1-.664-.005" fill="#31A8FF"/></g></g><defs><clipPath id="a"><path fill="#fff" d="M85.584 85.435h114.553v114.553H85.584z"/></clipPath><clipPath id="b"><path fill="#fff" d="M85.584 86.875H200.12v111.673H85.584z"/></clipPath></defs></svg>