<svg width="366" height="366" viewBox="0 0 366 366" fill="none" xmlns="http://www.w3.org/2000/svg"><path d="M183.348.863c100.496 0 181.964 81.469 181.964 181.965s-81.468 181.965-181.964 181.965c-100.497 0-181.965-81.469-181.965-181.965S82.85.863 183.348.863" fill="#1C222F"/><path d="M183.348.863c100.496 0 181.964 81.469 181.964 181.965s-81.468 181.965-181.964 181.965c-100.497 0-181.965-81.469-181.965-181.965S82.85.863 183.348.863Z" stroke="#EAE7E0" stroke-width="1.049"/><g clip-path="url(#a)"><g clip-path="url(#b)"><path d="M230.756 111.242h-94.838c-14.36 0-26.002 11.642-26.002 26.002v91.168c0 14.361 11.642 26.002 26.002 26.002h94.838c14.361 0 26.002-11.641 26.002-26.002v-91.168c0-14.36-11.641-26.002-26.002-26.002" fill="#001E36"/><path d="M142.992 211.644v-62.943c0-.456.195-.689.591-.689 1.047 0 2.009 0 3.443-.048 1.435-.049 3.004-.066 4.68-.098l5.319-.1a315 315 0 0 1 5.563-.049q7.486 0 12.625 1.87a21.94 21.94 0 0 1 8.223 5.024 19.25 19.25 0 0 1 4.481 6.947 23 23 0 0 1 1.375 7.936q0 7.884-3.644 13.003a20.6 20.6 0 0 1-9.85 7.436c-4.137 1.544-8.737 2.066-13.792 2.066-1.435 0-2.462-.014-3.053-.049q-.886-.05-2.659-.048v19.65a.8.8 0 0 1-.148.582.79.79 0 0 1-.739.305h-11.726c-.471-.009-.689-.27-.689-.795m13.302-51.811v20.529q1.28.1 2.364.097h3.25a23.1 23.1 0 0 0 7.044-1.124 10.6 10.6 0 0 0 5.024-3.242q1.92-2.265 1.92-6.312a9.98 9.98 0 0 0-1.435-5.417 9.18 9.18 0 0 0-4.281-3.498 18.3 18.3 0 0 0-7.173-1.231q-2.367 0-4.186.049t-2.513.149zM227.374 176.63a23 23 0 0 0-5.862-2.069 31 31 0 0 0-6.846-.789 12.7 12.7 0 0 0-3.692.445 3.3 3.3 0 0 0-1.923 1.231 3.1 3.1 0 0 0-.49 1.675 2.6 2.6 0 0 0 .591 1.575 6.7 6.7 0 0 0 2.068 1.624 41 41 0 0 0 4.333 2.009 43 43 0 0 1 9.408 4.481 14.35 14.35 0 0 1 4.826 5.073 13.54 13.54 0 0 1 1.434 6.312 14.17 14.17 0 0 1-2.364 8.128 15.56 15.56 0 0 1-6.846 5.466q-4.492 1.974-11.092 1.974a40.3 40.3 0 0 1-8.32-.789 26.5 26.5 0 0 1-6.255-1.971 1.27 1.27 0 0 1-.692-1.182v-10.636a.58.58 0 0 1 .247-.542.47.47 0 0 1 .542.048 26.3 26.3 0 0 0 7.592 3.004c2.353.591 4.767.905 7.193.936q3.443 0 5.073-.887a2.78 2.78 0 0 0 1.624-2.559q0-1.283-1.478-2.465t-6.014-2.84a36.2 36.2 0 0 1-8.716-4.433 15.04 15.04 0 0 1-4.631-5.164 13.6 13.6 0 0 1-1.434-6.255 14.1 14.1 0 0 1 2.071-7.408 15.03 15.03 0 0 1 6.404-5.615q4.332-2.166 10.834-2.166a48 48 0 0 1 7.586.539 20 20 0 0 1 5.279 1.435.9.9 0 0 1 .591.542q.1.362.098.737v9.95a.67.67 0 0 1-.287.591.96.96 0 0 1-.852-.005" fill="#31A8FF"/></g></g><defs><clipPath id="a"><path fill="#fff" d="M109.916 109.396H256.78V256.26H109.916z"/></clipPath><clipPath id="b"><path fill="#fff" d="M109.916 111.242h146.842v143.172H109.916z"/></clipPath></defs></svg>