<svg width="285" height="286" viewBox="0 0 285 286" fill="none" xmlns="http://www.w3.org/2000/svg"><rect x=".577" y="1.266" width="283.848" height="283.848" rx="141.924" fill="#fff"/><rect x=".577" y="1.266" width="283.848" height="283.848" rx="141.924" stroke="#ECE9E1" stroke-width=".818"/><g clip-path="url(#a)"><path d="M142.169 220.375c42.628 0 77.185-34.557 77.185-77.185s-34.557-77.185-77.185-77.185-77.185 34.557-77.185 77.185 34.557 77.185 77.185 77.185" fill="#150020"/><path d="M118.516 82.214h-35.23c-5.954 0-9.868 3.75-9.868 7.995v88.155c5.293 10.365 12.9 19.352 22.053 26.353 2.646-1.378 4.465-3.473 4.465-6.285v-36.773h16.816c23.486 0 41.845-10.861 41.845-39.474v-.827c0-28.558-17.698-39.144-40.136-39.144zm13.617 42.011c0 11.578-5.788 17.036-15.326 17.036H99.992V105.37h16.815c9.538 0 15.326 5.458 15.326 17.035v1.875zM218.082 129.187c-1.764-2.757-4.465-4.631-7.387-4.631h-4.907c-8.656 0-16.815 7.828-20.233 15.326v-6.285c0-4.741-5.293-7.994-11.744-7.994-7.497 0-12.956 3.253-12.956 7.994v64.835c0 4.08 5.459 8.16 12.956 8.16 7.498 0 13.453-4.08 13.453-8.16v-25.526c0-15.492 9.207-25.36 18.524-25.36h4.907c3.749 0 7.167-3.033 8.6-7.223.496-1.378.717-2.811.717-4.355 0-2.481-.717-4.852-1.93-6.781" fill="#FF79FF"/></g><defs><clipPath id="a"><path fill="#fff" d="M64.984 66.005h155.031v154.37H64.985z"/></clipPath></defs></svg>