<svg width="365" height="366" viewBox="0 0 365 366" fill="none" xmlns="http://www.w3.org/2000/svg"><path d="M182.499.629c100.496 0 181.965 81.468 181.965 181.965 0 100.496-81.469 181.965-181.965 181.965S.534 283.09.534 182.594 82.003.629 182.5.629" fill="#EAE7E0"/><path d="M182.499.629c100.496 0 181.965 81.468 181.965 181.965 0 100.496-81.469 181.965-181.965 181.965S.534 283.09.534 182.594 82.003.629 182.5.629Z" stroke="#1C222F" stroke-width="1.049"/><g clip-path="url(#a)"><g clip-path="url(#b)"><path d="M135.079 111.008h94.832a25.98 25.98 0 0 1 26.005 26.002v91.168a25.975 25.975 0 0 1-16.05 24.027 26 26 0 0 1-9.955 1.972h-94.832a25.97 25.97 0 0 1-18.393-7.608 25.98 25.98 0 0 1-7.61-18.391V137.01a26 26 0 0 1 7.61-18.392 25.99 25.99 0 0 1 18.393-7.61" fill="#00005B"/><path d="M143.945 211.414v-62.956c0-.426.184-.673.613-.673 1.039 0 2.019 0 3.436-.06 1.469-.06 2.998-.06 4.65-.123s3.435-.06 5.322-.123 3.722-.06 5.569-.06c5.016 0 9.162.613 12.598 1.895a21.9 21.9 0 0 1 8.2 5.02 19.44 19.44 0 0 1 4.467 6.974 23.4 23.4 0 0 1 1.406 7.951q0 7.894-3.671 13.033a20.95 20.95 0 0 1-9.858 7.462c-4.16 1.529-8.75 2.079-13.766 2.079-1.469 0-2.448 0-3.058-.061-.61-.06-1.469-.06-2.631-.06v19.639a.764.764 0 0 1-.673.859h-11.871c-.489 0-.733-.246-.733-.796m13.337-51.824v20.558c.859.06 1.652.123 2.385.123h3.233c2.392.002 4.77-.373 7.046-1.111a10.5 10.5 0 0 0 5.016-3.241c1.286-1.532 1.898-3.61 1.898-6.299a10.07 10.07 0 0 0-1.408-5.44 8.88 8.88 0 0 0-4.295-3.487 17.9 17.9 0 0 0-7.221-1.223c-1.589 0-2.998 0-4.16.06a14.4 14.4 0 0 0-2.508.06zM198.778 163.141h10.705a1.37 1.37 0 0 1 1.286.979c.187.492.31 1.006.366 1.529.123.61.246 1.283.306 1.895.061.673.124 1.409.124 2.202a22.8 22.8 0 0 1 6.545-5.259 18.93 18.93 0 0 1 9.299-2.388.77.77 0 0 1 .572.155.76.76 0 0 1 .287.517v12.178c0 .489-.306.672-.979.672a26.5 26.5 0 0 0-6.608.61 25.5 25.5 0 0 0-5.137 1.652 9.6 9.6 0 0 0-3.12 2.265v31.209c0 .61-.247.859-.796.859h-12.066a.87.87 0 0 1-.642-.164.85.85 0 0 1-.224-.253.8.8 0 0 1-.11-.319v-34.146c0-1.469 0-2.998-.063-4.581s-.06-3.181-.123-4.771c0-1.408-.121-2.754-.244-4.16a.57.57 0 0 1 .43-.673c0-.063.12-.063.183 0z" fill="#99F"/></g></g><defs><clipPath id="a"><path fill="#fff" d="M109.076 109.162h146.846v146.864H109.076z"/></clipPath><clipPath id="b"><path fill="#fff" d="M109.076 111.008h146.846V254.18H109.076z"/></clipPath></defs></svg>