<svg width="286" height="286" viewBox="0 0 286 286" fill="none" xmlns="http://www.w3.org/2000/svg"><path d="M142.95 1.282c78.383 0 141.924 63.541 141.924 141.924 0 78.382-63.542 141.923-141.924 141.923S1.026 221.588 1.026 143.206 64.568 1.282 142.95 1.282" fill="#EAE7E0"/><path d="M142.95 1.282c78.383 0 141.924 63.541 141.924 141.924 0 78.382-63.542 141.923-141.924 141.923S1.026 221.588 1.026 143.206 64.568 1.282 142.95 1.282Z" stroke="#1C222F" stroke-width=".818"/><g clip-path="url(#a)"><g clip-path="url(#b)"><path d="M105.963 87.37h73.969a20.265 20.265 0 0 1 20.284 20.281v71.11a20.266 20.266 0 0 1-20.284 20.279h-73.969a20.27 20.27 0 0 1-14.345-5.934 20.26 20.26 0 0 1-5.936-14.345v-71.11a20.27 20.27 0 0 1 12.517-18.742 20.3 20.3 0 0 1 7.764-1.54" fill="#00005B"/><path d="M112.863 165.687v-49.108c0-.332.143-.525.478-.525.811 0 1.575 0 2.68-.046 1.146-.047 2.339-.047 3.627-.096 1.289-.05 2.68-.047 4.152-.097 1.472-.049 2.904-.046 4.344-.046 3.913 0 7.147.478 9.827 1.478a17.1 17.1 0 0 1 6.397 3.915 15.2 15.2 0 0 1 3.484 5.441 18.3 18.3 0 0 1 1.096 6.202q0 6.158-2.863 10.166a16.35 16.35 0 0 1-7.689 5.821c-3.246 1.192-6.826 1.621-10.739 1.621-1.145 0-1.909 0-2.385-.047s-1.146-.047-2.052-.047v15.319a.6.6 0 0 1-.301.599.6.6 0 0 1-.224.071h-9.26c-.382 0-.572-.192-.572-.621m10.403-40.424v16.036c.67.046 1.289.096 1.861.096h2.521a17.8 17.8 0 0 0 5.497-.867 8.2 8.2 0 0 0 3.913-2.528c1.003-1.195 1.48-2.816 1.48-4.914a7.86 7.86 0 0 0-1.098-4.243 6.92 6.92 0 0 0-3.35-2.72 14 14 0 0 0-5.633-.954c-1.24 0-2.338 0-3.245.047a11 11 0 0 0-1.957.047zM155.615 128.028h8.351a1.065 1.065 0 0 1 1.002.764c.147.383.243.784.286 1.192.096.476.192 1.001.239 1.479.047.525.096 1.099.096 1.717a17.8 17.8 0 0 1 5.106-4.103 14.8 14.8 0 0 1 7.254-1.862.58.58 0 0 1 .446.121q.094.075.153.179a.6.6 0 0 1 .071.225v9.498c0 .382-.239.525-.764.525a20.7 20.7 0 0 0-5.155.476c-1.377.286-2.72.718-4.006 1.289a7.4 7.4 0 0 0-2.435 1.766v24.344c0 .476-.192.67-.621.67h-9.411a.666.666 0 0 1-.676-.325.7.7 0 0 1-.086-.249v-26.635c0-1.146 0-2.339-.049-3.574s-.047-2.481-.096-3.721c0-1.098-.094-2.148-.19-3.245a.45.45 0 0 1 .335-.525c0-.049.094-.049.143 0z" fill="#99F"/></g></g><defs><clipPath id="a"><path fill="#fff" d="M85.682 85.93H200.22v114.552H85.682z"/></clipPath><clipPath id="b"><path fill="#fff" d="M85.682 87.37H200.22v111.672H85.682z"/></clipPath></defs></svg>