<svg width="366" height="366" viewBox="0 0 366 366" fill="none" xmlns="http://www.w3.org/2000/svg"><path d="M183.343 1.159c100.496 0 181.965 81.468 181.965 181.965 0 100.496-81.469 181.964-181.965 181.964S1.378 283.62 1.378 183.124C1.378 82.627 82.847 1.159 183.343 1.159" fill="#1C222F"/><path d="M183.343 1.159c100.496 0 181.965 81.468 181.965 181.965 0 100.496-81.469 181.964-181.965 181.964S1.378 283.62 1.378 183.124C1.378 82.627 82.847 1.159 183.343 1.159Z" stroke="#EAE7E0" stroke-width="1.049"/><g clip-path="url(#a)"><g clip-path="url(#b)"><path d="M135.922 111.538h94.833a25.97 25.97 0 0 1 18.394 7.609 25.98 25.98 0 0 1 7.611 18.393v91.167a25.97 25.97 0 0 1-7.611 18.393 26 26 0 0 1-18.394 7.607h-94.833a26 26 0 0 1-18.392-7.608 26 26 0 0 1-7.61-18.392V137.54a25.98 25.98 0 0 1 7.61-18.392 25.97 25.97 0 0 1 18.392-7.61" fill="#00005B"/><path d="M144.803 211.944v-62.956c0-.427.183-.673.612-.673 1.04 0 2.019 0 3.436-.06 1.469-.06 2.998-.06 4.65-.123s3.436-.06 5.323-.123 3.722-.06 5.569-.06c5.016 0 9.162.612 12.598 1.895a21.86 21.86 0 0 1 8.2 5.019 19.5 19.5 0 0 1 4.466 6.975 23.4 23.4 0 0 1 1.406 7.951q0 7.894-3.67 13.033a20.97 20.97 0 0 1-9.858 7.462c-4.161 1.529-8.75 2.078-13.767 2.078-1.468 0-2.448 0-3.057-.06-.61-.06-1.469-.06-2.632-.06v19.639q.02.152-.02.301a.75.75 0 0 1-.365.466.75.75 0 0 1-.288.092h-11.87c-.49 0-.733-.247-.733-.796m13.336-51.824v20.558c.859.06 1.652.123 2.385.123h3.233c2.392.002 4.77-.373 7.046-1.111a10.5 10.5 0 0 0 5.017-3.241c1.285-1.532 1.898-3.611 1.898-6.299a10.07 10.07 0 0 0-1.409-5.44 8.87 8.87 0 0 0-4.295-3.488 17.9 17.9 0 0 0-7.221-1.222c-1.589 0-2.997 0-4.16.06a14 14 0 0 0-2.508.06zM199.616 163.671h10.705a1.37 1.37 0 0 1 1.285.979c.188.492.311 1.005.367 1.529.123.61.246 1.282.306 1.895.06.673.123 1.409.123 2.202a22.8 22.8 0 0 1 6.546-5.26 18.95 18.95 0 0 1 9.299-2.388.764.764 0 0 1 .859.673v12.177c0 .49-.306.673-.979.673-2.22-.074-4.44.131-6.608.61a25.5 25.5 0 0 0-5.137 1.652 9.6 9.6 0 0 0-3.121 2.265v31.209c0 .609-.246.858-.796.858H200.4a.85.85 0 0 1-.642-.163.864.864 0 0 1-.334-.572v-34.147c0-1.468 0-2.997-.063-4.581-.063-1.583-.06-3.181-.123-4.77 0-1.408-.121-2.754-.244-4.16a.575.575 0 0 1 .43-.673c0-.063.12-.063.183 0z" fill="#99F"/></g></g><defs><clipPath id="a"><path fill="#fff" d="M109.92 109.691h146.846v146.864H109.92z"/></clipPath><clipPath id="b"><path fill="#fff" d="M109.92 111.538h146.846V254.71H109.92z"/></clipPath></defs></svg>