<svg width="286" height="286" viewBox="0 0 286 286" fill="none" xmlns="http://www.w3.org/2000/svg"><path d="M142.843 1.282c78.382 0 141.924 63.541 141.924 141.924 0 78.382-63.542 141.923-141.924 141.923S.919 221.588.919 143.206 64.46 1.282 142.843 1.282" fill="#1C222F"/><path d="M142.843 1.282c78.382 0 141.924 63.541 141.924 141.924 0 78.382-63.542 141.923-141.924 141.923S.919 221.588.919 143.206 64.46 1.282 142.843 1.282Z" stroke="#EAE7E0" stroke-width=".818"/><g clip-path="url(#a)"><g clip-path="url(#b)"><path d="M105.856 87.37h73.968a20.266 20.266 0 0 1 20.284 20.281v71.11a20.26 20.26 0 0 1-12.519 18.741 20.3 20.3 0 0 1-7.765 1.538h-73.968a20.28 20.28 0 0 1-14.346-5.934 20.27 20.27 0 0 1-5.936-14.345v-71.11a20.27 20.27 0 0 1 12.518-18.742 20.3 20.3 0 0 1 7.764-1.54" fill="#00005B"/><path d="M112.76 165.687v-49.108c0-.332.143-.525.478-.525.81 0 1.574 0 2.68-.046 1.146-.047 2.338-.047 3.627-.096 1.289-.05 2.68-.047 4.152-.097 1.472-.049 2.903-.046 4.344-.046 3.913 0 7.147.478 9.827 1.478a17.06 17.06 0 0 1 6.396 3.915 15.2 15.2 0 0 1 3.484 5.441 18.3 18.3 0 0 1 1.097 6.202q0 6.158-2.863 10.166a16.35 16.35 0 0 1-7.69 5.821c-3.245 1.192-6.825 1.621-10.738 1.621-1.146 0-1.91 0-2.385-.047-.476-.047-1.146-.047-2.053-.047v15.319a.6.6 0 0 1-.121.446.598.598 0 0 1-.404.224h-9.259c-.382 0-.572-.192-.572-.621m10.403-40.424v16.036c.67.046 1.289.096 1.86.096h2.522a17.8 17.8 0 0 0 5.496-.867 8.2 8.2 0 0 0 3.913-2.528c1.003-1.195 1.481-2.816 1.481-4.914a7.86 7.86 0 0 0-1.099-4.243 6.9 6.9 0 0 0-3.35-2.72 13.95 13.95 0 0 0-5.633-.954c-1.239 0-2.338 0-3.245.047a11 11 0 0 0-1.956.047zM155.506 128.028h8.35a1.07 1.07 0 0 1 1.003.764c.146.383.242.784.286 1.192.096.476.192 1.001.239 1.479.047.525.096 1.099.096 1.717a17.8 17.8 0 0 1 5.105-4.103 14.8 14.8 0 0 1 7.255-1.862.58.58 0 0 1 .445.121.58.58 0 0 1 .225.404v9.498c0 .382-.239.525-.764.525a20.7 20.7 0 0 0-5.155.476 19.8 19.8 0 0 0-4.007 1.289 7.4 7.4 0 0 0-2.434 1.766v24.344c0 .476-.192.67-.621.67h-9.412a.661.661 0 0 1-.675-.325.7.7 0 0 1-.086-.249v-26.635c0-1.146 0-2.339-.049-3.574s-.047-2.481-.096-3.721c0-1.098-.094-2.148-.19-3.245a.448.448 0 0 1 .335-.525c0-.049.094-.049.143 0z" fill="#99F"/></g></g><defs><clipPath id="a"><path fill="#fff" d="M85.574 85.93h114.538v114.552H85.574z"/></clipPath><clipPath id="b"><path fill="#fff" d="M85.574 87.37h114.538v111.672H85.574z"/></clipPath></defs></svg>