<svg width="1123" height="263" viewBox="0 0 1123 263" fill="none" xmlns="http://www.w3.org/2000/svg"><rect width="1123" height="263" rx="131.5" fill="#202020"/><path d="M258.803 99.559q7.885 0 11.419 3.625 3.625 3.535 3.625 11.419v9.97q0 7.884-3.625 11.51-3.534 3.534-11.419 3.534h-25.467v21.299q0 2.084-2.085 2.084h-12.688q-1.088 0-1.541-.453-.453-.544-.453-1.631v-59.363q0-1.088.453-1.541t1.541-.453zm-1.722 17.854q0-2.628-.997-3.535-.906-.996-3.535-.997h-19.213v13.414h19.213q2.63 0 3.535-.907.997-.996.997-3.625zm84.377 42.506q.634.815.634 1.45 0 .725-.544 1.178-.453.453-1.359.453h-14.864q-1.088 0-1.812-.272-.634-.363-1.269-1.269l-19.032-23.835h-1.904v23.292q0 2.084-2.084 2.084h-12.688q-1.088 0-1.541-.453-.453-.544-.453-1.631v-59.363q0-1.088.453-1.541t1.541-.453h39.605q7.885 0 11.419 3.625 3.626 3.535 3.626 11.419v8.792q0 7.884-3.535 11.51-3.534 3.625-11.238 3.625h-2.9zm-40.15-47.038v13.142h18.58q2.628 0 3.534-.906.997-.997.997-3.626v-4.078q0-2.628-.997-3.535-.906-.996-3.534-.997zm100.844 36.253q1.088 0 1.541.543.453.453.453 1.541v9.698q0 1.087-.453 1.631-.453.453-1.541.453h-46.493q-1.088 0-1.541-.453-.453-.544-.453-1.631v-59.363q0-1.088.453-1.541t1.541-.453h45.587q1.088 0 1.541.453t.453 1.541v9.788q0 1.087-.453 1.54t-1.541.454h-30.814v11.147h28.095q1.088 0 1.541.453t.453 1.541v9.063q0 1.088-.453 1.631-.453.453-1.541.454h-28.095v11.51zM417.071 163q-1.087 0-1.54-.453-.453-.544-.453-1.631v-59.363q0-1.088.453-1.541t1.54-.453h18.217q.997 0 1.45.362.544.363 1.088 1.45l14.682 24.924h.725l14.682-24.924q.635-1.087 1.088-1.45.544-.362 1.54-.362h18.126q1.088 0 1.541.453.544.453.544 1.541v59.363q0 2.084-2.085 2.084h-12.325q-2.085 0-2.085-2.084v-39.153h-.725l-13.051 21.48q-.634 1.087-1.178 1.45-.453.362-1.45.362h-9.879q-.996 0-1.54-.362-.544-.363-1.179-1.45l-12.96-21.48h-.815v39.153q0 1.087-.453 1.631-.454.453-1.541.453zm114.237-50.119v36.706h11.51q1.088 0 1.541.544.453.453.453 1.54v9.245q0 1.087-.453 1.631-.453.453-1.541.453h-39.696q-1.088 0-1.541-.453-.453-.544-.453-1.631v-9.245q0-1.087.453-1.54.453-.544 1.541-.544h11.419v-36.706h-11.419q-1.088 0-1.541-.453t-.453-1.54v-9.335q0-1.088.453-1.541t1.541-.453h39.696q1.088 0 1.541.453t.453 1.541v9.335q0 1.087-.453 1.54t-1.541.453zm72.904 36.253q1.087 0 1.54.543.453.453.453 1.541v9.698q0 1.087-.453 1.631-.453.453-1.54.453h-46.494q-1.087 0-1.54-.453-.454-.544-.454-1.631v-59.363q0-1.088.454-1.541.453-.453 1.54-.453h45.587q1.088 0 1.541.453t.453 1.541v9.788q0 1.087-.453 1.54t-1.541.454h-30.814v11.147h28.095q1.088 0 1.541.453t.453 1.541v9.063q0 1.088-.453 1.631-.453.453-1.541.454h-28.095v11.51zm70.294 10.785q.634.815.634 1.45 0 .725-.543 1.178-.454.453-1.36.453h-14.863q-1.088 0-1.813-.272-.635-.363-1.269-1.269l-19.032-23.835h-1.903v23.292q0 2.084-2.085 2.084h-12.688q-1.088 0-1.541-.453-.453-.544-.453-1.631v-59.363q0-1.088.453-1.541t1.541-.453h39.605q7.885 0 11.42 3.625 3.625 3.535 3.625 11.419v8.792q0 7.884-3.535 11.51-3.534 3.625-11.238 3.625h-2.9zm-40.149-47.038v13.142h18.579q2.628 0 3.534-.906.997-.997.997-3.626v-4.078q0-2.628-.997-3.535-.906-.996-3.534-.997zm116.628-13.322q7.885 0 11.419 3.625 3.626 3.535 3.626 11.419v9.97q0 7.884-3.626 11.51-3.534 3.534-11.419 3.534h-25.467v21.299q0 2.084-2.085 2.084h-12.688q-1.087 0-1.541-.453-.453-.544-.453-1.631v-59.363q0-1.088.453-1.541.454-.453 1.541-.453zm-1.722 17.854q0-2.628-.997-3.535-.906-.996-3.534-.997h-19.214v13.414h19.214q2.628 0 3.534-.907.997-.996.997-3.625zm84.377 42.506q.634.815.634 1.45 0 .725-.544 1.178-.453.453-1.359.453h-14.863q-1.088 0-1.813-.272-.635-.363-1.269-1.269l-19.032-23.835h-1.903v23.292q0 2.084-2.085 2.084h-12.688q-1.088 0-1.541-.453-.453-.544-.453-1.631v-59.363q0-1.088.453-1.541t1.541-.453h39.605q7.885 0 11.42 3.625 3.625 3.535 3.625 11.419v8.792q0 7.884-3.535 11.51-3.534 3.625-11.238 3.625h-2.9zm-40.149-47.038v13.142h18.579q2.628 0 3.534-.906.997-.997.997-3.626v-4.078q0-2.628-.997-3.535-.906-.996-3.534-.997zm67.241 50.572q-8.338 0-12.326-3.897-3.897-3.987-3.897-12.326v-31.992q0-8.338 3.897-12.235 3.988-3.897 12.326-3.897h29.183q8.337 0 12.235 3.897 3.988 3.897 3.988 12.235v31.992q0 8.339-3.988 12.326-3.898 3.897-12.235 3.897zm23.654-14.319q2.72 0 3.807-1.088 1.178-1.178 1.178-3.897v-25.83q0-2.718-1.178-3.806-1.088-1.178-3.807-1.178H866.26q-2.718 0-3.897 1.178-1.087 1.088-1.087 3.806v25.83q0 2.72 1.087 3.897 1.179 1.088 3.897 1.088z" fill="#EAE7E0"/></svg>