<svg width="1022" height="366" viewBox="0 0 1022 366" fill="none" xmlns="http://www.w3.org/2000/svg"><path d="M183.402 1.391h655.273c100.496 0 181.965 81.469 181.965 181.965S939.171 365.32 838.675 365.32H183.402c-100.496 0-181.964-81.468-181.964-181.964S82.906 1.391 183.402 1.391" fill="#1C222F"/><path d="M183.402 1.391h655.273c100.496 0 181.965 81.469 181.965 181.965S939.171 365.32 838.675 365.32H183.402c-100.496 0-181.964-81.468-181.964-181.964S82.906 1.391 183.402 1.391Z" stroke="#EAE7E0" stroke-width="1.049"/><path d="M305.53 198.309c8.337 0 15.096-6.759 15.096-15.096s-6.759-15.095-15.096-15.095-15.095 6.758-15.095 15.095 6.758 15.096 15.095 15.096" fill="#00D8FF"/><path clip-rule="evenodd" d="M305.536 152.527c20.268 0 39.097 2.908 53.294 7.795 17.104 5.889 27.621 14.815 27.621 22.897 0 8.422-11.146 17.905-29.514 23.991-13.887 4.6-32.161 7.002-51.401 7.002-19.725 0-38.404-2.254-52.448-7.053-17.767-6.073-28.469-15.678-28.469-23.94 0-8.017 10.041-16.873 26.906-22.753 14.249-4.968 33.543-7.939 54.009-7.939z" stroke="#00D8FF" stroke-width="2.48"/><path clip-rule="evenodd" d="M278.814 167.956c10.125-17.557 22.05-32.415 33.376-42.271 13.647-11.875 26.633-16.526 33.634-12.489 7.297 4.208 9.943 18.6 6.039 37.552-2.949 14.328-10.001 31.357-19.613 48.024-9.854 17.088-21.138 32.142-32.31 41.907-14.137 12.358-27.804 16.83-34.961 12.702-6.945-4.002-9.601-17.127-6.269-34.674 2.815-14.825 9.879-33.022 20.1-50.751z" stroke="#00D8FF" stroke-width="2.48"/><path clip-rule="evenodd" d="M278.841 198.816c-10.155-17.537-17.068-35.292-19.954-50.026-3.473-17.754-1.017-31.327 5.978-35.376 7.289-4.22 21.08.675 35.549 13.522 10.94 9.713 22.173 24.324 31.813 40.975 9.883 17.071 17.29 34.366 20.172 48.922 3.646 18.419.695 32.493-6.456 36.632-6.938 4.016-19.634-.236-33.172-11.886-11.438-9.842-23.676-25.051-33.93-42.763Z" stroke="#00D8FF" stroke-width="2.48"/><path fill-rule="evenodd" clip-rule="evenodd" d="m516.41 232.143-26.805-40.497c13.547-1.196 25.755-11.011 25.755-28.944 0-18.248-12.95-29.926-31.116-29.926h-39.893v99.291h12.358v-39.452h19.802l25.307 39.452zm-33.645-50.319h-26.05v-37.961h26.05c11.767 0 19.802 7.739 19.802 18.908s-8.041 19.065-19.802 19.065zm79.649 52.099c11.766 0 21.437-3.869 28.586-11.011l-5.361-7.299c-5.664 5.808-13.995 9.08-22.181 9.08-15.479 0-25.012-11.314-25.905-24.855h58.204v-2.831c0-21.582-12.805-38.559-34.545-38.559-20.545 0-35.426 16.826-35.426 37.665 0 22.483 15.334 37.754 36.621 37.754zm22.337-42.283h-47.192c.598-11.012 8.18-23.974 23.521-23.974 16.378 0 23.52 13.252 23.671 23.974m85.161 40.496v-49.425c0-17.417-12.648-24.269-27.838-24.269-11.766 0-20.991 3.87-28.73 11.911l5.21 7.739c6.399-6.845 13.402-9.973 22.035-9.973 10.421 0 18.166 5.506 18.166 15.183v12.95c-5.807-6.701-13.994-9.829-23.822-9.829-12.208 0-25.17 7.595-25.17 23.672 0 15.63 12.95 23.822 25.17 23.822 9.677 0 17.87-3.423 23.822-9.973v8.18zm-30.959-6.254c-10.42 0-17.719-6.544-17.719-15.63 0-9.231 7.299-15.781 17.719-15.781 7.891 0 15.479 2.976 19.802 8.935v13.547c-4.316 5.953-11.911 8.929-19.802 8.929m84.947 8.041c13.1 0 20.84-5.361 26.352-12.502l-7.444-6.846c-4.763 6.399-10.867 9.375-18.248 9.375-15.334 0-24.854-11.911-24.854-27.837s9.526-27.685 24.854-27.685c7.444 0 13.548 2.831 18.248 9.375l7.444-6.846c-5.506-7.148-13.252-12.503-26.352-12.503-21.438 0-35.879 16.379-35.879 37.666 0 21.437 14.441 37.753 35.879 37.753zm60.154 0c6.544 0 10.572-1.938 13.403-4.612l-3.272-8.337c-1.491 1.636-4.405 2.976-7.595 2.976-4.908 0-7.299-3.869-7.299-9.23v-44.663h14.598v-9.822h-14.598v-19.65h-11.169v19.65h-11.911v9.829h11.911v47.047c0 10.722 5.361 16.825 15.932 16.825z" fill="#00D8FF"/></svg>