<svg width="1021" height="366" viewBox="0 0 1021 366" fill="none" xmlns="http://www.w3.org/2000/svg"><path d="M182.664.814h655.263c100.495 0 181.963 81.469 181.963 181.964s-81.468 181.963-181.963 181.963H182.664C82.168 364.741.7 283.274.7 182.778S82.168.814 182.664.814" fill="#EAE7E0"/><path d="M182.664.814h655.263c100.495 0 181.963 81.469 181.963 181.964s-81.468 181.963-181.963 181.963H182.664C82.168 364.741.7 283.274.7 182.778S82.168.814 182.664.814Z" stroke="#1C222F" stroke-width="1.049"/><path d="M304.793 197.73c8.337 0 15.095-6.759 15.095-15.096s-6.758-15.095-15.095-15.095-15.096 6.758-15.096 15.095 6.759 15.096 15.096 15.096" fill="#00ABC9"/><path clip-rule="evenodd" d="M304.799 151.95c20.268 0 39.096 2.908 53.292 7.796 17.105 5.888 27.622 14.814 27.622 22.897 0 8.422-11.146 17.904-29.514 23.99-13.887 4.601-32.161 7.003-51.4 7.003-19.726 0-38.405-2.255-52.448-7.053-17.768-6.073-28.469-15.678-28.469-23.94 0-8.017 10.041-16.874 26.905-22.754 14.25-4.968 33.543-7.939 54.009-7.939z" stroke="#00ABC9" stroke-width="2.48"/><path clip-rule="evenodd" d="M278.071 167.38c10.126-17.558 22.051-32.415 33.377-42.272 13.646-11.875 26.632-16.526 33.633-12.489 7.297 4.208 9.943 18.601 6.039 37.552-2.949 14.329-10.001 31.358-19.612 48.025-9.855 17.088-21.139 32.142-32.311 41.907-14.136 12.358-27.803 16.83-34.961 12.703-6.944-4.003-9.6-17.128-6.269-34.675 2.815-14.825 9.88-33.023 20.101-50.752z" stroke="#00ABC9" stroke-width="2.48"/><path clip-rule="evenodd" d="M278.093 198.238c-10.154-17.538-17.067-35.293-19.953-50.027-3.473-17.754-1.017-31.328 5.977-35.377 7.29-4.219 21.08.676 35.55 13.523 10.939 9.713 22.173 24.324 31.812 40.975 9.883 17.072 17.29 34.367 20.172 48.922 3.646 18.42.695 32.493-6.455 36.632-6.938 4.017-19.635-.235-33.172-11.885-11.439-9.843-23.676-25.052-33.931-42.763Z" stroke="#00ABC9" stroke-width="2.48"/><path fill-rule="evenodd" clip-rule="evenodd" d="m515.663 231.567-26.805-40.497c13.547-1.196 25.754-11.012 25.754-28.945 0-18.247-12.95-29.926-31.115-29.926h-39.893v99.292h12.358v-39.452h19.801l25.308 39.452zm-33.645-50.32h-26.05v-37.961h26.05c11.767 0 19.802 7.74 19.802 18.908s-8.042 19.066-19.802 19.066zm79.648 52.1c11.766 0 21.438-3.869 28.586-11.011l-5.361-7.299c-5.663 5.808-13.994 9.08-22.181 9.08-15.479 0-25.012-11.314-25.905-24.855h58.204v-2.831c0-21.583-12.805-38.559-34.545-38.559-20.544 0-35.426 16.825-35.426 37.665 0 22.482 15.335 37.754 36.621 37.754zm22.337-42.284h-47.192c.598-11.011 8.18-23.973 23.521-23.973 16.379 0 23.52 13.251 23.671 23.973m85.16 40.497v-49.425c0-17.417-12.647-24.27-27.837-24.27-11.766 0-20.991 3.87-28.73 11.912l5.21 7.739c6.399-6.846 13.402-9.973 22.035-9.973 10.42 0 18.166 5.506 18.166 15.183v12.95c-5.808-6.702-13.994-9.829-23.823-9.829-12.207 0-25.169 7.595-25.169 23.672 0 15.63 12.95 23.822 25.169 23.822 9.678 0 17.871-3.423 23.823-9.973v8.18zm-30.958-6.254c-10.42 0-17.719-6.544-17.719-15.63 0-9.231 7.299-15.781 17.719-15.781 7.891 0 15.479 2.976 19.802 8.935v13.547c-4.316 5.953-11.911 8.929-19.802 8.929m84.946 8.041c13.101 0 20.84-5.361 26.352-12.502l-7.444-6.846c-4.763 6.399-10.866 9.375-18.247 9.375-15.335 0-24.855-11.911-24.855-27.837s9.527-27.686 24.855-27.686c7.444 0 13.547 2.832 18.247 9.376l7.444-6.846c-5.506-7.148-13.251-12.503-26.352-12.503-21.438 0-35.879 16.379-35.879 37.665 0 21.438 14.441 37.754 35.879 37.754zm60.154 0c6.544 0 10.571-1.938 13.403-4.612l-3.272-8.337c-1.491 1.636-4.405 2.976-7.595 2.976-4.908 0-7.299-3.87-7.299-9.231v-44.662h14.598v-9.822h-14.598v-19.651h-11.169v19.651h-11.911v9.828h11.911v47.047c0 10.722 5.361 16.826 15.932 16.826z" fill="#00ABC9"/></svg>