<svg width="759" height="286" viewBox="0 0 759 286" fill="none" xmlns="http://www.w3.org/2000/svg"><path d="M142.335 1.005h473.821c78.384 0 141.926 63.542 141.926 141.926S694.54 284.857 616.156 284.857H142.335C63.951 284.857.409 221.314.409 142.931.41 64.547 63.952 1.005 142.335 1.005" fill="#fff"/><path d="M142.335 1.005h473.821c78.384 0 141.926 63.542 141.926 141.926S694.54 284.857 616.156 284.857H142.335C63.951 284.857.409 221.314.409 142.931.41 64.547 63.952 1.005 142.335 1.005Z" stroke="#ECE9E1" stroke-width=".818"/><g clip-path="url(#a)"><path d="M237.599 154.597c6.504 0 11.776-5.272 11.776-11.775s-5.272-11.775-11.776-11.775-11.775 5.272-11.775 11.775 5.272 11.775 11.775 11.775" fill="#00C3E6"/><path clip-rule="evenodd" d="M237.592 118.886c15.807 0 30.493 2.269 41.565 6.08 13.341 4.593 21.543 11.555 21.543 17.859 0 6.569-8.693 13.965-23.019 18.711-10.831 3.589-25.084 5.462-40.089 5.462-15.385 0-29.954-1.758-40.907-5.501-13.858-4.737-22.205-12.228-22.205-18.672 0-6.253 7.832-13.161 20.985-17.747 11.114-3.874 26.162-6.192 42.124-6.192z" stroke="#00C3E6" stroke-width="1.934"/><path clip-rule="evenodd" d="M216.749 130.92c7.898-13.694 17.199-25.283 26.033-32.971 10.644-9.263 20.773-12.89 26.234-9.742 5.691 3.282 7.755 14.509 4.71 29.291-2.3 11.176-7.8 24.459-15.297 37.459-7.687 13.328-16.488 25.071-25.202 32.687-11.027 9.639-21.687 13.127-27.269 9.908-5.417-3.122-7.489-13.359-4.89-27.046 2.196-11.564 7.706-25.757 15.678-39.586z" stroke="#00C3E6" stroke-width="1.934"/><path clip-rule="evenodd" d="M216.759 154.99c-7.92-13.679-13.312-27.528-15.563-39.021-2.71-13.848-.794-24.435 4.662-27.593 5.685-3.292 16.442.526 27.728 10.547 8.533 7.576 17.295 18.973 24.813 31.961 7.709 13.315 13.487 26.805 15.734 38.158 2.844 14.367.542 25.345-5.035 28.573-5.412 3.133-15.314-.184-25.874-9.27-8.922-7.678-18.467-19.54-26.465-33.356z" stroke="#00C3E6" stroke-width="1.934"/><path fill-rule="evenodd" clip-rule="evenodd" d="m386.295 177.253-18.857-28.49c9.53-.841 18.118-7.746 18.118-20.362 0-12.837-9.11-21.053-21.89-21.053h-28.064V177.2h8.693v-27.755h13.931L376.03 177.2zm-23.669-35.4H344.3v-26.706h18.326c8.278 0 13.931 5.445 13.931 13.302 0 7.858-5.657 13.413-13.931 13.413zm56.032 36.653c8.278 0 15.082-2.722 20.111-7.747l-3.772-5.135c-3.984 4.086-9.845 6.388-15.604 6.388-10.889 0-17.596-7.959-18.224-17.485h40.946v-1.992c0-15.184-9.008-27.127-24.302-27.127-14.453 0-24.922 11.837-24.922 26.498 0 15.817 10.788 26.56 25.763 26.56zm15.715-29.747h-33.2c.421-7.747 5.755-16.866 16.547-16.866 11.522 0 16.547 9.323 16.653 16.866m59.91 28.49v-34.771c0-12.253-8.898-17.074-19.583-17.074-8.278 0-14.768 2.722-20.212 8.38l3.665 5.444c4.502-4.816 9.429-7.016 15.502-7.016 7.33 0 12.78 3.873 12.78 10.682v9.11c-4.086-4.715-9.845-6.915-16.76-6.915-8.587 0-17.706 5.343-17.706 16.653 0 10.996 9.11 16.76 17.706 16.76 6.808 0 12.572-2.409 16.76-7.017v5.755zm-21.779-4.4c-7.331 0-12.465-4.604-12.465-10.996 0-6.494 5.134-11.102 12.465-11.102 5.551 0 10.889 2.094 13.931 6.286v9.53c-3.037 4.188-8.38 6.282-13.931 6.282m59.759 5.657c9.217 0 14.661-3.772 18.539-8.796l-5.237-4.816c-3.351 4.502-7.644 6.596-12.837 6.596-10.787 0-17.485-8.38-17.485-19.584s6.702-19.477 17.485-19.477c5.237 0 9.531 1.992 12.837 6.596l5.237-4.816c-3.873-5.029-9.322-8.796-18.539-8.796-15.081 0-25.24 11.522-25.24 26.498 0 15.081 10.159 26.56 25.24 26.56zm42.319 0c4.604 0 7.437-1.363 9.429-3.245l-2.302-5.865c-1.049 1.151-3.099 2.094-5.343 2.094-3.453 0-5.135-2.723-5.135-6.494v-31.42h10.27v-6.91h-10.27v-13.825h-7.857v13.825h-8.38v6.914h8.38v33.098c0 7.543 3.771 11.837 11.208 11.837z" fill="#00C3E6"/></g><defs><clipPath id="a"><path fill="#fff" d="M174.48 87.095h409.531v111.672H174.48z"/></clipPath></defs></svg>