<svg width="863" height="262" viewBox="0 0 863 262" fill="none" xmlns="http://www.w3.org/2000/svg"><rect width="863" height="262" rx="131" fill="#202020"/><path d="M259.985 159.419q.634.815.634 1.45 0 .725-.543 1.178-.454.453-1.36.453h-14.863q-1.087 0-1.813-.272-.634-.363-1.269-1.269l-19.032-23.835h-1.903v23.292q0 2.084-2.085 2.084h-12.688q-1.088 0-1.541-.453-.453-.544-.453-1.631v-59.363q0-1.088.453-1.541t1.541-.453h39.605q7.885 0 11.42 3.625 3.625 3.535 3.625 11.419v8.792q0 7.884-3.535 11.51-3.534 3.625-11.238 3.625h-2.9zm-40.149-47.038v13.142h18.579q2.628 0 3.535-.906.996-.997.996-3.626v-4.078q0-2.628-.996-3.535-.907-.996-3.535-.997zm100.844 36.253q1.087 0 1.54.543.453.453.453 1.541v9.698q0 1.087-.453 1.631-.453.453-1.54.453h-46.494q-1.087 0-1.54-.453-.454-.544-.454-1.631v-59.363q0-1.088.454-1.541.453-.453 1.54-.453h45.587q1.088 0 1.541.453t.453 1.541v9.788q0 1.087-.453 1.54t-1.541.454h-30.814v11.147h28.095q1.088 0 1.541.453t.453 1.541v9.063q0 1.088-.453 1.631-.453.453-1.541.454h-28.095v11.51zm69.953 11.238q.09.362.09.997 0 1.63-1.812 1.631h-11.692q-1.993 0-2.356-1.631l-2.447-9.517h-25.83l-2.447 9.517q-.271.906-.906 1.268-.543.363-1.541.363h-11.691q-1.812 0-1.813-1.631 0-.635.091-.997l15.226-59.182q.543-1.63 2.447-1.631h27.008q1.903 0 2.447 1.631zm-27.008-46.222h-8.338l-4.26 17.039-1.812 6.888h20.573l-1.813-6.888zm50.281 49.303q-8.337 0-12.326-3.897-3.897-3.987-3.897-12.326v-31.992q0-8.338 3.897-12.235 3.989-3.897 12.326-3.897h26.917q8.338 0 12.235 3.897 3.988 3.897 3.988 12.235v6.253q0 2.085-2.084 2.085h-12.96q-2.085 0-2.085-2.085v-3.172q0-2.718-1.178-3.806-1.088-1.178-3.807-1.178h-15.497q-2.72 0-3.897 1.178-1.089 1.088-1.088 3.806v25.83q0 2.72 1.088 3.897 1.178 1.088 3.897 1.088h15.497q2.72 0 3.807-1.088 1.178-1.178 1.178-3.897v-3.172q0-1.088.453-1.541.544-.453 1.632-.453h12.96q1.087 0 1.54.453.544.453.544 1.541v6.253q0 8.339-3.988 12.326-3.897 3.897-12.235 3.897zm103.636-63.894q1.089 0 1.541.453.544.453.544 1.541v10.875q0 2.085-2.085 2.085h-18.76v46.403q0 2.084-2.084 2.084h-12.689q-1.087 0-1.54-.453-.454-.544-.454-1.631v-46.403h-18.851q-1.087 0-1.54-.453-.453-.544-.453-1.632v-10.875q0-1.088.453-1.541t1.54-.453zm-2.694 63.441q-1.087 0-1.54-.453-.453-.544-.453-1.631v-11.782q0-1.088.453-1.541t1.54-.453h12.779q1.088 0 1.541.453.543.453.544 1.541v11.782q0 2.084-2.085 2.084zm39.287.453q-8.337 0-12.326-3.897-3.897-3.987-3.897-12.326v-9.606q0-1.089.454-1.541.453-.544 1.54-.544h12.87q1.087 0 1.54.544.454.452.454 1.541v6.525q0 2.72 1.087 3.897 1.179 1.088 3.897 1.088h9.607q2.719 0 3.807-1.088 1.178-1.178 1.178-3.897v-30.361h-27.189q-1.088 0-1.541-.453t-.453-1.541v-10.241q0-1.088.453-1.541t1.541-.453h41.961q1.088 0 1.541.453t.453 1.541v45.677q0 8.339-3.987 12.326-3.898 3.897-12.145 3.897zm64.525 0q-7.884 0-11.51-3.534-3.534-3.625-3.534-11.601v-3.625q0-1.088.453-1.541t1.541-.453h13.05q1.088 0 1.541.453.544.453.544 1.541v1.722q0 2.628.906 3.625.997.906 3.625.906h14.682q2.63 0 3.535-.906.997-.997.997-3.625v-4.713q0-2.628-.997-3.535-.906-.996-3.535-.997h-20.845q-7.884 0-11.51-3.534-3.534-3.626-3.534-11.51v-7.976q0-7.885 3.534-11.419 3.626-3.625 11.51-3.625h26.646q7.885 0 11.419 3.625 3.625 3.534 3.625 11.419v3.626q0 1.087-.453 1.54t-1.54.453h-13.051q-1.088 0-1.541-.453t-.453-1.54v-1.722q0-2.63-.997-3.535-.906-.997-3.535-.997h-13.866q-2.629 0-3.625.997-.907.906-.907 3.535v4.803q0 2.629.907 3.625.996.906 3.625.906h20.845q7.885 0 11.419 3.626 3.626 3.535 3.626 11.419v7.885q0 7.976-3.626 11.601-3.534 3.534-11.419 3.534z" fill="#EAE7E0"/></svg>