<svg width="1071" height="263" viewBox="0 0 1071 263" fill="none" xmlns="http://www.w3.org/2000/svg"><rect width="1071" height="263" rx="131.5" fill="#EAE7E0"/><path d="M271.485 159.919q.634.815.634 1.45 0 .725-.543 1.178-.454.453-1.36.453h-14.863q-1.087 0-1.813-.272-.634-.363-1.269-1.269l-19.032-23.835h-1.903v23.292q0 2.084-2.085 2.084h-12.688q-1.088 0-1.541-.453-.453-.544-.453-1.631v-59.363q0-1.088.453-1.541t1.541-.453h39.605q7.885 0 11.42 3.625 3.625 3.535 3.625 11.419v8.792q0 7.884-3.535 11.51-3.534 3.625-11.238 3.625h-2.9zm-40.149-47.038v13.142h18.579q2.628 0 3.535-.906.996-.997.996-3.626v-4.078q0-2.628-.996-3.535-.907-.996-3.535-.997zm100.844 36.253q1.087 0 1.54.543.453.453.453 1.541v9.698q0 1.087-.453 1.631-.453.453-1.54.453h-46.494q-1.087 0-1.54-.453-.454-.544-.454-1.631v-59.363q0-1.088.454-1.541.453-.453 1.54-.453h45.587q1.088 0 1.541.453t.453 1.541v9.788q0 1.087-.453 1.54t-1.541.454h-30.814v11.147h28.095q1.088 0 1.541.453t.453 1.541v9.063q0 1.088-.453 1.631-.453.453-1.541.454h-28.095v11.51zm26.178 14.319q-7.884 0-11.51-3.534-3.534-3.625-3.534-11.601v-3.625q0-1.088.453-1.541t1.54-.453h13.051q1.088 0 1.541.453.543.453.544 1.541v1.722q0 2.628.906 3.625.997.906 3.625.906h14.682q2.63 0 3.535-.906.997-.997.997-3.625v-4.713q0-2.628-.997-3.535-.906-.996-3.535-.997h-20.845q-7.884 0-11.51-3.534-3.534-3.626-3.534-11.51v-7.976q0-7.885 3.534-11.419 3.626-3.625 11.51-3.625h26.646q7.885 0 11.419 3.625 3.625 3.534 3.625 11.419v3.626q0 1.087-.453 1.54t-1.541.453h-13.05q-1.088 0-1.541-.453t-.453-1.54v-1.722q0-2.63-.997-3.535-.907-.997-3.535-.997h-13.866q-2.629 0-3.625.997-.907.906-.907 3.535v4.803q0 2.629.907 3.625.996.906 3.625.906h20.845q7.885 0 11.419 3.626 3.625 3.535 3.625 11.419v7.885q0 7.976-3.625 11.601-3.534 3.534-11.419 3.534zm96.875-63.894q7.885 0 11.42 3.625 3.625 3.535 3.625 11.419v9.97q0 7.884-3.625 11.51-3.535 3.534-11.42 3.534h-25.467v21.299q0 2.084-2.084 2.084h-12.688q-1.088 0-1.541-.453-.453-.544-.453-1.631v-59.363q0-1.088.453-1.541t1.541-.453zm-1.722 17.854q0-2.628-.997-3.535-.906-.996-3.534-.997h-19.214v13.414h19.214q2.628 0 3.534-.907.997-.996.997-3.625zm42.346 46.04q-8.338 0-12.326-3.897-3.897-3.987-3.897-12.326v-31.992q0-8.338 3.897-12.235 3.988-3.897 12.326-3.897h29.183q8.338 0 12.235 3.897 3.988 3.897 3.988 12.235v31.992q0 8.339-3.988 12.326-3.897 3.897-12.235 3.897zm23.654-14.319q2.72 0 3.807-1.088 1.178-1.178 1.178-3.897v-25.83q0-2.718-1.178-3.806-1.088-1.178-3.807-1.178h-18.126q-2.718 0-3.897 1.178-1.087 1.088-1.087 3.806v25.83q0 2.72 1.087 3.897 1.179 1.088 3.897 1.088zM556.416 163q-1.088 0-1.541-.453-.453-.544-.453-1.631v-59.363q0-1.088.453-1.541t1.541-.453h16.313q1.088 0 1.631.453.635.363 1.179 1.269l21.751 37.43h.816v-37.158q0-1.088.453-1.541.543-.453 1.631-.453h12.144q1.089 0 1.541.453.544.453.544 1.541v59.363q0 2.084-2.085 2.084h-16.313q-1.087 0-1.722-.363-.634-.453-1.087-1.45l-21.752-37.43h-.815v37.159q0 1.087-.454 1.631-.453.453-1.54.453zm85.25.453q-7.884 0-11.51-3.534-3.534-3.625-3.534-11.601v-3.625q0-1.088.453-1.541t1.54-.453h13.051q1.088 0 1.541.453.543.453.544 1.541v1.722q0 2.628.906 3.625.997.906 3.625.906h14.682q2.629 0 3.535-.906.996-.997.997-3.625v-4.713q0-2.628-.997-3.535-.907-.996-3.535-.997h-20.845q-7.884 0-11.51-3.534-3.534-3.626-3.534-11.51v-7.976q0-7.885 3.534-11.419 3.626-3.625 11.51-3.625h26.646q7.885 0 11.419 3.625 3.625 3.534 3.625 11.419v3.626q0 1.087-.453 1.54t-1.541.453h-13.05q-1.088 0-1.541-.453t-.453-1.54v-1.722q0-2.63-.997-3.535-.907-.997-3.535-.997h-13.866q-2.629 0-3.625.997-.907.906-.907 3.535v4.803q0 2.629.907 3.625.996.906 3.625.906h20.845q7.885 0 11.419 3.626 3.625 3.535 3.625 11.419v7.885q0 7.976-3.625 11.601-3.534 3.534-11.419 3.534zm79.789-50.572v36.706h11.51q1.087 0 1.54.544.454.453.454 1.54v9.245q0 1.087-.454 1.631-.453.453-1.54.453h-39.696q-1.088 0-1.541-.453-.453-.544-.453-1.631v-9.245q0-1.087.453-1.54.453-.544 1.541-.544h11.419v-36.706h-11.419q-1.088 0-1.541-.453t-.453-1.54v-9.335q0-1.088.453-1.541t1.541-.453h39.696q1.087 0 1.54.453t.454 1.541v9.335q0 1.087-.454 1.54-.453.453-1.54.453zM762.094 163q-1.087 0-1.632-.363-.543-.453-.996-1.54l-21.661-58.729q-.181-.362-.181-1.087t.634-1.178q.544-.544 1.722-.544h12.326q1.088 0 1.631.453.545.363.906 1.359l14.773 42.869h.725l5.619-16.314 9.063-26.555q.363-.996.907-1.359.634-.453 1.631-.453h12.416q2.266 0 2.266 1.722 0 .363-.181 1.087l-21.661 58.729q-.363.996-.997 1.45-.543.453-1.631.453zm94.484-13.866q1.088 0 1.541.543.453.453.453 1.541v9.698q0 1.087-.453 1.631-.453.453-1.541.453h-46.493q-1.088 0-1.541-.453-.453-.544-.453-1.631v-59.363q0-1.088.453-1.541t1.541-.453h45.587q1.087 0 1.54.453t.453 1.541v9.788q0 1.087-.453 1.54t-1.54.454h-30.815v11.147h28.096q1.087 0 1.54.453t.454 1.541v9.063q0 1.088-.454 1.631-.453.453-1.54.454h-28.096v11.51z" fill="#202020"/></svg>