<svg width="286" height="286" viewBox="0 0 286 286" fill="none" xmlns="http://www.w3.org/2000/svg"><path d="M142.851.792c78.382 0 141.923 63.542 141.923 141.924S221.233 284.64 142.851 284.64.927 221.098.927 142.716 64.468.792 142.85.792" fill="#EAE7E0"/><path d="M142.851.792c78.382 0 141.923 63.542 141.923 141.924S221.233 284.64 142.851 284.64.927 221.098.927 142.716 64.468.792 142.85.792Z" stroke="#1C222F" stroke-width=".818"/><g clip-path="url(#a)"><path d="M195.418 150.813c-5.095.03-9.504 1.252-13.203 3.073-1.365-2.704-2.731-5.064-2.959-6.828-.257-2.049-.569-3.301-.257-5.748s1.737-5.918 1.737-6.203c-.027-.257-.314-1.509-3.244-1.536-2.929-.027-5.463.569-5.747 1.338a33 33 0 0 0-1.225 4.355c-.512 2.674-5.861 12.15-8.907 17.131-.997-1.935-1.85-3.642-2.021-5.008-.257-2.049-.569-3.3-.257-5.747s1.736-5.919 1.736-6.203c-.027-.257-.314-1.509-3.243-1.537-2.93-.027-5.463.569-5.748 1.339-.284.769-.598 2.59-1.224 4.354-.599 1.764-7.712 17.587-9.561 21.711a89 89 0 0 1-2.362 4.924c-.599 1.138-.028.086-.085.2l-.796 1.509v.027c-.399.713-.827 1.396-1.025 1.396-.141 0-.428-1.908.057-4.525 1.054-5.493 3.615-14.059 3.585-14.37 0-.142.485-1.651-1.65-2.42-2.078-.769-2.818.512-2.989.512s-.314.455-.314.455 2.306-9.646-4.411-9.646c-4.211 0-10.016 4.582-12.891 8.763l-14.513 7.94-.314-.342c-8.133-8.686-23.186-14.832-22.56-26.498.228-4.24 1.707-15.423 28.908-28.967 22.28-11.097 40.124-8.053 43.226-1.282 4.412 9.674-9.533 27.657-32.696 30.252-8.82.997-13.459-2.42-14.627-3.699-1.224-1.339-1.395-1.396-1.85-1.138-.74.398-.285 1.593 0 2.306.682 1.793 3.528 4.98 8.365 6.573 4.24 1.396 14.597 2.163 27.119-2.674 14.029-5.436 24.984-20.516 21.768-33.12-3.273-12.833-24.556-17.044-44.676-9.901-11.978 4.263-24.93 10.919-34.262 19.655-11.12 10.357-12.884 19.407-12.146 23.163 2.59 13.403 21.055 22.139 28.453 28.599l-1.024.569c-3.7 1.821-17.785 9.192-21.313 16.988-3.984 8.82.626 15.166 3.699 16.02 9.503 2.647 19.234-2.106 24.499-9.931 5.236-7.826 4.61-17.983 2.192-22.622l-.086-.17 2.902-1.708a171 171 0 0 1 5.349-3.016c-.91 2.477-1.566 5.406-1.907 9.674-.399 5.008 1.65 11.495 4.354 14.059 1.195 1.11 2.618 1.138 3.501 1.138 3.13 0 4.552-2.591 6.118-5.691 1.935-3.785 3.642-8.167 3.642-8.167s-2.135 11.866 3.699 11.866c2.136 0 4.268-2.761 5.236-4.184v.027s.057-.086.171-.284c.227-.341.341-.542.341-.542v-.057c.854-1.479 2.761-4.866 5.606-10.47 3.672-7.228 7.2-16.276 7.2-16.276s.342 2.22 1.395 5.862c.626 2.162 1.992 4.525 3.046 6.828l-1.366 1.878.028.03a82 82 0 0 1-2.249 2.845c-2.903 3.472-6.374 7.428-6.829 8.566-.542 1.338-.428 2.333.626 3.13.769.569 2.135.683 3.585.569 2.618-.171 4.439-.827 5.349-1.225a18.5 18.5 0 0 0 4.61-2.42c2.845-2.105 4.582-5.094 4.411-9.077-.087-2.192-.797-4.355-1.68-6.403l.769-1.138c4.496-6.574 7.967-13.801 7.967-13.801s.342 2.219 1.396 5.861c.541 1.851 1.623 3.87 2.59 5.861-4.211 3.444-6.858 7.428-7.769 10.045-1.68 4.837-.371 7.029 2.106 7.542 1.111.227 2.704-.285 3.899-.797a17.7 17.7 0 0 0 4.924-2.534c2.845-2.105 5.576-5.037 5.435-8.991-.086-1.821-.569-3.614-1.224-5.322 3.585-1.479 8.224-2.333 14.112-1.623 12.663 1.48 15.167 9.39 14.682 12.691-.485 3.3-3.13 5.121-4.013 5.69-.883.542-1.168.74-1.081 1.138.114.599.512.569 1.281.456 1.054-.171 6.658-2.705 6.886-8.794.342-7.825-7.086-16.361-20.259-16.275zm-97.66 32.926c-4.184 4.583-10.073 6.317-12.577 4.837-2.704-1.566-1.65-8.308 3.501-13.174 3.13-2.96 7.2-5.691 9.874-7.371l2.591-1.566c.171-.114.284-.171.284-.171.201-.114.428-.257.656-.398 1.907 6.942.086 13.031-4.325 17.841zm30.592-20.8c-1.452 3.558-4.525 12.69-6.373 12.178-1.594-.428-2.561-7.341-.314-14.172 1.138-3.444 3.557-7.541 4.98-9.135 2.306-2.56 4.81-3.414 5.436-2.362.74 1.365-2.818 11.269-3.729 13.491m25.239 12.064c-.626.314-1.195.542-1.452.371-.2-.114.257-.542.257-.542s3.16-3.387 4.412-4.95l2.476-3.16v.342c0 4.097-3.926 6.828-5.69 7.939zm19.462-4.439c-.455-.341-.398-1.395 1.138-4.695.599-1.309 1.965-3.501 4.325-5.577.285.853.456 1.68.428 2.447-.029 5.121-3.671 7.029-5.891 7.825" fill="#CF649A"/></g><defs><clipPath id="a"><path fill="#fff" d="M70.01 69.876h145.68v145.68H70.01z"/></clipPath></defs></svg>