<svg width="637" height="263" viewBox="0 0 637 263" fill="none" xmlns="http://www.w3.org/2000/svg"><rect width="637" height="263" rx="131.5" fill="#EAE7E0"/><path d="M204.754 163.453q-7.884 0-11.51-3.534-3.534-3.625-3.534-11.601v-3.625q0-1.088.453-1.541t1.541-.453h13.05q1.088 0 1.541.453.544.453.544 1.541v1.722q0 2.628.906 3.625.997.906 3.625.906h14.682q2.63 0 3.535-.906.997-.997.997-3.625v-4.713q0-2.628-.997-3.535-.906-.996-3.535-.997h-20.845q-7.884 0-11.51-3.534-3.534-3.626-3.534-11.51v-7.976q0-7.885 3.534-11.419 3.626-3.625 11.51-3.625h26.646q7.885 0 11.419 3.625 3.625 3.534 3.625 11.419v3.626q0 1.087-.453 1.54t-1.54.453h-13.051q-1.088 0-1.541-.453t-.453-1.54v-1.722q0-2.63-.997-3.535-.906-.997-3.535-.997h-13.866q-2.629 0-3.625.997-.906.906-.907 3.535v4.803q0 2.629.907 3.625.996.906 3.625.906h20.845q7.884 0 11.419 3.626 3.626 3.535 3.626 11.419v7.885q0 7.976-3.626 11.601-3.535 3.534-11.419 3.534zm110.331-3.081q.091.362.091.997 0 1.63-1.813 1.631h-11.691q-1.994 0-2.356-1.631l-2.447-9.517h-25.83l-2.447 9.517q-.271.906-.906 1.268-.544.363-1.541.363h-11.691q-1.813 0-1.813-1.631 0-.635.091-.997l15.226-59.182q.543-1.63 2.447-1.631h27.007q1.904 0 2.447 1.631zm-27.008-46.222h-8.338l-4.259 17.039-1.813 6.888h20.573l-1.812-6.888zm48.197 49.303q-7.884 0-11.51-3.534-3.534-3.625-3.534-11.601v-3.625q0-1.088.453-1.541t1.541-.453h13.05q1.088 0 1.541.453.544.453.544 1.541v1.722q0 2.628.906 3.625.997.906 3.625.906h14.682q2.63 0 3.535-.906.997-.997.997-3.625v-4.713q0-2.628-.997-3.535-.906-.996-3.535-.997h-20.845q-7.884 0-11.51-3.534-3.534-3.626-3.534-11.51v-7.976q0-7.885 3.534-11.419 3.626-3.625 11.51-3.625h26.646q7.885 0 11.419 3.625 3.625 3.534 3.625 11.419v3.626q0 1.087-.453 1.54t-1.54.453h-13.051q-1.088 0-1.541-.453t-.453-1.54v-1.722q0-2.63-.997-3.535-.906-.997-3.535-.997h-13.866q-2.629 0-3.625.997-.906.906-.907 3.535v4.803q0 2.629.907 3.625.996.906 3.625.906h20.845q7.885 0 11.419 3.626 3.626 3.535 3.626 11.419v7.885q0 7.976-3.626 11.601-3.534 3.534-11.419 3.534zm68.327 0q-7.885 0-11.51-3.534-3.535-3.625-3.535-11.601v-3.625q0-1.088.454-1.541.453-.453 1.54-.453h13.051q1.088 0 1.541.453.543.453.543 1.541v1.722q0 2.628.907 3.625.997.906 3.625.906h14.682q2.628 0 3.535-.906.997-.997.997-3.625v-4.713q0-2.628-.997-3.535-.907-.996-3.535-.997h-20.845q-7.884 0-11.51-3.534-3.534-3.626-3.534-11.51v-7.976q0-7.885 3.534-11.419 3.626-3.625 11.51-3.625h26.645q7.885 0 11.42 3.625 3.625 3.534 3.625 11.419v3.626q0 1.087-.453 1.54t-1.541.453h-13.051q-1.087 0-1.54-.453t-.453-1.54v-1.722q0-2.63-.997-3.535-.907-.997-3.535-.997h-13.866q-2.629 0-3.626.997-.906.906-.906 3.535v4.803q0 2.629.906 3.625.997.906 3.626.906h20.845q7.885 0 11.419 3.626 3.625 3.535 3.625 11.419v7.885q0 7.976-3.625 11.601-3.534 3.534-11.419 3.534z" fill="#202020"/></svg>