<svg width="366" height="366" viewBox="0 0 366 366" fill="none" xmlns="http://www.w3.org/2000/svg"><path d="M183.476 1.272c100.496 0 181.964 81.469 181.964 181.965s-81.468 181.965-181.964 181.965c-100.497 0-181.965-81.468-181.965-181.965C1.51 82.741 82.979 1.273 183.476 1.272" fill="#1C222F"/><path d="M183.476 1.272c100.496 0 181.964 81.469 181.964 181.965s-81.468 181.965-181.964 181.965c-100.497 0-181.965-81.468-181.965-181.965C1.51 82.741 82.979 1.273 183.476 1.272Z" stroke="#EAE7E0" stroke-width="1.049"/><g clip-path="url(#a)"><path d="M250.874 193.627c-6.531.038-12.184 1.605-16.927 3.94-1.751-3.467-3.502-6.494-3.794-8.756-.329-2.626-.729-4.231-.329-7.369s2.226-7.588 2.226-7.953c-.035-.329-.402-1.934-4.158-1.97-3.757-.035-7.005.73-7.37 1.717a42 42 0 0 0-1.57 5.583c-.656 3.429-7.515 15.578-11.42 21.964-1.278-2.481-2.372-4.67-2.591-6.421-.33-2.626-.73-4.232-.33-7.369s2.227-7.588 2.227-7.953c-.035-.329-.403-1.935-4.159-1.97s-7.004.73-7.369 1.716c-.365.987-.768 3.322-1.57 5.583-.768 2.262-9.888 22.548-12.258 27.837-1.205 2.699-2.261 4.853-3.029 6.312s-.035.111-.108.257l-1.021 1.935v.035c-.511.913-1.06 1.789-1.314 1.789-.181 0-.548-2.446.073-5.802 1.351-7.042 4.635-18.024 4.597-18.424 0-.181.621-2.116-2.116-3.102-2.665-.987-3.613.656-3.832.656s-.403.584-.403.584 2.957-12.368-5.656-12.368c-5.399 0-12.841 5.874-16.527 11.236l-18.608 10.179-.403-.438c-10.427-11.136-29.727-19.016-28.924-33.973.291-5.437 2.188-19.776 37.064-37.14 28.566-14.228 51.443-10.326 55.421-1.644 5.656 12.404-12.222 35.46-41.92 38.787-11.309 1.278-17.257-3.103-18.754-4.743-1.57-1.716-1.789-1.789-2.373-1.459-.949.511-.365 2.043 0 2.956.875 2.3 4.524 6.386 10.725 8.429 5.437 1.789 18.716 2.772 34.771-3.429 17.986-6.97 32.033-26.304 27.909-42.464-4.197-16.454-31.484-21.853-57.281-12.695-15.356 5.466-31.962 14-43.928 25.201-14.257 13.279-16.519 24.882-15.573 29.698 3.321 17.184 26.996 28.385 36.481 36.667l-1.314.73c-4.742 2.335-22.801 11.785-27.325 21.78-5.107 11.309.802 19.446 4.742 20.54 12.185 3.394 24.661-2.699 31.412-12.733 6.712-10.033 5.91-23.056 2.81-29.003l-.111-.219 3.721-2.189a217 217 0 0 1 6.859-3.867c-1.168 3.175-2.008 6.931-2.446 12.403-.511 6.421 2.116 14.739 5.583 18.025 1.532 1.424 3.356 1.459 4.489 1.459 4.012 0 5.836-3.321 7.844-7.296 2.481-4.854 4.67-10.472 4.67-10.472s-2.738 15.214 4.742 15.214c2.738 0 5.472-3.54 6.713-5.364v.035s.073-.111.219-.365c.291-.437.437-.694.437-.694v-.073c1.095-1.897 3.54-6.24 7.189-13.425 4.707-9.266 9.231-20.867 9.231-20.867s.437 2.846 1.789 7.515c.802 2.773 2.553 5.802 3.904 8.755l-1.751 2.408.035.038a103 103 0 0 1-2.883 3.648c-3.721 4.451-8.172 9.523-8.755 10.982-.695 1.716-.549 2.992.802 4.013.987.73 2.738.876 4.597.73 3.356-.219 5.691-1.06 6.858-1.57a23.8 23.8 0 0 0 5.91-3.103c3.648-2.699 5.875-6.531 5.656-11.638-.111-2.811-1.021-5.583-2.154-8.21l.987-1.459c5.764-8.429 10.214-17.695 10.214-17.695s.438 2.846 1.789 7.515c.695 2.373 2.081 4.961 3.321 7.515-5.399 4.416-8.793 9.523-9.96 12.879-2.154 6.202-.476 9.012 2.699 9.669 1.424.292 3.467-.365 5-1.021 1.897-.622 4.196-1.678 6.312-3.249 3.648-2.699 7.15-6.458 6.969-11.527-.11-2.335-.729-4.635-1.57-6.824 4.597-1.897 10.545-2.991 18.095-2.081 16.235 1.897 19.445 12.039 18.824 16.271-.622 4.231-4.013 6.566-5.146 7.296-1.132.694-1.497.948-1.386 1.459.146.768.657.73 1.643.584 1.352-.219 8.537-3.467 8.829-11.274.437-10.034-9.086-20.978-25.975-20.867zm-125.213 42.215c-5.364 5.875-12.914 8.099-16.124 6.202-3.467-2.008-2.116-10.653 4.488-16.892 4.013-3.794 9.231-7.296 12.661-9.45l3.321-2.008c.219-.146.365-.219.365-.219.256-.146.548-.33.84-.511 2.446 8.902.111 16.709-5.545 22.875zm39.224-26.669c-1.862 4.562-5.802 16.271-8.172 15.614-2.042-.549-3.283-9.412-.402-18.17 1.459-4.416 4.561-9.669 6.385-11.712 2.957-3.283 6.167-4.378 6.97-3.029.948 1.751-3.614 14.449-4.781 17.297m32.36 15.468c-.803.403-1.532.695-1.862.476-.257-.146.33-.695.33-.695s4.051-4.342 5.656-6.347l3.175-4.051v.438c0 5.253-5.034 8.755-7.296 10.179zm24.953-5.691c-.584-.438-.511-1.789 1.459-6.021.767-1.678 2.518-4.488 5.545-7.15.365 1.095.584 2.154.549 3.138-.038 6.566-4.708 9.012-7.553 10.033" fill="#CF649A"/></g><defs><clipPath id="a"><path fill="#fff" d="M90.085 89.847h186.781v186.781H90.085z"/></clipPath></defs></svg>