<svg width="366" height="366" viewBox="0 0 366 366" fill="none" xmlns="http://www.w3.org/2000/svg"><path d="M182.642 1.034c100.496 0 181.964 81.469 181.964 181.965s-81.468 181.965-181.964 181.965C82.145 364.964.677 283.495.677 182.999S82.145 1.034 182.642 1.034" fill="#EAE7E0"/><path d="M182.642 1.034c100.496 0 181.964 81.469 181.964 181.965s-81.468 181.965-181.964 181.965C82.145 364.964.677 283.495.677 182.999S82.145 1.034 182.642 1.034Z" stroke="#1C222F" stroke-width="1.049"/><g clip-path="url(#a)"><path d="M250.047 193.386c-6.531.038-12.184 1.605-16.927 3.94-1.751-3.467-3.502-6.494-3.794-8.755-.33-2.627-.729-4.232-.33-7.369.4-3.138 2.227-7.588 2.227-7.953-.035-.33-.403-1.935-4.159-1.97s-7.004.729-7.369 1.716a42 42 0 0 0-1.57 5.583c-.657 3.429-7.515 15.579-11.42 21.964-1.278-2.481-2.372-4.669-2.591-6.421-.33-2.626-.73-4.231-.33-7.369s2.227-7.588 2.227-7.952c-.035-.33-.403-1.935-4.159-1.97s-7.004.729-7.369 1.716c-.365.986-.768 3.321-1.57 5.583-.768 2.262-9.888 22.548-12.258 27.836-1.205 2.699-2.262 4.853-3.029 6.312-.768 1.46-.035.111-.108.257l-1.022 1.935v.035c-.51.914-1.059 1.789-1.313 1.789-.181 0-.549-2.445.073-5.802 1.351-7.042 4.635-18.024 4.597-18.424 0-.181.621-2.116-2.116-3.102-2.665-.987-3.613.657-3.832.657s-.403.583-.403.583 2.956-12.368-5.656-12.368c-5.399 0-12.841 5.875-16.527 11.236l-18.608 10.179-.403-.437c-10.427-11.137-29.727-19.017-28.925-33.974.292-5.437 2.189-19.775 37.065-37.14 28.565-14.228 51.443-10.326 55.421-1.643 5.656 12.403-12.222 35.459-41.921 38.786-11.309 1.278-17.256-3.102-18.753-4.743-1.571-1.716-1.79-1.789-2.373-1.459-.949.511-.365 2.043 0 2.957.875 2.299 4.523 6.385 10.725 8.428 5.437 1.789 18.716 2.773 34.771-3.429 17.986-6.969 32.032-26.304 27.909-42.464-4.197-16.454-31.485-21.853-57.281-12.695-15.357 5.466-31.963 14-43.928 25.201-14.257 13.279-16.519 24.883-15.573 29.698 3.321 17.184 26.996 28.385 36.481 36.668l-1.314.729c-4.742 2.335-22.802 11.785-27.325 21.781-5.108 11.309.802 19.445 4.742 20.54 12.185 3.394 24.661-2.7 31.412-12.734 6.712-10.033 5.909-23.055 2.81-29.003l-.111-.219 3.721-2.189a221 221 0 0 1 6.858-3.867c-1.167 3.175-2.007 6.932-2.445 12.404-.511 6.42 2.116 14.738 5.583 18.024 1.532 1.424 3.356 1.459 4.488 1.459 4.013 0 5.837-3.321 7.845-7.296 2.481-4.853 4.67-10.471 4.67-10.471s-2.738 15.214 4.742 15.214c2.738 0 5.472-3.541 6.713-5.365v.035s.073-.11.218-.364c.292-.438.438-.695.438-.695v-.073c1.095-1.897 3.54-6.24 7.188-13.425 4.708-9.266 9.231-20.867 9.231-20.867s.438 2.846 1.789 7.515c.803 2.773 2.554 5.802 3.905 8.756l-1.751 2.407.035.038a104 104 0 0 1-2.883 3.648c-3.721 4.451-8.172 9.523-8.755 10.983-.695 1.716-.549 2.991.802 4.012.987.73 2.738.876 4.597.73 3.356-.219 5.691-1.059 6.858-1.57a23.8 23.8 0 0 0 5.91-3.102c3.648-2.7 5.875-6.532 5.656-11.639-.111-2.811-1.022-5.583-2.154-8.21l.986-1.459c5.764-8.429 10.215-17.695 10.215-17.695s.438 2.846 1.789 7.515c.695 2.373 2.081 4.962 3.321 7.515-5.399 4.416-8.793 9.523-9.96 12.88-2.154 6.201-.476 9.012 2.699 9.668 1.424.292 3.467-.364 4.999-1.021 1.897-.622 4.197-1.678 6.313-3.248 3.648-2.7 7.15-6.459 6.969-11.528-.111-2.335-.729-4.635-1.57-6.824 4.597-1.897 10.544-2.991 18.095-2.08 16.235 1.897 19.445 12.038 18.824 16.27-.622 4.232-4.013 6.566-5.146 7.296-1.132.695-1.497.949-1.386 1.459.146.768.657.73 1.643.584 1.351-.219 8.537-3.467 8.828-11.274.438-10.034-9.085-20.978-25.974-20.867zm-125.213 42.215c-5.364 5.875-12.914 8.099-16.124 6.202-3.468-2.008-2.116-10.652 4.488-16.892 4.013-3.794 9.231-7.296 12.66-9.45l3.322-2.008c.218-.146.364-.219.364-.219.257-.146.549-.329.841-.51 2.446 8.901.111 16.708-5.545 22.874zm39.224-26.668c-1.862 4.561-5.802 16.27-8.172 15.613-2.043-.548-3.283-9.412-.402-18.17 1.459-4.416 4.561-9.669 6.385-11.712 2.957-3.283 6.167-4.377 6.969-3.029.949 1.751-3.613 14.449-4.78 17.298m32.36 15.467c-.803.403-1.532.695-1.862.476-.257-.146.33-.694.33-.694s4.05-4.343 5.656-6.348l3.175-4.051v.438c0 5.253-5.035 8.755-7.296 10.179zm24.952-5.691c-.583-.437-.51-1.789 1.46-6.02.767-1.678 2.518-4.489 5.545-7.151.365 1.095.583 2.154.548 3.138-.038 6.566-4.707 9.012-7.553 10.033" fill="#CF649A"/></g><defs><clipPath id="a"><path fill="#fff" d="M89.252 89.609h186.781v186.78H89.252z"/></clipPath></defs></svg>