<svg width="285" height="286" viewBox="0 0 285 286" fill="none" xmlns="http://www.w3.org/2000/svg"><rect x=".577" y=".792" width="283.848" height="283.848" rx="141.924" fill="#fff"/><rect x=".577" y=".792" width="283.848" height="283.848" rx="141.924" stroke="#ECE9E1" stroke-width=".818"/><g clip-path="url(#a)"><path d="M195.068 150.813c-5.094.03-9.503 1.252-13.202 3.073-1.366-2.704-2.732-5.064-2.959-6.828-.257-2.049-.569-3.301-.257-5.748s1.736-5.918 1.736-6.203c-.027-.257-.314-1.509-3.243-1.536-2.93-.027-5.463.569-5.748 1.338a33 33 0 0 0-1.225 4.355c-.512 2.674-5.861 12.15-8.906 17.131-.997-1.935-1.851-3.642-2.022-5.008-.257-2.049-.569-3.3-.257-5.747s1.737-5.919 1.737-6.203c-.028-.257-.314-1.509-3.244-1.537-2.929-.027-5.463.569-5.747 1.339-.285.769-.599 2.59-1.225 4.354-.599 1.764-7.712 17.587-9.56 21.711a88 88 0 0 1-2.363 4.924c-.599 1.138-.027.086-.084.2l-.797 1.509v.027c-.398.713-.826 1.396-1.024 1.396-.141 0-.428-1.908.057-4.525 1.054-5.493 3.614-14.059 3.585-14.37 0-.142.485-1.651-1.651-2.42-2.078-.769-2.818.512-2.988.512-.171 0-.314.455-.314.455s2.305-9.646-4.412-9.646c-4.211 0-10.015 4.582-12.89 8.763l-14.514 7.94-.314-.342c-8.133-8.686-23.185-14.832-22.56-26.498.228-4.24 1.708-15.423 28.909-28.967 22.28-11.097 40.123-8.053 43.226-1.282 4.411 9.674-9.533 27.657-32.696 30.252-8.821.997-13.46-2.42-14.627-3.699-1.225-1.339-1.396-1.396-1.851-1.138-.74.398-.285 1.593 0 2.306.683 1.793 3.528 4.98 8.365 6.573 4.241 1.396 14.598 2.163 27.119-2.674 14.029-5.436 24.985-20.516 21.768-33.12-3.273-12.833-24.556-17.044-44.676-9.901-11.977 4.263-24.93 10.919-34.262 19.655-11.12 10.357-12.883 19.407-12.146 23.163 2.59 13.403 21.055 22.139 28.453 28.599l-1.024.569c-3.699 1.821-17.784 9.192-21.313 16.988-3.983 8.82.626 15.166 3.7 16.02 9.503 2.647 19.234-2.106 24.499-9.931 5.235-7.826 4.609-17.983 2.192-22.622l-.087-.17 2.902-1.708a173 173 0 0 1 5.349-3.016c-.91 2.477-1.566 5.406-1.907 9.674-.398 5.008 1.65 11.495 4.354 14.059 1.195 1.11 2.618 1.138 3.501 1.138 3.13 0 4.553-2.591 6.119-5.691 1.935-3.785 3.642-8.167 3.642-8.167s-2.135 11.866 3.699 11.866c2.135 0 4.268-2.761 5.235-4.184v.027s.057-.086.171-.284c.228-.341.341-.542.341-.542v-.057c.854-1.479 2.761-4.866 5.607-10.47 3.671-7.228 7.2-16.276 7.2-16.276s.341 2.22 1.395 5.862c.626 2.162 1.992 4.525 3.045 6.828l-1.365 1.878.027.03a80 80 0 0 1-2.249 2.845c-2.902 3.472-6.373 7.428-6.829 8.566-.541 1.338-.428 2.333.626 3.13.77.569 2.135.683 3.585.569 2.618-.171 4.439-.827 5.35-1.225a18.5 18.5 0 0 0 4.609-2.42c2.845-2.105 4.582-5.094 4.411-9.077-.086-2.192-.796-4.355-1.679-6.403l.769-1.138c4.495-6.574 7.967-13.801 7.967-13.801s.341 2.219 1.395 5.861c.542 1.851 1.623 3.87 2.59 5.861-4.211 3.444-6.858 7.428-7.768 10.045-1.68 4.837-.371 7.029 2.105 7.542 1.111.227 2.704-.285 3.899-.797a17.7 17.7 0 0 0 4.924-2.534c2.845-2.105 5.577-5.037 5.436-8.991-.087-1.821-.569-3.614-1.225-5.322 3.585-1.479 8.224-2.333 14.113-1.623 12.662 1.48 15.166 9.39 14.682 12.691-.485 3.3-3.13 5.121-4.013 5.69-.884.542-1.168.74-1.082 1.138.114.599.512.569 1.282.456 1.054-.171 6.658-2.705 6.885-8.794.342-7.825-7.085-16.361-20.258-16.275zm-97.66 32.926c-4.184 4.583-10.073 6.317-12.576 4.837-2.705-1.566-1.65-8.308 3.5-13.174 3.13-2.96 7.2-5.691 9.875-7.371l2.59-1.566c.171-.114.285-.171.285-.171.2-.114.428-.257.655-.398 1.908 6.942.087 13.031-4.325 17.841zm30.593-20.8c-1.453 3.558-4.525 12.69-6.374 12.178-1.593-.428-2.561-7.341-.314-14.172 1.138-3.444 3.558-7.541 4.98-9.135 2.306-2.56 4.81-3.414 5.436-2.362.74 1.365-2.818 11.269-3.728 13.491m25.239 12.064c-.626.314-1.195.542-1.452.371-.201-.114.257-.542.257-.542s3.159-3.387 4.411-4.95l2.477-3.16v.342c0 4.097-3.927 6.828-5.691 7.939zm19.462-4.439c-.456-.341-.399-1.395 1.138-4.695.598-1.309 1.964-3.501 4.325-5.577.284.853.455 1.68.428 2.447-.03 5.121-3.672 7.029-5.891 7.825" fill="#CF649A"/></g><defs><clipPath id="a"><path fill="#fff" d="M69.66 69.876h145.68v145.68H69.66z"/></clipPath></defs></svg>