<svg width="1171" height="263" viewBox="0 0 1171 263" fill="none" xmlns="http://www.w3.org/2000/svg"><rect width="1171" height="263" rx="131.5" fill="#EAE7E0"/><path d="M232.254 163.453q-7.884 0-11.51-3.534-3.534-3.625-3.534-11.601v-3.625q0-1.088.453-1.541t1.541-.453h13.05q1.088 0 1.541.453.544.453.544 1.541v1.722q0 2.628.906 3.625.997.906 3.625.906h14.682q2.63 0 3.535-.906.997-.997.997-3.625v-4.713q0-2.628-.997-3.535-.906-.996-3.535-.997h-20.845q-7.884 0-11.51-3.534-3.534-3.626-3.534-11.51v-7.976q0-7.885 3.534-11.419 3.626-3.625 11.51-3.625h26.646q7.885 0 11.419 3.625 3.625 3.534 3.625 11.419v3.626q0 1.087-.453 1.54t-1.54.453h-13.051q-1.088 0-1.541-.453t-.453-1.54v-1.722q0-2.63-.997-3.535-.906-.997-3.535-.997h-13.866q-2.629 0-3.625.997-.906.906-.907 3.535v4.803q0 2.629.907 3.625.996.906 3.625.906h20.845q7.885 0 11.419 3.626 3.626 3.535 3.626 11.419v7.885q0 7.976-3.626 11.601-3.534 3.534-11.419 3.534zm70.411 0q-8.337 0-12.325-3.897-3.897-3.987-3.897-12.326v-31.992q0-8.338 3.897-12.235 3.988-3.897 12.325-3.897h29.183q8.338 0 12.235 3.897 3.988 3.897 3.988 12.235v31.992q0 8.339-3.988 12.326-3.897 3.897-12.235 3.897zm23.655-14.319q2.719 0 3.806-1.088 1.179-1.178 1.179-3.897v-25.83q0-2.718-1.179-3.806-1.087-1.178-3.806-1.178h-18.126q-2.72 0-3.897 1.178-1.088 1.088-1.088 3.806v25.83q0 2.72 1.088 3.897 1.178 1.088 3.897 1.088zm51.133 14.319q-8.338 0-12.326-3.897-3.897-3.987-3.897-12.326v-31.992q0-8.338 3.897-12.235 3.988-3.897 12.326-3.897h26.917q8.338 0 12.235 3.897 3.988 3.897 3.988 12.235v6.253q0 2.085-2.084 2.085h-12.961q-2.084 0-2.084-2.085v-3.172q0-2.718-1.178-3.806-1.088-1.178-3.807-1.178h-15.497q-2.72 0-3.898 1.178-1.087 1.088-1.087 3.806v25.83q0 2.72 1.087 3.897 1.179 1.088 3.898 1.088h15.497q2.72 0 3.807-1.088 1.178-1.178 1.178-3.897v-3.172q0-1.088.453-1.541.544-.453 1.631-.453h12.961q1.087 0 1.54.453.544.453.544 1.541v6.253q0 8.339-3.988 12.326-3.897 3.897-12.235 3.897zm80.979-50.572v36.706h11.51q1.088 0 1.541.544.453.453.453 1.54v9.245q0 1.087-.453 1.631-.453.453-1.541.453h-39.696q-1.088 0-1.541-.453-.453-.544-.453-1.631v-9.245q0-1.087.453-1.54.453-.544 1.541-.544h11.419v-36.706h-11.419q-1.088 0-1.541-.453t-.453-1.54v-9.335q0-1.088.453-1.541t1.541-.453h39.696q1.088 0 1.541.453t.453 1.541v9.335q0 1.087-.453 1.54t-1.541.453zm81.876 47.491q.09.362.09.997 0 1.63-1.812 1.631h-11.691q-1.995 0-2.357-1.631l-2.447-9.517h-25.829l-2.448 9.517q-.272.906-.906 1.268-.543.363-1.541.363h-11.691q-1.812 0-1.812-1.631 0-.635.09-.997l15.226-59.182q.544-1.63 2.447-1.631h27.008q1.903 0 2.447 1.631zM513.3 114.15h-8.338l-4.26 17.039-1.812 6.888h20.573l-1.813-6.888zM551.576 163q-1.088 0-1.541-.453-.453-.544-.453-1.631v-59.363q0-1.088.453-1.541t1.541-.453h12.688q1.088 0 1.541.453.543.453.543 1.541v46.493h30.815q1.087 0 1.54.453t.454 1.541v10.876q0 1.087-.454 1.631-.453.453-1.54.453zm76.193 0q-1.088 0-1.541-.453-.453-.544-.453-1.631v-59.363q0-1.088.453-1.541t1.541-.453h18.216q.997 0 1.451.362.543.363 1.087 1.45l14.682 24.924h.725l14.682-24.924q.635-1.087 1.088-1.45.543-.362 1.541-.362h18.126q1.087 0 1.54.453.544.453.544 1.541v59.363q0 2.084-2.084 2.084h-12.326q-2.085 0-2.085-2.084v-39.153h-.725l-13.05 21.48q-.635 1.087-1.179 1.45-.453.362-1.45.362h-9.878q-.998 0-1.541-.362-.544-.363-1.178-1.45l-12.96-21.48h-.816v39.153q0 1.087-.453 1.631-.453.453-1.541.453zm135.806-13.866q1.088 0 1.541.543.453.453.453 1.541v9.698q0 1.087-.453 1.631-.453.453-1.541.453h-46.493q-1.088 0-1.541-.453-.453-.544-.453-1.631v-59.363q0-1.088.453-1.541t1.541-.453h45.587q1.088 0 1.541.453t.453 1.541v9.788q0 1.087-.453 1.54t-1.541.454h-30.814v11.147h28.095q1.088 0 1.541.453t.453 1.541v9.063q0 1.088-.453 1.631-.453.453-1.541.454h-28.095v11.51zM778.948 163q-1.088 0-1.541-.453-.453-.544-.453-1.631v-59.363q0-1.088.453-1.541t1.541-.453h41.236q8.338 0 12.236 3.897 3.987 3.897 3.987 12.235v31.086q0 8.338-3.987 12.326Q828.522 163 820.184 163zm35.708-14.32q2.719 0 3.806-1.087 1.179-1.179 1.179-3.897v-24.924q0-2.718-1.179-3.806-1.087-1.178-3.806-1.178H793.72v34.892zm60.462-35.799v36.706h11.51q1.088 0 1.541.544.453.453.453 1.54v9.245q0 1.087-.453 1.631-.453.453-1.541.453h-39.696q-1.087 0-1.54-.453-.453-.544-.453-1.631v-9.245q0-1.087.453-1.54.453-.544 1.54-.544h11.42v-36.706h-11.42q-1.087 0-1.54-.453t-.453-1.54v-9.335q0-1.088.453-1.541t1.54-.453h39.696q1.088 0 1.541.453t.453 1.541v9.335q0 1.087-.453 1.54t-1.541.453zm81.876 47.491q.091.362.091.997 0 1.63-1.813 1.631h-11.691q-1.994 0-2.356-1.631l-2.447-9.517h-25.83l-2.447 9.517q-.271.906-.906 1.268-.544.363-1.541.363h-11.691q-1.813 0-1.813-1.631 0-.635.091-.997l15.226-59.182q.543-1.63 2.447-1.631h27.007q1.904 0 2.447 1.631zm-27.007-46.222h-8.338l-4.26 17.039-1.813 6.888h20.573l-1.812-6.888z" fill="#202020"/></svg>