<svg width="942" height="264" viewBox="0 0 942 264" fill="none" xmlns="http://www.w3.org/2000/svg"><rect width="942" height="264" rx="132" fill="#202020"/><path d="M220.754 163.953q-7.884 0-11.51-3.534-3.534-3.625-3.534-11.601v-3.625q0-1.088.453-1.541t1.541-.453h13.05q1.088 0 1.541.453.544.453.544 1.541v1.722q0 2.628.906 3.625.997.906 3.625.906h14.682q2.63 0 3.535-.906.997-.997.997-3.625v-4.713q0-2.628-.997-3.535-.906-.996-3.535-.997h-20.845q-7.884 0-11.51-3.534-3.534-3.626-3.534-11.51v-7.976q0-7.885 3.534-11.419 3.626-3.625 11.51-3.625h26.646q7.885 0 11.419 3.625 3.625 3.534 3.625 11.419v3.626q0 1.087-.453 1.54t-1.54.453h-13.051q-1.088 0-1.541-.453t-.453-1.54v-1.722q0-2.63-.997-3.535-.906-.997-3.535-.997h-13.866q-2.629 0-3.625.997-.906.906-.907 3.535v4.803q0 2.629.907 3.625.996.906 3.625.906h20.845q7.885 0 11.419 3.626 3.626 3.535 3.626 11.419v7.885q0 7.976-3.626 11.601-3.534 3.534-11.419 3.534zm70.411 0q-8.337 0-12.325-3.897-3.897-3.987-3.897-12.326v-31.992q0-8.338 3.897-12.235 3.988-3.897 12.325-3.897h29.183q8.338 0 12.235 3.897 3.988 3.897 3.988 12.235v31.992q0 8.339-3.988 12.326-3.897 3.897-12.235 3.897zm23.655-14.319q2.719 0 3.806-1.088 1.179-1.178 1.179-3.897v-25.83q0-2.718-1.179-3.806-1.087-1.178-3.806-1.178h-18.126q-2.72 0-3.897 1.178-1.088 1.088-1.088 3.806v25.83q0 2.72 1.088 3.897 1.178 1.088 3.897 1.088zm51.133 14.319q-8.338 0-12.326-3.897-3.897-3.987-3.897-12.326v-31.992q0-8.338 3.897-12.235 3.988-3.897 12.326-3.897h26.917q8.338 0 12.235 3.897 3.988 3.897 3.988 12.235v6.253q0 2.085-2.084 2.085h-12.961q-2.084 0-2.084-2.085v-3.172q0-2.718-1.178-3.806-1.088-1.178-3.807-1.178h-15.497q-2.72 0-3.898 1.178-1.087 1.088-1.087 3.806v25.83q0 2.72 1.087 3.897 1.179 1.088 3.898 1.088h15.497q2.72 0 3.807-1.088 1.178-1.178 1.178-3.897v-3.172q0-1.088.453-1.541.544-.453 1.631-.453h12.961q1.087 0 1.54.453.544.453.544 1.541v6.253q0 8.339-3.988 12.326-3.897 3.897-12.235 3.897zm113.11-3.716q.726.907.725 1.632 0 .725-.634 1.178-.635.453-1.722.453h-13.595q-1.54 0-2.447-.363a5.4 5.4 0 0 1-1.631-1.268l-21.208-25.105v24.652q0 2.084-2.084 2.084h-12.688q-1.088 0-1.541-.453-.453-.544-.453-1.631v-59.363q0-1.088.453-1.541t1.541-.453h12.688q1.088 0 1.541.453.543.453.543 1.541v24.017l21.57-24.289q.816-.997 1.632-1.36.816-.362 2.175-.362h13.051q1.087 0 1.722.453.634.363.634 1.088 0 .906-.816 1.812l-24.56 27.461zm58.739-10.603q1.088 0 1.541.543.453.453.453 1.541v9.698q0 1.087-.453 1.631-.453.453-1.541.453h-46.493q-1.088 0-1.541-.453-.453-.544-.453-1.631v-59.363q0-1.088.453-1.541t1.541-.453h45.587q1.087 0 1.541.453t.453 1.541v9.788q0 1.087-.453 1.54-.454.454-1.541.454h-30.814v11.147h28.095q1.088 0 1.541.453t.453 1.541v9.063q0 1.088-.453 1.631-.453.453-1.541.454h-28.095v11.51zm62.953-49.575q1.088 0 1.541.453.544.453.544 1.541v10.875q0 2.085-2.085 2.085h-18.76v46.403q0 2.084-2.085 2.084h-12.688q-1.087 0-1.54-.453-.454-.544-.454-1.631v-46.403h-18.851q-1.087 0-1.54-.453-.454-.544-.454-1.632v-10.875q0-1.088.454-1.541.453-.453 1.54-.453zm-2.694 63.441q-1.087 0-1.54-.453-.454-.544-.454-1.631v-11.782q0-1.088.454-1.541.453-.453 1.54-.453h12.779q1.088 0 1.541.453.543.453.544 1.541v11.782q0 2.084-2.085 2.084zm52.7-50.119v36.706h11.51q1.088 0 1.541.544.453.453.453 1.54v9.245q0 1.087-.453 1.631-.453.453-1.541.453h-39.696q-1.087 0-1.54-.453-.454-.544-.454-1.631v-9.245q0-1.087.454-1.54.453-.544 1.54-.544h11.42v-36.706h-11.42q-1.087 0-1.54-.453t-.454-1.54v-9.335q0-1.088.454-1.541.453-.453 1.54-.453h39.696q1.088 0 1.541.453t.453 1.541v9.335q0 1.087-.453 1.54t-1.541.453zm38.416 50.572q-8.338 0-12.325-3.897-3.898-3.987-3.898-12.326v-31.992q0-8.338 3.898-12.235 3.987-3.897 12.325-3.897h29.183q8.338 0 12.235 3.897 3.988 3.897 3.988 12.235v31.992q0 8.339-3.988 12.326-3.897 3.897-12.235 3.897zm23.655-14.319q2.718 0 3.806-1.088 1.179-1.178 1.178-3.897v-25.83q0-2.718-1.178-3.806-1.088-1.178-3.806-1.178h-18.126q-2.72 0-3.897 1.178-1.088 1.088-1.088 3.806v25.83q0 2.72 1.088 3.897 1.177 1.088 3.897 1.088z" fill="#EAE7E0"/></svg>