<svg width="1198" height="366" viewBox="0 0 1198 366" fill="none" xmlns="http://www.w3.org/2000/svg"><path d="M182.525.798h832.895c100.49 0 181.95 81.464 181.95 181.954s-81.46 181.955-181.95 181.955H182.525C82.035 364.706.571 283.243.571 182.752.571 82.262 82.035.798 182.525.798" fill="#1C222F"/><path d="M182.525.798h832.895c100.49 0 181.95 81.464 181.95 181.954s-81.46 181.955-181.95 181.955H182.525C82.035 364.706.571 283.243.571 182.752.571 82.262 82.035.798 182.525.798Z" stroke="#EAE7E0" stroke-width="1.049"/><g clip-path="url(#a)" fill="#fff"><path d="M324.447 111.177c-27.235 21.125-53.314 43.649-79.949 65.42 12.189.152 24.461.152 36.688.068 14.286-21.923 28.975-43.557 43.261-65.488M267.06 188.71c-14.286 21.969-29.006 43.649-43.307 65.617 27.318-21.095 53.277-43.77 80.071-65.42-12.273-.152-24.538-.19-36.772-.19zM375.656 226.623v-21.12q5.742 4.818 12.474 7.26 6.732 2.376 13.595 2.376 4.026 0 6.996-.726 3.036-.726 5.016-1.98 2.046-1.32 3.036-3.036.99-1.782.99-3.828 0-2.772-1.584-4.95t-4.356-4.025q-2.706-1.848-6.468-3.564a224 224 0 0 0-8.117-3.498q-11.088-4.62-16.566-11.286-5.412-6.666-5.412-16.103 0-7.392 2.97-12.672a25.25 25.25 0 0 1 8.052-8.778q5.148-3.432 11.88-5.016 6.73-1.65 14.255-1.65 7.392 0 13.068.924 5.741.858 10.559 2.706v19.734a31.3 31.3 0 0 0-5.213-2.904 37 37 0 0 0-5.742-2.046 41 41 0 0 0-5.94-1.254 41 41 0 0 0-5.544-.396q-3.63 0-6.6.726-2.97.66-5.016 1.914t-3.167 3.036q-1.122 1.716-1.122 3.894 0 2.376 1.254 4.29 1.254 1.847 3.563 3.563 2.31 1.65 5.61 3.3 3.3 1.584 7.458 3.3 5.676 2.376 10.164 5.082 4.554 2.64 7.787 6.006a23.4 23.4 0 0 1 4.95 7.722q1.716 4.29 1.716 10.031 0 7.92-3.036 13.332-2.97 5.346-8.117 8.712-5.148 3.3-12.012 4.751-6.798 1.452-14.388 1.452-7.787 0-14.849-1.32-6.996-1.32-12.144-3.959m110.283 5.279q-16.896 0-26.597-9.437-9.636-9.504-9.636-25.74 0-16.763 10.032-26.201 10.03-9.503 27.125-9.503 16.829 0 26.399 9.503 9.57 9.438 9.57 25.014 0 16.829-9.9 26.597-9.834 9.767-26.993 9.767m.528-54.91q-7.392 0-11.484 5.082t-4.092 14.388q0 19.469 15.708 19.469 14.98 0 14.981-19.997 0-18.942-15.113-18.942m101.109 50.819q-7.062 4.09-20.394 4.091-15.575 0-25.211-9.437-9.636-9.438-9.636-24.354 0-17.225 10.296-27.125 10.361-9.965 27.653-9.965 11.946 0 17.292 3.168v17.687q-6.534-4.884-14.586-4.884-8.976 0-14.256 5.28-5.213 5.214-5.213 14.453 0 8.976 5.016 14.124 5.015 5.082 13.793 5.082 7.788 0 15.246-4.884zm81.441 2.441h-25.013l-21.582-33.527h-.263v33.527h-20.856V130.2h20.856v63.688h.263l20.13-31.217h24.749l-24.221 31.745zm66.658-27.851h-44.087q1.056 14.718 18.546 14.718 11.153 0 19.601-5.28v15.048q-9.372 5.015-24.353 5.015-16.368 0-25.409-9.041-9.042-9.108-9.042-25.344 0-16.829 9.768-26.663 9.767-9.833 24.023-9.833 14.784 0 22.835 8.777 8.118 8.778 8.118 23.826zm-19.337-12.803q0-14.52-11.748-14.52-5.016 0-8.712 4.158-3.63 4.158-4.422 10.362zm72.597 39.862q-4.62 2.442-13.925 2.442-22.044 0-22.044-22.901v-30.953h-10.955v-15.377h10.955v-14.586l20.79-5.94v20.526h15.179v15.377h-15.179v27.323q0 10.56 8.381 10.56 3.3 0 6.798-1.914zm21.12 2.442q-5.148 0-8.58-3.168-3.432-3.167-3.432-7.787 0-4.752 3.498-7.788 3.564-3.036 8.844-3.036 5.345 0 8.711 3.102 3.432 3.036 3.432 7.722 0 4.818-3.498 7.919-3.432 3.036-8.975 3.036m50.752-1.65H839.49v-94.641h21.317zm61.576 1.65q-20.328 0-33.131-13.199-12.804-13.266-12.804-34.517 0-22.44 13.002-36.299 13.001-13.86 34.451-13.86 20.262 0 32.735 13.266 12.54 13.265 12.54 34.979 0 22.307-13.002 35.969-12.936 13.661-33.791 13.661m.924-79.527q-11.22 0-17.819 8.448-6.6 8.38-6.6 22.241 0 14.058 6.6 22.241t17.291 8.184q11.022 0 17.489-7.92 6.468-7.986 6.468-22.109 0-14.718-6.27-22.901t-17.159-8.184"/></g><defs><clipPath id="a"><path fill="#fff" d="M223.753 111.177h750.436v143.15H223.753z"/></clipPath></defs></svg>