<svg width="895" height="286" viewBox="0 0 895 286" fill="none" xmlns="http://www.w3.org/2000/svg"><path d="M142.794 1.194h609.193c78.38 0 141.919 63.539 141.919 141.918S830.367 285.03 751.987 285.03H142.794C64.414 285.03.876 221.491.876 143.112S64.415 1.194 142.794 1.194" fill="#EAE7E0"/><path d="M142.794 1.194h609.193c78.38 0 141.919 63.539 141.919 141.918S830.367 285.03 751.987 285.03H142.794C64.414 285.03.876 221.491.876 143.112S64.415 1.194 142.794 1.194Z" stroke="#1C222F" stroke-width=".818"/><g clip-path="url(#a)" fill="#1C222F"><path d="M253.488 87.284c-21.243 16.478-41.585 34.046-62.36 51.027 9.508.119 19.08.119 28.617.053 11.143-17.099 22.6-33.974 33.743-51.08m-44.762 60.475c-11.143 17.135-22.624 34.046-33.779 51.181 21.308-16.454 41.556-34.14 62.455-51.027-9.573-.118-19.139-.148-28.682-.148zM289.419 177.228v-15.29q4.156 3.488 9.03 5.256 4.873 1.72 9.843 1.72 2.915 0 5.065-.525 2.198-.526 3.631-1.434 1.482-.956 2.198-2.198.717-1.29.717-2.771 0-2.007-1.147-3.584-1.146-1.576-3.153-2.914-1.959-1.338-4.683-2.58a161 161 0 0 0-5.877-2.533q-8.027-3.344-11.993-8.17-3.918-4.826-3.918-11.659 0-5.35 2.15-9.174a18.3 18.3 0 0 1 5.83-6.354q3.726-2.485 8.6-3.632 4.873-1.194 10.321-1.194 5.351 0 9.46.669 4.158.621 7.645 1.959v14.286a22.6 22.6 0 0 0-3.775-2.102 27 27 0 0 0-4.156-1.481 29.4 29.4 0 0 0-4.301-.908 30 30 0 0 0-4.013-.287q-2.628 0-4.778.526-2.15.477-3.632 1.385-1.481.908-2.293 2.198-.812 1.242-.812 2.819 0 1.72.907 3.106.909 1.338 2.581 2.58 1.671 1.195 4.061 2.389 2.389 1.147 5.399 2.389 4.11 1.72 7.358 3.679 3.297 1.911 5.638 4.348a17 17 0 0 1 3.584 5.591q1.242 3.105 1.242 7.262 0 5.734-2.198 9.652a17.7 17.7 0 0 1-5.877 6.307q-3.726 2.39-8.696 3.44-4.921 1.051-10.416 1.051-5.638 0-10.751-.955-5.065-.956-8.791-2.867m79.841 3.822q-12.231 0-19.255-6.832-6.976-6.88-6.976-18.635 0-12.135 7.262-18.969 7.263-6.88 19.638-6.88 12.185 0 19.113 6.88 6.928 6.834 6.928 18.109 0 12.185-7.167 19.256-7.12 7.071-19.543 7.071m.383-39.753q-5.352 0-8.314 3.679-2.963 3.68-2.963 10.416 0 14.096 11.372 14.096 10.846 0 10.846-14.478 0-13.713-10.941-13.713m73.2 36.791q-5.113 2.962-14.765 2.962-11.275 0-18.252-6.832-6.976-6.833-6.976-17.631 0-12.471 7.454-19.638 7.501-7.215 20.02-7.215 8.648 0 12.519 2.293v12.806q-4.731-3.536-10.56-3.536-6.498 0-10.321 3.822-3.774 3.775-3.774 10.464 0 6.499 3.631 10.225 3.632 3.68 9.986 3.68 5.638 0 11.038-3.536zm58.961 1.768h-18.109l-15.624-24.273h-.191v24.273h-15.099V107.42h15.099v46.109h.191l14.573-22.6h17.918l-17.536 22.982zm48.258-20.163h-31.917q.765 10.655 13.426 10.655 8.076 0 14.191-3.823v10.894q-6.784 3.631-17.631 3.631-11.85 0-18.395-6.545-6.546-6.594-6.546-18.348 0-12.184 7.071-19.304t17.392-7.119q10.703 0 16.532 6.355 5.877 6.354 5.877 17.249zm-13.999-9.27q0-10.512-8.505-10.512-3.632 0-6.307 3.01-2.628 3.01-3.202 7.502zm52.558 28.86q-3.344 1.767-10.081 1.767-15.959 0-15.959-16.579v-22.41h-7.932v-11.132h7.932v-10.56l15.051-4.3v14.86h10.989v11.132h-10.989v19.782q0 7.645 6.068 7.645 2.39 0 4.921-1.386zm15.29 1.767q-3.726 0-6.211-2.293t-2.485-5.638q0-3.44 2.533-5.638 2.58-2.199 6.402-2.198 3.87 0 6.307 2.246 2.485 2.197 2.485 5.59 0 3.487-2.533 5.734-2.484 2.197-6.498 2.197m36.744-1.194h-15.434v-68.518h15.434zm44.579 1.194q-14.716 0-23.986-9.556-9.27-9.603-9.269-24.989 0-16.245 9.412-26.279 9.413-10.035 24.942-10.034 14.669 0 23.699 9.604 9.078 9.604 9.078 25.323 0 16.15-9.412 26.041-9.365 9.89-24.464 9.89m.669-57.575q-8.123 0-12.901 6.116-4.778 6.067-4.778 16.102 0 10.177 4.778 16.102t12.519 5.925q7.979 0 12.662-5.734 4.682-5.781 4.682-16.007 0-10.655-4.539-16.579t-12.423-5.925"/></g><defs><clipPath id="a"><path fill="#fff" d="M174.947 87.284h544.888V198.94H174.947z"/></clipPath></defs></svg>