<svg width="895" height="286" viewBox="0 0 895 286" fill="none" xmlns="http://www.w3.org/2000/svg"><path d="M142.687 1.194H751.88c78.379 0 141.919 63.539 141.919 141.918S830.259 285.03 751.88 285.03H142.687C64.307 285.03.769 221.491.769 143.112S64.307 1.194 142.687 1.194" fill="#fff"/><path d="M142.687 1.194H751.88c78.379 0 141.919 63.539 141.919 141.918S830.259 285.03 751.88 285.03H142.687C64.307 285.03.769 221.491.769 143.112S64.307 1.194 142.687 1.194Z" stroke="#ECE9E1" stroke-width=".818"/><g clip-path="url(#a)" fill="#1C222F"><path d="M253.381 87.284c-21.243 16.478-41.585 34.046-62.36 51.027 9.507.119 19.079.119 28.616.053 11.143-17.099 22.601-33.974 33.744-51.08m-44.762 60.475c-11.143 17.135-22.624 34.046-33.779 51.181 21.308-16.454 41.555-34.14 62.454-51.027-9.572-.118-19.139-.148-28.681-.148zM289.311 177.228v-15.29q4.158 3.488 9.031 5.256 4.873 1.72 9.843 1.72 2.914 0 5.065-.525 2.197-.526 3.631-1.434 1.48-.956 2.198-2.198.716-1.29.716-2.771 0-2.007-1.146-3.584-1.147-1.576-3.154-2.914-1.96-1.338-4.682-2.58a161 161 0 0 0-5.877-2.533q-8.027-3.344-11.993-8.17-3.918-4.826-3.918-11.659 0-5.35 2.15-9.174a18.3 18.3 0 0 1 5.829-6.354q3.727-2.485 8.601-3.632 4.874-1.194 10.32-1.194 5.352 0 9.461.669 4.156.621 7.645 1.959v14.286a22.6 22.6 0 0 0-3.775-2.102 27 27 0 0 0-4.157-1.481 29.4 29.4 0 0 0-4.3-.908 30 30 0 0 0-4.014-.287q-2.627 0-4.778.526-2.15.477-3.631 1.385t-2.294 2.198q-.812 1.242-.812 2.819 0 1.72.908 3.106.907 1.338 2.58 2.58 1.672 1.195 4.062 2.389 2.388 1.147 5.399 2.389 4.109 1.72 7.358 3.679 3.297 1.911 5.638 4.348a17 17 0 0 1 3.584 5.591q1.242 3.105 1.242 7.262 0 5.734-2.198 9.652a17.7 17.7 0 0 1-5.877 6.307q-3.727 2.39-8.696 3.44-4.922 1.051-10.416 1.051-5.639 0-10.751-.955-5.064-.956-8.792-2.867m79.842 3.822q-12.232 0-19.256-6.832-6.976-6.88-6.976-18.635 0-12.135 7.263-18.969 7.263-6.88 19.638-6.88 12.184 0 19.112 6.88 6.928 6.834 6.928 18.109 0 12.185-7.167 19.256-7.119 7.071-19.542 7.071m.382-39.753q-5.351 0-8.314 3.679-2.962 3.68-2.962 10.416 0 14.096 11.372 14.096 10.846 0 10.846-14.478 0-13.713-10.942-13.713m73.2 36.791q-5.112 2.962-14.764 2.962-11.277 0-18.252-6.832-6.976-6.833-6.976-17.631 0-12.471 7.454-19.638 7.501-7.215 20.02-7.215 8.648 0 12.518 2.293v12.806q-4.73-3.536-10.559-3.536-6.499 0-10.321 3.822-3.774 3.775-3.775 10.464 0 6.499 3.632 10.225 3.631 3.68 9.986 3.68 5.639 0 11.037-3.536zm58.962 1.768h-18.109l-15.625-24.273h-.191v24.273h-15.098V107.42h15.098v46.109h.191l14.573-22.6h17.918l-17.535 22.982zm48.258-20.163h-31.917q.764 10.655 13.426 10.655 8.074 0 14.191-3.823v10.894q-6.785 3.631-17.631 3.631-11.85 0-18.396-6.545-6.546-6.594-6.546-18.348 0-12.184 7.072-19.304 7.07-7.119 17.392-7.119 10.703 0 16.532 6.355 5.877 6.354 5.877 17.249zm-14-9.27q0-10.512-8.505-10.512-3.631 0-6.307 3.01-2.628 3.01-3.201 7.502zm52.559 28.86q-3.345 1.767-10.082 1.767-15.958 0-15.958-16.579v-22.41h-7.932v-11.132h7.932v-10.56l15.05-4.3v14.86h10.99v11.132h-10.99v19.782q0 7.645 6.069 7.645 2.388 0 4.921-1.386zm15.29 1.767q-3.727 0-6.212-2.293t-2.484-5.638q0-3.44 2.532-5.638 2.58-2.199 6.403-2.198 3.87 0 6.307 2.246 2.484 2.197 2.484 5.59 0 3.487-2.532 5.734-2.484 2.197-6.498 2.197m36.743-1.194h-15.433v-68.518h15.433zm44.58 1.194q-14.717 0-23.986-9.556-9.27-9.603-9.27-24.989 0-16.245 9.413-26.279 9.413-10.035 24.941-10.034 14.67 0 23.7 9.604 9.078 9.604 9.078 25.323 0 16.15-9.413 26.041-9.365 9.89-24.463 9.89m.668-57.575q-8.123 0-12.9 6.116-4.779 6.067-4.778 16.102 0 10.177 4.778 16.102t12.518 5.925q7.98 0 12.662-5.734 4.683-5.781 4.683-16.007 0-10.655-4.54-16.579-4.539-5.925-12.423-5.925"/></g><defs><clipPath id="a"><path fill="#fff" d="M174.84 87.284h544.888V198.94H174.84z"/></clipPath></defs></svg>