<svg width="895" height="262" viewBox="0 0 895 262" fill="none" xmlns="http://www.w3.org/2000/svg"><rect width="895" height="262" rx="131" fill="#EAE7E0"/><path d="M218.754 162.953q-7.884 0-11.51-3.534-3.534-3.625-3.534-11.601v-3.625q0-1.088.453-1.541t1.541-.453h13.05q1.088 0 1.541.453.544.453.544 1.541v1.722q0 2.628.906 3.625.997.906 3.625.906h14.682q2.63 0 3.535-.906.997-.997.997-3.625v-4.713q0-2.628-.997-3.535-.906-.996-3.535-.997h-20.845q-7.884 0-11.51-3.534-3.534-3.626-3.534-11.51v-7.976q0-7.885 3.534-11.419 3.626-3.625 11.51-3.625h26.646q7.885 0 11.419 3.625 3.625 3.534 3.625 11.419v3.626q0 1.087-.453 1.54t-1.54.453h-13.051q-1.088 0-1.541-.453t-.453-1.54v-1.722q0-2.63-.997-3.535-.906-.997-3.535-.997h-13.866q-2.629 0-3.625.997-.906.906-.907 3.535v4.803q0 2.629.907 3.625.996.906 3.625.906h20.845q7.884 0 11.419 3.626 3.626 3.535 3.626 11.419v7.885q0 7.976-3.626 11.601-3.535 3.534-11.419 3.534zm63.635-.453q-.996 0-1.54-.453-.545-.453-.816-1.45l-14.229-59.635q-.181-.543-.181-.816 0-1.087 1.812-1.087h13.414q1.088 0 1.631.362.544.363.725 1.45l3.263 15.951 4.984 25.377h.816l9.698-41.328q.18-.996.725-1.359.543-.453 1.631-.453h12.507q1.088 0 1.631.453.544.363.725 1.359l9.698 41.328h.815l4.985-25.377 3.353-15.86q.182-1.087.635-1.45.543-.453 1.631-.453h13.504q1.632 0 1.631 1.178 0 .544-.09.816l-14.229 59.544q-.272.996-.816 1.45t-1.541.453h-16.766q-1.088 0-1.631-.453-.545-.453-.726-1.45l-8.7-36.524h-.725l-8.701 36.524q-.18.996-.725 1.45-.543.453-1.631.453zm136.087-2.628q.091.362.091.997 0 1.63-1.813 1.631h-11.691q-1.994 0-2.356-1.631l-2.447-9.517h-25.83l-2.447 9.517q-.272.906-.906 1.268-.544.363-1.541.363h-11.691q-1.813 0-1.813-1.631 0-.635.091-.997l15.226-59.182q.543-1.63 2.447-1.631h27.007q1.904 0 2.448 1.631zm-27.007-46.222h-8.338l-4.26 17.039-1.813 6.888h20.573l-1.812-6.888zm50.281 49.303q-8.338 0-12.326-3.897-3.897-3.987-3.897-12.326v-31.992q0-8.338 3.897-12.235 3.988-3.897 12.326-3.897h27.823q8.338 0 12.235 3.897 3.988 3.897 3.988 12.235v4.26q0 1.087-.544 1.54-.453.453-1.54.453h-12.96q-1.088 0-1.632-.453-.453-.453-.453-1.54v-2.085q0-2.719-1.178-3.806-1.088-1.179-3.807-1.179h-16.404q-2.718 0-3.897 1.179-1.087 1.087-1.087 3.806v27.642q0 2.72 1.087 3.897 1.179 1.088 3.897 1.088h17.22q2.72 0 3.807-1.088 1.178-1.178 1.178-3.897v-4.531h-13.504q-1.088 0-1.541-.453-.453-.454-.453-1.541v-7.976q0-1.087.453-1.54t1.541-.453h28.186q1.087 0 1.541.453.543.453.543 1.54v16.676q0 8.339-3.987 12.326-3.898 3.897-12.235 3.897zm73.194 0q-8.337 0-12.325-3.897-3.897-3.987-3.897-12.326v-31.992q0-8.338 3.897-12.235 3.988-3.897 12.325-3.897h27.824q8.338 0 12.235 3.897 3.988 3.897 3.988 12.235v4.26q0 1.087-.544 1.54-.453.453-1.541.453h-12.96q-1.088 0-1.631-.453-.453-.453-.453-1.54v-2.085q0-2.719-1.179-3.806-1.087-1.179-3.806-1.179h-16.404q-2.72 0-3.897 1.179-1.088 1.087-1.088 3.806v27.642q0 2.72 1.088 3.897 1.178 1.088 3.897 1.088h17.22q2.718 0 3.806-1.088 1.178-1.178 1.178-3.897v-4.531h-13.504q-1.087 0-1.54-.453-.453-.454-.453-1.541v-7.976q0-1.087.453-1.54t1.54-.453h28.186q1.088 0 1.541.453.544.453.544 1.54v16.676q0 8.339-3.988 12.326-3.897 3.897-12.235 3.897zm105.912-14.319q1.088 0 1.541.543.453.453.453 1.541v9.698q0 1.087-.453 1.631-.453.453-1.541.453h-46.493q-1.087 0-1.541-.453-.453-.544-.453-1.631v-59.363q0-1.088.453-1.541.454-.453 1.541-.453h45.587q1.088 0 1.541.453t.453 1.541v9.788q0 1.087-.453 1.54t-1.541.454h-30.814v11.147h28.095q1.088 0 1.541.453t.453 1.541v9.063q0 1.088-.453 1.631-.453.453-1.541.454h-28.095v11.51zm70.295 10.785q.634.815.634 1.45 0 .725-.544 1.178-.453.453-1.359.453h-14.863q-1.088 0-1.813-.272-.635-.363-1.269-1.269l-19.032-23.835h-1.903v23.292q0 2.084-2.085 2.084h-12.688q-1.088 0-1.541-.453-.453-.544-.453-1.631v-59.363q0-1.088.453-1.541t1.541-.453h39.605q7.885 0 11.42 3.625 3.625 3.535 3.625 11.419v8.792q0 7.884-3.535 11.51-3.534 3.625-11.238 3.625h-2.9zm-40.149-47.038v13.142h18.579q2.628 0 3.534-.906.997-.997.997-3.626v-4.078q0-2.628-.997-3.535-.906-.996-3.534-.997z" fill="#202020"/></svg>