<svg width="1053" height="283" viewBox="0 0 1053 283" fill="none" xmlns="http://www.w3.org/2000/svg"><path d="M141.425.619h769.512c77.821 0 140.903 63.086 140.903 140.908s-63.082 140.908-140.903 140.908H141.425C63.603 282.435.517 219.348.517 141.527.517 63.705 63.603.619 141.425.619" fill="#EAE7E0"/><path d="M141.425.619h769.512c77.821 0 140.903 63.086 140.903 140.908s-63.082 140.908-140.903 140.908H141.425C63.603 282.435.517 219.348.517 141.527.517 63.705 63.603.619 141.425.619Z" stroke="#1C222F" stroke-width=".818"/><path d="M265.958 86.709c-24.37 0-39.594 12.182-45.693 36.547 9.141-12.177 19.797-16.75 31.98-13.703 6.95 1.733 11.921 6.774 17.414 12.358 8.96 9.093 19.329 19.616 41.977 19.616 24.364 0 39.588-12.182 45.682-36.542-9.135 12.177-19.797 16.75-31.974 13.698-6.955-1.733-11.927-6.774-17.42-12.358-8.96-9.087-19.329-19.616-41.966-19.616m-45.693 54.818c-24.354 0-39.589 12.182-45.677 36.547 9.135-12.182 19.797-16.75 31.974-13.703 6.955 1.733 11.927 6.774 17.42 12.358 8.96 9.093 19.329 19.616 41.976 19.616 24.365 0 39.589-12.177 45.678-36.542-9.136 12.177-19.792 16.75-31.974 13.703-6.95-1.738-11.922-6.785-17.421-12.363-8.954-9.093-19.329-19.616-41.976-19.616" fill="#06B6D4"/><path d="M423.254 137.941h-11.882v22.983c0 6.131 4.024 6.036 11.882 5.651v9.292c-15.902 1.913-22.223-2.491-22.223-14.943v-22.983h-8.816v-9.965h8.812v-12.86l10.345-3.065v15.925h11.874v9.965zm45.269-9.965h10.337v47.891h-10.337v-6.895c-3.644 5.069-9.292 8.139-16.765 8.139-13.023 0-23.847-11.011-23.847-25.19 0-14.269 10.824-25.189 23.847-25.189 7.469 0 13.121 3.066 16.765 8.048zm-15.133 39.269c8.618 0 15.129-6.416 15.129-15.328 0-8.903-6.511-15.319-15.129-15.319-8.623 0-15.134 6.416-15.134 15.323s6.511 15.328 15.13 15.328zm42.71-46.446a6.68 6.68 0 0 1-4.651-1.958 6.68 6.68 0 0 1-1.955-4.652 6.66 6.66 0 0 1 1.945-4.673 6.577 6.577 0 0 1 9.323 0 6.64 6.64 0 0 1 1.944 4.673c0 3.545-2.97 6.61-6.606 6.61m-5.172 55.072v-47.895h10.345v47.891zm22.317 0v-69.928h10.341v69.92h-10.337zm77.489-47.895h10.919l-15.038 47.891h-10.151l-9.965-32.279-10.056 32.279h-10.151l-15.038-47.891h10.919l9.292 33.043 10.059-33.043h9.862l9.957 33.043zm23.747-7.177c-3.644 0-6.61-3.065-6.61-6.61a6.66 6.66 0 0 1 1.948-4.673 6.58 6.58 0 0 1 9.324 0 6.65 6.65 0 0 1 1.948 4.673c0 3.545-2.97 6.61-6.61 6.61m-5.172 55.072v-47.895h10.345v47.891zm47.51-49.139c10.726 0 18.389 7.28 18.389 19.732v29.399h-10.345v-28.35c0-7.279-4.214-11.105-10.725-11.105-6.8 0-12.163 4.02-12.163 13.791v25.664H631.63v-47.879h10.345v6.123c3.161-4.979 8.329-7.375 14.844-7.375m67.425-17.909h10.345v67.04h-10.345v-6.895c-3.636 5.077-9.288 8.139-16.757 8.139-13.027 0-23.851-11.011-23.851-25.19 0-14.269 10.824-25.189 23.851-25.189 7.469 0 13.121 3.066 16.757 8.048zm-15.133 58.422c8.622 0 15.133-6.416 15.133-15.328 0-8.903-6.511-15.319-15.133-15.319-8.619 0-15.13 6.416-15.13 15.323s6.511 15.324 15.13 15.324m60.148 9.862c-14.46 0-25.284-11.011-25.284-25.19 0-14.265 10.824-25.185 25.284-25.185 9.387 0 17.53 4.884 21.36 12.357l-8.908 5.173c-2.107-4.503-6.8-7.379-12.547-7.379-8.428 0-14.844 6.416-14.844 15.038 0 8.619 6.416 15.039 14.844 15.039 5.747 0 10.44-2.971 12.738-7.379l8.907 5.078c-4.02 7.564-12.163 12.448-21.55 12.448m38.6-35.915c0 8.717 25.763 3.446 25.763 21.169 0 9.581-8.333 14.75-18.678 14.75-9.576 0-16.472-4.314-19.537-11.209l8.907-5.168c1.533 4.309 5.367 6.891 10.63 6.891 4.599 0 8.143-1.529 8.143-5.363 0-8.519-25.763-3.73-25.763-20.872 0-9.006 7.759-14.658 17.525-14.658 7.854 0 14.369 3.644 17.72 9.961l-8.713 4.883c-1.727-3.734-5.082-5.457-9.007-5.457-3.734 0-6.99 1.624-6.99 5.073m44.152 0c0 8.717 25.764 3.446 25.764 21.169 0 9.581-8.333 14.75-18.678 14.75-9.577 0-16.468-4.314-19.538-11.209l8.907-5.168c1.533 4.309 5.363 6.891 10.631 6.891 4.598 0 8.143-1.529 8.143-5.363 0-8.519-25.764-3.73-25.764-20.872 0-9.006 7.759-14.658 17.53-14.658 7.849 0 14.364 3.644 17.715 9.961l-8.713 4.883c-1.723-3.734-5.078-5.457-9.002-5.457-3.739 0-6.995 1.624-6.995 5.073" fill="#1C222F"/></svg>