<svg width="1563" height="363" viewBox="0 0 1563 363" fill="none" xmlns="http://www.w3.org/2000/svg"><path d="M181.363 1.137H1381.27c99.78 0 180.67 80.886 180.67 180.663s-80.89 180.663-180.67 180.663H181.363C81.586 362.463.7 281.578.7 181.8.7 82.023 81.586 1.137 181.363 1.137" fill="#EAE7E0"/><path d="M181.363 1.137H1381.27c99.78 0 180.67 80.886 180.67 180.663s-80.89 180.663-180.67 180.663H181.363C81.586 362.463.7 281.578.7 181.8.7 82.023 81.586 1.137 181.363 1.137Z" stroke="#1C222F" stroke-width="1.049"/><path d="M341.031 111.516c-31.246 0-50.765 15.62-58.585 46.858 11.72-15.612 25.382-21.476 41.002-17.569 8.911 2.223 15.285 8.686 22.328 15.844 11.488 11.659 24.782 25.151 53.819 25.151 31.239 0 50.758-15.619 58.571-46.851-11.713 15.612-25.382 21.475-40.995 17.562-8.918-2.223-15.292-8.686-22.335-15.844-11.488-11.652-24.782-25.151-53.805-25.151M282.446 181.8c-31.225 0-50.758 15.619-58.564 46.858 11.713-15.619 25.382-21.476 40.995-17.569 8.917 2.222 15.292 8.686 22.335 15.844 11.488 11.659 24.782 25.151 53.819 25.151 31.239 0 50.758-15.613 58.564-46.852-11.713 15.613-25.376 21.476-40.995 17.57-8.911-2.23-15.285-8.7-22.335-15.851-11.481-11.659-24.782-25.151-53.819-25.151" fill="#06B6D4"/><path d="M556.338 175.627h-20.453v39.563c0 10.554 6.926 10.39 20.453 9.729v15.994c-27.373 3.293-38.255-4.288-38.255-25.723v-39.563h-15.176v-17.154h15.17v-22.137l17.808-5.277v27.414h20.439v17.154zm77.926-17.154h17.794v82.44h-17.794v-11.869c-6.272 8.726-15.994 14.01-28.859 14.01-22.417 0-41.05-18.953-41.05-43.361 0-24.564 18.633-43.36 41.05-43.36 12.858 0 22.587 5.277 28.859 13.853zm-26.05 67.598c14.835 0 26.043-11.045 26.043-26.385 0-15.326-11.208-26.37-26.043-26.37-14.842 0-26.051 11.044-26.051 26.377s11.209 26.385 26.044 26.385zm73.522-79.951a11.5 11.5 0 0 1-11.372-11.379 11.46 11.46 0 0 1 3.348-8.045 11.323 11.323 0 0 1 12.368-2.465 11.43 11.43 0 0 1 7.028 10.51c0 6.102-5.113 11.379-11.372 11.379m-8.904 94.8v-82.447h17.808v82.44zm38.418 0V120.546h17.801v120.36h-17.794zm133.389-82.447h18.796l-25.887 82.44h-17.474l-17.153-55.564-17.31 55.564h-17.474l-25.887-82.44h18.797l15.994 56.881 17.317-56.881h16.976l17.14 56.881zm40.879-12.353c-6.273 0-11.379-5.277-11.379-11.379a11.47 11.47 0 0 1 3.354-8.045 11.32 11.32 0 0 1 8.025-3.334 11.32 11.32 0 0 1 8.024 3.334 11.44 11.44 0 0 1 3.354 8.045c0 6.102-5.113 11.379-11.378 11.379m-8.904 94.8v-82.447h17.808v82.44zm81.785-84.587c18.462 0 31.655 12.531 31.655 33.965v50.608h-17.808v-48.801c0-12.531-7.254-19.117-18.462-19.117-11.707 0-20.938 6.92-20.938 23.74v44.178h-17.808v-82.419h17.808v10.54c5.441-8.57 14.338-12.694 25.553-12.694m116.061-30.83h17.81v115.403h-17.81v-11.869c-6.25 8.74-15.98 14.01-28.84 14.01-22.43 0-41.06-18.953-41.06-43.361 0-24.564 18.63-43.36 41.06-43.36 12.86 0 22.59 5.277 28.84 13.853zm-26.05 100.568c14.85 0 26.05-11.045 26.05-26.385 0-15.326-11.2-26.37-26.05-26.37-14.83 0-26.04 11.044-26.04 26.377s11.21 26.378 26.04 26.378m103.54 16.976c-24.89 0-43.52-18.953-43.52-43.361 0-24.557 18.63-43.353 43.52-43.353 16.16 0 30.18 8.406 36.77 21.271l-15.33 8.904c-3.63-7.752-11.71-12.702-21.6-12.702-14.51 0-25.55 11.045-25.55 25.887 0 14.836 11.04 25.887 25.55 25.887 9.89 0 17.97-5.113 21.93-12.701l15.33 8.74c-6.92 13.022-20.94 21.428-37.1 21.428m66.45-61.823c0 15.006 44.35 5.932 44.35 36.441 0 16.492-14.35 25.389-32.15 25.389-16.49 0-28.36-7.424-33.64-19.294l15.34-8.897c2.64 7.417 9.24 11.863 18.3 11.863 7.91 0 14.01-2.632 14.01-9.232 0-14.665-44.35-6.422-44.35-35.929 0-15.504 13.36-25.232 30.17-25.232 13.52 0 24.74 6.272 30.51 17.146l-15 8.406c-2.98-6.429-8.75-9.394-15.51-9.394-6.43 0-12.03 2.795-12.03 8.733m76 0c0 15.006 44.35 5.932 44.35 36.441 0 16.492-14.34 25.389-32.15 25.389-16.48 0-28.35-7.424-33.63-19.294l15.33-8.897c2.64 7.417 9.23 11.863 18.3 11.863 7.92 0 14.02-2.632 14.02-9.232 0-14.665-44.35-6.422-44.35-35.929 0-15.504 13.35-25.232 30.17-25.232 13.52 0 24.73 6.272 30.5 17.146l-15 8.406c-2.97-6.429-8.74-9.394-15.5-9.394-6.43 0-12.04 2.795-12.04 8.733" fill="#1C222F"/></svg>