<svg width="1564" height="364" viewBox="0 0 1564 364" fill="none" xmlns="http://www.w3.org/2000/svg"><path d="M182.101 1.396H1382.01c99.78 0 180.66 80.886 180.66 180.663s-80.88 180.663-180.66 180.663H182.101c-99.778 0-180.663-80.886-180.663-180.663S82.323 1.396 182.1 1.396" fill="#1C222F"/><path d="M182.101 1.396H1382.01c99.78 0 180.66 80.886 180.66 180.663s-80.88 180.663-180.66 180.663H182.101c-99.778 0-180.663-80.886-180.663-180.663S82.323 1.396 182.1 1.396Z" stroke="#EAE7E0" stroke-width="1.049"/><path d="M341.768 111.775c-31.246 0-50.765 15.619-58.585 46.858 11.72-15.612 25.383-21.476 41.002-17.569 8.911 2.222 15.285 8.686 22.328 15.844 11.488 11.659 24.783 25.151 53.819 25.151 31.239 0 50.758-15.62 58.571-46.852-11.713 15.613-25.382 21.476-40.995 17.563-8.917-2.223-15.292-8.686-22.335-15.845-11.487-11.651-24.782-25.15-53.805-25.15m-58.585 70.284c-31.225 0-50.758 15.619-58.564 46.858 11.713-15.619 25.383-21.476 40.995-17.569 8.918 2.222 15.292 8.685 22.335 15.844 11.488 11.658 24.782 25.151 53.819 25.151 31.239 0 50.758-15.613 58.564-46.852-11.713 15.613-25.375 21.476-40.995 17.57-8.91-2.23-15.285-8.7-22.335-15.852-11.481-11.658-24.782-25.15-53.819-25.15" fill="#06B6D4"/><path d="M557.075 175.886h-20.453v39.563c0 10.554 6.927 10.39 20.453 9.729v15.994c-27.373 3.293-38.254-4.288-38.254-25.723v-39.563h-15.176v-17.154h15.169v-22.137l17.808-5.277v27.414h20.439v17.154zm77.927-17.154h17.794v82.44h-17.794v-11.87c-6.273 8.727-15.995 14.011-28.86 14.011-22.417 0-41.049-18.953-41.049-43.361 0-24.564 18.632-43.361 41.049-43.361 12.858 0 22.587 5.277 28.86 13.854zm-26.051 67.598c14.835 0 26.044-11.045 26.044-26.385 0-15.326-11.209-26.371-26.044-26.371-14.842 0-26.05 11.045-26.05 26.378s11.208 26.385 26.043 26.385zm73.522-79.952A11.5 11.5 0 0 1 671.101 135a11.46 11.46 0 0 1 3.348-8.045 11.32 11.32 0 0 1 8.024-3.331 11.32 11.32 0 0 1 8.025 3.331 11.43 11.43 0 0 1 3.347 8.045c0 6.102-5.113 11.378-11.372 11.378m-8.904 94.801v-82.447h17.808v82.44zm38.418 0V120.805h17.801v120.36h-17.794zm133.389-82.447h18.796l-25.887 82.44h-17.473l-17.154-55.564-17.31 55.564h-17.474l-25.887-82.44h18.797l15.994 56.88 17.317-56.88h16.976l17.14 56.88zm40.879-12.354c-6.272 0-11.379-5.276-11.379-11.378a11.47 11.47 0 0 1 3.355-8.045 11.3 11.3 0 0 1 8.024-3.334 11.3 11.3 0 0 1 8.024 3.334 11.44 11.44 0 0 1 3.355 8.045c0 6.102-5.114 11.378-11.379 11.378m-8.904 94.801v-82.447h17.808v82.44zm81.785-84.588c18.463 0 31.655 12.531 31.655 33.966v50.608h-17.808v-48.801c0-12.531-7.254-19.117-18.462-19.117-11.706 0-20.937 6.92-20.937 23.739v44.179h-17.808v-82.419h17.808v10.54c5.44-8.57 14.337-12.695 25.552-12.695m116.064-30.829h17.81v115.403h-17.81v-11.869c-6.26 8.74-15.99 14.01-28.84 14.01-22.43 0-41.06-18.953-41.06-43.361 0-24.564 18.63-43.36 41.06-43.36 12.85 0 22.58 5.276 28.84 13.853zm-26.05 100.568c14.84 0 26.05-11.045 26.05-26.385 0-15.326-11.21-26.371-26.05-26.371-14.83 0-26.04 11.045-26.04 26.378s11.21 26.378 26.04 26.378m103.54 16.976c-24.89 0-43.52-18.953-43.52-43.361 0-24.557 18.63-43.354 43.52-43.354 16.16 0 30.18 8.407 36.77 21.272l-15.33 8.904c-3.63-7.752-11.71-12.702-21.6-12.702-14.51 0-25.55 11.045-25.55 25.887 0 14.835 11.04 25.887 25.55 25.887 9.89 0 17.97-5.113 21.92-12.701l15.34 8.74c-6.92 13.022-20.94 21.428-37.1 21.428m66.45-61.823c0 15.006 44.35 5.931 44.35 36.441 0 16.492-14.35 25.389-32.16 25.389-16.48 0-28.35-7.425-33.63-19.294l15.34-8.897c2.63 7.417 9.23 11.862 18.29 11.862 7.92 0 14.02-2.631 14.02-9.231 0-14.665-44.35-6.422-44.35-35.929 0-15.504 13.36-25.233 30.17-25.233 13.52 0 24.73 6.273 30.5 17.147l-15 8.406c-2.97-6.429-8.74-9.395-15.5-9.395-6.43 0-12.03 2.796-12.03 8.734m76 0c0 15.006 44.35 5.931 44.35 36.441 0 16.492-14.34 25.389-32.15 25.389-16.49 0-28.35-7.425-33.63-19.294l15.33-8.897c2.64 7.417 9.23 11.862 18.3 11.862 7.91 0 14.02-2.631 14.02-9.231 0-14.665-44.35-6.422-44.35-35.929 0-15.504 13.35-25.233 30.17-25.233 13.51 0 24.73 6.273 30.5 17.147l-15 8.406c-2.97-6.429-8.74-9.395-15.5-9.395-6.43 0-12.04 2.796-12.04 8.734" fill="#fff"/></svg>