<svg width="1170" height="262" viewBox="0 0 1170 262" fill="none" xmlns="http://www.w3.org/2000/svg"><rect width="1170" height="262" rx="131" fill="#202020"/><path d="M268.644 99.059q1.087 0 1.541.453.543.453.543 1.541v10.875q0 2.085-2.084 2.085h-18.761v46.403q0 2.084-2.084 2.084h-12.688q-1.088 0-1.541-.453-.453-.544-.453-1.631v-46.403h-18.851q-1.088 0-1.541-.453-.453-.544-.453-1.632v-10.875q0-1.088.453-1.541t1.541-.453zm63.201 60.813q.09.362.091.997 0 1.63-1.813 1.631h-11.691q-1.995 0-2.357-1.631l-2.447-9.517h-25.829l-2.447 9.517q-.273.906-.907 1.268-.543.363-1.54.363h-11.692q-1.812 0-1.812-1.631 0-.635.09-.997l15.226-59.182q.544-1.63 2.447-1.631h27.008q1.904 0 2.447 1.631zm-27.008-46.222h-8.338l-4.259 17.039-1.813 6.888H311l-1.813-6.888zm63.199-1.269v36.706h11.51q1.088 0 1.541.544.453.453.453 1.54v9.245q0 1.087-.453 1.631-.453.453-1.541.453H339.85q-1.087 0-1.541-.453-.453-.544-.453-1.631v-9.245q0-1.087.453-1.54.454-.544 1.541-.544h11.42v-36.706h-11.42q-1.087 0-1.541-.453t-.453-1.54v-9.335q0-1.088.453-1.541.454-.453 1.541-.453h39.696q1.088 0 1.541.453t.453 1.541v9.335q0 1.087-.453 1.54t-1.541.453zm26.41 50.119q-1.087 0-1.54-.453-.453-.544-.453-1.631v-59.363q0-1.088.453-1.541t1.54-.453h12.689q1.087 0 1.54.453.544.453.544 1.541v46.493h30.814q1.088 0 1.541.453t.453 1.541v10.876q0 1.087-.453 1.631-.453.453-1.541.453zm62.493 0q-.997 0-1.54-.453-.545-.453-.816-1.45l-14.229-59.635q-.181-.543-.181-.816 0-1.087 1.812-1.087h13.414q1.088 0 1.631.362.544.363.725 1.45l3.263 15.951 4.984 25.377h.816l9.698-41.328q.18-.996.725-1.359.543-.453 1.631-.453h12.507q1.088 0 1.631.453.544.363.725 1.359l9.698 41.328h.815l4.985-25.377 3.353-15.86q.182-1.087.635-1.45.543-.453 1.631-.453h13.504q1.631 0 1.631 1.178 0 .544-.09.816l-14.229 59.544q-.272.996-.816 1.45t-1.541.453h-16.766q-1.088 0-1.631-.453-.544-.453-.726-1.45l-8.7-36.524h-.725l-8.701 36.524q-.18.996-.725 1.45-.543.453-1.631.453zm107.315-50.119v36.706h11.51q1.088 0 1.541.544.453.453.453 1.54v9.245q0 1.087-.453 1.631-.453.453-1.541.453h-39.696q-1.087 0-1.541-.453-.453-.544-.453-1.631v-9.245q0-1.087.453-1.54.454-.544 1.541-.544h11.42v-36.706h-11.42q-1.087 0-1.541-.453t-.453-1.54v-9.335q0-1.088.453-1.541.454-.453 1.541-.453h39.696q1.088 0 1.541.453t.453 1.541v9.335q0 1.087-.453 1.54t-1.541.453zm25.957 50.119q-1.087 0-1.541-.453-.453-.544-.453-1.631v-59.363q0-1.088.453-1.541.454-.453 1.541-.453h16.314q1.087 0 1.631.453.635.363 1.178 1.269l21.751 37.43h.816v-37.158q0-1.088.453-1.541.545-.453 1.632-.453h12.144q1.088 0 1.541.453.543.453.543 1.541v59.363q0 2.084-2.084 2.084h-16.313q-1.088 0-1.722-.363-.635-.453-1.088-1.45l-21.751-37.43h-.816v37.159q0 1.087-.453 1.631-.453.453-1.541.453zm73.559 0q-1.087 0-1.54-.453-.453-.544-.454-1.631v-59.363q0-1.088.454-1.541.453-.453 1.54-.453h41.237q8.338 0 12.235 3.897 3.988 3.897 3.988 12.235v31.086q0 8.338-3.988 12.326-3.897 3.897-12.235 3.897zm35.709-14.32q2.718 0 3.806-1.087 1.179-1.179 1.178-3.897v-24.924q0-2.718-1.178-3.806-1.088-1.178-3.806-1.178h-20.936v34.892zm73.123 14.773q-8.339 0-12.326-3.897-3.897-3.987-3.897-12.326v-31.992q0-8.338 3.897-12.235 3.987-3.897 12.326-3.897h26.917q8.337 0 12.235 3.897 3.987 3.897 3.988 12.235v6.253q0 2.085-2.085 2.085h-12.96q-2.085 0-2.084-2.085v-3.172q0-2.718-1.179-3.806-1.088-1.178-3.806-1.178H778.13q-2.72 0-3.897 1.178-1.088 1.088-1.088 3.806v25.83q0 2.72 1.088 3.897 1.177 1.088 3.897 1.088h15.498q2.718 0 3.806-1.088 1.179-1.178 1.179-3.897v-3.172q0-1.088.453-1.541.543-.453 1.631-.453h12.96q1.088 0 1.541.453.543.453.544 1.541v6.253q0 8.339-3.988 12.326-3.897 3.897-12.235 3.897zm68.631 0q-7.884 0-11.51-3.534-3.534-3.625-3.534-11.601v-3.625q0-1.088.453-1.541t1.541-.453h13.05q1.088 0 1.541.453.544.453.544 1.541v1.722q0 2.628.906 3.625.997.906 3.625.906h14.683q2.628 0 3.534-.906.997-.997.997-3.625v-4.713q0-2.628-.997-3.535-.906-.996-3.534-.997h-20.845q-7.886 0-11.51-3.534-3.535-3.626-3.535-11.51v-7.976q0-7.885 3.535-11.419 3.624-3.625 11.51-3.625h26.645q7.885 0 11.419 3.625 3.625 3.534 3.625 11.419v3.626q0 1.087-.453 1.54t-1.54.453h-13.051q-1.088 0-1.541-.453t-.453-1.54v-1.722q0-2.63-.997-3.535-.906-.997-3.534-.997H847.94q-2.629 0-3.625.997-.906.906-.906 3.535v4.803q0 2.629.906 3.625.996.906 3.625.906h20.845q7.885 0 11.419 3.626 3.626 3.535 3.626 11.419v7.885q0 7.976-3.626 11.601-3.534 3.534-11.419 3.534zm68.327 0q-7.884 0-11.51-3.534-3.534-3.625-3.534-11.601v-3.625q0-1.088.453-1.541t1.54-.453h13.051q1.088 0 1.541.453.543.453.544 1.541v1.722q0 2.628.906 3.625.997.906 3.625.906h14.682q2.629 0 3.535-.906.997-.997.997-3.625v-4.713q0-2.628-.997-3.535-.907-.996-3.535-.997h-20.845q-7.884 0-11.51-3.534-3.534-3.626-3.534-11.51v-7.976q0-7.885 3.534-11.419 3.626-3.625 11.51-3.625h26.646q7.885 0 11.419 3.625 3.625 3.534 3.625 11.419v3.626q0 1.087-.453 1.54t-1.541.453h-13.05q-1.088 0-1.541-.453t-.453-1.54v-1.722q0-2.63-.997-3.535-.907-.997-3.535-.997h-13.866q-2.629 0-3.625.997-.907.906-.907 3.535v4.803q0 2.629.907 3.625.996.906 3.625.906h20.845q7.884 0 11.419 3.626 3.625 3.535 3.625 11.419v7.885q0 7.976-3.625 11.601-3.535 3.534-11.419 3.534z" fill="#EAE7E0"/></svg>