<svg width="1053" height="283" viewBox="0 0 1053 283" fill="none" xmlns="http://www.w3.org/2000/svg"><path d="M141.317.619h769.512c77.822 0 140.911 63.086 140.911 140.908s-63.089 140.908-140.911 140.908H141.317C63.496 282.435.409 219.348.409 141.527.41 63.705 63.496.619 141.317.619" fill="#fff"/><path d="M141.317.619h769.512c77.822 0 140.911 63.086 140.911 140.908s-63.089 140.908-140.911 140.908H141.317C63.496 282.435.409 219.348.409 141.527.41 63.705 63.496.619 141.317.619Z" stroke="#ECE9E1" stroke-width=".818"/><path d="M265.851 86.709c-24.37 0-39.594 12.182-45.693 36.547 9.141-12.177 19.797-16.75 31.979-13.703 6.95 1.733 11.922 6.774 17.415 12.358 8.96 9.093 19.329 19.616 41.976 19.616 24.365 0 39.589-12.182 45.683-36.542-9.136 12.177-19.797 16.75-31.974 13.698-6.956-1.733-11.927-6.774-17.42-12.358-8.96-9.087-19.329-19.616-41.966-19.616m-45.693 54.818c-24.354 0-39.589 12.182-45.678 36.547q13.706-18.273 31.975-13.703c6.955 1.733 11.927 6.774 17.42 12.358 8.96 9.093 19.329 19.616 41.976 19.616 24.365 0 39.589-12.177 45.677-36.542-9.135 12.177-19.791 16.75-31.974 13.703-6.95-1.738-11.922-6.785-17.42-12.363-8.955-9.093-19.329-19.616-41.976-19.616" fill="#06B6D4"/><path d="M423.144 137.941h-11.881v22.983c0 6.131 4.024 6.036 11.881 5.651v9.292c-15.901 1.913-22.222-2.491-22.222-14.943v-22.983h-8.817v-9.965h8.813v-12.86l10.345-3.065v15.925h11.873v9.965zm45.269-9.965h10.337v47.891h-10.337v-6.895c-3.643 5.069-9.291 8.139-16.765 8.139-13.022 0-23.846-11.011-23.846-25.19 0-14.269 10.824-25.189 23.846-25.189 7.47 0 13.122 3.066 16.765 8.048zm-15.133 39.269c8.618 0 15.129-6.416 15.129-15.328 0-8.903-6.511-15.319-15.129-15.319-8.622 0-15.133 6.416-15.133 15.323s6.511 15.328 15.129 15.328zm42.711-46.446a6.68 6.68 0 0 1-4.651-1.958 6.68 6.68 0 0 1-1.955-4.652 6.65 6.65 0 0 1 1.944-4.673 6.58 6.58 0 0 1 4.662-1.935 6.58 6.58 0 0 1 4.661 1.935 6.64 6.64 0 0 1 1.945 4.673c0 3.545-2.97 6.61-6.606 6.61m-5.173 55.072v-47.895h10.345v47.891zm22.318 0v-69.928h10.341v69.92H513.14zm77.488-47.895h10.919l-15.038 47.891h-10.151l-9.964-32.279-10.056 32.279h-10.151l-15.038-47.891h10.919l9.291 33.043 10.06-33.043h9.862l9.957 33.043zm23.748-7.177c-3.644 0-6.61-3.065-6.61-6.61a6.65 6.65 0 0 1 4.086-6.106 6.57 6.57 0 0 1 5.048 0c.8.332 1.526.819 2.137 1.433a6.64 6.64 0 0 1 1.949 4.673c0 3.545-2.971 6.61-6.61 6.61m-5.173 55.072v-47.895h10.345v47.891zm47.511-49.139c10.725 0 18.389 7.28 18.389 19.732v29.399h-10.345v-28.35c0-7.279-4.214-11.105-10.725-11.105-6.801 0-12.163 4.02-12.163 13.791v25.664h-10.345v-47.879h10.345v6.123c3.16-4.979 8.329-7.375 14.844-7.375m67.424-17.909h10.345v67.04h-10.345v-6.895c-3.635 5.077-9.287 8.139-16.757 8.139-13.026 0-23.85-11.011-23.85-25.19 0-14.269 10.824-25.189 23.85-25.189 7.47 0 13.122 3.066 16.757 8.048zm-15.133 58.422c8.622 0 15.133-6.416 15.133-15.328 0-8.903-6.511-15.319-15.133-15.319-8.618 0-15.129 6.416-15.129 15.323s6.511 15.324 15.129 15.324m60.149 9.862c-14.46 0-25.284-11.011-25.284-25.19 0-14.265 10.824-25.185 25.284-25.185 9.387 0 17.529 4.884 21.359 12.357l-8.907 5.173c-2.107-4.503-6.8-7.379-12.547-7.379-8.428 0-14.844 6.416-14.844 15.038 0 8.619 6.416 15.039 14.844 15.039 5.747 0 10.44-2.971 12.737-7.379l8.907 5.078c-4.02 7.564-12.162 12.448-21.549 12.448m38.6-35.915c0 8.717 25.763 3.446 25.763 21.169 0 9.581-8.333 14.75-18.678 14.75-9.577 0-16.472-4.314-19.537-11.209l8.907-5.168c1.533 4.309 5.366 6.891 10.63 6.891 4.598 0 8.143-1.529 8.143-5.363 0-8.519-25.763-3.73-25.763-20.872 0-9.006 7.758-14.658 17.525-14.658 7.854 0 14.369 3.644 17.719 9.961l-8.713 4.883c-1.727-3.734-5.081-5.457-9.006-5.457-3.735 0-6.99 1.624-6.99 5.073m44.152 0c0 8.717 25.763 3.446 25.763 21.169 0 9.581-8.333 14.75-18.678 14.75-9.576 0-16.468-4.314-19.537-11.209l8.907-5.168c1.533 4.309 5.363 6.891 10.63 6.891 4.598 0 8.143-1.529 8.143-5.363 0-8.519-25.763-3.73-25.763-20.872 0-9.006 7.758-14.658 17.529-14.658 7.85 0 14.365 3.644 17.716 9.961l-8.714 4.883c-1.722-3.734-5.077-5.457-9.002-5.457-3.739 0-6.994 1.624-6.994 5.073" fill="#1C222F"/></svg>