<svg width="1048" height="262" viewBox="0 0 1048 262" fill="none" xmlns="http://www.w3.org/2000/svg"><rect width="1048" height="262" rx="131" fill="#EAE7E0"/><path d="M262.144 99.059q1.087 0 1.541.453.543.453.543 1.541v10.875q0 2.085-2.084 2.085h-18.761v46.403q0 2.084-2.084 2.084h-12.688q-1.088 0-1.541-.453-.453-.544-.453-1.631v-46.403h-18.851q-1.088 0-1.541-.453-.453-.544-.453-1.632v-10.875q0-1.088.453-1.541t1.541-.453zm27.998 63.441q-2.085 0-2.085-2.084v-18.761l-22.386-39.333q-.453-.907-.453-1.451 0-.815.725-1.268.634-.544 1.813-.544h12.326q1.087 0 1.631.362.635.363 1.178 1.36l13.051 24.198h.725l5.8-10.604 7.613-13.685q.544-.906 1.088-1.269.635-.362 1.722-.362h12.325q2.357 0 2.357 1.903 0 .634-.363 1.36l-22.385 39.333v18.761q0 1.087-.454 1.631-.453.453-1.54.453zm85.826-63.441q7.885 0 11.419 3.625 3.625 3.535 3.625 11.419v9.97q0 7.884-3.625 11.51-3.534 3.534-11.419 3.534h-25.467v21.299q0 2.084-2.085 2.084h-12.688q-1.088 0-1.541-.453-.453-.544-.453-1.631v-59.363q0-1.088.453-1.541t1.541-.453zm-1.722 17.854q0-2.628-.997-3.535-.906-.996-3.535-.997h-19.213v13.414h19.213q2.629 0 3.535-.907.996-.996.997-3.625zm75.948 31.721q1.087 0 1.54.543.454.453.454 1.541v9.698q0 1.087-.454 1.631-.453.453-1.54.453H403.7q-1.087 0-1.54-.453-.453-.544-.453-1.631v-59.363q0-1.088.453-1.541t1.54-.453h45.587q1.089 0 1.541.453.453.453.453 1.541v9.788q0 1.087-.453 1.54-.452.454-1.541.454h-30.814v11.147h28.096q1.087 0 1.54.453t.453 1.541v9.063q0 1.088-.453 1.631-.453.453-1.54.454h-28.096v11.51zm26.178 14.319q-7.884 0-11.51-3.534-3.534-3.625-3.534-11.601v-3.625q0-1.088.453-1.541t1.541-.453h13.05q1.088 0 1.541.453.544.453.544 1.541v1.722q0 2.628.906 3.625.997.906 3.625.906h14.683q2.628 0 3.534-.906.997-.997.997-3.625v-4.713q0-2.628-.997-3.535-.906-.996-3.534-.997h-20.845q-7.886 0-11.51-3.534-3.535-3.626-3.535-11.51v-7.976q0-7.885 3.535-11.419 3.624-3.625 11.51-3.625h26.645q7.885 0 11.419 3.625 3.625 3.534 3.625 11.419v3.626q0 1.087-.453 1.54t-1.54.453h-13.051q-1.088 0-1.541-.453t-.453-1.54v-1.722q0-2.63-.997-3.535-.906-.997-3.534-.997h-13.867q-2.628 0-3.625.997-.906.906-.906 3.535v4.803q0 2.629.906 3.625.997.906 3.625.906h20.845q7.885 0 11.419 3.626 3.626 3.535 3.626 11.419v7.885q0 7.976-3.626 11.601-3.534 3.534-11.419 3.534zm70.412 0q-8.339 0-12.326-3.897-3.897-3.987-3.897-12.326v-31.992q0-8.338 3.897-12.235 3.987-3.897 12.326-3.897h26.917q8.337 0 12.235 3.897 3.988 3.897 3.988 12.235v6.253q0 2.085-2.085 2.085h-12.96q-2.085 0-2.085-2.085v-3.172q0-2.718-1.178-3.806-1.088-1.178-3.806-1.178h-15.498q-2.72 0-3.897 1.178-1.088 1.088-1.088 3.806v25.83q0 2.72 1.088 3.897 1.178 1.088 3.897 1.088h15.498q2.718 0 3.806-1.088 1.178-1.178 1.178-3.897v-3.172q0-1.088.454-1.541.543-.453 1.631-.453h12.96q1.088 0 1.541.453.543.453.544 1.541v6.253q0 8.339-3.988 12.326-3.898 3.897-12.235 3.897zm112.747-3.534q.635.815.635 1.45 0 .725-.544 1.178-.453.453-1.36.453h-14.863q-1.087 0-1.813-.272-.635-.363-1.268-1.269l-19.033-23.835h-1.903v23.292q0 2.084-2.085 2.084h-12.688q-1.087 0-1.54-.453-.454-.544-.454-1.631v-59.363q0-1.088.454-1.541.453-.453 1.54-.453h39.606q7.885 0 11.419 3.625 3.625 3.535 3.625 11.419v8.792q0 7.884-3.534 11.51-3.535 3.625-11.238 3.625h-2.901zm-40.149-47.038v13.142h18.579q2.629 0 3.535-.906.996-.997.997-3.626v-4.078q0-2.628-.997-3.535-.907-.996-3.535-.997zm78.389 0v36.706h11.51q1.087 0 1.54.544.454.453.454 1.54v9.245q0 1.087-.454 1.631-.453.453-1.54.453h-39.696q-1.088 0-1.541-.453-.453-.544-.453-1.631v-9.245q0-1.087.453-1.54.453-.544 1.541-.544h11.419v-36.706h-11.419q-1.088 0-1.541-.453t-.453-1.54v-9.335q0-1.088.453-1.541t1.541-.453h39.696q1.087 0 1.54.453t.454 1.541v9.335q0 1.087-.454 1.54-.453.453-1.54.453zm66.65-13.322q7.884 0 11.419 3.625 3.625 3.535 3.625 11.419v9.97q0 7.884-3.625 11.51-3.535 3.534-11.419 3.534h-25.467v21.299q0 2.084-2.085 2.084h-12.688q-1.088 0-1.541-.453-.453-.544-.453-1.631v-59.363q0-1.088.453-1.541t1.541-.453zm-1.722 17.854q0-2.628-.997-3.535-.907-.996-3.535-.997h-19.213v13.414h19.213q2.629 0 3.535-.907.996-.996.997-3.625zm77.035-17.854q1.088 0 1.541.453.544.453.544 1.541v10.875q0 2.085-2.085 2.085h-18.76v46.403q0 2.084-2.085 2.084h-12.688q-1.087 0-1.54-.453-.454-.544-.454-1.631v-46.403h-18.851q-1.087 0-1.54-.453-.454-.544-.454-1.632v-10.875q0-1.088.454-1.541.453-.453 1.54-.453z" fill="#202020"/></svg>