<svg width="1237" height="366" viewBox="0 0 1237 366" fill="none" xmlns="http://www.w3.org/2000/svg"><path d="M182.536.799h871.674c100.49 0 181.96 81.468 181.96 181.964 0 100.497-81.47 181.966-181.96 181.966H182.536C82.04 364.729.571 283.26.571 182.763.571 82.267 82.04.799 182.536.799" fill="#1C222F"/><path d="M182.536.799h871.674c100.49 0 181.96 81.468 181.96 181.964 0 100.497-81.47 181.966-181.96 181.966H182.536C82.04 364.729.571 283.26.571 182.763.571 82.267 82.04.799 182.536.799Z" stroke="#EAE7E0" stroke-width="1.049"/><g clip-path="url(#a)"><path d="M352.943 111.178H237.735c-7.722 0-13.982 6.26-13.982 13.981v115.209c0 7.722 6.26 13.982 13.982 13.982h115.208c7.722 0 13.982-6.26 13.982-13.982V125.159c0-7.721-6.26-13.981-13.982-13.981" fill="#3178C6"/><path fill-rule="evenodd" clip-rule="evenodd" d="M312.386 225.107v13.999q3.413 1.75 8.074 2.624t9.825.875q5.033 0 9.562-.962 4.53-.963 7.944-3.172a16.15 16.15 0 0 0 5.404-5.774q1.992-3.565 1.992-8.815 0-3.806-1.138-6.671a15.6 15.6 0 0 0-3.282-5.096q-2.145-2.232-5.143-4.003-2.997-1.772-6.761-3.347a84 84 0 0 1-4.945-2.209q-2.189-1.071-3.72-2.187t-2.364-2.362q-.831-1.247-.831-2.822 0-1.443.744-2.603t2.1-1.99q1.358-.832 3.326-1.291 1.97-.459 4.377-.459 1.75 0 3.698.262a29 29 0 0 1 3.917.81q1.97.546 3.829 1.378a21 21 0 0 1 3.436 1.925v-13.081q-3.195-1.224-6.981-1.815t-8.687-.591q-4.989 0-9.453 1.072t-7.856 3.347a16.7 16.7 0 0 0-5.36 5.796q-1.97 3.522-1.97 8.421 0 6.256 3.611 10.674 3.61 4.418 10.963 7.481 2.888 1.18 5.382 2.318 2.495 1.137 4.311 2.362t2.867 2.669q1.05 1.443 1.05 3.281 0 1.356-.656 2.515-.657 1.16-1.992 2.012t-3.326 1.335q-1.99.481-4.661.481-4.551 0-9.015-1.597t-8.271-4.79m-23.534-34.49h17.958v-11.488h-50.054v11.488h17.87v51.149h14.226z" fill="#fff"/></g><path fill-rule="evenodd" clip-rule="evenodd" d="M714.49 230.041v-8.109q11.104 7.032 22.496 7.032 12.113 0 18.386-4.987 6.273-4.988 6.273-13.958 0-7.893-4.218-12.594-4.068-4.531-17.286-12.234l-.992-.575q-15.718-9.114-19.9-15.249-4.182-6.136-4.182-14.173 0-10.908 8.508-18.514 8.508-7.607 22.712-7.607 9.229 0 18.458 3.086v7.463q-9.086-4.09-19.395-4.09-10.527 0-16.692 5.31-6.164 5.31-6.164 13.491 0 7.893 4.218 12.558t18.205 12.702q14.493 8.18 19.287 14.531 4.795 6.351 4.795 14.604 0 11.84-8.256 19.304-8.255 7.461-23.324 7.462-5.336 0-12.294-1.65-6.957-1.65-10.635-3.803m-256.251-84.734h29.566v-14.503h-76.139v14.503h29.494v88.457h17.079zm56.82 100.229 33.311-85.315h-16.872l-18.458 53.573a178 178 0 0 0-1.03 4.012l-.268 1.159h-.36a349 349 0 0 0-.919-3.846l-.379-1.469-17.593-53.429h-18.53l29.345 73.394-4.974 12.064q-4.615 9.193-13.988 9.193-3.244 0-7.211-1.293v13.86q3.534.933 8.797.933 18.747 0 29.129-22.836m60.692-22.669h-.288v44.64h-16.711V160.213h16.711v12.918h.288q8.57-14.64 25.066-14.641 14.044 0 21.897 9.833 7.851 9.832 7.851 26.411 0 18.373-8.86 29.425t-24.202 11.052q-14.117 0-21.752-12.344m-.56-19.482v-9.065q0-9.423 5.434-15.704 5.433-6.282 14.356-6.282 8.421 0 13.35 6.103t4.929 16.883q0 12.848-5.289 20.022-5.29 7.175-14.573 7.175-7.916 0-13.061-5.569-5.146-5.567-5.146-13.563m130.647-1.867h-49.841q.285 10.2 6.248 15.731 5.963 5.53 16.388 5.531 11.71 0 21.493-7.04v13.433q-9.997 6.321-26.42 6.321-16.139 0-25.314-10.02-9.174-10.02-9.175-28.194 0-17.169 10.104-27.979t25.099-10.811 23.207 9.698q8.211 9.697 8.211 26.937zm-19.773-25.904q4.128 5.012 4.2 14.024h-33.744q1.14-8.508 6.087-13.771t12.066-5.264q7.262 0 11.391 5.011m125.249 59.88q11.438 0 19.691-5.019v-6.882q-8.253 5.879-19.402 5.879-12.162 0-19.582-8.676t-7.42-22.943q0-14.77 8.108-24.055 8.107-9.285 21.138-9.285 9.484 0 17.447 4.876v-7.457q-7.963-3.442-16.433-3.442-16.361 0-26.785 11.149-10.425 11.15-10.425 28.644 0 16.633 9.266 26.923 9.267 10.288 24.397 10.288m63.241-68.64q-3.296-2.379-7.739-2.379-8.67 0-14.545 9.012-5.876 9.013-5.876 25.596v34.681h-6.449v-73.832h6.449v16.367h.287q2.508-8.436 7.953-13.122 5.446-4.687 12.611-4.687 4.084 0 7.309 1.298zm10.332-26.43q1.68 1.628 3.871 1.628 2.337 0 4.017-1.702 1.68-1.703 1.68-4.07 0-2.517-1.716-3.996-1.717-1.48-3.981-1.48-2.119 0-3.835 1.517t-1.716 3.959q0 2.515 1.68 4.144m.05 93.34v-73.543h6.922v73.543zm29.092-13.091h.287q7.887 14.846 24.377 14.846 14.77 0 23.768-11.367 8.998-11.369 8.998-29.801 0-16.567-7.851-26.214-7.85-9.647-21.832-9.647-8.819 0-16.168 4.411t-11.292 12.516h-.287v-15.134h-6.596v107.224h6.596zm.326-27.333v9.239q0 11.03 7.023 18.944 7.024 7.915 18.464 7.915 11.368 0 18.464-9.634 7.096-9.633 7.096-25.318 0-13.752-6.517-21.846t-17.377-8.093q-12.961 0-20.058 8.595-7.095 8.594-7.095 20.198m89.005 42.154c3 0 6.2-.811 9.63-2.435V226.9c-3.14 1.767-6.06 2.65-8.77 2.65-3.81 0-6.505-1.134-8.097-3.401q-2.388-3.402-2.388-10.994v-48.413h19.255v-6.016h-19.255v-21.27c-1.048.382-2.136.74-3.281 1.074q-1.711.573-3.276 1.146v19.05h-13.124v6.016h13.124v49.273q0 19.479 16.182 19.479" fill="#fff"/><defs><clipPath id="a"><path fill="#fff" d="M223.753 111.178h143.172V254.35H223.753z"/></clipPath></defs></svg>