<svg width="910" height="286" viewBox="0 0 910 286" fill="none" xmlns="http://www.w3.org/2000/svg"><path d="M142.803.981h624.516c78.384 0 141.927 63.543 141.927 141.927s-63.543 141.927-141.927 141.927H142.803C64.419 284.835.876 221.292.876 142.908S64.419.981 142.803.981" fill="#EAE7E0"/><path d="M142.803.981h624.516c78.384 0 141.927 63.543 141.927 141.927s-63.543 141.927-141.927 141.927H142.803C64.419 284.835.876 221.292.876 142.908S64.419.981 142.803.981Z" stroke="#1C222F" stroke-width=".818"/><g clip-path="url(#a)"><path d="M275.715 87.072h-89.862c-6.023 0-10.906 4.882-10.906 10.905v89.862c0 6.023 4.883 10.906 10.906 10.906h89.862c6.023 0 10.905-4.883 10.905-10.906V97.977c0-6.023-4.882-10.906-10.905-10.906" fill="#3178C6"/><path fill-rule="evenodd" clip-rule="evenodd" d="M244.052 175.931v10.919q2.662 1.365 6.298 2.047t7.664.683q3.926 0 7.458-.751 3.534-.75 6.196-2.474a12.6 12.6 0 0 0 4.216-4.504q1.553-2.781 1.553-6.875 0-2.97-.888-5.204a12.2 12.2 0 0 0-2.56-3.975q-1.673-1.74-4.011-3.123-2.339-1.381-5.274-2.61a67 67 0 0 1-3.857-1.723q-1.707-.836-2.902-1.706t-1.843-1.843a3.9 3.9 0 0 1-.649-2.201q0-1.125.581-2.03.58-.904 1.638-1.552t2.594-1.007q1.537-.358 3.414-.358 1.365 0 2.885.204a23 23 0 0 1 3.055.632q1.535.426 2.987 1.075 1.45.648 2.679 1.501v-10.203q-2.492-.954-5.444-1.416-2.954-.46-6.776-.46-3.892 0-7.374.836-3.481.835-6.127 2.61a13.04 13.04 0 0 0-4.182 4.521q-1.536 2.747-1.536 6.569 0 4.88 2.816 8.326 2.817 3.446 8.551 5.834 2.253.922 4.199 1.809t3.362 1.842q1.417.956 2.237 2.082.819 1.127.819 2.559a3.9 3.9 0 0 1-.512 1.962q-.512.904-1.554 1.57-1.04.665-2.594 1.04-1.553.376-3.635.376-3.55 0-7.032-1.246t-6.452-3.736m-18.356-26.903h14.007v-8.961H200.66v8.961h13.939v39.897h11.097z" fill="#fff"/></g><path fill-rule="evenodd" clip-rule="evenodd" d="M526.325 174.161v-5.459q7.474 4.734 15.143 4.734 8.153 0 12.376-3.357t4.222-9.395q0-5.314-2.839-8.478-2.738-3.051-11.636-8.235l-.668-.387q-10.58-6.135-13.395-10.265t-2.815-9.54q0-7.342 5.727-12.463t15.289-5.12q6.211 0 12.424 2.077v5.024q-6.116-2.754-13.055-2.754-7.087 0-11.236 3.575-4.15 3.574-4.15 9.081 0 5.313 2.84 8.453 2.838 3.141 12.254 8.55 9.756 5.507 12.983 9.782t3.228 9.83q0 7.97-5.558 12.994-5.556 5.024-15.7 5.024-3.591 0-8.275-1.111-4.683-1.111-7.159-2.56m-172.492-57.037h19.901v-9.763h-51.252v9.763h19.854v59.543h11.497zm38.247 67.467 22.423-57.429h-11.357l-12.425 36.062a123 123 0 0 0-.693 2.701l-.181.78h-.242a242 242 0 0 0-.618-2.588l-.256-.989-11.842-35.966h-12.473l19.753 49.405-3.349 8.121q-3.106 6.187-9.416 6.187-2.183 0-4.853-.87v9.33q2.379.628 5.921.628 12.62 0 19.608-15.372m40.854-15.259h-.194v30.049h-11.249v-72.224h11.249v8.696h.194q5.77-9.855 16.873-9.855 9.454 0 14.74 6.618 5.284 6.618 5.284 17.778 0 12.368-5.963 19.808-5.964 7.439-16.291 7.439-9.503 0-14.643-8.309m-.377-13.114v-6.102q0-6.343 3.658-10.571 3.657-4.229 9.664-4.229 5.668 0 8.986 4.109 3.318 4.107 3.318 11.364 0 8.649-3.56 13.478t-9.81 4.829q-5.328 0-8.792-3.748t-3.464-9.13m87.944-1.257h-33.55q.192 6.866 4.206 10.589 4.013 3.723 11.031 3.723 7.883 0 14.468-4.738v9.042q-6.73 4.255-17.785 4.255-10.863 0-17.039-6.745t-6.176-18.979q0-11.556 6.801-18.833 6.801-7.278 16.895-7.277t15.621 6.527q5.528 6.528 5.528 18.133zm-13.311-17.437q2.78 3.374 2.828 9.44h-22.714q.767-5.727 4.097-9.27t8.122-3.543q4.888 0 7.667 3.373m84.31 40.308q7.7 0 13.255-3.379v-4.633q-5.554 3.958-13.06 3.958-8.186 0-13.181-5.84t-4.995-15.444q0-9.943 5.458-16.192 5.457-6.25 14.229-6.25 6.384 0 11.744 3.282v-5.02q-5.36-2.316-11.062-2.316-11.013 0-18.03 7.504-7.017 7.506-7.017 19.281 0 11.198 6.237 18.123 6.238 6.926 16.422 6.926m42.57-46.205q-2.218-1.6-5.209-1.601-5.835 0-9.791 6.067-3.955 6.066-3.955 17.229v23.345h-4.341v-49.699h4.341v11.017h.193q1.688-5.678 5.354-8.833 3.666-3.154 8.489-3.154 2.749 0 4.919.873zm6.955-17.791q1.131 1.096 2.606 1.096 1.573 0 2.704-1.146t1.131-2.739q0-1.694-1.155-2.69a3.98 3.98 0 0 0-2.68-.996q-1.426 0-2.581 1.021t-1.156 2.665q0 1.694 1.131 2.789m.034 62.831v-49.505h4.659v49.505zm19.583-8.812h.193q5.309 9.994 16.409 9.994 9.942 0 15.999-7.652t6.057-20.06q0-11.153-5.285-17.646-5.284-6.493-14.695-6.493-5.937 0-10.884 2.969t-7.601 8.424h-.193v-10.186h-4.44v72.176h4.44zm.219-18.399v6.219q0 7.425 4.728 12.753 4.728 5.327 12.429 5.327 7.651 0 12.429-6.485 4.776-6.484 4.776-17.043 0-9.256-4.387-14.705t-11.697-5.448q-8.725 0-13.501 5.786-4.777 5.786-4.777 13.596m59.914 28.376q3.024 0 6.481-1.639v-4.146c-2.113 1.189-4.079 1.784-5.906 1.784q-3.84 0-5.447-2.29t-1.608-7.4v-32.589h12.961v-4.049h-12.961v-14.318a35 35 0 0 1-2.209.723q-1.151.385-2.205.771v12.824h-8.834v4.049h8.834v33.167q0 13.113 10.894 13.113" fill="#1C222F"/><defs><clipPath id="a"><path fill="#fff" d="M174.947 87.072H286.62v111.673H174.947z"/></clipPath></defs></svg>