<svg width="1238" height="366" viewBox="0 0 1238 366" fill="none" xmlns="http://www.w3.org/2000/svg"><path d="M183.226 1.018H1054.9c100.49 0 181.96 81.468 181.96 181.965 0 100.496-81.47 181.965-181.96 181.965H183.226c-100.497 0-181.965-81.469-181.965-181.965S82.729 1.018 183.226 1.018" fill="#EAE7E0"/><path d="M183.226 1.018H1054.9c100.49 0 181.96 81.468 181.96 181.965 0 100.496-81.47 181.965-181.96 181.965H183.226c-100.497 0-181.965-81.469-181.965-181.965S82.729 1.018 183.226 1.018Z" stroke="#1C222F" stroke-width="1.049"/><g clip-path="url(#a)"><path d="M353.628 111.397H238.419c-7.722 0-13.981 6.26-13.981 13.982v115.208c0 7.722 6.259 13.982 13.981 13.982h115.209c7.722 0 13.982-6.26 13.982-13.982V125.379c0-7.722-6.26-13.982-13.982-13.982" fill="#3178C6"/><path fill-rule="evenodd" clip-rule="evenodd" d="M313.051 225.329v13.998q3.413 1.75 8.074 2.625t9.825.875q5.033 0 9.562-.962 4.53-.963 7.944-3.172a16.2 16.2 0 0 0 5.404-5.774q1.992-3.565 1.992-8.815 0-3.806-1.138-6.671a15.6 15.6 0 0 0-3.282-5.097q-2.145-2.23-5.143-4.003-2.997-1.771-6.761-3.346a85 85 0 0 1-4.945-2.209q-2.189-1.073-3.72-2.187-1.532-1.116-2.364-2.363t-.831-2.821q0-1.444.744-2.603t2.101-1.991q1.357-.831 3.325-1.29 1.97-.459 4.377-.459 1.75 0 3.698.262a29 29 0 0 1 3.917.809 27 27 0 0 1 3.829 1.378 21 21 0 0 1 3.436 1.925v-13.08q-3.195-1.225-6.981-1.815-3.785-.591-8.687-.591-4.989 0-9.453 1.072-4.464 1.071-7.855 3.346a16.7 16.7 0 0 0-5.361 5.797q-1.97 3.52-1.97 8.421 0 6.255 3.611 10.674 3.61 4.418 10.963 7.48 2.888 1.181 5.383 2.319t4.31 2.362q1.816 1.225 2.867 2.669t1.05 3.281q0 1.356-.656 2.515-.657 1.159-1.992 2.012-1.334.854-3.326 1.334-1.99.482-4.661.482-4.551 0-9.015-1.597t-8.271-4.79m-23.534-34.491h17.958V179.35h-50.054v11.488h17.87v51.15h14.226z" fill="#fff"/></g><path fill-rule="evenodd" clip-rule="evenodd" d="M715.185 230.265v-8.109q11.103 7.032 22.496 7.033 12.112 0 18.385-4.988t6.273-13.958q0-7.893-4.218-12.594-4.067-4.531-17.286-12.234l-.992-.575q-15.717-9.114-19.9-15.249-4.181-6.135-4.181-14.173 0-10.908 8.507-18.514 8.508-7.607 22.713-7.607 9.228 0 18.457 3.086v7.463q-9.084-4.09-19.395-4.09-10.527 0-16.691 5.31-6.165 5.31-6.165 13.491 0 7.895 4.218 12.558 4.218 4.665 18.205 12.702 14.493 8.181 19.287 14.531 4.795 6.351 4.795 14.604 0 11.84-8.256 19.304-8.255 7.462-23.324 7.462-5.336 0-12.293-1.65-6.958-1.65-10.635-3.803m-256.252-84.734h29.566v-14.503H412.36v14.503h29.494v88.457h17.079zm56.82 100.229 33.311-85.315h-16.872l-18.458 53.573q-.655 2.463-1.029 4.012l-.268 1.159h-.361q-.577-2.463-.918-3.846l-.38-1.469-17.592-53.429h-18.53l29.345 73.394-4.975 12.065q-4.615 9.191-13.988 9.192-3.244 0-7.21-1.293v13.86q3.532.933 8.796.933 18.746 0 29.129-22.836m60.692-22.669h-.288v44.64h-16.711V160.437h16.711v12.918h.288q8.572-14.64 25.066-14.641 14.046 0 21.897 9.833t7.851 26.411q0 18.372-8.859 29.425-8.86 11.052-24.202 11.052-14.118 0-21.753-12.344m-.56-19.482v-9.065q0-9.422 5.434-15.704 5.433-6.282 14.357-6.282 8.42 0 13.349 6.103 4.93 6.104 4.93 16.883 0 12.847-5.29 20.023-5.289 7.174-14.572 7.174-7.917 0-13.062-5.569-5.146-5.567-5.146-13.563m130.648-1.867h-49.841q.285 10.2 6.248 15.731 5.962 5.531 16.387 5.531 11.71 0 21.493-7.039v13.432q-9.996 6.321-26.42 6.321-16.137 0-25.313-10.02t-9.176-28.194q0-17.169 10.104-27.979t25.099-10.811q14.996 0 23.207 9.698 8.212 9.697 8.212 26.937zm-19.774-25.903q4.128 5.01 4.2 14.023h-33.743q1.139-8.508 6.086-13.771 4.948-5.263 12.067-5.263 7.261 0 11.39 5.011m125.249 59.879q11.438 0 19.691-5.019v-6.882q-8.253 5.879-19.402 5.879-12.161 0-19.582-8.676-7.42-8.675-7.42-22.943 0-14.77 8.108-24.055t21.139-9.285q9.483 0 17.447 4.876v-7.457q-7.964-3.442-16.434-3.442-16.36 0-26.785 11.15-10.425 11.148-10.425 28.643 0 16.633 9.267 26.923 9.266 10.288 24.396 10.288m63.241-68.64q-3.296-2.379-7.738-2.379-8.67 0-14.546 9.013t-5.876 25.595v34.681h-6.448v-73.831h6.448v16.366h.287q2.508-8.435 7.954-13.122t12.61-4.687q4.085 0 7.309 1.298zm10.332-26.43q1.68 1.628 3.871 1.628 2.338 0 4.017-1.702 1.68-1.703 1.68-4.07 0-2.517-1.716-3.996a5.9 5.9 0 0 0-3.981-1.48q-2.118 0-3.835 1.517-1.716 1.517-1.716 3.959 0 2.515 1.68 4.144m.051 93.34v-73.543h6.921v73.543zm29.091-13.091h.287q7.887 14.847 24.377 14.847 14.77 0 23.768-11.368t8.998-29.801q0-16.567-7.851-26.214t-21.831-9.647q-8.82 0-16.169 4.411t-11.292 12.516h-.287v-15.133h-6.595v107.223h6.595zm.326-27.333v9.239q0 11.03 7.024 18.945 7.023 7.914 18.464 7.914 11.367 0 18.464-9.634 7.095-9.633 7.095-25.318 0-13.752-6.516-21.846-6.518-8.093-17.378-8.093-12.961 0-20.057 8.595t-7.096 20.198m89.011 42.154c2.99 0 6.2-.811 9.62-2.435v-6.158c-3.14 1.766-6.06 2.649-8.77 2.649-3.8 0-6.5-1.134-8.092-3.401q-2.39-3.402-2.389-10.994v-48.413h19.251v-6.016h-19.251v-21.27c-1.048.382-2.136.74-3.281 1.074q-1.712.573-3.276 1.146v19.05h-13.124v6.016h13.124v49.273q0 19.479 16.188 19.479" fill="#1C222F"/><defs><clipPath id="a"><path fill="#fff" d="M224.442 111.397h143.172v143.172H224.442z"/></clipPath></defs></svg>