<svg width="910" height="286" viewBox="0 0 910 286" fill="none" xmlns="http://www.w3.org/2000/svg"><path d="M142.695.981h624.517c78.384 0 141.927 63.543 141.927 141.927s-63.543 141.927-141.927 141.927H142.695C64.311 284.835.769 221.292.769 142.908S64.31.981 142.695.981" fill="#fff"/><path d="M142.695.981h624.517c78.384 0 141.927 63.543 141.927 141.927s-63.543 141.927-141.927 141.927H142.695C64.311 284.835.769 221.292.769 142.908S64.31.981 142.695.981Z" stroke="#ECE9E1" stroke-width=".818"/><g clip-path="url(#a)"><path d="M275.607 87.072h-89.862c-6.023 0-10.905 4.882-10.905 10.905v89.862c0 6.023 4.882 10.906 10.905 10.906h89.862c6.023 0 10.906-4.883 10.906-10.906V97.977c0-6.023-4.883-10.906-10.906-10.906" fill="#3178C6"/><path fill-rule="evenodd" clip-rule="evenodd" d="M243.943 175.931v10.919q2.662 1.365 6.298 2.047 3.635.683 7.663.683 3.925 0 7.459-.751 3.533-.75 6.196-2.474a12.6 12.6 0 0 0 4.215-4.504q1.554-2.781 1.554-6.875 0-2.97-.888-5.204a12.2 12.2 0 0 0-2.56-3.975q-1.673-1.74-4.011-3.123-2.339-1.381-5.274-2.61a66 66 0 0 1-3.858-1.723q-1.706-.836-2.901-1.706t-1.843-1.843q-.65-.972-.649-2.201 0-1.125.58-2.03t1.639-1.552 2.594-1.007q1.536-.358 3.414-.358 1.365 0 2.884.204 1.519.205 3.056.632 1.536.426 2.986 1.075 1.452.648 2.68 1.501v-10.203q-2.491-.954-5.445-1.416-2.952-.46-6.776-.46-3.891 0-7.373.836-3.482.835-6.128 2.61a13.05 13.05 0 0 0-4.181 4.521q-1.536 2.747-1.536 6.569 0 4.88 2.816 8.326t8.551 5.834q2.253.922 4.199 1.809t3.362 1.842 2.236 2.082.819 2.559a3.9 3.9 0 0 1-.512 1.962q-.512.904-1.553 1.57-1.041.665-2.594 1.04-1.553.376-3.636.376-3.55 0-7.032-1.246t-6.451-3.736m-18.357-26.903h14.008v-8.961h-39.043v8.961h13.939v39.897h11.096z" fill="#fff"/></g><path fill-rule="evenodd" clip-rule="evenodd" d="M526.218 174.161v-5.459q7.474 4.734 15.142 4.734 8.155 0 12.376-3.357 4.223-3.357 4.223-9.395 0-5.314-2.839-8.478-2.738-3.051-11.636-8.235l-.668-.387q-10.58-6.135-13.395-10.265t-2.815-9.54q0-7.342 5.727-12.463t15.288-5.12q6.213 0 12.425 2.077v5.024q-6.115-2.754-13.056-2.754-7.086 0-11.236 3.575-4.149 3.574-4.149 9.081 0 5.313 2.839 8.453 2.84 3.141 12.255 8.55 9.755 5.507 12.983 9.782t3.227 9.83q0 7.97-5.557 12.994t-15.701 5.024q-3.59 0-8.275-1.111-4.683-1.111-7.158-2.56m-172.493-57.037h19.902v-9.763h-51.252v9.763h19.853v59.543h11.497zm38.247 67.467 22.423-57.429h-11.357l-12.424 36.062a123 123 0 0 0-.694 2.701l-.18.78h-.242a216 216 0 0 0-.619-2.588l-.255-.989-11.842-35.966h-12.474l19.754 49.405-3.349 8.121q-3.106 6.187-9.416 6.187-2.184 0-4.853-.87v9.33q2.378.628 5.921.628 12.619 0 19.607-15.372m40.855-15.259h-.194v30.049h-11.249v-72.224h11.249v8.696h.194q5.769-9.855 16.873-9.855 9.454 0 14.739 6.618t5.285 17.778q0 12.368-5.964 19.808-5.963 7.439-16.291 7.439-9.503 0-14.642-8.309m-.377-13.114v-6.102q0-6.343 3.657-10.571 3.658-4.229 9.664-4.229 5.668 0 8.986 4.109 3.32 4.107 3.319 11.364 0 8.649-3.561 13.478t-9.809 4.829q-5.328 0-8.793-3.748-3.463-3.748-3.463-9.13m87.944-1.257h-33.55q.192 6.866 4.205 10.589 4.014 3.723 11.031 3.723 7.884 0 14.468-4.738v9.042q-6.729 4.255-17.784 4.255-10.863 0-17.039-6.745t-6.177-18.979q0-11.556 6.801-18.833 6.802-7.278 16.896-7.277 10.093 0 15.621 6.527t5.528 18.133zm-13.311-17.437q2.78 3.374 2.827 9.44h-22.714q.767-5.727 4.097-9.27t8.123-3.543q4.887 0 7.667 3.373m84.31 40.308q7.7 0 13.255-3.379v-4.633q-5.556 3.958-13.06 3.958-8.187 0-13.182-5.84t-4.995-15.444q0-9.943 5.458-16.192t14.229-6.25q6.384 0 11.745 3.282v-5.02q-5.36-2.316-11.062-2.316-11.013 0-18.03 7.504-7.018 7.506-7.018 19.281 0 11.198 6.238 18.123 6.237 6.926 16.422 6.926m42.57-46.205q-2.219-1.6-5.209-1.601-5.836 0-9.791 6.067-3.955 6.066-3.955 17.229v23.345h-4.341v-49.699h4.341v11.017h.193q1.687-5.678 5.353-8.833 3.666-3.154 8.489-3.154 2.75 0 4.92.873zm6.955-17.791q1.13 1.096 2.606 1.096 1.574 0 2.703-1.146 1.131-1.145 1.132-2.739 0-1.694-1.156-2.69a3.98 3.98 0 0 0-2.679-.996q-1.426 0-2.582 1.021t-1.155 2.665q0 1.694 1.131 2.789m.034 62.831v-49.505h4.659v49.505zm19.582-8.812h.194q5.309 9.994 16.409 9.994 9.942 0 15.999-7.652t6.057-20.06q0-11.153-5.285-17.646t-14.696-6.493q-5.936 0-10.883 2.969t-7.601 8.424h-.194v-10.186h-4.439v72.176h4.439zm.22-18.399v6.219q0 7.425 4.728 12.753 4.727 5.327 12.428 5.327 7.653 0 12.429-6.485 4.777-6.484 4.777-17.043 0-9.256-4.387-14.705t-11.698-5.448q-8.724 0-13.501 5.786t-4.776 13.596m59.914 28.376q3.023 0 6.48-1.639v-4.146q-3.166 1.784-5.906 1.784-3.839 0-5.447-2.29-1.607-2.29-1.607-7.4v-32.589h12.96v-4.049h-12.96v-14.318c-.706.257-1.438.498-2.209.723q-1.152.385-2.205.771v12.824h-8.834v4.049h8.834v33.167q0 13.113 10.894 13.113" fill="#1C222F"/><defs><clipPath id="a"><path fill="#fff" d="M174.84 87.072h111.673v111.673H174.84z"/></clipPath></defs></svg>