<svg width="767" height="264" viewBox="0 0 767 264" fill="none" xmlns="http://www.w3.org/2000/svg"><rect width="767" height="264" rx="132" fill="#EAE7E0"/><path d="M214.292 163.5q-1.088 0-1.631-.363-.544-.453-.997-1.54l-21.661-58.729q-.181-.362-.181-1.087t.634-1.178q.544-.544 1.722-.544h12.326q1.088 0 1.631.453.544.363.907 1.359l14.772 42.869h.725l5.619-16.314 9.063-26.555q.363-.996.907-1.359.634-.453 1.631-.453h12.416q2.266 0 2.266 1.722 0 .363-.181 1.087l-21.661 58.729q-.362.996-.997 1.45-.543.453-1.631.453zm94.484-13.866q1.088 0 1.541.543.453.453.453 1.541v9.698q0 1.087-.453 1.631-.453.453-1.541.453h-46.493q-1.088 0-1.541-.453-.453-.544-.453-1.631v-59.363q0-1.088.453-1.541t1.541-.453h45.587q1.087 0 1.54.453t.454 1.541v9.788q0 1.087-.454 1.54-.453.454-1.54.454h-30.814v11.147h28.095q1.087 0 1.541.453t.453 1.541v9.063q0 1.088-.453 1.631-.454.453-1.541.454h-28.095v11.51zm70.294 10.785q.635.815.635 1.45 0 .725-.544 1.178-.453.453-1.359.453h-14.864q-1.087 0-1.812-.272-.635-.363-1.269-1.269l-19.033-23.835h-1.903v23.292q0 2.084-2.084 2.084h-12.688q-1.088 0-1.541-.453-.453-.544-.453-1.631v-59.363q0-1.088.453-1.541t1.541-.453h39.605q7.885 0 11.419 3.625 3.626 3.535 3.626 11.419v8.792q0 7.884-3.535 11.51-3.534 3.625-11.238 3.625h-2.9zm-40.149-47.038v13.142H357.5q2.63 0 3.535-.906.997-.997.997-3.626v-4.078q0-2.628-.997-3.535-.906-.996-3.535-.997zm67.241 50.572q-8.337 0-12.325-3.897-3.897-3.987-3.897-12.326v-31.992q0-8.338 3.897-12.235 3.988-3.897 12.325-3.897h26.918q8.337 0 12.235 3.897 3.987 3.897 3.987 12.235v6.253q0 2.085-2.084 2.085h-12.96q-2.085 0-2.085-2.085v-3.172q0-2.718-1.178-3.806-1.088-1.178-3.806-1.178h-15.498q-2.72 0-3.897 1.178-1.088 1.088-1.088 3.806v25.83q0 2.72 1.088 3.897 1.178 1.088 3.897 1.088h15.498q2.718 0 3.806-1.088 1.178-1.178 1.178-3.897v-3.172q0-1.088.453-1.541.544-.453 1.632-.453h12.96q1.088 0 1.541.453.543.453.543 1.541v6.253q0 8.339-3.987 12.326-3.898 3.897-12.235 3.897zm104.319-14.319q1.088 0 1.541.543.453.453.453 1.541v9.698q0 1.087-.453 1.631-.453.453-1.541.453h-46.493q-1.088 0-1.541-.453-.453-.544-.453-1.631v-59.363q0-1.088.453-1.541t1.541-.453h45.587q1.088 0 1.541.453t.453 1.541v9.788q0 1.087-.453 1.54t-1.541.454h-30.814v11.147h28.095q1.088 0 1.541.453t.453 1.541v9.063q0 1.088-.453 1.631-.453.453-1.541.454h-28.095v11.51zm15.373 13.866q-1.088 0-1.541-.453-.453-.544-.453-1.631v-59.363q0-1.088.453-1.541t1.541-.453h12.688q1.088 0 1.541.453.543.453.544 1.541v46.493h30.814q1.087 0 1.541.453t.453 1.541v10.876q0 1.087-.453 1.631-.454.453-1.541.453z" fill="#202020"/></svg>