<svg xmlns="http://www.w3.org/2000/svg" version="1.1" xmlns:xlink="http://www.w3.org/1999/xlink" width="19.96" height="20"><svg id="SvgjsSvg1013" data-name="Layer 1" xmlns="http://www.w3.org/2000/svg" viewBox="0 0 19.96 20">
  <defs>
    <style>
      .cls-1 {
        fill: #1d1d1d;
      }
    </style>
  </defs>
  <path class="cls-1" d="M10.64.26c0-.14.12-.26.26-.26h4.4c2.57,0,4.66,2.11,4.66,4.72s-2.09,4.72-4.66,4.72h-4.4c-.14,0-.26-.12-.26-.26,0,0,0-8.92,0-8.92Z"></path>
  <path class="cls-1" d="M0,15.29c0-2.57,2.09-4.66,4.66-4.66h.06c2.61,0,4.72,2.09,4.72,4.66s-2.11,4.66-4.72,4.66h-.06c-2.57,0-4.66-2.09-4.66-4.66Z"></path>
  <path class="cls-1" d="M19.56,19.56c.16.16.05.44-.18.44h-8.44c-.14,0-.26-.12-.26-.26v-8.43c0-.23.28-.35.44-.18,0,0,8.44,8.43,8.44,8.43Z"></path>
  <path class="cls-1" d="M9.38,9.13c.03.16-.09.31-.25.31H2.1c-.12,0-.23-.09-.25-.21L.06.31c-.03-.16.09-.31.25-.31h7.02c.12,0,.23.09.25.21l1.78,8.92h.02Z"></path>
</svg><style>@media (prefers-color-scheme: light) { :root { filter: none; } }
@media (prefers-color-scheme: dark) { :root { filter: none; } }
</style></svg>