<svg width="32" height="32" viewBox="0 0 32 32" fill="none" xmlns="http://www.w3.org/2000/svg">
<path d="M0 14C0 7.40034 0 4.10051 2.05025 2.05025C4.10051 0 7.40034 0 14 0H18C24.5997 0 27.8995 0 29.9497 2.05025C32 4.10051 32 7.40034 32 14V18C32 24.5997 32 27.8995 29.9497 29.9497C27.8995 32 24.5997 32 18 32H14C7.40034 32 4.10051 32 2.05025 29.9497C0 27.8995 0 24.5997 0 18V14Z" fill="#1D1D1D"/>
<g clip-path="url(#clip0_1182_16)">
<path d="M16.3828 6.26C16.3828 6.12 16.5028 6 16.6428 6H21.0428C23.6128 6 25.7028 8.11 25.7028 10.72C25.7028 13.33 23.6128 15.44 21.0428 15.44H16.6428C16.5028 15.44 16.3828 15.32 16.3828 15.18V6.26Z" fill="#D93535"/>
<path d="M6 21.0999C6 18.5299 8.09 16.4399 10.66 16.4399H10.72C13.33 16.4399 15.44 18.5299 15.44 21.0999C15.44 23.6699 13.33 25.7599 10.72 25.7599H10.66C8.09 25.7599 6 23.6699 6 21.0999Z" fill="#D93535"/>
<path d="M25.3214 25.3699C25.4814 25.5299 25.3714 25.8099 25.1414 25.8099H16.7014C16.5614 25.8099 16.4414 25.6899 16.4414 25.5499V17.1199C16.4414 16.8899 16.7214 16.7699 16.8814 16.9399L25.3214 25.3699Z" fill="#D93535"/>
<path d="M15.3793 15.13C15.4093 15.29 15.2893 15.44 15.1293 15.44H8.0993C7.9793 15.44 7.8693 15.35 7.8493 15.23L6.0593 6.31C6.0293 6.15 6.1493 6 6.3093 6H13.3293C13.4493 6 13.5593 6.09 13.5793 6.21L15.3593 15.13H15.3793Z" fill="#D93535"/>
</g>
<defs>
<clipPath id="clip0_1182_16">
<rect width="19.96" height="20" fill="white" transform="translate(6 6)"/>
</clipPath>
</defs>
</svg>
