<svg width="1994" height="28" viewBox="0 0 1994 28" fill="none" xmlns="http://www.w3.org/2000/svg">
<path d="M0.992 2.56001H3.616L8.192 24.32H5.568L0.992 2.56001ZM8.192 24.32H5.568L11.104 2.56001H13.664L8.192 24.32ZM11.2 2.56001H13.76L19.296 24.32H16.672L11.2 2.56001ZM21.28 2.56001H23.872L19.296 24.32H16.704L21.28 2.56001ZM25.835 24.32V2.56001H28.395V24.32H25.835ZM27.307 5.02401V2.56001H40.683V5.02401H27.307ZM27.307 24.32V21.824H40.683V24.32H27.307ZM27.307 14.688V12.192H39.403V14.688H27.307ZM43.9913 24.32V2.56001H46.5513V24.32H43.9913ZM45.0473 5.12001V2.56001H52.2153C53.2179 2.56001 54.1353 2.68801 54.9673 2.94401C55.7993 3.20001 56.5139 3.57334 57.1113 4.06401C57.7086 4.55467 58.1779 5.15201 58.5193 5.85601C58.8606 6.56001 59.0312 7.37067 59.0312 8.28801C59.0312 9.29067 58.8606 10.1547 58.5193 10.88C58.1779 11.584 57.7086 12.16 57.1113 12.608C56.5139 13.056 55.7993 13.3973 54.9673 13.632C54.1353 13.8453 53.2179 13.952 52.2153 13.952H45.0473V11.872H51.8953C52.5779 11.872 53.1966 11.8187 53.7513 11.712C54.3273 11.6053 54.8073 11.424 55.1913 11.168C55.5966 10.8907 55.9059 10.5387 56.1193 10.112C56.3539 9.68534 56.4713 9.16267 56.4713 8.54401C56.4713 7.92534 56.3539 7.39201 56.1193 6.94401C55.9059 6.49601 55.5966 6.14401 55.1913 5.88801C54.8073 5.61067 54.3273 5.41867 53.7513 5.31201C53.1966 5.18401 52.5779 5.12001 51.8953 5.12001H45.0473ZM45.0473 24.32V21.76H53.1753C54.5406 21.76 55.6393 21.472 56.4713 20.896C57.3246 20.2987 57.7513 19.3707 57.7513 18.112C57.7513 16.8533 57.3246 15.9253 56.4713 15.328C55.6393 14.7307 54.5406 14.432 53.1753 14.432H45.0473V12.352H53.4953C54.4979 12.352 55.4153 12.48 56.2473 12.736C57.0793 12.992 57.7939 13.376 58.3913 13.888C58.9886 14.3787 59.4579 14.9973 59.7993 15.744C60.1406 16.4907 60.3113 17.376 60.3113 18.4C60.3113 19.296 60.1406 20.1067 59.7993 20.832C59.4579 21.5573 58.9886 22.1867 58.3913 22.72C57.7939 23.232 57.0793 23.6267 56.2473 23.904C55.4153 24.1813 54.4979 24.32 53.4953 24.32H45.0473ZM70.5538 24.32V2.56001H73.1138V24.32H70.5538ZM72.0258 24.32V21.792H77.2418C79.6311 21.792 81.4018 21.1093 82.5538 19.744C83.7271 18.3787 84.3138 16.2987 84.3138 13.504C84.3138 10.7093 83.7271 8.61867 82.5538 7.23201C81.4018 5.82401 79.6311 5.12001 77.2418 5.12001H72.0258V2.56001H77.7218C78.9591 2.56001 80.1324 2.77334 81.2418 3.20001C82.3511 3.62667 83.3218 4.28801 84.1538 5.18401C84.9858 6.08001 85.6471 7.22134 86.1378 8.60801C86.6284 9.97334 86.8738 11.6053 86.8738 13.504C86.8738 15.4027 86.6284 17.0347 86.1378 18.4C85.6471 19.7653 84.9858 20.8853 84.1538 21.76C83.3218 22.6347 82.3511 23.2853 81.2418 23.712C80.1324 24.1173 78.9591 24.32 77.7218 24.32H72.0258ZM93.9288 24.32V2.56001H96.4888V24.32H93.9288ZM95.4008 5.02401V2.56001H108.777V5.02401H95.4008ZM95.4008 24.32V21.824H108.777V24.32H95.4008ZM95.4008 14.688V12.192H107.497V14.688H95.4008ZM127.925 10.208H125.365C125.365 9.41867 125.248 8.71467 125.013 8.09601C124.778 7.45601 124.426 6.91201 123.957 6.46401C123.509 5.99467 122.944 5.64267 122.261 5.40801C121.6 5.15201 120.842 5.02401 119.989 5.02401C118.261 5.02401 116.992 5.32267 116.181 5.92001C115.37 6.51734 114.965 7.43467 114.965 8.67201C114.965 9.58934 115.296 10.2507 115.957 10.656C116.618 11.04 117.45 11.328 118.453 11.52C119.456 11.712 120.533 11.872 121.685 12C122.858 12.1067 123.936 12.352 124.917 12.736C125.92 13.12 126.752 13.7067 127.413 14.496C128.074 15.2853 128.405 16.4373 128.405 17.952C128.405 19.0187 128.192 19.9573 127.765 20.768C127.36 21.5573 126.784 22.2187 126.037 22.752C125.312 23.264 124.437 23.6587 123.413 23.936C122.389 24.192 121.269 24.32 120.053 24.32C118.837 24.32 117.728 24.1067 116.725 23.68C115.744 23.2533 114.912 22.6773 114.229 21.952C113.546 21.2267 113.013 20.384 112.629 19.424C112.266 18.4427 112.085 17.4187 112.085 16.352H114.645C114.645 18.016 115.146 19.3493 116.149 20.352C117.173 21.3333 118.581 21.824 120.373 21.824C122.165 21.824 123.52 21.4827 124.437 20.8C125.376 20.1173 125.845 19.0613 125.845 17.632C125.845 16.6507 125.514 15.9467 124.853 15.52C124.192 15.072 123.36 14.7413 122.357 14.528C121.376 14.2933 120.298 14.112 119.125 13.984C117.973 13.8347 116.896 13.5787 115.893 13.216C114.89 12.8533 114.058 12.2987 113.397 11.552C112.736 10.8053 112.405 9.71734 112.405 8.28801C112.405 7.30667 112.597 6.46401 112.981 5.76001C113.365 5.03467 113.888 4.43734 114.549 3.96801C115.232 3.49867 116.042 3.14667 116.981 2.91201C117.92 2.67734 118.944 2.56001 120.053 2.56001C121.269 2.56001 122.368 2.76267 123.349 3.16801C124.33 3.55201 125.152 4.08534 125.813 4.76801C126.496 5.45067 127.018 6.26134 127.381 7.20001C127.744 8.13867 127.925 9.14134 127.925 10.208ZM129.804 24.32V21.824H146.124V24.32H129.804ZM129.804 5.02401V2.56001H146.124V5.02401H129.804ZM136.684 23.264V3.52001H139.244V23.264H136.684ZM157.046 16.736V14.56H164.342V16.736H157.046ZM161.91 24.32V14.816H164.342V24.32H161.91ZM161.878 16.16H162.486C162.486 17.5253 162.347 18.7413 162.07 19.808C161.814 20.8533 161.408 21.7387 160.854 22.464C160.32 23.168 159.648 23.712 158.838 24.096C158.027 24.4587 157.067 24.64 155.958 24.64C154.699 24.64 153.579 24.416 152.598 23.968C151.616 23.4987 150.795 22.8373 150.134 21.984C149.472 21.1307 148.96 20.1067 148.598 18.912C148.256 17.7173 148.086 16.3733 148.086 14.88V12C148.086 10.5067 148.256 9.16267 148.598 7.96801C148.96 6.75201 149.483 5.72801 150.166 4.89601C150.848 4.04267 151.702 3.39201 152.726 2.94401C153.75 2.47467 154.923 2.24001 156.246 2.24001C158.72 2.24001 160.63 3.00801 161.974 4.54401C163.339 6.05867 164.128 8.11734 164.342 10.72H161.814C161.728 9.82401 161.558 9.01334 161.302 8.28801C161.067 7.56267 160.726 6.94401 160.278 6.43201C159.83 5.89867 159.264 5.49334 158.582 5.21601C157.92 4.93867 157.142 4.80001 156.246 4.80001C155.243 4.80001 154.39 4.97067 153.686 5.31201C152.982 5.65334 152.395 6.14401 151.926 6.78401C151.478 7.40267 151.147 8.16001 150.934 9.05601C150.72 9.93067 150.614 10.912 150.614 12V14.88C150.614 15.968 150.72 16.96 150.934 17.856C151.147 18.7307 151.478 19.488 151.926 20.128C152.395 20.7467 152.982 21.2267 153.686 21.568C154.39 21.9093 155.243 22.08 156.246 22.08C157.184 22.08 157.995 21.9307 158.678 21.632C159.36 21.3333 159.926 20.928 160.374 20.416C160.822 19.8827 161.163 19.264 161.398 18.56C161.654 17.8347 161.814 17.0347 161.878 16.16ZM166.21 24.32V2.56001H168.77V24.32H166.21ZM182.53 24.32V2.56001H185.09V24.32H182.53ZM185.09 24.32H182.53L166.21 3.42401V2.56001H168.77L185.09 23.456V24.32ZM277.371 16.48C275.803 16.48 274.491 15.392 274.491 13.6C274.491 11.808 275.803 10.72 277.371 10.72C278.971 10.72 280.283 11.808 280.283 13.6C280.283 15.392 278.971 16.48 277.371 16.48ZM369.679 2.56001H372.239V15.968C372.239 16.8427 372.367 17.664 372.623 18.432C372.879 19.1787 373.241 19.8187 373.711 20.352C374.201 20.8853 374.777 21.312 375.439 21.632C376.1 21.9307 376.847 22.08 377.679 22.08C378.511 22.08 379.279 21.9307 379.983 21.632C380.687 21.3333 381.295 20.9173 381.807 20.384C382.319 19.8293 382.713 19.1787 382.991 18.432C383.289 17.6853 383.439 16.864 383.439 15.968V2.56001H385.999V15.968C385.999 17.2053 385.785 18.3573 385.359 19.424C384.953 20.4693 384.377 21.3867 383.631 22.176C382.905 22.944 382.031 23.552 381.007 24C380.004 24.4267 378.905 24.64 377.711 24.64C376.516 24.64 375.428 24.4267 374.447 24C373.465 23.552 372.623 22.944 371.919 22.176C371.215 21.3867 370.66 20.4693 370.255 19.424C369.871 18.3573 369.679 17.2053 369.679 15.968V2.56001ZM387.929 24.32V21.824H404.249V24.32H387.929ZM387.929 5.02401V2.56001H404.249V5.02401H387.929ZM394.809 23.264V3.52001H397.369V23.264H394.809ZM422.651 5.72205e-06H425.243L417.115 27.52H414.523L422.651 5.72205e-06ZM435.523 2.56001H438.083V15.968C438.083 16.8427 438.211 17.664 438.467 18.432C438.723 19.1787 439.085 19.8187 439.555 20.352C440.045 20.8853 440.621 21.312 441.283 21.632C441.944 21.9307 442.691 22.08 443.523 22.08C444.355 22.08 445.123 21.9307 445.827 21.632C446.531 21.3333 447.139 20.9173 447.651 20.384C448.163 19.8293 448.557 19.1787 448.835 18.432C449.133 17.6853 449.283 16.864 449.283 15.968V2.56001H451.843V15.968C451.843 17.2053 451.629 18.3573 451.203 19.424C450.797 20.4693 450.221 21.3867 449.475 22.176C448.749 22.944 447.875 23.552 446.851 24C445.848 24.4267 444.749 24.64 443.555 24.64C442.36 24.64 441.272 24.4267 440.291 24C439.309 23.552 438.467 22.944 437.763 22.176C437.059 21.3867 436.504 20.4693 436.099 19.424C435.715 18.3573 435.523 17.2053 435.523 15.968V2.56001ZM453.773 2.56001H456.749L461.933 11.392L467.149 2.56001H470.093L463.725 13.44L470.093 24.32H467.149L461.933 15.488L456.749 24.32H453.773L460.141 13.44L453.773 2.56001ZM480.71 24.32V2.56001H483.27V24.32H480.71ZM482.182 24.32V21.792H487.398C489.787 21.792 491.558 21.1093 492.71 19.744C493.883 18.3787 494.47 16.2987 494.47 13.504C494.47 10.7093 493.883 8.61867 492.71 7.23201C491.558 5.82401 489.787 5.12001 487.398 5.12001H482.182V2.56001H487.878C489.115 2.56001 490.289 2.77334 491.398 3.20001C492.507 3.62667 493.478 4.28801 494.31 5.18401C495.142 6.08001 495.803 7.22134 496.294 8.60801C496.785 9.97334 497.03 11.6053 497.03 13.504C497.03 15.4027 496.785 17.0347 496.294 18.4C495.803 19.7653 495.142 20.8853 494.31 21.76C493.478 22.6347 492.507 23.2853 491.398 23.712C490.289 24.1173 489.115 24.32 487.878 24.32H482.182ZM504.085 24.32V2.56001H506.645V24.32H504.085ZM505.557 5.02401V2.56001H518.933V5.02401H505.557ZM505.557 24.32V21.824H518.933V24.32H505.557ZM505.557 14.688V12.192H517.653V14.688H505.557ZM538.081 10.208H535.521C535.521 9.41867 535.404 8.71467 535.169 8.09601C534.935 7.45601 534.583 6.91201 534.113 6.46401C533.665 5.99467 533.1 5.64267 532.417 5.40801C531.756 5.15201 530.999 5.02401 530.145 5.02401C528.417 5.02401 527.148 5.32267 526.337 5.92001C525.527 6.51734 525.121 7.43467 525.121 8.67201C525.121 9.58934 525.452 10.2507 526.113 10.656C526.775 11.04 527.607 11.328 528.609 11.52C529.612 11.712 530.689 11.872 531.841 12C533.015 12.1067 534.092 12.352 535.073 12.736C536.076 13.12 536.908 13.7067 537.569 14.496C538.231 15.2853 538.561 16.4373 538.561 17.952C538.561 19.0187 538.348 19.9573 537.921 20.768C537.516 21.5573 536.94 22.2187 536.193 22.752C535.468 23.264 534.593 23.6587 533.569 23.936C532.545 24.192 531.425 24.32 530.209 24.32C528.993 24.32 527.884 24.1067 526.881 23.68C525.9 23.2533 525.068 22.6773 524.385 21.952C523.703 21.2267 523.169 20.384 522.785 19.424C522.423 18.4427 522.241 17.4187 522.241 16.352H524.801C524.801 18.016 525.303 19.3493 526.305 20.352C527.329 21.3333 528.737 21.824 530.529 21.824C532.321 21.824 533.676 21.4827 534.593 20.8C535.532 20.1173 536.001 19.0613 536.001 17.632C536.001 16.6507 535.671 15.9467 535.009 15.52C534.348 15.072 533.516 14.7413 532.513 14.528C531.532 14.2933 530.455 14.112 529.281 13.984C528.129 13.8347 527.052 13.5787 526.049 13.216C525.047 12.8533 524.215 12.2987 523.553 11.552C522.892 10.8053 522.561 9.71734 522.561 8.28801C522.561 7.30667 522.753 6.46401 523.137 5.76001C523.521 5.03467 524.044 4.43734 524.705 3.96801C525.388 3.49867 526.199 3.14667 527.137 2.91201C528.076 2.67734 529.1 2.56001 530.209 2.56001C531.425 2.56001 532.524 2.76267 533.505 3.16801C534.487 3.55201 535.308 4.08534 535.969 4.76801C536.652 5.45067 537.175 6.26134 537.537 7.20001C537.9 8.13867 538.081 9.14134 538.081 10.208ZM539.96 24.32V21.824H556.28V24.32H539.96ZM539.96 5.02401V2.56001H556.28V5.02401H539.96ZM546.84 23.264V3.52001H549.4V23.264H546.84ZM567.202 16.736V14.56H574.498V16.736H567.202ZM572.066 24.32V14.816H574.498V24.32H572.066ZM572.034 16.16H572.642C572.642 17.5253 572.503 18.7413 572.226 19.808C571.97 20.8533 571.565 21.7387 571.01 22.464C570.477 23.168 569.805 23.712 568.994 24.096C568.183 24.4587 567.223 24.64 566.114 24.64C564.855 24.64 563.735 24.416 562.754 23.968C561.773 23.4987 560.951 22.8373 560.29 21.984C559.629 21.1307 559.117 20.1067 558.754 18.912C558.413 17.7173 558.242 16.3733 558.242 14.88V12C558.242 10.5067 558.413 9.16267 558.754 7.96801C559.117 6.75201 559.639 5.72801 560.322 4.89601C561.005 4.04267 561.858 3.39201 562.882 2.94401C563.906 2.47467 565.079 2.24001 566.402 2.24001C568.877 2.24001 570.786 3.00801 572.13 4.54401C573.495 6.05867 574.285 8.11734 574.498 10.72H571.97C571.885 9.82401 571.714 9.01334 571.458 8.28801C571.223 7.56267 570.882 6.94401 570.434 6.43201C569.986 5.89867 569.421 5.49334 568.738 5.21601C568.077 4.93867 567.298 4.80001 566.402 4.80001C565.399 4.80001 564.546 4.97067 563.842 5.31201C563.138 5.65334 562.551 6.14401 562.082 6.78401C561.634 7.40267 561.303 8.16001 561.09 9.05601C560.877 9.93067 560.77 10.912 560.77 12V14.88C560.77 15.968 560.877 16.96 561.09 17.856C561.303 18.7307 561.634 19.488 562.082 20.128C562.551 20.7467 563.138 21.2267 563.842 21.568C564.546 21.9093 565.399 22.08 566.402 22.08C567.341 22.08 568.151 21.9307 568.834 21.632C569.517 21.3333 570.082 20.928 570.53 20.416C570.978 19.8827 571.319 19.264 571.554 18.56C571.81 17.8347 571.97 17.0347 572.034 16.16ZM576.366 24.32V2.56001H578.926V24.32H576.366ZM592.686 24.32V2.56001H595.246V24.32H592.686ZM595.246 24.32H592.686L576.366 3.42401V2.56001H578.926L595.246 23.456V24.32ZM687.527 16.48C685.959 16.48 684.647 15.392 684.647 13.6C684.647 11.808 685.959 10.72 687.527 10.72C689.127 10.72 690.439 11.808 690.439 13.6C690.439 15.392 689.127 16.48 687.527 16.48ZM796.123 16.16C796.016 17.4613 795.76 18.6347 795.355 19.68C794.971 20.7253 794.438 21.6213 793.755 22.368C793.094 23.0933 792.283 23.6587 791.323 24.064C790.363 24.448 789.264 24.64 788.027 24.64C786.704 24.64 785.531 24.416 784.507 23.968C783.483 23.4987 782.63 22.8373 781.947 21.984C781.264 21.1307 780.742 20.1067 780.379 18.912C780.038 17.7173 779.867 16.3733 779.867 14.88V12C779.867 10.5067 780.038 9.16267 780.379 7.96801C780.742 6.75201 781.264 5.72801 781.947 4.89601C782.63 4.04267 783.483 3.39201 784.507 2.94401C785.531 2.47467 786.704 2.24001 788.027 2.24001C790.502 2.24001 792.411 3.00801 793.755 4.54401C795.12 6.05867 795.91 8.11734 796.123 10.72H793.595C793.51 9.82401 793.339 9.01334 793.083 8.28801C792.848 7.56267 792.507 6.94401 792.059 6.43201C791.611 5.89867 791.046 5.49334 790.363 5.21601C789.702 4.93867 788.923 4.80001 788.027 4.80001C787.024 4.80001 786.171 4.97067 785.467 5.31201C784.763 5.65334 784.176 6.14401 783.707 6.78401C783.259 7.40267 782.928 8.16001 782.715 9.05601C782.502 9.93067 782.395 10.912 782.395 12V14.88C782.395 15.968 782.502 16.96 782.715 17.856C782.928 18.7307 783.259 19.488 783.707 20.128C784.176 20.7467 784.763 21.2267 785.467 21.568C786.171 21.9093 787.024 22.08 788.027 22.08C788.923 22.08 789.702 21.9413 790.363 21.664C791.046 21.3653 791.611 20.96 792.059 20.448C792.507 19.936 792.848 19.3173 793.083 18.592C793.339 17.8667 793.51 17.056 793.595 16.16H796.123ZM816.79 24.32H813.622L806.678 15.168H809.846L816.79 24.32ZM800.054 2.56001H802.614V24.32H800.054V2.56001ZM801.526 13.152H809.174C810.624 13.152 811.755 12.8213 812.566 12.16C813.398 11.4987 813.814 10.5173 813.814 9.21601C813.814 7.93601 813.398 6.93334 812.566 6.20801C811.755 5.48267 810.624 5.12001 809.174 5.12001H801.526V2.56001H809.654C810.592 2.56001 811.467 2.73067 812.278 3.07201C813.088 3.41334 813.792 3.89334 814.39 4.51201C815.008 5.10934 815.488 5.81334 815.83 6.62401C816.192 7.41334 816.374 8.27734 816.374 9.21601C816.374 10.1333 816.203 10.9867 815.862 11.776C815.52 12.5653 815.04 13.248 814.422 13.824C813.824 14.4 813.12 14.8587 812.31 15.2C811.499 15.52 810.614 15.68 809.654 15.68H801.526V13.152ZM819.96 24.32V2.56001H822.52V24.32H819.96ZM821.432 5.02401V2.56001H834.808V5.02401H821.432ZM821.432 24.32V21.824H834.808V24.32H821.432ZM821.432 14.688V12.192H833.528V14.688H821.432ZM841.54 18.624V16.128H850.98V18.624H841.54ZM838.116 24.32L844.772 2.56001H846.276H847.268L846.276 5.76001L840.772 24.32H838.116ZM847.78 2.56001L854.436 24.32H851.78L846.276 5.76001L845.284 2.56001H846.276H847.78ZM857.679 5.02401V2.56001H873.999V5.02401H857.679ZM864.559 24.32V3.71201H867.119V24.32H864.559ZM875.929 24.32V21.824H892.249V24.32H875.929ZM875.929 5.02401V2.56001H892.249V5.02401H875.929ZM882.809 23.264V3.52001H885.369V23.264H882.809ZM894.179 2.56001H896.771L903.043 24.32H900.451L894.179 2.56001ZM907.907 2.56001H910.499L904.259 24.32H901.635L907.907 2.56001ZM913.148 24.32V2.56001H915.708V24.32H913.148ZM914.62 5.02401V2.56001H927.996V5.02401H914.62ZM914.62 24.32V21.824H927.996V24.32H914.62ZM914.62 14.688V12.192H926.716V14.688H914.62ZM939.616 24.32V2.56001H942.176V24.32H939.616ZM941.088 24.32V21.792H946.304C948.694 21.792 950.464 21.1093 951.616 19.744C952.79 18.3787 953.376 16.2987 953.376 13.504C953.376 10.7093 952.79 8.61867 951.616 7.23201C950.464 5.82401 948.694 5.12001 946.304 5.12001H941.088V2.56001H946.784C948.022 2.56001 949.195 2.77334 950.304 3.20001C951.414 3.62667 952.384 4.28801 953.216 5.18401C954.048 6.08001 954.71 7.22134 955.2 8.60801C955.691 9.97334 955.936 11.6053 955.936 13.504C955.936 15.4027 955.691 17.0347 955.2 18.4C954.71 19.7653 954.048 20.8853 953.216 21.76C952.384 22.6347 951.414 23.2853 950.304 23.712C949.195 24.1173 948.022 24.32 946.784 24.32H941.088ZM962.991 24.32V2.56001H965.551V24.32H962.991ZM964.463 5.02401V2.56001H977.839V5.02401H964.463ZM964.463 24.32V21.824H977.839V24.32H964.463ZM964.463 14.688V12.192H976.559V14.688H964.463ZM996.988 10.208H994.428C994.428 9.41867 994.31 8.71467 994.076 8.09601C993.841 7.45601 993.489 6.91201 993.02 6.46401C992.572 5.99467 992.006 5.64267 991.324 5.40801C990.662 5.15201 989.905 5.02401 989.052 5.02401C987.324 5.02401 986.054 5.32267 985.244 5.92001C984.433 6.51734 984.028 7.43467 984.028 8.67201C984.028 9.58934 984.358 10.2507 985.02 10.656C985.681 11.04 986.513 11.328 987.516 11.52C988.518 11.712 989.596 11.872 990.748 12C991.921 12.1067 992.998 12.352 993.98 12.736C994.982 13.12 995.814 13.7067 996.476 14.496C997.137 15.2853 997.468 16.4373 997.468 17.952C997.468 19.0187 997.254 19.9573 996.828 20.768C996.422 21.5573 995.846 22.2187 995.1 22.752C994.374 23.264 993.5 23.6587 992.476 23.936C991.452 24.192 990.332 24.32 989.116 24.32C987.9 24.32 986.79 24.1067 985.788 23.68C984.806 23.2533 983.974 22.6773 983.292 21.952C982.609 21.2267 982.076 20.384 981.692 19.424C981.329 18.4427 981.148 17.4187 981.148 16.352H983.708C983.708 18.016 984.209 19.3493 985.212 20.352C986.236 21.3333 987.644 21.824 989.436 21.824C991.228 21.824 992.582 21.4827 993.5 20.8C994.438 20.1173 994.908 19.0613 994.908 17.632C994.908 16.6507 994.577 15.9467 993.916 15.52C993.254 15.072 992.422 14.7413 991.42 14.528C990.438 14.2933 989.361 14.112 988.188 13.984C987.036 13.8347 985.958 13.5787 984.956 13.216C983.953 12.8533 983.121 12.2987 982.46 11.552C981.798 10.8053 981.468 9.71734 981.468 8.28801C981.468 7.30667 981.66 6.46401 982.044 5.76001C982.428 5.03467 982.95 4.43734 983.612 3.96801C984.294 3.49867 985.105 3.14667 986.044 2.91201C986.982 2.67734 988.006 2.56001 989.116 2.56001C990.332 2.56001 991.43 2.76267 992.412 3.16801C993.393 3.55201 994.214 4.08534 994.876 4.76801C995.558 5.45067 996.081 6.26134 996.444 7.20001C996.806 8.13867 996.988 9.14134 996.988 10.208ZM998.866 24.32V21.824H1015.19V24.32H998.866ZM998.866 5.02401V2.56001H1015.19V5.02401H998.866ZM1005.75 23.264V3.52001H1008.31V23.264H1005.75ZM1026.11 16.736V14.56H1033.4V16.736H1026.11ZM1030.97 24.32V14.816H1033.4V24.32H1030.97ZM1030.94 16.16H1031.55C1031.55 17.5253 1031.41 18.7413 1031.13 19.808C1030.88 20.8533 1030.47 21.7387 1029.92 22.464C1029.38 23.168 1028.71 23.712 1027.9 24.096C1027.09 24.4587 1026.13 24.64 1025.02 24.64C1023.76 24.64 1022.64 24.416 1021.66 23.968C1020.68 23.4987 1019.86 22.8373 1019.2 21.984C1018.53 21.1307 1018.02 20.1067 1017.66 18.912C1017.32 17.7173 1017.15 16.3733 1017.15 14.88V12C1017.15 10.5067 1017.32 9.16267 1017.66 7.96801C1018.02 6.75201 1018.55 5.72801 1019.23 4.89601C1019.91 4.04267 1020.76 3.39201 1021.79 2.94401C1022.81 2.47467 1023.99 2.24001 1025.31 2.24001C1027.78 2.24001 1029.69 3.00801 1031.04 4.54401C1032.4 6.05867 1033.19 8.11734 1033.4 10.72H1030.88C1030.79 9.82401 1030.62 9.01334 1030.36 8.28801C1030.13 7.56267 1029.79 6.94401 1029.34 6.43201C1028.89 5.89867 1028.33 5.49334 1027.64 5.21601C1026.98 4.93867 1026.2 4.80001 1025.31 4.80001C1024.31 4.80001 1023.45 4.97067 1022.75 5.31201C1022.04 5.65334 1021.46 6.14401 1020.99 6.78401C1020.54 7.40267 1020.21 8.16001 1020 9.05601C1019.78 9.93067 1019.68 10.912 1019.68 12V14.88C1019.68 15.968 1019.78 16.96 1020 17.856C1020.21 18.7307 1020.54 19.488 1020.99 20.128C1021.46 20.7467 1022.04 21.2267 1022.75 21.568C1023.45 21.9093 1024.31 22.08 1025.31 22.08C1026.25 22.08 1027.06 21.9307 1027.74 21.632C1028.42 21.3333 1028.99 20.928 1029.44 20.416C1029.88 19.8827 1030.23 19.264 1030.46 18.56C1030.72 17.8347 1030.88 17.0347 1030.94 16.16ZM1035.27 24.32V2.56001H1037.83V24.32H1035.27ZM1051.59 24.32V2.56001H1054.15V24.32H1051.59ZM1054.15 24.32H1051.59L1035.27 3.42401V2.56001H1037.83L1054.15 23.456V24.32ZM1146.43 16.48C1144.87 16.48 1143.55 15.392 1143.55 13.6C1143.55 11.808 1144.87 10.72 1146.43 10.72C1148.03 10.72 1149.35 11.808 1149.35 13.6C1149.35 15.392 1148.03 16.48 1146.43 16.48ZM1238.74 24.32V2.56001H1241.3V24.32H1238.74ZM1240.21 24.32V21.792H1245.43C1247.82 21.792 1249.59 21.1093 1250.74 19.744C1251.91 18.3787 1252.5 16.2987 1252.5 13.504C1252.5 10.7093 1251.91 8.61867 1250.74 7.23201C1249.59 5.82401 1247.82 5.12001 1245.43 5.12001H1240.21V2.56001H1245.91C1247.15 2.56001 1248.32 2.77334 1249.43 3.20001C1250.54 3.62667 1251.51 4.28801 1252.34 5.18401C1253.17 6.08001 1253.83 7.22134 1254.33 8.60801C1254.82 9.97334 1255.06 11.6053 1255.06 13.504C1255.06 15.4027 1254.82 17.0347 1254.33 18.4C1253.83 19.7653 1253.17 20.8853 1252.34 21.76C1251.51 22.6347 1250.54 23.2853 1249.43 23.712C1248.32 24.1173 1247.15 24.32 1245.91 24.32H1240.21ZM1262.12 24.32V2.56001H1264.68V24.32H1262.12ZM1263.59 5.02401V2.56001H1276.96V5.02401H1263.59ZM1263.59 24.32V21.824H1276.96V24.32H1263.59ZM1263.59 14.688V12.192H1275.68V14.688H1263.59ZM1280.27 2.56001H1282.86L1289.14 24.32H1286.54L1280.27 2.56001ZM1294 2.56001H1296.59L1290.35 24.32H1287.73L1294 2.56001ZM1299.24 24.32V2.56001H1301.8V24.32H1299.24ZM1300.71 5.02401V2.56001H1314.09V5.02401H1300.71ZM1300.71 24.32V21.824H1314.09V24.32H1300.71ZM1300.71 14.688V12.192H1312.81V14.688H1300.71ZM1317.4 24.32V2.56001H1319.96V24.32H1317.4ZM1318.87 24.32V21.824H1331.29V24.32H1318.87ZM1334.21 12C1334.21 10.5067 1334.38 9.16267 1334.72 7.96801C1335.09 6.75201 1335.61 5.72801 1336.29 4.89601C1336.97 4.04267 1337.83 3.39201 1338.85 2.94401C1339.87 2.47467 1341.05 2.24001 1342.37 2.24001C1343.69 2.24001 1344.86 2.47467 1345.86 2.94401C1346.88 3.39201 1347.74 4.04267 1348.42 4.89601C1349.12 5.72801 1349.65 6.75201 1349.99 7.96801C1350.35 9.16267 1350.53 10.5067 1350.53 12V14.88C1350.53 16.352 1350.35 17.696 1349.99 18.912C1349.65 20.1067 1349.12 21.1307 1348.42 21.984C1347.74 22.8373 1346.88 23.4987 1345.86 23.968C1344.86 24.416 1343.69 24.64 1342.37 24.64C1341.05 24.64 1339.87 24.416 1338.85 23.968C1337.83 23.4987 1336.97 22.8373 1336.29 21.984C1335.61 21.1307 1335.09 20.1067 1334.72 18.912C1334.38 17.7173 1334.21 16.3733 1334.21 14.88V12ZM1336.74 12V14.88C1336.74 15.968 1336.85 16.96 1337.06 17.856C1337.27 18.7307 1337.6 19.488 1338.05 20.128C1338.52 20.7467 1339.11 21.2267 1339.81 21.568C1340.51 21.9093 1341.37 22.08 1342.37 22.08C1343.37 22.08 1344.23 21.9093 1344.93 21.568C1345.63 21.2267 1346.21 20.7467 1346.66 20.128C1347.11 19.488 1347.44 18.7307 1347.65 17.856C1347.86 16.96 1347.97 15.968 1347.97 14.88V12C1347.97 10.912 1347.86 9.93067 1347.65 9.05601C1347.44 8.16001 1347.11 7.40267 1346.66 6.78401C1346.21 6.14401 1345.63 5.65334 1344.93 5.31201C1344.23 4.97067 1343.37 4.80001 1342.37 4.80001C1341.37 4.80001 1340.51 4.97067 1339.81 5.31201C1339.11 5.65334 1338.52 6.14401 1338.05 6.78401C1337.6 7.40267 1337.27 8.16001 1337.06 9.05601C1336.85 9.93067 1336.74 10.912 1336.74 12ZM1352.46 24.32V2.56001H1355.02V24.32H1352.46ZM1353.93 15.68V13.152H1361.58C1363.03 13.152 1364.16 12.8213 1364.97 12.16C1365.8 11.4987 1366.22 10.5173 1366.22 9.21601C1366.22 7.93601 1365.8 6.93334 1364.97 6.20801C1364.16 5.48267 1363.03 5.12001 1361.58 5.12001H1353.93V2.56001H1362.06C1363 2.56001 1363.87 2.73067 1364.68 3.07201C1365.49 3.41334 1366.2 3.89334 1366.8 4.51201C1367.41 5.10934 1367.89 5.81334 1368.24 6.62401C1368.6 7.41334 1368.78 8.27734 1368.78 9.21601C1368.78 10.1333 1368.61 10.9867 1368.27 11.776C1367.93 12.5653 1367.45 13.248 1366.83 13.824C1366.23 14.4 1365.53 14.8587 1364.72 15.2C1363.91 15.52 1363.02 15.68 1362.06 15.68H1353.93ZM1371.52 24.32V2.56001H1374.08V24.32H1371.52ZM1388.8 24.32V2.56001H1391.36V24.32H1388.8ZM1372 2.56001H1374.5L1382.69 24.32H1380.19L1372 2.56001ZM1388.39 2.56001H1390.88L1382.69 24.32H1380.19L1388.39 2.56001ZM1393.27 24.32V2.56001H1395.83V24.32H1393.27ZM1394.74 5.02401V2.56001H1408.12V5.02401H1394.74ZM1394.74 24.32V21.824H1408.12V24.32H1394.74ZM1394.74 14.688V12.192H1406.84V14.688H1394.74ZM1411.43 24.32V2.56001H1413.99V24.32H1411.43ZM1427.75 24.32V2.56001H1430.31V24.32H1427.75ZM1430.31 24.32H1427.75L1411.43 3.42401V2.56001H1413.99L1430.31 23.456V24.32ZM1432.24 5.02401V2.56001H1448.56V5.02401H1432.24ZM1439.12 24.32V3.71201H1441.68V24.32H1439.12ZM1540.84 16.48C1539.27 16.48 1537.96 15.392 1537.96 13.6C1537.96 11.808 1539.27 10.72 1540.84 10.72C1542.44 10.72 1543.75 11.808 1543.75 13.6C1543.75 15.392 1542.44 16.48 1540.84 16.48ZM1636.38 24.32H1634.11V2.88001H1637.21L1644.41 16.864L1646.3 20.832H1646.46L1648.32 16.864L1655.48 2.88001H1658.62V24.32H1656.35V9.21601L1656.41 6.33601H1656.22L1654.88 9.21601L1647.74 23.04H1644.99L1637.85 9.21601L1636.48 6.33601H1636.32L1636.38 9.21601V24.32ZM1663.16 24.32H1660.66L1670.36 2.88001H1673.52L1683.25 24.32H1680.69L1677.81 18.016H1666.04L1663.16 24.32ZM1670.64 7.84001L1666.96 15.968H1676.88L1673.17 7.84001L1671.99 5.05601H1671.8L1670.64 7.84001ZM1687.6 24.32H1685.33V2.88001H1695.82C1700.3 2.88001 1703.34 5.15201 1703.34 9.08801C1703.34 12.704 1700.69 14.944 1696.72 15.04V15.2C1698.13 15.584 1698.93 16.512 1699.66 17.76L1703.69 24.32H1701.07L1697.26 18.112C1696.17 16.32 1695.05 15.552 1692.21 15.552H1687.6V24.32ZM1687.6 4.96001V13.728H1695.79C1699.18 13.728 1700.97 12.384 1700.97 9.34401C1700.97 6.30401 1699.18 4.96001 1695.79 4.96001H1687.6ZM1708.6 24.32H1706.33V2.88001H1708.6V12.544H1716.05L1722.81 2.88001H1725.53L1718.01 13.472L1725.56 24.32H1722.84L1716.12 14.752H1708.6V24.32ZM1744.18 24.32H1727.89V2.88001H1744.18V4.96001H1730.16V12.512H1743.7V14.56H1730.16V22.24H1744.18V24.32ZM1756.89 24.32H1754.62V4.96001H1745.79V2.88001H1765.69V4.96001H1756.89V24.32ZM1770.22 24.32H1767.95V2.88001H1770.22V24.32ZM1776.32 24.32H1774.05V2.88001H1776.54L1787.77 17.44L1790.37 21.024H1790.56L1790.49 17.504V2.88001H1792.77V24.32H1790.27L1779.1 9.92001L1776.41 6.30401H1776.25L1776.32 9.88801V24.32ZM1806.18 24.64C1800.06 24.64 1795.78 20.288 1795.78 13.6C1795.78 6.91201 1800.22 2.56001 1806.62 2.56001C1812.19 2.56001 1816.35 5.60001 1816.35 10.368V10.656H1813.89V10.368C1813.89 6.81601 1811.33 4.76801 1806.59 4.76801C1801.18 4.76801 1798.18 7.77601 1798.18 13.6C1798.18 19.424 1801.15 22.432 1806.5 22.432C1811.58 22.432 1814.08 20.512 1814.08 16.352V15.552H1805.57V13.76H1816.38V24.32H1814.34V19.648H1814.18C1813.09 23.104 1809.98 24.64 1806.18 24.64ZM1909.18 16.48C1907.62 16.48 1906.3 15.392 1906.3 13.6C1906.3 11.808 1907.62 10.72 1909.18 10.72C1910.78 10.72 1912.1 11.808 1912.1 13.6C1912.1 15.392 1910.78 16.48 1909.18 16.48Z" fill="#1C222F"/>
</svg>
