<?xml version="1.0" encoding="UTF-8"?>
<svg id="Layer_1" xmlns="http://www.w3.org/2000/svg" version="1.1" xmlns:xlink="http://www.w3.org/1999/xlink" viewBox="0 0 1994 109">
  <!-- Generator: Adobe Illustrator 29.7.1, SVG Export Plug-In . SVG Version: 2.1.1 Build 8)  -->
  <defs>
    <style>
      .st0 {
        fill: #fff;
      }

      .st1 {
        fill: #1c222f;
      }

      .st2 {
        clip-path: url(#clippath);
      }
    </style>
    <clipPath id="clippath">
      <rect class="st0" width="1994.01" height="108.43"/>
    </clipPath>
  </defs>
  <rect class="st0" width="1994.01" height="108.43"/>
  <g class="st2">
    <path class="st1" d="M29.86,107.25H0V1.26h30.01c10.85,0,18.69,1.98,23.55,5.94,4.85,3.96,7.38,10.44,7.58,19.45.3,9.85.45,19.02.45,27.54s-.15,17.64-.45,27.53c-.2,9.1-2.72,15.64-7.58,19.59-4.85,3.96-12.75,5.94-23.7,5.94ZM17.38,17v74.52h12.48c9.11,0,13.74-2.57,13.89-7.72.64-19.69.64-39.44,0-59.23-.15-5.05-4.73-7.57-13.74-7.57h-12.63ZM123.38,107.25h-51.92V1.26h51.92v15.73h-34.54v28.57h32.54v15.73h-32.54v30.21h34.54v15.73ZM161.27,108.43c-10.89,0-18.69-1.9-23.4-5.71-4.7-3.86-7.26-10.27-7.65-19.22-.4-5.15-.27-10.42.37-15.81h16.64c-.3,3.41-.47,6.75-.52,10.02,0,3.27.17,6.31.52,9.13.25,2.28,1.44,4.03,3.57,5.27,2.18,1.19,5.65,1.78,10.4,1.78s8.07-.59,10.1-1.78c2.08-1.24,3.27-2.99,3.57-5.27.35-2.57.5-5,.45-7.27-.05-2.33-.2-4.77-.45-7.35-.25-2.13-1.04-4.01-2.38-5.64-1.34-1.63-3.99-2.72-7.95-3.27l-12.33-2.6c-5.84-1.14-10.35-2.77-13.52-4.9-3.12-2.13-5.32-4.8-6.61-8.02-1.29-3.22-2.03-7-2.23-11.36-.1-2.08-.15-4.06-.15-5.94.05-1.88.12-3.76.22-5.64.3-8.86,2.8-15.21,7.5-19.07,4.7-3.86,12.63-5.79,23.77-5.79,10.5,0,18.1,1.93,22.8,5.79,4.7,3.86,7.23,10.22,7.58,19.07.15,1.98.17,4.43.07,7.35-.05,2.87-.15,5.62-.3,8.24h-16.79c.45-6.48.49-12.79.15-18.93-.4-4.65-4.93-6.98-13.59-6.98-4.71,0-8.1.59-10.18,1.78-2.08,1.19-3.27,2.92-3.57,5.2-.35,2.47-.52,4.97-.52,7.5.05,2.47.22,4.95.52,7.42.25,2.18,1.04,4.06,2.38,5.64,1.34,1.53,4.11,2.57,8.32,3.12l11.37,2.15c6.04,1.09,10.67,2.75,13.89,4.97,3.22,2.23,5.47,5,6.76,8.31,1.34,3.27,2.11,7.12,2.3,11.58.15,1.98.2,3.88.15,5.72-.05,1.83-.15,3.69-.3,5.57-.4,8.96-2.97,15.36-7.73,19.22-4.71,3.81-12.46,5.71-23.25,5.71ZM220.55,107.25h-17.38V1.26h17.38v105.98ZM263.78,108.43c-10.89,0-18.67-1.9-23.32-5.71-4.61-3.86-7.06-10.27-7.35-19.22-.25-5.49-.42-11.7-.52-18.63-.05-6.93-.05-13.8,0-20.63.1-6.88.27-12.99.52-18.33.3-9.4,2.77-16.06,7.43-19.96,4.71-3.96,12.43-5.94,23.18-5.94s17.73,1.93,22.43,5.79c4.7,3.86,7.3,10.22,7.8,19.07.25,2.28.35,4.87.3,7.79,0,2.87-.1,5.47-.3,7.79h-17.38c.2-2.67.3-5.81.3-9.43.05-3.66-.05-6.83-.3-9.5-.4-4.65-4.68-6.98-12.85-6.98s-12.97,2.33-13.22,6.98c-.35,6.63-.57,13.73-.67,21.3-.1,7.57-.1,15.14,0,22.71.15,7.57.37,14.67.67,21.3.1,2.28,1.21,4.03,3.34,5.27,2.13,1.19,5.45,1.78,9.95,1.78,8.77,0,13.42-2.35,13.96-7.05.1-1.93.15-4.35.15-7.27s-.05-5.39-.15-7.27h-13.3v-15.51h30.31c.2,3.91.3,8.24.3,12.99s-.15,9.33-.45,13.73c-.35,8.96-2.92,15.36-7.73,19.22-4.8,3.81-12.5,5.71-23.1,5.71ZM321.42,107.25h-16.86V1.26h26.82l8.62,33.77,10.4,56.48h4.09l-3.2-46.24-1.26-44.01h16.86v105.98h-27.93l-9.14-35.33-8.47-55h-4.23l2.9,49.8,1.41,40.52ZM473.33,107.25h-17.38V17h-20.21V1.26h57.72v15.73h-20.13v90.25ZM517.01,107.25h-17.38V1.26h17.38v44.31h26.96V1.26h17.38v105.98h-17.38v-45.94h-26.96v45.94ZM585.87,107.25h-17.9L585.94,1.26h30.16l17.97,105.98h-17.83l-3.79-23.75h-22.73l-3.86,23.75ZM594.56,44.38l-3.27,23.38h19.54l-3.19-23.38-3.86-27.39h-5.35l-3.86,27.39ZM673.75,107.25h-17.38V17h-20.21V1.26h57.72v15.73h-20.13v90.25ZM792.9,108.43c-10.74,0-18.42-1.9-23.03-5.71-4.56-3.86-6.96-10.24-7.21-19.15-.2-5.54-.34-11.83-.44-18.85-.05-7.03-.05-14.05,0-21.08.1-7.03.25-13.33.44-18.93.2-7.67,2.65-13.71,7.36-18.11,4.7-4.4,12.3-6.61,22.8-6.61s18.2,1.93,22.95,5.79c4.8,3.86,7.35,10.22,7.65,19.07.1,2.23.13,4.82.08,7.79-.05,2.92-.12,5.52-.22,7.79h-17.38c.09-2.62.15-5.76.15-9.43.05-3.71.02-6.85-.08-9.43-.05-2.33-1.11-4.06-3.19-5.2-2.09-1.19-5.4-1.78-9.96-1.78s-7.55.59-9.58,1.78c-1.98,1.14-3.04,2.87-3.19,5.2-.25,6.63-.42,13.73-.52,21.3-.1,7.52-.1,15.07,0,22.64.1,7.57.27,14.67.52,21.3.15,2.33,1.24,4.08,3.27,5.27,2.04,1.19,5.22,1.78,9.58,1.78,4.81,0,8.3-.59,10.47-1.78,2.18-1.19,3.32-2.94,3.42-5.27.1-2.62.13-5.79.08-9.5-.05-3.76-.12-6.95-.22-9.57h17.46c.15,2.42.22,5.05.22,7.87.05,2.82,0,5.47-.15,7.94-.35,8.91-2.95,15.29-7.8,19.15-4.8,3.81-12.63,5.71-23.47,5.71ZM850.99,107.25h-17.38V1.26h17.38v44.31h26.96V1.26h17.38v105.98h-17.38v-45.94h-26.96v45.94ZM919.84,107.25h-17.9L919.92,1.26h30.16l17.98,105.98h-17.83l-3.78-23.75h-22.73l-3.87,23.75ZM928.53,44.38l-3.26,23.38h19.54l-3.2-23.38-3.86-27.39h-5.35l-3.87,27.39ZM991.45,107.25h-16.86V1.26h26.82l8.62,33.77,10.39,56.48h4.09l-3.19-46.24-1.27-44.01h16.87v105.98h-27.93l-9.14-35.33-8.47-55h-4.23l2.9,49.8,1.41,40.52ZM1078.22,108.43c-10.9,0-18.67-1.9-23.33-5.71-4.61-3.86-7.05-10.27-7.35-19.22-.25-5.49-.42-11.7-.52-18.63-.05-6.93-.05-13.8,0-20.63.1-6.88.27-12.99.52-18.33.3-9.4,2.77-16.06,7.43-19.96,4.7-3.96,12.43-5.94,23.17-5.94s17.73,1.93,22.44,5.79c4.7,3.86,7.3,10.22,7.79,19.07.26,2.28.35,4.87.3,7.79,0,2.87-.09,5.47-.3,7.79h-17.38c.21-2.67.3-5.81.3-9.43.05-3.66-.05-6.83-.3-9.5-.39-4.65-4.68-6.98-12.85-6.98-8.57,0-12.97,2.33-13.22,6.98-.35,6.63-.57,13.73-.66,21.3-.11,7.57-.11,15.14,0,22.71.14,7.57.36,14.67.66,21.3.1,2.28,1.21,4.03,3.34,5.27,2.13,1.19,5.45,1.78,9.96,1.78,8.76,0,13.42-2.35,13.96-7.05.1-1.93.15-4.35.15-7.27s-.05-5.39-.15-7.27h-13.29v-15.51h30.3c.2,3.91.3,8.24.3,12.99s-.15,9.33-.44,13.73c-.35,8.96-2.93,15.36-7.73,19.22-4.81,3.81-12.5,5.71-23.1,5.71ZM1170.93,107.25h-51.93V1.26h51.93v15.73h-34.55v28.57h32.54v15.73h-32.54v30.21h34.55v15.73ZM1208.81,108.43c-10.9,0-18.7-1.9-23.4-5.71-4.7-3.86-7.26-10.27-7.65-19.22-.4-5.15-.27-10.42.37-15.81h16.64c-.3,3.41-.47,6.75-.52,10.02,0,3.27.17,6.31.52,9.13.24,2.28,1.43,4.03,3.56,5.27,2.18,1.19,5.65,1.78,10.41,1.78s8.07-.59,10.09-1.78c2.08-1.24,3.27-2.99,3.57-5.27.34-2.57.5-5,.45-7.27-.05-2.33-.2-4.77-.45-7.35-.24-2.13-1.04-4.01-2.37-5.64-1.34-1.63-3.99-2.72-7.95-3.27l-12.33-2.6c-5.85-1.14-10.35-2.77-13.52-4.9-3.12-2.13-5.33-4.8-6.61-8.02-1.29-3.22-2.04-7-2.24-11.36-.09-2.08-.14-4.06-.14-5.94.05-1.88.12-3.76.22-5.64.3-8.86,2.8-15.21,7.51-19.07,4.7-3.86,12.62-5.79,23.77-5.79,10.49,0,18.09,1.93,22.8,5.79,4.7,3.86,7.23,10.22,7.57,19.07.15,1.98.18,4.43.08,7.35-.05,2.87-.15,5.62-.3,8.24h-16.79c.45-6.48.5-12.79.15-18.93-.39-4.65-4.92-6.98-13.59-6.98-4.7,0-8.1.59-10.18,1.78-2.08,1.19-3.26,2.92-3.56,5.2-.35,2.47-.52,4.97-.52,7.5.05,2.47.22,4.95.52,7.42.24,2.18,1.04,4.06,2.37,5.64,1.34,1.53,4.11,2.57,8.32,3.12l11.37,2.15c6.04,1.09,10.67,2.75,13.89,4.97,3.22,2.23,5.47,5,6.76,8.31,1.34,3.27,2.1,7.12,2.3,11.58.15,1.98.2,3.88.15,5.72-.05,1.83-.15,3.69-.3,5.57-.4,8.96-2.97,15.36-7.72,19.22-4.71,3.81-12.46,5.71-23.25,5.71ZM1344.52,107.25h-17.38V17h-20.2V1.26h57.71v15.73h-20.13v90.25ZM1388.2,107.25h-17.38V1.26h17.38v44.31h26.97V1.26h17.38v105.98h-17.38v-45.94h-26.97v45.94ZM1495.09,107.25h-51.92V1.26h51.92v15.73h-34.54v28.57h32.54v15.73h-32.54v30.21h34.54v15.73ZM1600.8,107.25h-28.6l-9.21-105.98h17.53l3.12,46.91,2,43.34h3.27l.22-43.34,8.03-46.16h22.8l8.03,46.16.15,43.34h3.34l2-43.34,3.13-46.91h17.45l-9.14,105.98h-28.67l-4.46-30.58-1.63-59.52h-3.19l-1.79,59.52-4.38,30.58ZM1692.61,108.43c-10.94,0-18.81-1.9-23.62-5.71-4.8-3.86-7.33-10.24-7.57-19.15-.35-9.4-.52-19.17-.52-29.32s.17-19.99.52-29.39c.24-8.86,2.77-15.21,7.57-19.07,4.81-3.86,12.68-5.79,23.62-5.79s18.87,1.93,23.62,5.79c4.81,3.86,7.33,10.22,7.58,19.07.35,9.5.52,19.32.52,29.46s-.17,19.84-.52,29.24c-.25,8.91-2.77,15.29-7.58,19.15-4.75,3.81-12.62,5.71-23.62,5.71ZM1692.61,93.89c4.86,0,8.35-.59,10.48-1.78s3.24-2.92,3.34-5.2c.4-6.53.64-13.61.74-21.23.1-7.67.08-15.34-.07-23.01-.1-7.67-.32-14.72-.67-21.15-.1-2.33-1.24-4.06-3.42-5.2-2.18-1.19-5.65-1.78-10.4-1.78s-8.15.59-10.32,1.78c-2.18,1.14-3.35,2.87-3.49,5.2-.4,6.43-.65,13.48-.74,21.15-.11,7.67-.08,15.34.07,23.01.15,7.62.37,14.7.67,21.23.14,2.28,1.31,4.01,3.49,5.2,2.17,1.19,5.62,1.78,10.32,1.78ZM1751.59,107.25h-17.38V1.26h28.45c10.65,0,18.35,1.88,23.1,5.64,4.81,3.76,7.41,9.97,7.8,18.63.35,4.11.5,7.62.45,10.54,0,2.92-.15,6.36-.45,10.32-.25,5.49-1.51,9.97-3.78,13.43-2.28,3.41-5.78,6.01-10.48,7.79l17.31,39.63h-18.57l-15.3-36.66h-11.15v36.66ZM1751.59,17v37.85h10.85c4.7,0,8.12-.64,10.25-1.93,2.13-1.29,3.29-3.14,3.49-5.57.65-7.62.65-15.21,0-22.79-.2-2.47-1.36-4.35-3.49-5.64-2.13-1.29-5.47-1.93-10.03-1.93h-11.07ZM1853.14,107.25h-48.81V1.26h17.39v90.25h31.42v15.73ZM1890.2,107.25h-29.86V1.26h30.02c10.84,0,18.69,1.98,23.54,5.94,4.85,3.96,7.38,10.44,7.58,19.45.3,9.85.44,19.02.44,27.54s-.14,17.64-.44,27.53c-.2,9.1-2.73,15.64-7.58,19.59-4.85,3.96-12.75,5.94-23.7,5.94ZM1877.73,17v74.52h12.47c9.12,0,13.75-2.57,13.9-7.72.64-19.69.64-39.44,0-59.23-.15-5.05-4.73-7.57-13.74-7.57h-12.63Z"/>
  </g>
</svg>