<?xml version="1.0" encoding="UTF-8"?>
<svg id="Layer_2" xmlns="http://www.w3.org/2000/svg" version="1.1" xmlns:xlink="http://www.w3.org/1999/xlink" viewBox="0 0 201.95 300">
  <!-- Generator: Adobe Illustrator 29.7.1, SVG Export Plug-In . SVG Version: 2.1.1 Build 8)  -->
  <defs>
    <style>
      .st0 {
        fill: url(#radial-gradient10);
      }

      .st1 {
        fill: #fff;
      }

      .st2 {
        stroke-width: .4px;
      }

      .st2, .st3, .st4, .st5, .st6 {
        stroke: #fff;
        stroke-miterlimit: 10;
      }

      .st2, .st5 {
        fill: #1c222f;
      }

      .st7 {
        fill: url(#radial-gradient11);
      }

      .st8, .st3 {
        fill: none;
      }

      .st9 {
        fill: url(#radial-gradient4);
      }

      .st9, .st10, .st11, .st12, .st13, .st14 {
        isolation: isolate;
        opacity: .28;
      }

      .st10 {
        fill: url(#radial-gradient7);
      }

      .st15 {
        fill: url(#radial-gradient);
      }

      .st3 {
        stroke-width: .43px;
      }

      .st16 {
        fill: url(#radial-gradient1);
      }

      .st11 {
        fill: url(#radial-gradient3);
      }

      .st4 {
        fill: url(#radial-gradient13);
      }

      .st4, .st5, .st6 {
        stroke-width: .5px;
      }

      .st17 {
        fill: url(#radial-gradient6);
      }

      .st12 {
        fill: url(#radial-gradient9);
      }

      .st18 {
        fill: url(#radial-gradient2);
      }

      .st6 {
        fill: url(#radial-gradient12);
      }

      .st19 {
        clip-path: url(#clippath);
      }

      .st13 {
        fill: url(#radial-gradient8);
      }

      .st14 {
        fill: url(#radial-gradient5);
      }
    </style>
    <clipPath id="clippath">
      <rect class="st8" width="201.95" height="300"/>
    </clipPath>
    <radialGradient id="radial-gradient" cx="112.99" cy="180.73" fx="112.99" fy="180.73" r="51.85" gradientTransform="translate(0 302) scale(1 -1)" gradientUnits="userSpaceOnUse">
      <stop offset="0" stop-color="#d9a3a3"/>
      <stop offset=".43" stop-color="#d93535"/>
      <stop offset="1" stop-color="#000"/>
    </radialGradient>
    <radialGradient id="radial-gradient1" cx="80.32" cy="115.85" fx="80.32" fy="115.85" r="23.07" gradientTransform="translate(.02 302.01) scale(1 -1)" gradientUnits="userSpaceOnUse">
      <stop offset="0" stop-color="#eeb5b5"/>
      <stop offset=".31" stop-color="#d93535"/>
      <stop offset=".87" stop-color="#1e2328"/>
    </radialGradient>
    <radialGradient id="radial-gradient2" cx="8988.79" cy="-503.58" fx="8988.79" fy="-503.58" r="72.38" gradientTransform="translate(670.63 9026.23) rotate(-90)" gradientUnits="userSpaceOnUse">
      <stop offset="0" stop-color="#323c43"/>
      <stop offset="1" stop-color="#d93535"/>
    </radialGradient>
    <radialGradient id="radial-gradient3" cx="8991.58" cy="-500.79" fx="8991.58" fy="-500.79" r="72.38" gradientTransform="translate(670.63 9026.23) rotate(-90)" gradientUnits="userSpaceOnUse">
      <stop offset="0" stop-color="#323c43"/>
      <stop offset="1" stop-color="#d93535"/>
    </radialGradient>
    <radialGradient id="radial-gradient4" cx="8994.32" cy="-498.04" fx="8994.32" fy="-498.04" r="72.38" gradientTransform="translate(670.63 9026.23) rotate(-90)" gradientUnits="userSpaceOnUse">
      <stop offset="0" stop-color="#323c43"/>
      <stop offset="1" stop-color="#d93535"/>
    </radialGradient>
    <radialGradient id="radial-gradient5" cx="8997.13" cy="-495.24" fx="8997.13" fy="-495.24" r="72.38" gradientTransform="translate(670.67 9026.23) rotate(-90)" gradientUnits="userSpaceOnUse">
      <stop offset="0" stop-color="#323c43"/>
      <stop offset="1" stop-color="#d93535"/>
    </radialGradient>
    <radialGradient id="radial-gradient6" cx="8266.21" cy="658.55" fx="8266.21" fy="658.55" r="72.38" gradientTransform="translate(693.67 -8004.44) rotate(90)" gradientUnits="userSpaceOnUse">
      <stop offset="0" stop-color="#323c43"/>
      <stop offset="1" stop-color="#d93535"/>
    </radialGradient>
    <radialGradient id="radial-gradient7" cx="8269" cy="661.34" fx="8269" fy="661.34" r="72.38" gradientTransform="translate(693.67 -8004.44) rotate(90)" gradientUnits="userSpaceOnUse">
      <stop offset="0" stop-color="#323c43"/>
      <stop offset="1" stop-color="#d93535"/>
    </radialGradient>
    <radialGradient id="radial-gradient8" cx="8271.75" cy="664.09" fx="8271.75" fy="664.09" r="72.38" gradientTransform="translate(693.67 -8004.44) rotate(90)" gradientUnits="userSpaceOnUse">
      <stop offset="0" stop-color="#323c43"/>
      <stop offset="1" stop-color="#d93535"/>
    </radialGradient>
    <radialGradient id="radial-gradient9" cx="8274.55" cy="666.9" fx="8274.55" fy="666.9" r="72.38" gradientTransform="translate(693.67 -8004.44) rotate(90)" gradientUnits="userSpaceOnUse">
      <stop offset="0" stop-color="#323c43"/>
      <stop offset="1" stop-color="#d93535"/>
    </radialGradient>
    <radialGradient id="radial-gradient10" cx="234.75" cy="335.73" fx="234.75" fy="335.73" r="5.37" gradientTransform="translate(-155.19 80) rotate(41.05) scale(1 -.46) skewX(-1.29)" gradientUnits="userSpaceOnUse">
      <stop offset="0" stop-color="#000" stop-opacity=".99"/>
      <stop offset=".86" stop-color="#000" stop-opacity="0"/>
    </radialGradient>
    <radialGradient id="radial-gradient11" cx="122.81" cy="195.4" fx="122.81" fy="195.4" r="9.32" gradientTransform="translate(0 302) scale(1 -1)" gradientUnits="userSpaceOnUse">
      <stop offset="0" stop-color="#eeb5b5"/>
      <stop offset=".31" stop-color="#d93535"/>
      <stop offset=".87" stop-color="#1e2328"/>
    </radialGradient>
    <radialGradient id="radial-gradient12" cx="112.35" cy="137.8" fx="112.35" fy="137.8" r="70.02" gradientTransform="translate(0 302) scale(1 -1)" gradientUnits="userSpaceOnUse">
      <stop offset="0" stop-color="#252b32"/>
      <stop offset="1" stop-color="#d93535"/>
    </radialGradient>
    <radialGradient id="radial-gradient13" cx="39.74" cy="241.91" fx="39.74" fy="241.91" r="38.76" gradientTransform="translate(0 302) scale(1 -1)" gradientUnits="userSpaceOnUse">
      <stop offset="0" stop-color="#323c43"/>
      <stop offset="1" stop-color="#d93535"/>
    </radialGradient>
  </defs>
  <g id="OBJECTS">
    <g class="st19">
      <g>
        <path class="st3" d="M168.01,241.73H34.15l29.98-184.95h73.9l29.98,184.95ZM157.42,241.73l-25.24-184.95M147.18,241.73l-20.65-184.95M120.88,56.78l16.06,184.95M126.69,241.73l-11.47-184.95M116.45,241.73l-6.88-184.95M106.21,241.73l-2.29-184.95M95.96,241.73l2.29-184.95M92.6,56.78l-6.88,184.95M86.95,56.78l-11.47,184.95M65.23,241.73l16.06-184.95M54.99,241.73l20.65-184.95M44.74,241.73l25.24-184.95M36.82,225.28h128.53M38.29,216.21h125.59M39.76,207.15h122.65M41.23,198.09h119.71M42.7,189.02h116.77M158,179.96H44.17M45.64,170.89h110.9M155.06,161.83H47.11M48.57,152.76h105.02M50.04,143.7h102.08M51.51,134.64h99.14M149.19,125.57H52.98M147.72,116.51H54.45M55.92,107.44h90.33M57.39,98.38h87.39M58.86,89.32h84.45M60.33,80.25h81.51M61.8,71.19h78.57M63.27,62.12h75.63"/>
        <path class="st1" d="M22.97,61.36h-.71v4.99h.71v-4.99ZM25.11,64.21v-.71h-4.99v.71h4.99ZM22.97,141.39h-.71v4.99h.71v-4.99ZM25.11,144.25v-.71h-4.99v.71h4.99ZM179.37,61.36h-.71v4.99h.71v-4.99ZM181.51,64.21v-.71h-4.99v.71h4.99ZM179.37,141.39h-.71v4.99h.71v-4.99ZM181.51,144.25v-.71h-4.99v.71h4.99Z"/>
        <ellipse class="st2" cx="101.08" cy="160.08" rx="34.47" ry="12.22"/>
        <circle class="st15" cx="101.07" cy="133.06" r="31.1"/>
        <circle class="st16" cx="75.03" cy="191.41" r="13.84"/>
        <g>
          <rect class="st18" x="103.17" y="53.14" width="54.7" height="16.97"/>
          <rect class="st11" x="105.96" y="50.35" width="54.7" height="16.97"/>
          <rect class="st9" x="108.71" y="47.6" width="54.7" height="16.97"/>
          <rect class="st14" x="111.51" y="44.8" width="54.7" height="16.97"/>
        </g>
        <rect class="st17" x="44.3" y="229.1" width="54.7" height="16.97"/>
        <rect class="st10" x="41.5" y="231.89" width="54.7" height="16.97"/>
        <rect class="st13" x="38.76" y="234.64" width="54.7" height="16.97"/>
        <rect class="st12" x="35.95" y="237.44" width="54.7" height="16.97"/>
        <path class="st0" d="M122.66,116.77c-.73,1.09-3.61.44-6.43-1.46s-4.5-4.32-3.77-5.41c.73-1.09,3.61-.44,6.43,1.46s4.5,4.32,3.77,5.41Z"/>
        <path class="st7" d="M126.26,108.72c0,3.09-2.5,5.59-5.59,5.59s-5.59-2.5-5.59-5.59,2.5-5.59,5.59-5.59,5.59,2.5,5.59,5.59Z"/>
        <rect class="st5" x="139.81" y="188.27" width="33.96" height="33.96"/>
        <rect class="st5" x="136.76" y="185.22" width="33.96" height="33.96"/>
        <rect class="st5" x="133.71" y="182.17" width="33.96" height="33.96"/>
        <rect class="st5" x="130.66" y="179.12" width="33.96" height="33.96"/>
        <rect class="st6" x="127.61" y="176.07" width="33.96" height="33.96"/>
        <rect class="st5" x="54.94" y="73.41" width="18.8" height="18.8"/>
        <rect class="st5" x="51.56" y="70.04" width="18.8" height="18.8"/>
        <rect class="st4" x="48.19" y="66.66" width="18.8" height="18.8"/>
      </g>
    </g>
  </g>
</svg>