<?xml version="1.0" encoding="UTF-8"?>
<svg id="Layer_2" xmlns="http://www.w3.org/2000/svg" version="1.1" xmlns:xlink="http://www.w3.org/1999/xlink" viewBox="0 0 201.95 300">
  <!-- Generator: Adobe Illustrator 29.7.1, SVG Export Plug-In . SVG Version: 2.1.1 Build 8)  -->
  <defs>
    <style>
      .st0 {
        fill: #fff;
      }

      .st1 {
        fill: #1c222f;
        stroke-width: .4px;
      }

      .st1, .st2 {
        stroke: #fff;
        stroke-miterlimit: 10;
      }

      .st2 {
        stroke-width: .5px;
      }

      .st2, .st3 {
        fill: none;
      }

      .st4 {
        fill: url(#radial-gradient);
      }

      .st5 {
        fill: url(#radial-gradient7);
      }

      .st5, .st6 {
        isolation: isolate;
        opacity: .3;
      }

      .st7 {
        fill: url(#radial-gradient5);
      }

      .st8 {
        fill: url(#radial-gradient1);
      }

      .st9 {
        fill: url(#radial-gradient6);
      }

      .st10 {
        fill: url(#radial-gradient2);
      }

      .st11 {
        fill: url(#radial-gradient4);
      }

      .st12 {
        fill: url(#radial-gradient3);
      }

      .st13 {
        fill: url(#radial-gradient9);
      }

      .st6 {
        fill: url(#radial-gradient8);
      }

      .st14 {
        clip-path: url(#clippath);
      }
    </style>
    <clipPath id="clippath">
      <rect class="st3" width="201.95" height="300"/>
    </clipPath>
    <radialGradient id="radial-gradient" cx="155.05" cy="173.95" fx="155.05" fy="173.95" r="15.44" gradientTransform="translate(-.01 301.99) scale(1 -1)" gradientUnits="userSpaceOnUse">
      <stop offset="0" stop-color="#d9a3a3"/>
      <stop offset=".43" stop-color="#d93535"/>
      <stop offset="1" stop-color="#000"/>
    </radialGradient>
    <radialGradient id="radial-gradient1" cx="58.04" cy="77.84" fx="58.04" fy="77.84" r="71.7" gradientTransform="translate(0 302) scale(1 -1)" gradientUnits="userSpaceOnUse">
      <stop offset="0" stop-color="#323c43"/>
      <stop offset="1" stop-color="#d93535"/>
    </radialGradient>
    <radialGradient id="radial-gradient2" cx="100.69" cy="123.97" fx="100.69" fy="123.97" r="53.56" gradientTransform="translate(0 302) scale(1 -1)" gradientUnits="userSpaceOnUse">
      <stop offset="0" stop-color="#323c43"/>
      <stop offset="1" stop-color="#d93535"/>
    </radialGradient>
    <radialGradient id="radial-gradient3" cx="98.91" cy="130.62" fx="98.91" fy="130.62" r="34.61" gradientTransform="translate(0 302) scale(1 -1)" gradientUnits="userSpaceOnUse">
      <stop offset="0" stop-color="#323c43"/>
      <stop offset="1" stop-color="#d93535"/>
    </radialGradient>
    <radialGradient id="radial-gradient4" cx="104.65" cy="157.34" fx="104.65" fy="157.34" r="25.02" gradientTransform="translate(0 302) scale(1 -1)" gradientUnits="userSpaceOnUse">
      <stop offset="0" stop-color="#d9a3a3"/>
      <stop offset=".43" stop-color="#d93535"/>
      <stop offset="1" stop-color="#000"/>
    </radialGradient>
    <radialGradient id="radial-gradient5" cx="91.61" cy="173.71" fx="91.61" fy="173.71" r="86.88" gradientTransform="translate(0 302) scale(1 -1)" gradientUnits="userSpaceOnUse">
      <stop offset="0" stop-color="#323c43"/>
      <stop offset="1" stop-color="#d93535"/>
    </radialGradient>
    <radialGradient id="radial-gradient6" cx="18.5" cy="231.53" fx="18.5" fy="231.53" r="114.39" gradientTransform="translate(0 302) scale(1 -1)" gradientUnits="userSpaceOnUse">
      <stop offset="0" stop-color="#323c43"/>
      <stop offset="1" stop-color="#d93535"/>
    </radialGradient>
    <radialGradient id="radial-gradient7" cx="914.17" cy="-211.87" fx="914.17" fy="-211.87" r="10.93" gradientTransform="translate(-1489.14 181.04) rotate(-2.68) scale(1.73 -.3) skewX(-.38)" gradientUnits="userSpaceOnUse">
      <stop offset="0" stop-color="#000" stop-opacity=".99"/>
      <stop offset=".86" stop-color="#000" stop-opacity="0"/>
    </radialGradient>
    <radialGradient id="radial-gradient8" cx="845.42" cy="-996.11" fx="845.42" fy="-996.11" r="10.93" gradientTransform="translate(-1415.73 -122.51) rotate(-2.68) scale(1.73 -.3) skewX(-.38)" xlink:href="#radial-gradient7"/>
    <radialGradient id="radial-gradient9" cx="65.78" cy="216.77" fx="65.78" fy="216.77" r="26.43" gradientTransform="translate(0 302) scale(1 -1)" gradientUnits="userSpaceOnUse">
      <stop offset="0" stop-color="#d9a3a3"/>
      <stop offset=".43" stop-color="#d93535"/>
      <stop offset="1" stop-color="#000"/>
    </radialGradient>
  </defs>
  <g class="st14">
    <g>
      <path class="st2" d="M178.34,247.55H23.61l34.65-40.58h85.43l34.65,40.58ZM166.1,247.55l-29.17-40.58M154.26,247.55l-23.87-40.58M142.42,247.55l-18.57-40.58M130.58,247.55l-13.26-40.58M118.73,247.55l-7.95-40.58M106.89,247.55l-2.65-40.58M95.05,247.55l2.66-40.58M83.21,247.55l7.96-40.58M71.37,247.55l13.26-40.58M59.53,247.55l18.56-40.58M47.69,247.55l23.87-40.58M35.85,247.55l29.17-40.58M26.69,243.94h148.57M28.39,241.95h145.17M30.09,239.96h141.77M31.78,237.97h138.38M33.48,235.98h134.98M35.18,233.99h131.59M36.88,232.01h128.19M38.58,230.02h124.79M40.28,228.03h121.39M41.97,226.04h118M43.67,224.05h114.6M45.37,222.06h111.21M47.07,220.07h107.81M48.77,218.09h104.41M50.47,216.1h101.01M52.17,214.11h97.61M53.86,212.12h94.22M55.56,210.13h90.83M57.26,208.14h87.43"/>
      <circle class="st4" cx="151.5" cy="131.56" r="9.26"/>
      <path class="st0" d="M21.04,198.39h2.4v.8h-2.4v2.4h-.8v-2.4h-2.4v-.8h2.4v-2.4h.8v2.4ZM176.88,195.99h-.8v2.4h-2.41v.8h2.41v2.4h.8v-2.4h2.39v-.8h-2.39v-2.4ZM21.04,52.93h-.8v2.4h-2.39v.8h2.39v2.4h.8v-2.4h2.41v-.8h-2.41v-2.4ZM176.88,55.34v-2.41h-.8v2.41h-2.4v.8h2.4v2.39h.8v-2.39h2.4v-.8h-2.4Z"/>
      <path class="st1" d="M100.97,228.07c-27.14,0-49.14-2.27-49.14-5.07s22-5.07,49.14-5.07,49.14,2.27,49.14,5.07-22,5.07-49.14,5.07Z"/>
      <polygon class="st8" points="51.09 171.22 98.9 223.7 98.9 181.86 51.09 171.22"/>
      <polygon class="st10" points="146.72 171.22 98.9 181.86 98.9 223.7 146.72 171.22"/>
      <polygon class="st12" points="51.09 171.22 98.73 160.89 146.72 171.22 98.9 181.86 51.09 171.22"/>
      <circle class="st11" cx="98.9" cy="150.36" r="15"/>
      <polygon class="st7" points="98.9 55.19 98.9 129.48 146.72 118.83 98.9 55.19"/>
      <polygon class="st9" points="98.9 55.19 98.9 129.48 51.09 118.83 98.9 55.19"/>
      <ellipse class="st5" cx="98.9" cy="170.22" rx="17.68" ry="3.95"/>
      <ellipse class="st6" cx="73.5" cy="106.83" rx="17.68" ry="3.95" transform="translate(-41.21 46.36) rotate(-27.67)"/>
      <circle class="st13" cx="62.03" cy="91.66" r="16.64"/>
    </g>
  </g>
</svg>