<?xml version="1.0" encoding="UTF-8"?>
<svg id="Layer_2" data-name="Layer 2" xmlns="http://www.w3.org/2000/svg" xmlns:xlink="http://www.w3.org/1999/xlink" viewBox="0 0 201.95 300">
  <defs>
    <style>
      .cls-1 {
        fill: url(#radial-gradient-11);
      }

      .cls-1, .cls-2, .cls-3, .cls-4, .cls-5, .cls-6 {
        opacity: .28;
      }

      .cls-7 {
        fill: #1c222f;
      }

      .cls-7, .cls-8 {
        stroke: #fff;
        stroke-miterlimit: 10;
        stroke-width: .4px;
      }

      .cls-9 {
        fill: url(#linear-gradient-2);
      }

      .cls-2 {
        fill: url(#radial-gradient-9);
      }

      .cls-10 {
        fill: #fff;
      }

      .cls-11, .cls-8 {
        fill: none;
      }

      .cls-12 {
        fill: url(#linear-gradient-4);
      }

      .cls-3 {
        fill: url(#radial-gradient-10);
      }

      .cls-13 {
        fill: url(#radial-gradient);
      }

      .cls-14 {
        fill: url(#radial-gradient-3);
      }

      .cls-15 {
        fill: url(#linear-gradient-3);
      }

      .cls-4 {
        fill: url(#radial-gradient-7);
      }

      .cls-16 {
        fill: url(#radial-gradient-8);
      }

      .cls-17 {
        fill: url(#radial-gradient-2);
      }

      .cls-18 {
        fill: url(#radial-gradient-4);
      }

      .cls-5 {
        fill: url(#radial-gradient-6);
      }

      .cls-6 {
        fill: url(#radial-gradient-5);
      }

      .cls-19 {
        fill: url(#linear-gradient);
      }

      .cls-20 {
        clip-path: url(#clippath);
      }
    </style>
    <clipPath id="clippath">
      <rect class="cls-11" width="201.95" height="300"/>
    </clipPath>
    <radialGradient id="radial-gradient" cx="102.12" cy="132.77" fx="102.12" fy="132.77" r="36.75" gradientTransform="translate(34.93 -17.75) rotate(13.28)" gradientUnits="userSpaceOnUse">
      <stop offset="0" stop-color="#fff"/>
      <stop offset=".31" stop-color="#d93535"/>
      <stop offset=".87" stop-color="#20262d"/>
    </radialGradient>
    <radialGradient id="radial-gradient-2" cx="127.39" cy="206.2" fx="127.39" fy="206.2" r="15.43" gradientTransform="translate(89.68 -31.43) rotate(22.5)" gradientUnits="userSpaceOnUse">
      <stop offset="0" stop-color="#d99e9e"/>
      <stop offset=".31" stop-color="#d93535"/>
      <stop offset=".87" stop-color="#1d232a"/>
    </radialGradient>
    <radialGradient id="radial-gradient-3" cx="112.57" cy="105.54" fx="112.57" fy="105.54" r="11.72" gradientTransform="matrix(1,0,0,1,0,0)" xlink:href="#radial-gradient-2"/>
    <linearGradient id="linear-gradient" x1="2350.04" y1="-3347.5" x2="2353.92" y2="-3354.07" gradientTransform="translate(1559.91 -3675.14) rotate(55.76) scale(1 -1)" gradientUnits="userSpaceOnUse">
      <stop offset=".17" stop-color="#323c43"/>
      <stop offset="1" stop-color="#d93535"/>
    </linearGradient>
    <linearGradient id="linear-gradient-2" x1="2336.6" y1="-3355.94" x2="2354.76" y2="-3353.5" gradientTransform="translate(1559.91 -3675.14) rotate(55.76) scale(1 -1)" gradientUnits="userSpaceOnUse">
      <stop offset=".17" stop-color="#472125"/>
      <stop offset="1" stop-color="#d93535"/>
    </linearGradient>
    <linearGradient id="linear-gradient-3" x1="7581.56" y1="4482.12" x2="7588.05" y2="4471.13" gradientTransform="translate(8049.35 -3675.14) rotate(124.24)" xlink:href="#linear-gradient"/>
    <linearGradient id="linear-gradient-4" x1="7559.07" y1="4468" x2="7589.45" y2="4472.08" gradientTransform="translate(8049.35 -3675.14) rotate(124.24)" xlink:href="#linear-gradient-2"/>
    <radialGradient id="radial-gradient-4" cx="180.88" cy="75.32" fx="180.88" fy="75.32" r="86.6" gradientUnits="userSpaceOnUse">
      <stop offset="0" stop-color="#323c43"/>
      <stop offset="1" stop-color="#d93535"/>
    </radialGradient>
    <radialGradient id="radial-gradient-5" cx="184.22" cy="71.98" fx="184.22" fy="71.98" r="86.6" xlink:href="#radial-gradient-4"/>
    <radialGradient id="radial-gradient-6" cx="187.51" cy="68.69" fx="187.51" fy="68.69" r="86.6" xlink:href="#radial-gradient-4"/>
    <radialGradient id="radial-gradient-7" cx="190.86" cy="65.33" fx="190.86" fy="65.33" r="86.6" xlink:href="#radial-gradient-4"/>
    <radialGradient id="radial-gradient-8" cx="9249.73" cy="160.05" fx="9249.73" fy="160.05" r="86.6" gradientTransform="translate(-9164.63 407.51) scale(1 -1)" xlink:href="#radial-gradient-4"/>
    <radialGradient id="radial-gradient-9" cx="9253.07" cy="156.71" fx="9253.07" fy="156.71" r="86.6" gradientTransform="translate(-9171.31 400.83) scale(1 -1)" xlink:href="#radial-gradient-4"/>
    <radialGradient id="radial-gradient-10" cx="9256.35" cy="153.42" fx="9256.35" fy="153.42" r="86.6" gradientTransform="translate(-9177.89 394.25) scale(1 -1)" xlink:href="#radial-gradient-4"/>
    <radialGradient id="radial-gradient-11" cx="9259.71" cy="150.07" fx="9259.71" fy="150.07" r="86.6" gradientTransform="translate(-9184.6 387.54) scale(1 -1)" xlink:href="#radial-gradient-4"/>
  </defs>
  <g id="OBJECTS">
    <g class="cls-20">
      <path class="cls-8" d="M152.33,209.65c-12.23-1.72-20.84-1.54-28.67.44-7.77,1.96-14.77,5.73-22.41,10.64-7.59,4.89-15.82,10.92-24.71,16.88-8.83,5.93-18.32,11.79-27.04,15.79.4-67.15.42-133.47,0-203.19,18.04,9.47,36.97,23.65,51.74,32.74,15.66,9.42,27.15,13.76,51.1,10.99-.21,37.96-.22,75.97,0,115.7ZM141.8,94.77c-1.23,11.41-2.86,27.32-3.5,44.19-.6,17.59-.21,36.15,3.48,69.64M133.1,94.57c-1.09,8.29-3.58,24.49-4.94,40.85-.64,8.33-.96,16.77-.37,27.29.6,10.75,2.1,23.57,5.25,45.93M125.41,93.44c-1.16,9.46-3.84,27.63-5.31,43.16-.69,7.99-1.04,15.41-.4,25.13.64,10.06,2.26,22.42,5.65,47.97M118.32,91.42c-1.49,15.66-3.78,35.09-4.78,49.06-.48,7.37-.61,13.72.02,22.9.64,9.49,2.04,21.82,4.71,48.38M111.51,88.59c-.73,12.9-1.43,24.34-1.99,33.69-.57,9.43-1,16.77-1.18,23.25-.18,6.6-.1,12.33.37,21.57.47,9.42,1.35,22.35,2.79,47.65M104.72,85.01c-.36,39.65-.57,53.43-.58,65.74-.01,12.71.17,23.96.58,67.8M97.74,223.06c.65-17.13,1.22-31.09,1.66-41.75.44-10.78.73-18.26.83-24.97.09-6.82-.01-12.85-.4-23.24-.39-10.5-1.05-25.35-2.08-52.31M90.42,228.08c.99-12.5,2.08-25.36,3.05-36.55.97-11.28,1.82-20.88,2.26-28.96.44-8.31.47-15.09-.27-25.99-.75-11.26-2.26-26.64-5-60.56M82.7,233.44c1.89-17.53,5.53-44.95,7.36-64.34.88-10.12,1.24-18.54.32-30.66-.93-12.66-3.14-29.02-7.6-67.57M74.63,238.89c1.75-13.75,6.05-41.75,8.47-64.58,1.16-11.73,1.75-22.26.75-36.26-1.01-14.58-3.6-32.64-9.11-72.55M66.31,244.19c2.08-15.87,6.28-43.1,8.43-68.44,1.03-12.96,1.48-25.65.44-41.86-1.05-16.61-3.59-36.75-8.77-73.81M57.94,249.08c2.47-23.41,5.35-50.35,6.36-78.6.49-14.33.49-29.28-.42-47.14-.91-18-2.71-38.92-5.9-68.4M152.3,203.57c-13.31-6.42-22.95-9.04-30.47-7.88-7.62,1.12-13.12,6.01-20.43,13.67-6.83,7.19-15.48,17.14-24.23,23.54-8.85,6.69-17.8,9.84-27.62,10.22M152.27,197.66c-14.23-10.28-24.57-13.82-31.86-13.15-7.48.78-11.9,5.78-18.89,15.11-6.47,8.75-14.76,20.68-23.64,27.91-4.4,3.6-8.85,5.96-13.38,6.69-4.56.8-9.2-.02-14.91-1.13M152.25,191.78c-7.14-7.18-13.88-10.95-19.41-13.31-5.58-2.29-9.95-3.17-13.51-2.95-7.04.31-11.33,5.82-17.62,15.5-6.11,9.41-14.19,22.79-22.99,30.5-4.35,3.8-8.78,6.05-13.36,6.1-4.63.15-9.41-1.89-15.7-4.55M152.23,185.92c-7.38-8.59-14.37-12.59-20.04-15.01-5.73-2.32-10.14-3.05-13.65-2.79-6.94.42-10.79,5.65-16.72,15.4-5.74,9.44-13.52,23.48-22.21,31.48-4.3,3.91-8.71,6.11-13.38,5.66-4.73-.35-9.72-3.35-16.53-7.63M152.21,180.08c-7.57-9.64-14.69-13.68-20.45-15.98-5.81-2.18-10.26-2.63-13.74-2.22-6.9.76-10.5,5.68-16.1,15.1-5.42,9.09-12.81,23.08-21.37,31.18-4.24,3.91-8.65,6.1-13.45,5.28-4.86-.73-10.1-4.47-17.37-10.42M152.2,174.26c-7.71-10.32-14.89-14.3-20.68-16.41-5.84-1.97-10.3-2.06-13.79-1.43-6.91,1.27-10.41,5.99-15.72,14.83-5.15,8.52-12.08,21.9-20.49,29.86-4.17,3.81-8.6,5.97-13.56,4.87-5.01-1.04-10.55-5.34-18.2-12.99M152.19,168.45c-7.82-10.65-14.96-14.56-20.74-16.44-5.83-1.75-10.29-1.48-13.8-.57-6.97,1.88-10.5,6.6-15.57,14.74-4.92,7.86-11.35,20.22-19.61,27.82-8.49,7.42-17.05,7.88-32.7-11.04M152.18,162.67c-7.9-10.66-14.93-14.5-20.67-16.19-5.77-1.56-10.23-.96-13.78.25-7.06,2.54-10.75,7.47-15.6,14.91-4.52,7.03-10.87,18.45-18.72,25.27-8.07,6.39-17.63,8.18-33.62-14M49.8,162.85c16.51,24.82,26.54,22.64,34.45,17.12,7.77-6.24,13.44-15.82,17.91-22.51,4.69-6.82,8.63-12.19,15.8-15.35,3.6-1.49,8.05-2.36,13.73-.94,5.66,1.53,12.54,5.34,20.48,15.72M49.8,152.78c8.32,13.83,15.18,19.79,20.94,22.06,5.76,2.21,10.41.75,14.3-1.72,3.89-2.53,7.02-6.05,9.74-9.4,2.72-3.42,5.04-6.66,7.32-10.13,4.57-6.62,8.97-12.13,16.27-16.16,7.31-3.25,17.5-5.03,33.8,13.7M49.8,142.69c8.54,15.07,15.6,21.28,21.45,23.99,5.85,2.59,10.5,1.68,14.33-.15,7.65-4.05,12.07-10.98,16.61-16.92,4.48-6.11,9.16-12.52,16.58-16.81,7.43-3.67,17.59-5.23,33.41,12.59M49.79,132.57c8.49,15.84,15.76,22.52,21.73,25.77,5.99,3.12,10.68,2.81,14.47,1.59,7.55-2.77,11.61-8.57,16.2-14.4,4.39-5.73,9.64-13.13,17.1-17.48,7.56-3.95,17.34-4.85,32.89,11.6M49.78,122.44c8.35,16.21,15.75,23.39,21.8,27.26,6.08,3.72,10.82,4.13,14.58,3.56,7.49-1.4,11.29-6.3,16-12.1,4.37-5.48,10.18-13.67,17.7-17.89,7.68-4.05,17.08-4.14,32.33,10.69M49.76,112.27c8.12,16.09,15.56,23.77,21.65,28.28,6.13,4.38,10.9,5.57,14.66,5.67,7.47,0,11.17-4.21,16.06-9.96,4.43-5.3,10.77-13.91,18.35-17.82,7.8-3.93,16.84-3.17,31.74,9.8M49.73,102.07c7.79,15.42,15.16,23.52,21.22,28.63,6.11,5.01,10.9,7.02,14.68,7.77,7.51,1.38,11.29-2.27,16.41-7.84,4.6-5.08,11.4-13.59,19.03-16.99,7.89-3.58,16.62-2.05,31.14,8.89M49.69,91.84c7.35,14.14,14.53,22.45,20.49,28.04,6.01,5.52,10.81,8.31,14.65,9.67,7.61,2.68,11.68-.39,17.12-5.48,4.89-4.66,12.05-12.41,19.73-15.11,7.96-2.97,16.45-.88,30.55,7.87M49.65,81.56c14.24,23.99,26.13,33.39,33.92,37.28,8.12,3.64,12.15,1.76,18.25-2.51,5.32-3.82,12.71-10.04,20.43-11.84,8-2.1,16.34.23,29.99,6.66M49.61,71.25c12.79,19.18,24.2,29.54,32.24,34.3,8.33,4.79,13.29,3.99,19.82,1.59,5.9-2.27,13.37-6.12,21.13-6.85,8-.98,16.3,1.18,29.48,5.16M49.56,60.89c10.98,12.82,21.65,22.44,30.03,27.87,8.59,5.61,14.88,7.04,21.9,7.48,6.64.36,14.01-.28,21.8.24,7.96.37,16.35,1.89,29.02,3.3"/>
      <path class="cls-10" d="M178.29,61.16h-.85v-5.97h.85v5.97ZM180.85,58.6v-.85h-5.97v.85h5.97ZM178.29,147.02h-.85v5.97h.85v-5.97ZM180.85,150.43v-.85h-5.97v.85h5.97ZM178.29,238.84h-.85v5.97h.85v-5.97ZM180.85,242.25v-.85h-5.97v.85h5.97ZM25.76,55.19h-.85v5.97h.85v-5.97ZM28.32,58.6v-.85h-5.97v.85h5.97ZM25.76,147.02h-.85v5.97h.85v-5.97ZM28.32,150.43v-.85h-5.97v.85h5.97ZM25.76,238.84h-.85v5.97h.85v-5.97ZM28.32,242.25v-.85h-5.97v.85h5.97Z"/>
      <path class="cls-7" d="M113.8,157.61c-13.68,18.22-29.31,29.58-34.9,25.37-5.6-4.2.95-22.38,14.63-40.6,13.68-18.22,29.31-29.58,34.9-25.37,5.6,4.2-.95,22.38-14.63,40.6Z"/>
      <circle class="cls-13" cx="93.68" cy="141.12" r="22.04" transform="translate(-29.92 25.3) rotate(-13.28)"/>
      <circle class="cls-17" cx="123.85" cy="209.7" r="9.25" transform="translate(-70.82 63.36) rotate(-22.5)"/>
      <path class="cls-14" d="M116.91,108.2c0,3.88-3.15,7.03-7.03,7.03s-7.03-3.15-7.03-7.03,3.15-7.03,7.03-7.03,7.03,3.15,7.03,7.03Z"/>
      <path class="cls-19" d="M116.54,160.08c-.32.11-.64.16-.96.16-.14,0-.29,0-.43-.03-.12-.02-.23-.04-.34-.06-.1-.03-.2-.06-.3-.09-.09-.03-.18-.07-.27-.11l-8.38-4.26c.09.04.18.08.27.11.1.04.2.07.3.09.11.03.23.05.34.06.14.02.28.03.43.03.32,0,.64-.06.96-.16.32-.11.62-.26.88-.45.12-.09.24-.18.34-.28.09-.08.17-.17.25-.26.07-.08.14-.17.2-.26.06-.08.12-.17.17-.26.05-.09.1-.18.15-.27.05-.09.09-.19.12-.29.04-.1.07-.21.1-.31.03-.12.06-.24.08-.36.02-.15.04-.29.04-.44.01-.33-.02-.66-.11-.99-.24-.9-.83-1.59-1.58-1.97l8.38,4.26c.75.38,1.34,1.07,1.58,1.97.09.33.12.66.11.99,0,.15-.02.3-.04.44-.02.12-.05.24-.08.36-.03.11-.06.21-.1.31-.04.1-.08.19-.12.29-.04.09-.09.18-.15.27-.05.09-.11.18-.17.26-.06.09-.13.17-.2.26-.08.09-.16.18-.25.26-.11.1-.22.19-.34.28-.27.19-.56.34-.88.45Z"/>
      <path class="cls-9" d="M104.24,153.7c.47,1.74,2.22,2.69,3.92,2.12,1.7-.56,2.7-2.43,2.24-4.16s-2.22-2.69-3.92-2.12c-1.7.56-2.7,2.43-2.24,4.16Z"/>
      <path class="cls-15" d="M75.09,85.18c.54.18,1.08.27,1.6.27.24,0,.48-.01.71-.04.19-.03.38-.06.57-.11.17-.04.33-.09.5-.15.15-.06.31-.12.45-.19l14.02-7.13c-.15.07-.3.13-.45.19-.16.06-.33.11-.5.15-.19.05-.38.08-.57.11-.23.03-.47.04-.71.04-.53,0-1.07-.09-1.6-.27-.54-.18-1.03-.43-1.48-.75-.2-.14-.39-.3-.57-.47-.15-.14-.29-.29-.42-.44-.12-.14-.23-.28-.34-.43-.1-.14-.2-.29-.29-.44-.09-.15-.17-.3-.24-.45-.08-.16-.14-.32-.21-.48-.06-.17-.12-.34-.17-.52-.05-.2-.1-.4-.13-.6-.04-.24-.07-.49-.07-.74-.02-.55.04-1.11.19-1.66.4-1.51,1.39-2.66,2.64-3.29l-14.02,7.13c-1.25.63-2.24,1.78-2.64,3.29-.15.55-.21,1.11-.19,1.66,0,.25.03.49.07.74.03.2.08.4.13.6.05.18.11.35.17.52.06.16.13.32.21.48.07.15.16.31.24.45.09.15.18.29.29.44.11.15.22.29.34.43.13.15.28.3.42.44.18.17.37.32.57.47.45.32.94.57,1.48.75Z"/>
      <path class="cls-12" d="M95.67,74.5c-.78,2.91-3.72,4.5-6.57,3.56-2.85-.94-4.52-4.06-3.74-6.97.78-2.91,3.72-4.5,6.56-3.55,2.85.94,4.52,4.06,3.74,6.97Z"/>
      <rect class="cls-18" x="141.8" y="86.29" width="20.3" height="65.45"/>
      <rect class="cls-6" x="145.13" y="82.95" width="20.3" height="65.45"/>
      <rect class="cls-5" x="148.42" y="79.67" width="20.3" height="65.45"/>
      <rect class="cls-4" x="151.78" y="76.31" width="20.3" height="65.45"/>
      <rect class="cls-16" x="46.01" y="171.03" width="20.3" height="65.45" transform="translate(112.32 407.51) rotate(180)"/>
      <rect class="cls-2" x="42.67" y="167.69" width="20.3" height="65.45" transform="translate(105.65 400.83) rotate(180)"/>
      <rect class="cls-3" x="39.38" y="164.4" width="20.3" height="65.45" transform="translate(99.07 394.25) rotate(180)"/>
      <rect class="cls-1" x="36.03" y="161.05" width="20.3" height="65.45" transform="translate(92.36 387.54) rotate(180)"/>
    </g>
  </g>
</svg>